<?xml version="1.0" encoding="UTF-8" standalone="no"?>
<!DOCTYPE svg PUBLIC "-//W3C//DTD SVG 1.1//EN"
 "http://www.w3.org/Graphics/SVG/1.1/DTD/svg11.dtd">
<!-- Generated by graphviz version 13.1.1 (20250720.1534)
 -->
<!-- Title: Example Pages: 1 -->
<svg width="153pt" height="216pt"
 viewBox="0.00 0.00 153.00 216.00" xmlns="http://www.w3.org/2000/svg" xmlns:xlink="http://www.w3.org/1999/xlink">
<g id="graph0" class="graph" transform="scale(0.829773 0.829773) rotate(0) translate(4 256.31)">
<title>Example</title>
<polygon fill="none" stroke="none" points="-4,4 -4,-256.31 180.42,-256.31 180.42,4 -4,4"/>
<!-- 1/foo -->
<g id="node1" class="node">
<title>1/foo</title>
<ellipse fill="none" stroke="black" cx="88.21" cy="-222.26" rx="88.21" ry="30.05"/>
<text xml:space="preserve" text-anchor="middle" x="88.21" y="-226.21" font-family="sans" font-size="14.00">foo</text>
<text xml:space="preserve" text-anchor="middle" x="88.21" y="-208.96" font-family="sans" font-size="14.00">2000&#45;01&#45;01T00</text>
</g>
<!-- 2/foo -->
<g id="node2" class="node">
<title>2/foo</title>
<ellipse fill="none" stroke="black" cx="88.21" cy="-126.16" rx="88.21" ry="30.05"/>
<text xml:space="preserve" text-anchor="middle" x="88.21" y="-130.11" font-family="sans" font-size="14.00">foo</text>
<text xml:space="preserve" text-anchor="middle" x="88.21" y="-112.86" font-family="sans" font-size="14.00">2000&#45;01&#45;02T00</text>
</g>
<!-- 1/foo&#45;&gt;2/foo -->
<g id="edge1" class="edge">
<title>1/foo&#45;&gt;2/foo</title>
<path fill="none" stroke="black" d="M88.21,-191.74C88.21,-184.21 88.21,-175.98 88.21,-167.99"/>
<polygon fill="black" stroke="black" points="91.71,-168.08 88.21,-158.08 84.71,-168.08 91.71,-168.08"/>
</g>
<!-- 3/foo -->
<g id="node3" class="node">
<title>3/foo</title>
<ellipse fill="none" stroke="black" cx="88.21" cy="-30.05" rx="88.21" ry="30.05"/>
<text xml:space="preserve" text-anchor="middle" x="88.21" y="-34" font-family="sans" font-size="14.00">foo</text>
<text xml:space="preserve" text-anchor="middle" x="88.21" y="-16.75" font-family="sans" font-size="14.00">2000&#45;01&#45;03T00</text>
</g>
<!-- 2/foo&#45;&gt;3/foo -->
<g id="edge2" class="edge">
<title>2/foo&#45;&gt;3/foo</title>
<path fill="none" stroke="black" d="M88.21,-95.64C88.21,-88.11 88.21,-79.87 88.21,-71.88"/>
<polygon fill="black" stroke="black" points="91.71,-71.98 88.21,-61.98 84.71,-71.98 91.71,-71.98"/>
</g>
</g>
</svg>
