<?xml version="1.0" encoding="UTF-8" standalone="no"?>
<!DOCTYPE svg PUBLIC "-//W3C//DTD SVG 1.1//EN"
 "http://www.w3.org/Graphics/SVG/1.1/DTD/svg11.dtd">
<!-- Generated by graphviz version 2.40.1 (20161225.0304)
 -->
<!-- Title: example Pages: 1 -->
<svg width="504pt" height="94pt"
 viewBox="0.00 0.00 504.00 94.29" xmlns="http://www.w3.org/2000/svg" xmlns:xlink="http://www.w3.org/1999/xlink">
<g id="graph0" class="graph" transform="scale(.5015 .5015) rotate(0) translate(4 184)">
<title>example</title>
<polygon fill="transparent" stroke="transparent" points="-4,4 -4,-184 1000.9256,-184 1000.9256,4 -4,4"/>
<!-- get_observations_belmullet -->
<g id="node1" class="node">
<title>get_observations_belmullet</title>
<ellipse fill="none" stroke="#000000" cx="139.0877" cy="-162" rx="139.1754" ry="18"/>
<text text-anchor="middle" x="139.0877" y="-158.3" font-family="sans" font-size="14.00" fill="#000000">get_observations_belmullet</text>
</g>
<!-- consolidate_observations -->
<g id="node2" class="node">
<title>consolidate_observations</title>
<ellipse fill="none" stroke="#000000" cx="399.0877" cy="-18" rx="128.8774" ry="18"/>
<text text-anchor="middle" x="399.0877" y="-14.3" font-family="sans" font-size="14.00" fill="#000000">consolidate_observations</text>
</g>
<!-- get_observations_belmullet&#45;&gt;consolidate_observations -->
<g id="edge1" class="edge">
<title>get_observations_belmullet&#45;&gt;consolidate_observations</title>
<path fill="none" stroke="#000000" d="M163.9845,-144.1965C191.2571,-125.0987 236.6478,-94.4872 278.0877,-72 300.1914,-60.0055 325.4827,-48.4076 347.2083,-39.055"/>
<polygon fill="#000000" stroke="#000000" points="348.7682,-42.1949 356.5971,-35.0564 346.0253,-35.7547 348.7682,-42.1949"/>
</g>
<!-- hidden -->
<!-- get_observations_belmullet&#45;&gt;hidden -->
<!-- get_observations_camborne -->
<g id="node3" class="node">
<title>get_observations_camborne</title>
<ellipse fill="none" stroke="#000000" cx="439.0877" cy="-162" rx="142.9746" ry="18"/>
<text text-anchor="middle" x="439.0877" y="-158.3" font-family="sans" font-size="14.00" fill="#000000">get_observations_camborne</text>
</g>
<!-- get_observations_camborne&#45;&gt;consolidate_observations -->
<g id="edge2" class="edge">
<title>get_observations_camborne&#45;&gt;consolidate_observations</title>
<path fill="none" stroke="#000000" d="M431.1404,-143.7644C426.8493,-133.4182 421.7055,-120.147 418.0877,-108 412.0193,-87.6253 407.1242,-64.1032 403.8233,-46.2169"/>
<polygon fill="#000000" stroke="#000000" points="407.228,-45.3735 402.0224,-36.1457 400.3373,-46.6057 407.228,-45.3735"/>
</g>
<!-- get_observations_camborne&#45;&gt;hidden -->
<!-- get_observations_heathrow -->
<g id="node4" class="node">
<title>get_observations_heathrow</title>
<ellipse fill="none" stroke="#000000" cx="567.0877" cy="-90" rx="139.9756" ry="18"/>
<text text-anchor="middle" x="567.0877" y="-86.3" font-family="sans" font-size="14.00" fill="#000000">get_observations_heathrow</text>
</g>
<!-- get_observations_heathrow&#45;&gt;consolidate_observations -->
<g id="edge3" class="edge">
<title>get_observations_heathrow&#45;&gt;consolidate_observations</title>
<path fill="none" stroke="#000000" d="M526.8475,-72.7542C503.3486,-62.6833 473.5108,-49.8956 448.5811,-39.2115"/>
<polygon fill="#000000" stroke="#000000" points="449.8605,-35.9519 439.2903,-35.2297 447.103,-42.386 449.8605,-35.9519"/>
</g>
<!-- get_observations_shetland -->
<g id="node5" class="node">
<title>get_observations_shetland</title>
<ellipse fill="none" stroke="#000000" cx="861.0877" cy="-90" rx="135.6761" ry="18"/>
<text text-anchor="middle" x="861.0877" y="-86.3" font-family="sans" font-size="14.00" fill="#000000">get_observations_shetland</text>
</g>
<!-- get_observations_shetland&#45;&gt;consolidate_observations -->
<g id="edge4" class="edge">
<title>get_observations_shetland&#45;&gt;consolidate_observations</title>
<path fill="none" stroke="#000000" d="M772.8289,-76.2454C693.4602,-63.8762 577.1172,-45.7449 495.372,-33.0054"/>
<polygon fill="#000000" stroke="#000000" points="495.4985,-29.4829 485.0788,-31.4012 494.4205,-36.3994 495.4985,-29.4829"/>
</g>
<!-- hidden&#45;&gt;consolidate_observations -->
</g>
</svg>
