<?xml version="1.0" encoding="UTF-8" standalone="no"?>
<!DOCTYPE svg PUBLIC "-//W3C//DTD SVG 1.1//EN"
 "http://www.w3.org/Graphics/SVG/1.1/DTD/svg11.dtd">
<!-- Generated by graphviz version 2.40.1 (20161225.0304)
 -->
<!-- Title: %3 Pages: 1 -->
<svg width="755pt" height="1778pt"
 viewBox="0.00 0.00 755.00 1777.50" xmlns="http://www.w3.org/2000/svg" xmlns:xlink="http://www.w3.org/1999/xlink">
<g id="graph0" class="graph" transform="scale(1 1) rotate(0) translate(4 1773.5)">
<title>%3</title>
<polygon fill="transparent" stroke="transparent" points="-4,4 -4,-1773.5 751,-1773.5 751,4 -4,4"/>
<!-- broadcast_events -->
<g id="node1" class="node">
<title>broadcast_events</title>
<polygon fill="none" stroke="#000000" points="583.5,-642.5 583.5,-670.5 730.5,-670.5 730.5,-642.5 583.5,-642.5"/>
<text text-anchor="start" x="588.5" y="-653.7" font-family="Helvetica,sans-Serif" font-weight="bold" font-size="16.00" fill="#000000">broadcast_events</text>
<polygon fill="none" stroke="#000000" points="583.5,-617.5 583.5,-642.5 730.5,-642.5 730.5,-617.5 583.5,-617.5"/>
<text text-anchor="start" x="588.5" y="-626.3" font-family="Helvetica,sans-Serif" font-size="14.00" fill="#000000">time</text>
<polygon fill="none" stroke="#000000" points="583.5,-592.5 583.5,-617.5 730.5,-617.5 730.5,-592.5 583.5,-592.5"/>
<text text-anchor="start" x="588.5" y="-601.3" font-family="Helvetica,sans-Serif" font-size="14.00" fill="#000000">change</text>
<polygon fill="none" stroke="#000000" points="583.5,-567.5 583.5,-592.5 730.5,-592.5 730.5,-567.5 583.5,-567.5"/>
<text text-anchor="start" x="588.5" y="-576.3" font-family="Helvetica,sans-Serif" font-size="14.00" fill="#000000">point</text>
<polygon fill="none" stroke="#000000" points="583.5,-542.5 583.5,-567.5 730.5,-567.5 730.5,-542.5 583.5,-542.5"/>
<text text-anchor="start" x="588.5" y="-551.3" font-family="Helvetica,sans-Serif" font-size="14.00" fill="#000000">namespace</text>
<polygon fill="none" stroke="#000000" points="583.5,-517.5 583.5,-542.5 730.5,-542.5 730.5,-517.5 583.5,-517.5"/>
<text text-anchor="start" x="588.5" y="-526.3" font-family="Helvetica,sans-Serif" font-size="14.00" fill="#000000">key</text>
<polygon fill="none" stroke="#000000" points="583.5,-492.5 583.5,-517.5 730.5,-517.5 730.5,-492.5 583.5,-492.5"/>
<text text-anchor="start" x="588.5" y="-501.3" font-family="Helvetica,sans-Serif" font-size="14.00" fill="#000000">value</text>
</g>
<!-- broadcast_states -->
<g id="node2" class="node">
<title>broadcast_states</title>
<polygon fill="none" stroke="#000000" points="8.5,-1091.5 8.5,-1119.5 151.5,-1119.5 151.5,-1091.5 8.5,-1091.5"/>
<text text-anchor="start" x="13.5" y="-1102.7" font-family="Helvetica,sans-Serif" font-weight="bold" font-size="16.00" fill="#000000">broadcast_states</text>
<polygon fill="none" stroke="#000000" points="8.5,-1066.5 8.5,-1091.5 151.5,-1091.5 151.5,-1066.5 8.5,-1066.5"/>
<text text-anchor="start" x="13.5" y="-1076.3" font-family="Helvetica,sans-Serif" text-decoration="underline" font-size="14.00" fill="#000000">point</text>
<polygon fill="none" stroke="#000000" points="8.5,-1041.5 8.5,-1066.5 151.5,-1066.5 151.5,-1041.5 8.5,-1041.5"/>
<text text-anchor="start" x="13.5" y="-1051.3" font-family="Helvetica,sans-Serif" text-decoration="underline" font-size="14.00" fill="#000000">namespace</text>
<polygon fill="none" stroke="#000000" points="8.5,-1016.5 8.5,-1041.5 151.5,-1041.5 151.5,-1016.5 8.5,-1016.5"/>
<text text-anchor="start" x="13.5" y="-1026.3" font-family="Helvetica,sans-Serif" text-decoration="underline" font-size="14.00" fill="#000000">key</text>
<polygon fill="none" stroke="#000000" points="8.5,-991.5 8.5,-1016.5 151.5,-1016.5 151.5,-991.5 8.5,-991.5"/>
<text text-anchor="start" x="13.5" y="-1000.3" font-family="Helvetica,sans-Serif" font-size="14.00" fill="#000000">value</text>
</g>
<!-- broadcast_states_checkpoints -->
<g id="node3" class="node">
<title>broadcast_states_checkpoints</title>
<polygon fill="none" stroke="#000000" points="240.5,-1103.5 240.5,-1131.5 485.5,-1131.5 485.5,-1103.5 240.5,-1103.5"/>
<text text-anchor="start" x="245.5" y="-1114.7" font-family="Helvetica,sans-Serif" font-weight="bold" font-size="16.00" fill="#000000">broadcast_states_checkpoints</text>
<polygon fill="none" stroke="#000000" points="240.5,-1078.5 240.5,-1103.5 485.5,-1103.5 485.5,-1078.5 240.5,-1078.5"/>
<text text-anchor="start" x="245.5" y="-1088.3" font-family="Helvetica,sans-Serif" text-decoration="underline" font-size="14.00" fill="#000000">id</text>
<polygon fill="none" stroke="#000000" points="240.5,-1053.5 240.5,-1078.5 485.5,-1078.5 485.5,-1053.5 240.5,-1053.5"/>
<text text-anchor="start" x="245.5" y="-1063.3" font-family="Helvetica,sans-Serif" text-decoration="underline" font-size="14.00" fill="#000000">point</text>
<polygon fill="none" stroke="#000000" points="240.5,-1028.5 240.5,-1053.5 485.5,-1053.5 485.5,-1028.5 240.5,-1028.5"/>
<text text-anchor="start" x="245.5" y="-1038.3" font-family="Helvetica,sans-Serif" text-decoration="underline" font-size="14.00" fill="#000000">namespace</text>
<polygon fill="none" stroke="#000000" points="240.5,-1003.5 240.5,-1028.5 485.5,-1028.5 485.5,-1003.5 240.5,-1003.5"/>
<text text-anchor="start" x="245.5" y="-1013.3" font-family="Helvetica,sans-Serif" text-decoration="underline" font-size="14.00" fill="#000000">key</text>
<polygon fill="none" stroke="#000000" points="240.5,-978.5 240.5,-1003.5 485.5,-1003.5 485.5,-978.5 240.5,-978.5"/>
<text text-anchor="start" x="245.5" y="-987.3" font-family="Helvetica,sans-Serif" font-size="14.00" fill="#000000">value</text>
</g>
<!-- broadcast_states&#45;&#45;broadcast_states_checkpoints -->
<g id="edge3" class="edge">
<title>broadcast_states&#45;&#45;broadcast_states_checkpoints</title>
<path fill="none" stroke="#7f7f7f" stroke-dasharray="5,2" d="M159.0844,-1055.5C181.7271,-1055.5 207.0045,-1055.5 231.8345,-1055.5"/>
<text text-anchor="start" x="200.8345" y="-1044.3" font-family="Times,serif" font-size="14.00" fill="#000000">{0,1}</text>
<text text-anchor="start" x="159.0844" y="-1044.3" font-family="Times,serif" font-size="14.00" fill="#000000">0..N</text>
</g>
<!-- checkpoint_id -->
<g id="node4" class="node">
<title>checkpoint_id</title>
<polygon fill="none" stroke="#000000" points="20.5,-933.5 20.5,-961.5 139.5,-961.5 139.5,-933.5 20.5,-933.5"/>
<text text-anchor="start" x="25.5" y="-944.7" font-family="Helvetica,sans-Serif" font-weight="bold" font-size="16.00" fill="#000000">checkpoint_id</text>
<polygon fill="none" stroke="#000000" points="20.5,-908.5 20.5,-933.5 139.5,-933.5 139.5,-908.5 20.5,-908.5"/>
<text text-anchor="start" x="25.5" y="-918.3" font-family="Helvetica,sans-Serif" text-decoration="underline" font-size="14.00" fill="#000000">id</text>
<polygon fill="none" stroke="#000000" points="20.5,-883.5 20.5,-908.5 139.5,-908.5 139.5,-883.5 20.5,-883.5"/>
<text text-anchor="start" x="25.5" y="-892.3" font-family="Helvetica,sans-Serif" font-size="14.00" fill="#000000">time</text>
<polygon fill="none" stroke="#000000" points="20.5,-858.5 20.5,-883.5 139.5,-883.5 139.5,-858.5 20.5,-858.5"/>
<text text-anchor="start" x="25.5" y="-867.3" font-family="Helvetica,sans-Serif" font-size="14.00" fill="#000000">event</text>
</g>
<!-- checkpoint_id&#45;&#45;broadcast_states_checkpoints -->
<g id="edge4" class="edge">
<title>checkpoint_id&#45;&#45;broadcast_states_checkpoints</title>
<path fill="none" stroke="#7f7f7f" stroke-dasharray="5,2" d="M147.2856,-945.2311C172.7132,-958.2594 202.5469,-973.5452 231.765,-988.5156"/>
<text text-anchor="start" x="200.765" y="-977.3156" font-family="Times,serif" font-size="14.00" fill="#000000">{0,1}</text>
<text text-anchor="start" x="147.2856" y="-934.0311" font-family="Times,serif" font-size="14.00" fill="#000000">0..N</text>
</g>
<!-- suite_params_checkpoints -->
<g id="node7" class="node">
<title>suite_params_checkpoints</title>
<polygon fill="none" stroke="#000000" points="254.5,-924.5 254.5,-952.5 471.5,-952.5 471.5,-924.5 254.5,-924.5"/>
<text text-anchor="start" x="259.5" y="-935.7" font-family="Helvetica,sans-Serif" font-weight="bold" font-size="16.00" fill="#000000">suite_params_checkpoints</text>
<polygon fill="none" stroke="#000000" points="254.5,-899.5 254.5,-924.5 471.5,-924.5 471.5,-899.5 254.5,-899.5"/>
<text text-anchor="start" x="259.5" y="-909.3" font-family="Helvetica,sans-Serif" text-decoration="underline" font-size="14.00" fill="#000000">id</text>
<polygon fill="none" stroke="#000000" points="254.5,-874.5 254.5,-899.5 471.5,-899.5 471.5,-874.5 254.5,-874.5"/>
<text text-anchor="start" x="259.5" y="-884.3" font-family="Helvetica,sans-Serif" text-decoration="underline" font-size="14.00" fill="#000000">key</text>
<polygon fill="none" stroke="#000000" points="254.5,-849.5 254.5,-874.5 471.5,-874.5 471.5,-849.5 254.5,-849.5"/>
<text text-anchor="start" x="259.5" y="-858.3" font-family="Helvetica,sans-Serif" font-size="14.00" fill="#000000">value</text>
</g>
<!-- checkpoint_id&#45;&#45;suite_params_checkpoints -->
<g id="edge5" class="edge">
<title>checkpoint_id&#45;&#45;suite_params_checkpoints</title>
<path fill="none" stroke="#7f7f7f" stroke-dasharray="5,2" d="M147.2856,-908.3443C176.8012,-907.4056 212.2537,-906.2782 245.7887,-905.2117"/>
<text text-anchor="start" x="214.7887" y="-894.0117" font-family="Times,serif" font-size="14.00" fill="#000000">{0,1}</text>
<text text-anchor="start" x="147.2856" y="-897.1443" font-family="Times,serif" font-size="14.00" fill="#000000">0..N</text>
</g>
<!-- task_pool_checkpoints -->
<g id="node15" class="node">
<title>task_pool_checkpoints</title>
<polygon fill="none" stroke="#000000" points="268.5,-796.5 268.5,-824.5 456.5,-824.5 456.5,-796.5 268.5,-796.5"/>
<text text-anchor="start" x="273.5" y="-807.7" font-family="Helvetica,sans-Serif" font-weight="bold" font-size="16.00" fill="#000000">task_pool_checkpoints</text>
<polygon fill="none" stroke="#000000" points="268.5,-771.5 268.5,-796.5 456.5,-796.5 456.5,-771.5 268.5,-771.5"/>
<text text-anchor="start" x="273.5" y="-781.3" font-family="Helvetica,sans-Serif" text-decoration="underline" font-size="14.00" fill="#000000">id</text>
<polygon fill="none" stroke="#000000" points="268.5,-746.5 268.5,-771.5 456.5,-771.5 456.5,-746.5 268.5,-746.5"/>
<text text-anchor="start" x="273.5" y="-756.3" font-family="Helvetica,sans-Serif" text-decoration="underline" font-size="14.00" fill="#000000">cycle</text>
<polygon fill="none" stroke="#000000" points="268.5,-721.5 268.5,-746.5 456.5,-746.5 456.5,-721.5 268.5,-721.5"/>
<text text-anchor="start" x="273.5" y="-731.3" font-family="Helvetica,sans-Serif" text-decoration="underline" font-size="14.00" fill="#000000">name</text>
<polygon fill="none" stroke="#000000" points="268.5,-696.5 268.5,-721.5 456.5,-721.5 456.5,-696.5 268.5,-696.5"/>
<text text-anchor="start" x="273.5" y="-705.3" font-family="Helvetica,sans-Serif" font-size="14.00" fill="#000000">spawned</text>
<polygon fill="none" stroke="#000000" points="268.5,-671.5 268.5,-696.5 456.5,-696.5 456.5,-671.5 268.5,-671.5"/>
<text text-anchor="start" x="273.5" y="-680.3" font-family="Helvetica,sans-Serif" font-size="14.00" fill="#000000">status</text>
<polygon fill="none" stroke="#000000" points="268.5,-646.5 268.5,-671.5 456.5,-671.5 456.5,-646.5 268.5,-646.5"/>
<text text-anchor="start" x="273.5" y="-655.3" font-family="Helvetica,sans-Serif" font-size="14.00" fill="#000000">is_held</text>
</g>
<!-- checkpoint_id&#45;&#45;task_pool_checkpoints -->
<g id="edge6" class="edge">
<title>checkpoint_id&#45;&#45;task_pool_checkpoints</title>
<path fill="none" stroke="#7f7f7f" stroke-dasharray="5,2" d="M147.2856,-868.5831C181.1345,-847.6518 222.7915,-821.8922 260.4102,-798.6297"/>
<text text-anchor="start" x="229.4102" y="-787.4297" font-family="Times,serif" font-size="14.00" fill="#000000">{0,1}</text>
<text text-anchor="start" x="147.2856" y="-857.3831" font-family="Times,serif" font-size="14.00" fill="#000000">0..N</text>
</g>
<!-- inheritance -->
<g id="node5" class="node">
<title>inheritance</title>
<polygon fill="none" stroke="#000000" points="608.5,-746.5 608.5,-774.5 704.5,-774.5 704.5,-746.5 608.5,-746.5"/>
<text text-anchor="start" x="613.5" y="-757.7" font-family="Helvetica,sans-Serif" font-weight="bold" font-size="16.00" fill="#000000">inheritance</text>
<polygon fill="none" stroke="#000000" points="608.5,-721.5 608.5,-746.5 704.5,-746.5 704.5,-721.5 608.5,-721.5"/>
<text text-anchor="start" x="613.5" y="-731.3" font-family="Helvetica,sans-Serif" text-decoration="underline" font-size="14.00" fill="#000000">namespace</text>
<polygon fill="none" stroke="#000000" points="608.5,-696.5 608.5,-721.5 704.5,-721.5 704.5,-696.5 608.5,-696.5"/>
<text text-anchor="start" x="613.5" y="-705.3" font-family="Helvetica,sans-Serif" font-size="14.00" fill="#000000">inheritance</text>
</g>
<!-- suite_params -->
<g id="node6" class="node">
<title>suite_params</title>
<polygon fill="none" stroke="#000000" points="22.5,-804.5 22.5,-832.5 136.5,-832.5 136.5,-804.5 22.5,-804.5"/>
<text text-anchor="start" x="27.5" y="-815.7" font-family="Helvetica,sans-Serif" font-weight="bold" font-size="16.00" fill="#000000">suite_params</text>
<polygon fill="none" stroke="#000000" points="22.5,-779.5 22.5,-804.5 136.5,-804.5 136.5,-779.5 22.5,-779.5"/>
<text text-anchor="start" x="27.5" y="-789.3" font-family="Helvetica,sans-Serif" text-decoration="underline" font-size="14.00" fill="#000000">key</text>
<polygon fill="none" stroke="#000000" points="22.5,-754.5 22.5,-779.5 136.5,-779.5 136.5,-754.5 22.5,-754.5"/>
<text text-anchor="start" x="27.5" y="-763.3" font-family="Helvetica,sans-Serif" font-size="14.00" fill="#000000">value</text>
</g>
<!-- suite_params&#45;&#45;suite_params_checkpoints -->
<g id="edge7" class="edge">
<title>suite_params&#45;&#45;suite_params_checkpoints</title>
<path fill="none" stroke="#7f7f7f" stroke-dasharray="5,2" d="M144.7813,-818.413C174.8167,-829.8753 211.3826,-843.8297 245.9061,-857.0048"/>
<text text-anchor="start" x="214.9061" y="-845.8048" font-family="Times,serif" font-size="14.00" fill="#000000">{0,1}</text>
<text text-anchor="start" x="144.7813" y="-807.213" font-family="Times,serif" font-size="14.00" fill="#000000">0..N</text>
</g>
<!-- suite_template_vars -->
<g id="node8" class="node">
<title>suite_template_vars</title>
<polygon fill="none" stroke="#000000" points="574.5,-850.5 574.5,-878.5 739.5,-878.5 739.5,-850.5 574.5,-850.5"/>
<text text-anchor="start" x="579.5" y="-861.7" font-family="Helvetica,sans-Serif" font-weight="bold" font-size="16.00" fill="#000000">suite_template_vars</text>
<polygon fill="none" stroke="#000000" points="574.5,-825.5 574.5,-850.5 739.5,-850.5 739.5,-825.5 574.5,-825.5"/>
<text text-anchor="start" x="579.5" y="-835.3" font-family="Helvetica,sans-Serif" text-decoration="underline" font-size="14.00" fill="#000000">key</text>
<polygon fill="none" stroke="#000000" points="574.5,-800.5 574.5,-825.5 739.5,-825.5 739.5,-800.5 574.5,-800.5"/>
<text text-anchor="start" x="579.5" y="-809.3" font-family="Helvetica,sans-Serif" font-size="14.00" fill="#000000">value</text>
</g>
<!-- task_action_timers -->
<g id="node9" class="node">
<title>task_action_timers</title>
<polygon fill="none" stroke="#000000" points="284.5,-462.5 284.5,-490.5 440.5,-490.5 440.5,-462.5 284.5,-462.5"/>
<text text-anchor="start" x="289.5" y="-473.7" font-family="Helvetica,sans-Serif" font-weight="bold" font-size="16.00" fill="#000000">task_action_timers</text>
<polygon fill="none" stroke="#000000" points="284.5,-437.5 284.5,-462.5 440.5,-462.5 440.5,-437.5 284.5,-437.5"/>
<text text-anchor="start" x="289.5" y="-447.3" font-family="Helvetica,sans-Serif" text-decoration="underline" font-size="14.00" fill="#000000">cycle</text>
<polygon fill="none" stroke="#000000" points="284.5,-412.5 284.5,-437.5 440.5,-437.5 440.5,-412.5 284.5,-412.5"/>
<text text-anchor="start" x="289.5" y="-422.3" font-family="Helvetica,sans-Serif" text-decoration="underline" font-size="14.00" fill="#000000">name</text>
<polygon fill="none" stroke="#000000" points="284.5,-387.5 284.5,-412.5 440.5,-412.5 440.5,-387.5 284.5,-387.5"/>
<text text-anchor="start" x="289.5" y="-397.3" font-family="Helvetica,sans-Serif" text-decoration="underline" font-size="14.00" fill="#000000">ctx_key</text>
<polygon fill="none" stroke="#000000" points="284.5,-362.5 284.5,-387.5 440.5,-387.5 440.5,-362.5 284.5,-362.5"/>
<text text-anchor="start" x="289.5" y="-371.3" font-family="Helvetica,sans-Serif" font-size="14.00" fill="#000000">ctx</text>
<polygon fill="none" stroke="#000000" points="284.5,-337.5 284.5,-362.5 440.5,-362.5 440.5,-337.5 284.5,-337.5"/>
<text text-anchor="start" x="289.5" y="-346.3" font-family="Helvetica,sans-Serif" font-size="14.00" fill="#000000">delays</text>
<polygon fill="none" stroke="#000000" points="284.5,-312.5 284.5,-337.5 440.5,-337.5 440.5,-312.5 284.5,-312.5"/>
<text text-anchor="start" x="289.5" y="-321.3" font-family="Helvetica,sans-Serif" font-size="14.00" fill="#000000">num</text>
<polygon fill="none" stroke="#000000" points="284.5,-287.5 284.5,-312.5 440.5,-312.5 440.5,-287.5 284.5,-287.5"/>
<text text-anchor="start" x="289.5" y="-296.3" font-family="Helvetica,sans-Serif" font-size="14.00" fill="#000000">delay</text>
<polygon fill="none" stroke="#000000" points="284.5,-262.5 284.5,-287.5 440.5,-287.5 440.5,-262.5 284.5,-262.5"/>
<text text-anchor="start" x="289.5" y="-271.3" font-family="Helvetica,sans-Serif" font-size="14.00" fill="#000000">timeout</text>
</g>
<!-- task_events -->
<g id="node10" class="node">
<title>task_events</title>
<polygon fill="none" stroke="#000000" points="311.5,-1737.5 311.5,-1765.5 414.5,-1765.5 414.5,-1737.5 311.5,-1737.5"/>
<text text-anchor="start" x="316.5" y="-1748.7" font-family="Helvetica,sans-Serif" font-weight="bold" font-size="16.00" fill="#000000">task_events</text>
<polygon fill="none" stroke="#000000" points="311.5,-1712.5 311.5,-1737.5 414.5,-1737.5 414.5,-1712.5 311.5,-1712.5"/>
<text text-anchor="start" x="316.5" y="-1721.3" font-family="Helvetica,sans-Serif" font-size="14.00" fill="#000000">name</text>
<polygon fill="none" stroke="#000000" points="311.5,-1687.5 311.5,-1712.5 414.5,-1712.5 414.5,-1687.5 311.5,-1687.5"/>
<text text-anchor="start" x="316.5" y="-1696.3" font-family="Helvetica,sans-Serif" font-size="14.00" fill="#000000">cycle</text>
<polygon fill="none" stroke="#000000" points="311.5,-1662.5 311.5,-1687.5 414.5,-1687.5 414.5,-1662.5 311.5,-1662.5"/>
<text text-anchor="start" x="316.5" y="-1671.3" font-family="Helvetica,sans-Serif" font-size="14.00" fill="#000000">time</text>
<polygon fill="none" stroke="#000000" points="311.5,-1637.5 311.5,-1662.5 414.5,-1662.5 414.5,-1637.5 311.5,-1637.5"/>
<text text-anchor="start" x="316.5" y="-1646.3" font-family="Helvetica,sans-Serif" font-size="14.00" fill="#000000">submit_num</text>
<polygon fill="none" stroke="#000000" points="311.5,-1612.5 311.5,-1637.5 414.5,-1637.5 414.5,-1612.5 311.5,-1612.5"/>
<text text-anchor="start" x="316.5" y="-1621.3" font-family="Helvetica,sans-Serif" font-size="14.00" fill="#000000">event</text>
<polygon fill="none" stroke="#000000" points="311.5,-1587.5 311.5,-1612.5 414.5,-1612.5 414.5,-1587.5 311.5,-1587.5"/>
<text text-anchor="start" x="316.5" y="-1596.3" font-family="Helvetica,sans-Serif" font-size="14.00" fill="#000000">message</text>
</g>
<!-- task_jobs -->
<g id="node11" class="node">
<title>task_jobs</title>
<polygon fill="none" stroke="#000000" points="302.5,-1532.5 302.5,-1560.5 423.5,-1560.5 423.5,-1532.5 302.5,-1532.5"/>
<text text-anchor="start" x="325.5" y="-1543.7" font-family="Helvetica,sans-Serif" font-weight="bold" font-size="16.00" fill="#000000">task_jobs</text>
<polygon fill="none" stroke="#000000" points="302.5,-1507.5 302.5,-1532.5 423.5,-1532.5 423.5,-1507.5 302.5,-1507.5"/>
<text text-anchor="start" x="307.5" y="-1517.3" font-family="Helvetica,sans-Serif" text-decoration="underline" font-size="14.00" fill="#000000">cycle</text>
<polygon fill="none" stroke="#000000" points="302.5,-1482.5 302.5,-1507.5 423.5,-1507.5 423.5,-1482.5 302.5,-1482.5"/>
<text text-anchor="start" x="307.5" y="-1492.3" font-family="Helvetica,sans-Serif" text-decoration="underline" font-size="14.00" fill="#000000">name</text>
<polygon fill="none" stroke="#000000" points="302.5,-1457.5 302.5,-1482.5 423.5,-1482.5 423.5,-1457.5 302.5,-1457.5"/>
<text text-anchor="start" x="307.5" y="-1467.3" font-family="Helvetica,sans-Serif" text-decoration="underline" font-size="14.00" fill="#000000">submit_num</text>
<polygon fill="none" stroke="#000000" points="302.5,-1432.5 302.5,-1457.5 423.5,-1457.5 423.5,-1432.5 302.5,-1432.5"/>
<text text-anchor="start" x="307.5" y="-1441.3" font-family="Helvetica,sans-Serif" font-size="14.00" fill="#000000">is_manual_submit</text>
<polygon fill="none" stroke="#000000" points="302.5,-1407.5 302.5,-1432.5 423.5,-1432.5 423.5,-1407.5 302.5,-1407.5"/>
<text text-anchor="start" x="307.5" y="-1416.3" font-family="Helvetica,sans-Serif" font-size="14.00" fill="#000000">try_num</text>
<polygon fill="none" stroke="#000000" points="302.5,-1382.5 302.5,-1407.5 423.5,-1407.5 423.5,-1382.5 302.5,-1382.5"/>
<text text-anchor="start" x="307.5" y="-1391.3" font-family="Helvetica,sans-Serif" font-size="14.00" fill="#000000">time_submit</text>
<polygon fill="none" stroke="#000000" points="302.5,-1357.5 302.5,-1382.5 423.5,-1382.5 423.5,-1357.5 302.5,-1357.5"/>
<text text-anchor="start" x="307.5" y="-1366.3" font-family="Helvetica,sans-Serif" font-size="14.00" fill="#000000">time_submit_exit</text>
<polygon fill="none" stroke="#000000" points="302.5,-1332.5 302.5,-1357.5 423.5,-1357.5 423.5,-1332.5 302.5,-1332.5"/>
<text text-anchor="start" x="307.5" y="-1341.3" font-family="Helvetica,sans-Serif" font-size="14.00" fill="#000000">submit_status</text>
<polygon fill="none" stroke="#000000" points="302.5,-1307.5 302.5,-1332.5 423.5,-1332.5 423.5,-1307.5 302.5,-1307.5"/>
<text text-anchor="start" x="307.5" y="-1316.3" font-family="Helvetica,sans-Serif" font-size="14.00" fill="#000000">time_run</text>
<polygon fill="none" stroke="#000000" points="302.5,-1282.5 302.5,-1307.5 423.5,-1307.5 423.5,-1282.5 302.5,-1282.5"/>
<text text-anchor="start" x="307.5" y="-1291.3" font-family="Helvetica,sans-Serif" font-size="14.00" fill="#000000">time_run_exit</text>
<polygon fill="none" stroke="#000000" points="302.5,-1257.5 302.5,-1282.5 423.5,-1282.5 423.5,-1257.5 302.5,-1257.5"/>
<text text-anchor="start" x="307.5" y="-1266.3" font-family="Helvetica,sans-Serif" font-size="14.00" fill="#000000">run_signal</text>
<polygon fill="none" stroke="#000000" points="302.5,-1232.5 302.5,-1257.5 423.5,-1257.5 423.5,-1232.5 302.5,-1232.5"/>
<text text-anchor="start" x="307.5" y="-1241.3" font-family="Helvetica,sans-Serif" font-size="14.00" fill="#000000">run_status</text>
<polygon fill="none" stroke="#000000" points="302.5,-1207.5 302.5,-1232.5 423.5,-1232.5 423.5,-1207.5 302.5,-1207.5"/>
<text text-anchor="start" x="307.5" y="-1216.3" font-family="Helvetica,sans-Serif" font-size="14.00" fill="#000000">user_at_host</text>
<polygon fill="none" stroke="#000000" points="302.5,-1182.5 302.5,-1207.5 423.5,-1207.5 423.5,-1182.5 302.5,-1182.5"/>
<text text-anchor="start" x="307.5" y="-1191.3" font-family="Helvetica,sans-Serif" font-size="14.00" fill="#000000">batch_sys_name</text>
<polygon fill="none" stroke="#000000" points="302.5,-1157.5 302.5,-1182.5 423.5,-1182.5 423.5,-1157.5 302.5,-1157.5"/>
<text text-anchor="start" x="307.5" y="-1166.3" font-family="Helvetica,sans-Serif" font-size="14.00" fill="#000000">batch_sys_job_id</text>
</g>
<!-- task_late_flags -->
<g id="node12" class="node">
<title>task_late_flags</title>
<polygon fill="none" stroke="#000000" points="299.5,-207.5 299.5,-235.5 425.5,-235.5 425.5,-207.5 299.5,-207.5"/>
<text text-anchor="start" x="304.5" y="-218.7" font-family="Helvetica,sans-Serif" font-weight="bold" font-size="16.00" fill="#000000">task_late_flags</text>
<polygon fill="none" stroke="#000000" points="299.5,-182.5 299.5,-207.5 425.5,-207.5 425.5,-182.5 299.5,-182.5"/>
<text text-anchor="start" x="304.5" y="-192.3" font-family="Helvetica,sans-Serif" text-decoration="underline" font-size="14.00" fill="#000000">cycle</text>
<polygon fill="none" stroke="#000000" points="299.5,-157.5 299.5,-182.5 425.5,-182.5 425.5,-157.5 299.5,-157.5"/>
<text text-anchor="start" x="304.5" y="-167.3" font-family="Helvetica,sans-Serif" text-decoration="underline" font-size="14.00" fill="#000000">name</text>
<polygon fill="none" stroke="#000000" points="299.5,-132.5 299.5,-157.5 425.5,-157.5 425.5,-132.5 299.5,-132.5"/>
<text text-anchor="start" x="304.5" y="-141.3" font-family="Helvetica,sans-Serif" font-size="14.00" fill="#000000">value</text>
</g>
<!-- task_outputs -->
<g id="node13" class="node">
<title>task_outputs</title>
<polygon fill="none" stroke="#000000" points="307.5,-78.5 307.5,-106.5 417.5,-106.5 417.5,-78.5 307.5,-78.5"/>
<text text-anchor="start" x="312.5" y="-89.7" font-family="Helvetica,sans-Serif" font-weight="bold" font-size="16.00" fill="#000000">task_outputs</text>
<polygon fill="none" stroke="#000000" points="307.5,-53.5 307.5,-78.5 417.5,-78.5 417.5,-53.5 307.5,-53.5"/>
<text text-anchor="start" x="312.5" y="-63.3" font-family="Helvetica,sans-Serif" text-decoration="underline" font-size="14.00" fill="#000000">cycle</text>
<polygon fill="none" stroke="#000000" points="307.5,-28.5 307.5,-53.5 417.5,-53.5 417.5,-28.5 307.5,-28.5"/>
<text text-anchor="start" x="312.5" y="-38.3" font-family="Helvetica,sans-Serif" text-decoration="underline" font-size="14.00" fill="#000000">name</text>
<polygon fill="none" stroke="#000000" points="307.5,-3.5 307.5,-28.5 417.5,-28.5 417.5,-3.5 307.5,-3.5"/>
<text text-anchor="start" x="312.5" y="-12.3" font-family="Helvetica,sans-Serif" font-size="14.00" fill="#000000">outputs</text>
</g>
<!-- task_pool -->
<g id="node14" class="node">
<title>task_pool</title>
<polygon fill="none" stroke="#000000" points="36.5,-424.5 36.5,-452.5 122.5,-452.5 122.5,-424.5 36.5,-424.5"/>
<text text-anchor="start" x="41.5" y="-435.7" font-family="Helvetica,sans-Serif" font-weight="bold" font-size="16.00" fill="#000000">task_pool</text>
<polygon fill="none" stroke="#000000" points="36.5,-399.5 36.5,-424.5 122.5,-424.5 122.5,-399.5 36.5,-399.5"/>
<text text-anchor="start" x="41.5" y="-409.3" font-family="Helvetica,sans-Serif" text-decoration="underline" font-size="14.00" fill="#000000">cycle</text>
<polygon fill="none" stroke="#000000" points="36.5,-374.5 36.5,-399.5 122.5,-399.5 122.5,-374.5 36.5,-374.5"/>
<text text-anchor="start" x="41.5" y="-384.3" font-family="Helvetica,sans-Serif" text-decoration="underline" font-size="14.00" fill="#000000">name</text>
<polygon fill="none" stroke="#000000" points="36.5,-349.5 36.5,-374.5 122.5,-374.5 122.5,-349.5 36.5,-349.5"/>
<text text-anchor="start" x="41.5" y="-358.3" font-family="Helvetica,sans-Serif" font-size="14.00" fill="#000000">spawned</text>
<polygon fill="none" stroke="#000000" points="36.5,-324.5 36.5,-349.5 122.5,-349.5 122.5,-324.5 36.5,-324.5"/>
<text text-anchor="start" x="41.5" y="-333.3" font-family="Helvetica,sans-Serif" font-size="14.00" fill="#000000">status</text>
<polygon fill="none" stroke="#000000" points="36.5,-299.5 36.5,-324.5 122.5,-324.5 122.5,-299.5 36.5,-299.5"/>
<text text-anchor="start" x="41.5" y="-308.3" font-family="Helvetica,sans-Serif" font-size="14.00" fill="#000000">is_held</text>
</g>
<!-- task_pool&#45;&#45;task_action_timers -->
<g id="edge9" class="edge">
<title>task_pool&#45;&#45;task_action_timers</title>
<path fill="none" stroke="#7f7f7f" stroke-dasharray="5,2" d="M130.7492,-376.5C171.2867,-376.5 228.7849,-376.5 276.3666,-376.5"/>
<text text-anchor="start" x="245.3666" y="-365.3" font-family="Times,serif" font-size="14.00" fill="#000000">{0,1}</text>
<text text-anchor="start" x="130.7492" y="-365.3" font-family="Times,serif" font-size="14.00" fill="#000000">0..N</text>
</g>
<!-- task_pool&#45;&#45;task_late_flags -->
<g id="edge10" class="edge">
<title>task_pool&#45;&#45;task_late_flags</title>
<path fill="none" stroke="#7f7f7f" stroke-dasharray="5,2" d="M130.787,-328.6497C159.3254,-303.3778 196.2229,-272.8514 232,-249.5 250.5463,-237.395 271.6602,-225.9712 291.4197,-216.1772"/>
<text text-anchor="start" x="260.4197" y="-204.9772" font-family="Times,serif" font-size="14.00" fill="#000000">{0,1}</text>
<text text-anchor="start" x="130.787" y="-317.4497" font-family="Times,serif" font-size="14.00" fill="#000000">{0,1}</text>
</g>
<!-- task_pool&#45;&#45;task_outputs -->
<g id="edge11" class="edge">
<title>task_pool&#45;&#45;task_outputs</title>
<path fill="none" stroke="#7f7f7f" stroke-dasharray="5,2" d="M112.4663,-295.7764C138.3214,-240.5027 178.8275,-168.6006 232,-119.5 251.1878,-101.7816 276.1915,-87.929 299.172,-77.7125"/>
<text text-anchor="start" x="268.172" y="-66.5125" font-family="Times,serif" font-size="14.00" fill="#000000">{0,1}</text>
<text text-anchor="start" x="87.4663" y="-284.5764" font-family="Times,serif" font-size="14.00" fill="#000000">0..N</text>
</g>
<!-- task_pool&#45;&#45;task_pool_checkpoints -->
<g id="edge8" class="edge">
<title>task_pool&#45;&#45;task_pool_checkpoints</title>
<path fill="none" stroke="#7f7f7f" stroke-dasharray="5,2" d="M117.7301,-457.0629C145.1758,-510.1519 185.4405,-579.4085 232,-632.5 240.6589,-642.3737 250.3623,-651.9913 260.4653,-661.132"/>
<text text-anchor="start" x="229.4653" y="-649.932" font-family="Times,serif" font-size="14.00" fill="#000000">{0,1}</text>
<text text-anchor="start" x="92.7301" y="-460.8629" font-family="Times,serif" font-size="14.00" fill="#000000">0..N</text>
</g>
<!-- task_timeout_timers -->
<g id="node17" class="node">
<title>task_timeout_timers</title>
<polygon fill="none" stroke="#000000" points="279.5,-591.5 279.5,-619.5 446.5,-619.5 446.5,-591.5 279.5,-591.5"/>
<text text-anchor="start" x="284.5" y="-602.7" font-family="Helvetica,sans-Serif" font-weight="bold" font-size="16.00" fill="#000000">task_timeout_timers</text>
<polygon fill="none" stroke="#000000" points="279.5,-566.5 279.5,-591.5 446.5,-591.5 446.5,-566.5 279.5,-566.5"/>
<text text-anchor="start" x="284.5" y="-576.3" font-family="Helvetica,sans-Serif" text-decoration="underline" font-size="14.00" fill="#000000">cycle</text>
<polygon fill="none" stroke="#000000" points="279.5,-541.5 279.5,-566.5 446.5,-566.5 446.5,-541.5 279.5,-541.5"/>
<text text-anchor="start" x="284.5" y="-551.3" font-family="Helvetica,sans-Serif" text-decoration="underline" font-size="14.00" fill="#000000">name</text>
<polygon fill="none" stroke="#000000" points="279.5,-516.5 279.5,-541.5 446.5,-541.5 446.5,-516.5 279.5,-516.5"/>
<text text-anchor="start" x="284.5" y="-525.3" font-family="Helvetica,sans-Serif" font-size="14.00" fill="#000000">timeout</text>
</g>
<!-- task_pool&#45;&#45;task_timeout_timers -->
<g id="edge12" class="edge">
<title>task_pool&#45;&#45;task_timeout_timers</title>
<path fill="none" stroke="#7f7f7f" stroke-dasharray="5,2" d="M130.787,-424.3503C159.3254,-449.6222 196.2229,-480.1486 232,-503.5 244.1876,-511.4547 257.4839,-519.1153 270.7761,-526.2124"/>
<text text-anchor="start" x="239.7761" y="-515.0124" font-family="Times,serif" font-size="14.00" fill="#000000">{0,1}</text>
<text text-anchor="start" x="130.787" y="-413.1503" font-family="Times,serif" font-size="14.00" fill="#000000">{0,1}</text>
</g>
<!-- task_pool_checkpoints&#45;&#45;inheritance -->
<!-- task_states -->
<g id="node16" class="node">
<title>task_states</title>
<polygon fill="none" stroke="#000000" points="30.5,-1579.5 30.5,-1607.5 128.5,-1607.5 128.5,-1579.5 30.5,-1579.5"/>
<text text-anchor="start" x="35.5" y="-1590.7" font-family="Helvetica,sans-Serif" font-weight="bold" font-size="16.00" fill="#000000">task_states</text>
<polygon fill="none" stroke="#000000" points="30.5,-1554.5 30.5,-1579.5 128.5,-1579.5 128.5,-1554.5 30.5,-1554.5"/>
<text text-anchor="start" x="35.5" y="-1564.3" font-family="Helvetica,sans-Serif" text-decoration="underline" font-size="14.00" fill="#000000">name</text>
<polygon fill="none" stroke="#000000" points="30.5,-1529.5 30.5,-1554.5 128.5,-1554.5 128.5,-1529.5 30.5,-1529.5"/>
<text text-anchor="start" x="35.5" y="-1539.3" font-family="Helvetica,sans-Serif" text-decoration="underline" font-size="14.00" fill="#000000">cycle</text>
<polygon fill="none" stroke="#000000" points="30.5,-1504.5 30.5,-1529.5 128.5,-1529.5 128.5,-1504.5 30.5,-1504.5"/>
<text text-anchor="start" x="35.5" y="-1513.3" font-family="Helvetica,sans-Serif" font-size="14.00" fill="#000000">time_created</text>
<polygon fill="none" stroke="#000000" points="30.5,-1479.5 30.5,-1504.5 128.5,-1504.5 128.5,-1479.5 30.5,-1479.5"/>
<text text-anchor="start" x="35.5" y="-1488.3" font-family="Helvetica,sans-Serif" font-size="14.00" fill="#000000">time_updated</text>
<polygon fill="none" stroke="#000000" points="30.5,-1454.5 30.5,-1479.5 128.5,-1479.5 128.5,-1454.5 30.5,-1454.5"/>
<text text-anchor="start" x="35.5" y="-1463.3" font-family="Helvetica,sans-Serif" font-size="14.00" fill="#000000">submit_num</text>
<polygon fill="none" stroke="#000000" points="30.5,-1429.5 30.5,-1454.5 128.5,-1454.5 128.5,-1429.5 30.5,-1429.5"/>
<text text-anchor="start" x="35.5" y="-1438.3" font-family="Helvetica,sans-Serif" font-size="14.00" fill="#000000">status</text>
</g>
<!-- task_states&#45;&#45;task_events -->
<g id="edge1" class="edge">
<title>task_states&#45;&#45;task_events</title>
<path fill="none" stroke="#7f7f7f" stroke-dasharray="5,2" d="M136.7693,-1550.4737C185.0609,-1577.4351 253.9322,-1615.8861 302.8774,-1643.2124"/>
<text text-anchor="start" x="271.8774" y="-1632.0124" font-family="Times,serif" font-size="14.00" fill="#000000">{0,1}</text>
<text text-anchor="start" x="136.7693" y="-1539.2737" font-family="Times,serif" font-size="14.00" fill="#000000">0..N</text>
</g>
<!-- task_states&#45;&#45;task_jobs -->
<g id="edge2" class="edge">
<title>task_states&#45;&#45;task_jobs</title>
<path fill="none" stroke="#7f7f7f" stroke-dasharray="5,2" d="M136.7693,-1486.324C182.1538,-1460.8253 245.7146,-1425.1144 293.83,-1398.0814"/>
<text text-anchor="start" x="262.83" y="-1386.8814" font-family="Times,serif" font-size="14.00" fill="#000000">{0,1}</text>
<text text-anchor="start" x="136.7693" y="-1475.124" font-family="Times,serif" font-size="14.00" fill="#000000">0..N</text>
</g>
<!-- xtriggers -->
<g id="node18" class="node">
<title>xtriggers</title>
<polygon fill="none" stroke="#000000" points="590.5,-1054.5 590.5,-1082.5 722.5,-1082.5 722.5,-1054.5 590.5,-1054.5"/>
<text text-anchor="start" x="622" y="-1065.7" font-family="Helvetica,sans-Serif" font-weight="bold" font-size="16.00" fill="#000000">xtriggers</text>
<polygon fill="none" stroke="#000000" points="590.5,-1029.5 590.5,-1054.5 722.5,-1054.5 722.5,-1029.5 590.5,-1029.5"/>
<text text-anchor="start" x="595.5" y="-1039.3" font-family="Helvetica,sans-Serif" text-decoration="underline" font-size="14.00" fill="#000000">signature</text>
<polygon fill="none" stroke="#000000" points="590.5,-1004.5 590.5,-1029.5 722.5,-1029.5 722.5,-1004.5 590.5,-1004.5"/>
<text text-anchor="start" x="595.5" y="-1013.3" font-family="Helvetica,sans-Serif" font-size="14.00" fill="#000000">results</text>
<polygon fill="none" stroke="#000000" points="590.5,-979.5 590.5,-1004.5 722.5,-1004.5 722.5,-979.5 590.5,-979.5"/>
<text text-anchor="start" x="595.5" y="-988.3" font-family="Helvetica,sans-Serif" font-size="14.00" fill="#000000">broadcast_events</text>
<polygon fill="none" stroke="#000000" points="590.5,-954.5 590.5,-979.5 722.5,-979.5 722.5,-954.5 590.5,-954.5"/>
<text text-anchor="start" x="595.5" y="-963.3" font-family="Helvetica,sans-Serif" font-size="14.00" fill="#000000">inheritance</text>
<polygon fill="none" stroke="#000000" points="590.5,-929.5 590.5,-954.5 722.5,-954.5 722.5,-929.5 590.5,-929.5"/>
<text text-anchor="start" x="595.5" y="-938.3" font-family="Helvetica,sans-Serif" font-size="14.00" fill="#000000">suite_template_vars</text>
<polygon fill="none" stroke="#000000" points="590.5,-904.5 590.5,-929.5 722.5,-929.5 722.5,-904.5 590.5,-904.5"/>
<text text-anchor="start" x="595.5" y="-913.3" font-family="Helvetica,sans-Serif" font-size="14.00" fill="#000000">xtriggers</text>
</g>
</g>
</svg>
