<?xml version="1.0" encoding="UTF-8" standalone="no"?>
<!DOCTYPE svg PUBLIC "-//W3C//DTD SVG 1.1//EN"
 "http://www.w3.org/Graphics/SVG/1.1/DTD/svg11.dtd">
<!-- Generated by graphviz version 2.40.1 (20161225.0304)
 -->
<!-- Title: Mini_Cylc Pages: 1 -->
<svg width="216pt" height="188pt"
 viewBox="0.00 0.00 215.98 188.00" xmlns="http://www.w3.org/2000/svg" xmlns:xlink="http://www.w3.org/1999/xlink">
<g id="graph0" class="graph" transform="scale(1 1) rotate(0) translate(4 184)">
<title>Mini_Cylc</title>
<polygon fill="transparent" stroke="transparent" points="-4,4 -4,-184 211.9815,-184 211.9815,4 -4,4"/>
<!-- make_cake_mixture -->
<g id="node1" class="node">
<title>make_cake_mixture</title>
<ellipse fill="none" stroke="#000000" cx="103.9908" cy="-162" rx="103.9815" ry="18"/>
<text text-anchor="middle" x="103.9908" y="-158.3" font-family="sans" font-size="14.00" fill="#000000">make_cake_mixture</text>
</g>
<!-- bake_cake -->
<g id="node2" class="node">
<title>bake_cake</title>
<ellipse fill="none" stroke="#000000" cx="103.9908" cy="-90" rx="59.5901" ry="18"/>
<text text-anchor="middle" x="103.9908" y="-86.3" font-family="sans" font-size="14.00" fill="#000000">bake_cake</text>
</g>
<!-- make_cake_mixture&#45;&gt;bake_cake -->
<g id="edge1" class="edge">
<title>make_cake_mixture&#45;&gt;bake_cake</title>
<path fill="none" stroke="#000000" d="M103.9908,-143.8314C103.9908,-136.131 103.9908,-126.9743 103.9908,-118.4166"/>
<polygon fill="#000000" stroke="#000000" points="107.4909,-118.4132 103.9908,-108.4133 100.4909,-118.4133 107.4909,-118.4132"/>
</g>
<!-- sell_cake -->
<g id="node3" class="node">
<title>sell_cake</title>
<ellipse fill="none" stroke="#000000" cx="103.9908" cy="-18" rx="52.7911" ry="18"/>
<text text-anchor="middle" x="103.9908" y="-14.3" font-family="sans" font-size="14.00" fill="#000000">sell_cake</text>
</g>
<!-- bake_cake&#45;&gt;sell_cake -->
<g id="edge2" class="edge">
<title>bake_cake&#45;&gt;sell_cake</title>
<path fill="none" stroke="#000000" d="M103.9908,-71.8314C103.9908,-64.131 103.9908,-54.9743 103.9908,-46.4166"/>
<polygon fill="#000000" stroke="#000000" points="107.4909,-46.4132 103.9908,-36.4133 100.4909,-46.4133 107.4909,-46.4132"/>
</g>
</g>
</svg>
