<?xml version="1.0" encoding="UTF-8" standalone="no"?>
<!DOCTYPE svg PUBLIC "-//W3C//DTD SVG 1.1//EN"
 "http://www.w3.org/Graphics/SVG/1.1/DTD/svg11.dtd">
<!-- Generated by graphviz version 12.0.0 (20240803.0821)
 -->
<!-- Title: example Pages: 1 -->
<svg width="504pt" height="193pt"
 viewBox="0.00 0.00 504.00 193.40" xmlns="http://www.w3.org/2000/svg" xmlns:xlink="http://www.w3.org/1999/xlink">
<g id="graph0" class="graph" transform="scale(0.467532 0.467532) rotate(0) translate(4 409.67)">
<title>example</title>
<polygon fill="none" stroke="none" points="-4,4 -4,-409.67 1074,-409.67 1074,4 -4,4"/>
<g id="clust1" class="cluster">
<title>cluster_1</title>
<polygon fill="none" stroke="black" stroke-dasharray="5,2" points="8,-8 8,-397.67 354,-397.67 354,-8 8,-8"/>
<text text-anchor="middle" x="181" y="-380.37" font-family="sans" font-size="14.00">1</text>
</g>
<g id="clust2" class="cluster">
<title>cluster_2</title>
<polygon fill="none" stroke="black" stroke-dasharray="5,2" points="362,-8 362,-397.67 708,-397.67 708,-8 362,-8"/>
<text text-anchor="middle" x="535" y="-380.37" font-family="sans" font-size="14.00">2</text>
</g>
<g id="clust3" class="cluster">
<title>cluster_3</title>
<polygon fill="none" stroke="black" stroke-dasharray="5,2" points="716,-8 716,-397.67 1062,-397.67 1062,-8 716,-8"/>
<text text-anchor="middle" x="889" y="-380.37" font-family="sans" font-size="14.00">3</text>
</g>
<!-- 1/pur -->
<g id="node1" class="node">
<title>1/pur</title>
<ellipse fill="none" stroke="black" cx="106" cy="-334.36" rx="89.8" ry="30.05"/>
<text text-anchor="middle" x="106" y="-338.31" font-family="sans" font-size="14.00">buy_ingredients</text>
<text text-anchor="middle" x="106" y="-321.06" font-family="sans" font-size="14.00">1</text>
</g>
<!-- 1/mak -->
<g id="node2" class="node">
<title>1/mak</title>
<ellipse fill="none" stroke="black" cx="90" cy="-238.26" rx="73.89" ry="30.05"/>
<text text-anchor="middle" x="90" y="-242.21" font-family="sans" font-size="14.00">make_dough</text>
<text text-anchor="middle" x="90" y="-224.96" font-family="sans" font-size="14.00">1</text>
</g>
<!-- 1/pur&#45;&gt;1/mak -->
<g id="edge1" class="edge">
<title>1/pur&#45;&gt;1/mak</title>
<path fill="none" stroke="black" d="M101.03,-304.1C99.72,-296.4 98.28,-287.96 96.89,-279.78"/>
<polygon fill="black" stroke="black" points="100.35,-279.27 95.23,-269.99 93.45,-280.44 100.35,-279.27"/>
</g>
<!-- 1/bak -->
<g id="node3" class="node">
<title>1/bak</title>
<ellipse fill="none" stroke="black" cx="159" cy="-142.16" rx="67.53" ry="30.05"/>
<text text-anchor="middle" x="159" y="-146.11" font-family="sans" font-size="14.00">bake_bread</text>
<text text-anchor="middle" x="159" y="-128.86" font-family="sans" font-size="14.00">1</text>
</g>
<!-- 1/mak&#45;&gt;1/bak -->
<g id="edge2" class="edge">
<title>1/mak&#45;&gt;1/bak</title>
<path fill="none" stroke="black" d="M110.7,-209.03C117.38,-199.92 124.88,-189.68 131.95,-180.05"/>
<polygon fill="black" stroke="black" points="134.56,-182.4 137.66,-172.27 128.92,-178.26 134.56,-182.4"/>
</g>
<!-- 1/sel -->
<g id="node4" class="node">
<title>1/sel</title>
<ellipse fill="none" stroke="black" cx="83" cy="-46.05" rx="60.63" ry="30.05"/>
<text text-anchor="middle" x="83" y="-50" font-family="sans" font-size="14.00">sell_bread</text>
<text text-anchor="middle" x="83" y="-32.75" font-family="sans" font-size="14.00">1</text>
</g>
<!-- 1/bak&#45;&gt;1/sel -->
<g id="edge3" class="edge">
<title>1/bak&#45;&gt;1/sel</title>
<path fill="none" stroke="black" d="M136.61,-113.43C128.97,-103.97 120.3,-93.24 112.2,-83.21"/>
<polygon fill="black" stroke="black" points="114.93,-81.01 105.92,-75.43 109.48,-85.41 114.93,-81.01"/>
</g>
<!-- 1/cle -->
<g id="node5" class="node">
<title>1/cle</title>
<ellipse fill="none" stroke="black" cx="228" cy="-46.05" rx="65.94" ry="30.05"/>
<text text-anchor="middle" x="228" y="-50" font-family="sans" font-size="14.00">clean_oven</text>
<text text-anchor="middle" x="228" y="-32.75" font-family="sans" font-size="14.00">1</text>
</g>
<!-- 1/bak&#45;&gt;1/cle -->
<g id="edge5" class="edge">
<title>1/bak&#45;&gt;1/cle</title>
<path fill="none" stroke="black" d="M179.52,-113.18C186.2,-104.06 193.72,-93.8 200.82,-84.12"/>
<polygon fill="black" stroke="black" points="203.46,-86.44 206.55,-76.31 197.81,-82.3 203.46,-86.44"/>
</g>
<!-- 1/pre -->
<g id="node6" class="node">
<title>1/pre</title>
<ellipse fill="none" stroke="black" cx="264" cy="-238.26" rx="82.38" ry="30.05"/>
<text text-anchor="middle" x="264" y="-242.21" font-family="sans" font-size="14.00">pre_heat_oven</text>
<text text-anchor="middle" x="264" y="-224.96" font-family="sans" font-size="14.00">1</text>
</g>
<!-- 1/pre&#45;&gt;1/bak -->
<g id="edge4" class="edge">
<title>1/pre&#45;&gt;1/bak</title>
<path fill="none" stroke="black" d="M233.63,-210.04C222.23,-199.82 209.11,-188.07 197.1,-177.3"/>
<polygon fill="black" stroke="black" points="199.49,-174.74 189.71,-170.68 194.82,-179.96 199.49,-174.74"/>
</g>
<!-- 2/pur -->
<g id="node7" class="node">
<title>2/pur</title>
<ellipse fill="none" stroke="black" cx="460" cy="-334.36" rx="89.8" ry="30.05"/>
<text text-anchor="middle" x="460" y="-338.31" font-family="sans" font-size="14.00">buy_ingredients</text>
<text text-anchor="middle" x="460" y="-321.06" font-family="sans" font-size="14.00">2</text>
</g>
<!-- 2/mak -->
<g id="node8" class="node">
<title>2/mak</title>
<ellipse fill="none" stroke="black" cx="444" cy="-238.26" rx="73.89" ry="30.05"/>
<text text-anchor="middle" x="444" y="-242.21" font-family="sans" font-size="14.00">make_dough</text>
<text text-anchor="middle" x="444" y="-224.96" font-family="sans" font-size="14.00">2</text>
</g>
<!-- 2/pur&#45;&gt;2/mak -->
<g id="edge6" class="edge">
<title>2/pur&#45;&gt;2/mak</title>
<path fill="none" stroke="black" d="M455.03,-304.1C453.72,-296.4 452.28,-287.96 450.89,-279.78"/>
<polygon fill="black" stroke="black" points="454.35,-279.27 449.23,-269.99 447.45,-280.44 454.35,-279.27"/>
</g>
<!-- 2/bak -->
<g id="node9" class="node">
<title>2/bak</title>
<ellipse fill="none" stroke="black" cx="513" cy="-142.16" rx="67.53" ry="30.05"/>
<text text-anchor="middle" x="513" y="-146.11" font-family="sans" font-size="14.00">bake_bread</text>
<text text-anchor="middle" x="513" y="-128.86" font-family="sans" font-size="14.00">2</text>
</g>
<!-- 2/mak&#45;&gt;2/bak -->
<g id="edge7" class="edge">
<title>2/mak&#45;&gt;2/bak</title>
<path fill="none" stroke="black" d="M464.7,-209.03C471.38,-199.92 478.88,-189.68 485.95,-180.05"/>
<polygon fill="black" stroke="black" points="488.56,-182.4 491.66,-172.27 482.92,-178.26 488.56,-182.4"/>
</g>
<!-- 2/sel -->
<g id="node10" class="node">
<title>2/sel</title>
<ellipse fill="none" stroke="black" cx="437" cy="-46.05" rx="60.63" ry="30.05"/>
<text text-anchor="middle" x="437" y="-50" font-family="sans" font-size="14.00">sell_bread</text>
<text text-anchor="middle" x="437" y="-32.75" font-family="sans" font-size="14.00">2</text>
</g>
<!-- 2/bak&#45;&gt;2/sel -->
<g id="edge8" class="edge">
<title>2/bak&#45;&gt;2/sel</title>
<path fill="none" stroke="black" d="M490.61,-113.43C482.97,-103.97 474.3,-93.24 466.2,-83.21"/>
<polygon fill="black" stroke="black" points="468.93,-81.01 459.92,-75.43 463.48,-85.41 468.93,-81.01"/>
</g>
<!-- 2/cle -->
<g id="node11" class="node">
<title>2/cle</title>
<ellipse fill="none" stroke="black" cx="582" cy="-46.05" rx="65.94" ry="30.05"/>
<text text-anchor="middle" x="582" y="-50" font-family="sans" font-size="14.00">clean_oven</text>
<text text-anchor="middle" x="582" y="-32.75" font-family="sans" font-size="14.00">2</text>
</g>
<!-- 2/bak&#45;&gt;2/cle -->
<g id="edge10" class="edge">
<title>2/bak&#45;&gt;2/cle</title>
<path fill="none" stroke="black" d="M533.52,-113.18C540.2,-104.06 547.72,-93.8 554.82,-84.12"/>
<polygon fill="black" stroke="black" points="557.46,-86.44 560.55,-76.31 551.81,-82.3 557.46,-86.44"/>
</g>
<!-- 2/pre -->
<g id="node12" class="node">
<title>2/pre</title>
<ellipse fill="none" stroke="black" cx="618" cy="-238.26" rx="82.38" ry="30.05"/>
<text text-anchor="middle" x="618" y="-242.21" font-family="sans" font-size="14.00">pre_heat_oven</text>
<text text-anchor="middle" x="618" y="-224.96" font-family="sans" font-size="14.00">2</text>
</g>
<!-- 2/pre&#45;&gt;2/bak -->
<g id="edge9" class="edge">
<title>2/pre&#45;&gt;2/bak</title>
<path fill="none" stroke="black" d="M587.63,-210.04C576.23,-199.82 563.11,-188.07 551.1,-177.3"/>
<polygon fill="black" stroke="black" points="553.49,-174.74 543.71,-170.68 548.82,-179.96 553.49,-174.74"/>
</g>
<!-- 3/pur -->
<g id="node13" class="node">
<title>3/pur</title>
<ellipse fill="none" stroke="black" cx="814" cy="-334.36" rx="89.8" ry="30.05"/>
<text text-anchor="middle" x="814" y="-338.31" font-family="sans" font-size="14.00">buy_ingredients</text>
<text text-anchor="middle" x="814" y="-321.06" font-family="sans" font-size="14.00">3</text>
</g>
<!-- 3/mak -->
<g id="node14" class="node">
<title>3/mak</title>
<ellipse fill="none" stroke="black" cx="798" cy="-238.26" rx="73.89" ry="30.05"/>
<text text-anchor="middle" x="798" y="-242.21" font-family="sans" font-size="14.00">make_dough</text>
<text text-anchor="middle" x="798" y="-224.96" font-family="sans" font-size="14.00">3</text>
</g>
<!-- 3/pur&#45;&gt;3/mak -->
<g id="edge11" class="edge">
<title>3/pur&#45;&gt;3/mak</title>
<path fill="none" stroke="black" d="M809.03,-304.1C807.72,-296.4 806.28,-287.96 804.89,-279.78"/>
<polygon fill="black" stroke="black" points="808.35,-279.27 803.23,-269.99 801.45,-280.44 808.35,-279.27"/>
</g>
<!-- 3/bak -->
<g id="node15" class="node">
<title>3/bak</title>
<ellipse fill="none" stroke="black" cx="867" cy="-142.16" rx="67.53" ry="30.05"/>
<text text-anchor="middle" x="867" y="-146.11" font-family="sans" font-size="14.00">bake_bread</text>
<text text-anchor="middle" x="867" y="-128.86" font-family="sans" font-size="14.00">3</text>
</g>
<!-- 3/mak&#45;&gt;3/bak -->
<g id="edge12" class="edge">
<title>3/mak&#45;&gt;3/bak</title>
<path fill="none" stroke="black" d="M818.7,-209.03C825.38,-199.92 832.88,-189.68 839.95,-180.05"/>
<polygon fill="black" stroke="black" points="842.56,-182.4 845.66,-172.27 836.92,-178.26 842.56,-182.4"/>
</g>
<!-- 3/sel -->
<g id="node16" class="node">
<title>3/sel</title>
<ellipse fill="none" stroke="black" cx="791" cy="-46.05" rx="60.63" ry="30.05"/>
<text text-anchor="middle" x="791" y="-50" font-family="sans" font-size="14.00">sell_bread</text>
<text text-anchor="middle" x="791" y="-32.75" font-family="sans" font-size="14.00">3</text>
</g>
<!-- 3/bak&#45;&gt;3/sel -->
<g id="edge13" class="edge">
<title>3/bak&#45;&gt;3/sel</title>
<path fill="none" stroke="black" d="M844.61,-113.43C836.97,-103.97 828.3,-93.24 820.2,-83.21"/>
<polygon fill="black" stroke="black" points="822.93,-81.01 813.92,-75.43 817.48,-85.41 822.93,-81.01"/>
</g>
<!-- 3/cle -->
<g id="node17" class="node">
<title>3/cle</title>
<ellipse fill="none" stroke="black" cx="936" cy="-46.05" rx="65.94" ry="30.05"/>
<text text-anchor="middle" x="936" y="-50" font-family="sans" font-size="14.00">clean_oven</text>
<text text-anchor="middle" x="936" y="-32.75" font-family="sans" font-size="14.00">3</text>
</g>
<!-- 3/bak&#45;&gt;3/cle -->
<g id="edge15" class="edge">
<title>3/bak&#45;&gt;3/cle</title>
<path fill="none" stroke="black" d="M887.52,-113.18C894.2,-104.06 901.72,-93.8 908.82,-84.12"/>
<polygon fill="black" stroke="black" points="911.46,-86.44 914.55,-76.31 905.81,-82.3 911.46,-86.44"/>
</g>
<!-- 3/pre -->
<g id="node18" class="node">
<title>3/pre</title>
<ellipse fill="none" stroke="black" cx="972" cy="-238.26" rx="82.38" ry="30.05"/>
<text text-anchor="middle" x="972" y="-242.21" font-family="sans" font-size="14.00">pre_heat_oven</text>
<text text-anchor="middle" x="972" y="-224.96" font-family="sans" font-size="14.00">3</text>
</g>
<!-- 3/pre&#45;&gt;3/bak -->
<g id="edge14" class="edge">
<title>3/pre&#45;&gt;3/bak</title>
<path fill="none" stroke="black" d="M941.63,-210.04C930.23,-199.82 917.11,-188.07 905.1,-177.3"/>
<polygon fill="black" stroke="black" points="907.49,-174.74 897.71,-170.68 902.82,-179.96 907.49,-174.74"/>
</g>
</g>
</svg>
