<?xml version="1.0" encoding="UTF-8" standalone="no"?>
<!DOCTYPE svg PUBLIC "-//W3C//DTD SVG 1.1//EN"
 "http://www.w3.org/Graphics/SVG/1.1/DTD/svg11.dtd">
<!-- Generated by graphviz version 12.2.1 (20250203.1708)
 -->
<!-- Title: Example Pages: 1 -->
<svg width="162pt" height="260pt"
 viewBox="0.00 0.00 161.97 260.00" xmlns="http://www.w3.org/2000/svg" xmlns:xlink="http://www.w3.org/1999/xlink">
<g id="graph0" class="graph" transform="scale(1 1) rotate(0) translate(4 256)">
<title>Example</title>
<polygon fill="none" stroke="none" points="-4,4 -4,-256 157.97,-256 157.97,4 -4,4"/>
<!-- random_seed -->
<g id="node1" class="node">
<title>random_seed</title>
<ellipse fill="none" stroke="black" cx="76.99" cy="-234" rx="76.99" ry="18"/>
<text text-anchor="middle" x="76.99" y="-229.32" font-family="sans" font-size="14.00">random_seed</text>
</g>
<!-- breed -->
<g id="node2" class="node">
<title>breed</title>
<ellipse fill="none" stroke="black" cx="76.99" cy="-162" rx="39.11" ry="18"/>
<text text-anchor="middle" x="76.99" y="-157.32" font-family="sans" font-size="14.00">breed</text>
</g>
<!-- random_seed&#45;&gt;breed -->
<g id="edge1" class="edge">
<title>random_seed&#45;&gt;breed</title>
<path fill="none" stroke="black" d="M76.99,-215.7C76.99,-208.41 76.99,-199.73 76.99,-191.54"/>
<polygon fill="black" stroke="black" points="80.49,-191.62 76.99,-181.62 73.49,-191.62 80.49,-191.62"/>
</g>
<!-- test_fitness -->
<g id="node3" class="node">
<title>test_fitness</title>
<ellipse fill="none" stroke="black" cx="76.99" cy="-90" rx="66.99" ry="18"/>
<text text-anchor="middle" x="76.99" y="-85.33" font-family="sans" font-size="14.00">test_fitness</text>
</g>
<!-- breed&#45;&gt;test_fitness -->
<g id="edge2" class="edge">
<title>breed&#45;&gt;test_fitness</title>
<path fill="none" stroke="black" d="M71.11,-144.05C70.33,-136.68 70.07,-127.84 70.34,-119.51"/>
<polygon fill="black" stroke="black" points="73.82,-119.99 70.98,-109.79 66.83,-119.54 73.82,-119.99"/>
</g>
<!-- test_fitness&#45;&gt;breed -->
<g id="edge3" class="edge">
<title>test_fitness&#45;&gt;breed</title>
<path fill="none" stroke="black" d="M82.9,-108.28C83.66,-115.6 83.9,-124.34 83.63,-132.57"/>
<polygon fill="black" stroke="black" points="80.14,-132.33 82.97,-142.54 87.12,-132.8 80.14,-132.33"/>
</g>
<!-- stop -->
<g id="node4" class="node">
<title>stop</title>
<ellipse fill="none" stroke="black" cx="76.99" cy="-18" rx="32.27" ry="18"/>
<text text-anchor="middle" x="76.99" y="-13.32" font-family="sans" font-size="14.00">stop</text>
</g>
<!-- test_fitness&#45;&gt;stop -->
<g id="edge4" class="edge">
<title>test_fitness&#45;&gt;stop</title>
<path fill="none" stroke="black" d="M76.99,-71.7C76.99,-64.41 76.99,-55.73 76.99,-47.54"/>
<polygon fill="black" stroke="black" points="80.49,-47.62 76.99,-37.62 73.49,-47.62 80.49,-47.62"/>
</g>
</g>
</svg>
