<?xml version="1.0" encoding="UTF-8" standalone="no"?>
<!DOCTYPE svg PUBLIC "-//W3C//DTD SVG 1.1//EN"
 "http://www.w3.org/Graphics/SVG/1.1/DTD/svg11.dtd">
<!-- Generated by graphviz version 12.0.0 (20240803.0821)
 -->
<!-- Title: example Pages: 1 -->
<svg width="526pt" height="605pt"
 viewBox="0.00 0.00 526.00 605.25" xmlns="http://www.w3.org/2000/svg" xmlns:xlink="http://www.w3.org/1999/xlink">
<g id="graph0" class="graph" transform="scale(1 1) rotate(0) translate(4 601.25)">
<title>example</title>
<polygon fill="none" stroke="none" points="-4,4 -4,-601.25 522,-601.25 522,4 -4,4"/>
<g id="clust1" class="cluster">
<title>cluster_legend</title>
<polygon fill="none" stroke="black" stroke-dasharray="5,2" points="0,-224 0,-373.25 222,-373.25 222,-224 0,-224"/>
<text text-anchor="middle" x="111" y="-355.95" font-family="sans" font-size="14.00">Legend</text>
</g>
<g id="clust2" class="cluster">
<title>cluster_diagram</title>
</g>
<g id="clust3" class="cluster">
<title>cluster_subshell</title>
<polygon fill="none" stroke="black" stroke-dasharray="5,2" points="291,-72 291,-461.25 457,-461.25 457,-72 291,-72"/>
<text text-anchor="middle" x="374" y="-443.95" font-family="sans" font-size="14.00">Subshell process</text>
</g>
<!-- user defined script -->
<g id="node1" class="node">
<title>user defined script</title>
<ellipse fill="none" stroke="black" cx="111" cy="-322" rx="103.29" ry="18"/>
<text text-anchor="middle" x="111" y="-317.32" font-family="sans" font-size="14.00">user defined script</text>
</g>
<!-- cylc defined script -->
<g id="node2" class="node">
<title>cylc defined script</title>
<polygon fill="none" stroke="black" points="182.75,-268 39.25,-268 39.25,-232 182.75,-232 182.75,-268"/>
<text text-anchor="middle" x="111" y="-245.32" font-family="sans" font-size="14.00">cylc defined script</text>
</g>
<!-- user defined script&#45;&gt;cylc defined script -->
<!-- cylc&#45;env -->
<g id="node3" class="node">
<title>cylc&#45;env</title>
<polygon fill="none" stroke="black" points="410.88,-505.25 337.12,-505.25 337.12,-469.25 410.88,-469.25 410.88,-505.25"/>
<text text-anchor="middle" x="374" y="-482.57" font-family="sans" font-size="14.00">cylc&#45;env</text>
</g>
<!-- env&#45;script -->
<g id="node6" class="node">
<title>env&#45;script</title>
<ellipse fill="none" stroke="black" cx="374" cy="-398" rx="60.15" ry="18"/>
<text text-anchor="middle" x="374" y="-393.32" font-family="sans" font-size="14.00">env&#45;script</text>
</g>
<!-- cylc&#45;env&#45;&gt;env&#45;script -->
<g id="edge3" class="edge">
<title>cylc&#45;env&#45;&gt;env&#45;script</title>
<path fill="none" stroke="black" d="M374,-469.01C374,-457.18 374,-441.2 374,-427.5"/>
<polygon fill="black" stroke="black" points="377.5,-427.72 374,-417.72 370.5,-427.72 377.5,-427.72"/>
</g>
<!-- user&#45;env -->
<g id="node4" class="node">
<title>user&#45;env</title>
<polygon fill="none" stroke="black" points="412,-344 336,-344 336,-308 412,-308 412,-344"/>
<text text-anchor="middle" x="374" y="-321.32" font-family="sans" font-size="14.00">user&#45;env</text>
</g>
<!-- pre&#45;script -->
<g id="node7" class="node">
<title>pre&#45;script</title>
<ellipse fill="none" stroke="black" cx="374" cy="-254" rx="58.05" ry="18"/>
<text text-anchor="middle" x="374" y="-249.32" font-family="sans" font-size="14.00">pre&#45;script</text>
</g>
<!-- user&#45;env&#45;&gt;pre&#45;script -->
<g id="edge5" class="edge">
<title>user&#45;env&#45;&gt;pre&#45;script</title>
<path fill="none" stroke="black" d="M374,-307.7C374,-300.41 374,-291.73 374,-283.54"/>
<polygon fill="black" stroke="black" points="377.5,-283.62 374,-273.62 370.5,-283.62 377.5,-283.62"/>
</g>
<!-- init&#45;script -->
<g id="node5" class="node">
<title>init&#45;script</title>
<ellipse fill="none" stroke="black" cx="374" cy="-559.25" rx="57.52" ry="18"/>
<text text-anchor="middle" x="374" y="-554.58" font-family="sans" font-size="14.00">init&#45;script</text>
</g>
<!-- init&#45;script&#45;&gt;cylc&#45;env -->
<g id="edge2" class="edge">
<title>init&#45;script&#45;&gt;cylc&#45;env</title>
<path fill="none" stroke="black" d="M374,-540.95C374,-533.66 374,-524.98 374,-516.79"/>
<polygon fill="black" stroke="black" points="377.5,-516.87 374,-506.87 370.5,-516.87 377.5,-516.87"/>
</g>
<!-- env&#45;script&#45;&gt;user&#45;env -->
<g id="edge4" class="edge">
<title>env&#45;script&#45;&gt;user&#45;env</title>
<path fill="none" stroke="black" d="M374,-379.7C374,-372.41 374,-363.73 374,-355.54"/>
<polygon fill="black" stroke="black" points="377.5,-355.62 374,-345.62 370.5,-355.62 377.5,-355.62"/>
</g>
<!-- script -->
<g id="node8" class="node">
<title>script</title>
<ellipse fill="none" stroke="black" cx="374" cy="-182" rx="38.58" ry="18"/>
<text text-anchor="middle" x="374" y="-177.32" font-family="sans" font-size="14.00">script</text>
</g>
<!-- pre&#45;script&#45;&gt;script -->
<g id="edge6" class="edge">
<title>pre&#45;script&#45;&gt;script</title>
<path fill="none" stroke="black" d="M374,-235.7C374,-228.41 374,-219.73 374,-211.54"/>
<polygon fill="black" stroke="black" points="377.5,-211.62 374,-201.62 370.5,-211.62 377.5,-211.62"/>
</g>
<!-- post&#45;script -->
<g id="node9" class="node">
<title>post&#45;script</title>
<ellipse fill="none" stroke="black" cx="374" cy="-110" rx="63.31" ry="18"/>
<text text-anchor="middle" x="374" y="-105.33" font-family="sans" font-size="14.00">post&#45;script</text>
</g>
<!-- script&#45;&gt;post&#45;script -->
<g id="edge7" class="edge">
<title>script&#45;&gt;post&#45;script</title>
<path fill="none" stroke="black" d="M374,-163.7C374,-156.41 374,-147.73 374,-139.54"/>
<polygon fill="black" stroke="black" points="377.5,-139.62 374,-129.62 370.5,-139.62 377.5,-139.62"/>
</g>
<!-- err&#45;script -->
<g id="node10" class="node">
<title>err&#45;script</title>
<ellipse fill="none" stroke="black" cx="305" cy="-38" rx="54.89" ry="18"/>
<text text-anchor="middle" x="305" y="-33.33" font-family="sans" font-size="14.00">err&#45;script</text>
</g>
<!-- post&#45;script&#45;&gt;err&#45;script -->
<g id="edge8" class="edge">
<title>post&#45;script&#45;&gt;err&#45;script</title>
<path fill="none" stroke="black" d="M357.65,-92.41C349.14,-83.78 338.58,-73.06 329.15,-63.5"/>
<polygon fill="black" stroke="black" points="331.81,-61.21 322.3,-56.55 326.82,-66.13 331.81,-61.21"/>
</g>
<!-- exit&#45;script -->
<g id="node11" class="node">
<title>exit&#45;script</title>
<ellipse fill="none" stroke="black" cx="438" cy="-38" rx="60.15" ry="18"/>
<text text-anchor="middle" x="438" y="-33.33" font-family="sans" font-size="14.00">exit&#45;script</text>
</g>
<!-- post&#45;script&#45;&gt;exit&#45;script -->
<g id="edge9" class="edge">
<title>post&#45;script&#45;&gt;exit&#45;script</title>
<path fill="none" stroke="black" d="M389.49,-92.05C397.12,-83.71 406.47,-73.49 414.91,-64.25"/>
<polygon fill="black" stroke="black" points="417.46,-66.65 421.63,-56.91 412.3,-61.92 417.46,-66.65"/>
</g>
</g>
</svg>
