<?xml version="1.0" encoding="UTF-8" standalone="no"?>
<!DOCTYPE svg PUBLIC "-//W3C//DTD SVG 1.1//EN"
 "http://www.w3.org/Graphics/SVG/1.1/DTD/svg11.dtd">
<!-- Generated by graphviz version 12.0.0 (20240803.0821)
 -->
<!-- Title: example Pages: 1 -->
<svg width="288pt" height="87pt"
 viewBox="0.00 0.00 288.00 86.67" xmlns="http://www.w3.org/2000/svg" xmlns:xlink="http://www.w3.org/1999/xlink">
<g id="graph0" class="graph" transform="scale(0.693393 0.693393) rotate(0) translate(4 121)">
<title>example</title>
<polygon fill="none" stroke="none" points="-4,4 -4,-121 411.35,-121 411.35,4 -4,4"/>
<g id="clust1" class="cluster">
<title>cluster_T06</title>
<polygon fill="none" stroke="black" stroke-dasharray="5,2" points="8,-8 8,-109 125.12,-109 125.12,-8 8,-8"/>
<text text-anchor="middle" x="66.56" y="-91.7" font-family="sans" font-size="14.00">T06</text>
</g>
<g id="clust2" class="cluster">
<title>cluster_T12</title>
<polygon fill="none" stroke="black" stroke-dasharray="5,2" points="145.12,-8 145.12,-109 262.23,-109 262.23,-8 145.12,-8"/>
<text text-anchor="middle" x="203.67" y="-91.7" font-family="sans" font-size="14.00">T12</text>
</g>
<g id="clust3" class="cluster">
<title>cluster_T18</title>
<polygon fill="none" stroke="black" stroke-dasharray="5,2" points="282.23,-8 282.23,-109 399.35,-109 399.35,-8 282.23,-8"/>
<text text-anchor="middle" x="340.79" y="-91.7" font-family="sans" font-size="14.00">T18</text>
</g>
<!-- forecast.t06 -->
<g id="node1" class="node">
<title>forecast.t06</title>
<ellipse fill="none" stroke="black" cx="66.56" cy="-46" rx="50.56" ry="30.05"/>
<text text-anchor="middle" x="66.56" y="-49.95" font-family="sans" font-size="14.00">forecast</text>
<text text-anchor="middle" x="66.56" y="-32.7" font-family="sans" font-size="14.00">T06</text>
</g>
<!-- forecast.t12 -->
<g id="node2" class="node">
<title>forecast.t12</title>
<ellipse fill="none" stroke="black" cx="203.67" cy="-46" rx="50.56" ry="30.05"/>
<text text-anchor="middle" x="203.67" y="-49.95" font-family="sans" font-size="14.00">forecast</text>
<text text-anchor="middle" x="203.67" y="-32.7" font-family="sans" font-size="14.00">T12</text>
</g>
<!-- forecast.t06&#45;&gt;forecast.t12 -->
<g id="edge1" class="edge">
<title>forecast.t06&#45;&gt;forecast.t12</title>
<path fill="none" stroke="black" d="M117.49,-46C125.36,-46 133.57,-46 141.65,-46"/>
<polygon fill="black" stroke="black" points="141.44,-49.5 151.44,-46 141.44,-42.5 141.44,-49.5"/>
</g>
<!-- forecast.t18 -->
<g id="node3" class="node">
<title>forecast.t18</title>
<ellipse fill="none" stroke="black" cx="340.79" cy="-46" rx="50.56" ry="30.05"/>
<text text-anchor="middle" x="340.79" y="-49.95" font-family="sans" font-size="14.00">forecast</text>
<text text-anchor="middle" x="340.79" y="-32.7" font-family="sans" font-size="14.00">T18</text>
</g>
<!-- forecast.t12&#45;&gt;forecast.t18 -->
<g id="edge2" class="edge">
<title>forecast.t12&#45;&gt;forecast.t18</title>
<path fill="none" stroke="black" d="M254.6,-46C262.47,-46 270.68,-46 278.77,-46"/>
<polygon fill="black" stroke="black" points="278.55,-49.5 288.55,-46 278.55,-42.5 278.55,-49.5"/>
</g>
</g>
</svg>
