<?xml version="1.0" encoding="UTF-8" standalone="no"?>
<!DOCTYPE svg PUBLIC "-//W3C//DTD SVG 1.1//EN"
 "http://www.w3.org/Graphics/SVG/1.1/DTD/svg11.dtd">
<!-- Generated by graphviz version 13.1.2 (20250809.0930)
 -->
<!-- Title: Mini_Cylc Pages: 1 -->
<svg width="206pt" height="260pt"
 viewBox="0.00 0.00 206.00 260.00" xmlns="http://www.w3.org/2000/svg" xmlns:xlink="http://www.w3.org/1999/xlink">
<g id="graph0" class="graph" transform="scale(1 1) rotate(0) translate(4 256)">
<title>Mini_Cylc</title>
<polygon fill="none" stroke="none" points="-4,4 -4,-256 202,-256 202,4 -4,4"/>
<!-- b -->
<g id="node1" class="node">
<title>b</title>
<ellipse fill="none" stroke="black" cx="135" cy="-162" rx="27" ry="18"/>
<text xml:space="preserve" text-anchor="middle" x="135" y="-157.32" font-family="sans" font-size="14.00">b</text>
</g>
<!-- d -->
<g id="node2" class="node">
<title>d</title>
<ellipse fill="none" stroke="black" cx="99" cy="-90" rx="27" ry="18"/>
<text xml:space="preserve" text-anchor="middle" x="99" y="-85.33" font-family="sans" font-size="14.00">d</text>
</g>
<!-- b&#45;&gt;d -->
<g id="edge1" class="edge">
<title>b&#45;&gt;d</title>
<path fill="none" stroke="black" d="M126.65,-144.76C122.42,-136.55 117.19,-126.37 112.42,-117.09"/>
<polygon fill="black" stroke="black" points="115.68,-115.79 108,-108.49 109.46,-118.99 115.68,-115.79"/>
</g>
<!-- c -->
<g id="node3" class="node">
<title>c</title>
<ellipse fill="none" stroke="black" cx="171" cy="-90" rx="27" ry="18"/>
<text xml:space="preserve" text-anchor="middle" x="171" y="-85.33" font-family="sans" font-size="14.00">c</text>
</g>
<!-- b&#45;&gt;c -->
<g id="edge2" class="edge">
<title>b&#45;&gt;c</title>
<path fill="none" stroke="black" d="M143.35,-144.76C147.58,-136.55 152.81,-126.37 157.58,-117.09"/>
<polygon fill="black" stroke="black" points="160.54,-118.99 162,-108.49 154.32,-115.79 160.54,-118.99"/>
</g>
<!-- f -->
<g id="node4" class="node">
<title>f</title>
<ellipse fill="none" stroke="black" cx="63" cy="-18" rx="27" ry="18"/>
<text xml:space="preserve" text-anchor="middle" x="63" y="-13.32" font-family="sans" font-size="14.00">f</text>
</g>
<!-- d&#45;&gt;f -->
<g id="edge3" class="edge">
<title>d&#45;&gt;f</title>
<path fill="none" stroke="black" d="M90.65,-72.76C86.42,-64.55 81.19,-54.37 76.42,-45.09"/>
<polygon fill="black" stroke="black" points="79.68,-43.79 72,-36.49 73.46,-46.99 79.68,-43.79"/>
</g>
<!-- a -->
<g id="node5" class="node">
<title>a</title>
<ellipse fill="none" stroke="black" cx="135" cy="-234" rx="27" ry="18"/>
<text xml:space="preserve" text-anchor="middle" x="135" y="-229.32" font-family="sans" font-size="14.00">a</text>
</g>
<!-- a&#45;&gt;b -->
<g id="edge4" class="edge">
<title>a&#45;&gt;b</title>
<path fill="none" stroke="black" d="M135,-215.7C135,-208.41 135,-199.73 135,-191.54"/>
<polygon fill="black" stroke="black" points="138.5,-191.62 135,-181.62 131.5,-191.62 138.5,-191.62"/>
</g>
<!-- e -->
<g id="node6" class="node">
<title>e</title>
<ellipse fill="none" stroke="black" cx="27" cy="-90" rx="27" ry="18"/>
<text xml:space="preserve" text-anchor="middle" x="27" y="-85.33" font-family="sans" font-size="14.00">e</text>
</g>
<!-- e&#45;&gt;f -->
<g id="edge5" class="edge">
<title>e&#45;&gt;f</title>
<path fill="none" stroke="black" d="M35.35,-72.76C39.58,-64.55 44.81,-54.37 49.58,-45.09"/>
<polygon fill="black" stroke="black" points="52.54,-46.99 54,-36.49 46.32,-43.79 52.54,-46.99"/>
</g>
</g>
</svg>
