<?xml version="1.0" encoding="UTF-8" standalone="no"?>
<!DOCTYPE svg PUBLIC "-//W3C//DTD SVG 1.1//EN"
 "http://www.w3.org/Graphics/SVG/1.1/DTD/svg11.dtd">
<!-- Generated by graphviz version 8.1.0 (20230707.2238)
 -->
<!-- Title: example Pages: 1 -->
<svg width="504pt" height="193pt"
 viewBox="0.00 0.00 504.00 193.40" xmlns="http://www.w3.org/2000/svg" xmlns:xlink="http://www.w3.org/1999/xlink">
<g id="graph0" class="graph" transform="scale(0.467532 0.467532) rotate(0) translate(4 409.67)">
<title>example</title>
<polygon fill="none" stroke="none" points="-4,4 -4,-409.67 1074,-409.67 1074,4 -4,4"/>
<g id="clust1" class="cluster">
<title>cluster_1</title>
<polygon fill="none" stroke="black" stroke-dasharray="5,2" points="8,-8 8,-397.67 354,-397.67 354,-8 8,-8"/>
<text text-anchor="middle" x="181" y="-380.37" font-family="sans" font-size="14.00">1</text>
</g>
<g id="clust2" class="cluster">
<title>cluster_2</title>
<polygon fill="none" stroke="black" stroke-dasharray="5,2" points="362,-8 362,-397.67 708,-397.67 708,-8 362,-8"/>
<text text-anchor="middle" x="535" y="-380.37" font-family="sans" font-size="14.00">2</text>
</g>
<g id="clust3" class="cluster">
<title>cluster_3</title>
<polygon fill="none" stroke="black" stroke-dasharray="5,2" points="716,-8 716,-397.67 1062,-397.67 1062,-8 716,-8"/>
<text text-anchor="middle" x="889" y="-380.37" font-family="sans" font-size="14.00">3</text>
</g>
<!-- 1/pur -->
<g id="node1" class="node">
<title>1/pur</title>
<ellipse fill="none" stroke="black" cx="256" cy="-334.36" rx="89.8" ry="30.05"/>
<text text-anchor="middle" x="256" y="-338.31" font-family="sans" font-size="14.00">buy_ingredients</text>
<text text-anchor="middle" x="256" y="-321.06" font-family="sans" font-size="14.00">1</text>
</g>
<!-- 1/mak -->
<g id="node2" class="node">
<title>1/mak</title>
<ellipse fill="none" stroke="black" cx="272" cy="-238.26" rx="73.89" ry="30.05"/>
<text text-anchor="middle" x="272" y="-242.21" font-family="sans" font-size="14.00">make_dough</text>
<text text-anchor="middle" x="272" y="-224.96" font-family="sans" font-size="14.00">1</text>
</g>
<!-- 1/pur&#45;&gt;1/mak -->
<g id="edge1" class="edge">
<title>1/pur&#45;&gt;1/mak</title>
<path fill="none" stroke="black" d="M260.97,-304.1C262.31,-296.23 263.79,-287.57 265.21,-279.22"/>
<polygon fill="black" stroke="black" points="268.8,-279.95 267.03,-269.5 261.9,-278.77 268.8,-279.95"/>
</g>
<!-- 1/bak -->
<g id="node3" class="node">
<title>1/bak</title>
<ellipse fill="none" stroke="black" cx="165" cy="-142.16" rx="67.53" ry="30.05"/>
<text text-anchor="middle" x="165" y="-146.11" font-family="sans" font-size="14.00">bake_bread</text>
<text text-anchor="middle" x="165" y="-128.86" font-family="sans" font-size="14.00">1</text>
</g>
<!-- 1/mak&#45;&gt;1/bak -->
<g id="edge2" class="edge">
<title>1/mak&#45;&gt;1/bak</title>
<path fill="none" stroke="black" d="M241.62,-210.55C229.56,-199.94 215.56,-187.62 202.85,-176.44"/>
<polygon fill="black" stroke="black" points="205.53,-173.26 195.71,-169.29 200.91,-178.52 205.53,-173.26"/>
</g>
<!-- 1/sel -->
<g id="node4" class="node">
<title>1/sel</title>
<ellipse fill="none" stroke="black" cx="87" cy="-46.05" rx="60.63" ry="30.05"/>
<text text-anchor="middle" x="87" y="-50" font-family="sans" font-size="14.00">sell_bread</text>
<text text-anchor="middle" x="87" y="-32.75" font-family="sans" font-size="14.00">1</text>
</g>
<!-- 1/bak&#45;&gt;1/sel -->
<g id="edge3" class="edge">
<title>1/bak&#45;&gt;1/sel</title>
<path fill="none" stroke="black" d="M142.02,-113.43C134.01,-103.77 124.92,-92.8 116.46,-82.6"/>
<polygon fill="black" stroke="black" points="118.62,-80.72 109.55,-75.26 113.23,-85.19 118.62,-80.72"/>
</g>
<!-- 1/cle -->
<g id="node5" class="node">
<title>1/cle</title>
<ellipse fill="none" stroke="black" cx="232" cy="-46.05" rx="65.94" ry="30.05"/>
<text text-anchor="middle" x="232" y="-50" font-family="sans" font-size="14.00">clean_oven</text>
<text text-anchor="middle" x="232" y="-32.75" font-family="sans" font-size="14.00">1</text>
</g>
<!-- 1/bak&#45;&gt;1/cle -->
<g id="edge5" class="edge">
<title>1/bak&#45;&gt;1/cle</title>
<path fill="none" stroke="black" d="M184.92,-113.18C191.48,-103.97 198.87,-93.59 205.82,-83.82"/>
<polygon fill="black" stroke="black" points="209.09,-86.26 212.04,-76.09 203.39,-82.2 209.09,-86.26"/>
</g>
<!-- 1/pre -->
<g id="node6" class="node">
<title>1/pre</title>
<ellipse fill="none" stroke="black" cx="98" cy="-238.26" rx="82.38" ry="30.05"/>
<text text-anchor="middle" x="98" y="-242.21" font-family="sans" font-size="14.00">pre_heat_oven</text>
<text text-anchor="middle" x="98" y="-224.96" font-family="sans" font-size="14.00">1</text>
</g>
<!-- 1/pre&#45;&gt;1/bak -->
<g id="edge4" class="edge">
<title>1/pre&#45;&gt;1/bak</title>
<path fill="none" stroke="black" d="M118.28,-208.77C124.71,-199.75 131.9,-189.65 138.68,-180.13"/>
<polygon fill="black" stroke="black" points="142.07,-182.4 145.02,-172.23 136.36,-178.34 142.07,-182.4"/>
</g>
<!-- 2/pur -->
<g id="node7" class="node">
<title>2/pur</title>
<ellipse fill="none" stroke="black" cx="610" cy="-334.36" rx="89.8" ry="30.05"/>
<text text-anchor="middle" x="610" y="-338.31" font-family="sans" font-size="14.00">buy_ingredients</text>
<text text-anchor="middle" x="610" y="-321.06" font-family="sans" font-size="14.00">2</text>
</g>
<!-- 2/mak -->
<g id="node8" class="node">
<title>2/mak</title>
<ellipse fill="none" stroke="black" cx="626" cy="-238.26" rx="73.89" ry="30.05"/>
<text text-anchor="middle" x="626" y="-242.21" font-family="sans" font-size="14.00">make_dough</text>
<text text-anchor="middle" x="626" y="-224.96" font-family="sans" font-size="14.00">2</text>
</g>
<!-- 2/pur&#45;&gt;2/mak -->
<g id="edge6" class="edge">
<title>2/pur&#45;&gt;2/mak</title>
<path fill="none" stroke="black" d="M614.97,-304.1C616.31,-296.23 617.79,-287.57 619.21,-279.22"/>
<polygon fill="black" stroke="black" points="622.8,-279.95 621.03,-269.5 615.9,-278.77 622.8,-279.95"/>
</g>
<!-- 2/bak -->
<g id="node9" class="node">
<title>2/bak</title>
<ellipse fill="none" stroke="black" cx="519" cy="-142.16" rx="67.53" ry="30.05"/>
<text text-anchor="middle" x="519" y="-146.11" font-family="sans" font-size="14.00">bake_bread</text>
<text text-anchor="middle" x="519" y="-128.86" font-family="sans" font-size="14.00">2</text>
</g>
<!-- 2/mak&#45;&gt;2/bak -->
<g id="edge7" class="edge">
<title>2/mak&#45;&gt;2/bak</title>
<path fill="none" stroke="black" d="M595.62,-210.55C583.56,-199.94 569.56,-187.62 556.85,-176.44"/>
<polygon fill="black" stroke="black" points="559.53,-173.26 549.71,-169.29 554.91,-178.52 559.53,-173.26"/>
</g>
<!-- 2/sel -->
<g id="node10" class="node">
<title>2/sel</title>
<ellipse fill="none" stroke="black" cx="441" cy="-46.05" rx="60.63" ry="30.05"/>
<text text-anchor="middle" x="441" y="-50" font-family="sans" font-size="14.00">sell_bread</text>
<text text-anchor="middle" x="441" y="-32.75" font-family="sans" font-size="14.00">2</text>
</g>
<!-- 2/bak&#45;&gt;2/sel -->
<g id="edge8" class="edge">
<title>2/bak&#45;&gt;2/sel</title>
<path fill="none" stroke="black" d="M496.02,-113.43C488.01,-103.77 478.92,-92.8 470.46,-82.6"/>
<polygon fill="black" stroke="black" points="472.62,-80.72 463.55,-75.26 467.23,-85.19 472.62,-80.72"/>
</g>
<!-- 2/cle -->
<g id="node11" class="node">
<title>2/cle</title>
<ellipse fill="none" stroke="black" cx="586" cy="-46.05" rx="65.94" ry="30.05"/>
<text text-anchor="middle" x="586" y="-50" font-family="sans" font-size="14.00">clean_oven</text>
<text text-anchor="middle" x="586" y="-32.75" font-family="sans" font-size="14.00">2</text>
</g>
<!-- 2/bak&#45;&gt;2/cle -->
<g id="edge10" class="edge">
<title>2/bak&#45;&gt;2/cle</title>
<path fill="none" stroke="black" d="M538.92,-113.18C545.48,-103.97 552.87,-93.59 559.82,-83.82"/>
<polygon fill="black" stroke="black" points="563.09,-86.26 566.04,-76.09 557.39,-82.2 563.09,-86.26"/>
</g>
<!-- 2/pre -->
<g id="node12" class="node">
<title>2/pre</title>
<ellipse fill="none" stroke="black" cx="452" cy="-238.26" rx="82.38" ry="30.05"/>
<text text-anchor="middle" x="452" y="-242.21" font-family="sans" font-size="14.00">pre_heat_oven</text>
<text text-anchor="middle" x="452" y="-224.96" font-family="sans" font-size="14.00">2</text>
</g>
<!-- 2/pre&#45;&gt;2/bak -->
<g id="edge9" class="edge">
<title>2/pre&#45;&gt;2/bak</title>
<path fill="none" stroke="black" d="M472.28,-208.77C478.71,-199.75 485.9,-189.65 492.68,-180.13"/>
<polygon fill="black" stroke="black" points="496.07,-182.4 499.02,-172.23 490.36,-178.34 496.07,-182.4"/>
</g>
<!-- 3/pur -->
<g id="node13" class="node">
<title>3/pur</title>
<ellipse fill="none" stroke="black" cx="964" cy="-334.36" rx="89.8" ry="30.05"/>
<text text-anchor="middle" x="964" y="-338.31" font-family="sans" font-size="14.00">buy_ingredients</text>
<text text-anchor="middle" x="964" y="-321.06" font-family="sans" font-size="14.00">3</text>
</g>
<!-- 3/mak -->
<g id="node14" class="node">
<title>3/mak</title>
<ellipse fill="none" stroke="black" cx="980" cy="-238.26" rx="73.89" ry="30.05"/>
<text text-anchor="middle" x="980" y="-242.21" font-family="sans" font-size="14.00">make_dough</text>
<text text-anchor="middle" x="980" y="-224.96" font-family="sans" font-size="14.00">3</text>
</g>
<!-- 3/pur&#45;&gt;3/mak -->
<g id="edge11" class="edge">
<title>3/pur&#45;&gt;3/mak</title>
<path fill="none" stroke="black" d="M968.97,-304.1C970.31,-296.23 971.79,-287.57 973.21,-279.22"/>
<polygon fill="black" stroke="black" points="976.8,-279.95 975.03,-269.5 969.9,-278.77 976.8,-279.95"/>
</g>
<!-- 3/bak -->
<g id="node15" class="node">
<title>3/bak</title>
<ellipse fill="none" stroke="black" cx="873" cy="-142.16" rx="67.53" ry="30.05"/>
<text text-anchor="middle" x="873" y="-146.11" font-family="sans" font-size="14.00">bake_bread</text>
<text text-anchor="middle" x="873" y="-128.86" font-family="sans" font-size="14.00">3</text>
</g>
<!-- 3/mak&#45;&gt;3/bak -->
<g id="edge12" class="edge">
<title>3/mak&#45;&gt;3/bak</title>
<path fill="none" stroke="black" d="M949.62,-210.55C937.56,-199.94 923.56,-187.62 910.85,-176.44"/>
<polygon fill="black" stroke="black" points="913.53,-173.26 903.71,-169.29 908.91,-178.52 913.53,-173.26"/>
</g>
<!-- 3/sel -->
<g id="node16" class="node">
<title>3/sel</title>
<ellipse fill="none" stroke="black" cx="795" cy="-46.05" rx="60.63" ry="30.05"/>
<text text-anchor="middle" x="795" y="-50" font-family="sans" font-size="14.00">sell_bread</text>
<text text-anchor="middle" x="795" y="-32.75" font-family="sans" font-size="14.00">3</text>
</g>
<!-- 3/bak&#45;&gt;3/sel -->
<g id="edge13" class="edge">
<title>3/bak&#45;&gt;3/sel</title>
<path fill="none" stroke="black" d="M850.02,-113.43C842.01,-103.77 832.92,-92.8 824.46,-82.6"/>
<polygon fill="black" stroke="black" points="826.62,-80.72 817.55,-75.26 821.23,-85.19 826.62,-80.72"/>
</g>
<!-- 3/cle -->
<g id="node17" class="node">
<title>3/cle</title>
<ellipse fill="none" stroke="black" cx="940" cy="-46.05" rx="65.94" ry="30.05"/>
<text text-anchor="middle" x="940" y="-50" font-family="sans" font-size="14.00">clean_oven</text>
<text text-anchor="middle" x="940" y="-32.75" font-family="sans" font-size="14.00">3</text>
</g>
<!-- 3/bak&#45;&gt;3/cle -->
<g id="edge15" class="edge">
<title>3/bak&#45;&gt;3/cle</title>
<path fill="none" stroke="black" d="M892.92,-113.18C899.48,-103.97 906.87,-93.59 913.82,-83.82"/>
<polygon fill="black" stroke="black" points="917.09,-86.26 920.04,-76.09 911.39,-82.2 917.09,-86.26"/>
</g>
<!-- 3/pre -->
<g id="node18" class="node">
<title>3/pre</title>
<ellipse fill="none" stroke="black" cx="806" cy="-238.26" rx="82.38" ry="30.05"/>
<text text-anchor="middle" x="806" y="-242.21" font-family="sans" font-size="14.00">pre_heat_oven</text>
<text text-anchor="middle" x="806" y="-224.96" font-family="sans" font-size="14.00">3</text>
</g>
<!-- 3/pre&#45;&gt;3/bak -->
<g id="edge14" class="edge">
<title>3/pre&#45;&gt;3/bak</title>
<path fill="none" stroke="black" d="M826.28,-208.77C832.71,-199.75 839.9,-189.65 846.68,-180.13"/>
<polygon fill="black" stroke="black" points="850.07,-182.4 853.02,-172.23 844.36,-178.34 850.07,-182.4"/>
</g>
</g>
</svg>
