<?xml version="1.0" encoding="UTF-8" standalone="no"?>
<!DOCTYPE svg PUBLIC "-//W3C//DTD SVG 1.1//EN"
 "http://www.w3.org/Graphics/SVG/1.1/DTD/svg11.dtd">
<!-- Generated by graphviz version 9.0.0 (20231125.0833)
 -->
<!-- Title: Mini_Cylc Pages: 1 -->
<svg width="338pt" height="116pt"
 viewBox="0.00 0.00 338.21 116.00" xmlns="http://www.w3.org/2000/svg" xmlns:xlink="http://www.w3.org/1999/xlink">
<g id="graph0" class="graph" transform="scale(1 1) rotate(0) translate(4 112)">
<title>Mini_Cylc</title>
<polygon fill="none" stroke="none" points="-4,4 -4,-112 334.21,-112 334.21,4 -4,4"/>
<!-- baz_m1 -->
<g id="node1" class="node">
<title>baz_m1</title>
<ellipse fill="none" stroke="black" cx="49.1" cy="-18" rx="49.1" ry="18"/>
<text text-anchor="middle" x="49.1" y="-13.32" font-family="sans" font-size="14.00">baz_m1</text>
</g>
<!-- bar_m1 -->
<g id="node2" class="node">
<title>bar_m1</title>
<ellipse fill="none" stroke="black" cx="49.1" cy="-90" rx="48.05" ry="18"/>
<text text-anchor="middle" x="49.1" y="-85.33" font-family="sans" font-size="14.00">bar_m1</text>
</g>
<!-- bar_m1&#45;&gt;baz_m1 -->
<g id="edge1" class="edge">
<title>bar_m1&#45;&gt;baz_m1</title>
<path fill="none" stroke="black" d="M49.1,-71.7C49.1,-64.41 49.1,-55.73 49.1,-47.54"/>
<polygon fill="black" stroke="black" points="52.6,-47.62 49.1,-37.62 45.6,-47.62 52.6,-47.62"/>
</g>
<!-- bar_m3 -->
<g id="node3" class="node">
<title>bar_m3</title>
<ellipse fill="none" stroke="black" cx="165.1" cy="-90" rx="48.05" ry="18"/>
<text text-anchor="middle" x="165.1" y="-85.33" font-family="sans" font-size="14.00">bar_m3</text>
</g>
<!-- baz_m3 -->
<g id="node4" class="node">
<title>baz_m3</title>
<ellipse fill="none" stroke="black" cx="165.1" cy="-18" rx="49.1" ry="18"/>
<text text-anchor="middle" x="165.1" y="-13.32" font-family="sans" font-size="14.00">baz_m3</text>
</g>
<!-- bar_m3&#45;&gt;baz_m3 -->
<g id="edge2" class="edge">
<title>bar_m3&#45;&gt;baz_m3</title>
<path fill="none" stroke="black" d="M165.1,-71.7C165.1,-64.41 165.1,-55.73 165.1,-47.54"/>
<polygon fill="black" stroke="black" points="168.6,-47.62 165.1,-37.62 161.6,-47.62 168.6,-47.62"/>
</g>
<!-- baz_m2 -->
<g id="node5" class="node">
<title>baz_m2</title>
<ellipse fill="none" stroke="black" cx="281.1" cy="-18" rx="49.1" ry="18"/>
<text text-anchor="middle" x="281.1" y="-13.32" font-family="sans" font-size="14.00">baz_m2</text>
</g>
<!-- bar_m2 -->
<g id="node6" class="node">
<title>bar_m2</title>
<ellipse fill="none" stroke="black" cx="281.1" cy="-90" rx="48.05" ry="18"/>
<text text-anchor="middle" x="281.1" y="-85.33" font-family="sans" font-size="14.00">bar_m2</text>
</g>
<!-- bar_m2&#45;&gt;baz_m2 -->
<g id="edge3" class="edge">
<title>bar_m2&#45;&gt;baz_m2</title>
<path fill="none" stroke="black" d="M281.1,-71.7C281.1,-64.41 281.1,-55.73 281.1,-47.54"/>
<polygon fill="black" stroke="black" points="284.6,-47.62 281.1,-37.62 277.6,-47.62 284.6,-47.62"/>
</g>
</g>
</svg>
