<?xml version="1.0" encoding="UTF-8" standalone="no"?>
<!DOCTYPE svg PUBLIC "-//W3C//DTD SVG 1.1//EN"
 "http://www.w3.org/Graphics/SVG/1.1/DTD/svg11.dtd">
<!-- Generated by graphviz version 9.0.0 (20231125.0833)
 -->
<!-- Title: Example Pages: 1 -->
<svg width="176pt" height="193pt"
 viewBox="0.00 0.00 175.53 193.25" xmlns="http://www.w3.org/2000/svg" xmlns:xlink="http://www.w3.org/1999/xlink">
<g id="graph0" class="graph" transform="scale(1 1) rotate(0) translate(4 189.25)">
<title>Example</title>
<polygon fill="none" stroke="none" points="-4,4 -4,-189.25 171.53,-189.25 171.53,4 -4,4"/>
<g id="clust1" class="cluster">
<title>cluster_1</title>
<polygon fill="none" stroke="red" stroke-dasharray="5,2" points="8,-64 8,-141.25 120,-141.25 120,-64 8,-64"/>
<text text-anchor="middle" x="64" y="-123.95" font-family="sans" font-size="14.00" fill="red">:fail</text>
</g>
<!-- recover -->
<g id="node1" class="node">
<title>recover</title>
<ellipse fill="none" stroke="black" cx="64" cy="-90" rx="47.53" ry="18"/>
<text text-anchor="middle" x="64" y="-85.33" font-family="sans" font-size="14.00">recover</text>
</g>
<!-- bar -->
<g id="node3" class="node">
<title>bar</title>
<ellipse fill="none" stroke="black" cx="140" cy="-18" rx="27.53" ry="18"/>
<text text-anchor="middle" x="140" y="-13.32" font-family="sans" font-size="14.00">bar</text>
</g>
<!-- recover&#45;&gt;bar -->
<g id="edge2" class="edge">
<title>recover&#45;&gt;bar</title>
<path fill="none" stroke="black" d="M81.25,-73.12C91.65,-63.54 105.04,-51.2 116.41,-40.73"/>
<polygon fill="none" stroke="black" points="118.53,-43.53 123.51,-34.18 113.79,-38.38 118.53,-43.53"/>
</g>
<!-- foo -->
<g id="node2" class="node">
<title>foo</title>
<ellipse fill="none" stroke="black" cx="140" cy="-167.25" rx="27" ry="18"/>
<text text-anchor="middle" x="140" y="-162.57" font-family="sans" font-size="14.00">foo</text>
</g>
<!-- foo&#45;&gt;recover -->
<g id="edge1" class="edge">
<title>foo&#45;&gt;recover</title>
<path fill="none" stroke="black" d="M125.35,-151.74C114.9,-141.4 100.62,-127.26 88.46,-115.22"/>
<polygon fill="black" stroke="black" points="91.1,-112.91 81.53,-108.36 86.17,-117.88 91.1,-112.91"/>
</g>
<!-- foo&#45;&gt;bar -->
<g id="edge3" class="edge">
<title>foo&#45;&gt;bar</title>
<path fill="none" stroke="black" d="M140,-148.78C140,-123.87 140,-77.85 140,-47.84"/>
<polygon fill="none" stroke="black" points="143.5,-47.96 140,-37.96 136.5,-47.96 143.5,-47.96"/>
</g>
</g>
</svg>
