<?xml version="1.0" encoding="UTF-8" standalone="no"?>
<!DOCTYPE svg PUBLIC "-//W3C//DTD SVG 1.1//EN"
 "http://www.w3.org/Graphics/SVG/1.1/DTD/svg11.dtd">
<!-- Generated by graphviz version 8.1.0 (20230707.2238)
 -->
<!-- Title: example Pages: 1 -->
<svg width="504pt" height="90pt"
 viewBox="0.00 0.00 504.00 90.34" xmlns="http://www.w3.org/2000/svg" xmlns:xlink="http://www.w3.org/1999/xlink">
<g id="graph0" class="graph" transform="scale(0.480542 0.480542) rotate(0) translate(4 184)">
<title>example</title>
<polygon fill="none" stroke="none" points="-4,4 -4,-184 1044.82,-184 1044.82,4 -4,4"/>
<!-- get_observations_aldergrove -->
<g id="node1" class="node">
<title>get_observations_aldergrove</title>
<ellipse fill="none" stroke="black" cx="150.64" cy="-162" rx="150.64" ry="18"/>
<text text-anchor="middle" x="150.64" y="-157.32" font-family="sans" font-size="14.00">get_observations_aldergrove</text>
</g>
<!-- consolidate_observations -->
<g id="node2" class="node">
<title>consolidate_observations</title>
<ellipse fill="none" stroke="black" cx="423.64" cy="-18" rx="133.81" ry="18"/>
<text text-anchor="middle" x="423.64" y="-13.32" font-family="sans" font-size="14.00">consolidate_observations</text>
</g>
<!-- get_observations_aldergrove&#45;&gt;consolidate_observations -->
<g id="edge1" class="edge">
<title>get_observations_aldergrove&#45;&gt;consolidate_observations</title>
<path fill="none" stroke="black" d="M176.07,-143.86C204.68,-124.97 252.87,-94.31 296.64,-72 319.99,-60.1 346.65,-48.66 369.5,-39.48"/>
<polygon fill="black" stroke="black" points="370.7,-42.37 378.7,-35.43 368.11,-35.87 370.7,-42.37"/>
</g>
<!-- hidden -->
<!-- get_observations_aldergrove&#45;&gt;hidden -->
<!-- get_observations_camborne -->
<g id="node3" class="node">
<title>get_observations_camborne</title>
<ellipse fill="none" stroke="black" cx="466.64" cy="-162" rx="147.49" ry="18"/>
<text text-anchor="middle" x="466.64" y="-157.32" font-family="sans" font-size="14.00">get_observations_camborne</text>
</g>
<!-- get_observations_camborne&#45;&gt;consolidate_observations -->
<g id="edge2" class="edge">
<title>get_observations_camborne&#45;&gt;consolidate_observations</title>
<path fill="none" stroke="black" d="M457.67,-143.71C452.68,-133.53 446.68,-120.28 442.64,-108 436.08,-88.06 431.21,-64.83 428.05,-47.11"/>
<polygon fill="black" stroke="black" points="431.34,-46.62 426.21,-37.35 424.44,-47.8 431.34,-46.62"/>
</g>
<!-- get_observations_camborne&#45;&gt;hidden -->
<!-- get_observations_heathrow -->
<g id="node4" class="node">
<title>get_observations_heathrow</title>
<ellipse fill="none" stroke="black" cx="595.64" cy="-90" rx="144.33" ry="18"/>
<text text-anchor="middle" x="595.64" y="-85.33" font-family="sans" font-size="14.00">get_observations_heathrow</text>
</g>
<!-- get_observations_heathrow&#45;&gt;consolidate_observations -->
<g id="edge3" class="edge">
<title>get_observations_heathrow&#45;&gt;consolidate_observations</title>
<path fill="none" stroke="black" d="M554.88,-72.41C530.76,-62.6 500.01,-50.08 474.34,-39.63"/>
<polygon fill="black" stroke="black" points="475.99,-36.12 465.41,-35.59 473.35,-42.6 475.99,-36.12"/>
</g>
<!-- get_observations_shetland -->
<g id="node5" class="node">
<title>get_observations_shetland</title>
<ellipse fill="none" stroke="black" cx="899.64" cy="-90" rx="141.17" ry="18"/>
<text text-anchor="middle" x="899.64" y="-85.33" font-family="sans" font-size="14.00">get_observations_shetland</text>
</g>
<!-- get_observations_shetland&#45;&gt;consolidate_observations -->
<g id="edge4" class="edge">
<title>get_observations_shetland&#45;&gt;consolidate_observations</title>
<path fill="none" stroke="black" d="M809.55,-75.75C727.62,-63.7 606.93,-45.95 522.4,-33.52"/>
<polygon fill="black" stroke="black" points="523.16,-29.95 512.76,-31.96 522.14,-36.88 523.16,-29.95"/>
</g>
<!-- hidden&#45;&gt;consolidate_observations -->
</g>
</svg>
