<?xml version="1.0" encoding="UTF-8" standalone="no"?>
<!DOCTYPE svg PUBLIC "-//W3C//DTD SVG 1.1//EN"
 "http://www.w3.org/Graphics/SVG/1.1/DTD/svg11.dtd">
<!-- Generated by graphviz version 8.1.0 (20230707.2238)
 -->
<!-- Title: graph_tutorial Pages: 1 -->
<svg width="134pt" height="260pt"
 viewBox="0.00 0.00 134.00 260.00" xmlns="http://www.w3.org/2000/svg" xmlns:xlink="http://www.w3.org/1999/xlink">
<g id="graph0" class="graph" transform="scale(1 1) rotate(0) translate(4 256)">
<title>graph_tutorial</title>
<polygon fill="none" stroke="none" points="-4,4 -4,-256 130,-256 130,4 -4,4"/>
<!-- a -->
<g id="node1" class="node">
<title>a</title>
<ellipse fill="none" stroke="black" cx="27" cy="-234" rx="27" ry="18"/>
<text text-anchor="middle" x="27" y="-229.32" font-family="sans" font-size="14.00">a</text>
</g>
<!-- b -->
<g id="node2" class="node">
<title>b</title>
<ellipse fill="none" stroke="black" cx="63" cy="-162" rx="27" ry="18"/>
<text text-anchor="middle" x="63" y="-157.32" font-family="sans" font-size="14.00">b</text>
</g>
<!-- a&#45;&gt;b -->
<g id="edge1" class="edge">
<title>a&#45;&gt;b</title>
<path fill="none" stroke="black" d="M35.35,-216.76C39.62,-208.46 44.92,-198.15 49.73,-188.79"/>
<polygon fill="black" stroke="black" points="53.23,-190.64 54.7,-180.15 47.01,-187.44 53.23,-190.64"/>
</g>
<!-- d -->
<g id="node3" class="node">
<title>d</title>
<ellipse fill="none" stroke="black" cx="27" cy="-90" rx="27" ry="18"/>
<text text-anchor="middle" x="27" y="-85.33" font-family="sans" font-size="14.00">d</text>
</g>
<!-- b&#45;&gt;d -->
<g id="edge2" class="edge">
<title>b&#45;&gt;d</title>
<path fill="none" stroke="black" d="M54.65,-144.76C50.38,-136.46 45.08,-126.15 40.27,-116.79"/>
<polygon fill="black" stroke="black" points="42.99,-115.44 35.3,-108.15 36.77,-118.64 42.99,-115.44"/>
</g>
<!-- f -->
<g id="node6" class="node">
<title>f</title>
<ellipse fill="none" stroke="black" cx="99" cy="-90" rx="27" ry="18"/>
<text text-anchor="middle" x="99" y="-85.33" font-family="sans" font-size="14.00">f</text>
</g>
<!-- b&#45;&gt;f -->
<g id="edge5" class="edge">
<title>b&#45;&gt;f</title>
<path fill="none" stroke="black" d="M71.35,-144.76C75.62,-136.46 80.92,-126.15 85.73,-116.79"/>
<polygon fill="black" stroke="black" points="89.23,-118.64 90.7,-108.15 83.01,-115.44 89.23,-118.64"/>
</g>
<!-- e -->
<g id="node4" class="node">
<title>e</title>
<ellipse fill="none" stroke="black" cx="27" cy="-18" rx="27" ry="18"/>
<text text-anchor="middle" x="27" y="-13.32" font-family="sans" font-size="14.00">e</text>
</g>
<!-- d&#45;&gt;e -->
<g id="edge3" class="edge">
<title>d&#45;&gt;e</title>
<path fill="none" stroke="black" d="M27,-71.7C27,-64.24 27,-55.32 27,-46.97"/>
<polygon fill="black" stroke="black" points="30.5,-47.1 27,-37.1 23.5,-47.1 30.5,-47.1"/>
</g>
<!-- c -->
<g id="node5" class="node">
<title>c</title>
<ellipse fill="none" stroke="black" cx="99" cy="-234" rx="27" ry="18"/>
<text text-anchor="middle" x="99" y="-229.32" font-family="sans" font-size="14.00">c</text>
</g>
<!-- c&#45;&gt;b -->
<g id="edge4" class="edge">
<title>c&#45;&gt;b</title>
<path fill="none" stroke="black" d="M90.65,-216.76C86.38,-208.46 81.08,-198.15 76.27,-188.79"/>
<polygon fill="black" stroke="black" points="78.99,-187.44 71.3,-180.15 72.77,-190.64 78.99,-187.44"/>
</g>
</g>
</svg>
