<?xml version="1.0" encoding="UTF-8" standalone="no"?>
<!DOCTYPE svg PUBLIC "-//W3C//DTD SVG 1.1//EN"
 "http://www.w3.org/Graphics/SVG/1.1/DTD/svg11.dtd">
<!-- Generated by graphviz version 2.40.1 (20161225.0304)
 -->
<!-- Title: example Pages: 1 -->
<svg width="504pt" height="416pt"
 viewBox="0.00 0.00 504.00 416.45" xmlns="http://www.w3.org/2000/svg" xmlns:xlink="http://www.w3.org/1999/xlink">
<g id="graph0" class="graph" transform="scale(.4476 .4476) rotate(0) translate(4 926.4012)">
<title>example</title>
<polygon fill="transparent" stroke="transparent" points="-4,4 -4,-926.4012 1122,-926.4012 1122,4 -4,4"/>
<g id="clust1" class="cluster">
<title>cluster_1</title>
<polygon fill="transparent" stroke="#000000" stroke-dasharray="5,2" points="8,-549.4407 8,-914.4012 370,-914.4012 370,-549.4407 8,-549.4407"/>
<text text-anchor="middle" x="189" y="-899.2012" font-family="sans" font-size="14.00" fill="#000000">1</text>
</g>
<g id="clust2" class="cluster">
<title>cluster_2</title>
<polygon fill="transparent" stroke="#000000" stroke-dasharray="5,2" points="378,-277.2203 378,-642.1808 740,-642.1808 740,-277.2203 378,-277.2203"/>
<text text-anchor="middle" x="559" y="-626.9808" font-family="sans" font-size="14.00" fill="#000000">2</text>
</g>
<g id="clust3" class="cluster">
<title>cluster_3</title>
<polygon fill="transparent" stroke="#000000" stroke-dasharray="5,2" points="748,-8 748,-369.9605 1110,-369.9605 1110,-8 748,-8"/>
<text text-anchor="middle" x="929" y="-354.7605" font-family="sans" font-size="14.00" fill="#000000">3</text>
</g>
<!-- 1/pur -->
<g id="node1" class="node">
<title>1/pur</title>
<ellipse fill="none" stroke="#000000" cx="269" cy="-856.5311" rx="92.7622" ry="26.7407"/>
<text text-anchor="middle" x="269" y="-860.3311" font-family="sans" font-size="14.00" fill="#000000">buy_ingredients</text>
<text text-anchor="middle" x="269" y="-845.3311" font-family="sans" font-size="14.00" fill="#000000">1</text>
</g>
<!-- 1/mak -->
<g id="node2" class="node">
<title>1/mak</title>
<ellipse fill="none" stroke="#000000" cx="285" cy="-766.791" rx="77.1494" ry="26.7407"/>
<text text-anchor="middle" x="285" y="-770.591" font-family="sans" font-size="14.00" fill="#000000">make_dough</text>
<text text-anchor="middle" x="285" y="-755.591" font-family="sans" font-size="14.00" fill="#000000">1</text>
</g>
<!-- 1/pur&#45;&gt;1/mak -->
<g id="edge1" class="edge">
<title>1/pur&#45;&gt;1/mak</title>
<path fill="none" stroke="#000000" d="M273.8005,-829.6061C275.256,-821.4424 276.8807,-812.3299 278.4313,-803.6333"/>
<polygon fill="#000000" stroke="#000000" points="281.8932,-804.1561 280.2029,-793.697 275.0019,-802.9274 281.8932,-804.1561"/>
</g>
<!-- 1/bak -->
<g id="node3" class="node">
<title>1/bak</title>
<ellipse fill="none" stroke="#000000" cx="213" cy="-677.0509" rx="71.3357" ry="26.7407"/>
<text text-anchor="middle" x="213" y="-680.8509" font-family="sans" font-size="14.00" fill="#000000">bake_bread</text>
<text text-anchor="middle" x="213" y="-665.8509" font-family="sans" font-size="14.00" fill="#000000">1</text>
</g>
<!-- 1/mak&#45;&gt;1/bak -->
<g id="edge2" class="edge">
<title>1/mak&#45;&gt;1/bak</title>
<path fill="none" stroke="#000000" d="M264.1746,-740.8344C256.7119,-731.5329 248.1842,-720.9041 240.2583,-711.0253"/>
<polygon fill="#000000" stroke="#000000" points="242.7665,-708.5587 233.7786,-702.9491 237.3066,-712.9393 242.7665,-708.5587"/>
</g>
<!-- 1/sel -->
<g id="node4" class="node">
<title>1/sel</title>
<ellipse fill="none" stroke="#000000" cx="142" cy="-584.3107" rx="63.7795" ry="26.7407"/>
<text text-anchor="middle" x="142" y="-588.1107" font-family="sans" font-size="14.00" fill="#000000">sell_bread</text>
<text text-anchor="middle" x="142" y="-573.1107" font-family="sans" font-size="14.00" fill="#000000">1</text>
</g>
<!-- 1/bak&#45;&gt;1/sel -->
<g id="edge3" class="edge">
<title>1/bak&#45;&gt;1/sel</title>
<path fill="none" stroke="#000000" d="M193.2225,-651.2176C185.3752,-640.9674 176.2434,-629.0394 167.8816,-618.1172"/>
<polygon fill="#000000" stroke="#000000" points="170.5294,-615.8181 161.6714,-610.0055 164.9712,-620.0734 170.5294,-615.8181"/>
</g>
<!-- 1/cle -->
<g id="node5" class="node">
<title>1/cle</title>
<ellipse fill="none" stroke="#000000" cx="293" cy="-584.3107" rx="69.0935" ry="26.7407"/>
<text text-anchor="middle" x="293" y="-588.1107" font-family="sans" font-size="14.00" fill="#000000">clean_oven</text>
<text text-anchor="middle" x="293" y="-573.1107" font-family="sans" font-size="14.00" fill="#000000">1</text>
</g>
<!-- 1/bak&#45;&gt;1/cle -->
<g id="edge5" class="edge">
<title>1/bak&#45;&gt;1/cle</title>
<path fill="none" stroke="#000000" d="M235.2845,-651.2176C244.2132,-640.8669 254.6178,-628.8053 264.1145,-617.7963"/>
<polygon fill="#000000" stroke="#000000" points="266.9534,-619.8637 270.835,-610.0055 261.653,-615.2914 266.9534,-619.8637"/>
</g>
<!-- 2/pre -->
<g id="node12" class="node">
<title>2/pre</title>
<ellipse fill="none" stroke="#000000" cx="473" cy="-494.5706" rx="86.9483" ry="26.7407"/>
<text text-anchor="middle" x="473" y="-498.3706" font-family="sans" font-size="14.00" fill="#000000">pre_heat_oven</text>
<text text-anchor="middle" x="473" y="-483.3706" font-family="sans" font-size="14.00" fill="#000000">2</text>
</g>
<!-- 1/cle&#45;&gt;2/pre -->
<g id="edge6" class="edge">
<title>1/cle&#45;&gt;2/pre</title>
<path fill="none" stroke="#000000" d="M335.6575,-563.0436C360.3017,-550.7571 391.5666,-535.1698 418.0388,-521.9719"/>
<polygon fill="#000000" stroke="#000000" points="419.7959,-525.0068 427.1837,-517.4126 416.6726,-518.7422 419.7959,-525.0068"/>
</g>
<!-- 1/pre -->
<g id="node6" class="node">
<title>1/pre</title>
<ellipse fill="none" stroke="#000000" cx="103" cy="-766.791" rx="86.9483" ry="26.7407"/>
<text text-anchor="middle" x="103" y="-770.591" font-family="sans" font-size="14.00" fill="#000000">pre_heat_oven</text>
<text text-anchor="middle" x="103" y="-755.591" font-family="sans" font-size="14.00" fill="#000000">1</text>
</g>
<!-- 1/pre&#45;&gt;1/bak -->
<g id="edge4" class="edge">
<title>1/pre&#45;&gt;1/bak</title>
<path fill="none" stroke="#000000" d="M133.9339,-741.5545C146.6688,-731.1652 161.5479,-719.0265 174.9416,-708.0996"/>
<polygon fill="#000000" stroke="#000000" points="177.5206,-710.5126 183.0567,-701.4792 173.0956,-705.0886 177.5206,-710.5126"/>
</g>
<!-- 2/pur -->
<g id="node7" class="node">
<title>2/pur</title>
<ellipse fill="none" stroke="#000000" cx="639" cy="-584.3107" rx="92.7622" ry="26.7407"/>
<text text-anchor="middle" x="639" y="-588.1107" font-family="sans" font-size="14.00" fill="#000000">buy_ingredients</text>
<text text-anchor="middle" x="639" y="-573.1107" font-family="sans" font-size="14.00" fill="#000000">2</text>
</g>
<!-- 2/mak -->
<g id="node8" class="node">
<title>2/mak</title>
<ellipse fill="none" stroke="#000000" cx="655" cy="-494.5706" rx="77.1494" ry="26.7407"/>
<text text-anchor="middle" x="655" y="-498.3706" font-family="sans" font-size="14.00" fill="#000000">make_dough</text>
<text text-anchor="middle" x="655" y="-483.3706" font-family="sans" font-size="14.00" fill="#000000">2</text>
</g>
<!-- 2/pur&#45;&gt;2/mak -->
<g id="edge7" class="edge">
<title>2/pur&#45;&gt;2/mak</title>
<path fill="none" stroke="#000000" d="M643.8005,-557.3858C645.256,-549.2221 646.8807,-540.1096 648.4313,-531.4129"/>
<polygon fill="#000000" stroke="#000000" points="651.8932,-531.9357 650.2029,-521.4766 645.0019,-530.707 651.8932,-531.9357"/>
</g>
<!-- 2/bak -->
<g id="node9" class="node">
<title>2/bak</title>
<ellipse fill="none" stroke="#000000" cx="583" cy="-404.8305" rx="71.3357" ry="26.7407"/>
<text text-anchor="middle" x="583" y="-408.6305" font-family="sans" font-size="14.00" fill="#000000">bake_bread</text>
<text text-anchor="middle" x="583" y="-393.6305" font-family="sans" font-size="14.00" fill="#000000">2</text>
</g>
<!-- 2/mak&#45;&gt;2/bak -->
<g id="edge8" class="edge">
<title>2/mak&#45;&gt;2/bak</title>
<path fill="none" stroke="#000000" d="M634.1746,-468.6141C626.7119,-459.3126 618.1842,-448.6838 610.2583,-438.8049"/>
<polygon fill="#000000" stroke="#000000" points="612.7665,-436.3383 603.7786,-430.7287 607.3066,-440.7189 612.7665,-436.3383"/>
</g>
<!-- 2/sel -->
<g id="node10" class="node">
<title>2/sel</title>
<ellipse fill="none" stroke="#000000" cx="512" cy="-312.0904" rx="63.7795" ry="26.7407"/>
<text text-anchor="middle" x="512" y="-315.8904" font-family="sans" font-size="14.00" fill="#000000">sell_bread</text>
<text text-anchor="middle" x="512" y="-300.8904" font-family="sans" font-size="14.00" fill="#000000">2</text>
</g>
<!-- 2/bak&#45;&gt;2/sel -->
<g id="edge9" class="edge">
<title>2/bak&#45;&gt;2/sel</title>
<path fill="none" stroke="#000000" d="M563.2225,-378.9972C555.3752,-368.747 546.2434,-356.819 537.8816,-345.8969"/>
<polygon fill="#000000" stroke="#000000" points="540.5294,-343.5978 531.6714,-337.7852 534.9712,-347.853 540.5294,-343.5978"/>
</g>
<!-- 2/cle -->
<g id="node11" class="node">
<title>2/cle</title>
<ellipse fill="none" stroke="#000000" cx="663" cy="-312.0904" rx="69.0935" ry="26.7407"/>
<text text-anchor="middle" x="663" y="-315.8904" font-family="sans" font-size="14.00" fill="#000000">clean_oven</text>
<text text-anchor="middle" x="663" y="-300.8904" font-family="sans" font-size="14.00" fill="#000000">2</text>
</g>
<!-- 2/bak&#45;&gt;2/cle -->
<g id="edge11" class="edge">
<title>2/bak&#45;&gt;2/cle</title>
<path fill="none" stroke="#000000" d="M605.2845,-378.9972C614.2132,-368.6465 624.6178,-356.585 634.1145,-345.5759"/>
<polygon fill="#000000" stroke="#000000" points="636.9534,-347.6433 640.835,-337.7852 631.653,-343.071 636.9534,-347.6433"/>
</g>
<!-- 3/pre -->
<g id="node18" class="node">
<title>3/pre</title>
<ellipse fill="none" stroke="#000000" cx="843" cy="-222.3503" rx="86.9483" ry="26.7407"/>
<text text-anchor="middle" x="843" y="-226.1503" font-family="sans" font-size="14.00" fill="#000000">pre_heat_oven</text>
<text text-anchor="middle" x="843" y="-211.1503" font-family="sans" font-size="14.00" fill="#000000">3</text>
</g>
<!-- 2/cle&#45;&gt;3/pre -->
<g id="edge12" class="edge">
<title>2/cle&#45;&gt;3/pre</title>
<path fill="none" stroke="#000000" d="M705.6575,-290.8232C730.3017,-278.5367 761.5666,-262.9494 788.0388,-249.7516"/>
<polygon fill="#000000" stroke="#000000" points="789.7959,-252.7864 797.1837,-245.1923 786.6726,-246.5218 789.7959,-252.7864"/>
</g>
<!-- 2/pre&#45;&gt;2/bak -->
<g id="edge10" class="edge">
<title>2/pre&#45;&gt;2/bak</title>
<path fill="none" stroke="#000000" d="M503.9339,-469.3342C516.6688,-458.9448 531.5479,-446.8061 544.9416,-435.8793"/>
<polygon fill="#000000" stroke="#000000" points="547.5206,-438.2923 553.0567,-429.2589 543.0956,-432.8683 547.5206,-438.2923"/>
</g>
<!-- 3/pur -->
<g id="node13" class="node">
<title>3/pur</title>
<ellipse fill="none" stroke="#000000" cx="1009" cy="-312.0904" rx="92.7622" ry="26.7407"/>
<text text-anchor="middle" x="1009" y="-315.8904" font-family="sans" font-size="14.00" fill="#000000">buy_ingredients</text>
<text text-anchor="middle" x="1009" y="-300.8904" font-family="sans" font-size="14.00" fill="#000000">3</text>
</g>
<!-- 3/mak -->
<g id="node14" class="node">
<title>3/mak</title>
<ellipse fill="none" stroke="#000000" cx="1025" cy="-222.3503" rx="77.1494" ry="26.7407"/>
<text text-anchor="middle" x="1025" y="-226.1503" font-family="sans" font-size="14.00" fill="#000000">make_dough</text>
<text text-anchor="middle" x="1025" y="-211.1503" font-family="sans" font-size="14.00" fill="#000000">3</text>
</g>
<!-- 3/pur&#45;&gt;3/mak -->
<g id="edge13" class="edge">
<title>3/pur&#45;&gt;3/mak</title>
<path fill="none" stroke="#000000" d="M1013.8005,-285.1654C1015.256,-277.0017 1016.8807,-267.8892 1018.4313,-259.1926"/>
<polygon fill="#000000" stroke="#000000" points="1021.8932,-259.7154 1020.2029,-249.2563 1015.0019,-258.4867 1021.8932,-259.7154"/>
</g>
<!-- 3/bak -->
<g id="node15" class="node">
<title>3/bak</title>
<ellipse fill="none" stroke="#000000" cx="912" cy="-132.6102" rx="71.3357" ry="26.7407"/>
<text text-anchor="middle" x="912" y="-136.4102" font-family="sans" font-size="14.00" fill="#000000">bake_bread</text>
<text text-anchor="middle" x="912" y="-121.4102" font-family="sans" font-size="14.00" fill="#000000">3</text>
</g>
<!-- 3/mak&#45;&gt;3/bak -->
<g id="edge14" class="edge">
<title>3/mak&#45;&gt;3/bak</title>
<path fill="none" stroke="#000000" d="M993.8231,-197.5909C980.4985,-187.009 964.8047,-174.5455 950.744,-163.3791"/>
<polygon fill="#000000" stroke="#000000" points="952.6919,-160.4566 942.6842,-156.9784 948.3385,-165.9383 952.6919,-160.4566"/>
</g>
<!-- 3/sel -->
<g id="node16" class="node">
<title>3/sel</title>
<ellipse fill="none" stroke="#000000" cx="831" cy="-42.8701" rx="63.7795" ry="26.7407"/>
<text text-anchor="middle" x="831" y="-46.6701" font-family="sans" font-size="14.00" fill="#000000">sell_bread</text>
<text text-anchor="middle" x="831" y="-31.6701" font-family="sans" font-size="14.00" fill="#000000">3</text>
</g>
<!-- 3/bak&#45;&gt;3/sel -->
<g id="edge15" class="edge">
<title>3/bak&#45;&gt;3/sel</title>
<path fill="none" stroke="#000000" d="M889.0053,-107.1343C880.2093,-97.3892 870.0491,-86.1327 860.7137,-75.7899"/>
<polygon fill="#000000" stroke="#000000" points="863.0704,-73.1772 853.7718,-68.099 857.874,-77.8675 863.0704,-73.1772"/>
</g>
<!-- 3/cle -->
<g id="node17" class="node">
<title>3/cle</title>
<ellipse fill="none" stroke="#000000" cx="982" cy="-42.8701" rx="69.0935" ry="26.7407"/>
<text text-anchor="middle" x="982" y="-46.6701" font-family="sans" font-size="14.00" fill="#000000">clean_oven</text>
<text text-anchor="middle" x="982" y="-31.6701" font-family="sans" font-size="14.00" fill="#000000">3</text>
</g>
<!-- 3/bak&#45;&gt;3/cle -->
<g id="edge17" class="edge">
<title>3/bak&#45;&gt;3/cle</title>
<path fill="none" stroke="#000000" d="M932.2469,-106.6536C939.5024,-97.3521 947.7932,-86.7233 955.4989,-76.8445"/>
<polygon fill="#000000" stroke="#000000" points="958.4078,-78.8059 961.7986,-68.7683 952.8884,-74.5005 958.4078,-78.8059"/>
</g>
<!-- 3/pre&#45;&gt;3/bak -->
<g id="edge16" class="edge">
<title>3/pre&#45;&gt;3/bak</title>
<path fill="none" stroke="#000000" d="M863.3291,-195.9107C870.41,-186.7014 878.4549,-176.2383 885.936,-166.5086"/>
<polygon fill="#000000" stroke="#000000" points="888.7331,-168.6127 892.0539,-158.5517 883.1838,-164.3459 888.7331,-168.6127"/>
</g>
</g>
</svg>
