<?xml version="1.0" encoding="UTF-8" standalone="no"?>
<!DOCTYPE svg PUBLIC "-//W3C//DTD SVG 1.1//EN"
 "http://www.w3.org/Graphics/SVG/1.1/DTD/svg11.dtd">
<!-- Generated by graphviz version 2.40.1 (20161225.0304)
 -->
<!-- Title: Example Pages: 1 -->
<svg width="218pt" height="332pt"
 viewBox="0.00 0.00 218.00 332.00" xmlns="http://www.w3.org/2000/svg" xmlns:xlink="http://www.w3.org/1999/xlink">
<g id="graph0" class="graph" transform="scale(1 1) rotate(0) translate(4 328)">
<title>Example</title>
<polygon fill="transparent" stroke="transparent" points="-4,4 -4,-328 214,-328 214,4 -4,4"/>
<!-- AIRPLANE -->
<g id="node1" class="node">
<title>AIRPLANE</title>
<polygon fill="#b0e0e6" stroke="#4169e1" points="86,-108 0,-108 0,-72 86,-72 86,-108"/>
<text text-anchor="middle" x="43" y="-86.3" font-family="sans" font-size="14.00" fill="#000000">AIRPLANE</text>
</g>
<!-- a380 -->
<g id="node2" class="node">
<title>a380</title>
<polygon fill="#b0e0e6" stroke="#4169e1" points="70,-36 16,-36 16,0 70,0 70,-36"/>
<text text-anchor="middle" x="43" y="-14.3" font-family="sans" font-size="14.00" fill="#000000">a380</text>
</g>
<!-- AIRPLANE&#45;&gt;a380 -->
<g id="edge1" class="edge">
<title>AIRPLANE&#45;&gt;a380</title>
<path fill="none" stroke="#4169e1" d="M43,-71.8314C43,-64.131 43,-54.9743 43,-46.4166"/>
<polygon fill="#4169e1" stroke="#4169e1" points="46.5001,-46.4132 43,-36.4133 39.5001,-46.4133 46.5001,-46.4132"/>
</g>
<!-- HELICOPTER -->
<g id="node3" class="node">
<title>HELICOPTER</title>
<polygon fill="#b0e0e6" stroke="#4169e1" points="210,-108 104,-108 104,-72 210,-72 210,-108"/>
<text text-anchor="middle" x="157" y="-86.3" font-family="sans" font-size="14.00" fill="#000000">HELICOPTER</text>
</g>
<!-- r44 -->
<g id="node4" class="node">
<title>r44</title>
<polygon fill="#b0e0e6" stroke="#4169e1" points="184,-36 130,-36 130,0 184,0 184,-36"/>
<text text-anchor="middle" x="157" y="-14.3" font-family="sans" font-size="14.00" fill="#000000">r44</text>
</g>
<!-- HELICOPTER&#45;&gt;r44 -->
<g id="edge2" class="edge">
<title>HELICOPTER&#45;&gt;r44</title>
<path fill="none" stroke="#4169e1" d="M157,-71.8314C157,-64.131 157,-54.9743 157,-46.4166"/>
<polygon fill="#4169e1" stroke="#4169e1" points="160.5001,-46.4132 157,-36.4133 153.5001,-46.4133 160.5001,-46.4132"/>
</g>
<!-- root -->
<g id="node5" class="node">
<title>root</title>
<polygon fill="#b0e0e6" stroke="#4169e1" points="127,-324 73,-324 73,-288 127,-288 127,-324"/>
<text text-anchor="middle" x="100" y="-302.3" font-family="sans" font-size="14.00" fill="#000000">root</text>
</g>
<!-- VEHICLE -->
<g id="node6" class="node">
<title>VEHICLE</title>
<polygon fill="#b0e0e6" stroke="#4169e1" points="138.5,-252 61.5,-252 61.5,-216 138.5,-216 138.5,-252"/>
<text text-anchor="middle" x="100" y="-230.3" font-family="sans" font-size="14.00" fill="#000000">VEHICLE</text>
</g>
<!-- root&#45;&gt;VEHICLE -->
<g id="edge3" class="edge">
<title>root&#45;&gt;VEHICLE</title>
<path fill="none" stroke="#4169e1" d="M100,-287.8314C100,-280.131 100,-270.9743 100,-262.4166"/>
<polygon fill="#4169e1" stroke="#4169e1" points="103.5001,-262.4132 100,-252.4133 96.5001,-262.4133 103.5001,-262.4132"/>
</g>
<!-- AIR_VEHICLE -->
<g id="node7" class="node">
<title>AIR_VEHICLE</title>
<polygon fill="#b0e0e6" stroke="#4169e1" points="154.5,-180 45.5,-180 45.5,-144 154.5,-144 154.5,-180"/>
<text text-anchor="middle" x="100" y="-158.3" font-family="sans" font-size="14.00" fill="#000000">AIR_VEHICLE</text>
</g>
<!-- VEHICLE&#45;&gt;AIR_VEHICLE -->
<g id="edge4" class="edge">
<title>VEHICLE&#45;&gt;AIR_VEHICLE</title>
<path fill="none" stroke="#4169e1" d="M100,-215.8314C100,-208.131 100,-198.9743 100,-190.4166"/>
<polygon fill="#4169e1" stroke="#4169e1" points="103.5001,-190.4132 100,-180.4133 96.5001,-190.4133 103.5001,-190.4132"/>
</g>
<!-- AIR_VEHICLE&#45;&gt;AIRPLANE -->
<g id="edge5" class="edge">
<title>AIR_VEHICLE&#45;&gt;AIRPLANE</title>
<path fill="none" stroke="#4169e1" d="M85.6165,-143.8314C79.0514,-135.5386 71.1493,-125.557 63.9422,-116.4533"/>
<polygon fill="#4169e1" stroke="#4169e1" points="66.5284,-114.0813 57.5772,-108.4133 61.0401,-118.4262 66.5284,-114.0813"/>
</g>
<!-- AIR_VEHICLE&#45;&gt;HELICOPTER -->
<g id="edge6" class="edge">
<title>AIR_VEHICLE&#45;&gt;HELICOPTER</title>
<path fill="none" stroke="#4169e1" d="M114.3835,-143.8314C120.9486,-135.5386 128.8507,-125.557 136.0578,-116.4533"/>
<polygon fill="#4169e1" stroke="#4169e1" points="138.9599,-118.4262 142.4228,-108.4133 133.4716,-114.0813 138.9599,-118.4262"/>
</g>
</g>
</svg>
