<?xml version="1.0" encoding="UTF-8" standalone="no"?>
<!DOCTYPE svg PUBLIC "-//W3C//DTD SVG 1.1//EN"
 "http://www.w3.org/Graphics/SVG/1.1/DTD/svg11.dtd">
<!-- Generated by graphviz version 8.1.0 (20230707.2238)
 -->
<!-- Title: example Pages: 1 -->
<svg width="75pt" height="504pt"
 viewBox="0.00 0.00 75.18 504.00" xmlns="http://www.w3.org/2000/svg" xmlns:xlink="http://www.w3.org/1999/xlink">
<g id="graph0" class="graph" transform="scale(0.452873 0.452873) rotate(0) translate(4 1108.89)">
<title>example</title>
<polygon fill="none" stroke="none" points="-4,4 -4,-1108.89 162,-1108.89 162,4 -4,4"/>
<g id="clust1" class="cluster">
<title>cluster_1</title>
<polygon fill="none" stroke="black" stroke-dasharray="5,2" points="8,-707.23 8,-1096.89 150,-1096.89 150,-707.23 8,-707.23"/>
<text text-anchor="middle" x="79" y="-1079.59" font-family="sans" font-size="14.00">1</text>
</g>
<g id="clust2" class="cluster">
<title>cluster_2</title>
<polygon fill="none" stroke="black" stroke-dasharray="5,2" points="8,-405.67 8,-699.23 150,-699.23 150,-405.67 8,-405.67"/>
<text text-anchor="middle" x="79" y="-681.93" font-family="sans" font-size="14.00">2</text>
</g>
<g id="clust3" class="cluster">
<title>cluster_3</title>
<polygon fill="none" stroke="black" stroke-dasharray="5,2" points="8,-8 8,-397.67 150,-397.67 150,-8 8,-8"/>
<text text-anchor="middle" x="79" y="-380.37" font-family="sans" font-size="14.00">3</text>
</g>
<!-- 1/a -->
<g id="node1" class="node">
<title>1/a</title>
<ellipse fill="none" stroke="black" cx="115" cy="-1033.59" rx="27" ry="30.05"/>
<text text-anchor="middle" x="115" y="-1037.54" font-family="sans" font-size="14.00">a</text>
<text text-anchor="middle" x="115" y="-1020.29" font-family="sans" font-size="14.00">1</text>
</g>
<!-- 1/b -->
<g id="node2" class="node">
<title>1/b</title>
<ellipse fill="none" stroke="black" cx="79" cy="-937.49" rx="27" ry="30.05"/>
<text text-anchor="middle" x="79" y="-941.44" font-family="sans" font-size="14.00">b</text>
<text text-anchor="middle" x="79" y="-924.19" font-family="sans" font-size="14.00">1</text>
</g>
<!-- 1/a&#45;&gt;1/b -->
<g id="edge1" class="edge">
<title>1/a&#45;&gt;1/b</title>
<path fill="none" stroke="black" d="M104.59,-1005.37C101.04,-996.11 97.02,-985.59 93.23,-975.67"/>
<polygon fill="black" stroke="black" points="96.23,-974.74 89.39,-966.65 89.69,-977.24 96.23,-974.74"/>
</g>
<!-- 1/d -->
<g id="node3" class="node">
<title>1/d</title>
<ellipse fill="none" stroke="black" cx="43" cy="-841.38" rx="27" ry="30.05"/>
<text text-anchor="middle" x="43" y="-845.33" font-family="sans" font-size="14.00">d</text>
<text text-anchor="middle" x="43" y="-828.08" font-family="sans" font-size="14.00">1</text>
</g>
<!-- 1/b&#45;&gt;1/d -->
<g id="edge3" class="edge">
<title>1/b&#45;&gt;1/d</title>
<path fill="none" stroke="black" d="M68.59,-909.27C65.04,-900 61.02,-889.48 57.23,-879.57"/>
<polygon fill="black" stroke="black" points="60.23,-878.63 53.39,-870.54 53.69,-881.13 60.23,-878.63"/>
</g>
<!-- 1/f -->
<g id="node4" class="node">
<title>1/f</title>
<ellipse fill="none" stroke="black" cx="115" cy="-841.38" rx="27" ry="30.05"/>
<text text-anchor="middle" x="115" y="-845.33" font-family="sans" font-size="14.00">f</text>
<text text-anchor="middle" x="115" y="-828.08" font-family="sans" font-size="14.00">1</text>
</g>
<!-- 1/b&#45;&gt;1/f -->
<g id="edge2" class="edge">
<title>1/b&#45;&gt;1/f</title>
<path fill="none" stroke="black" d="M89.41,-909.27C92.96,-900 96.98,-889.48 100.77,-879.57"/>
<polygon fill="black" stroke="black" points="104.31,-881.13 104.61,-870.54 97.77,-878.63 104.31,-881.13"/>
</g>
<!-- 1/e -->
<g id="node6" class="node">
<title>1/e</title>
<ellipse fill="none" stroke="black" cx="43" cy="-745.28" rx="27" ry="30.05"/>
<text text-anchor="middle" x="43" y="-749.23" font-family="sans" font-size="14.00">e</text>
<text text-anchor="middle" x="43" y="-731.98" font-family="sans" font-size="14.00">1</text>
</g>
<!-- 1/d&#45;&gt;1/e -->
<g id="edge13" class="edge">
<title>1/d&#45;&gt;1/e</title>
<path fill="none" stroke="black" d="M43,-810.87C43,-803.16 43,-794.72 43,-786.56"/>
<polygon fill="black" stroke="black" points="46.5,-786.69 43,-776.69 39.5,-786.69 46.5,-786.69"/>
</g>
<!-- 2/c -->
<g id="node11" class="node">
<title>2/c</title>
<ellipse fill="none" stroke="black" cx="115" cy="-635.93" rx="27" ry="30.05"/>
<text text-anchor="middle" x="115" y="-639.88" font-family="sans" font-size="14.00">c</text>
<text text-anchor="middle" x="115" y="-622.63" font-family="sans" font-size="14.00">2</text>
</g>
<!-- 1/f&#45;&gt;2/c -->
<g id="edge17" class="edge">
<title>1/f&#45;&gt;2/c</title>
<path fill="none" stroke="black" d="M115,-811.23C115,-776.06 115,-716.72 115,-677.19"/>
<polygon fill="black" stroke="black" points="118.5,-677.35 115,-667.35 111.5,-677.35 118.5,-677.35"/>
</g>
<!-- 1/c -->
<g id="node5" class="node">
<title>1/c</title>
<ellipse fill="none" stroke="black" cx="43" cy="-1033.59" rx="27" ry="30.05"/>
<text text-anchor="middle" x="43" y="-1037.54" font-family="sans" font-size="14.00">c</text>
<text text-anchor="middle" x="43" y="-1020.29" font-family="sans" font-size="14.00">1</text>
</g>
<!-- 1/c&#45;&gt;1/b -->
<g id="edge4" class="edge">
<title>1/c&#45;&gt;1/b</title>
<path fill="none" stroke="black" d="M53.41,-1005.37C56.96,-996.11 60.98,-985.59 64.77,-975.67"/>
<polygon fill="black" stroke="black" points="68.31,-977.24 68.61,-966.65 61.77,-974.74 68.31,-977.24"/>
</g>
<!-- 2/a -->
<g id="node7" class="node">
<title>2/a</title>
<ellipse fill="none" stroke="black" cx="43" cy="-635.93" rx="27" ry="30.05"/>
<text text-anchor="middle" x="43" y="-639.88" font-family="sans" font-size="14.00">a</text>
<text text-anchor="middle" x="43" y="-622.63" font-family="sans" font-size="14.00">2</text>
</g>
<!-- 1/e&#45;&gt;2/a -->
<g id="edge14" class="edge">
<title>1/e&#45;&gt;2/a</title>
<path fill="none" stroke="black" d="M43,-714.95C43,-703.23 43,-689.55 43,-676.95"/>
<polygon fill="black" stroke="black" points="46.5,-677.23 43,-667.23 39.5,-677.23 46.5,-677.23"/>
</g>
<!-- 2/b -->
<g id="node8" class="node">
<title>2/b</title>
<ellipse fill="none" stroke="black" cx="43" cy="-539.82" rx="27" ry="30.05"/>
<text text-anchor="middle" x="43" y="-543.77" font-family="sans" font-size="14.00">b</text>
<text text-anchor="middle" x="43" y="-526.52" font-family="sans" font-size="14.00">2</text>
</g>
<!-- 2/a&#45;&gt;2/b -->
<g id="edge5" class="edge">
<title>2/a&#45;&gt;2/b</title>
<path fill="none" stroke="black" d="M43,-605.41C43,-597.7 43,-589.26 43,-581.1"/>
<polygon fill="black" stroke="black" points="46.5,-581.23 43,-571.23 39.5,-581.23 46.5,-581.23"/>
</g>
<!-- 2/d -->
<g id="node9" class="node">
<title>2/d</title>
<ellipse fill="none" stroke="black" cx="43" cy="-443.72" rx="27" ry="30.05"/>
<text text-anchor="middle" x="43" y="-447.67" font-family="sans" font-size="14.00">d</text>
<text text-anchor="middle" x="43" y="-430.42" font-family="sans" font-size="14.00">2</text>
</g>
<!-- 2/b&#45;&gt;2/d -->
<g id="edge7" class="edge">
<title>2/b&#45;&gt;2/d</title>
<path fill="none" stroke="black" d="M43,-509.31C43,-501.6 43,-493.16 43,-484.99"/>
<polygon fill="black" stroke="black" points="46.5,-485.13 43,-475.13 39.5,-485.13 46.5,-485.13"/>
</g>
<!-- 2/f -->
<g id="node10" class="node">
<title>2/f</title>
<ellipse fill="none" stroke="black" cx="115" cy="-443.72" rx="27" ry="30.05"/>
<text text-anchor="middle" x="115" y="-447.67" font-family="sans" font-size="14.00">f</text>
<text text-anchor="middle" x="115" y="-430.42" font-family="sans" font-size="14.00">2</text>
</g>
<!-- 2/b&#45;&gt;2/f -->
<g id="edge6" class="edge">
<title>2/b&#45;&gt;2/f</title>
<path fill="none" stroke="black" d="M60.06,-516.52C69.41,-504.3 81.14,-488.98 91.35,-475.62"/>
<polygon fill="black" stroke="black" points="94.51,-478.25 97.81,-468.19 88.95,-474 94.51,-478.25"/>
</g>
<!-- 3/a -->
<g id="node12" class="node">
<title>3/a</title>
<ellipse fill="none" stroke="black" cx="43" cy="-334.36" rx="27" ry="30.05"/>
<text text-anchor="middle" x="43" y="-338.31" font-family="sans" font-size="14.00">a</text>
<text text-anchor="middle" x="43" y="-321.06" font-family="sans" font-size="14.00">3</text>
</g>
<!-- 2/d&#45;&gt;3/a -->
<g id="edge16" class="edge">
<title>2/d&#45;&gt;3/a</title>
<path fill="none" stroke="black" d="M43,-413.38C43,-401.67 43,-387.99 43,-375.39"/>
<polygon fill="black" stroke="black" points="46.5,-375.66 43,-365.66 39.5,-375.66 46.5,-375.66"/>
</g>
<!-- 3/c -->
<g id="node16" class="node">
<title>3/c</title>
<ellipse fill="none" stroke="black" cx="115" cy="-334.36" rx="27" ry="30.05"/>
<text text-anchor="middle" x="115" y="-338.31" font-family="sans" font-size="14.00">c</text>
<text text-anchor="middle" x="115" y="-321.06" font-family="sans" font-size="14.00">3</text>
</g>
<!-- 2/f&#45;&gt;3/c -->
<g id="edge18" class="edge">
<title>2/f&#45;&gt;3/c</title>
<path fill="none" stroke="black" d="M115,-413.38C115,-401.67 115,-387.99 115,-375.39"/>
<polygon fill="black" stroke="black" points="118.5,-375.66 115,-365.66 111.5,-375.66 118.5,-375.66"/>
</g>
<!-- 2/c&#45;&gt;2/b -->
<g id="edge8" class="edge">
<title>2/c&#45;&gt;2/b</title>
<path fill="none" stroke="black" d="M97.94,-612.63C88.59,-600.41 76.86,-585.08 66.65,-571.73"/>
<polygon fill="black" stroke="black" points="69.05,-570.11 60.19,-564.29 63.49,-574.36 69.05,-570.11"/>
</g>
<!-- 3/b -->
<g id="node13" class="node">
<title>3/b</title>
<ellipse fill="none" stroke="black" cx="79" cy="-238.26" rx="27" ry="30.05"/>
<text text-anchor="middle" x="79" y="-242.21" font-family="sans" font-size="14.00">b</text>
<text text-anchor="middle" x="79" y="-224.96" font-family="sans" font-size="14.00">3</text>
</g>
<!-- 3/a&#45;&gt;3/b -->
<g id="edge9" class="edge">
<title>3/a&#45;&gt;3/b</title>
<path fill="none" stroke="black" d="M53.41,-306.15C56.96,-296.88 60.98,-286.36 64.77,-276.45"/>
<polygon fill="black" stroke="black" points="68.31,-278.01 68.61,-267.42 61.77,-275.51 68.31,-278.01"/>
</g>
<!-- 3/d -->
<g id="node14" class="node">
<title>3/d</title>
<ellipse fill="none" stroke="black" cx="43" cy="-142.16" rx="27" ry="30.05"/>
<text text-anchor="middle" x="43" y="-146.11" font-family="sans" font-size="14.00">d</text>
<text text-anchor="middle" x="43" y="-128.86" font-family="sans" font-size="14.00">3</text>
</g>
<!-- 3/b&#45;&gt;3/d -->
<g id="edge11" class="edge">
<title>3/b&#45;&gt;3/d</title>
<path fill="none" stroke="black" d="M68.59,-210.04C65.04,-200.78 61.02,-190.25 57.23,-180.34"/>
<polygon fill="black" stroke="black" points="60.23,-179.4 53.39,-171.31 53.69,-181.9 60.23,-179.4"/>
</g>
<!-- 3/f -->
<g id="node15" class="node">
<title>3/f</title>
<ellipse fill="none" stroke="black" cx="115" cy="-142.16" rx="27" ry="30.05"/>
<text text-anchor="middle" x="115" y="-146.11" font-family="sans" font-size="14.00">f</text>
<text text-anchor="middle" x="115" y="-128.86" font-family="sans" font-size="14.00">3</text>
</g>
<!-- 3/b&#45;&gt;3/f -->
<g id="edge10" class="edge">
<title>3/b&#45;&gt;3/f</title>
<path fill="none" stroke="black" d="M89.41,-210.04C92.96,-200.78 96.98,-190.25 100.77,-180.34"/>
<polygon fill="black" stroke="black" points="104.31,-181.9 104.61,-171.31 97.77,-179.4 104.31,-181.9"/>
</g>
<!-- 3/e -->
<g id="node17" class="node">
<title>3/e</title>
<ellipse fill="none" stroke="black" cx="43" cy="-46.05" rx="27" ry="30.05"/>
<text text-anchor="middle" x="43" y="-50" font-family="sans" font-size="14.00">e</text>
<text text-anchor="middle" x="43" y="-32.75" font-family="sans" font-size="14.00">3</text>
</g>
<!-- 3/d&#45;&gt;3/e -->
<g id="edge15" class="edge">
<title>3/d&#45;&gt;3/e</title>
<path fill="none" stroke="black" d="M43,-111.64C43,-103.93 43,-95.49 43,-87.33"/>
<polygon fill="black" stroke="black" points="46.5,-87.46 43,-77.46 39.5,-87.46 46.5,-87.46"/>
</g>
<!-- 3/c&#45;&gt;3/b -->
<g id="edge12" class="edge">
<title>3/c&#45;&gt;3/b</title>
<path fill="none" stroke="black" d="M104.59,-306.15C101.04,-296.88 97.02,-286.36 93.23,-276.45"/>
<polygon fill="black" stroke="black" points="96.23,-275.51 89.39,-267.42 89.69,-278.01 96.23,-275.51"/>
</g>
</g>
</svg>
