<?xml version="1.0" encoding="UTF-8" standalone="no"?>
<!DOCTYPE svg PUBLIC "-//W3C//DTD SVG 1.1//EN"
 "http://www.w3.org/Graphics/SVG/1.1/DTD/svg11.dtd">
<!-- Generated by graphviz version 2.43.0 (0)
 -->
<!-- Title: example Pages: 1 -->
<svg width="324pt" height="524pt"
 viewBox="0.00 0.00 324.00 524.43" xmlns="http://www.w3.org/2000/svg" xmlns:xlink="http://www.w3.org/1999/xlink">
<g id="graph0" class="graph" transform="scale(2.29 2.29) rotate(0) translate(4 1198.62)">
<title>example</title>
<polygon fill="transparent" stroke="transparent" points="-4,4 -4,-1198.62 739,-1198.62 739,4 -4,4"/>
<g id="clust1" class="cluster">
<title>cluster_1</title>
<polygon fill="transparent" stroke="black" stroke-dasharray="5,2" points="8,-821.66 8,-1186.62 356,-1186.62 356,-821.66 8,-821.66"/>
<text text-anchor="middle" x="182" y="-1171.42" font-family="sans" font-size="14.00">1</text>
</g>
<g id="clust2" class="cluster">
<title>cluster_2</title>
<polygon fill="transparent" stroke="black" stroke-dasharray="5,2" points="379,-549.44 379,-914.4 727,-914.4 727,-549.44 379,-549.44"/>
<text text-anchor="middle" x="553" y="-899.2" font-family="sans" font-size="14.00">2</text>
</g>
<g id="clust3" class="cluster">
<title>cluster_3</title>
<polygon fill="transparent" stroke="black" stroke-dasharray="5,2" points="23,-277.22 23,-642.18 371,-642.18 371,-277.22 23,-277.22"/>
<text text-anchor="middle" x="197" y="-626.98" font-family="sans" font-size="14.00">3</text>
</g>
<g id="clust4" class="cluster">
<title>cluster_4</title>
<polygon fill="transparent" stroke="black" stroke-dasharray="5,2" points="379,-8 379,-369.96 727,-369.96 727,-8 379,-8"/>
<text text-anchor="middle" x="553" y="-354.76" font-family="sans" font-size="14.00">4</text>
</g>
<!-- pur.1 -->
<g id="node1" class="node">
<title>pur.1</title>
<ellipse fill="none" stroke="black" cx="257" cy="-1128.75" rx="90.52" ry="26.74"/>
<text text-anchor="middle" x="257" y="-1132.55" font-family="sans" font-size="14.00">buy_ingredients</text>
<text text-anchor="middle" x="257" y="-1117.55" font-family="sans" font-size="14.00">1</text>
</g>
<!-- mak.1 -->
<g id="node2" class="node">
<title>mak.1</title>
<ellipse fill="none" stroke="black" cx="274" cy="-1039.01" rx="74.49" ry="26.74"/>
<text text-anchor="middle" x="274" y="-1042.81" font-family="sans" font-size="14.00">make_dough</text>
<text text-anchor="middle" x="274" y="-1027.81" font-family="sans" font-size="14.00">1</text>
</g>
<!-- pur.1&#45;&gt;mak.1 -->
<g id="edge1" class="edge">
<title>pur.1&#45;&gt;mak.1</title>
<path fill="none" stroke="black" d="M262.01,-1101.9C263.59,-1093.76 265.36,-1084.62 267.04,-1075.92"/>
<polygon fill="black" stroke="black" points="270.5,-1076.46 268.97,-1065.98 263.63,-1075.13 270.5,-1076.46"/>
</g>
<!-- bak.1 -->
<g id="node3" class="node">
<title>bak.1</title>
<ellipse fill="none" stroke="black" cx="204" cy="-949.27" rx="67.76" ry="26.74"/>
<text text-anchor="middle" x="204" y="-953.07" font-family="sans" font-size="14.00">bake_bread</text>
<text text-anchor="middle" x="204" y="-938.07" font-family="sans" font-size="14.00">1</text>
</g>
<!-- mak.1&#45;&gt;bak.1 -->
<g id="edge2" class="edge">
<title>mak.1&#45;&gt;bak.1</title>
<path fill="none" stroke="black" d="M254.13,-1013.1C246.74,-1003.84 238.24,-993.18 230.36,-983.31"/>
<polygon fill="black" stroke="black" points="232.89,-980.88 223.92,-975.24 227.42,-985.24 232.89,-980.88"/>
</g>
<!-- sel.1 -->
<g id="node4" class="node">
<title>sel.1</title>
<ellipse fill="none" stroke="black" cx="132" cy="-856.53" rx="60.62" ry="26.74"/>
<text text-anchor="middle" x="132" y="-860.33" font-family="sans" font-size="14.00">sell_bread</text>
<text text-anchor="middle" x="132" y="-845.33" font-family="sans" font-size="14.00">1</text>
</g>
<!-- bak.1&#45;&gt;sel.1 -->
<g id="edge3" class="edge">
<title>bak.1&#45;&gt;sel.1</title>
<path fill="none" stroke="black" d="M184.33,-923.48C176.23,-913.27 166.74,-901.31 158.08,-890.39"/>
<polygon fill="black" stroke="black" points="160.61,-887.95 151.65,-882.3 155.12,-892.31 160.61,-887.95"/>
</g>
<!-- cle.1 -->
<g id="node5" class="node">
<title>cle.1</title>
<ellipse fill="none" stroke="black" cx="281" cy="-856.53" rx="66.44" ry="26.74"/>
<text text-anchor="middle" x="281" y="-860.33" font-family="sans" font-size="14.00">clean_oven</text>
<text text-anchor="middle" x="281" y="-845.33" font-family="sans" font-size="14.00">1</text>
</g>
<!-- bak.1&#45;&gt;cle.1 -->
<g id="edge5" class="edge">
<title>bak.1&#45;&gt;cle.1</title>
<path fill="none" stroke="black" d="M225.04,-923.48C233.78,-913.17 244.05,-901.07 253.39,-890.07"/>
<polygon fill="black" stroke="black" points="256.18,-892.19 259.98,-882.3 250.85,-887.66 256.18,-892.19"/>
</g>
<!-- pur.3 -->
<g id="node13" class="node">
<title>pur.3</title>
<ellipse fill="none" stroke="black" cx="129" cy="-584.31" rx="90.52" ry="26.74"/>
<text text-anchor="middle" x="129" y="-588.11" font-family="sans" font-size="14.00">buy_ingredients</text>
<text text-anchor="middle" x="129" y="-573.11" font-family="sans" font-size="14.00">3</text>
</g>
<!-- sel.1&#45;&gt;pur.3 -->
<g id="edge7" class="edge">
<title>sel.1&#45;&gt;pur.3</title>
<path fill="none" stroke="black" d="M131.71,-829.62C131.18,-781.22 130.02,-676.98 129.4,-621.61"/>
<polygon fill="black" stroke="black" points="132.9,-621.5 129.29,-611.54 125.9,-621.58 132.9,-621.5"/>
</g>
<!-- pre.2 -->
<g id="node12" class="node">
<title>pre.2</title>
<ellipse fill="none" stroke="black" cx="470" cy="-766.79" rx="82.96" ry="26.74"/>
<text text-anchor="middle" x="470" y="-770.59" font-family="sans" font-size="14.00">pre_heat_oven</text>
<text text-anchor="middle" x="470" y="-755.59" font-family="sans" font-size="14.00">2</text>
</g>
<!-- cle.1&#45;&gt;pre.2 -->
<g id="edge6" class="edge">
<title>cle.1&#45;&gt;pre.2</title>
<path fill="none" stroke="black" d="M323.42,-835.84C350.32,-823.35 385.43,-807.05 414.53,-793.54"/>
<polygon fill="black" stroke="black" points="416.16,-796.64 423.76,-789.26 413.21,-790.3 416.16,-796.64"/>
</g>
<!-- pre.1 -->
<g id="node6" class="node">
<title>pre.1</title>
<ellipse fill="none" stroke="black" cx="99" cy="-1039.01" rx="82.96" ry="26.74"/>
<text text-anchor="middle" x="99" y="-1042.81" font-family="sans" font-size="14.00">pre_heat_oven</text>
<text text-anchor="middle" x="99" y="-1027.81" font-family="sans" font-size="14.00">1</text>
</g>
<!-- pre.1&#45;&gt;bak.1 -->
<g id="edge4" class="edge">
<title>pre.1&#45;&gt;bak.1</title>
<path fill="none" stroke="black" d="M127.97,-1013.8C140.34,-1003.47 154.9,-991.3 167.95,-980.39"/>
<polygon fill="black" stroke="black" points="170.42,-982.89 175.85,-973.79 165.93,-977.52 170.42,-982.89"/>
</g>
<!-- pur.2 -->
<g id="node7" class="node">
<title>pur.2</title>
<ellipse fill="none" stroke="black" cx="628" cy="-856.53" rx="90.52" ry="26.74"/>
<text text-anchor="middle" x="628" y="-860.33" font-family="sans" font-size="14.00">buy_ingredients</text>
<text text-anchor="middle" x="628" y="-845.33" font-family="sans" font-size="14.00">2</text>
</g>
<!-- mak.2 -->
<g id="node8" class="node">
<title>mak.2</title>
<ellipse fill="none" stroke="black" cx="645" cy="-766.79" rx="74.49" ry="26.74"/>
<text text-anchor="middle" x="645" y="-770.59" font-family="sans" font-size="14.00">make_dough</text>
<text text-anchor="middle" x="645" y="-755.59" font-family="sans" font-size="14.00">2</text>
</g>
<!-- pur.2&#45;&gt;mak.2 -->
<g id="edge8" class="edge">
<title>pur.2&#45;&gt;mak.2</title>
<path fill="none" stroke="black" d="M633.01,-829.68C634.59,-821.54 636.36,-812.4 638.04,-803.7"/>
<polygon fill="black" stroke="black" points="641.5,-804.24 639.97,-793.76 634.63,-802.91 641.5,-804.24"/>
</g>
<!-- bak.2 -->
<g id="node9" class="node">
<title>bak.2</title>
<ellipse fill="none" stroke="black" cx="539" cy="-677.05" rx="67.76" ry="26.74"/>
<text text-anchor="middle" x="539" y="-680.85" font-family="sans" font-size="14.00">bake_bread</text>
<text text-anchor="middle" x="539" y="-665.85" font-family="sans" font-size="14.00">2</text>
</g>
<!-- mak.2&#45;&gt;bak.2 -->
<g id="edge9" class="edge">
<title>mak.2&#45;&gt;bak.2</title>
<path fill="none" stroke="black" d="M616.04,-741.82C603.55,-731.48 588.8,-719.27 575.57,-708.32"/>
<polygon fill="black" stroke="black" points="577.5,-705.37 567.56,-701.69 573.03,-710.77 577.5,-705.37"/>
</g>
<!-- sel.2 -->
<g id="node10" class="node">
<title>sel.2</title>
<ellipse fill="none" stroke="black" cx="609" cy="-584.31" rx="60.62" ry="26.74"/>
<text text-anchor="middle" x="609" y="-588.11" font-family="sans" font-size="14.00">sell_bread</text>
<text text-anchor="middle" x="609" y="-573.11" font-family="sans" font-size="14.00">2</text>
</g>
<!-- bak.2&#45;&gt;sel.2 -->
<g id="edge10" class="edge">
<title>bak.2&#45;&gt;sel.2</title>
<path fill="none" stroke="black" d="M558.13,-651.26C566,-641.05 575.23,-629.09 583.65,-618.17"/>
<polygon fill="black" stroke="black" points="586.56,-620.13 589.9,-610.08 581.02,-615.86 586.56,-620.13"/>
</g>
<!-- cle.2 -->
<g id="node11" class="node">
<title>cle.2</title>
<ellipse fill="none" stroke="black" cx="460" cy="-584.31" rx="66.44" ry="26.74"/>
<text text-anchor="middle" x="460" y="-588.11" font-family="sans" font-size="14.00">clean_oven</text>
<text text-anchor="middle" x="460" y="-573.11" font-family="sans" font-size="14.00">2</text>
</g>
<!-- bak.2&#45;&gt;cle.2 -->
<g id="edge12" class="edge">
<title>bak.2&#45;&gt;cle.2</title>
<path fill="none" stroke="black" d="M517.41,-651.26C508.44,-640.95 497.91,-628.85 488.33,-617.85"/>
<polygon fill="black" stroke="black" points="490.77,-615.32 481.56,-610.08 485.49,-619.92 490.77,-615.32"/>
</g>
<!-- pur.4 -->
<g id="node19" class="node">
<title>pur.4</title>
<ellipse fill="none" stroke="black" cx="626" cy="-312.09" rx="90.52" ry="26.74"/>
<text text-anchor="middle" x="626" y="-315.89" font-family="sans" font-size="14.00">buy_ingredients</text>
<text text-anchor="middle" x="626" y="-300.89" font-family="sans" font-size="14.00">4</text>
</g>
<!-- sel.2&#45;&gt;pur.4 -->
<g id="edge14" class="edge">
<title>sel.2&#45;&gt;pur.4</title>
<path fill="none" stroke="black" d="M610.63,-557.4C613.67,-509 620.23,-404.76 623.72,-349.39"/>
<polygon fill="black" stroke="black" points="627.22,-349.52 624.35,-339.32 620.23,-349.08 627.22,-349.52"/>
</g>
<!-- pre.3 -->
<g id="node18" class="node">
<title>pre.3</title>
<ellipse fill="none" stroke="black" cx="280" cy="-494.57" rx="82.96" ry="26.74"/>
<text text-anchor="middle" x="280" y="-498.37" font-family="sans" font-size="14.00">pre_heat_oven</text>
<text text-anchor="middle" x="280" y="-483.37" font-family="sans" font-size="14.00">3</text>
</g>
<!-- cle.2&#45;&gt;pre.3 -->
<g id="edge13" class="edge">
<title>cle.2&#45;&gt;pre.3</title>
<path fill="none" stroke="black" d="M418.7,-563.18C393.43,-550.86 360.83,-534.97 333.58,-521.69"/>
<polygon fill="black" stroke="black" points="335.09,-518.53 324.57,-517.29 332.02,-524.82 335.09,-518.53"/>
</g>
<!-- pre.2&#45;&gt;bak.2 -->
<g id="edge11" class="edge">
<title>pre.2&#45;&gt;bak.2</title>
<path fill="none" stroke="black" d="M489.96,-740.41C497.17,-731.24 505.42,-720.75 513.08,-711.02"/>
<polygon fill="black" stroke="black" points="515.9,-713.09 519.33,-703.07 510.39,-708.77 515.9,-713.09"/>
</g>
<!-- mak.3 -->
<g id="node14" class="node">
<title>mak.3</title>
<ellipse fill="none" stroke="black" cx="105" cy="-494.57" rx="74.49" ry="26.74"/>
<text text-anchor="middle" x="105" y="-498.37" font-family="sans" font-size="14.00">make_dough</text>
<text text-anchor="middle" x="105" y="-483.37" font-family="sans" font-size="14.00">3</text>
</g>
<!-- pur.3&#45;&gt;mak.3 -->
<g id="edge15" class="edge">
<title>pur.3&#45;&gt;mak.3</title>
<path fill="none" stroke="black" d="M121.93,-557.46C119.68,-549.23 117.15,-539.98 114.74,-531.19"/>
<polygon fill="black" stroke="black" points="118.12,-530.26 112.1,-521.54 111.37,-532.11 118.12,-530.26"/>
</g>
<!-- bak.3 -->
<g id="node15" class="node">
<title>bak.3</title>
<ellipse fill="none" stroke="black" cx="216" cy="-404.83" rx="67.76" ry="26.74"/>
<text text-anchor="middle" x="216" y="-408.63" font-family="sans" font-size="14.00">bake_bread</text>
<text text-anchor="middle" x="216" y="-393.63" font-family="sans" font-size="14.00">3</text>
</g>
<!-- mak.3&#45;&gt;bak.3 -->
<g id="edge16" class="edge">
<title>mak.3&#45;&gt;bak.3</title>
<path fill="none" stroke="black" d="M135.04,-469.83C148.35,-459.31 164.15,-446.81 178.25,-435.67"/>
<polygon fill="black" stroke="black" points="180.65,-438.24 186.32,-429.29 176.31,-432.74 180.65,-438.24"/>
</g>
<!-- sel.3 -->
<g id="node16" class="node">
<title>sel.3</title>
<ellipse fill="none" stroke="black" cx="152" cy="-312.09" rx="60.62" ry="26.74"/>
<text text-anchor="middle" x="152" y="-315.89" font-family="sans" font-size="14.00">sell_bread</text>
<text text-anchor="middle" x="152" y="-300.89" font-family="sans" font-size="14.00">3</text>
</g>
<!-- bak.3&#45;&gt;sel.3 -->
<g id="edge17" class="edge">
<title>bak.3&#45;&gt;sel.3</title>
<path fill="none" stroke="black" d="M198.17,-378.55C191.11,-368.54 182.89,-356.89 175.36,-346.22"/>
<polygon fill="black" stroke="black" points="178.13,-344.07 169.51,-337.92 172.41,-348.11 178.13,-344.07"/>
</g>
<!-- cle.3 -->
<g id="node17" class="node">
<title>cle.3</title>
<ellipse fill="none" stroke="black" cx="297" cy="-312.09" rx="66.44" ry="26.74"/>
<text text-anchor="middle" x="297" y="-315.89" font-family="sans" font-size="14.00">clean_oven</text>
<text text-anchor="middle" x="297" y="-300.89" font-family="sans" font-size="14.00">3</text>
</g>
<!-- bak.3&#45;&gt;cle.3 -->
<g id="edge19" class="edge">
<title>bak.3&#45;&gt;cle.3</title>
<path fill="none" stroke="black" d="M238.13,-379.04C247.5,-368.55 258.52,-356.2 268.48,-345.04"/>
<polygon fill="black" stroke="black" points="271.13,-347.33 275.17,-337.54 265.9,-342.67 271.13,-347.33"/>
</g>
<!-- pre.4 -->
<g id="node24" class="node">
<title>pre.4</title>
<ellipse fill="none" stroke="black" cx="470" cy="-222.35" rx="82.96" ry="26.74"/>
<text text-anchor="middle" x="470" y="-226.15" font-family="sans" font-size="14.00">pre_heat_oven</text>
<text text-anchor="middle" x="470" y="-211.15" font-family="sans" font-size="14.00">4</text>
</g>
<!-- cle.3&#45;&gt;pre.4 -->
<g id="edge20" class="edge">
<title>cle.3&#45;&gt;pre.4</title>
<path fill="none" stroke="black" d="M337.56,-290.52C361.4,-278.43 391.79,-263.01 417.45,-250"/>
<polygon fill="black" stroke="black" points="419.33,-252.97 426.67,-245.33 416.17,-246.73 419.33,-252.97"/>
</g>
<!-- pre.3&#45;&gt;bak.3 -->
<g id="edge18" class="edge">
<title>pre.3&#45;&gt;bak.3</title>
<path fill="none" stroke="black" d="M261.49,-468.19C254.86,-459.11 247.3,-448.74 240.26,-439.09"/>
<polygon fill="black" stroke="black" points="242.97,-436.87 234.25,-430.85 237.31,-440.99 242.97,-436.87"/>
</g>
<!-- mak.4 -->
<g id="node20" class="node">
<title>mak.4</title>
<ellipse fill="none" stroke="black" cx="645" cy="-222.35" rx="74.49" ry="26.74"/>
<text text-anchor="middle" x="645" y="-226.15" font-family="sans" font-size="14.00">make_dough</text>
<text text-anchor="middle" x="645" y="-211.15" font-family="sans" font-size="14.00">4</text>
</g>
<!-- pur.4&#45;&gt;mak.4 -->
<g id="edge21" class="edge">
<title>pur.4&#45;&gt;mak.4</title>
<path fill="none" stroke="black" d="M631.6,-285.24C633.36,-277.1 635.34,-267.96 637.22,-259.26"/>
<polygon fill="black" stroke="black" points="640.68,-259.83 639.38,-249.32 633.84,-258.35 640.68,-259.83"/>
</g>
<!-- bak.4 -->
<g id="node21" class="node">
<title>bak.4</title>
<ellipse fill="none" stroke="black" cx="537" cy="-132.61" rx="67.76" ry="26.74"/>
<text text-anchor="middle" x="537" y="-136.41" font-family="sans" font-size="14.00">bake_bread</text>
<text text-anchor="middle" x="537" y="-121.41" font-family="sans" font-size="14.00">4</text>
</g>
<!-- mak.4&#45;&gt;bak.4 -->
<g id="edge22" class="edge">
<title>mak.4&#45;&gt;bak.4</title>
<path fill="none" stroke="black" d="M615.77,-197.61C602.82,-187.09 587.44,-174.59 573.73,-163.45"/>
<polygon fill="black" stroke="black" points="575.84,-160.66 565.88,-157.07 571.43,-166.09 575.84,-160.66"/>
</g>
<!-- sel.4 -->
<g id="node22" class="node">
<title>sel.4</title>
<ellipse fill="none" stroke="black" cx="459" cy="-42.87" rx="60.62" ry="26.74"/>
<text text-anchor="middle" x="459" y="-46.67" font-family="sans" font-size="14.00">sell_bread</text>
<text text-anchor="middle" x="459" y="-31.67" font-family="sans" font-size="14.00">4</text>
</g>
<!-- bak.4&#45;&gt;sel.4 -->
<g id="edge23" class="edge">
<title>bak.4&#45;&gt;sel.4</title>
<path fill="none" stroke="black" d="M514.86,-106.7C506.31,-97.09 496.44,-85.98 487.38,-75.8"/>
<polygon fill="black" stroke="black" points="489.92,-73.38 480.66,-68.23 484.69,-78.03 489.92,-73.38"/>
</g>
<!-- cle.4 -->
<g id="node23" class="node">
<title>cle.4</title>
<ellipse fill="none" stroke="black" cx="604" cy="-42.87" rx="66.44" ry="26.74"/>
<text text-anchor="middle" x="604" y="-46.67" font-family="sans" font-size="14.00">clean_oven</text>
<text text-anchor="middle" x="604" y="-31.67" font-family="sans" font-size="14.00">4</text>
</g>
<!-- bak.4&#45;&gt;cle.4 -->
<g id="edge25" class="edge">
<title>bak.4&#45;&gt;cle.4</title>
<path fill="none" stroke="black" d="M556.02,-106.7C563.09,-97.44 571.23,-86.78 578.77,-76.91"/>
<polygon fill="black" stroke="black" points="581.64,-78.91 584.93,-68.84 576.08,-74.66 581.64,-78.91"/>
</g>
<!-- pre.4&#45;&gt;bak.4 -->
<g id="edge24" class="edge">
<title>pre.4&#45;&gt;bak.4</title>
<path fill="none" stroke="black" d="M489.38,-195.97C496.31,-186.89 504.24,-176.51 511.6,-166.87"/>
<polygon fill="black" stroke="black" points="514.61,-168.7 517.9,-158.63 509.04,-164.45 514.61,-168.7"/>
</g>
</g>
</svg>
