<?xml version="1.0" encoding="UTF-8" standalone="no"?>
<!DOCTYPE svg PUBLIC "-//W3C//DTD SVG 1.1//EN"
 "http://www.w3.org/Graphics/SVG/1.1/DTD/svg11.dtd">
<!-- Generated by graphviz version 2.43.0 (0)
 -->
<!-- Title: Example Pages: 1 -->
<svg width="154pt" height="242pt"
 viewBox="0.00 0.00 154.00 242.00" xmlns="http://www.w3.org/2000/svg" xmlns:xlink="http://www.w3.org/1999/xlink">
<g id="graph0" class="graph" transform="scale(1 1) rotate(0) translate(4 238)">
<title>Example</title>
<polygon fill="transparent" stroke="transparent" points="-4,4 -4,-238 150,-238 150,4 -4,4"/>
<g id="clust1" class="cluster">
<title>cluster_1</title>
<polygon fill="transparent" stroke="orange" stroke-dasharray="5,2" points="8,-8 8,-98 82,-98 82,-8 8,-8"/>
<text text-anchor="middle" x="45" y="-30.8" font-family="sans" font-size="14.00" fill="orange">Faulty</text>
<text text-anchor="middle" x="45" y="-15.8" font-family="sans" font-size="14.00" fill="orange">Task</text>
</g>
<!-- pub -->
<g id="node1" class="node">
<title>pub</title>
<ellipse fill="none" stroke="black" cx="45" cy="-72" rx="28.7" ry="18"/>
<text text-anchor="middle" x="45" y="-68.3" font-family="sans" font-size="14.00">pub</text>
</g>
<!-- foo -->
<g id="node2" class="node">
<title>foo</title>
<ellipse fill="none" stroke="black" cx="82" cy="-216" rx="27" ry="18"/>
<text text-anchor="middle" x="82" y="-212.3" font-family="sans" font-size="14.00">foo</text>
</g>
<!-- bar -->
<g id="node3" class="node">
<title>bar</title>
<ellipse fill="none" stroke="black" cx="82" cy="-144" rx="27" ry="18"/>
<text text-anchor="middle" x="82" y="-140.3" font-family="sans" font-size="14.00">bar</text>
</g>
<!-- foo&#45;&gt;bar -->
<g id="edge1" class="edge">
<title>foo&#45;&gt;bar</title>
<path fill="none" stroke="black" d="M82,-197.7C82,-189.98 82,-180.71 82,-172.11"/>
<polygon fill="black" stroke="black" points="85.5,-172.1 82,-162.1 78.5,-172.1 85.5,-172.1"/>
</g>
<!-- bar&#45;&gt;pub -->
<g id="edge3" class="edge">
<title>bar&#45;&gt;pub</title>
<path fill="none" stroke="black" d="M73.42,-126.76C69,-118.4 63.51,-108.02 58.53,-98.61"/>
<polygon fill="black" stroke="black" points="61.56,-96.84 53.79,-89.63 55.37,-100.11 61.56,-96.84"/>
</g>
<!-- baz -->
<g id="node4" class="node">
<title>baz</title>
<ellipse fill="none" stroke="black" cx="119" cy="-72" rx="27" ry="18"/>
<text text-anchor="middle" x="119" y="-68.3" font-family="sans" font-size="14.00">baz</text>
</g>
<!-- bar&#45;&gt;baz -->
<g id="edge2" class="edge">
<title>bar&#45;&gt;baz</title>
<path fill="none" stroke="black" d="M90.58,-126.76C95.06,-118.28 100.65,-107.71 105.68,-98.2"/>
<polygon fill="black" stroke="black" points="108.89,-99.62 110.46,-89.15 102.7,-96.35 108.89,-99.62"/>
</g>
</g>
</svg>
