<?xml version="1.0" encoding="UTF-8" standalone="no"?>
<!DOCTYPE svg PUBLIC "-//W3C//DTD SVG 1.1//EN"
 "http://www.w3.org/Graphics/SVG/1.1/DTD/svg11.dtd">
<!-- Generated by graphviz version 2.43.0 (0)
 -->
<!-- Title: example Pages: 1 -->
<svg width="504pt" height="98pt"
 viewBox="0.00 0.00 504.00 97.77" xmlns="http://www.w3.org/2000/svg" xmlns:xlink="http://www.w3.org/1999/xlink">
<g id="graph0" class="graph" transform="scale(1.92 1.92) rotate(0) translate(4 184)">
<title>example</title>
<polygon fill="transparent" stroke="transparent" points="-4,4 -4,-184 965.18,-184 965.18,4 -4,4"/>
<!-- get_observations_belmullet -->
<g id="node1" class="node">
<title>get_observations_belmullet</title>
<ellipse fill="none" stroke="black" cx="133.89" cy="-162" rx="133.78" ry="18"/>
<text text-anchor="middle" x="133.89" y="-158.3" font-family="sans" font-size="14.00">get_observations_belmullet</text>
</g>
<!-- consolidate_observations -->
<g id="node2" class="node">
<title>consolidate_observations</title>
<ellipse fill="none" stroke="black" cx="384.89" cy="-18" rx="124.28" ry="18"/>
<text text-anchor="middle" x="384.89" y="-14.3" font-family="sans" font-size="14.00">consolidate_observations</text>
</g>
<!-- get_observations_belmullet&#45;&gt;consolidate_observations -->
<g id="edge1" class="edge">
<title>get_observations_belmullet&#45;&gt;consolidate_observations</title>
<path fill="none" stroke="black" d="M156.07,-143.9C181.31,-124.91 224.19,-94.03 263.89,-72 286.07,-59.69 311.68,-48.12 333.61,-38.95"/>
<polygon fill="black" stroke="black" points="335.17,-42.1 343.08,-35.05 332.5,-35.62 335.17,-42.1"/>
</g>
<!-- hidden -->
<!-- get_observations_belmullet&#45;&gt;hidden -->
<!-- get_observations_camborne -->
<g id="node3" class="node">
<title>get_observations_camborne</title>
<ellipse fill="none" stroke="black" cx="422.89" cy="-162" rx="137.28" ry="18"/>
<text text-anchor="middle" x="422.89" y="-158.3" font-family="sans" font-size="14.00">get_observations_camborne</text>
</g>
<!-- get_observations_camborne&#45;&gt;consolidate_observations -->
<g id="edge2" class="edge">
<title>get_observations_camborne&#45;&gt;consolidate_observations</title>
<path fill="none" stroke="black" d="M416.14,-144C412.21,-133.7 407.37,-120.22 403.89,-108 398.09,-87.61 393.15,-64.15 389.76,-46.44"/>
<polygon fill="black" stroke="black" points="393.13,-45.42 387.86,-36.23 386.25,-46.7 393.13,-45.42"/>
</g>
<!-- get_observations_camborne&#45;&gt;hidden -->
<!-- get_observations_heathrow -->
<g id="node4" class="node">
<title>get_observations_heathrow</title>
<ellipse fill="none" stroke="black" cx="546.89" cy="-90" rx="133.78" ry="18"/>
<text text-anchor="middle" x="546.89" y="-86.3" font-family="sans" font-size="14.00">get_observations_heathrow</text>
</g>
<!-- get_observations_heathrow&#45;&gt;consolidate_observations -->
<g id="edge3" class="edge">
<title>get_observations_heathrow&#45;&gt;consolidate_observations</title>
<path fill="none" stroke="black" d="M508.91,-72.59C485.87,-62.63 456.3,-49.86 431.81,-39.27"/>
<polygon fill="black" stroke="black" points="432.92,-35.94 422.35,-35.19 430.14,-42.37 432.92,-35.94"/>
</g>
<!-- get_observations_shetland -->
<g id="node5" class="node">
<title>get_observations_shetland</title>
<ellipse fill="none" stroke="black" cx="829.89" cy="-90" rx="131.08" ry="18"/>
<text text-anchor="middle" x="829.89" y="-86.3" font-family="sans" font-size="14.00">get_observations_shetland</text>
</g>
<!-- get_observations_shetland&#45;&gt;consolidate_observations -->
<g id="edge4" class="edge">
<title>get_observations_shetland&#45;&gt;consolidate_observations</title>
<path fill="none" stroke="black" d="M747.23,-76C670.1,-63.86 555.26,-45.8 475.62,-33.27"/>
<polygon fill="black" stroke="black" points="476.03,-29.79 465.6,-31.7 474.94,-36.71 476.03,-29.79"/>
</g>
<!-- hidden&#45;&gt;consolidate_observations -->
</g>
</svg>
