<?xml version="1.0" encoding="UTF-8" standalone="no"?>
<!DOCTYPE svg PUBLIC "-//W3C//DTD SVG 1.1//EN"
 "http://www.w3.org/Graphics/SVG/1.1/DTD/svg11.dtd">
<!-- Generated by graphviz version 14.1.2 (20260126.1125)
 -->
<!-- Title: Example Pages: 1 -->
<svg width="137pt" height="223pt"
 viewBox="0.00 0.00 137.00 223.00" xmlns="http://www.w3.org/2000/svg" xmlns:xlink="http://www.w3.org/1999/xlink">
<g id="graph0" class="graph" transform="scale(1 1) rotate(0) translate(4 218.5)">
<title>Example</title>
<polygon fill="none" stroke="none" points="-4,4 -4,-218.5 133,-218.5 133,4 -4,4"/>
<!-- a -->
<g id="node1" class="node">
<title>a</title>
<ellipse fill="none" stroke="black" cx="27" cy="-196.5" rx="27" ry="18"/>
<text xml:space="preserve" text-anchor="middle" x="27" y="-191.82" font-family="sans" font-size="14.00">a</text>
</g>
<!-- b -->
<g id="node2" class="node">
<title>b</title>
<ellipse fill="none" stroke="black" cx="27" cy="-107.25" rx="27" ry="18"/>
<text xml:space="preserve" text-anchor="middle" x="27" y="-102.58" font-family="sans" font-size="14.00">b</text>
</g>
<!-- a&#45;&gt;b -->
<g id="edge1" class="edge">
<title>a&#45;&gt;b</title>
<path fill="none" stroke="black" d="M27,-178.26C27,-166.43 27,-150.45 27,-136.75"/>
<polygon fill="black" stroke="black" points="30.5,-136.97 27,-126.97 23.5,-136.97 30.5,-136.97"/>
<text xml:space="preserve" text-anchor="middle" x="77.62" y="-147.2" font-family="Times,serif" font-size="14.00" fill="green">if a:succeeded</text>
</g>
<!-- c -->
<g id="node3" class="node">
<title>c</title>
<ellipse fill="none" stroke="black" cx="27" cy="-18" rx="27" ry="18"/>
<text xml:space="preserve" text-anchor="middle" x="27" y="-13.32" font-family="sans" font-size="14.00">c</text>
</g>
<!-- b&#45;&gt;c -->
<g id="edge2" class="edge">
<title>b&#45;&gt;c</title>
<path fill="none" stroke="black" d="M27,-89.01C27,-77.18 27,-61.2 27,-47.5"/>
<polygon fill="black" stroke="black" points="30.5,-47.72 27,-37.72 23.5,-47.72 30.5,-47.72"/>
<text xml:space="preserve" text-anchor="middle" x="78" y="-57.95" font-family="Times,serif" font-size="14.00" fill="green">if b:succeeded</text>
</g>
</g>
</svg>
