<?xml version="1.0" encoding="UTF-8" standalone="no"?>
<!DOCTYPE svg PUBLIC "-//W3C//DTD SVG 1.1//EN"
 "http://www.w3.org/Graphics/SVG/1.1/DTD/svg11.dtd">
<!-- Generated by graphviz version 2.40.1 (20161225.0304)
 -->
<!-- Title: Example Pages: 1 -->
<svg width="320pt" height="598pt"
 viewBox="0.00 0.00 320.00 598.44" xmlns="http://www.w3.org/2000/svg" xmlns:xlink="http://www.w3.org/1999/xlink">
<g id="graph0" class="graph" transform="scale(1 1) rotate(0) translate(4 594.4407)">
<title>Example</title>
<polygon fill="transparent" stroke="transparent" points="-4,4 -4,-594.4407 316,-594.4407 316,4 -4,4"/>
<g id="clust1" class="cluster">
<title>cluster_1</title>
<polygon fill="transparent" stroke="#000000" stroke-dasharray="5,2" points="20,-299.2203 20,-582.4407 304,-582.4407 304,-299.2203 20,-299.2203"/>
<text text-anchor="middle" x="162" y="-567.2407" font-family="sans" font-size="14.00" fill="#000000">1</text>
</g>
<g id="clust2" class="cluster">
<title>cluster_a</title>
<polygon fill="transparent" stroke="#ff0000" stroke-dasharray="5,2" points="166,-307.2203 166,-399.9605 296,-399.9605 296,-307.2203 166,-307.2203"/>
<text text-anchor="middle" x="231" y="-384.7605" font-family="sans" font-size="14.00" fill="#ff0000">:fail</text>
</g>
<g id="clust3" class="cluster">
<title>cluster_b</title>
<polygon fill="transparent" stroke="#00ff00" stroke-dasharray="5,2" points="28,-307.2203 28,-399.9605 158,-399.9605 158,-307.2203 28,-307.2203"/>
<text text-anchor="middle" x="93" y="-384.7605" font-family="sans" font-size="14.00" fill="#00ff00">:success</text>
</g>
<g id="clust4" class="cluster">
<title>cluster_2</title>
<polygon fill="transparent" stroke="#000000" stroke-dasharray="5,2" points="8,-8 8,-291.2203 292,-291.2203 292,-8 8,-8"/>
<text text-anchor="middle" x="150" y="-276.0203" font-family="sans" font-size="14.00" fill="#000000">2</text>
</g>
<g id="clust5" class="cluster">
<title>cluster_c</title>
<polygon fill="transparent" stroke="#ff0000" stroke-dasharray="5,2" points="154,-16 154,-108.7401 284,-108.7401 284,-16 154,-16"/>
<text text-anchor="middle" x="219" y="-93.5401" font-family="sans" font-size="14.00" fill="#ff0000">:fail</text>
</g>
<g id="clust6" class="cluster">
<title>cluster_d</title>
<polygon fill="transparent" stroke="#00ff00" stroke-dasharray="5,2" points="16,-16 16,-108.7401 146,-108.7401 146,-16 16,-16"/>
<text text-anchor="middle" x="81" y="-93.5401" font-family="sans" font-size="14.00" fill="#00ff00">:success</text>
</g>
<!-- make_cake_mixture.1 -->
<g id="node1" class="node">
<title>make_cake_mixture.1</title>
<ellipse fill="none" stroke="#000000" cx="162" cy="-524.5706" rx="113.2743" ry="26.7407"/>
<text text-anchor="middle" x="162" y="-528.3706" font-family="sans" font-size="14.00" fill="#000000">make_cake_mixture</text>
<text text-anchor="middle" x="162" y="-513.3706" font-family="sans" font-size="14.00" fill="#000000">1</text>
</g>
<!-- bake_cake.1 -->
<g id="node2" class="node">
<title>bake_cake.1</title>
<ellipse fill="none" stroke="#000000" cx="162" cy="-434.8305" rx="65.1077" ry="26.7407"/>
<text text-anchor="middle" x="162" y="-438.6305" font-family="sans" font-size="14.00" fill="#000000">bake_cake</text>
<text text-anchor="middle" x="162" y="-423.6305" font-family="sans" font-size="14.00" fill="#000000">1</text>
</g>
<!-- make_cake_mixture.1&#45;&gt;bake_cake.1 -->
<g id="edge1" class="edge">
<title>make_cake_mixture.1&#45;&gt;bake_cake.1</title>
<path fill="none" stroke="#000000" d="M162,-497.6456C162,-489.5707 162,-480.5674 162,-471.9565"/>
<polygon fill="#000000" stroke="#000000" points="165.5001,-471.7365 162,-461.7365 158.5001,-471.7365 165.5001,-471.7365"/>
</g>
<!-- sell_cake.1 -->
<g id="node3" class="node">
<title>sell_cake.1</title>
<ellipse fill="none" stroke="#00ff00" cx="93" cy="-342.0904" rx="57.0522" ry="26.7407"/>
<text text-anchor="middle" x="93" y="-345.8904" font-family="sans" font-size="14.00" fill="#00ff00">sell_cake</text>
<text text-anchor="middle" x="93" y="-330.8904" font-family="sans" font-size="14.00" fill="#00ff00">1</text>
</g>
<!-- bake_cake.1&#45;&gt;sell_cake.1 -->
<g id="edge2" class="edge">
<title>bake_cake.1&#45;&gt;sell_cake.1</title>
<path fill="none" stroke="#000000" stroke-dasharray="5,2" d="M142.7797,-408.9972C134.7129,-398.155 125.2494,-385.4355 116.7522,-374.0148"/>
<ellipse fill="#000000" stroke="#000000" cx="114.2665" cy="-370.6738" rx="4" ry="4"/>
</g>
<!-- eat_cake.1 -->
<g id="node4" class="node">
<title>eat_cake.1</title>
<ellipse fill="none" stroke="#ff0000" cx="231" cy="-342.0904" rx="56.6372" ry="26.7407"/>
<text text-anchor="middle" x="231" y="-345.8904" font-family="sans" font-size="14.00" fill="#ff0000">eat_cake</text>
<text text-anchor="middle" x="231" y="-330.8904" font-family="sans" font-size="14.00" fill="#ff0000">1</text>
</g>
<!-- bake_cake.1&#45;&gt;eat_cake.1 -->
<g id="edge3" class="edge">
<title>bake_cake.1&#45;&gt;eat_cake.1</title>
<path fill="none" stroke="#000000" stroke-dasharray="5,2" d="M186.9454,-409.4889C195.5202,-398.9187 204.8968,-386.499 212.8503,-375.2201"/>
<ellipse fill="#000000" stroke="#000000" cx="215.3195" cy="-371.6587" rx="4" ry="4"/>
</g>
<!-- make_cake_mixture.2 -->
<g id="node5" class="node">
<title>make_cake_mixture.2</title>
<ellipse fill="none" stroke="#000000" cx="150" cy="-233.3503" rx="113.2743" ry="26.7407"/>
<text text-anchor="middle" x="150" y="-237.1503" font-family="sans" font-size="14.00" fill="#000000">make_cake_mixture</text>
<text text-anchor="middle" x="150" y="-222.1503" font-family="sans" font-size="14.00" fill="#000000">2</text>
</g>
<!-- sell_cake.1&#45;&gt;make_cake_mixture.2 -->
<g id="edge10" class="edge">
<title>sell_cake.1&#45;&gt;make_cake_mixture.2</title>
<path fill="none" stroke="#000000" d="M106.7981,-315.7675C114.1105,-301.8175 123.201,-284.4754 131.1541,-269.303"/>
<polygon fill="none" stroke="#000000" points="134.3902,-270.6682 135.933,-260.1863 128.1903,-267.4183 134.3902,-270.6682"/>
</g>
<!-- eat_cake.1&#45;&gt;bake_cake.1 -->
<g id="edge4" class="edge">
<title>eat_cake.1&#45;&gt;bake_cake.1</title>
<path fill="none" stroke="#000000" stroke-dasharray="5,2" d="M206.752,-366.5743C197.9584,-377.3656 188.2485,-390.2091 180.06,-401.8281"/>
<ellipse fill="#000000" stroke="#000000" cx="177.7118" cy="-405.2156" rx="4" ry="4"/>
</g>
<!-- eat_cake.1&#45;&gt;make_cake_mixture.2 -->
<g id="edge9" class="edge">
<title>eat_cake.1&#45;&gt;make_cake_mixture.2</title>
<path fill="none" stroke="#000000" d="M212.0091,-316.5957C201.2777,-302.189 187.7079,-283.972 176.0004,-268.2551"/>
<polygon fill="none" stroke="#000000" points="178.4984,-265.7495 169.7177,-259.8207 172.8847,-269.9312 178.4984,-265.7495"/>
</g>
<!-- bake_cake.2 -->
<g id="node6" class="node">
<title>bake_cake.2</title>
<ellipse fill="none" stroke="#000000" cx="150" cy="-143.6102" rx="65.1077" ry="26.7407"/>
<text text-anchor="middle" x="150" y="-147.4102" font-family="sans" font-size="14.00" fill="#000000">bake_cake</text>
<text text-anchor="middle" x="150" y="-132.4102" font-family="sans" font-size="14.00" fill="#000000">2</text>
</g>
<!-- make_cake_mixture.2&#45;&gt;bake_cake.2 -->
<g id="edge5" class="edge">
<title>make_cake_mixture.2&#45;&gt;bake_cake.2</title>
<path fill="none" stroke="#000000" d="M150,-206.4253C150,-198.3504 150,-189.3471 150,-180.7362"/>
<polygon fill="#000000" stroke="#000000" points="153.5001,-180.5161 150,-170.5162 146.5001,-180.5162 153.5001,-180.5161"/>
</g>
<!-- sell_cake.2 -->
<g id="node7" class="node">
<title>sell_cake.2</title>
<ellipse fill="none" stroke="#00ff00" cx="81" cy="-50.8701" rx="57.0522" ry="26.7407"/>
<text text-anchor="middle" x="81" y="-54.6701" font-family="sans" font-size="14.00" fill="#00ff00">sell_cake</text>
<text text-anchor="middle" x="81" y="-39.6701" font-family="sans" font-size="14.00" fill="#00ff00">2</text>
</g>
<!-- bake_cake.2&#45;&gt;sell_cake.2 -->
<g id="edge6" class="edge">
<title>bake_cake.2&#45;&gt;sell_cake.2</title>
<path fill="none" stroke="#000000" stroke-dasharray="5,2" d="M130.7797,-117.7769C122.7129,-106.9346 113.2494,-94.2151 104.7522,-82.7945"/>
<ellipse fill="#000000" stroke="#000000" cx="102.2665" cy="-79.4535" rx="4" ry="4"/>
</g>
<!-- eat_cake.2 -->
<g id="node8" class="node">
<title>eat_cake.2</title>
<ellipse fill="none" stroke="#ff0000" cx="219" cy="-50.8701" rx="56.6372" ry="26.7407"/>
<text text-anchor="middle" x="219" y="-54.6701" font-family="sans" font-size="14.00" fill="#ff0000">eat_cake</text>
<text text-anchor="middle" x="219" y="-39.6701" font-family="sans" font-size="14.00" fill="#ff0000">2</text>
</g>
<!-- bake_cake.2&#45;&gt;eat_cake.2 -->
<g id="edge7" class="edge">
<title>bake_cake.2&#45;&gt;eat_cake.2</title>
<path fill="none" stroke="#000000" stroke-dasharray="5,2" d="M174.9454,-118.2685C183.5202,-107.6984 192.8968,-95.2787 200.8503,-83.9997"/>
<ellipse fill="#000000" stroke="#000000" cx="203.3195" cy="-80.4383" rx="4" ry="4"/>
</g>
<!-- eat_cake.2&#45;&gt;bake_cake.2 -->
<g id="edge8" class="edge">
<title>eat_cake.2&#45;&gt;bake_cake.2</title>
<path fill="none" stroke="#000000" stroke-dasharray="5,2" d="M194.752,-75.3539C185.9584,-86.1453 176.2485,-98.9887 168.06,-110.6078"/>
<ellipse fill="#000000" stroke="#000000" cx="165.7118" cy="-113.9952" rx="4" ry="4"/>
</g>
</g>
</svg>
