<?xml version="1.0" encoding="UTF-8" standalone="no"?>
<!DOCTYPE svg PUBLIC "-//W3C//DTD SVG 1.1//EN"
 "http://www.w3.org/Graphics/SVG/1.1/DTD/svg11.dtd">
<!-- Generated by graphviz version 2.40.1 (20161225.0304)
 -->
<!-- Title: Mini_Cylc Pages: 1 -->
<svg width="365pt" height="116pt"
 viewBox="0.00 0.00 364.59 116.00" xmlns="http://www.w3.org/2000/svg" xmlns:xlink="http://www.w3.org/1999/xlink">
<g id="graph0" class="graph" transform="scale(1 1) rotate(0) translate(4 112)">
<title>Mini_Cylc</title>
<polygon fill="transparent" stroke="transparent" points="-4,4 -4,-112 360.5905,-112 360.5905,4 -4,4"/>
<!-- baz_foo2 -->
<g id="node1" class="node">
<title>baz_foo2</title>
<ellipse fill="none" stroke="#000000" cx="53.2953" cy="-18" rx="53.0913" ry="18"/>
<text text-anchor="middle" x="53.2953" y="-14.3" font-family="sans" font-size="14.00" fill="#000000">baz_foo2</text>
</g>
<!-- bar_foo2 -->
<g id="node2" class="node">
<title>bar_foo2</title>
<ellipse fill="none" stroke="#000000" cx="53.2953" cy="-90" rx="51.9908" ry="18"/>
<text text-anchor="middle" x="53.2953" y="-86.3" font-family="sans" font-size="14.00" fill="#000000">bar_foo2</text>
</g>
<!-- bar_foo2&#45;&gt;baz_foo2 -->
<g id="edge1" class="edge">
<title>bar_foo2&#45;&gt;baz_foo2</title>
<path fill="none" stroke="#000000" d="M53.2953,-71.8314C53.2953,-64.131 53.2953,-54.9743 53.2953,-46.4166"/>
<polygon fill="#000000" stroke="#000000" points="56.7954,-46.4132 53.2953,-36.4133 49.7954,-46.4133 56.7954,-46.4132"/>
</g>
<!-- baz_foo3 -->
<g id="node3" class="node">
<title>baz_foo3</title>
<ellipse fill="none" stroke="#000000" cx="178.2953" cy="-18" rx="53.0913" ry="18"/>
<text text-anchor="middle" x="178.2953" y="-14.3" font-family="sans" font-size="14.00" fill="#000000">baz_foo3</text>
</g>
<!-- baz_foo1 -->
<g id="node4" class="node">
<title>baz_foo1</title>
<ellipse fill="none" stroke="#000000" cx="303.2953" cy="-18" rx="53.0913" ry="18"/>
<text text-anchor="middle" x="303.2953" y="-14.3" font-family="sans" font-size="14.00" fill="#000000">baz_foo1</text>
</g>
<!-- bar_foo3 -->
<g id="node5" class="node">
<title>bar_foo3</title>
<ellipse fill="none" stroke="#000000" cx="178.2953" cy="-90" rx="51.9908" ry="18"/>
<text text-anchor="middle" x="178.2953" y="-86.3" font-family="sans" font-size="14.00" fill="#000000">bar_foo3</text>
</g>
<!-- bar_foo3&#45;&gt;baz_foo3 -->
<g id="edge2" class="edge">
<title>bar_foo3&#45;&gt;baz_foo3</title>
<path fill="none" stroke="#000000" d="M178.2953,-71.8314C178.2953,-64.131 178.2953,-54.9743 178.2953,-46.4166"/>
<polygon fill="#000000" stroke="#000000" points="181.7954,-46.4132 178.2953,-36.4133 174.7954,-46.4133 181.7954,-46.4132"/>
</g>
<!-- bar_foo1 -->
<g id="node6" class="node">
<title>bar_foo1</title>
<ellipse fill="none" stroke="#000000" cx="303.2953" cy="-90" rx="51.9908" ry="18"/>
<text text-anchor="middle" x="303.2953" y="-86.3" font-family="sans" font-size="14.00" fill="#000000">bar_foo1</text>
</g>
<!-- bar_foo1&#45;&gt;baz_foo1 -->
<g id="edge3" class="edge">
<title>bar_foo1&#45;&gt;baz_foo1</title>
<path fill="none" stroke="#000000" d="M303.2953,-71.8314C303.2953,-64.131 303.2953,-54.9743 303.2953,-46.4166"/>
<polygon fill="#000000" stroke="#000000" points="306.7954,-46.4132 303.2953,-36.4133 299.7954,-46.4133 306.7954,-46.4132"/>
</g>
</g>
</svg>
