<?xml version="1.0" encoding="UTF-8" standalone="no"?>
<!DOCTYPE svg PUBLIC "-//W3C//DTD SVG 1.1//EN"
 "http://www.w3.org/Graphics/SVG/1.1/DTD/svg11.dtd">
<!-- Generated by graphviz version 2.40.1 (20161225.0304)
 -->
<!-- Title: Example Pages: 1 -->
<svg width="244pt" height="335pt"
 viewBox="0.00 0.00 244.00 335.00" xmlns="http://www.w3.org/2000/svg" xmlns:xlink="http://www.w3.org/1999/xlink">
<g id="graph0" class="graph" transform="scale(1 1) rotate(0) translate(4 331)">
<title>Example</title>
<polygon fill="transparent" stroke="transparent" points="-4,4 -4,-331 240,-331 240,4 -4,4"/>
<g id="clust1" class="cluster">
<title>cluster_1</title>
<polygon fill="transparent" stroke="#00ff00" stroke-dasharray="5,2" points="8,-64 8,-211 150,-211 150,-64 8,-64"/>
<text text-anchor="middle" x="79" y="-195.8" font-family="sans" font-size="14.00" fill="#00ff00">:success</text>
</g>
<g id="clust2" class="cluster">
<title>cluster_2</title>
<polygon fill="transparent" stroke="#ff0000" stroke-dasharray="5,2" points="158,-64 158,-211 228,-211 228,-64 158,-64"/>
<text text-anchor="middle" x="193" y="-195.8" font-family="sans" font-size="14.00" fill="#ff0000">:fail</text>
</g>
<!-- foo -->
<g id="node1" class="node">
<title>foo</title>
<ellipse fill="none" stroke="#000000" cx="115" cy="-309" rx="27" ry="18"/>
<text text-anchor="middle" x="115" y="-305.3" font-family="sans" font-size="14.00" fill="#000000">foo</text>
</g>
<!-- bar -->
<g id="node2" class="node">
<title>bar</title>
<ellipse fill="none" stroke="#000000" cx="115" cy="-237" rx="27" ry="18"/>
<text text-anchor="middle" x="115" y="-233.3" font-family="sans" font-size="14.00" fill="#000000">bar</text>
</g>
<!-- foo&#45;&gt;bar -->
<g id="edge1" class="edge">
<title>foo&#45;&gt;bar</title>
<path fill="none" stroke="#000000" d="M115,-290.8314C115,-283.131 115,-273.9743 115,-265.4166"/>
<polygon fill="#000000" stroke="#000000" points="118.5001,-265.4132 115,-255.4133 111.5001,-265.4133 118.5001,-265.4132"/>
</g>
<!-- tar -->
<g id="node3" class="node">
<title>tar</title>
<ellipse fill="none" stroke="#000000" cx="115" cy="-162" rx="27" ry="18"/>
<text text-anchor="middle" x="115" y="-158.3" font-family="sans" font-size="14.00" fill="#000000">tar</text>
</g>
<!-- bar&#45;&gt;tar -->
<g id="edge2" class="edge">
<title>bar&#45;&gt;tar</title>
<path fill="none" stroke="#000000" d="M115,-218.8446C115,-210.3401 115,-200.0076 115,-190.4964"/>
<polygon fill="#000000" stroke="#000000" points="118.5001,-190.2481 115,-180.2482 111.5001,-190.2482 118.5001,-190.2481"/>
</g>
<!-- jar -->
<g id="node5" class="node">
<title>jar</title>
<ellipse fill="none" stroke="#000000" cx="43" cy="-162" rx="27" ry="18"/>
<text text-anchor="middle" x="43" y="-158.3" font-family="sans" font-size="14.00" fill="#000000">jar</text>
</g>
<!-- bar&#45;&gt;jar -->
<g id="edge4" class="edge">
<title>bar&#45;&gt;jar</title>
<path fill="none" stroke="#000000" d="M95.434,-224.5447C89.8383,-220.5504 83.9263,-215.8863 79,-211 71.845,-203.903 65.0199,-195.2848 59.2738,-187.2669"/>
<polygon fill="#000000" stroke="#000000" points="62.0601,-185.1422 53.4975,-178.9026 56.3001,-189.1201 62.0601,-185.1422"/>
</g>
<!-- baz -->
<g id="node6" class="node">
<title>baz</title>
<ellipse fill="none" stroke="#000000" cx="193" cy="-162" rx="27.0966" ry="18"/>
<text text-anchor="middle" x="193" y="-158.3" font-family="sans" font-size="14.00" fill="#000000">baz</text>
</g>
<!-- bar&#45;&gt;baz -->
<g id="edge6" class="edge">
<title>bar&#45;&gt;baz</title>
<path fill="none" stroke="#000000" d="M135.7233,-224.8977C141.9009,-220.8489 148.488,-216.0662 154,-211 161.8424,-203.792 169.394,-194.9247 175.7288,-186.7237"/>
<polygon fill="#000000" stroke="#000000" points="178.6774,-188.6245 181.8511,-178.5162 173.0665,-184.4391 178.6774,-188.6245"/>
</g>
<!-- par -->
<g id="node4" class="node">
<title>par</title>
<ellipse fill="none" stroke="#000000" cx="63" cy="-90" rx="27" ry="18"/>
<text text-anchor="middle" x="63" y="-86.3" font-family="sans" font-size="14.00" fill="#000000">par</text>
</g>
<!-- tar&#45;&gt;par -->
<g id="edge3" class="edge">
<title>tar&#45;&gt;par</title>
<path fill="none" stroke="#000000" d="M103.2004,-145.6621C96.5519,-136.4564 88.1163,-124.7764 80.6911,-114.4953"/>
<polygon fill="#000000" stroke="#000000" points="83.4452,-112.3308 74.7529,-106.2733 77.7705,-116.4293 83.4452,-112.3308"/>
</g>
<!-- pub -->
<g id="node8" class="node">
<title>pub</title>
<ellipse fill="none" stroke="#000000" cx="165" cy="-18" rx="28.6953" ry="18"/>
<text text-anchor="middle" x="165" y="-14.3" font-family="sans" font-size="14.00" fill="#000000">pub</text>
</g>
<!-- tar&#45;&gt;pub -->
<g id="edge8" class="edge">
<title>tar&#45;&gt;pub</title>
<path fill="none" stroke="#000000" d="M121.131,-144.3428C129.7152,-119.6202 145.3955,-74.4608 155.4986,-45.3639"/>
<polygon fill="none" stroke="#000000" points="158.845,-46.3965 158.8189,-35.8017 152.2323,-44.1003 158.845,-46.3965"/>
</g>
<!-- jar&#45;&gt;par -->
<g id="edge5" class="edge">
<title>jar&#45;&gt;par</title>
<path fill="none" stroke="#000000" d="M47.9438,-144.2022C50.1794,-136.1541 52.8726,-126.4588 55.3593,-117.5067"/>
<polygon fill="#000000" stroke="#000000" points="58.7395,-118.4145 58.0437,-107.8425 51.9949,-116.541 58.7395,-118.4145"/>
</g>
<!-- jaz -->
<g id="node7" class="node">
<title>jaz</title>
<ellipse fill="none" stroke="#000000" cx="193" cy="-90" rx="27" ry="18"/>
<text text-anchor="middle" x="193" y="-86.3" font-family="sans" font-size="14.00" fill="#000000">jaz</text>
</g>
<!-- baz&#45;&gt;jaz -->
<g id="edge7" class="edge">
<title>baz&#45;&gt;jaz</title>
<path fill="none" stroke="#000000" d="M193,-143.8314C193,-136.131 193,-126.9743 193,-118.4166"/>
<polygon fill="#000000" stroke="#000000" points="196.5001,-118.4132 193,-108.4133 189.5001,-118.4133 196.5001,-118.4132"/>
</g>
<!-- jaz&#45;&gt;pub -->
<g id="edge9" class="edge">
<title>jaz&#45;&gt;pub</title>
<path fill="none" stroke="#000000" d="M186.222,-72.5708C183.0128,-64.3187 179.1065,-54.2738 175.5242,-45.0623"/>
<polygon fill="none" stroke="#000000" points="178.6992,-43.5697 171.8126,-35.5182 172.1752,-46.1069 178.6992,-43.5697"/>
</g>
</g>
</svg>
