<?xml version="1.0" encoding="UTF-8" standalone="no"?>
<!DOCTYPE svg PUBLIC "-//W3C//DTD SVG 1.1//EN"
 "http://www.w3.org/Graphics/SVG/1.1/DTD/svg11.dtd">
<!-- Generated by graphviz version 2.40.1 (20161225.0304)
 -->
<!-- Title: Example Pages: 1 -->
<svg width="288pt" height="188pt"
 viewBox="0.00 0.00 287.64 188.00" xmlns="http://www.w3.org/2000/svg" xmlns:xlink="http://www.w3.org/1999/xlink">
<g id="graph0" class="graph" transform="scale(1 1) rotate(0) translate(4 184)">
<title>Example</title>
<polygon fill="transparent" stroke="transparent" points="-4,4 -4,-184 283.6361,-184 283.6361,4 -4,4"/>
<!-- make_cake_mixture -->
<g id="node1" class="node">
<title>make_cake_mixture</title>
<ellipse fill="none" stroke="#000000" cx="175.6453" cy="-162" rx="103.9815" ry="18"/>
<text text-anchor="middle" x="175.6453" y="-158.3" font-family="sans" font-size="14.00" fill="#000000">make_cake_mixture</text>
</g>
<!-- bake_cake -->
<g id="node2" class="node">
<title>bake_cake</title>
<ellipse fill="none" stroke="#000000" cx="175.6453" cy="-90" rx="59.5901" ry="18"/>
<text text-anchor="middle" x="175.6453" y="-86.3" font-family="sans" font-size="14.00" fill="#000000">bake_cake</text>
</g>
<!-- make_cake_mixture&#45;&gt;bake_cake -->
<g id="edge1" class="edge">
<title>make_cake_mixture&#45;&gt;bake_cake</title>
<path fill="none" stroke="#000000" d="M175.6453,-143.8314C175.6453,-136.131 175.6453,-126.9743 175.6453,-118.4166"/>
<polygon fill="#000000" stroke="#000000" points="179.1454,-118.4132 175.6453,-108.4133 172.1454,-118.4133 179.1454,-118.4132"/>
</g>
<!-- sell_cake -->
<g id="node3" class="node">
<title>sell_cake</title>
<ellipse fill="none" stroke="#000000" cx="52.6453" cy="-18" rx="52.7911" ry="18"/>
<text text-anchor="middle" x="52.6453" y="-14.3" font-family="sans" font-size="14.00" fill="#000000">sell_cake</text>
</g>
<!-- bake_cake&#45;&gt;sell_cake -->
<g id="edge2" class="edge">
<title>bake_cake&#45;&gt;sell_cake</title>
<path fill="none" stroke="#000000" stroke-dasharray="5,2" d="M148.0417,-73.8418C129.7479,-63.1332 105.6349,-49.0183 86.229,-37.6588"/>
<ellipse fill="#000000" stroke="#000000" cx="82.7641" cy="-35.6305" rx="4" ry="4"/>
</g>
<!-- eat_cake -->
<g id="node4" class="node">
<title>eat_cake</title>
<ellipse fill="none" stroke="#000000" cx="175.6453" cy="-18" rx="51.9908" ry="18"/>
<text text-anchor="middle" x="175.6453" y="-14.3" font-family="sans" font-size="14.00" fill="#000000">eat_cake</text>
</g>
<!-- bake_cake&#45;&gt;eat_cake -->
<g id="edge3" class="edge">
<title>bake_cake&#45;&gt;eat_cake</title>
<path fill="none" stroke="#000000" stroke-dasharray="5,2" d="M169.6929,-71.8314C168.8724,-63.411 168.6849,-53.2495 169.1307,-44.0338"/>
<ellipse fill="#000000" stroke="#000000" cx="169.4294" cy="-39.903" rx="4" ry="4"/>
</g>
<!-- eat_cake&#45;&gt;bake_cake -->
<g id="edge4" class="edge">
<title>eat_cake&#45;&gt;bake_cake</title>
<path fill="none" stroke="#000000" stroke-dasharray="5,2" d="M181.5726,-35.9134C182.406,-44.2982 182.6062,-54.4514 182.1733,-63.686"/>
<ellipse fill="#000000" stroke="#000000" cx="181.8797" cy="-67.8413" rx="4" ry="4"/>
</g>
</g>
</svg>
