<?xml version="1.0" encoding="UTF-8" standalone="no"?>
<!DOCTYPE svg PUBLIC "-//W3C//DTD SVG 1.1//EN"
 "http://www.w3.org/Graphics/SVG/1.1/DTD/svg11.dtd">
<!-- Generated by graphviz version 2.40.1 (20161225.0304)
 -->
<!-- Title: Example Pages: 1 -->
<svg width="504pt" height="179pt"
 viewBox="0.00 0.00 504.00 179.44" xmlns="http://www.w3.org/2000/svg" xmlns:xlink="http://www.w3.org/1999/xlink">
<g id="graph0" class="graph" transform="scale(.6058 .6058) rotate(0) translate(4 292.2203)">
<title>Example</title>
<polygon fill="transparent" stroke="transparent" points="-4,4 -4,-292.2203 828,-292.2203 828,4 -4,4"/>
<g id="clust1" class="cluster">
<title>cluster_1</title>
<polygon fill="transparent" stroke="#000000" stroke-dasharray="5,2" points="8,-8 8,-280.2203 272,-280.2203 272,-8 8,-8"/>
<text text-anchor="middle" x="140" y="-265.0203" font-family="sans" font-size="14.00" fill="#000000">1</text>
</g>
<g id="clust2" class="cluster">
<title>cluster_2</title>
<polygon fill="transparent" stroke="#000000" stroke-dasharray="5,2" points="280,-8 280,-280.2203 544,-280.2203 544,-8 280,-8"/>
<text text-anchor="middle" x="412" y="-265.0203" font-family="sans" font-size="14.00" fill="#000000">2</text>
</g>
<g id="clust3" class="cluster">
<title>cluster_3</title>
<polygon fill="transparent" stroke="#000000" stroke-dasharray="5,2" points="552,-8 552,-280.2203 816,-280.2203 816,-8 552,-8"/>
<text text-anchor="middle" x="684" y="-265.0203" font-family="sans" font-size="14.00" fill="#000000">3</text>
</g>
<!-- make_cake_mixture.1 -->
<g id="node1" class="node">
<title>make_cake_mixture.1</title>
<ellipse fill="#ada5a5" stroke="#ada5a5" cx="140" cy="-222.3503" rx="113.2743" ry="26.7407"/>
<text text-anchor="middle" x="140" y="-226.1503" font-family="sans" font-size="14.00" fill="#000000">make_cake_mixture</text>
<text text-anchor="middle" x="140" y="-211.1503" font-family="sans" font-size="14.00" fill="#000000">1</text>
</g>
<!-- bake_cake.1 -->
<g id="node2" class="node">
<title>bake_cake.1</title>
<ellipse fill="#ada5a5" stroke="#ada5a5" cx="140" cy="-132.6102" rx="65.1077" ry="26.7407"/>
<text text-anchor="middle" x="140" y="-136.4102" font-family="sans" font-size="14.00" fill="#000000">bake_cake</text>
<text text-anchor="middle" x="140" y="-121.4102" font-family="sans" font-size="14.00" fill="#000000">1</text>
</g>
<!-- make_cake_mixture.1&#45;&gt;bake_cake.1 -->
<g id="edge1" class="edge">
<title>make_cake_mixture.1&#45;&gt;bake_cake.1</title>
<path fill="none" stroke="#000000" d="M140,-195.4253C140,-187.3504 140,-178.3471 140,-169.7362"/>
<polygon fill="#000000" stroke="#000000" points="143.5001,-169.5161 140,-159.5162 136.5001,-169.5162 143.5001,-169.5161"/>
</g>
<!-- sell_cake.1 -->
<g id="node3" class="node">
<title>sell_cake.1</title>
<ellipse fill="#ada5a5" stroke="#ada5a5" cx="73" cy="-42.8701" rx="57.0522" ry="26.7407"/>
<text text-anchor="middle" x="73" y="-46.6701" font-family="sans" font-size="14.00" fill="#000000">sell_cake</text>
<text text-anchor="middle" x="73" y="-31.6701" font-family="sans" font-size="14.00" fill="#000000">1</text>
</g>
<!-- bake_cake.1&#45;&gt;sell_cake.1 -->
<g id="edge2" class="edge">
<title>bake_cake.1&#45;&gt;sell_cake.1</title>
<path fill="none" stroke="#000000" d="M120.6208,-106.6536C113.6159,-97.2712 105.6028,-86.5383 98.173,-76.5869"/>
<polygon fill="#000000" stroke="#000000" points="100.8914,-74.3775 92.1042,-68.4584 95.2823,-78.5654 100.8914,-74.3775"/>
</g>
<!-- eat_cake.1 -->
<g id="node4" class="node">
<title>eat_cake.1</title>
<ellipse fill="none" stroke="#88c6ff" cx="206" cy="-42.8701" rx="57.6901" ry="18"/>
<text text-anchor="middle" x="206" y="-39.1701" font-family="sans" font-size="14.00" fill="#000000">eat_cake1</text>
</g>
<!-- bake_cake.1&#45;&gt;eat_cake.1 -->
<g id="edge3" class="edge">
<title>bake_cake.1&#45;&gt;eat_cake.1</title>
<path fill="none" stroke="#000000" d="M159.0899,-106.6536C167.8516,-94.7404 178.2146,-80.6499 186.969,-68.7465"/>
<polygon fill="#000000" stroke="#000000" points="189.9082,-70.6574 193.0135,-60.5279 184.2691,-66.5101 189.9082,-70.6574"/>
</g>
<!-- make_cake_mixture.2 -->
<g id="node5" class="node">
<title>make_cake_mixture.2</title>
<ellipse fill="#ada5a5" stroke="#ada5a5" cx="412" cy="-222.3503" rx="113.2743" ry="26.7407"/>
<text text-anchor="middle" x="412" y="-226.1503" font-family="sans" font-size="14.00" fill="#000000">make_cake_mixture</text>
<text text-anchor="middle" x="412" y="-211.1503" font-family="sans" font-size="14.00" fill="#000000">2</text>
</g>
<!-- bake_cake.2 -->
<g id="node6" class="node">
<title>bake_cake.2</title>
<ellipse fill="#ff0000" stroke="#ff0000" cx="412" cy="-132.6102" rx="65.1077" ry="26.7407"/>
<text text-anchor="middle" x="412" y="-136.4102" font-family="sans" font-size="14.00" fill="#ffffff">bake_cake</text>
<text text-anchor="middle" x="412" y="-121.4102" font-family="sans" font-size="14.00" fill="#ffffff">2</text>
</g>
<!-- make_cake_mixture.2&#45;&gt;bake_cake.2 -->
<g id="edge4" class="edge">
<title>make_cake_mixture.2&#45;&gt;bake_cake.2</title>
<path fill="none" stroke="#000000" d="M412,-195.4253C412,-187.3504 412,-178.3471 412,-169.7362"/>
<polygon fill="#000000" stroke="#000000" points="415.5001,-169.5161 412,-159.5162 408.5001,-169.5162 415.5001,-169.5161"/>
</g>
<!-- sell_cake.2 -->
<g id="node7" class="node">
<title>sell_cake.2</title>
<ellipse fill="none" stroke="#88c6ff" cx="346" cy="-42.8701" rx="58.4896" ry="18"/>
<text text-anchor="middle" x="346" y="-39.1701" font-family="sans" font-size="14.00" fill="#000000">sell_cake2</text>
</g>
<!-- bake_cake.2&#45;&gt;sell_cake.2 -->
<g id="edge5" class="edge">
<title>bake_cake.2&#45;&gt;sell_cake.2</title>
<path fill="none" stroke="#000000" d="M392.9101,-106.6536C384.1484,-94.7404 373.7854,-80.6499 365.031,-68.7465"/>
<polygon fill="#000000" stroke="#000000" points="367.7309,-66.5101 358.9865,-60.5279 362.0918,-70.6574 367.7309,-66.5101"/>
</g>
<!-- eat_cake.2 -->
<g id="node8" class="node">
<title>eat_cake.2</title>
<ellipse fill="none" stroke="#888888" cx="479" cy="-42.8701" rx="56.6372" ry="26.7407"/>
<text text-anchor="middle" x="479" y="-46.6701" font-family="sans" font-size="14.00" fill="#888888">eat_cake</text>
<text text-anchor="middle" x="479" y="-31.6701" font-family="sans" font-size="14.00" fill="#888888">2</text>
</g>
<!-- bake_cake.2&#45;&gt;eat_cake.2 -->
<g id="edge6" class="edge">
<title>bake_cake.2&#45;&gt;eat_cake.2</title>
<path fill="none" stroke="#000000" d="M431.3792,-106.6536C438.3841,-97.2712 446.3972,-86.5383 453.827,-76.5869"/>
<polygon fill="#000000" stroke="#000000" points="456.7177,-78.5654 459.8958,-68.4584 451.1086,-74.3775 456.7177,-78.5654"/>
</g>
<!-- make_cake_mixture.3 -->
<g id="node9" class="node">
<title>make_cake_mixture.3</title>
<ellipse fill="#ada5a5" stroke="#ada5a5" cx="684" cy="-222.3503" rx="113.2743" ry="26.7407"/>
<text text-anchor="middle" x="684" y="-226.1503" font-family="sans" font-size="14.00" fill="#000000">make_cake_mixture</text>
<text text-anchor="middle" x="684" y="-211.1503" font-family="sans" font-size="14.00" fill="#000000">3</text>
</g>
<!-- bake_cake.3 -->
<g id="node10" class="node">
<title>bake_cake.3</title>
<ellipse fill="#ff0000" stroke="#ff0000" cx="684" cy="-132.6102" rx="65.1077" ry="26.7407"/>
<text text-anchor="middle" x="684" y="-136.4102" font-family="sans" font-size="14.00" fill="#ffffff">bake_cake</text>
<text text-anchor="middle" x="684" y="-121.4102" font-family="sans" font-size="14.00" fill="#ffffff">3</text>
</g>
<!-- make_cake_mixture.3&#45;&gt;bake_cake.3 -->
<g id="edge7" class="edge">
<title>make_cake_mixture.3&#45;&gt;bake_cake.3</title>
<path fill="none" stroke="#000000" d="M684,-195.4253C684,-187.3504 684,-178.3471 684,-169.7362"/>
<polygon fill="#000000" stroke="#000000" points="687.5001,-169.5161 684,-159.5162 680.5001,-169.5162 687.5001,-169.5161"/>
</g>
<!-- sell_cake.3 -->
<g id="node11" class="node">
<title>sell_cake.3</title>
<ellipse fill="none" stroke="#888888" cx="617" cy="-42.8701" rx="57.0522" ry="26.7407"/>
<text text-anchor="middle" x="617" y="-46.6701" font-family="sans" font-size="14.00" fill="#888888">sell_cake</text>
<text text-anchor="middle" x="617" y="-31.6701" font-family="sans" font-size="14.00" fill="#888888">3</text>
</g>
<!-- bake_cake.3&#45;&gt;sell_cake.3 -->
<g id="edge8" class="edge">
<title>bake_cake.3&#45;&gt;sell_cake.3</title>
<path fill="none" stroke="#000000" d="M664.6208,-106.6536C657.6159,-97.2712 649.6028,-86.5383 642.173,-76.5869"/>
<polygon fill="#000000" stroke="#000000" points="644.8914,-74.3775 636.1042,-68.4584 639.2823,-78.5654 644.8914,-74.3775"/>
</g>
<!-- eat_cake.3 -->
<g id="node12" class="node">
<title>eat_cake.3</title>
<ellipse fill="none" stroke="#888888" cx="750" cy="-42.8701" rx="57.6901" ry="18"/>
<text text-anchor="middle" x="750" y="-39.1701" font-family="sans" font-size="14.00" fill="#888888">eat_cake3</text>
</g>
<!-- bake_cake.3&#45;&gt;eat_cake.3 -->
<g id="edge9" class="edge">
<title>bake_cake.3&#45;&gt;eat_cake.3</title>
<path fill="none" stroke="#000000" d="M703.0899,-106.6536C711.8516,-94.7404 722.2146,-80.6499 730.969,-68.7465"/>
<polygon fill="#000000" stroke="#000000" points="733.9082,-70.6574 737.0135,-60.5279 728.2691,-66.5101 733.9082,-70.6574"/>
</g>
</g>
</svg>
