<?xml version="1.0" encoding="UTF-8" standalone="no"?>
<!DOCTYPE svg PUBLIC "-//W3C//DTD SVG 1.1//EN"
 "http://www.w3.org/Graphics/SVG/1.1/DTD/svg11.dtd">
<!-- Generated by graphviz version 2.26.0 (20091210.2329)

.. note::

    SVG output from graphviz with foo and bar swapped around in the second
    graph, I can't seem to be able to do this in graphviz itself.

    To make the output transparent search for "white" and delete the associated
    polygon element.

 -->
<!-- Title: _anonymous_0 Pages: 1 -->
<svg width="316pt" height="152pt"
 viewBox="0.00 0.00 316.00 152.00" xmlns="http://www.w3.org/2000/svg" xmlns:xlink="http://www.w3.org/1999/xlink">
<g id="graph1" class="graph" transform="scale(1 1) rotate(0) translate(4 148)">
<title>_anonymous_0</title>
<g id="graph2" class="cluster"><title>cluster_1</title>
<polygon fill="none" stroke="black" points="8,-8 8,-136 150,-136 150,-8 8,-8"/>
</g>
<g id="graph3" class="cluster"><title>cluster_2</title>
<polygon fill="none" stroke="black" points="158,-8 158,-136 300,-136 300,-8 158,-8"/>
</g>
<!-- 1/foo -->
<g id="node2" class="node"><title>1/foo</title>
<ellipse fill="none" stroke="black" cx="115" cy="-109" rx="27" ry="19.0919"/>
<text text-anchor="middle" x="115" y="-105.9" font-family="Times Roman,serif" font-size="14.00">foo</text>
</g>
<!-- 1/baz -->
<g id="node4" class="node"><title>1/baz</title>
<ellipse fill="none" stroke="black" cx="79" cy="-35" rx="27" ry="19.0919"/>
<text text-anchor="middle" x="79" y="-31.9" font-family="Times Roman,serif" font-size="14.00">baz</text>
</g>
<!-- 1/foo&#45;&gt;1/baz -->
<g id="edge4" class="edge"><title>1/foo&#45;&gt;1/baz</title>
<path fill="none" stroke="black" d="M106.101,-90.7079C101.916,-82.1051 96.8401,-71.6713 92.2178,-62.1699"/>
<polygon fill="black" stroke="black" points="95.3186,-60.5429 87.7965,-53.0817 89.0239,-63.6052 95.3186,-60.5429"/>
</g>
<!-- 1/bar -->
<g id="node3" class="node"><title>1/bar</title>
<ellipse fill="none" stroke="black" cx="43" cy="-109" rx="27" ry="19.0919"/>
<text text-anchor="middle" x="43" y="-105.9" font-family="Times Roman,serif" font-size="14.00">bar</text>
</g>
<!-- 1/bar&#45;&gt;1/baz -->
<g id="edge6" class="edge"><title>1/bar&#45;&gt;1/baz</title>
<path fill="none" stroke="black" d="M51.8989,-90.7079C56.084,-82.1051 61.1599,-71.6713 65.7822,-62.1699"/>
<polygon fill="black" stroke="black" points="68.9761,-63.6052 70.2035,-53.0817 62.6814,-60.5429 68.9761,-63.6052"/>
</g>
<!-- 2/bar -->
<g id="node6" class="node"><title>2/bar</title>
<ellipse fill="none" stroke="black" cx="265" cy="-109" rx="27" ry="19.0919"/>
<text text-anchor="middle" x="265" y="-105.9" font-family="Times Roman,serif" font-size="14.00">bar</text>
</g>
<!-- 2/baz -->
<g id="node8" class="node"><title>2/baz</title>
<ellipse fill="none" stroke="black" cx="229" cy="-35" rx="27" ry="19.0919"/>
<text text-anchor="middle" x="229" y="-31.9" font-family="Times Roman,serif" font-size="14.00">baz</text>
</g>
<!-- 2/foo&#45;&gt;2/baz -->
<g id="edge8" class="edge"><title>2/foo&#45;&gt;2/baz</title>
<path fill="none" stroke="black" d="M256.101,-90.7079C251.916,-82.1051 246.84,-71.6713 242.218,-62.1699"/>
<polygon fill="black" stroke="black" points="245.319,-60.5429 237.797,-53.0817 239.024,-63.6052 245.319,-60.5429"/>
</g>
<!-- 2/foo -->
<g id="node7" class="node"><title>2/foo</title>
<ellipse fill="none" stroke="black" cx="193" cy="-109" rx="27" ry="19.0919"/>
<text text-anchor="middle" x="193" y="-105.9" font-family="Times Roman,serif" font-size="14.00">foo</text>
</g>
<!-- 2/bar&#45;&gt;2/baz -->
<g id="edge10" class="edge"><title>2/bar&#45;&gt;2/baz</title>
<path fill="none" stroke="black" d="M201.899,-90.7079C206.084,-82.1051 211.16,-71.6713 215.782,-62.1699"/>
<polygon fill="black" stroke="black" points="218.976,-63.6052 220.203,-53.0817 212.681,-60.5429 218.976,-63.6052"/>
</g>
</g>
</svg>
