<?xml version="1.0" encoding="UTF-8" standalone="no"?>
<!DOCTYPE svg PUBLIC "-//W3C//DTD SVG 1.1//EN"
 "http://www.w3.org/Graphics/SVG/1.1/DTD/svg11.dtd">
<!-- Generated by graphviz version 13.0.1 (20250616.1512)
 -->
<!-- Title: bakery Pages: 1 -->
<svg width="370pt" height="260pt"
 viewBox="0.00 0.00 370.00 260.00" xmlns="http://www.w3.org/2000/svg" xmlns:xlink="http://www.w3.org/1999/xlink">
<g id="graph0" class="graph" transform="scale(1 1) rotate(0) translate(4 256)">
<title>bakery</title>
<polygon fill="none" stroke="none" points="-4,4 -4,-256 365.91,-256 365.91,4 -4,4"/>
<!-- purchase ingredients -->
<g id="node1" class="node">
<title>purchase ingredients</title>
<ellipse fill="none" stroke="black" cx="113.82" cy="-234" rx="113.82" ry="18"/>
<text xml:space="preserve" text-anchor="middle" x="113.82" y="-229.32" font-family="sans" font-size="14.00">purchase ingredients</text>
</g>
<!-- make dough -->
<g id="node2" class="node">
<title>make dough</title>
<ellipse fill="none" stroke="black" cx="113.82" cy="-162" rx="71.73" ry="18"/>
<text xml:space="preserve" text-anchor="middle" x="113.82" y="-157.32" font-family="sans" font-size="14.00">make dough</text>
</g>
<!-- purchase ingredients&#45;&gt;make dough -->
<g id="edge1" class="edge">
<title>purchase ingredients&#45;&gt;make dough</title>
<path fill="none" stroke="black" d="M113.82,-215.7C113.82,-208.41 113.82,-199.73 113.82,-191.54"/>
<polygon fill="black" stroke="black" points="117.32,-191.62 113.82,-181.62 110.32,-191.62 117.32,-191.62"/>
</g>
<!-- bake bread -->
<g id="node3" class="node">
<title>bake bread</title>
<ellipse fill="none" stroke="black" cx="197.82" cy="-90" rx="65.41" ry="18"/>
<text xml:space="preserve" text-anchor="middle" x="197.82" y="-85.33" font-family="sans" font-size="14.00">bake bread</text>
</g>
<!-- make dough&#45;&gt;bake bread -->
<g id="edge2" class="edge">
<title>make dough&#45;&gt;bake bread</title>
<path fill="none" stroke="black" d="M133.72,-144.41C144.39,-135.52 157.72,-124.41 169.46,-114.63"/>
<polygon fill="black" stroke="black" points="171.45,-117.53 176.89,-108.44 166.97,-112.15 171.45,-117.53"/>
</g>
<!-- sell bread -->
<g id="node4" class="node">
<title>sell bread</title>
<ellipse fill="none" stroke="black" cx="127.82" cy="-18" rx="58.57" ry="18"/>
<text xml:space="preserve" text-anchor="middle" x="127.82" y="-13.32" font-family="sans" font-size="14.00">sell bread</text>
</g>
<!-- bake bread&#45;&gt;sell bread -->
<g id="edge3" class="edge">
<title>bake bread&#45;&gt;sell bread</title>
<path fill="none" stroke="black" d="M181.23,-72.41C172.6,-63.78 161.88,-53.06 152.31,-43.5"/>
<polygon fill="black" stroke="black" points="154.9,-41.14 145.36,-36.54 149.95,-46.09 154.9,-41.14"/>
</g>
<!-- clean oven -->
<g id="node5" class="node">
<title>clean oven</title>
<ellipse fill="none" stroke="black" cx="267.82" cy="-18" rx="63.83" ry="18"/>
<text xml:space="preserve" text-anchor="middle" x="267.82" y="-13.32" font-family="sans" font-size="14.00">clean oven</text>
</g>
<!-- bake bread&#45;&gt;clean oven -->
<g id="edge4" class="edge">
<title>bake bread&#45;&gt;clean oven</title>
<path fill="none" stroke="black" d="M214.4,-72.41C223.03,-63.78 233.75,-53.06 243.32,-43.5"/>
<polygon fill="black" stroke="black" points="245.68,-46.09 250.27,-36.54 240.73,-41.14 245.68,-46.09"/>
</g>
<!-- pre&#45;heat oven -->
<g id="node6" class="node">
<title>pre&#45;heat oven</title>
<ellipse fill="none" stroke="black" cx="282.82" cy="-162" rx="79.09" ry="18"/>
<text xml:space="preserve" text-anchor="middle" x="282.82" y="-157.32" font-family="sans" font-size="14.00">pre&#45;heat oven</text>
</g>
<!-- pre&#45;heat oven&#45;&gt;bake bread -->
<g id="edge5" class="edge">
<title>pre&#45;heat oven&#45;&gt;bake bread</title>
<path fill="none" stroke="black" d="M262.67,-144.41C251.87,-135.52 238.39,-124.41 226.51,-114.63"/>
<polygon fill="black" stroke="black" points="228.93,-112.09 218.98,-108.43 224.48,-117.49 228.93,-112.09"/>
</g>
</g>
</svg>
