<?xml version="1.0" encoding="UTF-8" standalone="no"?>
<!DOCTYPE svg PUBLIC "-//W3C//DTD SVG 1.1//EN"
 "http://www.w3.org/Graphics/SVG/1.1/DTD/svg11.dtd">
<!-- Generated by graphviz version 13.0.1 (20250616.1512)
 -->
<!-- Title: Example Pages: 1 -->
<svg width="181pt" height="360pt"
 viewBox="0.00 0.00 181.00 360.00" xmlns="http://www.w3.org/2000/svg" xmlns:xlink="http://www.w3.org/1999/xlink">
<g id="graph0" class="graph" transform="scale(0.691948 0.691948) rotate(0) translate(4 516.27)">
<title>Example</title>
<polygon fill="none" stroke="none" points="-4,4 -4,-516.27 258,-516.27 258,4 -4,4"/>
<g id="clust1" class="cluster">
<title>cluster_1</title>
<polygon fill="none" stroke="black" stroke-dasharray="5,2" points="8,-200.21 8,-504.27 82,-504.27 82,-200.21 8,-200.21"/>
<text xml:space="preserve" text-anchor="middle" x="45" y="-486.97" font-family="sans" font-size="14.00">1</text>
</g>
<g id="clust2" class="cluster">
<title>cluster_2</title>
<polygon fill="none" stroke="black" stroke-dasharray="5,2" points="90,-104.1 90,-402.92 164,-402.92 164,-104.1 90,-104.1"/>
<text xml:space="preserve" text-anchor="middle" x="127" y="-385.62" font-family="sans" font-size="14.00">2</text>
</g>
<g id="clust3" class="cluster">
<title>cluster_3</title>
<polygon fill="none" stroke="black" stroke-dasharray="5,2" points="172,-8 172,-301.56 246,-301.56 246,-8 172,-8"/>
<text xml:space="preserve" text-anchor="middle" x="209" y="-284.26" font-family="sans" font-size="14.00">3</text>
</g>
<!-- 1/foo -->
<g id="node1" class="node">
<title>1/foo</title>
<ellipse fill="none" stroke="black" cx="45" cy="-440.97" rx="27" ry="30.05"/>
<text xml:space="preserve" text-anchor="middle" x="45" y="-444.92" font-family="sans" font-size="14.00">foo</text>
<text xml:space="preserve" text-anchor="middle" x="45" y="-427.67" font-family="sans" font-size="14.00">1</text>
</g>
<!-- 1/bar -->
<g id="node2" class="node">
<title>1/bar</title>
<ellipse fill="none" stroke="black" cx="45" cy="-339.61" rx="27.75" ry="30.05"/>
<text xml:space="preserve" text-anchor="middle" x="45" y="-343.56" font-family="sans" font-size="14.00">bar</text>
<text xml:space="preserve" text-anchor="middle" x="45" y="-326.31" font-family="sans" font-size="14.00">1</text>
</g>
<!-- 1/foo&#45;&gt;1/bar -->
<g id="edge1" class="edge">
<title>1/foo&#45;&gt;1/bar</title>
<path fill="none" stroke="black" d="M45,-410.43C45,-401.22 45,-390.9 45,-381.08"/>
<polygon fill="black" stroke="black" points="48.5,-381.38 45,-371.38 41.5,-381.38 48.5,-381.38"/>
</g>
<!-- 1/baz -->
<g id="node3" class="node">
<title>1/baz</title>
<ellipse fill="none" stroke="black" cx="45" cy="-238.26" rx="28.81" ry="30.05"/>
<text xml:space="preserve" text-anchor="middle" x="45" y="-242.21" font-family="sans" font-size="14.00">baz</text>
<text xml:space="preserve" text-anchor="middle" x="45" y="-224.96" font-family="sans" font-size="14.00">1</text>
</g>
<!-- 1/bar&#45;&gt;1/baz -->
<g id="edge2" class="edge">
<title>1/bar&#45;&gt;1/baz</title>
<path fill="none" stroke="black" d="M45,-309.07C45,-299.86 45,-289.54 45,-279.72"/>
<polygon fill="black" stroke="black" points="48.5,-280.03 45,-270.03 41.5,-280.03 48.5,-280.03"/>
</g>
<!-- 2/bar -->
<g id="node5" class="node">
<title>2/bar</title>
<ellipse fill="none" stroke="black" cx="127" cy="-238.26" rx="27.75" ry="30.05"/>
<text xml:space="preserve" text-anchor="middle" x="127" y="-242.21" font-family="sans" font-size="14.00">bar</text>
<text xml:space="preserve" text-anchor="middle" x="127" y="-224.96" font-family="sans" font-size="14.00">2</text>
</g>
<!-- 1/bar&#45;&gt;2/bar -->
<g id="edge7" class="edge">
<title>1/bar&#45;&gt;2/bar</title>
<path fill="none" stroke="black" d="M66.85,-320.73C73.34,-314.93 80.25,-308.26 86,-301.56 93.32,-293.03 100.39,-283.11 106.54,-273.74"/>
<polygon fill="black" stroke="black" points="109.35,-275.84 111.77,-265.52 103.45,-272.08 109.35,-275.84"/>
</g>
<!-- 2/foo -->
<g id="node4" class="node">
<title>2/foo</title>
<ellipse fill="none" stroke="black" cx="127" cy="-339.61" rx="27" ry="30.05"/>
<text xml:space="preserve" text-anchor="middle" x="127" y="-343.56" font-family="sans" font-size="14.00">foo</text>
<text xml:space="preserve" text-anchor="middle" x="127" y="-326.31" font-family="sans" font-size="14.00">2</text>
</g>
<!-- 2/foo&#45;&gt;2/bar -->
<g id="edge3" class="edge">
<title>2/foo&#45;&gt;2/bar</title>
<path fill="none" stroke="black" d="M127,-309.07C127,-299.86 127,-289.54 127,-279.72"/>
<polygon fill="black" stroke="black" points="130.5,-280.03 127,-270.03 123.5,-280.03 130.5,-280.03"/>
</g>
<!-- 2/baz -->
<g id="node6" class="node">
<title>2/baz</title>
<ellipse fill="none" stroke="black" cx="127" cy="-142.16" rx="28.81" ry="30.05"/>
<text xml:space="preserve" text-anchor="middle" x="127" y="-146.11" font-family="sans" font-size="14.00">baz</text>
<text xml:space="preserve" text-anchor="middle" x="127" y="-128.86" font-family="sans" font-size="14.00">2</text>
</g>
<!-- 2/bar&#45;&gt;2/baz -->
<g id="edge4" class="edge">
<title>2/bar&#45;&gt;2/baz</title>
<path fill="none" stroke="black" d="M127,-207.74C127,-200.21 127,-191.98 127,-183.99"/>
<polygon fill="black" stroke="black" points="130.5,-184.08 127,-174.08 123.5,-184.08 130.5,-184.08"/>
</g>
<!-- 3/bar -->
<g id="node8" class="node">
<title>3/bar</title>
<ellipse fill="none" stroke="black" cx="208" cy="-142.16" rx="27.75" ry="30.05"/>
<text xml:space="preserve" text-anchor="middle" x="208" y="-146.11" font-family="sans" font-size="14.00">bar</text>
<text xml:space="preserve" text-anchor="middle" x="208" y="-128.86" font-family="sans" font-size="14.00">3</text>
</g>
<!-- 2/bar&#45;&gt;3/bar -->
<g id="edge8" class="edge">
<title>2/bar&#45;&gt;3/bar</title>
<path fill="none" stroke="black" d="M145.38,-215.91C156.18,-203.36 170,-187.3 181.91,-173.46"/>
<polygon fill="black" stroke="black" points="184.55,-175.76 188.42,-165.9 179.25,-171.19 184.55,-175.76"/>
</g>
<!-- 3/foo -->
<g id="node7" class="node">
<title>3/foo</title>
<ellipse fill="none" stroke="black" cx="208" cy="-238.26" rx="27" ry="30.05"/>
<text xml:space="preserve" text-anchor="middle" x="208" y="-242.21" font-family="sans" font-size="14.00">foo</text>
<text xml:space="preserve" text-anchor="middle" x="208" y="-224.96" font-family="sans" font-size="14.00">3</text>
</g>
<!-- 3/foo&#45;&gt;3/bar -->
<g id="edge5" class="edge">
<title>3/foo&#45;&gt;3/bar</title>
<path fill="none" stroke="black" d="M208,-207.74C208,-200.21 208,-191.98 208,-183.99"/>
<polygon fill="black" stroke="black" points="211.5,-184.08 208,-174.08 204.5,-184.08 211.5,-184.08"/>
</g>
<!-- 3/baz -->
<g id="node9" class="node">
<title>3/baz</title>
<ellipse fill="none" stroke="black" cx="209" cy="-46.05" rx="28.81" ry="30.05"/>
<text xml:space="preserve" text-anchor="middle" x="209" y="-50" font-family="sans" font-size="14.00">baz</text>
<text xml:space="preserve" text-anchor="middle" x="209" y="-32.75" font-family="sans" font-size="14.00">3</text>
</g>
<!-- 3/bar&#45;&gt;3/baz -->
<g id="edge6" class="edge">
<title>3/bar&#45;&gt;3/baz</title>
<path fill="none" stroke="black" d="M208.31,-111.64C208.39,-104.11 208.48,-95.87 208.57,-87.88"/>
<polygon fill="black" stroke="black" points="212.06,-88.01 208.67,-77.98 205.07,-87.94 212.06,-88.01"/>
</g>
</g>
</svg>
