<?xml version="1.0" encoding="UTF-8" standalone="no"?>
<!DOCTYPE svg PUBLIC "-//W3C//DTD SVG 1.1//EN"
 "http://www.w3.org/Graphics/SVG/1.1/DTD/svg11.dtd">
<!-- Generated by graphviz version 12.2.1 (20250203.1708)
 -->
<!-- Title: example Pages: 1 -->
<svg width="504pt" height="108pt"
 viewBox="0.00 0.00 504.00 107.74" xmlns="http://www.w3.org/2000/svg" xmlns:xlink="http://www.w3.org/1999/xlink">
<g id="graph0" class="graph" transform="scale(0.486486 0.486486) rotate(0) translate(4 217.46)">
<title>example</title>
<polygon fill="none" stroke="none" points="-4,4 -4,-217.46 1032,-217.46 1032,4 -4,4"/>
<g id="clust1" class="cluster">
<title>cluster_T00</title>
<polygon fill="none" stroke="black" stroke-dasharray="5,2" points="8,-104.1 8,-205.46 290,-205.46 290,-104.1 8,-104.1"/>
<text text-anchor="middle" x="149" y="-188.16" font-family="sans" font-size="14.00">+PT0H</text>
</g>
<g id="clust2" class="cluster">
<title>cluster_T03</title>
<polygon fill="none" stroke="black" stroke-dasharray="5,2" points="738,-104.1 738,-205.46 1020,-205.46 1020,-104.1 738,-104.1"/>
<text text-anchor="middle" x="879" y="-188.16" font-family="sans" font-size="14.00">+PT3H</text>
</g>
<g id="clust3" class="cluster">
<title>cluster_T06</title>
<polygon fill="none" stroke="black" stroke-dasharray="5,2" points="298,-8 298,-205.46 730,-205.46 730,-8 298,-8"/>
<text text-anchor="middle" x="514" y="-188.16" font-family="sans" font-size="14.00">+PT6H</text>
</g>
<!-- observations.t00 -->
<g id="node1" class="node">
<title>observations.t00</title>
<ellipse fill="none" stroke="black" cx="149" cy="-142.16" rx="133.29" ry="30.05"/>
<text text-anchor="middle" x="149" y="-146.11" font-family="sans" font-size="14.00">consolidate observations</text>
<text text-anchor="middle" x="149" y="-128.86" font-family="sans" font-size="14.00">+PT0H</text>
</g>
<!-- forecast.t06 -->
<g id="node3" class="node">
<title>forecast.t06</title>
<ellipse fill="none" stroke="black" cx="480" cy="-46.05" rx="50.56" ry="30.05"/>
<text text-anchor="middle" x="480" y="-50" font-family="sans" font-size="14.00">forecast</text>
<text text-anchor="middle" x="480" y="-32.75" font-family="sans" font-size="14.00">+PT6H</text>
</g>
<!-- observations.t00&#45;&gt;forecast.t06 -->
<g id="edge1" class="edge">
<title>observations.t00&#45;&gt;forecast.t06</title>
<path fill="none" stroke="black" d="M230.4,-118.02C290.44,-100.94 370.6,-78.15 423.69,-63.06"/>
<polygon fill="black" stroke="black" points="424.48,-66.48 433.14,-60.37 422.56,-59.74 424.48,-66.48"/>
</g>
<!-- observations.t03 -->
<g id="node2" class="node">
<title>observations.t03</title>
<ellipse fill="none" stroke="black" cx="879" cy="-142.16" rx="133.29" ry="30.05"/>
<text text-anchor="middle" x="879" y="-146.11" font-family="sans" font-size="14.00">consolidate observations</text>
<text text-anchor="middle" x="879" y="-128.86" font-family="sans" font-size="14.00">+PT3H</text>
</g>
<!-- observations.t03&#45;&gt;forecast.t06 -->
<g id="edge2" class="edge">
<title>observations.t03&#45;&gt;forecast.t06</title>
<path fill="none" stroke="black" d="M793.23,-118.8C773.78,-113.85 753.2,-108.71 734,-104.1 667.2,-88.07 590.18,-70.96 538.62,-59.71"/>
<polygon fill="black" stroke="black" points="539.37,-56.29 528.86,-57.58 537.88,-63.13 539.37,-56.29"/>
</g>
<!-- get_rainfall.t06 -->
<g id="node4" class="node">
<title>get_rainfall.t06</title>
<ellipse fill="none" stroke="black" cx="372" cy="-142.16" rx="65.94" ry="30.05"/>
<text text-anchor="middle" x="372" y="-146.11" font-family="sans" font-size="14.00">get_rainfall</text>
<text text-anchor="middle" x="372" y="-128.86" font-family="sans" font-size="14.00">+PT6H</text>
</g>
<!-- get_rainfall.t06&#45;&gt;forecast.t06 -->
<g id="edge4" class="edge">
<title>get_rainfall.t06&#45;&gt;forecast.t06</title>
<path fill="none" stroke="black" d="M402.08,-114.94C414.88,-103.79 429.93,-90.68 443.37,-78.97"/>
<polygon fill="black" stroke="black" points="445.55,-81.71 450.79,-72.5 440.95,-76.43 445.55,-81.71"/>
</g>
<!-- observations.t06 -->
<g id="node5" class="node">
<title>observations.t06</title>
<ellipse fill="none" stroke="black" cx="589" cy="-142.16" rx="133.29" ry="30.05"/>
<text text-anchor="middle" x="589" y="-146.11" font-family="sans" font-size="14.00">consolidate observations</text>
<text text-anchor="middle" x="589" y="-128.86" font-family="sans" font-size="14.00">+PT6H</text>
</g>
<!-- observations.t06&#45;&gt;forecast.t06 -->
<g id="edge3" class="edge">
<title>observations.t06&#45;&gt;forecast.t06</title>
<path fill="none" stroke="black" d="M556,-112.67C543.58,-101.94 529.38,-89.69 516.65,-78.69"/>
<polygon fill="black" stroke="black" points="519.11,-76.19 509.25,-72.3 514.53,-81.49 519.11,-76.19"/>
</g>
</g>
</svg>
