<?xml version="1.0" encoding="UTF-8" standalone="no"?>
<!DOCTYPE svg PUBLIC "-//W3C//DTD SVG 1.1//EN"
 "http://www.w3.org/Graphics/SVG/1.1/DTD/svg11.dtd">
<!-- Generated by graphviz version 13.0.1 (20250616.1512)
 -->
<!-- Title: example Pages: 1 -->
<svg width="75pt" height="504pt"
 viewBox="0.00 0.00 75.00 504.00" xmlns="http://www.w3.org/2000/svg" xmlns:xlink="http://www.w3.org/1999/xlink">
<g id="graph0" class="graph" transform="scale(0.452873 0.452873) rotate(0) translate(4 1108.89)">
<title>example</title>
<polygon fill="none" stroke="none" points="-4,4 -4,-1108.89 162,-1108.89 162,4 -4,4"/>
<g id="clust1" class="cluster">
<title>cluster_1</title>
<polygon fill="none" stroke="black" stroke-dasharray="5,2" points="8,-707.23 8,-1096.89 150,-1096.89 150,-707.23 8,-707.23"/>
<text xml:space="preserve" text-anchor="middle" x="79" y="-1079.59" font-family="sans" font-size="14.00">1</text>
</g>
<g id="clust2" class="cluster">
<title>cluster_2</title>
<polygon fill="none" stroke="black" stroke-dasharray="5,2" points="8,-405.67 8,-699.23 150,-699.23 150,-405.67 8,-405.67"/>
<text xml:space="preserve" text-anchor="middle" x="79" y="-681.93" font-family="sans" font-size="14.00">2</text>
</g>
<g id="clust3" class="cluster">
<title>cluster_3</title>
<polygon fill="none" stroke="black" stroke-dasharray="5,2" points="8,-8 8,-397.67 150,-397.67 150,-8 8,-8"/>
<text xml:space="preserve" text-anchor="middle" x="79" y="-380.37" font-family="sans" font-size="14.00">3</text>
</g>
<!-- 1/a -->
<g id="node1" class="node">
<title>1/a</title>
<ellipse fill="none" stroke="black" cx="43" cy="-1033.59" rx="27" ry="30.05"/>
<text xml:space="preserve" text-anchor="middle" x="43" y="-1037.54" font-family="sans" font-size="14.00">a</text>
<text xml:space="preserve" text-anchor="middle" x="43" y="-1020.29" font-family="sans" font-size="14.00">1</text>
</g>
<!-- 1/b -->
<g id="node2" class="node">
<title>1/b</title>
<ellipse fill="none" stroke="black" cx="79" cy="-937.49" rx="27" ry="30.05"/>
<text xml:space="preserve" text-anchor="middle" x="79" y="-941.44" font-family="sans" font-size="14.00">b</text>
<text xml:space="preserve" text-anchor="middle" x="79" y="-924.19" font-family="sans" font-size="14.00">1</text>
</g>
<!-- 1/a&#45;&gt;1/b -->
<g id="edge1" class="edge">
<title>1/a&#45;&gt;1/b</title>
<path fill="none" stroke="black" d="M53.41,-1005.37C56.88,-996.3 60.81,-986.03 64.53,-976.3"/>
<polygon fill="black" stroke="black" points="67.77,-977.65 68.07,-967.06 61.23,-975.15 67.77,-977.65"/>
</g>
<!-- 1/d -->
<g id="node3" class="node">
<title>1/d</title>
<ellipse fill="none" stroke="black" cx="43" cy="-841.38" rx="27" ry="30.05"/>
<text xml:space="preserve" text-anchor="middle" x="43" y="-845.33" font-family="sans" font-size="14.00">d</text>
<text xml:space="preserve" text-anchor="middle" x="43" y="-828.08" font-family="sans" font-size="14.00">1</text>
</g>
<!-- 1/b&#45;&gt;1/d -->
<g id="edge3" class="edge">
<title>1/b&#45;&gt;1/d</title>
<path fill="none" stroke="black" d="M68.59,-909.27C65.12,-900.2 61.19,-889.92 57.47,-880.2"/>
<polygon fill="black" stroke="black" points="60.77,-879.05 53.93,-870.96 54.23,-881.55 60.77,-879.05"/>
</g>
<!-- 1/f -->
<g id="node4" class="node">
<title>1/f</title>
<ellipse fill="none" stroke="black" cx="115" cy="-841.38" rx="27" ry="30.05"/>
<text xml:space="preserve" text-anchor="middle" x="115" y="-845.33" font-family="sans" font-size="14.00">f</text>
<text xml:space="preserve" text-anchor="middle" x="115" y="-828.08" font-family="sans" font-size="14.00">1</text>
</g>
<!-- 1/b&#45;&gt;1/f -->
<g id="edge2" class="edge">
<title>1/b&#45;&gt;1/f</title>
<path fill="none" stroke="black" d="M89.41,-909.27C92.88,-900.2 96.81,-889.92 100.53,-880.2"/>
<polygon fill="black" stroke="black" points="103.77,-881.55 104.07,-870.96 97.23,-879.05 103.77,-881.55"/>
</g>
<!-- 1/e -->
<g id="node6" class="node">
<title>1/e</title>
<ellipse fill="none" stroke="black" cx="43" cy="-745.28" rx="27" ry="30.05"/>
<text xml:space="preserve" text-anchor="middle" x="43" y="-749.23" font-family="sans" font-size="14.00">e</text>
<text xml:space="preserve" text-anchor="middle" x="43" y="-731.98" font-family="sans" font-size="14.00">1</text>
</g>
<!-- 1/d&#45;&gt;1/e -->
<g id="edge13" class="edge">
<title>1/d&#45;&gt;1/e</title>
<path fill="none" stroke="black" d="M43,-810.87C43,-803.33 43,-795.1 43,-787.11"/>
<polygon fill="black" stroke="black" points="46.5,-787.21 43,-777.21 39.5,-787.21 46.5,-787.21"/>
</g>
<!-- 2/c -->
<g id="node11" class="node">
<title>2/c</title>
<ellipse fill="none" stroke="black" cx="115" cy="-635.93" rx="27" ry="30.05"/>
<text xml:space="preserve" text-anchor="middle" x="115" y="-639.88" font-family="sans" font-size="14.00">c</text>
<text xml:space="preserve" text-anchor="middle" x="115" y="-622.63" font-family="sans" font-size="14.00">2</text>
</g>
<!-- 1/f&#45;&gt;2/c -->
<g id="edge17" class="edge">
<title>1/f&#45;&gt;2/c</title>
<path fill="none" stroke="black" d="M115,-811.23C115,-776.21 115,-717.23 115,-677.7"/>
<polygon fill="black" stroke="black" points="118.5,-677.87 115,-667.87 111.5,-677.87 118.5,-677.87"/>
</g>
<!-- 1/c -->
<g id="node5" class="node">
<title>1/c</title>
<ellipse fill="none" stroke="black" cx="115" cy="-1033.59" rx="27" ry="30.05"/>
<text xml:space="preserve" text-anchor="middle" x="115" y="-1037.54" font-family="sans" font-size="14.00">c</text>
<text xml:space="preserve" text-anchor="middle" x="115" y="-1020.29" font-family="sans" font-size="14.00">1</text>
</g>
<!-- 1/c&#45;&gt;1/b -->
<g id="edge4" class="edge">
<title>1/c&#45;&gt;1/b</title>
<path fill="none" stroke="black" d="M104.59,-1005.37C101.12,-996.3 97.19,-986.03 93.47,-976.3"/>
<polygon fill="black" stroke="black" points="96.77,-975.15 89.93,-967.06 90.23,-977.65 96.77,-975.15"/>
</g>
<!-- 2/a -->
<g id="node7" class="node">
<title>2/a</title>
<ellipse fill="none" stroke="black" cx="43" cy="-635.93" rx="27" ry="30.05"/>
<text xml:space="preserve" text-anchor="middle" x="43" y="-639.88" font-family="sans" font-size="14.00">a</text>
<text xml:space="preserve" text-anchor="middle" x="43" y="-622.63" font-family="sans" font-size="14.00">2</text>
</g>
<!-- 1/e&#45;&gt;2/a -->
<g id="edge14" class="edge">
<title>1/e&#45;&gt;2/a</title>
<path fill="none" stroke="black" d="M43,-714.95C43,-703.47 43,-690.1 43,-677.71"/>
<polygon fill="black" stroke="black" points="46.5,-677.74 43,-667.74 39.5,-677.74 46.5,-677.74"/>
</g>
<!-- 2/b -->
<g id="node8" class="node">
<title>2/b</title>
<ellipse fill="none" stroke="black" cx="43" cy="-539.82" rx="27" ry="30.05"/>
<text xml:space="preserve" text-anchor="middle" x="43" y="-543.77" font-family="sans" font-size="14.00">b</text>
<text xml:space="preserve" text-anchor="middle" x="43" y="-526.52" font-family="sans" font-size="14.00">2</text>
</g>
<!-- 2/a&#45;&gt;2/b -->
<g id="edge5" class="edge">
<title>2/a&#45;&gt;2/b</title>
<path fill="none" stroke="black" d="M43,-605.41C43,-597.88 43,-589.64 43,-581.66"/>
<polygon fill="black" stroke="black" points="46.5,-581.75 43,-571.75 39.5,-581.75 46.5,-581.75"/>
</g>
<!-- 2/d -->
<g id="node9" class="node">
<title>2/d</title>
<ellipse fill="none" stroke="black" cx="43" cy="-443.72" rx="27" ry="30.05"/>
<text xml:space="preserve" text-anchor="middle" x="43" y="-447.67" font-family="sans" font-size="14.00">d</text>
<text xml:space="preserve" text-anchor="middle" x="43" y="-430.42" font-family="sans" font-size="14.00">2</text>
</g>
<!-- 2/b&#45;&gt;2/d -->
<g id="edge7" class="edge">
<title>2/b&#45;&gt;2/d</title>
<path fill="none" stroke="black" d="M43,-509.31C43,-501.77 43,-493.54 43,-485.55"/>
<polygon fill="black" stroke="black" points="46.5,-485.64 43,-475.64 39.5,-485.64 46.5,-485.64"/>
</g>
<!-- 2/f -->
<g id="node10" class="node">
<title>2/f</title>
<ellipse fill="none" stroke="black" cx="115" cy="-443.72" rx="27" ry="30.05"/>
<text xml:space="preserve" text-anchor="middle" x="115" y="-447.67" font-family="sans" font-size="14.00">f</text>
<text xml:space="preserve" text-anchor="middle" x="115" y="-430.42" font-family="sans" font-size="14.00">2</text>
</g>
<!-- 2/b&#45;&gt;2/f -->
<g id="edge6" class="edge">
<title>2/b&#45;&gt;2/f</title>
<path fill="none" stroke="black" d="M60.06,-516.52C69.32,-504.42 80.91,-489.27 91.06,-476.01"/>
<polygon fill="black" stroke="black" points="93.59,-478.46 96.89,-468.39 88.03,-474.2 93.59,-478.46"/>
</g>
<!-- 3/a -->
<g id="node12" class="node">
<title>3/a</title>
<ellipse fill="none" stroke="black" cx="43" cy="-334.36" rx="27" ry="30.05"/>
<text xml:space="preserve" text-anchor="middle" x="43" y="-338.31" font-family="sans" font-size="14.00">a</text>
<text xml:space="preserve" text-anchor="middle" x="43" y="-321.06" font-family="sans" font-size="14.00">3</text>
</g>
<!-- 2/d&#45;&gt;3/a -->
<g id="edge16" class="edge">
<title>2/d&#45;&gt;3/a</title>
<path fill="none" stroke="black" d="M43,-413.38C43,-401.9 43,-388.54 43,-376.15"/>
<polygon fill="black" stroke="black" points="46.5,-376.18 43,-366.18 39.5,-376.18 46.5,-376.18"/>
</g>
<!-- 3/c -->
<g id="node16" class="node">
<title>3/c</title>
<ellipse fill="none" stroke="black" cx="115" cy="-334.36" rx="27" ry="30.05"/>
<text xml:space="preserve" text-anchor="middle" x="115" y="-338.31" font-family="sans" font-size="14.00">c</text>
<text xml:space="preserve" text-anchor="middle" x="115" y="-321.06" font-family="sans" font-size="14.00">3</text>
</g>
<!-- 2/f&#45;&gt;3/c -->
<g id="edge18" class="edge">
<title>2/f&#45;&gt;3/c</title>
<path fill="none" stroke="black" d="M115,-413.38C115,-401.9 115,-388.54 115,-376.15"/>
<polygon fill="black" stroke="black" points="118.5,-376.18 115,-366.18 111.5,-376.18 118.5,-376.18"/>
</g>
<!-- 2/c&#45;&gt;2/b -->
<g id="edge8" class="edge">
<title>2/c&#45;&gt;2/b</title>
<path fill="none" stroke="black" d="M97.94,-612.63C88.68,-600.53 77.09,-585.37 66.94,-572.11"/>
<polygon fill="black" stroke="black" points="69.97,-570.31 61.11,-564.49 64.41,-574.56 69.97,-570.31"/>
</g>
<!-- 3/b -->
<g id="node13" class="node">
<title>3/b</title>
<ellipse fill="none" stroke="black" cx="79" cy="-238.26" rx="27" ry="30.05"/>
<text xml:space="preserve" text-anchor="middle" x="79" y="-242.21" font-family="sans" font-size="14.00">b</text>
<text xml:space="preserve" text-anchor="middle" x="79" y="-224.96" font-family="sans" font-size="14.00">3</text>
</g>
<!-- 3/a&#45;&gt;3/b -->
<g id="edge9" class="edge">
<title>3/a&#45;&gt;3/b</title>
<path fill="none" stroke="black" d="M53.41,-306.15C56.88,-297.07 60.81,-286.8 64.53,-277.07"/>
<polygon fill="black" stroke="black" points="67.77,-278.42 68.07,-267.83 61.23,-275.92 67.77,-278.42"/>
</g>
<!-- 3/d -->
<g id="node14" class="node">
<title>3/d</title>
<ellipse fill="none" stroke="black" cx="43" cy="-142.16" rx="27" ry="30.05"/>
<text xml:space="preserve" text-anchor="middle" x="43" y="-146.11" font-family="sans" font-size="14.00">d</text>
<text xml:space="preserve" text-anchor="middle" x="43" y="-128.86" font-family="sans" font-size="14.00">3</text>
</g>
<!-- 3/b&#45;&gt;3/d -->
<g id="edge11" class="edge">
<title>3/b&#45;&gt;3/d</title>
<path fill="none" stroke="black" d="M68.59,-210.04C65.12,-200.97 61.19,-190.7 57.47,-180.97"/>
<polygon fill="black" stroke="black" points="60.77,-179.82 53.93,-171.73 54.23,-182.32 60.77,-179.82"/>
</g>
<!-- 3/f -->
<g id="node15" class="node">
<title>3/f</title>
<ellipse fill="none" stroke="black" cx="115" cy="-142.16" rx="27" ry="30.05"/>
<text xml:space="preserve" text-anchor="middle" x="115" y="-146.11" font-family="sans" font-size="14.00">f</text>
<text xml:space="preserve" text-anchor="middle" x="115" y="-128.86" font-family="sans" font-size="14.00">3</text>
</g>
<!-- 3/b&#45;&gt;3/f -->
<g id="edge10" class="edge">
<title>3/b&#45;&gt;3/f</title>
<path fill="none" stroke="black" d="M89.41,-210.04C92.88,-200.97 96.81,-190.7 100.53,-180.97"/>
<polygon fill="black" stroke="black" points="103.77,-182.32 104.07,-171.73 97.23,-179.82 103.77,-182.32"/>
</g>
<!-- 3/e -->
<g id="node17" class="node">
<title>3/e</title>
<ellipse fill="none" stroke="black" cx="43" cy="-46.05" rx="27" ry="30.05"/>
<text xml:space="preserve" text-anchor="middle" x="43" y="-50" font-family="sans" font-size="14.00">e</text>
<text xml:space="preserve" text-anchor="middle" x="43" y="-32.75" font-family="sans" font-size="14.00">3</text>
</g>
<!-- 3/d&#45;&gt;3/e -->
<g id="edge15" class="edge">
<title>3/d&#45;&gt;3/e</title>
<path fill="none" stroke="black" d="M43,-111.64C43,-104.11 43,-95.87 43,-87.88"/>
<polygon fill="black" stroke="black" points="46.5,-87.98 43,-77.98 39.5,-87.98 46.5,-87.98"/>
</g>
<!-- 3/c&#45;&gt;3/b -->
<g id="edge12" class="edge">
<title>3/c&#45;&gt;3/b</title>
<path fill="none" stroke="black" d="M104.59,-306.15C101.12,-297.07 97.19,-286.8 93.47,-277.07"/>
<polygon fill="black" stroke="black" points="96.77,-275.92 89.93,-267.83 90.23,-278.42 96.77,-275.92"/>
</g>
</g>
</svg>
