<?xml version="1.0" encoding="UTF-8" standalone="no"?>
<!DOCTYPE svg PUBLIC "-//W3C//DTD SVG 1.1//EN"
 "http://www.w3.org/Graphics/SVG/1.1/DTD/svg11.dtd">
<!-- Generated by graphviz version 13.1.1 (20250720.1534)
 -->
<!-- Title: Example Pages: 1 -->
<svg width="504pt" height="90pt"
 viewBox="0.00 0.00 504.00 90.00" xmlns="http://www.w3.org/2000/svg" xmlns:xlink="http://www.w3.org/1999/xlink">
<g id="graph0" class="graph" transform="scale(0.408428 0.408428) rotate(0) translate(4 217.46)">
<title>Example</title>
<polygon fill="none" stroke="none" points="-4,4 -4,-217.46 1230,-217.46 1230,4 -4,4"/>
<g id="clust1" class="cluster">
<title>cluster_1</title>
<polygon fill="none" stroke="black" stroke-dasharray="5,2" points="8,-8 8,-205.46 486,-205.46 486,-8 8,-8"/>
<text xml:space="preserve" text-anchor="middle" x="247" y="-188.16" font-family="sans" font-size="14.00">2000&#45;01&#45;01T00:00Z</text>
</g>
<g id="clust2" class="cluster">
<title>cluster_2</title>
<polygon fill="none" stroke="black" stroke-dasharray="5,2" points="494,-104.1 494,-205.46 732,-205.46 732,-104.1 494,-104.1"/>
<text xml:space="preserve" text-anchor="middle" x="613" y="-188.16" font-family="sans" font-size="14.00">2000&#45;01&#45;01T12:00Z</text>
</g>
<g id="clust3" class="cluster">
<title>cluster_3</title>
<polygon fill="none" stroke="black" stroke-dasharray="5,2" points="740,-8 740,-205.46 1218,-205.46 1218,-8 740,-8"/>
<text xml:space="preserve" text-anchor="middle" x="979" y="-188.16" font-family="sans" font-size="14.00">2000&#45;01&#45;02T00:00Z</text>
</g>
<!-- 01T00/foo -->
<g id="node1" class="node">
<title>01T00/foo</title>
<ellipse fill="none" stroke="black" cx="127" cy="-142.16" rx="111.02" ry="30.05"/>
<text xml:space="preserve" text-anchor="middle" x="127" y="-146.11" font-family="sans" font-size="14.00">foo</text>
<text xml:space="preserve" text-anchor="middle" x="127" y="-128.86" font-family="sans" font-size="14.00">2000&#45;01&#45;01T00:00Z</text>
</g>
<!-- 01T00/bar -->
<g id="node2" class="node">
<title>01T00/bar</title>
<ellipse fill="none" stroke="black" cx="127" cy="-46.05" rx="111.02" ry="30.05"/>
<text xml:space="preserve" text-anchor="middle" x="127" y="-50" font-family="sans" font-size="14.00">bar</text>
<text xml:space="preserve" text-anchor="middle" x="127" y="-32.75" font-family="sans" font-size="14.00">2000&#45;01&#45;01T00:00Z</text>
</g>
<!-- 01T00/foo&#45;&gt;01T00/bar -->
<g id="edge1" class="edge">
<title>01T00/foo&#45;&gt;01T00/bar</title>
<path fill="none" stroke="black" d="M127,-111.64C127,-104.11 127,-95.87 127,-87.88"/>
<polygon fill="black" stroke="black" points="130.5,-87.98 127,-77.98 123.5,-87.98 130.5,-87.98"/>
</g>
<!-- 01T00/baz -->
<g id="node3" class="node">
<title>01T00/baz</title>
<ellipse fill="none" stroke="black" cx="367" cy="-142.16" rx="111.02" ry="30.05"/>
<text xml:space="preserve" text-anchor="middle" x="367" y="-146.11" font-family="sans" font-size="14.00">baz</text>
<text xml:space="preserve" text-anchor="middle" x="367" y="-128.86" font-family="sans" font-size="14.00">2000&#45;01&#45;01T00:00Z</text>
</g>
<!-- b01T12/az -->
<g id="node4" class="node">
<title>b01T12/az</title>
<ellipse fill="none" stroke="black" cx="613" cy="-142.16" rx="111.02" ry="30.05"/>
<text xml:space="preserve" text-anchor="middle" x="613" y="-146.11" font-family="sans" font-size="14.00">baz</text>
<text xml:space="preserve" text-anchor="middle" x="613" y="-128.86" font-family="sans" font-size="14.00">2000&#45;01&#45;01T12:00Z</text>
</g>
<!-- 02T00/foo -->
<g id="node5" class="node">
<title>02T00/foo</title>
<ellipse fill="none" stroke="black" cx="859" cy="-142.16" rx="111.02" ry="30.05"/>
<text xml:space="preserve" text-anchor="middle" x="859" y="-146.11" font-family="sans" font-size="14.00">foo</text>
<text xml:space="preserve" text-anchor="middle" x="859" y="-128.86" font-family="sans" font-size="14.00">2000&#45;01&#45;02T00:00Z</text>
</g>
<!-- 02T00/bar -->
<g id="node6" class="node">
<title>02T00/bar</title>
<ellipse fill="none" stroke="black" cx="859" cy="-46.05" rx="111.02" ry="30.05"/>
<text xml:space="preserve" text-anchor="middle" x="859" y="-50" font-family="sans" font-size="14.00">bar</text>
<text xml:space="preserve" text-anchor="middle" x="859" y="-32.75" font-family="sans" font-size="14.00">2000&#45;01&#45;02T00:00Z</text>
</g>
<!-- 02T00/foo&#45;&gt;02T00/bar -->
<g id="edge2" class="edge">
<title>02T00/foo&#45;&gt;02T00/bar</title>
<path fill="none" stroke="black" d="M859,-111.64C859,-104.11 859,-95.87 859,-87.88"/>
<polygon fill="black" stroke="black" points="862.5,-87.98 859,-77.98 855.5,-87.98 862.5,-87.98"/>
</g>
<!-- 02T00/baz -->
<g id="node7" class="node">
<title>02T00/baz</title>
<ellipse fill="none" stroke="black" cx="1099" cy="-142.16" rx="111.02" ry="30.05"/>
<text xml:space="preserve" text-anchor="middle" x="1099" y="-146.11" font-family="sans" font-size="14.00">baz</text>
<text xml:space="preserve" text-anchor="middle" x="1099" y="-128.86" font-family="sans" font-size="14.00">2000&#45;01&#45;02T00:00Z</text>
</g>
</g>
</svg>
