<?xml version="1.0" encoding="UTF-8" standalone="no"?>
<!DOCTYPE svg PUBLIC "-//W3C//DTD SVG 1.1//EN"
 "http://www.w3.org/Graphics/SVG/1.1/DTD/svg11.dtd">
<!-- Generated by graphviz version 13.1.2 (20250809.0930)
 -->
<!-- Title: Example Pages: 1 -->
<svg width="376pt" height="373pt"
 viewBox="0.00 0.00 376.00 373.00" xmlns="http://www.w3.org/2000/svg" xmlns:xlink="http://www.w3.org/1999/xlink">
<g id="graph0" class="graph" transform="scale(1 1) rotate(0) translate(4 369.25)">
<title>Example</title>
<polygon fill="none" stroke="none" points="-4,4 -4,-369.25 372,-369.25 372,4 -4,4"/>
<g id="clust1" class="cluster">
<title>cluster_1</title>
<polygon fill="none" stroke="black" stroke-dasharray="5,2" points="8,-64 8,-357.25 120,-357.25 120,-64 8,-64"/>
<text xml:space="preserve" text-anchor="middle" x="64" y="-339.95" font-family="sans" font-size="14.00">x=1</text>
</g>
<g id="clust2" class="cluster">
<title>cluster_2</title>
<polygon fill="none" stroke="black" stroke-dasharray="5,2" points="128,-64 128,-357.25 240,-357.25 240,-64 128,-64"/>
<text xml:space="preserve" text-anchor="middle" x="184" y="-339.95" font-family="sans" font-size="14.00">x=2</text>
</g>
<g id="clust3" class="cluster">
<title>cluster_3</title>
<polygon fill="none" stroke="black" stroke-dasharray="5,2" points="248,-64 248,-357.25 360,-357.25 360,-64 248,-64"/>
<text xml:space="preserve" text-anchor="middle" x="304" y="-339.95" font-family="sans" font-size="14.00">x=3</text>
</g>
<!-- a_1 -->
<g id="node1" class="node">
<title>a_1</title>
<ellipse fill="none" stroke="black" cx="73" cy="-306" rx="28.06" ry="18"/>
<text xml:space="preserve" text-anchor="middle" x="73" y="-301.32" font-family="sans" font-size="14.00">a_1</text>
</g>
<!-- b_1 -->
<g id="node2" class="node">
<title>b_1</title>
<ellipse fill="none" stroke="black" cx="63" cy="-234" rx="28.59" ry="18"/>
<text xml:space="preserve" text-anchor="middle" x="63" y="-229.32" font-family="sans" font-size="14.00">b_1</text>
</g>
<!-- a_1&#45;&gt;b_1 -->
<g id="edge1" class="edge">
<title>a_1&#45;&gt;b_1</title>
<path fill="none" stroke="black" d="M70.53,-287.7C69.47,-280.32 68.22,-271.52 67.04,-263.25"/>
<polygon fill="black" stroke="black" points="70.54,-263.01 65.66,-253.6 63.61,-264 70.54,-263.01"/>
</g>
<!-- end_1 -->
<g id="node4" class="node">
<title>end_1</title>
<ellipse fill="none" stroke="black" cx="71" cy="-90" rx="40.69" ry="18"/>
<text xml:space="preserve" text-anchor="middle" x="71" y="-85.33" font-family="sans" font-size="14.00">end_1</text>
</g>
<!-- a_1&#45;&gt;end_1 -->
<g id="edge3" class="edge">
<title>a_1&#45;&gt;end_1</title>
<path fill="none" stroke="black" stroke-dasharray="5,2" d="M84.02,-289.13C90.35,-279.01 97.69,-265.33 101,-252 112.51,-205.59 95.95,-150.68 83.23,-118.46"/>
<polygon fill="none" stroke="black" points="86.57,-117.37 79.52,-109.46 80.1,-120.04 86.57,-117.37"/>
</g>
<!-- c_1 -->
<g id="node3" class="node">
<title>c_1</title>
<ellipse fill="none" stroke="black" cx="44" cy="-162" rx="27.53" ry="18"/>
<text xml:space="preserve" text-anchor="middle" x="44" y="-157.32" font-family="sans" font-size="14.00">c_1</text>
</g>
<!-- b_1&#45;&gt;c_1 -->
<g id="edge2" class="edge">
<title>b_1&#45;&gt;c_1</title>
<path fill="none" stroke="black" d="M58.4,-216.05C56.35,-208.49 53.87,-199.37 51.56,-190.85"/>
<polygon fill="black" stroke="black" points="54.95,-189.98 48.95,-181.25 48.2,-191.82 54.95,-189.98"/>
</g>
<!-- b_1&#45;&gt;end_1 -->
<g id="edge4" class="edge">
<title>b_1&#45;&gt;end_1</title>
<path fill="none" stroke="black" stroke-dasharray="5,2" d="M70.29,-216.18C74.33,-205.94 78.94,-192.46 81,-180 84.34,-159.81 81.6,-136.85 78.15,-119.31"/>
<polygon fill="none" stroke="black" points="81.59,-118.64 76.04,-109.61 74.75,-120.13 81.59,-118.64"/>
</g>
<!-- c_1&#45;&gt;end_1 -->
<g id="edge5" class="edge">
<title>c_1&#45;&gt;end_1</title>
<path fill="none" stroke="black" stroke-dasharray="5,2" d="M50.54,-144.05C53.52,-136.32 57.13,-126.96 60.48,-118.27"/>
<polygon fill="none" stroke="black" points="63.65,-119.79 63.98,-109.2 57.12,-117.27 63.65,-119.79"/>
</g>
<!-- collate -->
<g id="node13" class="node">
<title>collate</title>
<ellipse fill="none" stroke="black" cx="191" cy="-18" rx="42.79" ry="18"/>
<text xml:space="preserve" text-anchor="middle" x="191" y="-13.32" font-family="sans" font-size="14.00">collate</text>
</g>
<!-- end_1&#45;&gt;collate -->
<g id="edge16" class="edge">
<title>end_1&#45;&gt;collate</title>
<path fill="none" stroke="black" d="M95,-75C112.7,-64.67 137.05,-50.47 156.79,-38.96"/>
<polygon fill="black" stroke="black" points="158.45,-42.04 165.33,-33.98 154.93,-35.99 158.45,-42.04"/>
</g>
<!-- a_2 -->
<g id="node5" class="node">
<title>a_2</title>
<ellipse fill="none" stroke="black" cx="193" cy="-306" rx="28.06" ry="18"/>
<text xml:space="preserve" text-anchor="middle" x="193" y="-301.32" font-family="sans" font-size="14.00">a_2</text>
</g>
<!-- b_2 -->
<g id="node6" class="node">
<title>b_2</title>
<ellipse fill="none" stroke="black" cx="183" cy="-234" rx="28.59" ry="18"/>
<text xml:space="preserve" text-anchor="middle" x="183" y="-229.32" font-family="sans" font-size="14.00">b_2</text>
</g>
<!-- a_2&#45;&gt;b_2 -->
<g id="edge6" class="edge">
<title>a_2&#45;&gt;b_2</title>
<path fill="none" stroke="black" d="M190.53,-287.7C189.47,-280.32 188.22,-271.52 187.04,-263.25"/>
<polygon fill="black" stroke="black" points="190.54,-263.01 185.66,-253.6 183.61,-264 190.54,-263.01"/>
</g>
<!-- end_2 -->
<g id="node8" class="node">
<title>end_2</title>
<ellipse fill="none" stroke="black" cx="191" cy="-90" rx="40.69" ry="18"/>
<text xml:space="preserve" text-anchor="middle" x="191" y="-85.33" font-family="sans" font-size="14.00">end_2</text>
</g>
<!-- a_2&#45;&gt;end_2 -->
<g id="edge8" class="edge">
<title>a_2&#45;&gt;end_2</title>
<path fill="none" stroke="black" stroke-dasharray="5,2" d="M204.02,-289.13C210.35,-279.01 217.69,-265.33 221,-252 232.51,-205.59 215.95,-150.68 203.23,-118.46"/>
<polygon fill="none" stroke="black" points="206.57,-117.37 199.52,-109.46 200.1,-120.04 206.57,-117.37"/>
</g>
<!-- c_2 -->
<g id="node7" class="node">
<title>c_2</title>
<ellipse fill="none" stroke="black" cx="164" cy="-162" rx="27.53" ry="18"/>
<text xml:space="preserve" text-anchor="middle" x="164" y="-157.32" font-family="sans" font-size="14.00">c_2</text>
</g>
<!-- b_2&#45;&gt;c_2 -->
<g id="edge7" class="edge">
<title>b_2&#45;&gt;c_2</title>
<path fill="none" stroke="black" d="M178.4,-216.05C176.35,-208.49 173.87,-199.37 171.56,-190.85"/>
<polygon fill="black" stroke="black" points="174.95,-189.98 168.95,-181.25 168.2,-191.82 174.95,-189.98"/>
</g>
<!-- b_2&#45;&gt;end_2 -->
<g id="edge9" class="edge">
<title>b_2&#45;&gt;end_2</title>
<path fill="none" stroke="black" stroke-dasharray="5,2" d="M190.29,-216.18C194.33,-205.94 198.94,-192.46 201,-180 204.34,-159.81 201.6,-136.85 198.15,-119.31"/>
<polygon fill="none" stroke="black" points="201.59,-118.64 196.04,-109.61 194.75,-120.13 201.59,-118.64"/>
</g>
<!-- c_2&#45;&gt;end_2 -->
<g id="edge10" class="edge">
<title>c_2&#45;&gt;end_2</title>
<path fill="none" stroke="black" stroke-dasharray="5,2" d="M170.54,-144.05C173.52,-136.32 177.13,-126.96 180.48,-118.27"/>
<polygon fill="none" stroke="black" points="183.65,-119.79 183.98,-109.2 177.12,-117.27 183.65,-119.79"/>
</g>
<!-- end_2&#45;&gt;collate -->
<g id="edge17" class="edge">
<title>end_2&#45;&gt;collate</title>
<path fill="none" stroke="black" d="M191,-71.7C191,-64.41 191,-55.73 191,-47.54"/>
<polygon fill="black" stroke="black" points="194.5,-47.62 191,-37.62 187.5,-47.62 194.5,-47.62"/>
</g>
<!-- a_3 -->
<g id="node9" class="node">
<title>a_3</title>
<ellipse fill="none" stroke="black" cx="313" cy="-306" rx="28.06" ry="18"/>
<text xml:space="preserve" text-anchor="middle" x="313" y="-301.32" font-family="sans" font-size="14.00">a_3</text>
</g>
<!-- b_3 -->
<g id="node10" class="node">
<title>b_3</title>
<ellipse fill="none" stroke="black" cx="303" cy="-234" rx="28.59" ry="18"/>
<text xml:space="preserve" text-anchor="middle" x="303" y="-229.32" font-family="sans" font-size="14.00">b_3</text>
</g>
<!-- a_3&#45;&gt;b_3 -->
<g id="edge11" class="edge">
<title>a_3&#45;&gt;b_3</title>
<path fill="none" stroke="black" d="M310.53,-287.7C309.47,-280.32 308.22,-271.52 307.04,-263.25"/>
<polygon fill="black" stroke="black" points="310.54,-263.01 305.66,-253.6 303.61,-264 310.54,-263.01"/>
</g>
<!-- end_3 -->
<g id="node12" class="node">
<title>end_3</title>
<ellipse fill="none" stroke="black" cx="304" cy="-90" rx="40.69" ry="18"/>
<text xml:space="preserve" text-anchor="middle" x="304" y="-85.33" font-family="sans" font-size="14.00">end_3</text>
</g>
<!-- a_3&#45;&gt;end_3 -->
<g id="edge13" class="edge">
<title>a_3&#45;&gt;end_3</title>
<path fill="none" stroke="black" stroke-dasharray="5,2" d="M324.02,-289.13C330.35,-279.01 337.69,-265.33 341,-252 352.61,-205.19 333,-150.4 318.18,-118.32"/>
<polygon fill="none" stroke="black" points="321.34,-116.82 313.85,-109.33 315.03,-119.86 321.34,-116.82"/>
</g>
<!-- c_3 -->
<g id="node11" class="node">
<title>c_3</title>
<ellipse fill="none" stroke="black" cx="284" cy="-162" rx="27.53" ry="18"/>
<text xml:space="preserve" text-anchor="middle" x="284" y="-157.32" font-family="sans" font-size="14.00">c_3</text>
</g>
<!-- b_3&#45;&gt;c_3 -->
<g id="edge12" class="edge">
<title>b_3&#45;&gt;c_3</title>
<path fill="none" stroke="black" d="M298.4,-216.05C296.35,-208.49 293.87,-199.37 291.56,-190.85"/>
<polygon fill="black" stroke="black" points="294.95,-189.98 288.95,-181.25 288.2,-191.82 294.95,-189.98"/>
</g>
<!-- b_3&#45;&gt;end_3 -->
<g id="edge14" class="edge">
<title>b_3&#45;&gt;end_3</title>
<path fill="none" stroke="black" stroke-dasharray="5,2" d="M310.29,-216.18C314.33,-205.94 318.94,-192.46 321,-180 323.61,-164.21 323.47,-159.81 321,-144 319.68,-135.56 317.25,-126.64 314.62,-118.56"/>
<polygon fill="none" stroke="black" points="317.99,-117.58 311.39,-109.29 311.38,-119.88 317.99,-117.58"/>
</g>
<!-- c_3&#45;&gt;end_3 -->
<g id="edge15" class="edge">
<title>c_3&#45;&gt;end_3</title>
<path fill="none" stroke="black" stroke-dasharray="5,2" d="M288.84,-144.05C290.97,-136.6 293.53,-127.64 295.94,-119.22"/>
<polygon fill="none" stroke="black" points="299.27,-120.31 298.65,-109.73 292.54,-118.38 299.27,-120.31"/>
</g>
<!-- end_3&#45;&gt;collate -->
<g id="edge18" class="edge">
<title>end_3&#45;&gt;collate</title>
<path fill="none" stroke="black" d="M281.13,-74.83C264.7,-64.65 242.3,-50.78 223.94,-39.41"/>
<polygon fill="black" stroke="black" points="225.85,-36.47 215.51,-34.18 222.17,-42.42 225.85,-36.47"/>
</g>
</g>
</svg>
