<?xml version="1.0" encoding="UTF-8" standalone="no"?>
<svg
   xmlns:dc="http://purl.org/dc/elements/1.1/"
   xmlns:cc="http://creativecommons.org/ns#"
   xmlns:rdf="http://www.w3.org/1999/02/22-rdf-syntax-ns#"
   xmlns:svg="http://www.w3.org/2000/svg"
   xmlns="http://www.w3.org/2000/svg"
   id="svg158"
   version="1.1"
   viewBox="401 182 695.52212 183.69713"
   height="9.2310114cm"
   width="35.252491cm">
  <metadata
     id="metadata164">
    <rdf:RDF>
      <cc:Work
         rdf:about="">
        <dc:format>image/svg+xml</dc:format>
        <dc:type
           rdf:resource="http://purl.org/dc/dcmitype/StillImage" />
        <dc:title></dc:title>
      </cc:Work>
    </rdf:RDF>
  </metadata>
  <defs
     id="defs162" />
  <g
     transform="translate(-17.208629,-9.529445)"
     id="g46">
    <line
       id="line2"
       y2="351.33301"
       x2="420"
       y1="347"
       x1="420"
       style="fill:none;fill-opacity:0;stroke:#000000;stroke-width:1" />
    <line
       id="line4"
       y2="351.33301"
       x2="535.33301"
       y1="347"
       x1="535.33301"
       style="fill:none;fill-opacity:0;stroke:#000000;stroke-width:1" />
    <line
       id="line6"
       y2="351.33301"
       x2="650.66699"
       y1="347"
       x1="650.66699"
       style="fill:none;fill-opacity:0;stroke:#000000;stroke-width:1" />
    <line
       id="line8"
       y2="351.33301"
       x2="766"
       y1="347"
       x1="766"
       style="fill:none;fill-opacity:0;stroke:#000000;stroke-width:1" />
    <line
       id="line10"
       y2="351.33301"
       x2="881.33301"
       y1="347"
       x1="881.33301"
       style="fill:none;fill-opacity:0;stroke:#000000;stroke-width:1" />
    <line
       id="line12"
       y2="351.33301"
       x2="996.66699"
       y1="347"
       x1="996.66699"
       style="fill:none;fill-opacity:0;stroke:#000000;stroke-width:1" />
    <line
       id="line14"
       y2="351.33301"
       x2="1112"
       y1="347"
       x1="1112"
       style="fill:none;fill-opacity:0;stroke:#000000;stroke-width:1" />
    <line
       id="line16"
       y2="360"
       x2="420"
       y1="347"
       x1="420"
       style="fill:none;fill-opacity:0;stroke:#000000;stroke-width:2" />
    <text
       id="text18"
       y="375"
       x="420"
       style="font-style:normal;font-weight:normal;font-size:16px;font-family:sans-serif;text-anchor:middle;fill:#000000"
       font-size="16">1</text>
    <line
       id="line20"
       y2="360"
       x2="535.33301"
       y1="347"
       x1="535.33301"
       style="fill:none;fill-opacity:0;stroke:#000000;stroke-width:2" />
    <text
       id="text22"
       y="375"
       x="535.33301"
       style="font-style:normal;font-weight:normal;font-size:16px;font-family:sans-serif;text-anchor:middle;fill:#000000"
       font-size="16">2</text>
    <line
       id="line24"
       y2="360"
       x2="650.66699"
       y1="347"
       x1="650.66699"
       style="fill:none;fill-opacity:0;stroke:#000000;stroke-width:2" />
    <text
       id="text26"
       y="375"
       x="650.66699"
       style="font-style:normal;font-weight:normal;font-size:16px;font-family:sans-serif;text-anchor:middle;fill:#000000"
       font-size="16">3</text>
    <line
       id="line28"
       y2="360"
       x2="766"
       y1="347"
       x1="766"
       style="fill:none;fill-opacity:0;stroke:#000000;stroke-width:2" />
    <text
       id="text30"
       y="375"
       x="766"
       style="font-style:normal;font-weight:normal;font-size:16px;font-family:sans-serif;text-anchor:middle;fill:#000000"
       font-size="16">4</text>
    <line
       id="line32"
       y2="360"
       x2="881.33301"
       y1="347"
       x1="881.33301"
       style="fill:none;fill-opacity:0;stroke:#000000;stroke-width:2" />
    <text
       id="text34"
       y="375"
       x="881.33301"
       style="font-style:normal;font-weight:normal;font-size:16px;font-family:sans-serif;text-anchor:middle;fill:#000000"
       font-size="16">5</text>
    <line
       id="line36"
       y2="360"
       x2="996.66699"
       y1="347"
       x1="996.66699"
       style="fill:none;fill-opacity:0;stroke:#000000;stroke-width:2" />
    <text
       id="text38"
       y="375"
       x="996.66699"
       style="font-style:normal;font-weight:normal;font-size:16px;font-family:sans-serif;text-anchor:middle;fill:#000000"
       font-size="16">6</text>
    <line
       id="line40"
       y2="360"
       x2="1112"
       y1="347"
       x1="1112"
       style="fill:none;fill-opacity:0;stroke:#000000;stroke-width:2" />
    <text
       id="text42"
       y="375"
       x="1112"
       style="font-style:normal;font-weight:normal;font-size:16px;font-family:sans-serif;text-anchor:middle;fill:#000000"
       font-size="16">7</text>
    <line
       id="line44"
       y2="347"
       x2="1112"
       y1="347"
       x1="420"
       style="fill:none;fill-opacity:0;stroke:#000000;stroke-width:2" />
  </g>
  <g
     transform="translate(-17.208629,-9.529445)"
     id="g54">
    <path
       id="path48"
       d="M 527.16,338.374 A 74.053,74.053 0 0 0 420,347"
       style="fill:none;fill-opacity:0;stroke:#ffa500;stroke-width:4" />
    <polygon
       id="polygon50"
       points="531.699,334.518 523.912,340.792 534.079,345.443 "
       style="fill:#ffa500" />
    <polygon
       id="polygon52"
       points="531.699,334.518 523.912,340.792 534.079,345.443 "
       style="fill:none;fill-opacity:0;stroke:#ffa500;stroke-width:4" />
  </g>
  <g
     transform="translate(-17.208629,-9.529445)"
     id="g62">
    <path
       id="path56"
       d="M 642.492,338.374 A 74.0509,74.0509 0 0 0 535.334,347"
       style="fill:none;fill-opacity:0;stroke:#ffa500;stroke-width:4" />
    <polygon
       id="polygon58"
       points="647.031,334.518 639.244,340.792 649.411,345.443 "
       style="fill:#ffa500" />
    <polygon
       id="polygon60"
       points="647.031,334.518 639.244,340.792 649.411,345.443 "
       style="fill:none;fill-opacity:0;stroke:#ffa500;stroke-width:4" />
  </g>
  <g
     transform="translate(-17.208629,-9.529445)"
     id="g70">
    <path
       id="path64"
       d="M 757.826,338.374 A 74.053,74.053 0 0 0 650.666,347"
       style="fill:none;fill-opacity:0;stroke:#ffa500;stroke-width:4" />
    <polygon
       id="polygon66"
       points="762.365,334.518 754.578,340.792 764.745,345.443 "
       style="fill:#ffa500" />
    <polygon
       id="polygon68"
       points="762.365,334.518 754.578,340.792 764.745,345.443 "
       style="fill:none;fill-opacity:0;stroke:#ffa500;stroke-width:4" />
  </g>
  <g
     transform="translate(-17.208629,-9.529445)"
     id="g78">
    <path
       id="path72"
       d="M 873.16,338.374 A 74.053,74.053 0 0 0 766,347"
       style="fill:none;fill-opacity:0;stroke:#ffa500;stroke-width:4" />
    <polygon
       id="polygon74"
       points="877.699,334.518 869.912,340.792 880.079,345.443 "
       style="fill:#ffa500" />
    <polygon
       id="polygon76"
       points="877.699,334.518 869.912,340.792 880.079,345.443 "
       style="fill:none;fill-opacity:0;stroke:#ffa500;stroke-width:4" />
  </g>
  <g
     transform="translate(-17.208629,-9.529445)"
     id="g86">
    <path
       id="path80"
       d="M 988.492,338.374 A 74.0509,74.0509 0 0 0 881.334,347"
       style="fill:none;fill-opacity:0;stroke:#ffa500;stroke-width:4" />
    <polygon
       id="polygon82"
       points="993.031,334.518 985.244,340.792 995.411,345.443 "
       style="fill:#ffa500" />
    <polygon
       id="polygon84"
       points="993.031,334.518 985.244,340.792 995.411,345.443 "
       style="fill:none;fill-opacity:0;stroke:#ffa500;stroke-width:4" />
  </g>
  <g
     transform="translate(-17.208629,-9.529445)"
     id="g94">
    <path
       id="path88"
       d="M 1103.83,338.374 A 74.053,74.053 0 0 0 996.666,347"
       style="fill:none;fill-opacity:0;stroke:#ffa500;stroke-width:4" />
    <polygon
       id="polygon90"
       points="1108.37,334.518 1100.58,340.792 1110.75,345.443 "
       style="fill:#ffa500" />
    <polygon
       id="polygon92"
       points="1108.37,334.518 1100.58,340.792 1110.75,345.443 "
       style="fill:none;fill-opacity:0;stroke:#ffa500;stroke-width:4" />
  </g>
  <g
     transform="translate(-17.208629,-9.529445)"
     id="g102">
    <path
       id="path96"
       d="M 645.175,336.375 A 126.876,126.876 0 0 0 420,347"
       style="fill:none;fill-opacity:0;stroke:#dc0782;stroke-width:4" />
    <polygon
       id="polygon98"
       points="650.21,334.008 641.12,338.176 649.832,345.182 "
       style="fill:#dc0782" />
    <polygon
       id="polygon100"
       points="650.21,334.008 641.12,338.176 649.832,345.182 "
       style="fill:none;fill-opacity:0;stroke:#dc0782;stroke-width:4" />
  </g>
  <g
     transform="translate(-17.208629,-9.529445)"
     id="g110">
    <path
       id="path104"
       d="M 875.843,336.375 A 126.878,126.878 0 0 0 650.666,347"
       style="fill:none;fill-opacity:0;stroke:#dc0782;stroke-width:4" />
    <polygon
       id="polygon106"
       points="880.878,334.008 871.788,338.176 880.5,345.182 "
       style="fill:#dc0782" />
    <polygon
       id="polygon108"
       points="880.878,334.008 871.788,338.176 880.5,345.182 "
       style="fill:none;fill-opacity:0;stroke:#dc0782;stroke-width:4" />
  </g>
  <g
     transform="translate(-17.208629,-9.529445)"
     id="g118">
    <path
       id="path112"
       d="M 1106.51,336.375 A 126.876,126.876 0 0 0 881.334,347"
       style="fill:none;fill-opacity:0;stroke:#dc0782;stroke-width:4" />
    <polygon
       id="polygon114"
       points="1111.54,334.008 1102.45,338.176 1111.17,345.182 "
       style="fill:#dc0782" />
    <polygon
       id="polygon116"
       points="1111.54,334.008 1102.45,338.176 1111.17,345.182 "
       style="fill:none;fill-opacity:0;stroke:#dc0782;stroke-width:4" />
  </g>
  <g
     transform="translate(-17.208629,-9.529445)"
     id="g126">
    <path
       id="path120"
       d="M 762.472,335.551 A 180.306,180.306 0 0 0 417,351"
       style="fill:none;fill-opacity:0;stroke:#0000ff;stroke-width:4" />
    <polygon
       id="polygon122"
       points="767.674,334.108 758.025,336.734 765.475,345.07 "
       style="fill:#0000ff" />
    <polygon
       id="polygon124"
       points="767.674,334.108 758.025,336.734 765.475,345.07 "
       style="fill:none;fill-opacity:0;stroke:#0000ff;stroke-width:4" />
  </g>
  <g
     transform="translate(-17.208629,-9.529445)"
     id="g134">
    <path
       id="path128"
       d="M 1108.7,335.485 A 178.36,178.36 0 0 0 766,347"
       style="fill:none;fill-opacity:0;stroke:#0000ff;stroke-width:4" />
    <polygon
       id="polygon130"
       points="1113.93,334.144 1104.23,336.577 1111.51,345.06 "
       style="fill:#0000ff" />
    <polygon
       id="polygon132"
       points="1113.93,334.144 1104.23,336.577 1111.51,345.06 "
       style="fill:none;fill-opacity:0;stroke:#0000ff;stroke-width:4" />
  </g>
  <text
     id="text138"
     y="274.47055"
     x="493.79138"
     style="font-style:normal;font-weight:700;font-size:17.88159943px;font-family:sans-serif;text-anchor:start;fill:#000000"
     font-size="17.8816">
    <tspan
       id="tspan136"
       y="274.47055"
       x="493.79138" />
  </text>
  <text
     id="text146"
     y="195.03575"
     x="688.9505"
     style="font-style:normal;font-weight:700;font-size:17.88159943px;font-family:sans-serif;text-anchor:start;fill:#000000"
     font-size="17.8816">
    <tspan
       id="tspan140"
       y="195.03575"
       x="688.9505">Foo</tspan>
    <tspan
       id="tspan142"
       y="217.38774"
       x="688.9505">Bar</tspan>
    <tspan
       id="tspan144"
       y="239.73975"
       x="688.9505">Baz</tspan>
  </text>
  <line
     id="line148"
     y2="188.36176"
     x2="807.28247"
     y1="189.35974"
     x1="745.28247"
     style="fill:none;fill-opacity:0;stroke:#ffa500;stroke-width:4" />
  <line
     id="line150"
     y2="211.36176"
     x2="807.28247"
     y1="212.35974"
     x1="745.28247"
     style="fill:none;fill-opacity:0;stroke:#dc0782;stroke-width:4" />
  <line
     id="line152"
     y2="233.36176"
     x2="807.28247"
     y1="234.35974"
     x1="745.28247"
     style="fill:none;fill-opacity:0;stroke:#0000ff;stroke-width:4" />
  <text
     id="text156"
     y="190.47055"
     x="727.79138"
     style="font-style:normal;font-weight:normal;font-size:12.79979992px;font-family:sans-serif;text-anchor:start;fill:#000000"
     font-size="12.7998">
    <tspan
       id="tspan154"
       y="190.47055"
       x="727.79138" />
  </text>
</svg>
