<?xml version="1.0" encoding="UTF-8" standalone="no"?>
<!DOCTYPE svg PUBLIC "-//W3C//DTD SVG 1.1//EN"
 "http://www.w3.org/Graphics/SVG/1.1/DTD/svg11.dtd">
<!-- Generated by graphviz version 8.1.0 (20230707.2238)
 -->
<!-- Title: Example Pages: 1 -->
<svg width="176pt" height="193pt"
 viewBox="0.00 0.00 175.53 193.25" xmlns="http://www.w3.org/2000/svg" xmlns:xlink="http://www.w3.org/1999/xlink">
<g id="graph0" class="graph" transform="scale(1 1) rotate(0) translate(4 189.25)">
<title>Example</title>
<polygon fill="none" stroke="none" points="-4,4 -4,-189.25 171.53,-189.25 171.53,4 -4,4"/>
<g id="clust1" class="cluster">
<title>cluster_1</title>
<polygon fill="none" stroke="red" stroke-dasharray="5,2" points="8,-64 8,-141.25 120,-141.25 120,-64 8,-64"/>
<text text-anchor="middle" x="64" y="-123.95" font-family="sans" font-size="14.00" fill="red">:fail</text>
</g>
<!-- recover -->
<g id="node1" class="node">
<title>recover</title>
<ellipse fill="none" stroke="black" cx="64" cy="-90" rx="47.53" ry="18"/>
<text text-anchor="middle" x="64" y="-85.33" font-family="sans" font-size="14.00">recover</text>
</g>
<!-- bar -->
<g id="node3" class="node">
<title>bar</title>
<ellipse fill="none" stroke="black" cx="140" cy="-18" rx="27.53" ry="18"/>
<text text-anchor="middle" x="140" y="-13.32" font-family="sans" font-size="14.00">bar</text>
</g>
<!-- recover&#45;&gt;bar -->
<g id="edge2" class="edge">
<title>recover&#45;&gt;bar</title>
<path fill="none" stroke="black" d="M81.25,-73.12C91.75,-63.44 105.3,-50.96 116.74,-40.42"/>
<polygon fill="none" stroke="black" points="118.64,-43.51 123.63,-34.16 113.9,-38.36 118.64,-43.51"/>
</g>
<!-- foo -->
<g id="node2" class="node">
<title>foo</title>
<ellipse fill="none" stroke="black" cx="140" cy="-167.25" rx="27" ry="18"/>
<text text-anchor="middle" x="140" y="-162.57" font-family="sans" font-size="14.00">foo</text>
</g>
<!-- foo&#45;&gt;recover -->
<g id="edge1" class="edge">
<title>foo&#45;&gt;recover</title>
<path fill="none" stroke="black" d="M125.35,-151.74C114.8,-141.3 100.34,-126.98 88.11,-114.87"/>
<polygon fill="black" stroke="black" points="91.02,-112.84 81.46,-108.29 86.1,-117.82 91.02,-112.84"/>
</g>
<!-- foo&#45;&gt;bar -->
<g id="edge3" class="edge">
<title>foo&#45;&gt;bar</title>
<path fill="none" stroke="black" d="M140,-148.78C140,-123.76 140,-77.44 140,-47.44"/>
<polygon fill="none" stroke="black" points="143.5,-47.45 140,-37.45 136.5,-47.45 143.5,-47.45"/>
</g>
</g>
</svg>
