<?xml version="1.0" encoding="UTF-8" standalone="no"?>
<!DOCTYPE svg PUBLIC "-//W3C//DTD SVG 1.1//EN"
 "http://www.w3.org/Graphics/SVG/1.1/DTD/svg11.dtd">
<!-- Generated by graphviz version 8.1.0 (20230707.2238)
 -->
<!-- Title: Example Pages: 1 -->
<svg width="216pt" height="332pt"
 viewBox="0.00 0.00 215.75 332.00" xmlns="http://www.w3.org/2000/svg" xmlns:xlink="http://www.w3.org/1999/xlink">
<g id="graph0" class="graph" transform="scale(1 1) rotate(0) translate(4 328)">
<title>Example</title>
<polygon fill="none" stroke="none" points="-4,4 -4,-328 211.75,-328 211.75,4 -4,4"/>
<!-- AIRPLANE -->
<g id="node1" class="node">
<title>AIRPLANE</title>
<polygon fill="powderblue" stroke="royalblue" points="85.75,-108 0,-108 0,-72 85.75,-72 85.75,-108"/>
<text text-anchor="middle" x="42.88" y="-85.33" font-family="sans" font-size="14.00">AIRPLANE</text>
</g>
<!-- a380 -->
<g id="node2" class="node">
<title>a380</title>
<polygon fill="powderblue" stroke="royalblue" points="69.88,-36 15.88,-36 15.88,0 69.88,0 69.88,-36"/>
<text text-anchor="middle" x="42.88" y="-13.32" font-family="sans" font-size="14.00">a380</text>
</g>
<!-- AIRPLANE&#45;&gt;a380 -->
<g id="edge1" class="edge">
<title>AIRPLANE&#45;&gt;a380</title>
<path fill="none" stroke="royalblue" d="M42.88,-71.7C42.88,-64.24 42.88,-55.32 42.88,-46.97"/>
<polygon fill="royalblue" stroke="royalblue" points="46.38,-47.1 42.88,-37.1 39.38,-47.1 46.38,-47.1"/>
</g>
<!-- HELICOPTER -->
<g id="node3" class="node">
<title>HELICOPTER</title>
<polygon fill="powderblue" stroke="royalblue" points="207.75,-108 104,-108 104,-72 207.75,-72 207.75,-108"/>
<text text-anchor="middle" x="155.88" y="-85.33" font-family="sans" font-size="14.00">HELICOPTER</text>
</g>
<!-- r44 -->
<g id="node4" class="node">
<title>r44</title>
<polygon fill="powderblue" stroke="royalblue" points="182.88,-36 128.88,-36 128.88,0 182.88,0 182.88,-36"/>
<text text-anchor="middle" x="155.88" y="-13.32" font-family="sans" font-size="14.00">r44</text>
</g>
<!-- HELICOPTER&#45;&gt;r44 -->
<g id="edge2" class="edge">
<title>HELICOPTER&#45;&gt;r44</title>
<path fill="none" stroke="royalblue" d="M155.88,-71.7C155.88,-64.24 155.88,-55.32 155.88,-46.97"/>
<polygon fill="royalblue" stroke="royalblue" points="159.38,-47.1 155.88,-37.1 152.38,-47.1 159.38,-47.1"/>
</g>
<!-- root -->
<g id="node5" class="node">
<title>root</title>
<polygon fill="powderblue" stroke="royalblue" points="125.88,-324 71.88,-324 71.88,-288 125.88,-288 125.88,-324"/>
<text text-anchor="middle" x="98.88" y="-301.32" font-family="sans" font-size="14.00">root</text>
</g>
<!-- VEHICLE -->
<g id="node6" class="node">
<title>VEHICLE</title>
<polygon fill="powderblue" stroke="royalblue" points="136.88,-252 60.88,-252 60.88,-216 136.88,-216 136.88,-252"/>
<text text-anchor="middle" x="98.88" y="-229.32" font-family="sans" font-size="14.00">VEHICLE</text>
</g>
<!-- root&#45;&gt;VEHICLE -->
<g id="edge3" class="edge">
<title>root&#45;&gt;VEHICLE</title>
<path fill="none" stroke="royalblue" d="M98.88,-287.7C98.88,-280.24 98.88,-271.32 98.88,-262.97"/>
<polygon fill="royalblue" stroke="royalblue" points="102.38,-263.1 98.88,-253.1 95.38,-263.1 102.38,-263.1"/>
</g>
<!-- AIR_VEHICLE -->
<g id="node7" class="node">
<title>AIR_VEHICLE</title>
<polygon fill="powderblue" stroke="royalblue" points="152.25,-180 45.5,-180 45.5,-144 152.25,-144 152.25,-180"/>
<text text-anchor="middle" x="98.88" y="-157.32" font-family="sans" font-size="14.00">AIR_VEHICLE</text>
</g>
<!-- VEHICLE&#45;&gt;AIR_VEHICLE -->
<g id="edge4" class="edge">
<title>VEHICLE&#45;&gt;AIR_VEHICLE</title>
<path fill="none" stroke="royalblue" d="M98.88,-215.7C98.88,-208.24 98.88,-199.32 98.88,-190.97"/>
<polygon fill="royalblue" stroke="royalblue" points="102.38,-191.1 98.88,-181.1 95.38,-191.1 102.38,-191.1"/>
</g>
<!-- AIR_VEHICLE&#45;&gt;AIRPLANE -->
<g id="edge5" class="edge">
<title>AIR_VEHICLE&#45;&gt;AIRPLANE</title>
<path fill="none" stroke="royalblue" d="M85.03,-143.7C78.45,-135.47 70.46,-125.48 63.21,-116.42"/>
<polygon fill="royalblue" stroke="royalblue" points="65.54,-114.73 56.56,-109.1 60.07,-119.1 65.54,-114.73"/>
</g>
<!-- AIR_VEHICLE&#45;&gt;HELICOPTER -->
<g id="edge6" class="edge">
<title>AIR_VEHICLE&#45;&gt;HELICOPTER</title>
<path fill="none" stroke="royalblue" d="M112.96,-143.7C119.66,-135.47 127.8,-125.48 135.18,-116.42"/>
<polygon fill="royalblue" stroke="royalblue" points="138.35,-119.07 141.95,-109.1 132.92,-114.65 138.35,-119.07"/>
</g>
</g>
</svg>
