<?xml version="1.0" encoding="UTF-8" standalone="no"?>
<!DOCTYPE svg PUBLIC "-//W3C//DTD SVG 1.1//EN"
 "http://www.w3.org/Graphics/SVG/1.1/DTD/svg11.dtd">
<!-- Generated by graphviz version 14.1.0 (20251207.0913)
 -->
<!-- Title: Mini_Cylc Pages: 1 -->
<svg width="352pt" height="260pt"
 viewBox="0.00 0.00 352.00 260.00" xmlns="http://www.w3.org/2000/svg" xmlns:xlink="http://www.w3.org/1999/xlink">
<g id="graph0" class="graph" transform="scale(1 1) rotate(0) translate(4 256)">
<title>Mini_Cylc</title>
<polygon fill="none" stroke="none" points="-4,4 -4,-256 347.81,-256 347.81,4 -4,4"/>
<!-- make_dough -->
<g id="node1" class="node">
<title>make_dough</title>
<ellipse fill="none" stroke="black" cx="254.72" cy="-162" rx="73.3" ry="18"/>
<text xml:space="preserve" text-anchor="middle" x="254.72" y="-157.32" font-family="sans" font-size="14.00">make_dough</text>
</g>
<!-- bake_bread -->
<g id="node2" class="node">
<title>bake_bread</title>
<ellipse fill="none" stroke="black" cx="167.72" cy="-90" rx="66.99" ry="18"/>
<text xml:space="preserve" text-anchor="middle" x="167.72" y="-85.33" font-family="sans" font-size="14.00">bake_bread</text>
</g>
<!-- make_dough&#45;&gt;bake_bread -->
<g id="edge1" class="edge">
<title>make_dough&#45;&gt;bake_bread</title>
<path fill="none" stroke="black" d="M234.1,-144.41C223.05,-135.52 209.25,-124.41 197.09,-114.63"/>
<polygon fill="black" stroke="black" points="199.36,-111.96 189.37,-108.42 194.97,-117.41 199.36,-111.96"/>
</g>
<!-- sell_bread -->
<g id="node3" class="node">
<title>sell_bread</title>
<ellipse fill="none" stroke="black" cx="95.72" cy="-18" rx="60.15" ry="18"/>
<text xml:space="preserve" text-anchor="middle" x="95.72" y="-13.32" font-family="sans" font-size="14.00">sell_bread</text>
</g>
<!-- bake_bread&#45;&gt;sell_bread -->
<g id="edge2" class="edge">
<title>bake_bread&#45;&gt;sell_bread</title>
<path fill="none" stroke="black" d="M150.66,-72.41C141.69,-63.69 130.53,-52.85 120.62,-43.21"/>
<polygon fill="black" stroke="black" points="123.36,-40.99 113.75,-36.53 118.48,-46.01 123.36,-40.99"/>
</g>
<!-- clean_oven -->
<g id="node5" class="node">
<title>clean_oven</title>
<ellipse fill="none" stroke="black" cx="239.72" cy="-18" rx="65.41" ry="18"/>
<text xml:space="preserve" text-anchor="middle" x="239.72" y="-13.32" font-family="sans" font-size="14.00">clean_oven</text>
</g>
<!-- bake_bread&#45;&gt;clean_oven -->
<g id="edge4" class="edge">
<title>bake_bread&#45;&gt;clean_oven</title>
<path fill="none" stroke="black" d="M184.79,-72.41C193.75,-63.69 204.91,-52.85 214.82,-43.21"/>
<polygon fill="black" stroke="black" points="216.97,-46.01 221.7,-36.53 212.09,-40.99 216.97,-46.01"/>
</g>
<!-- pre_heat_oven -->
<g id="node4" class="node">
<title>pre_heat_oven</title>
<ellipse fill="none" stroke="black" cx="81.72" cy="-162" rx="81.72" ry="18"/>
<text xml:space="preserve" text-anchor="middle" x="81.72" y="-157.32" font-family="sans" font-size="14.00">pre_heat_oven</text>
</g>
<!-- pre_heat_oven&#45;&gt;bake_bread -->
<g id="edge3" class="edge">
<title>pre_heat_oven&#45;&gt;bake_bread</title>
<path fill="none" stroke="black" d="M102.1,-144.41C113.03,-135.52 126.68,-124.41 138.69,-114.63"/>
<polygon fill="black" stroke="black" points="140.77,-117.45 146.31,-108.43 136.35,-112.02 140.77,-117.45"/>
</g>
<!-- buy_ingredients -->
<g id="node6" class="node">
<title>buy_ingredients</title>
<ellipse fill="none" stroke="black" cx="254.72" cy="-234" rx="89.09" ry="18"/>
<text xml:space="preserve" text-anchor="middle" x="254.72" y="-229.32" font-family="sans" font-size="14.00">buy_ingredients</text>
</g>
<!-- buy_ingredients&#45;&gt;make_dough -->
<g id="edge5" class="edge">
<title>buy_ingredients&#45;&gt;make_dough</title>
<path fill="none" stroke="black" d="M254.72,-215.7C254.72,-208.41 254.72,-199.73 254.72,-191.54"/>
<polygon fill="black" stroke="black" points="258.22,-191.62 254.72,-181.62 251.22,-191.62 258.22,-191.62"/>
</g>
</g>
</svg>
