<?xml version="1.0" encoding="UTF-8" standalone="no"?>
<!DOCTYPE svg PUBLIC "-//W3C//DTD SVG 1.1//EN"
 "http://www.w3.org/Graphics/SVG/1.1/DTD/svg11.dtd">
<!-- Generated by graphviz version 7.0.6 (20230107.1202)
 -->
<!-- Title: example Pages: 1 -->
<svg width="324pt" height="524pt"
 viewBox="0.00 0.00 324.00 524.43" xmlns="http://www.w3.org/2000/svg" xmlns:xlink="http://www.w3.org/1999/xlink">
<g id="graph0" class="graph" transform="scale(0.43607 0.43607) rotate(0) translate(4 1198.62)">
<title>example</title>
<polygon fill="none" stroke="none" points="-4,4 -4,-1198.62 739,-1198.62 739,4 -4,4"/>
<g id="clust1" class="cluster">
<title>cluster_1</title>
<polygon fill="none" stroke="black" stroke-dasharray="5,2" points="8,-821.66 8,-1186.62 356,-1186.62 356,-821.66 8,-821.66"/>
<text text-anchor="middle" x="182" y="-1171.42" font-family="sans" font-size="14.00">1</text>
</g>
<g id="clust2" class="cluster">
<title>cluster_2</title>
<polygon fill="none" stroke="black" stroke-dasharray="5,2" points="379,-549.44 379,-914.4 727,-914.4 727,-549.44 379,-549.44"/>
<text text-anchor="middle" x="553" y="-899.2" font-family="sans" font-size="14.00">2</text>
</g>
<g id="clust3" class="cluster">
<title>cluster_3</title>
<polygon fill="none" stroke="black" stroke-dasharray="5,2" points="23,-277.22 23,-642.18 371,-642.18 371,-277.22 23,-277.22"/>
<text text-anchor="middle" x="197" y="-626.98" font-family="sans" font-size="14.00">3</text>
</g>
<g id="clust4" class="cluster">
<title>cluster_4</title>
<polygon fill="none" stroke="black" stroke-dasharray="5,2" points="379,-8 379,-369.96 727,-369.96 727,-8 379,-8"/>
<text text-anchor="middle" x="553" y="-354.76" font-family="sans" font-size="14.00">4</text>
</g>
<!-- 1/pur -->
<g id="node1" class="node">
<title>1/pur</title>
<ellipse fill="none" stroke="black" cx="257" cy="-1128.75" rx="90.52" ry="26.74"/>
<text text-anchor="middle" x="257" y="-1132.55" font-family="sans" font-size="14.00">buy_ingredients</text>
<text text-anchor="middle" x="257" y="-1117.55" font-family="sans" font-size="14.00">1</text>
</g>
<!-- 1/mak -->
<g id="node2" class="node">
<title>1/mak</title>
<ellipse fill="none" stroke="black" cx="274" cy="-1039.01" rx="74.49" ry="26.74"/>
<text text-anchor="middle" x="274" y="-1042.81" font-family="sans" font-size="14.00">make_dough</text>
<text text-anchor="middle" x="274" y="-1027.81" font-family="sans" font-size="14.00">1</text>
</g>
<!-- 1/pur&#45;&gt;1/mak -->
<g id="edge1" class="edge">
<title>1/pur&#45;&gt;1/mak</title>
<path fill="none" stroke="black" d="M262.01,-1101.9C263.52,-1094.12 265.2,-1085.42 266.82,-1077.05"/>
<polygon fill="black" stroke="black" points="270.21,-1077.95 268.68,-1067.47 263.34,-1076.62 270.21,-1077.95"/>
</g>
<!-- 1/bak -->
<g id="node3" class="node">
<title>1/bak</title>
<ellipse fill="none" stroke="black" cx="204" cy="-949.27" rx="67.76" ry="26.74"/>
<text text-anchor="middle" x="204" y="-953.07" font-family="sans" font-size="14.00">bake_bread</text>
<text text-anchor="middle" x="204" y="-938.07" font-family="sans" font-size="14.00">1</text>
</g>
<!-- 1/mak&#45;&gt;1/bak -->
<g id="edge2" class="edge">
<title>1/mak&#45;&gt;1/bak</title>
<path fill="none" stroke="black" d="M254.13,-1013.1C246.96,-1004.12 238.74,-993.82 231.07,-984.2"/>
<polygon fill="black" stroke="black" points="233.84,-982.06 224.87,-976.42 228.37,-986.42 233.84,-982.06"/>
</g>
<!-- 1/sel -->
<g id="node4" class="node">
<title>1/sel</title>
<ellipse fill="none" stroke="black" cx="132" cy="-856.53" rx="60.62" ry="26.74"/>
<text text-anchor="middle" x="132" y="-860.33" font-family="sans" font-size="14.00">sell_bread</text>
<text text-anchor="middle" x="132" y="-845.33" font-family="sans" font-size="14.00">1</text>
</g>
<!-- 1/bak&#45;&gt;1/sel -->
<g id="edge3" class="edge">
<title>1/bak&#45;&gt;1/sel</title>
<path fill="none" stroke="black" d="M184.33,-923.48C176.39,-913.47 167.11,-901.78 158.59,-891.04"/>
<polygon fill="black" stroke="black" points="161.55,-889.14 152.59,-883.48 156.07,-893.49 161.55,-889.14"/>
</g>
<!-- 1/cle -->
<g id="node5" class="node">
<title>1/cle</title>
<ellipse fill="none" stroke="black" cx="281" cy="-856.53" rx="66.44" ry="26.74"/>
<text text-anchor="middle" x="281" y="-860.33" font-family="sans" font-size="14.00">clean_oven</text>
<text text-anchor="middle" x="281" y="-845.33" font-family="sans" font-size="14.00">1</text>
</g>
<!-- 1/bak&#45;&gt;1/cle -->
<g id="edge5" class="edge">
<title>1/bak&#45;&gt;1/cle</title>
<path fill="none" stroke="black" d="M225.04,-923.48C233.53,-913.47 243.45,-901.78 252.57,-891.04"/>
<polygon fill="black" stroke="black" points="255.2,-893.34 259.01,-883.45 249.87,-888.81 255.2,-893.34"/>
</g>
<!-- 3/pur -->
<g id="node13" class="node">
<title>3/pur</title>
<ellipse fill="none" stroke="black" cx="129" cy="-584.31" rx="90.52" ry="26.74"/>
<text text-anchor="middle" x="129" y="-588.11" font-family="sans" font-size="14.00">buy_ingredients</text>
<text text-anchor="middle" x="129" y="-573.11" font-family="sans" font-size="14.00">3</text>
</g>
<!-- 1/sel&#45;&gt;3/pur -->
<g id="edge7" class="edge">
<title>1/sel&#45;&gt;3/pur</title>
<path fill="none" stroke="black" d="M131.71,-829.62C131.18,-781.62 130.04,-678.71 129.42,-623"/>
<polygon fill="black" stroke="black" points="132.92,-623.01 129.31,-613.05 125.92,-623.09 132.92,-623.01"/>
</g>
<!-- 2/pre -->
<g id="node12" class="node">
<title>2/pre</title>
<ellipse fill="none" stroke="black" cx="470" cy="-766.79" rx="82.96" ry="26.74"/>
<text text-anchor="middle" x="470" y="-770.59" font-family="sans" font-size="14.00">pre_heat_oven</text>
<text text-anchor="middle" x="470" y="-755.59" font-family="sans" font-size="14.00">2</text>
</g>
<!-- 1/cle&#45;&gt;2/pre -->
<g id="edge6" class="edge">
<title>1/cle&#45;&gt;2/pre</title>
<path fill="none" stroke="black" d="M323.89,-835.62C350.37,-823.33 384.65,-807.41 413.35,-794.09"/>
<polygon fill="black" stroke="black" points="414.68,-797.33 422.27,-789.95 411.73,-790.98 414.68,-797.33"/>
</g>
<!-- 1/pre -->
<g id="node6" class="node">
<title>1/pre</title>
<ellipse fill="none" stroke="black" cx="99" cy="-1039.01" rx="82.96" ry="26.74"/>
<text text-anchor="middle" x="99" y="-1042.81" font-family="sans" font-size="14.00">pre_heat_oven</text>
<text text-anchor="middle" x="99" y="-1027.81" font-family="sans" font-size="14.00">1</text>
</g>
<!-- 1/pre&#45;&gt;1/bak -->
<g id="edge4" class="edge">
<title>1/pre&#45;&gt;1/bak</title>
<path fill="none" stroke="black" d="M128.25,-1013.57C140.28,-1003.52 154.35,-991.76 167.08,-981.12"/>
<polygon fill="black" stroke="black" points="169.04,-984.04 174.47,-974.95 164.55,-978.67 169.04,-984.04"/>
</g>
<!-- 2/pur -->
<g id="node7" class="node">
<title>2/pur</title>
<ellipse fill="none" stroke="black" cx="628" cy="-856.53" rx="90.52" ry="26.74"/>
<text text-anchor="middle" x="628" y="-860.33" font-family="sans" font-size="14.00">buy_ingredients</text>
<text text-anchor="middle" x="628" y="-845.33" font-family="sans" font-size="14.00">2</text>
</g>
<!-- 2/mak -->
<g id="node8" class="node">
<title>2/mak</title>
<ellipse fill="none" stroke="black" cx="645" cy="-766.79" rx="74.49" ry="26.74"/>
<text text-anchor="middle" x="645" y="-770.59" font-family="sans" font-size="14.00">make_dough</text>
<text text-anchor="middle" x="645" y="-755.59" font-family="sans" font-size="14.00">2</text>
</g>
<!-- 2/pur&#45;&gt;2/mak -->
<g id="edge8" class="edge">
<title>2/pur&#45;&gt;2/mak</title>
<path fill="none" stroke="black" d="M633.01,-829.68C634.52,-821.9 636.2,-813.2 637.82,-804.83"/>
<polygon fill="black" stroke="black" points="641.21,-805.73 639.68,-795.25 634.34,-804.4 641.21,-805.73"/>
</g>
<!-- 2/bak -->
<g id="node9" class="node">
<title>2/bak</title>
<ellipse fill="none" stroke="black" cx="539" cy="-677.05" rx="67.76" ry="26.74"/>
<text text-anchor="middle" x="539" y="-680.85" font-family="sans" font-size="14.00">bake_bread</text>
<text text-anchor="middle" x="539" y="-665.85" font-family="sans" font-size="14.00">2</text>
</g>
<!-- 2/mak&#45;&gt;2/bak -->
<g id="edge9" class="edge">
<title>2/mak&#45;&gt;2/bak</title>
<path fill="none" stroke="black" d="M616.04,-741.82C603.78,-731.67 589.36,-719.73 576.32,-708.94"/>
<polygon fill="black" stroke="black" points="578.66,-706.34 568.73,-702.66 574.2,-711.73 578.66,-706.34"/>
</g>
<!-- 2/sel -->
<g id="node10" class="node">
<title>2/sel</title>
<ellipse fill="none" stroke="black" cx="609" cy="-584.31" rx="60.62" ry="26.74"/>
<text text-anchor="middle" x="609" y="-588.11" font-family="sans" font-size="14.00">sell_bread</text>
<text text-anchor="middle" x="609" y="-573.11" font-family="sans" font-size="14.00">2</text>
</g>
<!-- 2/bak&#45;&gt;2/sel -->
<g id="edge10" class="edge">
<title>2/bak&#45;&gt;2/sel</title>
<path fill="none" stroke="black" d="M558.13,-651.26C565.77,-641.35 574.69,-629.79 582.9,-619.14"/>
<polygon fill="black" stroke="black" points="585.63,-621.33 588.97,-611.27 580.09,-617.05 585.63,-621.33"/>
</g>
<!-- 2/cle -->
<g id="node11" class="node">
<title>2/cle</title>
<ellipse fill="none" stroke="black" cx="460" cy="-584.31" rx="66.44" ry="26.74"/>
<text text-anchor="middle" x="460" y="-588.11" font-family="sans" font-size="14.00">clean_oven</text>
<text text-anchor="middle" x="460" y="-573.11" font-family="sans" font-size="14.00">2</text>
</g>
<!-- 2/bak&#45;&gt;2/cle -->
<g id="edge12" class="edge">
<title>2/bak&#45;&gt;2/cle</title>
<path fill="none" stroke="black" d="M517.41,-651.26C508.62,-641.15 498.32,-629.32 488.89,-618.49"/>
<polygon fill="black" stroke="black" points="491.76,-616.46 482.55,-611.22 486.48,-621.06 491.76,-616.46"/>
</g>
<!-- 4/pur -->
<g id="node19" class="node">
<title>4/pur</title>
<ellipse fill="none" stroke="black" cx="626" cy="-312.09" rx="90.52" ry="26.74"/>
<text text-anchor="middle" x="626" y="-315.89" font-family="sans" font-size="14.00">buy_ingredients</text>
<text text-anchor="middle" x="626" y="-300.89" font-family="sans" font-size="14.00">4</text>
</g>
<!-- 2/sel&#45;&gt;4/pur -->
<g id="edge14" class="edge">
<title>2/sel&#45;&gt;4/pur</title>
<path fill="none" stroke="black" d="M610.63,-557.4C613.65,-509.4 620.12,-406.49 623.63,-350.78"/>
<polygon fill="black" stroke="black" points="627.12,-351.03 624.25,-340.83 620.13,-350.59 627.12,-351.03"/>
</g>
<!-- 3/pre -->
<g id="node18" class="node">
<title>3/pre</title>
<ellipse fill="none" stroke="black" cx="280" cy="-494.57" rx="82.96" ry="26.74"/>
<text text-anchor="middle" x="280" y="-498.37" font-family="sans" font-size="14.00">pre_heat_oven</text>
<text text-anchor="middle" x="280" y="-483.37" font-family="sans" font-size="14.00">3</text>
</g>
<!-- 2/cle&#45;&gt;3/pre -->
<g id="edge13" class="edge">
<title>2/cle&#45;&gt;3/pre</title>
<path fill="none" stroke="black" d="M418.7,-563.18C393.85,-551.07 361.92,-535.5 334.95,-522.36"/>
<polygon fill="black" stroke="black" points="336.77,-519.35 326.25,-518.11 333.7,-525.64 336.77,-519.35"/>
</g>
<!-- 2/pre&#45;&gt;2/bak -->
<g id="edge11" class="edge">
<title>2/pre&#45;&gt;2/bak</title>
<path fill="none" stroke="black" d="M489.96,-740.41C496.96,-731.51 504.93,-721.37 512.39,-711.89"/>
<polygon fill="black" stroke="black" points="514.96,-714.28 518.39,-704.26 509.46,-709.96 514.96,-714.28"/>
</g>
<!-- 3/mak -->
<g id="node14" class="node">
<title>3/mak</title>
<ellipse fill="none" stroke="black" cx="105" cy="-494.57" rx="74.49" ry="26.74"/>
<text text-anchor="middle" x="105" y="-498.37" font-family="sans" font-size="14.00">make_dough</text>
<text text-anchor="middle" x="105" y="-483.37" font-family="sans" font-size="14.00">3</text>
</g>
<!-- 3/pur&#45;&gt;3/mak -->
<g id="edge15" class="edge">
<title>3/pur&#45;&gt;3/mak</title>
<path fill="none" stroke="black" d="M121.93,-557.46C119.8,-549.68 117.42,-540.98 115.13,-532.61"/>
<polygon fill="black" stroke="black" points="118.52,-531.72 112.5,-523 111.77,-533.57 118.52,-531.72"/>
</g>
<!-- 3/bak -->
<g id="node15" class="node">
<title>3/bak</title>
<ellipse fill="none" stroke="black" cx="216" cy="-404.83" rx="67.76" ry="26.74"/>
<text text-anchor="middle" x="216" y="-408.63" font-family="sans" font-size="14.00">bake_bread</text>
<text text-anchor="middle" x="216" y="-393.63" font-family="sans" font-size="14.00">3</text>
</g>
<!-- 3/mak&#45;&gt;3/bak -->
<g id="edge16" class="edge">
<title>3/mak&#45;&gt;3/bak</title>
<path fill="none" stroke="black" d="M135.04,-469.83C148.1,-459.5 163.56,-447.28 177.46,-436.3"/>
<polygon fill="black" stroke="black" points="179.46,-439.17 185.14,-430.23 175.12,-433.68 179.46,-439.17"/>
</g>
<!-- 3/sel -->
<g id="node16" class="node">
<title>3/sel</title>
<ellipse fill="none" stroke="black" cx="152" cy="-312.09" rx="60.62" ry="26.74"/>
<text text-anchor="middle" x="152" y="-315.89" font-family="sans" font-size="14.00">sell_bread</text>
<text text-anchor="middle" x="152" y="-300.89" font-family="sans" font-size="14.00">3</text>
</g>
<!-- 3/bak&#45;&gt;3/sel -->
<g id="edge17" class="edge">
<title>3/bak&#45;&gt;3/sel</title>
<path fill="none" stroke="black" d="M198.17,-378.55C191.32,-368.84 183.38,-357.58 176.04,-347.17"/>
<polygon fill="black" stroke="black" points="179.01,-345.31 170.38,-339.15 173.29,-349.34 179.01,-345.31"/>
</g>
<!-- 3/cle -->
<g id="node17" class="node">
<title>3/cle</title>
<ellipse fill="none" stroke="black" cx="297" cy="-312.09" rx="66.44" ry="26.74"/>
<text text-anchor="middle" x="297" y="-315.89" font-family="sans" font-size="14.00">clean_oven</text>
<text text-anchor="middle" x="297" y="-300.89" font-family="sans" font-size="14.00">3</text>
</g>
<!-- 3/bak&#45;&gt;3/cle -->
<g id="edge19" class="edge">
<title>3/bak&#45;&gt;3/cle</title>
<path fill="none" stroke="black" d="M237.71,-379.51C246.8,-369.32 257.52,-357.31 267.33,-346.33"/>
<polygon fill="black" stroke="black" points="269.9,-348.71 273.94,-338.92 264.67,-344.05 269.9,-348.71"/>
</g>
<!-- 4/pre -->
<g id="node24" class="node">
<title>4/pre</title>
<ellipse fill="none" stroke="black" cx="470" cy="-222.35" rx="82.96" ry="26.74"/>
<text text-anchor="middle" x="470" y="-226.15" font-family="sans" font-size="14.00">pre_heat_oven</text>
<text text-anchor="middle" x="470" y="-211.15" font-family="sans" font-size="14.00">4</text>
</g>
<!-- 3/cle&#45;&gt;4/pre -->
<g id="edge20" class="edge">
<title>3/cle&#45;&gt;4/pre</title>
<path fill="none" stroke="black" d="M337.56,-290.52C361,-278.63 390.77,-263.53 416.15,-250.66"/>
<polygon fill="black" stroke="black" points="417.68,-253.81 425.01,-246.17 414.51,-247.57 417.68,-253.81"/>
</g>
<!-- 3/pre&#45;&gt;3/bak -->
<g id="edge18" class="edge">
<title>3/pre&#45;&gt;3/bak</title>
<path fill="none" stroke="black" d="M261.49,-468.19C255.06,-459.39 247.75,-449.36 240.9,-439.97"/>
<polygon fill="black" stroke="black" points="243.86,-438.09 235.14,-432.07 238.21,-442.21 243.86,-438.09"/>
</g>
<!-- 4/mak -->
<g id="node20" class="node">
<title>4/mak</title>
<ellipse fill="none" stroke="black" cx="645" cy="-222.35" rx="74.49" ry="26.74"/>
<text text-anchor="middle" x="645" y="-226.15" font-family="sans" font-size="14.00">make_dough</text>
<text text-anchor="middle" x="645" y="-211.15" font-family="sans" font-size="14.00">4</text>
</g>
<!-- 4/pur&#45;&gt;4/mak -->
<g id="edge21" class="edge">
<title>4/pur&#45;&gt;4/mak</title>
<path fill="none" stroke="black" d="M631.6,-285.24C633.28,-277.46 635.17,-268.75 636.98,-260.39"/>
<polygon fill="black" stroke="black" points="640.36,-261.31 639.06,-250.8 633.52,-259.83 640.36,-261.31"/>
</g>
<!-- 4/bak -->
<g id="node21" class="node">
<title>4/bak</title>
<ellipse fill="none" stroke="black" cx="537" cy="-132.61" rx="67.76" ry="26.74"/>
<text text-anchor="middle" x="537" y="-136.41" font-family="sans" font-size="14.00">bake_bread</text>
<text text-anchor="middle" x="537" y="-121.41" font-family="sans" font-size="14.00">4</text>
</g>
<!-- 4/mak&#45;&gt;4/bak -->
<g id="edge22" class="edge">
<title>4/mak&#45;&gt;4/bak</title>
<path fill="none" stroke="black" d="M615.49,-197.37C602.78,-187.05 587.78,-174.87 574.32,-163.93"/>
<polygon fill="black" stroke="black" points="576.87,-161.49 566.9,-157.9 572.46,-166.93 576.87,-161.49"/>
</g>
<!-- 4/sel -->
<g id="node22" class="node">
<title>4/sel</title>
<ellipse fill="none" stroke="black" cx="459" cy="-42.87" rx="60.62" ry="26.74"/>
<text text-anchor="middle" x="459" y="-46.67" font-family="sans" font-size="14.00">sell_bread</text>
<text text-anchor="middle" x="459" y="-31.67" font-family="sans" font-size="14.00">4</text>
</g>
<!-- 4/bak&#45;&gt;4/sel -->
<g id="edge23" class="edge">
<title>4/bak&#45;&gt;4/sel</title>
<path fill="none" stroke="black" d="M515.27,-107.17C506.91,-97.76 497.21,-86.85 488.25,-76.77"/>
<polygon fill="black" stroke="black" points="490.88,-74.46 481.62,-69.31 485.64,-79.11 490.88,-74.46"/>
</g>
<!-- 4/cle -->
<g id="node23" class="node">
<title>4/cle</title>
<ellipse fill="none" stroke="black" cx="604" cy="-42.87" rx="66.44" ry="26.74"/>
<text text-anchor="middle" x="604" y="-46.67" font-family="sans" font-size="14.00">clean_oven</text>
<text text-anchor="middle" x="604" y="-31.67" font-family="sans" font-size="14.00">4</text>
</g>
<!-- 4/bak&#45;&gt;4/cle -->
<g id="edge25" class="edge">
<title>4/bak&#45;&gt;4/cle</title>
<path fill="none" stroke="black" d="M556.02,-106.7C562.88,-97.72 570.74,-87.42 578.09,-77.8"/>
<polygon fill="black" stroke="black" points="580.73,-80.12 584.01,-70.04 575.16,-75.87 580.73,-80.12"/>
</g>
<!-- 4/pre&#45;&gt;4/bak -->
<g id="edge24" class="edge">
<title>4/pre&#45;&gt;4/bak</title>
<path fill="none" stroke="black" d="M489.38,-195.97C496.1,-187.17 503.76,-177.14 510.93,-167.75"/>
<polygon fill="black" stroke="black" points="513.69,-169.9 516.98,-159.83 508.13,-165.65 513.69,-169.9"/>
</g>
</g>
</svg>
