<?xml version="1.0" encoding="UTF-8" standalone="no"?>
<!DOCTYPE svg PUBLIC "-//W3C//DTD SVG 1.1//EN"
 "http://www.w3.org/Graphics/SVG/1.1/DTD/svg11.dtd">
<!-- Generated by graphviz version 7.0.6 (20230107.1202)
 -->
<!-- Title: Mini_Cylc Pages: 1 -->
<svg width="329pt" height="260pt"
 viewBox="0.00 0.00 329.24 260.00" xmlns="http://www.w3.org/2000/svg" xmlns:xlink="http://www.w3.org/1999/xlink">
<g id="graph0" class="graph" transform="scale(1 1) rotate(0) translate(4 256)">
<title>Mini_Cylc</title>
<polygon fill="none" stroke="none" points="-4,4 -4,-256 325.24,-256 325.24,4 -4,4"/>
<!-- buy_ingredients -->
<g id="node1" class="node">
<title>buy_ingredients</title>
<ellipse fill="none" stroke="black" cx="83.19" cy="-234" rx="83.39" ry="18"/>
<text text-anchor="middle" x="83.19" y="-230.3" font-family="sans" font-size="14.00">buy_ingredients</text>
</g>
<!-- make_dough -->
<g id="node2" class="node">
<title>make_dough</title>
<ellipse fill="none" stroke="black" cx="83.19" cy="-162" rx="68.49" ry="18"/>
<text text-anchor="middle" x="83.19" y="-158.3" font-family="sans" font-size="14.00">make_dough</text>
</g>
<!-- buy_ingredients&#45;&gt;make_dough -->
<g id="edge1" class="edge">
<title>buy_ingredients&#45;&gt;make_dough</title>
<path fill="none" stroke="black" d="M83.19,-215.7C83.19,-208.41 83.19,-199.73 83.19,-191.54"/>
<polygon fill="black" stroke="black" points="86.69,-191.62 83.19,-181.62 79.69,-191.62 86.69,-191.62"/>
</g>
<!-- bake_bread -->
<g id="node3" class="node">
<title>bake_bread</title>
<ellipse fill="none" stroke="black" cx="164.19" cy="-90" rx="62.29" ry="18"/>
<text text-anchor="middle" x="164.19" y="-86.3" font-family="sans" font-size="14.00">bake_bread</text>
</g>
<!-- make_dough&#45;&gt;bake_bread -->
<g id="edge3" class="edge">
<title>make_dough&#45;&gt;bake_bread</title>
<path fill="none" stroke="black" d="M102.39,-144.41C112.58,-135.61 125.28,-124.63 136.52,-114.92"/>
<polygon fill="black" stroke="black" points="138.71,-117.65 143.99,-108.46 134.13,-112.35 138.71,-117.65"/>
</g>
<!-- clean_oven -->
<g id="node4" class="node">
<title>clean_oven</title>
<ellipse fill="none" stroke="black" cx="97.19" cy="-18" rx="61.19" ry="18"/>
<text text-anchor="middle" x="97.19" y="-14.3" font-family="sans" font-size="14.00">clean_oven</text>
</g>
<!-- bake_bread&#45;&gt;clean_oven -->
<g id="edge2" class="edge">
<title>bake_bread&#45;&gt;clean_oven</title>
<path fill="none" stroke="black" d="M148.31,-72.41C140.14,-63.87 130,-53.28 120.92,-43.79"/>
<polygon fill="black" stroke="black" points="123.45,-41.37 114,-36.56 118.39,-46.21 123.45,-41.37"/>
</g>
<!-- sell_bread -->
<g id="node5" class="node">
<title>sell_bread</title>
<ellipse fill="none" stroke="black" cx="232.19" cy="-18" rx="55.79" ry="18"/>
<text text-anchor="middle" x="232.19" y="-14.3" font-family="sans" font-size="14.00">sell_bread</text>
</g>
<!-- bake_bread&#45;&gt;sell_bread -->
<g id="edge4" class="edge">
<title>bake_bread&#45;&gt;sell_bread</title>
<path fill="none" stroke="black" d="M180.31,-72.41C188.69,-63.78 199.1,-53.06 208.4,-43.5"/>
<polygon fill="black" stroke="black" points="210.68,-46.17 215.14,-36.56 205.66,-41.29 210.68,-46.17"/>
</g>
<!-- pre_heat_oven -->
<g id="node6" class="node">
<title>pre_heat_oven</title>
<ellipse fill="none" stroke="black" cx="245.19" cy="-162" rx="76.09" ry="18"/>
<text text-anchor="middle" x="245.19" y="-158.3" font-family="sans" font-size="14.00">pre_heat_oven</text>
</g>
<!-- pre_heat_oven&#45;&gt;bake_bread -->
<g id="edge5" class="edge">
<title>pre_heat_oven&#45;&gt;bake_bread</title>
<path fill="none" stroke="black" d="M226,-144.41C215.81,-135.61 203.11,-124.63 191.87,-114.92"/>
<polygon fill="black" stroke="black" points="194.25,-112.35 184.4,-108.46 189.67,-117.65 194.25,-112.35"/>
</g>
</g>
</svg>
