<?xml version="1.0" encoding="UTF-8" standalone="no"?>
<!DOCTYPE svg PUBLIC "-//W3C//DTD SVG 1.1//EN"
 "http://www.w3.org/Graphics/SVG/1.1/DTD/svg11.dtd">
<!-- Generated by graphviz version 7.0.6 (20230107.1202)
 -->
<!-- Title: Example Pages: 1 -->
<svg width="360pt" height="64pt"
 viewBox="0.00 0.00 360.00 64.20" xmlns="http://www.w3.org/2000/svg" xmlns:xlink="http://www.w3.org/1999/xlink">
<g id="graph0" class="graph" transform="scale(0.55342 0.55342) rotate(0) translate(4 112)">
<title>Example</title>
<polygon fill="none" stroke="none" points="-4,4 -4,-112 646.5,-112 646.5,4 -4,4"/>
<!-- ENGINE -->
<g id="node1" class="node">
<title>ENGINE</title>
<polygon fill="powderblue" stroke="royalblue" points="375.5,-108 276.5,-108 276.5,-72 375.5,-72 375.5,-108"/>
<text text-anchor="middle" x="326" y="-86.3" font-family="sans" font-size="14.00">ENGINE</text>
</g>
<!-- TURBINE_ENGINE -->
<g id="node2" class="node">
<title>TURBINE_ENGINE</title>
<polygon fill="powderblue" stroke="royalblue" points="168,-36 0,-36 0,0 168,0 168,-36"/>
<text text-anchor="middle" x="84" y="-14.3" font-family="sans" font-size="14.00">TURBINE_ENGINE</text>
</g>
<!-- ENGINE&#45;&gt;TURBINE_ENGINE -->
<g id="edge1" class="edge">
<title>ENGINE&#45;&gt;TURBINE_ENGINE</title>
<path fill="none" stroke="black" d="M276.15,-74.58C241.24,-64.48 194.08,-50.84 155.22,-39.6"/>
<polygon fill="black" stroke="black" points="156.53,-36.34 145.95,-36.92 154.59,-43.06 156.53,-36.34"/>
</g>
<!-- INTERNAL_COMBUSTION_ENGINE -->
<g id="node3" class="node">
<title>INTERNAL_COMBUSTION_ENGINE</title>
<polygon fill="powderblue" stroke="royalblue" points="465.5,-36 186.5,-36 186.5,0 465.5,0 465.5,-36"/>
<text text-anchor="middle" x="326" y="-14.3" font-family="sans" font-size="14.00">INTERNAL_COMBUSTION_ENGINE</text>
</g>
<!-- ENGINE&#45;&gt;INTERNAL_COMBUSTION_ENGINE -->
<g id="edge2" class="edge">
<title>ENGINE&#45;&gt;INTERNAL_COMBUSTION_ENGINE</title>
<path fill="none" stroke="black" d="M326,-71.7C326,-64.41 326,-55.73 326,-47.54"/>
<polygon fill="black" stroke="black" points="329.5,-47.62 326,-37.62 322.5,-47.62 329.5,-47.62"/>
</g>
<!-- HUMAN_ENGINE -->
<g id="node4" class="node">
<title>HUMAN_ENGINE</title>
<polygon fill="powderblue" stroke="royalblue" points="642.5,-36 483.5,-36 483.5,0 642.5,0 642.5,-36"/>
<text text-anchor="middle" x="563" y="-14.3" font-family="sans" font-size="14.00">HUMAN_ENGINE</text>
</g>
<!-- ENGINE&#45;&gt;HUMAN_ENGINE -->
<g id="edge3" class="edge">
<title>ENGINE&#45;&gt;HUMAN_ENGINE</title>
<path fill="none" stroke="black" d="M375.97,-74.24C409.96,-64.2 455.42,-50.78 493,-39.67"/>
<polygon fill="black" stroke="black" points="493.83,-43.08 502.43,-36.89 491.85,-36.37 493.83,-43.08"/>
</g>
</g>
</svg>
