<?xml version="1.0" encoding="UTF-8" standalone="no"?>
<!DOCTYPE svg PUBLIC "-//W3C//DTD SVG 1.1//EN"
 "http://www.w3.org/Graphics/SVG/1.1/DTD/svg11.dtd">
<!-- Generated by graphviz version 7.0.6 (20230107.1202)
 -->
<!-- Title: Example Pages: 1 -->
<svg width="216pt" height="332pt"
 viewBox="0.00 0.00 216.00 332.00" xmlns="http://www.w3.org/2000/svg" xmlns:xlink="http://www.w3.org/1999/xlink">
<g id="graph0" class="graph" transform="scale(1 1) rotate(0) translate(4 328)">
<title>Example</title>
<polygon fill="none" stroke="none" points="-4,4 -4,-328 212,-328 212,4 -4,4"/>
<!-- AIRPLANE -->
<g id="node1" class="node">
<title>AIRPLANE</title>
<polygon fill="powderblue" stroke="royalblue" points="86,-108 0,-108 0,-72 86,-72 86,-108"/>
<text text-anchor="middle" x="43" y="-86.3" font-family="sans" font-size="14.00">AIRPLANE</text>
</g>
<!-- a380 -->
<g id="node2" class="node">
<title>a380</title>
<polygon fill="powderblue" stroke="royalblue" points="70,-36 16,-36 16,0 70,0 70,-36"/>
<text text-anchor="middle" x="43" y="-14.3" font-family="sans" font-size="14.00">a380</text>
</g>
<!-- AIRPLANE&#45;&gt;a380 -->
<g id="edge1" class="edge">
<title>AIRPLANE&#45;&gt;a380</title>
<path fill="none" stroke="royalblue" d="M43,-71.7C43,-64.41 43,-55.73 43,-47.54"/>
<polygon fill="royalblue" stroke="royalblue" points="46.5,-47.62 43,-37.62 39.5,-47.62 46.5,-47.62"/>
</g>
<!-- HELICOPTER -->
<g id="node3" class="node">
<title>HELICOPTER</title>
<polygon fill="powderblue" stroke="royalblue" points="208,-108 104,-108 104,-72 208,-72 208,-108"/>
<text text-anchor="middle" x="156" y="-86.3" font-family="sans" font-size="14.00">HELICOPTER</text>
</g>
<!-- r44 -->
<g id="node4" class="node">
<title>r44</title>
<polygon fill="powderblue" stroke="royalblue" points="183,-36 129,-36 129,0 183,0 183,-36"/>
<text text-anchor="middle" x="156" y="-14.3" font-family="sans" font-size="14.00">r44</text>
</g>
<!-- HELICOPTER&#45;&gt;r44 -->
<g id="edge2" class="edge">
<title>HELICOPTER&#45;&gt;r44</title>
<path fill="none" stroke="royalblue" d="M156,-71.7C156,-64.41 156,-55.73 156,-47.54"/>
<polygon fill="royalblue" stroke="royalblue" points="159.5,-47.62 156,-37.62 152.5,-47.62 159.5,-47.62"/>
</g>
<!-- root -->
<g id="node5" class="node">
<title>root</title>
<polygon fill="powderblue" stroke="royalblue" points="126,-324 72,-324 72,-288 126,-288 126,-324"/>
<text text-anchor="middle" x="99" y="-302.3" font-family="sans" font-size="14.00">root</text>
</g>
<!-- VEHICLE -->
<g id="node6" class="node">
<title>VEHICLE</title>
<polygon fill="powderblue" stroke="royalblue" points="137.5,-252 60.5,-252 60.5,-216 137.5,-216 137.5,-252"/>
<text text-anchor="middle" x="99" y="-230.3" font-family="sans" font-size="14.00">VEHICLE</text>
</g>
<!-- root&#45;&gt;VEHICLE -->
<g id="edge3" class="edge">
<title>root&#45;&gt;VEHICLE</title>
<path fill="none" stroke="royalblue" d="M99,-287.7C99,-280.41 99,-271.73 99,-263.54"/>
<polygon fill="royalblue" stroke="royalblue" points="102.5,-263.62 99,-253.62 95.5,-263.62 102.5,-263.62"/>
</g>
<!-- AIR_VEHICLE -->
<g id="node7" class="node">
<title>AIR_VEHICLE</title>
<polygon fill="powderblue" stroke="royalblue" points="152.5,-180 45.5,-180 45.5,-144 152.5,-144 152.5,-180"/>
<text text-anchor="middle" x="99" y="-158.3" font-family="sans" font-size="14.00">AIR_VEHICLE</text>
</g>
<!-- VEHICLE&#45;&gt;AIR_VEHICLE -->
<g id="edge4" class="edge">
<title>VEHICLE&#45;&gt;AIR_VEHICLE</title>
<path fill="none" stroke="royalblue" d="M99,-215.7C99,-208.41 99,-199.73 99,-191.54"/>
<polygon fill="royalblue" stroke="royalblue" points="102.5,-191.62 99,-181.62 95.5,-191.62 102.5,-191.62"/>
</g>
<!-- AIR_VEHICLE&#45;&gt;AIRPLANE -->
<g id="edge5" class="edge">
<title>AIR_VEHICLE&#45;&gt;AIRPLANE</title>
<path fill="none" stroke="royalblue" d="M85.16,-143.7C78.71,-135.64 70.92,-125.89 63.79,-116.98"/>
<polygon fill="royalblue" stroke="royalblue" points="66.61,-114.91 57.63,-109.29 61.14,-119.28 66.61,-114.91"/>
</g>
<!-- AIR_VEHICLE&#45;&gt;HELICOPTER -->
<g id="edge6" class="edge">
<title>AIR_VEHICLE&#45;&gt;HELICOPTER</title>
<path fill="none" stroke="royalblue" d="M113.09,-143.7C119.65,-135.64 127.59,-125.89 134.84,-116.98"/>
<polygon fill="royalblue" stroke="royalblue" points="137.52,-119.24 141.12,-109.28 132.09,-114.82 137.52,-119.24"/>
</g>
</g>
</svg>
