<?xml version="1.0" encoding="UTF-8" standalone="no"?>
<!DOCTYPE svg PUBLIC "-//W3C//DTD SVG 1.1//EN"
 "http://www.w3.org/Graphics/SVG/1.1/DTD/svg11.dtd">
<!-- Generated by graphviz version 7.0.6 (20230107.1202)
 -->
<!-- Title: example Pages: 1 -->
<svg width="504pt" height="100pt"
 viewBox="0.00 0.00 504.00 99.87" xmlns="http://www.w3.org/2000/svg" xmlns:xlink="http://www.w3.org/1999/xlink">
<g id="graph0" class="graph" transform="scale(0.483685 0.483685) rotate(0) translate(4 202.48)">
<title>example</title>
<polygon fill="none" stroke="none" points="-4,4 -4,-202.48 1038,-202.48 1038,4 -4,4"/>
<g id="clust1" class="cluster">
<title>cluster_T00</title>
<polygon fill="none" stroke="black" stroke-dasharray="5,2" points="8,-97.74 8,-190.48 292,-190.48 292,-97.74 8,-97.74"/>
<text text-anchor="middle" x="150" y="-175.28" font-family="sans" font-size="14.00">+PT0H</text>
</g>
<g id="clust2" class="cluster">
<title>cluster_T03</title>
<polygon fill="none" stroke="black" stroke-dasharray="5,2" points="742,-97.74 742,-190.48 1026,-190.48 1026,-97.74 742,-97.74"/>
<text text-anchor="middle" x="884" y="-175.28" font-family="sans" font-size="14.00">+PT3H</text>
</g>
<g id="clust3" class="cluster">
<title>cluster_T06</title>
<polygon fill="none" stroke="black" stroke-dasharray="5,2" points="300,-8 300,-190.48 734,-190.48 734,-8 300,-8"/>
<text text-anchor="middle" x="517" y="-175.28" font-family="sans" font-size="14.00">+PT6H</text>
</g>
<!-- observations.t00 -->
<g id="node1" class="node">
<title>observations.t00</title>
<ellipse fill="none" stroke="black" cx="150" cy="-132.61" rx="133.79" ry="26.74"/>
<text text-anchor="middle" x="150" y="-136.41" font-family="sans" font-size="14.00">consolidate observations</text>
<text text-anchor="middle" x="150" y="-121.41" font-family="sans" font-size="14.00">+PT0H</text>
</g>
<!-- forecast.t06 -->
<g id="node3" class="node">
<title>forecast.t06</title>
<ellipse fill="none" stroke="black" cx="551" cy="-42.87" rx="50.82" ry="26.74"/>
<text text-anchor="middle" x="551" y="-46.67" font-family="sans" font-size="14.00">forecast</text>
<text text-anchor="middle" x="551" y="-31.67" font-family="sans" font-size="14.00">+PT6H</text>
</g>
<!-- observations.t00&#45;&gt;forecast.t06 -->
<g id="edge1" class="edge">
<title>observations.t00&#45;&gt;forecast.t06</title>
<path fill="none" stroke="black" d="M234.86,-111.63C254.89,-106.99 276.18,-102.13 296,-97.74 363.5,-82.78 441.26,-66.49 492.99,-55.78"/>
<polygon fill="black" stroke="black" points="493.37,-59.28 502.46,-53.83 491.96,-52.42 493.37,-59.28"/>
</g>
<!-- observations.t03 -->
<g id="node2" class="node">
<title>observations.t03</title>
<ellipse fill="none" stroke="black" cx="884" cy="-132.61" rx="133.79" ry="26.74"/>
<text text-anchor="middle" x="884" y="-136.41" font-family="sans" font-size="14.00">consolidate observations</text>
<text text-anchor="middle" x="884" y="-121.41" font-family="sans" font-size="14.00">+PT3H</text>
</g>
<!-- observations.t03&#45;&gt;forecast.t06 -->
<g id="edge2" class="edge">
<title>observations.t03&#45;&gt;forecast.t06</title>
<path fill="none" stroke="black" d="M804.66,-110.71C743.78,-94.66 661.24,-72.92 607.08,-58.65"/>
<polygon fill="black" stroke="black" points="608,-55.27 597.44,-56.11 606.22,-62.04 608,-55.27"/>
</g>
<!-- get_rainfall.t06 -->
<g id="node4" class="node">
<title>get_rainfall.t06</title>
<ellipse fill="none" stroke="black" cx="660" cy="-132.61" rx="66.44" ry="26.74"/>
<text text-anchor="middle" x="660" y="-136.41" font-family="sans" font-size="14.00">get_rainfall</text>
<text text-anchor="middle" x="660" y="-121.41" font-family="sans" font-size="14.00">+PT6H</text>
</g>
<!-- get_rainfall.t06&#45;&gt;forecast.t06 -->
<g id="edge4" class="edge">
<title>get_rainfall.t06&#45;&gt;forecast.t06</title>
<path fill="none" stroke="black" d="M631.08,-108.33C617.5,-97.4 601.18,-84.26 586.82,-72.71"/>
<polygon fill="black" stroke="black" points="589.35,-70.24 579.36,-66.7 584.96,-75.7 589.35,-70.24"/>
</g>
<!-- observations.t06 -->
<g id="node5" class="node">
<title>observations.t06</title>
<ellipse fill="none" stroke="black" cx="442" cy="-132.61" rx="133.79" ry="26.74"/>
<text text-anchor="middle" x="442" y="-136.41" font-family="sans" font-size="14.00">consolidate observations</text>
<text text-anchor="middle" x="442" y="-121.41" font-family="sans" font-size="14.00">+PT6H</text>
</g>
<!-- observations.t06&#45;&gt;forecast.t06 -->
<g id="edge3" class="edge">
<title>observations.t06&#45;&gt;forecast.t06</title>
<path fill="none" stroke="black" d="M473.53,-106.23C486.5,-95.79 501.61,-83.63 515.01,-72.84"/>
<polygon fill="black" stroke="black" points="517.2,-75.57 522.8,-66.57 512.81,-70.12 517.2,-75.57"/>
</g>
</g>
</svg>
