<?xml version="1.0" encoding="UTF-8" standalone="no"?>
<!DOCTYPE svg PUBLIC "-//W3C//DTD SVG 1.1//EN"
 "http://www.w3.org/Graphics/SVG/1.1/DTD/svg11.dtd">
<!-- Generated by graphviz version 7.0.6 (20230107.1202)
 -->
<!-- Title: example Pages: 1 -->
<svg width="504pt" height="97pt"
 viewBox="0.00 0.00 504.00 96.68" xmlns="http://www.w3.org/2000/svg" xmlns:xlink="http://www.w3.org/1999/xlink">
<g id="graph0" class="graph" transform="scale(0.514272 0.514272) rotate(0) translate(4 184)">
<title>example</title>
<polygon fill="none" stroke="none" points="-4,4 -4,-184 976.03,-184 976.03,4 -4,4"/>
<!-- get_observations_aldergrove -->
<g id="node1" class="node">
<title>get_observations_aldergrove</title>
<ellipse fill="none" stroke="black" cx="139.74" cy="-162" rx="139.98" ry="18"/>
<text text-anchor="middle" x="139.74" y="-158.3" font-family="sans" font-size="14.00">get_observations_aldergrove</text>
</g>
<!-- consolidate_observations -->
<g id="node2" class="node">
<title>consolidate_observations</title>
<ellipse fill="none" stroke="black" cx="395.74" cy="-18" rx="124.28" ry="18"/>
<text text-anchor="middle" x="395.74" y="-14.3" font-family="sans" font-size="14.00">consolidate_observations</text>
</g>
<!-- get_observations_aldergrove&#45;&gt;consolidate_observations -->
<g id="edge1" class="edge">
<title>get_observations_aldergrove&#45;&gt;consolidate_observations</title>
<path fill="none" stroke="black" d="M162.88,-143.99C189.19,-125.07 233.79,-94.25 274.74,-72 296.54,-60.15 321.54,-48.85 343.12,-39.75"/>
<polygon fill="black" stroke="black" points="344.45,-42.98 352.34,-35.91 341.77,-36.52 344.45,-42.98"/>
</g>
<!-- hidden -->
<!-- get_observations_aldergrove&#45;&gt;hidden -->
<!-- get_observations_camborne -->
<g id="node3" class="node">
<title>get_observations_camborne</title>
<ellipse fill="none" stroke="black" cx="434.74" cy="-162" rx="137.28" ry="18"/>
<text text-anchor="middle" x="434.74" y="-158.3" font-family="sans" font-size="14.00">get_observations_camborne</text>
</g>
<!-- get_observations_camborne&#45;&gt;consolidate_observations -->
<g id="edge2" class="edge">
<title>get_observations_camborne&#45;&gt;consolidate_observations</title>
<path fill="none" stroke="black" d="M427.4,-143.56C423.28,-133.33 418.28,-120.08 414.74,-108 408.88,-88.05 404.02,-65.08 400.69,-47.48"/>
<polygon fill="black" stroke="black" points="404.15,-46.95 398.9,-37.74 397.26,-48.21 404.15,-46.95"/>
</g>
<!-- get_observations_camborne&#45;&gt;hidden -->
<!-- get_observations_heathrow -->
<g id="node4" class="node">
<title>get_observations_heathrow</title>
<ellipse fill="none" stroke="black" cx="557.74" cy="-90" rx="133.78" ry="18"/>
<text text-anchor="middle" x="557.74" y="-86.3" font-family="sans" font-size="14.00">get_observations_heathrow</text>
</g>
<!-- get_observations_heathrow&#45;&gt;consolidate_observations -->
<g id="edge3" class="edge">
<title>get_observations_heathrow&#45;&gt;consolidate_observations</title>
<path fill="none" stroke="black" d="M519.35,-72.41C496.93,-62.73 468.43,-50.41 444.45,-40.05"/>
<polygon fill="black" stroke="black" points="446.09,-36.95 435.52,-36.19 443.31,-43.37 446.09,-36.95"/>
</g>
<!-- get_observations_shetland -->
<g id="node5" class="node">
<title>get_observations_shetland</title>
<ellipse fill="none" stroke="black" cx="840.74" cy="-90" rx="131.08" ry="18"/>
<text text-anchor="middle" x="840.74" y="-86.3" font-family="sans" font-size="14.00">get_observations_shetland</text>
</g>
<!-- get_observations_shetland&#45;&gt;consolidate_observations -->
<g id="edge4" class="edge">
<title>get_observations_shetland&#45;&gt;consolidate_observations</title>
<path fill="none" stroke="black" d="M756.78,-75.79C680.4,-63.78 567.85,-46.07 488.77,-33.63"/>
<polygon fill="black" stroke="black" points="489.75,-30.25 479.33,-32.15 488.67,-37.16 489.75,-30.25"/>
</g>
<!-- hidden&#45;&gt;consolidate_observations -->
</g>
</svg>
