<?xml version="1.0" encoding="UTF-8" standalone="no"?>
<!DOCTYPE svg PUBLIC "-//W3C//DTD SVG 1.1//EN"
 "http://www.w3.org/Graphics/SVG/1.1/DTD/svg11.dtd">
<!-- Generated by graphviz version 7.0.6 (20230107.1202)
 -->
<!-- Title: Example Pages: 1 -->
<svg width="504pt" height="224pt"
 viewBox="0.00 0.00 504.00 224.00" xmlns="http://www.w3.org/2000/svg" xmlns:xlink="http://www.w3.org/1999/xlink">
<g id="graph0" class="graph" transform="scale(0.861538 0.861538) rotate(0) translate(4 256)">
<title>Example</title>
<polygon fill="none" stroke="none" points="-4,4 -4,-256 581,-256 581,4 -4,4"/>
<!-- VEHICLE -->
<g id="node1" class="node">
<title>VEHICLE</title>
<polygon fill="powderblue" stroke="royalblue" points="225,-252 148,-252 148,-216 225,-216 225,-252"/>
<text text-anchor="middle" x="186.5" y="-230.3" font-family="sans" font-size="14.00">VEHICLE</text>
</g>
<!-- AIR_VEHICLE -->
<g id="node2" class="node">
<title>AIR_VEHICLE</title>
<polygon fill="powderblue" stroke="royalblue" points="107,-180 0,-180 0,-144 107,-144 107,-180"/>
<text text-anchor="middle" x="53.5" y="-158.3" font-family="sans" font-size="14.00">AIR_VEHICLE</text>
</g>
<!-- VEHICLE&#45;&gt;AIR_VEHICLE -->
<g id="edge1" class="edge">
<title>VEHICLE&#45;&gt;AIR_VEHICLE</title>
<path fill="none" stroke="black" d="M153.28,-215.52C136.01,-206.43 114.71,-195.22 96.23,-185.49"/>
<polygon fill="black" stroke="black" points="98.11,-182.53 87.63,-180.97 94.85,-188.72 98.11,-182.53"/>
</g>
<!-- LAND_VEHICLE -->
<g id="node3" class="node">
<title>LAND_VEHICLE</title>
<polygon fill="powderblue" stroke="royalblue" points="247.5,-180 125.5,-180 125.5,-144 247.5,-144 247.5,-180"/>
<text text-anchor="middle" x="186.5" y="-158.3" font-family="sans" font-size="14.00">LAND_VEHICLE</text>
</g>
<!-- VEHICLE&#45;&gt;LAND_VEHICLE -->
<g id="edge3" class="edge">
<title>VEHICLE&#45;&gt;LAND_VEHICLE</title>
<path fill="none" stroke="black" d="M186.5,-215.7C186.5,-208.41 186.5,-199.73 186.5,-191.54"/>
<polygon fill="black" stroke="black" points="190,-191.62 186.5,-181.62 183,-191.62 190,-191.62"/>
</g>
<!-- WATER_VEHICLE -->
<g id="node4" class="node">
<title>WATER_VEHICLE</title>
<polygon fill="powderblue" stroke="royalblue" points="397,-180 266,-180 266,-144 397,-144 397,-180"/>
<text text-anchor="middle" x="331.5" y="-158.3" font-family="sans" font-size="14.00">WATER_VEHICLE</text>
</g>
<!-- VEHICLE&#45;&gt;WATER_VEHICLE -->
<g id="edge5" class="edge">
<title>VEHICLE&#45;&gt;WATER_VEHICLE</title>
<path fill="none" stroke="black" d="M222.72,-215.52C241.64,-206.38 265.02,-195.09 285.25,-185.33"/>
<polygon fill="black" stroke="black" points="286.65,-188.54 294.13,-181.04 283.6,-182.24 286.65,-188.54"/>
</g>
<!-- HOVERCRAFT -->
<g id="node5" class="node">
<title>HOVERCRAFT</title>
<polygon fill="powderblue" stroke="royalblue" points="266.5,-108 156.5,-108 156.5,-72 266.5,-72 266.5,-108"/>
<text text-anchor="middle" x="211.5" y="-86.3" font-family="sans" font-size="14.00">HOVERCRAFT</text>
</g>
<!-- AIR_VEHICLE&#45;&gt;HOVERCRAFT -->
<g id="edge2" class="edge">
<title>AIR_VEHICLE&#45;&gt;HOVERCRAFT</title>
<path fill="none" stroke="black" d="M92.96,-143.52C113.87,-134.25 139.76,-122.78 162.01,-112.93"/>
<polygon fill="black" stroke="black" points="163.16,-116.25 170.88,-108.99 160.32,-109.85 163.16,-116.25"/>
</g>
<!-- LAND_VEHICLE&#45;&gt;HOVERCRAFT -->
<g id="edge4" class="edge">
<title>LAND_VEHICLE&#45;&gt;HOVERCRAFT</title>
<path fill="none" stroke="black" d="M192.68,-143.7C195.37,-136.15 198.6,-127.12 201.61,-118.68"/>
<polygon fill="black" stroke="black" points="204.81,-120.12 204.88,-109.53 198.22,-117.77 204.81,-120.12"/>
</g>
<!-- WATER_VEHICLE&#45;&gt;HOVERCRAFT -->
<g id="edge6" class="edge">
<title>WATER_VEHICLE&#45;&gt;HOVERCRAFT</title>
<path fill="none" stroke="black" d="M301.53,-143.52C286.24,-134.6 267.44,-123.63 250.98,-114.03"/>
<polygon fill="black" stroke="black" points="252.8,-111.04 242.4,-109.02 249.27,-117.09 252.8,-111.04"/>
</g>
<!-- bht130 -->
<g id="node6" class="node">
<title>bht130</title>
<polygon fill="powderblue" stroke="royalblue" points="351,-36 284,-36 284,0 351,0 351,-36"/>
<text text-anchor="middle" x="317.5" y="-14.3" font-family="sans" font-size="14.00">bht130</text>
</g>
<!-- HOVERCRAFT&#45;&gt;bht130 -->
<g id="edge7" class="edge">
<title>HOVERCRAFT&#45;&gt;bht130</title>
<path fill="none" stroke="black" d="M237.97,-71.52C251.23,-62.76 267.46,-52.04 281.8,-42.58"/>
<polygon fill="black" stroke="black" points="283.68,-45.53 290.1,-37.09 279.83,-39.68 283.68,-45.53"/>
</g>
<!-- ENGINE -->
<g id="node7" class="node">
<title>ENGINE</title>
<polygon fill="powderblue" stroke="royalblue" points="486,-180 415,-180 415,-144 486,-144 486,-180"/>
<text text-anchor="middle" x="450.5" y="-158.3" font-family="sans" font-size="14.00">ENGINE</text>
</g>
<!-- INTERNAL_COMBUSTION_ENGINE -->
<g id="node8" class="node">
<title>INTERNAL_COMBUSTION_ENGINE</title>
<polygon fill="powderblue" stroke="royalblue" points="577,-108 298,-108 298,-72 577,-72 577,-108"/>
<text text-anchor="middle" x="437.5" y="-86.3" font-family="sans" font-size="14.00">INTERNAL_COMBUSTION_ENGINE</text>
</g>
<!-- ENGINE&#45;&gt;INTERNAL_COMBUSTION_ENGINE -->
<g id="edge8" class="edge">
<title>ENGINE&#45;&gt;INTERNAL_COMBUSTION_ENGINE</title>
<path fill="none" stroke="black" d="M447.29,-143.7C445.92,-136.32 444.28,-127.52 442.75,-119.25"/>
<polygon fill="black" stroke="black" points="446.22,-118.79 440.95,-109.59 439.34,-120.06 446.22,-118.79"/>
</g>
<!-- INTERNAL_COMBUSTION_ENGINE&#45;&gt;bht130 -->
<g id="edge9" class="edge">
<title>INTERNAL_COMBUSTION_ENGINE&#45;&gt;bht130</title>
<path fill="none" stroke="black" d="M407.53,-71.52C392.24,-62.6 373.44,-51.63 356.98,-42.03"/>
<polygon fill="black" stroke="black" points="358.8,-39.04 348.4,-37.02 355.27,-45.09 358.8,-39.04"/>
</g>
</g>
</svg>
