<?xml version="1.0" encoding="UTF-8" standalone="no"?>
<!DOCTYPE svg PUBLIC "-//W3C//DTD SVG 1.1//EN"
 "http://www.w3.org/Graphics/SVG/1.1/DTD/svg11.dtd">
<!-- Generated by graphviz version 7.0.6 (20230107.1202)
 -->
<!-- Title: Example Pages: 1 -->
<svg width="272pt" height="191pt"
 viewBox="0.00 0.00 272.00 191.00" xmlns="http://www.w3.org/2000/svg" xmlns:xlink="http://www.w3.org/1999/xlink">
<g id="graph0" class="graph" transform="scale(1 1) rotate(0) translate(4 187)">
<title>Example</title>
<polygon fill="none" stroke="none" points="-4,4 -4,-187 268,-187 268,4 -4,4"/>
<g id="clust1" class="cluster">
<title>cluster_1</title>
<polygon fill="none" stroke="green" stroke-dasharray="5,2" points="8,-64 8,-139 90,-139 90,-64 8,-64"/>
<text text-anchor="middle" x="49" y="-123.8" font-family="sans" font-size="14.00" fill="green">:good</text>
</g>
<g id="clust2" class="cluster">
<title>cluster_2</title>
<polygon fill="none" stroke="red" stroke-dasharray="5,2" points="98,-64 98,-139 170,-139 170,-64 98,-64"/>
<text text-anchor="middle" x="134" y="-123.8" font-family="sans" font-size="14.00" fill="red">:bad</text>
</g>
<g id="clust3" class="cluster">
<title>cluster_3</title>
<polygon fill="none" stroke="purple" stroke-dasharray="5,2" points="178,-64 178,-139 256,-139 256,-64 178,-64"/>
<text text-anchor="middle" x="217" y="-123.8" font-family="sans" font-size="14.00" fill="purple">:ugly</text>
</g>
<!-- good -->
<g id="node1" class="node">
<title>good</title>
<ellipse fill="none" stroke="black" cx="49" cy="-90" rx="33.29" ry="18"/>
<text text-anchor="middle" x="49" y="-86.3" font-family="sans" font-size="14.00">good</text>
</g>
<!-- fin -->
<g id="node5" class="node">
<title>fin</title>
<ellipse fill="none" stroke="black" cx="134" cy="-18" rx="27" ry="18"/>
<text text-anchor="middle" x="134" y="-14.3" font-family="sans" font-size="14.00">fin</text>
</g>
<!-- good&#45;&gt;fin -->
<g id="edge4" class="edge">
<title>good&#45;&gt;fin</title>
<path fill="none" stroke="black" d="M66.61,-74.5C78.78,-64.47 95.15,-50.99 108.71,-39.83"/>
<polygon fill="none" stroke="black" points="110.9,-42.56 116.4,-33.5 106.45,-37.15 110.9,-42.56"/>
</g>
<!-- bad -->
<g id="node2" class="node">
<title>bad</title>
<ellipse fill="none" stroke="black" cx="134" cy="-90" rx="27.9" ry="18"/>
<text text-anchor="middle" x="134" y="-86.3" font-family="sans" font-size="14.00">bad</text>
</g>
<!-- bad&#45;&gt;fin -->
<g id="edge5" class="edge">
<title>bad&#45;&gt;fin</title>
<path fill="none" stroke="black" d="M134,-71.7C134,-64.41 134,-55.73 134,-47.54"/>
<polygon fill="none" stroke="black" points="137.5,-47.62 134,-37.62 130.5,-47.62 137.5,-47.62"/>
</g>
<!-- ugly -->
<g id="node3" class="node">
<title>ugly</title>
<ellipse fill="none" stroke="black" cx="217" cy="-90" rx="30.59" ry="18"/>
<text text-anchor="middle" x="217" y="-86.3" font-family="sans" font-size="14.00">ugly</text>
</g>
<!-- ugly&#45;&gt;fin -->
<g id="edge6" class="edge">
<title>ugly&#45;&gt;fin</title>
<path fill="none" stroke="black" d="M200.2,-74.83C188.35,-64.84 172.27,-51.27 158.92,-40.02"/>
<polygon fill="none" stroke="black" points="161.26,-37.42 151.36,-33.64 156.75,-42.77 161.26,-37.42"/>
</g>
<!-- showdown -->
<g id="node4" class="node">
<title>showdown</title>
<ellipse fill="none" stroke="black" cx="134" cy="-165" rx="58.49" ry="18"/>
<text text-anchor="middle" x="134" y="-161.3" font-family="sans" font-size="14.00">showdown</text>
</g>
<!-- showdown&#45;&gt;good -->
<g id="edge1" class="edge">
<title>showdown&#45;&gt;good</title>
<path fill="none" stroke="black" d="M107.5,-148.8C102.86,-145.76 98.17,-142.43 94,-139 85.32,-131.86 76.66,-123.12 69.29,-115.06"/>
<polygon fill="black" stroke="black" points="72.12,-112.98 62.87,-107.82 66.89,-117.62 72.12,-112.98"/>
</g>
<!-- showdown&#45;&gt;bad -->
<g id="edge2" class="edge">
<title>showdown&#45;&gt;bad</title>
<path fill="none" stroke="black" d="M134,-146.7C134,-138.67 134,-128.9 134,-119.8"/>
<polygon fill="black" stroke="black" points="137.5,-119.94 134,-109.94 130.5,-119.94 137.5,-119.94"/>
</g>
<!-- showdown&#45;&gt;ugly -->
<g id="edge3" class="edge">
<title>showdown&#45;&gt;ugly</title>
<path fill="none" stroke="black" d="M160.98,-148.6C165.48,-145.62 169.99,-142.37 174,-139 182.34,-131.99 190.55,-123.37 197.53,-115.37"/>
<polygon fill="black" stroke="black" points="200.07,-117.79 203.85,-107.89 194.72,-113.27 200.07,-117.79"/>
</g>
</g>
</svg>
