<?xml version="1.0" encoding="UTF-8" standalone="no"?>
<!DOCTYPE svg PUBLIC "-//W3C//DTD SVG 1.1//EN"
 "http://www.w3.org/Graphics/SVG/1.1/DTD/svg11.dtd">
<!-- Generated by graphviz version 7.0.6 (20230107.1202)
 -->
<!-- Title: Example Pages: 1 -->
<svg width="131pt" height="263pt"
 viewBox="0.00 0.00 131.00 263.00" xmlns="http://www.w3.org/2000/svg" xmlns:xlink="http://www.w3.org/1999/xlink">
<g id="graph0" class="graph" transform="scale(1 1) rotate(0) translate(4 259)">
<title>Example</title>
<polygon fill="none" stroke="none" points="-4,4 -4,-259 127,-259 127,4 -4,4"/>
<g id="clust1" class="cluster">
<title>cluster_1</title>
<polygon fill="none" stroke="red" stroke-dasharray="5,2" points="8,-64 8,-139 112,-139 112,-64 8,-64"/>
<text text-anchor="middle" x="60" y="-123.8" font-family="sans" font-size="14.00" fill="red">:fail</text>
</g>
<!-- recover -->
<g id="node1" class="node">
<title>recover</title>
<ellipse fill="none" stroke="black" cx="60" cy="-90" rx="44.39" ry="18"/>
<text text-anchor="middle" x="60" y="-86.3" font-family="sans" font-size="14.00">recover</text>
</g>
<!-- baz -->
<g id="node4" class="node">
<title>baz</title>
<ellipse fill="none" stroke="black" cx="96" cy="-18" rx="27" ry="18"/>
<text text-anchor="middle" x="96" y="-14.3" font-family="sans" font-size="14.00">baz</text>
</g>
<!-- recover&#45;&gt;baz -->
<g id="edge3" class="edge">
<title>recover&#45;&gt;baz</title>
<path fill="none" stroke="black" d="M68.71,-72.05C72.84,-64.03 77.87,-54.26 82.48,-45.3"/>
<polygon fill="none" stroke="black" points="85.46,-47.15 86.92,-36.65 79.24,-43.95 85.46,-47.15"/>
</g>
<!-- foo -->
<g id="node2" class="node">
<title>foo</title>
<ellipse fill="none" stroke="black" cx="96" cy="-237" rx="27" ry="18"/>
<text text-anchor="middle" x="96" y="-233.3" font-family="sans" font-size="14.00">foo</text>
</g>
<!-- bar -->
<g id="node3" class="node">
<title>bar</title>
<ellipse fill="none" stroke="black" cx="96" cy="-165" rx="27" ry="18"/>
<text text-anchor="middle" x="96" y="-161.3" font-family="sans" font-size="14.00">bar</text>
</g>
<!-- foo&#45;&gt;bar -->
<g id="edge1" class="edge">
<title>foo&#45;&gt;bar</title>
<path fill="none" stroke="black" d="M96,-218.7C96,-211.41 96,-202.73 96,-194.54"/>
<polygon fill="black" stroke="black" points="99.5,-194.62 96,-184.62 92.5,-194.62 99.5,-194.62"/>
</g>
<!-- bar&#45;&gt;recover -->
<g id="edge2" class="edge">
<title>bar&#45;&gt;recover</title>
<path fill="none" stroke="black" d="M87.83,-147.44C83.57,-138.79 78.24,-127.98 73.39,-118.15"/>
<polygon fill="black" stroke="black" points="76.62,-116.78 69.06,-109.36 70.34,-119.88 76.62,-116.78"/>
</g>
<!-- bar&#45;&gt;baz -->
<g id="edge4" class="edge">
<title>bar&#45;&gt;baz</title>
<path fill="none" stroke="black" d="M110.29,-149.4C112.63,-146.2 114.71,-142.67 116,-139 127.03,-107.55 122.92,-96.61 116,-64 114.67,-57.73 112.4,-51.27 109.86,-45.27"/>
<polygon fill="none" stroke="black" points="113.16,-44.07 105.77,-36.48 106.82,-47.03 113.16,-44.07"/>
</g>
</g>
</svg>
