<?xml version="1.0" encoding="UTF-8" standalone="no"?>
<!DOCTYPE svg PUBLIC "-//W3C//DTD SVG 1.1//EN"
 "http://www.w3.org/Graphics/SVG/1.1/DTD/svg11.dtd">
<!-- Generated by graphviz version 7.0.6 (20230107.1202)
 -->
<!-- Title: Example Pages: 1 -->
<svg width="196pt" height="360pt"
 viewBox="0.00 0.00 195.81 360.00" xmlns="http://www.w3.org/2000/svg" xmlns:xlink="http://www.w3.org/1999/xlink">
<g id="graph0" class="graph" transform="scale(0.747352 0.747352) rotate(0) translate(4 477.7)">
<title>Example</title>
<polygon fill="none" stroke="none" points="-4,4 -4,-477.7 258,-477.7 258,4 -4,4"/>
<g id="clust1" class="cluster">
<title>cluster_1</title>
<polygon fill="none" stroke="black" stroke-dasharray="5,2" points="8,-187.48 8,-465.7 82,-465.7 82,-187.48 8,-187.48"/>
<text text-anchor="middle" x="45" y="-450.5" font-family="sans" font-size="14.00">1</text>
</g>
<g id="clust2" class="cluster">
<title>cluster_2</title>
<polygon fill="none" stroke="black" stroke-dasharray="5,2" points="90,-97.74 90,-372.96 164,-372.96 164,-97.74 90,-97.74"/>
<text text-anchor="middle" x="127" y="-357.76" font-family="sans" font-size="14.00">2</text>
</g>
<g id="clust3" class="cluster">
<title>cluster_3</title>
<polygon fill="none" stroke="black" stroke-dasharray="5,2" points="172,-8 172,-280.22 246,-280.22 246,-8 172,-8"/>
<text text-anchor="middle" x="209" y="-265.02" font-family="sans" font-size="14.00">3</text>
</g>
<!-- 1/foo -->
<g id="node1" class="node">
<title>1/foo</title>
<ellipse fill="none" stroke="black" cx="45" cy="-407.83" rx="27" ry="26.74"/>
<text text-anchor="middle" x="45" y="-411.63" font-family="sans" font-size="14.00">foo</text>
<text text-anchor="middle" x="45" y="-396.63" font-family="sans" font-size="14.00">1</text>
</g>
<!-- 1/bar -->
<g id="node2" class="node">
<title>1/bar</title>
<ellipse fill="none" stroke="black" cx="45" cy="-315.09" rx="28.07" ry="26.74"/>
<text text-anchor="middle" x="45" y="-318.89" font-family="sans" font-size="14.00">bar</text>
<text text-anchor="middle" x="45" y="-303.89" font-family="sans" font-size="14.00">1</text>
</g>
<!-- 1/foo&#45;&gt;1/bar -->
<g id="edge1" class="edge">
<title>1/foo&#45;&gt;1/bar</title>
<path fill="none" stroke="black" d="M45,-381.07C45,-372.52 45,-362.83 45,-353.58"/>
<polygon fill="black" stroke="black" points="48.5,-353.74 45,-343.74 41.5,-353.74 48.5,-353.74"/>
</g>
<!-- 1/baz -->
<g id="node3" class="node">
<title>1/baz</title>
<ellipse fill="none" stroke="black" cx="45" cy="-222.35" rx="28.98" ry="26.74"/>
<text text-anchor="middle" x="45" y="-226.15" font-family="sans" font-size="14.00">baz</text>
<text text-anchor="middle" x="45" y="-211.15" font-family="sans" font-size="14.00">1</text>
</g>
<!-- 1/bar&#45;&gt;1/baz -->
<g id="edge2" class="edge">
<title>1/bar&#45;&gt;1/baz</title>
<path fill="none" stroke="black" d="M45,-288.33C45,-279.78 45,-270.09 45,-260.84"/>
<polygon fill="black" stroke="black" points="48.5,-261 45,-251 41.5,-261 48.5,-261"/>
</g>
<!-- 2/bar -->
<g id="node5" class="node">
<title>2/bar</title>
<ellipse fill="none" stroke="black" cx="127" cy="-222.35" rx="28.07" ry="26.74"/>
<text text-anchor="middle" x="127" y="-226.15" font-family="sans" font-size="14.00">bar</text>
<text text-anchor="middle" x="127" y="-211.15" font-family="sans" font-size="14.00">2</text>
</g>
<!-- 1/bar&#45;&gt;2/bar -->
<g id="edge7" class="edge">
<title>1/bar&#45;&gt;2/bar</title>
<path fill="none" stroke="black" d="M66.77,-297.83C73.27,-292.54 80.19,-286.42 86,-280.22 93.19,-272.54 100.2,-263.56 106.33,-255.03"/>
<polygon fill="black" stroke="black" points="109.13,-257.14 111.98,-246.94 103.39,-253.14 109.13,-257.14"/>
</g>
<!-- 2/foo -->
<g id="node4" class="node">
<title>2/foo</title>
<ellipse fill="none" stroke="black" cx="127" cy="-315.09" rx="27" ry="26.74"/>
<text text-anchor="middle" x="127" y="-318.89" font-family="sans" font-size="14.00">foo</text>
<text text-anchor="middle" x="127" y="-303.89" font-family="sans" font-size="14.00">2</text>
</g>
<!-- 2/foo&#45;&gt;2/bar -->
<g id="edge3" class="edge">
<title>2/foo&#45;&gt;2/bar</title>
<path fill="none" stroke="black" d="M127,-288.33C127,-279.78 127,-270.09 127,-260.84"/>
<polygon fill="black" stroke="black" points="130.5,-261 127,-251 123.5,-261 130.5,-261"/>
</g>
<!-- 2/baz -->
<g id="node6" class="node">
<title>2/baz</title>
<ellipse fill="none" stroke="black" cx="127" cy="-132.61" rx="28.98" ry="26.74"/>
<text text-anchor="middle" x="127" y="-136.41" font-family="sans" font-size="14.00">baz</text>
<text text-anchor="middle" x="127" y="-121.41" font-family="sans" font-size="14.00">2</text>
</g>
<!-- 2/bar&#45;&gt;2/baz -->
<g id="edge4" class="edge">
<title>2/bar&#45;&gt;2/baz</title>
<path fill="none" stroke="black" d="M127,-195.5C127,-187.8 127,-179.21 127,-170.94"/>
<polygon fill="black" stroke="black" points="130.5,-171.09 127,-161.09 123.5,-171.09 130.5,-171.09"/>
</g>
<!-- 3/bar -->
<g id="node8" class="node">
<title>3/bar</title>
<ellipse fill="none" stroke="black" cx="208" cy="-132.61" rx="28.07" ry="26.74"/>
<text text-anchor="middle" x="208" y="-136.41" font-family="sans" font-size="14.00">bar</text>
<text text-anchor="middle" x="208" y="-121.41" font-family="sans" font-size="14.00">3</text>
</g>
<!-- 2/bar&#45;&gt;3/bar -->
<g id="edge8" class="edge">
<title>2/bar&#45;&gt;3/bar</title>
<path fill="none" stroke="black" d="M144.98,-201.88C155.91,-190.03 170.06,-174.71 182.18,-161.58"/>
<polygon fill="black" stroke="black" points="184.56,-164.17 188.77,-154.44 179.41,-159.42 184.56,-164.17"/>
</g>
<!-- 3/foo -->
<g id="node7" class="node">
<title>3/foo</title>
<ellipse fill="none" stroke="black" cx="208" cy="-222.35" rx="27" ry="26.74"/>
<text text-anchor="middle" x="208" y="-226.15" font-family="sans" font-size="14.00">foo</text>
<text text-anchor="middle" x="208" y="-211.15" font-family="sans" font-size="14.00">3</text>
</g>
<!-- 3/foo&#45;&gt;3/bar -->
<g id="edge5" class="edge">
<title>3/foo&#45;&gt;3/bar</title>
<path fill="none" stroke="black" d="M208,-195.5C208,-187.8 208,-179.21 208,-170.94"/>
<polygon fill="black" stroke="black" points="211.5,-171.09 208,-161.09 204.5,-171.09 211.5,-171.09"/>
</g>
<!-- 3/baz -->
<g id="node9" class="node">
<title>3/baz</title>
<ellipse fill="none" stroke="black" cx="209" cy="-42.87" rx="28.98" ry="26.74"/>
<text text-anchor="middle" x="209" y="-46.67" font-family="sans" font-size="14.00">baz</text>
<text text-anchor="middle" x="209" y="-31.67" font-family="sans" font-size="14.00">3</text>
</g>
<!-- 3/bar&#45;&gt;3/baz -->
<g id="edge6" class="edge">
<title>3/bar&#45;&gt;3/baz</title>
<path fill="none" stroke="black" d="M208.29,-105.76C208.38,-98.06 208.48,-89.47 208.57,-81.2"/>
<polygon fill="black" stroke="black" points="212.07,-81.39 208.69,-71.35 205.07,-81.31 212.07,-81.39"/>
</g>
</g>
</svg>
