<?xml version="1.0" encoding="UTF-8" standalone="no"?>
<!DOCTYPE svg PUBLIC "-//W3C//DTD SVG 1.1//EN"
 "http://www.w3.org/Graphics/SVG/1.1/DTD/svg11.dtd">
<!-- Generated by graphviz version 7.0.6 (20230107.1202)
 -->
<!-- Title: Mini_Cylc Pages: 1 -->
<svg width="320pt" height="116pt"
 viewBox="0.00 0.00 320.29 116.00" xmlns="http://www.w3.org/2000/svg" xmlns:xlink="http://www.w3.org/1999/xlink">
<g id="graph0" class="graph" transform="scale(1 1) rotate(0) translate(4 112)">
<title>Mini_Cylc</title>
<polygon fill="none" stroke="none" points="-4,4 -4,-112 316.29,-112 316.29,4 -4,4"/>
<!-- bar_m3 -->
<g id="node1" class="node">
<title>bar_m3</title>
<ellipse fill="none" stroke="black" cx="46.15" cy="-90" rx="44.69" ry="18"/>
<text text-anchor="middle" x="46.15" y="-86.3" font-family="sans" font-size="14.00">bar_m3</text>
</g>
<!-- baz_m3 -->
<g id="node2" class="node">
<title>baz_m3</title>
<ellipse fill="none" stroke="black" cx="46.15" cy="-18" rx="46.29" ry="18"/>
<text text-anchor="middle" x="46.15" y="-14.3" font-family="sans" font-size="14.00">baz_m3</text>
</g>
<!-- bar_m3&#45;&gt;baz_m3 -->
<g id="edge1" class="edge">
<title>bar_m3&#45;&gt;baz_m3</title>
<path fill="none" stroke="black" d="M46.15,-71.7C46.15,-64.41 46.15,-55.73 46.15,-47.54"/>
<polygon fill="black" stroke="black" points="49.65,-47.62 46.15,-37.62 42.65,-47.62 49.65,-47.62"/>
</g>
<!-- baz_m1 -->
<g id="node3" class="node">
<title>baz_m1</title>
<ellipse fill="none" stroke="black" cx="156.15" cy="-18" rx="46.29" ry="18"/>
<text text-anchor="middle" x="156.15" y="-14.3" font-family="sans" font-size="14.00">baz_m1</text>
</g>
<!-- bar_m1 -->
<g id="node4" class="node">
<title>bar_m1</title>
<ellipse fill="none" stroke="black" cx="156.15" cy="-90" rx="44.69" ry="18"/>
<text text-anchor="middle" x="156.15" y="-86.3" font-family="sans" font-size="14.00">bar_m1</text>
</g>
<!-- bar_m1&#45;&gt;baz_m1 -->
<g id="edge2" class="edge">
<title>bar_m1&#45;&gt;baz_m1</title>
<path fill="none" stroke="black" d="M156.15,-71.7C156.15,-64.41 156.15,-55.73 156.15,-47.54"/>
<polygon fill="black" stroke="black" points="159.65,-47.62 156.15,-37.62 152.65,-47.62 159.65,-47.62"/>
</g>
<!-- baz_m2 -->
<g id="node5" class="node">
<title>baz_m2</title>
<ellipse fill="none" stroke="black" cx="266.15" cy="-18" rx="46.29" ry="18"/>
<text text-anchor="middle" x="266.15" y="-14.3" font-family="sans" font-size="14.00">baz_m2</text>
</g>
<!-- bar_m2 -->
<g id="node6" class="node">
<title>bar_m2</title>
<ellipse fill="none" stroke="black" cx="266.15" cy="-90" rx="44.69" ry="18"/>
<text text-anchor="middle" x="266.15" y="-86.3" font-family="sans" font-size="14.00">bar_m2</text>
</g>
<!-- bar_m2&#45;&gt;baz_m2 -->
<g id="edge3" class="edge">
<title>bar_m2&#45;&gt;baz_m2</title>
<path fill="none" stroke="black" d="M266.15,-71.7C266.15,-64.41 266.15,-55.73 266.15,-47.54"/>
<polygon fill="black" stroke="black" points="269.65,-47.62 266.15,-37.62 262.65,-47.62 269.65,-47.62"/>
</g>
</g>
</svg>
