<?xml version="1.0" encoding="UTF-8" standalone="no"?>
<!DOCTYPE svg PUBLIC "-//W3C//DTD SVG 1.1//EN"
 "http://www.w3.org/Graphics/SVG/1.1/DTD/svg11.dtd">
<!-- Generated by graphviz version 7.0.6 (20230107.1202)
 -->
<!-- Title: Example Pages: 1 -->
<svg width="165pt" height="216pt"
 viewBox="0.00 0.00 165.46 216.00" xmlns="http://www.w3.org/2000/svg" xmlns:xlink="http://www.w3.org/1999/xlink">
<g id="graph0" class="graph" transform="scale(0.895447 0.895447) rotate(0) translate(4 237.22)">
<title>Example</title>
<polygon fill="none" stroke="none" points="-4,4 -4,-237.22 180.78,-237.22 180.78,4 -4,4"/>
<!-- 1/foo -->
<g id="node1" class="node">
<title>1/foo</title>
<ellipse fill="none" stroke="black" cx="88.39" cy="-206.35" rx="88.28" ry="26.74"/>
<text text-anchor="middle" x="88.39" y="-210.15" font-family="sans" font-size="14.00">foo</text>
<text text-anchor="middle" x="88.39" y="-195.15" font-family="sans" font-size="14.00">2000&#45;01&#45;01T12</text>
</g>
<!-- 2/foo -->
<g id="node2" class="node">
<title>2/foo</title>
<ellipse fill="none" stroke="black" cx="88.39" cy="-116.61" rx="88.28" ry="26.74"/>
<text text-anchor="middle" x="88.39" y="-120.41" font-family="sans" font-size="14.00">foo</text>
<text text-anchor="middle" x="88.39" y="-105.41" font-family="sans" font-size="14.00">2000&#45;01&#45;02T12</text>
</g>
<!-- 1/foo&#45;&gt;2/foo -->
<g id="edge1" class="edge">
<title>1/foo&#45;&gt;2/foo</title>
<path fill="none" stroke="black" d="M88.39,-179.5C88.39,-171.8 88.39,-163.21 88.39,-154.94"/>
<polygon fill="black" stroke="black" points="91.89,-155.09 88.39,-145.09 84.89,-155.09 91.89,-155.09"/>
</g>
<!-- 3/foo -->
<g id="node3" class="node">
<title>3/foo</title>
<ellipse fill="none" stroke="black" cx="88.39" cy="-26.87" rx="88.28" ry="26.74"/>
<text text-anchor="middle" x="88.39" y="-30.67" font-family="sans" font-size="14.00">foo</text>
<text text-anchor="middle" x="88.39" y="-15.67" font-family="sans" font-size="14.00">2000&#45;01&#45;03T12</text>
</g>
<!-- 2/foo&#45;&gt;3/foo -->
<g id="edge2" class="edge">
<title>2/foo&#45;&gt;3/foo</title>
<path fill="none" stroke="black" d="M88.39,-89.76C88.39,-82.06 88.39,-73.47 88.39,-65.2"/>
<polygon fill="black" stroke="black" points="91.89,-65.35 88.39,-55.35 84.89,-65.35 91.89,-65.35"/>
</g>
</g>
</svg>
