<?xml version="1.0" encoding="UTF-8" standalone="no"?>
<!DOCTYPE svg PUBLIC "-//W3C//DTD SVG 1.1//EN"
 "http://www.w3.org/Graphics/SVG/1.1/DTD/svg11.dtd">
<!-- Generated by graphviz version 7.0.6 (20230107.1202)
 -->
<!-- Title: bakery Pages: 1 -->
<svg width="345pt" height="260pt"
 viewBox="0.00 0.00 345.38 260.00" xmlns="http://www.w3.org/2000/svg" xmlns:xlink="http://www.w3.org/1999/xlink">
<g id="graph0" class="graph" transform="scale(1 1) rotate(0) translate(4 256)">
<title>bakery</title>
<polygon fill="none" stroke="none" points="-4,4 -4,-256 341.38,-256 341.38,4 -4,4"/>
<!-- purchase ingredients -->
<g id="node1" class="node">
<title>purchase ingredients</title>
<ellipse fill="none" stroke="black" cx="105.94" cy="-234" rx="105.88" ry="18"/>
<text text-anchor="middle" x="105.94" y="-230.3" font-family="sans" font-size="14.00">purchase ingredients</text>
</g>
<!-- make dough -->
<g id="node2" class="node">
<title>make dough</title>
<ellipse fill="none" stroke="black" cx="105.94" cy="-162" rx="66.89" ry="18"/>
<text text-anchor="middle" x="105.94" y="-158.3" font-family="sans" font-size="14.00">make dough</text>
</g>
<!-- purchase ingredients&#45;&gt;make dough -->
<g id="edge1" class="edge">
<title>purchase ingredients&#45;&gt;make dough</title>
<path fill="none" stroke="black" d="M105.94,-215.7C105.94,-208.41 105.94,-199.73 105.94,-191.54"/>
<polygon fill="black" stroke="black" points="109.44,-191.62 105.94,-181.62 102.44,-191.62 109.44,-191.62"/>
</g>
<!-- bake bread -->
<g id="node3" class="node">
<title>bake bread</title>
<ellipse fill="none" stroke="black" cx="184.94" cy="-90" rx="61.19" ry="18"/>
<text text-anchor="middle" x="184.94" y="-86.3" font-family="sans" font-size="14.00">bake bread</text>
</g>
<!-- make dough&#45;&gt;bake bread -->
<g id="edge2" class="edge">
<title>make dough&#45;&gt;bake bread</title>
<path fill="none" stroke="black" d="M124.66,-144.41C134.6,-135.61 146.99,-124.63 157.95,-114.92"/>
<polygon fill="black" stroke="black" points="160.06,-117.73 165.22,-108.47 155.41,-112.49 160.06,-117.73"/>
</g>
<!-- sell bread -->
<g id="node4" class="node">
<title>sell bread</title>
<ellipse fill="none" stroke="black" cx="118.94" cy="-18" rx="54.69" ry="18"/>
<text text-anchor="middle" x="118.94" y="-14.3" font-family="sans" font-size="14.00">sell bread</text>
</g>
<!-- bake bread&#45;&gt;sell bread -->
<g id="edge3" class="edge">
<title>bake bread&#45;&gt;sell bread</title>
<path fill="none" stroke="black" d="M169.3,-72.41C161.24,-63.87 151.26,-53.28 142.31,-43.79"/>
<polygon fill="black" stroke="black" points="144.91,-41.45 135.51,-36.57 139.82,-46.25 144.91,-41.45"/>
</g>
<!-- clean oven -->
<g id="node5" class="node">
<title>clean oven</title>
<ellipse fill="none" stroke="black" cx="250.94" cy="-18" rx="59.59" ry="18"/>
<text text-anchor="middle" x="250.94" y="-14.3" font-family="sans" font-size="14.00">clean oven</text>
</g>
<!-- bake bread&#45;&gt;clean oven -->
<g id="edge4" class="edge">
<title>bake bread&#45;&gt;clean oven</title>
<path fill="none" stroke="black" d="M200.58,-72.41C208.64,-63.87 218.62,-53.28 227.57,-43.79"/>
<polygon fill="black" stroke="black" points="230.06,-46.25 234.37,-36.57 224.97,-41.45 230.06,-46.25"/>
</g>
<!-- pre&#45;heat oven -->
<g id="node6" class="node">
<title>pre&#45;heat oven</title>
<ellipse fill="none" stroke="black" cx="263.94" cy="-162" rx="73.39" ry="18"/>
<text text-anchor="middle" x="263.94" y="-158.3" font-family="sans" font-size="14.00">pre&#45;heat oven</text>
</g>
<!-- pre&#45;heat oven&#45;&gt;bake bread -->
<g id="edge5" class="edge">
<title>pre&#45;heat oven&#45;&gt;bake bread</title>
<path fill="none" stroke="black" d="M245.22,-144.41C235.28,-135.61 222.89,-124.63 211.93,-114.92"/>
<polygon fill="black" stroke="black" points="214.47,-112.49 204.66,-108.47 209.82,-117.73 214.47,-112.49"/>
</g>
</g>
</svg>
