<?xml version="1.0" encoding="UTF-8" standalone="no"?>
<!DOCTYPE svg PUBLIC "-//W3C//DTD SVG 1.1//EN"
 "http://www.w3.org/Graphics/SVG/1.1/DTD/svg11.dtd">
<!-- Generated by graphviz version 7.0.6 (20230107.1202)
 -->
<!-- Title: example Pages: 1 -->
<svg width="504pt" height="433pt"
 viewBox="0.00 0.00 504.00 432.59" xmlns="http://www.w3.org/2000/svg" xmlns:xlink="http://www.w3.org/1999/xlink">
<g id="graph0" class="graph" transform="scale(0.464945 0.464945) rotate(0) translate(4 926.4)">
<title>example</title>
<polygon fill="none" stroke="none" points="-4,4 -4,-926.4 1080,-926.4 1080,4 -4,4"/>
<g id="clust1" class="cluster">
<title>cluster_1</title>
<polygon fill="none" stroke="black" stroke-dasharray="5,2" points="8,-549.44 8,-914.4 356,-914.4 356,-549.44 8,-549.44"/>
<text text-anchor="middle" x="182" y="-899.2" font-family="sans" font-size="14.00">1</text>
</g>
<g id="clust2" class="cluster">
<title>cluster_2</title>
<polygon fill="none" stroke="black" stroke-dasharray="5,2" points="364,-277.22 364,-642.18 712,-642.18 712,-277.22 364,-277.22"/>
<text text-anchor="middle" x="538" y="-626.98" font-family="sans" font-size="14.00">2</text>
</g>
<g id="clust3" class="cluster">
<title>cluster_3</title>
<polygon fill="none" stroke="black" stroke-dasharray="5,2" points="720,-8 720,-369.96 1068,-369.96 1068,-8 720,-8"/>
<text text-anchor="middle" x="894" y="-354.76" font-family="sans" font-size="14.00">3</text>
</g>
<!-- 1/pur -->
<g id="node1" class="node">
<title>1/pur</title>
<ellipse fill="none" stroke="black" cx="257" cy="-856.53" rx="90.52" ry="26.74"/>
<text text-anchor="middle" x="257" y="-860.33" font-family="sans" font-size="14.00">buy_ingredients</text>
<text text-anchor="middle" x="257" y="-845.33" font-family="sans" font-size="14.00">1</text>
</g>
<!-- 1/mak -->
<g id="node2" class="node">
<title>1/mak</title>
<ellipse fill="none" stroke="black" cx="274" cy="-766.79" rx="74.49" ry="26.74"/>
<text text-anchor="middle" x="274" y="-770.59" font-family="sans" font-size="14.00">make_dough</text>
<text text-anchor="middle" x="274" y="-755.59" font-family="sans" font-size="14.00">1</text>
</g>
<!-- 1/pur&#45;&gt;1/mak -->
<g id="edge1" class="edge">
<title>1/pur&#45;&gt;1/mak</title>
<path fill="none" stroke="black" d="M262.01,-829.68C263.52,-821.9 265.2,-813.2 266.82,-804.83"/>
<polygon fill="black" stroke="black" points="270.21,-805.73 268.68,-795.25 263.34,-804.4 270.21,-805.73"/>
</g>
<!-- 1/bak -->
<g id="node3" class="node">
<title>1/bak</title>
<ellipse fill="none" stroke="black" cx="205" cy="-677.05" rx="67.76" ry="26.74"/>
<text text-anchor="middle" x="205" y="-680.85" font-family="sans" font-size="14.00">bake_bread</text>
<text text-anchor="middle" x="205" y="-665.85" font-family="sans" font-size="14.00">1</text>
</g>
<!-- 1/mak&#45;&gt;1/bak -->
<g id="edge2" class="edge">
<title>1/mak&#45;&gt;1/bak</title>
<path fill="none" stroke="black" d="M254.41,-740.88C247.35,-731.9 239.25,-721.6 231.68,-711.98"/>
<polygon fill="black" stroke="black" points="234.51,-709.91 225.57,-704.21 229,-714.24 234.51,-709.91"/>
</g>
<!-- 1/sel -->
<g id="node4" class="node">
<title>1/sel</title>
<ellipse fill="none" stroke="black" cx="137" cy="-584.31" rx="60.62" ry="26.74"/>
<text text-anchor="middle" x="137" y="-588.11" font-family="sans" font-size="14.00">sell_bread</text>
<text text-anchor="middle" x="137" y="-573.11" font-family="sans" font-size="14.00">1</text>
</g>
<!-- 1/bak&#45;&gt;1/sel -->
<g id="edge3" class="edge">
<title>1/bak&#45;&gt;1/sel</title>
<path fill="none" stroke="black" d="M186.42,-651.26C179,-641.35 170.33,-629.79 162.35,-619.14"/>
<polygon fill="black" stroke="black" points="165.26,-617.19 156.47,-611.29 159.66,-621.39 165.26,-617.19"/>
</g>
<!-- 1/cle -->
<g id="node5" class="node">
<title>1/cle</title>
<ellipse fill="none" stroke="black" cx="282" cy="-584.31" rx="66.44" ry="26.74"/>
<text text-anchor="middle" x="282" y="-588.11" font-family="sans" font-size="14.00">clean_oven</text>
<text text-anchor="middle" x="282" y="-573.11" font-family="sans" font-size="14.00">1</text>
</g>
<!-- 1/bak&#45;&gt;1/cle -->
<g id="edge5" class="edge">
<title>1/bak&#45;&gt;1/cle</title>
<path fill="none" stroke="black" d="M226.04,-651.26C234.53,-641.25 244.45,-629.56 253.57,-618.82"/>
<polygon fill="black" stroke="black" points="256.2,-621.12 260.01,-611.23 250.87,-616.59 256.2,-621.12"/>
</g>
<!-- 2/pre -->
<g id="node12" class="node">
<title>2/pre</title>
<ellipse fill="none" stroke="black" cx="455" cy="-494.57" rx="82.96" ry="26.74"/>
<text text-anchor="middle" x="455" y="-498.37" font-family="sans" font-size="14.00">pre_heat_oven</text>
<text text-anchor="middle" x="455" y="-483.37" font-family="sans" font-size="14.00">2</text>
</g>
<!-- 1/cle&#45;&gt;2/pre -->
<g id="edge6" class="edge">
<title>1/cle&#45;&gt;2/pre</title>
<path fill="none" stroke="black" d="M322.56,-562.74C346,-550.85 375.77,-535.75 401.15,-522.88"/>
<polygon fill="black" stroke="black" points="402.68,-526.03 410.01,-518.39 399.51,-519.79 402.68,-526.03"/>
</g>
<!-- 1/pre -->
<g id="node6" class="node">
<title>1/pre</title>
<ellipse fill="none" stroke="black" cx="99" cy="-766.79" rx="82.96" ry="26.74"/>
<text text-anchor="middle" x="99" y="-770.59" font-family="sans" font-size="14.00">pre_heat_oven</text>
<text text-anchor="middle" x="99" y="-755.59" font-family="sans" font-size="14.00">1</text>
</g>
<!-- 1/pre&#45;&gt;1/bak -->
<g id="edge4" class="edge">
<title>1/pre&#45;&gt;1/bak</title>
<path fill="none" stroke="black" d="M128.53,-741.35C140.67,-731.3 154.88,-719.54 167.73,-708.9"/>
<polygon fill="black" stroke="black" points="169.73,-711.79 175.2,-702.72 165.26,-706.4 169.73,-711.79"/>
</g>
<!-- 2/pur -->
<g id="node7" class="node">
<title>2/pur</title>
<ellipse fill="none" stroke="black" cx="613" cy="-584.31" rx="90.52" ry="26.74"/>
<text text-anchor="middle" x="613" y="-588.11" font-family="sans" font-size="14.00">buy_ingredients</text>
<text text-anchor="middle" x="613" y="-573.11" font-family="sans" font-size="14.00">2</text>
</g>
<!-- 2/mak -->
<g id="node8" class="node">
<title>2/mak</title>
<ellipse fill="none" stroke="black" cx="630" cy="-494.57" rx="74.49" ry="26.74"/>
<text text-anchor="middle" x="630" y="-498.37" font-family="sans" font-size="14.00">make_dough</text>
<text text-anchor="middle" x="630" y="-483.37" font-family="sans" font-size="14.00">2</text>
</g>
<!-- 2/pur&#45;&gt;2/mak -->
<g id="edge7" class="edge">
<title>2/pur&#45;&gt;2/mak</title>
<path fill="none" stroke="black" d="M618.01,-557.46C619.52,-549.68 621.2,-540.98 622.82,-532.61"/>
<polygon fill="black" stroke="black" points="626.21,-533.51 624.68,-523.03 619.34,-532.18 626.21,-533.51"/>
</g>
<!-- 2/bak -->
<g id="node9" class="node">
<title>2/bak</title>
<ellipse fill="none" stroke="black" cx="561" cy="-404.83" rx="67.76" ry="26.74"/>
<text text-anchor="middle" x="561" y="-408.63" font-family="sans" font-size="14.00">bake_bread</text>
<text text-anchor="middle" x="561" y="-393.63" font-family="sans" font-size="14.00">2</text>
</g>
<!-- 2/mak&#45;&gt;2/bak -->
<g id="edge8" class="edge">
<title>2/mak&#45;&gt;2/bak</title>
<path fill="none" stroke="black" d="M610.41,-468.66C603.35,-459.68 595.25,-449.38 587.68,-439.76"/>
<polygon fill="black" stroke="black" points="590.51,-437.69 581.57,-431.99 585,-442.01 590.51,-437.69"/>
</g>
<!-- 2/sel -->
<g id="node10" class="node">
<title>2/sel</title>
<ellipse fill="none" stroke="black" cx="493" cy="-312.09" rx="60.62" ry="26.74"/>
<text text-anchor="middle" x="493" y="-315.89" font-family="sans" font-size="14.00">sell_bread</text>
<text text-anchor="middle" x="493" y="-300.89" font-family="sans" font-size="14.00">2</text>
</g>
<!-- 2/bak&#45;&gt;2/sel -->
<g id="edge9" class="edge">
<title>2/bak&#45;&gt;2/sel</title>
<path fill="none" stroke="black" d="M542.42,-379.04C535,-369.13 526.33,-357.57 518.35,-346.92"/>
<polygon fill="black" stroke="black" points="521.26,-344.97 512.47,-339.07 515.66,-349.17 521.26,-344.97"/>
</g>
<!-- 2/cle -->
<g id="node11" class="node">
<title>2/cle</title>
<ellipse fill="none" stroke="black" cx="638" cy="-312.09" rx="66.44" ry="26.74"/>
<text text-anchor="middle" x="638" y="-315.89" font-family="sans" font-size="14.00">clean_oven</text>
<text text-anchor="middle" x="638" y="-300.89" font-family="sans" font-size="14.00">2</text>
</g>
<!-- 2/bak&#45;&gt;2/cle -->
<g id="edge11" class="edge">
<title>2/bak&#45;&gt;2/cle</title>
<path fill="none" stroke="black" d="M582.04,-379.04C590.53,-369.03 600.45,-357.34 609.57,-346.6"/>
<polygon fill="black" stroke="black" points="612.2,-348.9 616.01,-339.01 606.87,-344.37 612.2,-348.9"/>
</g>
<!-- 3/pre -->
<g id="node18" class="node">
<title>3/pre</title>
<ellipse fill="none" stroke="black" cx="811" cy="-222.35" rx="82.96" ry="26.74"/>
<text text-anchor="middle" x="811" y="-226.15" font-family="sans" font-size="14.00">pre_heat_oven</text>
<text text-anchor="middle" x="811" y="-211.15" font-family="sans" font-size="14.00">3</text>
</g>
<!-- 2/cle&#45;&gt;3/pre -->
<g id="edge12" class="edge">
<title>2/cle&#45;&gt;3/pre</title>
<path fill="none" stroke="black" d="M678.56,-290.52C702,-278.63 731.77,-263.53 757.15,-250.66"/>
<polygon fill="black" stroke="black" points="758.68,-253.81 766.01,-246.17 755.51,-247.57 758.68,-253.81"/>
</g>
<!-- 2/pre&#45;&gt;2/bak -->
<g id="edge10" class="edge">
<title>2/pre&#45;&gt;2/bak</title>
<path fill="none" stroke="black" d="M484.53,-469.13C496.67,-459.08 510.88,-447.32 523.73,-436.68"/>
<polygon fill="black" stroke="black" points="525.73,-439.57 531.2,-430.5 521.26,-434.18 525.73,-439.57"/>
</g>
<!-- 3/pur -->
<g id="node13" class="node">
<title>3/pur</title>
<ellipse fill="none" stroke="black" cx="969" cy="-312.09" rx="90.52" ry="26.74"/>
<text text-anchor="middle" x="969" y="-315.89" font-family="sans" font-size="14.00">buy_ingredients</text>
<text text-anchor="middle" x="969" y="-300.89" font-family="sans" font-size="14.00">3</text>
</g>
<!-- 3/mak -->
<g id="node14" class="node">
<title>3/mak</title>
<ellipse fill="none" stroke="black" cx="986" cy="-222.35" rx="74.49" ry="26.74"/>
<text text-anchor="middle" x="986" y="-226.15" font-family="sans" font-size="14.00">make_dough</text>
<text text-anchor="middle" x="986" y="-211.15" font-family="sans" font-size="14.00">3</text>
</g>
<!-- 3/pur&#45;&gt;3/mak -->
<g id="edge13" class="edge">
<title>3/pur&#45;&gt;3/mak</title>
<path fill="none" stroke="black" d="M974.01,-285.24C975.52,-277.46 977.2,-268.75 978.82,-260.39"/>
<polygon fill="black" stroke="black" points="982.21,-261.29 980.68,-250.8 975.34,-259.96 982.21,-261.29"/>
</g>
<!-- 3/bak -->
<g id="node15" class="node">
<title>3/bak</title>
<ellipse fill="none" stroke="black" cx="878" cy="-132.61" rx="67.76" ry="26.74"/>
<text text-anchor="middle" x="878" y="-136.41" font-family="sans" font-size="14.00">bake_bread</text>
<text text-anchor="middle" x="878" y="-121.41" font-family="sans" font-size="14.00">3</text>
</g>
<!-- 3/mak&#45;&gt;3/bak -->
<g id="edge14" class="edge">
<title>3/mak&#45;&gt;3/bak</title>
<path fill="none" stroke="black" d="M956.49,-197.37C943.78,-187.05 928.78,-174.87 915.32,-163.93"/>
<polygon fill="black" stroke="black" points="917.87,-161.49 907.9,-157.9 913.46,-166.93 917.87,-161.49"/>
</g>
<!-- 3/sel -->
<g id="node16" class="node">
<title>3/sel</title>
<ellipse fill="none" stroke="black" cx="800" cy="-42.87" rx="60.62" ry="26.74"/>
<text text-anchor="middle" x="800" y="-46.67" font-family="sans" font-size="14.00">sell_bread</text>
<text text-anchor="middle" x="800" y="-31.67" font-family="sans" font-size="14.00">3</text>
</g>
<!-- 3/bak&#45;&gt;3/sel -->
<g id="edge15" class="edge">
<title>3/bak&#45;&gt;3/sel</title>
<path fill="none" stroke="black" d="M856.27,-107.17C847.91,-97.76 838.21,-86.85 829.25,-76.77"/>
<polygon fill="black" stroke="black" points="831.88,-74.46 822.62,-69.31 826.64,-79.11 831.88,-74.46"/>
</g>
<!-- 3/cle -->
<g id="node17" class="node">
<title>3/cle</title>
<ellipse fill="none" stroke="black" cx="945" cy="-42.87" rx="66.44" ry="26.74"/>
<text text-anchor="middle" x="945" y="-46.67" font-family="sans" font-size="14.00">clean_oven</text>
<text text-anchor="middle" x="945" y="-31.67" font-family="sans" font-size="14.00">3</text>
</g>
<!-- 3/bak&#45;&gt;3/cle -->
<g id="edge17" class="edge">
<title>3/bak&#45;&gt;3/cle</title>
<path fill="none" stroke="black" d="M897.02,-106.7C903.88,-97.72 911.74,-87.42 919.09,-77.8"/>
<polygon fill="black" stroke="black" points="921.73,-80.12 925.01,-70.04 916.16,-75.87 921.73,-80.12"/>
</g>
<!-- 3/pre&#45;&gt;3/bak -->
<g id="edge16" class="edge">
<title>3/pre&#45;&gt;3/bak</title>
<path fill="none" stroke="black" d="M830.38,-195.97C837.1,-187.17 844.76,-177.14 851.93,-167.75"/>
<polygon fill="black" stroke="black" points="854.69,-169.9 857.98,-159.83 849.13,-165.65 854.69,-169.9"/>
</g>
</g>
</svg>
