<?xml version="1.0" encoding="UTF-8" standalone="no"?>
<!DOCTYPE svg PUBLIC "-//W3C//DTD SVG 1.1//EN"
 "http://www.w3.org/Graphics/SVG/1.1/DTD/svg11.dtd">
<!-- Generated by graphviz version 7.0.6 (20230107.1202)
 -->
<!-- Title: example Pages: 1 -->
<svg width="81pt" height="504pt"
 viewBox="0.00 0.00 80.75 504.00" xmlns="http://www.w3.org/2000/svg" xmlns:xlink="http://www.w3.org/1999/xlink">
<g id="graph0" class="graph" transform="scale(0.48642 0.48642) rotate(0) translate(4 1032.14)">
<title>example</title>
<polygon fill="none" stroke="none" points="-4,4 -4,-1032.14 162,-1032.14 162,4 -4,4"/>
<g id="clust1" class="cluster">
<title>cluster_1</title>
<polygon fill="none" stroke="black" stroke-dasharray="5,2" points="8,-658.18 8,-1020.14 150,-1020.14 150,-658.18 8,-658.18"/>
<text text-anchor="middle" x="79" y="-1004.94" font-family="sans" font-size="14.00">1</text>
</g>
<g id="clust2" class="cluster">
<title>cluster_2</title>
<polygon fill="none" stroke="black" stroke-dasharray="5,2" points="8,-377.96 8,-650.18 150,-650.18 150,-377.96 8,-377.96"/>
<text text-anchor="middle" x="79" y="-634.98" font-family="sans" font-size="14.00">2</text>
</g>
<g id="clust3" class="cluster">
<title>cluster_3</title>
<polygon fill="none" stroke="black" stroke-dasharray="5,2" points="8,-8 8,-369.96 150,-369.96 150,-8 8,-8"/>
<text text-anchor="middle" x="79" y="-354.76" font-family="sans" font-size="14.00">3</text>
</g>
<!-- 1/a -->
<g id="node1" class="node">
<title>1/a</title>
<ellipse fill="none" stroke="black" cx="115" cy="-962.27" rx="27" ry="26.74"/>
<text text-anchor="middle" x="115" y="-966.07" font-family="sans" font-size="14.00">a</text>
<text text-anchor="middle" x="115" y="-951.07" font-family="sans" font-size="14.00">1</text>
</g>
<!-- 1/b -->
<g id="node2" class="node">
<title>1/b</title>
<ellipse fill="none" stroke="black" cx="79" cy="-872.53" rx="27" ry="26.74"/>
<text text-anchor="middle" x="79" y="-876.33" font-family="sans" font-size="14.00">b</text>
<text text-anchor="middle" x="79" y="-861.33" font-family="sans" font-size="14.00">1</text>
</g>
<!-- 1/a&#45;&gt;1/b -->
<g id="edge1" class="edge">
<title>1/a&#45;&gt;1/b</title>
<path fill="none" stroke="black" d="M105.16,-937.3C101.5,-928.37 97.27,-918.06 93.29,-908.36"/>
<polygon fill="black" stroke="black" points="96.56,-907.11 89.52,-899.18 90.08,-909.76 96.56,-907.11"/>
</g>
<!-- 1/d -->
<g id="node3" class="node">
<title>1/d</title>
<ellipse fill="none" stroke="black" cx="43" cy="-782.79" rx="27" ry="26.74"/>
<text text-anchor="middle" x="43" y="-786.59" font-family="sans" font-size="14.00">d</text>
<text text-anchor="middle" x="43" y="-771.59" font-family="sans" font-size="14.00">1</text>
</g>
<!-- 1/b&#45;&gt;1/d -->
<g id="edge3" class="edge">
<title>1/b&#45;&gt;1/d</title>
<path fill="none" stroke="black" d="M69.16,-847.56C65.5,-838.63 61.27,-828.32 57.29,-818.62"/>
<polygon fill="black" stroke="black" points="60.56,-817.37 53.52,-809.44 54.08,-820.02 60.56,-817.37"/>
</g>
<!-- 1/f -->
<g id="node4" class="node">
<title>1/f</title>
<ellipse fill="none" stroke="black" cx="115" cy="-782.79" rx="27" ry="26.74"/>
<text text-anchor="middle" x="115" y="-786.59" font-family="sans" font-size="14.00">f</text>
<text text-anchor="middle" x="115" y="-771.59" font-family="sans" font-size="14.00">1</text>
</g>
<!-- 1/b&#45;&gt;1/f -->
<g id="edge2" class="edge">
<title>1/b&#45;&gt;1/f</title>
<path fill="none" stroke="black" d="M88.84,-847.56C92.5,-838.63 96.73,-828.32 100.71,-818.62"/>
<polygon fill="black" stroke="black" points="103.92,-820.02 104.48,-809.44 97.44,-817.37 103.92,-820.02"/>
</g>
<!-- 1/e -->
<g id="node6" class="node">
<title>1/e</title>
<ellipse fill="none" stroke="black" cx="43" cy="-693.05" rx="27" ry="26.74"/>
<text text-anchor="middle" x="43" y="-696.85" font-family="sans" font-size="14.00">e</text>
<text text-anchor="middle" x="43" y="-681.85" font-family="sans" font-size="14.00">1</text>
</g>
<!-- 1/d&#45;&gt;1/e -->
<g id="edge13" class="edge">
<title>1/d&#45;&gt;1/e</title>
<path fill="none" stroke="black" d="M43,-755.94C43,-748.24 43,-739.65 43,-731.38"/>
<polygon fill="black" stroke="black" points="46.5,-731.53 43,-721.53 39.5,-731.53 46.5,-731.53"/>
</g>
<!-- 2/c -->
<g id="node11" class="node">
<title>2/c</title>
<ellipse fill="none" stroke="black" cx="115" cy="-592.31" rx="27" ry="26.74"/>
<text text-anchor="middle" x="115" y="-596.11" font-family="sans" font-size="14.00">c</text>
<text text-anchor="middle" x="115" y="-581.11" font-family="sans" font-size="14.00">2</text>
</g>
<!-- 1/f&#45;&gt;2/c -->
<g id="edge17" class="edge">
<title>1/f&#45;&gt;2/c</title>
<path fill="none" stroke="black" d="M115,-755.58C115,-723.09 115,-667.49 115,-630.57"/>
<polygon fill="black" stroke="black" points="118.5,-630.81 115,-620.81 111.5,-630.81 118.5,-630.81"/>
</g>
<!-- 1/c -->
<g id="node5" class="node">
<title>1/c</title>
<ellipse fill="none" stroke="black" cx="43" cy="-962.27" rx="27" ry="26.74"/>
<text text-anchor="middle" x="43" y="-966.07" font-family="sans" font-size="14.00">c</text>
<text text-anchor="middle" x="43" y="-951.07" font-family="sans" font-size="14.00">1</text>
</g>
<!-- 1/c&#45;&gt;1/b -->
<g id="edge4" class="edge">
<title>1/c&#45;&gt;1/b</title>
<path fill="none" stroke="black" d="M52.84,-937.3C56.5,-928.37 60.73,-918.06 64.71,-908.36"/>
<polygon fill="black" stroke="black" points="67.92,-909.76 68.48,-899.18 61.44,-907.11 67.92,-909.76"/>
</g>
<!-- 2/a -->
<g id="node7" class="node">
<title>2/a</title>
<ellipse fill="none" stroke="black" cx="43" cy="-592.31" rx="27" ry="26.74"/>
<text text-anchor="middle" x="43" y="-596.11" font-family="sans" font-size="14.00">a</text>
<text text-anchor="middle" x="43" y="-581.11" font-family="sans" font-size="14.00">2</text>
</g>
<!-- 1/e&#45;&gt;2/a -->
<g id="edge14" class="edge">
<title>1/e&#45;&gt;2/a</title>
<path fill="none" stroke="black" d="M43,-665.85C43,-655.05 43,-642.34 43,-630.6"/>
<polygon fill="black" stroke="black" points="46.5,-630.81 43,-620.81 39.5,-630.81 46.5,-630.81"/>
</g>
<!-- 2/b -->
<g id="node8" class="node">
<title>2/b</title>
<ellipse fill="none" stroke="black" cx="43" cy="-502.57" rx="27" ry="26.74"/>
<text text-anchor="middle" x="43" y="-506.37" font-family="sans" font-size="14.00">b</text>
<text text-anchor="middle" x="43" y="-491.37" font-family="sans" font-size="14.00">2</text>
</g>
<!-- 2/a&#45;&gt;2/b -->
<g id="edge5" class="edge">
<title>2/a&#45;&gt;2/b</title>
<path fill="none" stroke="black" d="M43,-565.46C43,-557.76 43,-549.17 43,-540.9"/>
<polygon fill="black" stroke="black" points="46.5,-541.05 43,-531.05 39.5,-541.05 46.5,-541.05"/>
</g>
<!-- 2/d -->
<g id="node9" class="node">
<title>2/d</title>
<ellipse fill="none" stroke="black" cx="43" cy="-412.83" rx="27" ry="26.74"/>
<text text-anchor="middle" x="43" y="-416.63" font-family="sans" font-size="14.00">d</text>
<text text-anchor="middle" x="43" y="-401.63" font-family="sans" font-size="14.00">2</text>
</g>
<!-- 2/b&#45;&gt;2/d -->
<g id="edge7" class="edge">
<title>2/b&#45;&gt;2/d</title>
<path fill="none" stroke="black" d="M43,-475.72C43,-468.02 43,-459.43 43,-451.16"/>
<polygon fill="black" stroke="black" points="46.5,-451.31 43,-441.31 39.5,-451.31 46.5,-451.31"/>
</g>
<!-- 2/f -->
<g id="node10" class="node">
<title>2/f</title>
<ellipse fill="none" stroke="black" cx="115" cy="-412.83" rx="27" ry="26.74"/>
<text text-anchor="middle" x="115" y="-416.63" font-family="sans" font-size="14.00">f</text>
<text text-anchor="middle" x="115" y="-401.63" font-family="sans" font-size="14.00">2</text>
</g>
<!-- 2/b&#45;&gt;2/f -->
<g id="edge6" class="edge">
<title>2/b&#45;&gt;2/f</title>
<path fill="none" stroke="black" d="M59.7,-481.22C69.06,-469.81 80.89,-455.4 91.21,-442.83"/>
<polygon fill="black" stroke="black" points="93.79,-445.19 97.43,-435.24 88.38,-440.75 93.79,-445.19"/>
</g>
<!-- 3/a -->
<g id="node12" class="node">
<title>3/a</title>
<ellipse fill="none" stroke="black" cx="43" cy="-312.09" rx="27" ry="26.74"/>
<text text-anchor="middle" x="43" y="-315.89" font-family="sans" font-size="14.00">a</text>
<text text-anchor="middle" x="43" y="-300.89" font-family="sans" font-size="14.00">3</text>
</g>
<!-- 2/d&#45;&gt;3/a -->
<g id="edge16" class="edge">
<title>2/d&#45;&gt;3/a</title>
<path fill="none" stroke="black" d="M43,-385.63C43,-374.83 43,-362.12 43,-350.38"/>
<polygon fill="black" stroke="black" points="46.5,-350.59 43,-340.59 39.5,-350.59 46.5,-350.59"/>
</g>
<!-- 3/c -->
<g id="node16" class="node">
<title>3/c</title>
<ellipse fill="none" stroke="black" cx="115" cy="-312.09" rx="27" ry="26.74"/>
<text text-anchor="middle" x="115" y="-315.89" font-family="sans" font-size="14.00">c</text>
<text text-anchor="middle" x="115" y="-300.89" font-family="sans" font-size="14.00">3</text>
</g>
<!-- 2/f&#45;&gt;3/c -->
<g id="edge18" class="edge">
<title>2/f&#45;&gt;3/c</title>
<path fill="none" stroke="black" d="M115,-385.63C115,-374.83 115,-362.12 115,-350.38"/>
<polygon fill="black" stroke="black" points="118.5,-350.59 115,-340.59 111.5,-350.59 118.5,-350.59"/>
</g>
<!-- 2/c&#45;&gt;2/b -->
<g id="edge8" class="edge">
<title>2/c&#45;&gt;2/b</title>
<path fill="none" stroke="black" d="M98.3,-570.96C88.94,-559.55 77.11,-545.14 66.79,-532.57"/>
<polygon fill="black" stroke="black" points="69.62,-530.49 60.57,-524.98 64.21,-534.93 69.62,-530.49"/>
</g>
<!-- 3/b -->
<g id="node13" class="node">
<title>3/b</title>
<ellipse fill="none" stroke="black" cx="79" cy="-222.35" rx="27" ry="26.74"/>
<text text-anchor="middle" x="79" y="-226.15" font-family="sans" font-size="14.00">b</text>
<text text-anchor="middle" x="79" y="-211.15" font-family="sans" font-size="14.00">3</text>
</g>
<!-- 3/a&#45;&gt;3/b -->
<g id="edge9" class="edge">
<title>3/a&#45;&gt;3/b</title>
<path fill="none" stroke="black" d="M52.84,-287.12C56.5,-278.19 60.73,-267.88 64.71,-258.18"/>
<polygon fill="black" stroke="black" points="67.92,-259.58 68.48,-249 61.44,-256.92 67.92,-259.58"/>
</g>
<!-- 3/d -->
<g id="node14" class="node">
<title>3/d</title>
<ellipse fill="none" stroke="black" cx="43" cy="-132.61" rx="27" ry="26.74"/>
<text text-anchor="middle" x="43" y="-136.41" font-family="sans" font-size="14.00">d</text>
<text text-anchor="middle" x="43" y="-121.41" font-family="sans" font-size="14.00">3</text>
</g>
<!-- 3/b&#45;&gt;3/d -->
<g id="edge11" class="edge">
<title>3/b&#45;&gt;3/d</title>
<path fill="none" stroke="black" d="M69.16,-197.37C65.5,-188.45 61.27,-178.14 57.29,-168.44"/>
<polygon fill="black" stroke="black" points="60.56,-167.18 53.52,-159.26 54.08,-169.84 60.56,-167.18"/>
</g>
<!-- 3/f -->
<g id="node15" class="node">
<title>3/f</title>
<ellipse fill="none" stroke="black" cx="115" cy="-132.61" rx="27" ry="26.74"/>
<text text-anchor="middle" x="115" y="-136.41" font-family="sans" font-size="14.00">f</text>
<text text-anchor="middle" x="115" y="-121.41" font-family="sans" font-size="14.00">3</text>
</g>
<!-- 3/b&#45;&gt;3/f -->
<g id="edge10" class="edge">
<title>3/b&#45;&gt;3/f</title>
<path fill="none" stroke="black" d="M88.84,-197.37C92.5,-188.45 96.73,-178.14 100.71,-168.44"/>
<polygon fill="black" stroke="black" points="103.92,-169.84 104.48,-159.26 97.44,-167.18 103.92,-169.84"/>
</g>
<!-- 3/e -->
<g id="node17" class="node">
<title>3/e</title>
<ellipse fill="none" stroke="black" cx="43" cy="-42.87" rx="27" ry="26.74"/>
<text text-anchor="middle" x="43" y="-46.67" font-family="sans" font-size="14.00">e</text>
<text text-anchor="middle" x="43" y="-31.67" font-family="sans" font-size="14.00">3</text>
</g>
<!-- 3/d&#45;&gt;3/e -->
<g id="edge15" class="edge">
<title>3/d&#45;&gt;3/e</title>
<path fill="none" stroke="black" d="M43,-105.76C43,-98.06 43,-89.47 43,-81.2"/>
<polygon fill="black" stroke="black" points="46.5,-81.35 43,-71.35 39.5,-81.35 46.5,-81.35"/>
</g>
<!-- 3/c&#45;&gt;3/b -->
<g id="edge12" class="edge">
<title>3/c&#45;&gt;3/b</title>
<path fill="none" stroke="black" d="M105.16,-287.12C101.5,-278.19 97.27,-267.88 93.29,-258.18"/>
<polygon fill="black" stroke="black" points="96.56,-256.92 89.52,-249 90.08,-259.58 96.56,-256.92"/>
</g>
</g>
</svg>
