<?xml version="1.0" encoding="UTF-8" standalone="no"?>
<!DOCTYPE svg PUBLIC "-//W3C//DTD SVG 1.1//EN"
 "http://www.w3.org/Graphics/SVG/1.1/DTD/svg11.dtd">
<!-- Generated by graphviz version 7.0.6 (20230107.1202)
 -->
<!-- Title: example Pages: 1 -->
<svg width="504pt" height="179pt"
 viewBox="0.00 0.00 504.00 179.45" xmlns="http://www.w3.org/2000/svg" xmlns:xlink="http://www.w3.org/1999/xlink">
<g id="graph0" class="graph" transform="scale(0.464945 0.464945) rotate(0) translate(4 381.96)">
<title>example</title>
<polygon fill="none" stroke="none" points="-4,4 -4,-381.96 1080,-381.96 1080,4 -4,4"/>
<g id="clust1" class="cluster">
<title>cluster_1</title>
<polygon fill="none" stroke="black" stroke-dasharray="5,2" points="8,-8 8,-369.96 356,-369.96 356,-8 8,-8"/>
<text text-anchor="middle" x="182" y="-354.76" font-family="sans" font-size="14.00">1</text>
</g>
<g id="clust2" class="cluster">
<title>cluster_2</title>
<polygon fill="none" stroke="black" stroke-dasharray="5,2" points="364,-8 364,-369.96 712,-369.96 712,-8 364,-8"/>
<text text-anchor="middle" x="538" y="-354.76" font-family="sans" font-size="14.00">2</text>
</g>
<g id="clust3" class="cluster">
<title>cluster_3</title>
<polygon fill="none" stroke="black" stroke-dasharray="5,2" points="720,-8 720,-369.96 1068,-369.96 1068,-8 720,-8"/>
<text text-anchor="middle" x="894" y="-354.76" font-family="sans" font-size="14.00">3</text>
</g>
<!-- 1/pur -->
<g id="node1" class="node">
<title>1/pur</title>
<ellipse fill="none" stroke="black" cx="257" cy="-312.09" rx="90.52" ry="26.74"/>
<text text-anchor="middle" x="257" y="-315.89" font-family="sans" font-size="14.00">buy_ingredients</text>
<text text-anchor="middle" x="257" y="-300.89" font-family="sans" font-size="14.00">1</text>
</g>
<!-- 1/mak -->
<g id="node2" class="node">
<title>1/mak</title>
<ellipse fill="none" stroke="black" cx="274" cy="-222.35" rx="74.49" ry="26.74"/>
<text text-anchor="middle" x="274" y="-226.15" font-family="sans" font-size="14.00">make_dough</text>
<text text-anchor="middle" x="274" y="-211.15" font-family="sans" font-size="14.00">1</text>
</g>
<!-- 1/pur&#45;&gt;1/mak -->
<g id="edge1" class="edge">
<title>1/pur&#45;&gt;1/mak</title>
<path fill="none" stroke="black" d="M262.01,-285.24C263.52,-277.46 265.2,-268.75 266.82,-260.39"/>
<polygon fill="black" stroke="black" points="270.21,-261.29 268.68,-250.8 263.34,-259.96 270.21,-261.29"/>
</g>
<!-- 1/bak -->
<g id="node3" class="node">
<title>1/bak</title>
<ellipse fill="none" stroke="black" cx="166" cy="-132.61" rx="67.76" ry="26.74"/>
<text text-anchor="middle" x="166" y="-136.41" font-family="sans" font-size="14.00">bake_bread</text>
<text text-anchor="middle" x="166" y="-121.41" font-family="sans" font-size="14.00">1</text>
</g>
<!-- 1/mak&#45;&gt;1/bak -->
<g id="edge2" class="edge">
<title>1/mak&#45;&gt;1/bak</title>
<path fill="none" stroke="black" d="M244.49,-197.37C231.78,-187.05 216.78,-174.87 203.32,-163.93"/>
<polygon fill="black" stroke="black" points="205.87,-161.49 195.9,-157.9 201.46,-166.93 205.87,-161.49"/>
</g>
<!-- 1/sel -->
<g id="node4" class="node">
<title>1/sel</title>
<ellipse fill="none" stroke="black" cx="88" cy="-42.87" rx="60.62" ry="26.74"/>
<text text-anchor="middle" x="88" y="-46.67" font-family="sans" font-size="14.00">sell_bread</text>
<text text-anchor="middle" x="88" y="-31.67" font-family="sans" font-size="14.00">1</text>
</g>
<!-- 1/bak&#45;&gt;1/sel -->
<g id="edge3" class="edge">
<title>1/bak&#45;&gt;1/sel</title>
<path fill="none" stroke="black" d="M144.27,-107.17C135.91,-97.76 126.21,-86.85 117.25,-76.77"/>
<polygon fill="black" stroke="black" points="119.88,-74.46 110.62,-69.31 114.64,-79.11 119.88,-74.46"/>
</g>
<!-- 1/cle -->
<g id="node5" class="node">
<title>1/cle</title>
<ellipse fill="none" stroke="black" cx="233" cy="-42.87" rx="66.44" ry="26.74"/>
<text text-anchor="middle" x="233" y="-46.67" font-family="sans" font-size="14.00">clean_oven</text>
<text text-anchor="middle" x="233" y="-31.67" font-family="sans" font-size="14.00">1</text>
</g>
<!-- 1/bak&#45;&gt;1/cle -->
<g id="edge5" class="edge">
<title>1/bak&#45;&gt;1/cle</title>
<path fill="none" stroke="black" d="M185.02,-106.7C191.88,-97.72 199.74,-87.42 207.09,-77.8"/>
<polygon fill="black" stroke="black" points="209.73,-80.12 213.01,-70.04 204.16,-75.87 209.73,-80.12"/>
</g>
<!-- 1/pre -->
<g id="node6" class="node">
<title>1/pre</title>
<ellipse fill="none" stroke="black" cx="99" cy="-222.35" rx="82.96" ry="26.74"/>
<text text-anchor="middle" x="99" y="-226.15" font-family="sans" font-size="14.00">pre_heat_oven</text>
<text text-anchor="middle" x="99" y="-211.15" font-family="sans" font-size="14.00">1</text>
</g>
<!-- 1/pre&#45;&gt;1/bak -->
<g id="edge4" class="edge">
<title>1/pre&#45;&gt;1/bak</title>
<path fill="none" stroke="black" d="M118.38,-195.97C125.1,-187.17 132.76,-177.14 139.93,-167.75"/>
<polygon fill="black" stroke="black" points="142.69,-169.9 145.98,-159.83 137.13,-165.65 142.69,-169.9"/>
</g>
<!-- 2/pur -->
<g id="node7" class="node">
<title>2/pur</title>
<ellipse fill="none" stroke="black" cx="613" cy="-312.09" rx="90.52" ry="26.74"/>
<text text-anchor="middle" x="613" y="-315.89" font-family="sans" font-size="14.00">buy_ingredients</text>
<text text-anchor="middle" x="613" y="-300.89" font-family="sans" font-size="14.00">2</text>
</g>
<!-- 2/mak -->
<g id="node8" class="node">
<title>2/mak</title>
<ellipse fill="none" stroke="black" cx="630" cy="-222.35" rx="74.49" ry="26.74"/>
<text text-anchor="middle" x="630" y="-226.15" font-family="sans" font-size="14.00">make_dough</text>
<text text-anchor="middle" x="630" y="-211.15" font-family="sans" font-size="14.00">2</text>
</g>
<!-- 2/pur&#45;&gt;2/mak -->
<g id="edge6" class="edge">
<title>2/pur&#45;&gt;2/mak</title>
<path fill="none" stroke="black" d="M618.01,-285.24C619.52,-277.46 621.2,-268.75 622.82,-260.39"/>
<polygon fill="black" stroke="black" points="626.21,-261.29 624.68,-250.8 619.34,-259.96 626.21,-261.29"/>
</g>
<!-- 2/bak -->
<g id="node9" class="node">
<title>2/bak</title>
<ellipse fill="none" stroke="black" cx="522" cy="-132.61" rx="67.76" ry="26.74"/>
<text text-anchor="middle" x="522" y="-136.41" font-family="sans" font-size="14.00">bake_bread</text>
<text text-anchor="middle" x="522" y="-121.41" font-family="sans" font-size="14.00">2</text>
</g>
<!-- 2/mak&#45;&gt;2/bak -->
<g id="edge7" class="edge">
<title>2/mak&#45;&gt;2/bak</title>
<path fill="none" stroke="black" d="M600.49,-197.37C587.78,-187.05 572.78,-174.87 559.32,-163.93"/>
<polygon fill="black" stroke="black" points="561.87,-161.49 551.9,-157.9 557.46,-166.93 561.87,-161.49"/>
</g>
<!-- 2/sel -->
<g id="node10" class="node">
<title>2/sel</title>
<ellipse fill="none" stroke="black" cx="444" cy="-42.87" rx="60.62" ry="26.74"/>
<text text-anchor="middle" x="444" y="-46.67" font-family="sans" font-size="14.00">sell_bread</text>
<text text-anchor="middle" x="444" y="-31.67" font-family="sans" font-size="14.00">2</text>
</g>
<!-- 2/bak&#45;&gt;2/sel -->
<g id="edge8" class="edge">
<title>2/bak&#45;&gt;2/sel</title>
<path fill="none" stroke="black" d="M500.27,-107.17C491.91,-97.76 482.21,-86.85 473.25,-76.77"/>
<polygon fill="black" stroke="black" points="475.88,-74.46 466.62,-69.31 470.64,-79.11 475.88,-74.46"/>
</g>
<!-- 2/cle -->
<g id="node11" class="node">
<title>2/cle</title>
<ellipse fill="none" stroke="black" cx="589" cy="-42.87" rx="66.44" ry="26.74"/>
<text text-anchor="middle" x="589" y="-46.67" font-family="sans" font-size="14.00">clean_oven</text>
<text text-anchor="middle" x="589" y="-31.67" font-family="sans" font-size="14.00">2</text>
</g>
<!-- 2/bak&#45;&gt;2/cle -->
<g id="edge10" class="edge">
<title>2/bak&#45;&gt;2/cle</title>
<path fill="none" stroke="black" d="M541.02,-106.7C547.88,-97.72 555.74,-87.42 563.09,-77.8"/>
<polygon fill="black" stroke="black" points="565.73,-80.12 569.01,-70.04 560.16,-75.87 565.73,-80.12"/>
</g>
<!-- 2/pre -->
<g id="node12" class="node">
<title>2/pre</title>
<ellipse fill="none" stroke="black" cx="455" cy="-222.35" rx="82.96" ry="26.74"/>
<text text-anchor="middle" x="455" y="-226.15" font-family="sans" font-size="14.00">pre_heat_oven</text>
<text text-anchor="middle" x="455" y="-211.15" font-family="sans" font-size="14.00">2</text>
</g>
<!-- 2/pre&#45;&gt;2/bak -->
<g id="edge9" class="edge">
<title>2/pre&#45;&gt;2/bak</title>
<path fill="none" stroke="black" d="M474.38,-195.97C481.1,-187.17 488.76,-177.14 495.93,-167.75"/>
<polygon fill="black" stroke="black" points="498.69,-169.9 501.98,-159.83 493.13,-165.65 498.69,-169.9"/>
</g>
<!-- 3/pur -->
<g id="node13" class="node">
<title>3/pur</title>
<ellipse fill="none" stroke="black" cx="969" cy="-312.09" rx="90.52" ry="26.74"/>
<text text-anchor="middle" x="969" y="-315.89" font-family="sans" font-size="14.00">buy_ingredients</text>
<text text-anchor="middle" x="969" y="-300.89" font-family="sans" font-size="14.00">3</text>
</g>
<!-- 3/mak -->
<g id="node14" class="node">
<title>3/mak</title>
<ellipse fill="none" stroke="black" cx="986" cy="-222.35" rx="74.49" ry="26.74"/>
<text text-anchor="middle" x="986" y="-226.15" font-family="sans" font-size="14.00">make_dough</text>
<text text-anchor="middle" x="986" y="-211.15" font-family="sans" font-size="14.00">3</text>
</g>
<!-- 3/pur&#45;&gt;3/mak -->
<g id="edge11" class="edge">
<title>3/pur&#45;&gt;3/mak</title>
<path fill="none" stroke="black" d="M974.01,-285.24C975.52,-277.46 977.2,-268.75 978.82,-260.39"/>
<polygon fill="black" stroke="black" points="982.21,-261.29 980.68,-250.8 975.34,-259.96 982.21,-261.29"/>
</g>
<!-- 3/bak -->
<g id="node15" class="node">
<title>3/bak</title>
<ellipse fill="none" stroke="black" cx="878" cy="-132.61" rx="67.76" ry="26.74"/>
<text text-anchor="middle" x="878" y="-136.41" font-family="sans" font-size="14.00">bake_bread</text>
<text text-anchor="middle" x="878" y="-121.41" font-family="sans" font-size="14.00">3</text>
</g>
<!-- 3/mak&#45;&gt;3/bak -->
<g id="edge12" class="edge">
<title>3/mak&#45;&gt;3/bak</title>
<path fill="none" stroke="black" d="M956.49,-197.37C943.78,-187.05 928.78,-174.87 915.32,-163.93"/>
<polygon fill="black" stroke="black" points="917.87,-161.49 907.9,-157.9 913.46,-166.93 917.87,-161.49"/>
</g>
<!-- 3/sel -->
<g id="node16" class="node">
<title>3/sel</title>
<ellipse fill="none" stroke="black" cx="800" cy="-42.87" rx="60.62" ry="26.74"/>
<text text-anchor="middle" x="800" y="-46.67" font-family="sans" font-size="14.00">sell_bread</text>
<text text-anchor="middle" x="800" y="-31.67" font-family="sans" font-size="14.00">3</text>
</g>
<!-- 3/bak&#45;&gt;3/sel -->
<g id="edge13" class="edge">
<title>3/bak&#45;&gt;3/sel</title>
<path fill="none" stroke="black" d="M856.27,-107.17C847.91,-97.76 838.21,-86.85 829.25,-76.77"/>
<polygon fill="black" stroke="black" points="831.88,-74.46 822.62,-69.31 826.64,-79.11 831.88,-74.46"/>
</g>
<!-- 3/cle -->
<g id="node17" class="node">
<title>3/cle</title>
<ellipse fill="none" stroke="black" cx="945" cy="-42.87" rx="66.44" ry="26.74"/>
<text text-anchor="middle" x="945" y="-46.67" font-family="sans" font-size="14.00">clean_oven</text>
<text text-anchor="middle" x="945" y="-31.67" font-family="sans" font-size="14.00">3</text>
</g>
<!-- 3/bak&#45;&gt;3/cle -->
<g id="edge15" class="edge">
<title>3/bak&#45;&gt;3/cle</title>
<path fill="none" stroke="black" d="M897.02,-106.7C903.88,-97.72 911.74,-87.42 919.09,-77.8"/>
<polygon fill="black" stroke="black" points="921.73,-80.12 925.01,-70.04 916.16,-75.87 921.73,-80.12"/>
</g>
<!-- 3/pre -->
<g id="node18" class="node">
<title>3/pre</title>
<ellipse fill="none" stroke="black" cx="811" cy="-222.35" rx="82.96" ry="26.74"/>
<text text-anchor="middle" x="811" y="-226.15" font-family="sans" font-size="14.00">pre_heat_oven</text>
<text text-anchor="middle" x="811" y="-211.15" font-family="sans" font-size="14.00">3</text>
</g>
<!-- 3/pre&#45;&gt;3/bak -->
<g id="edge14" class="edge">
<title>3/pre&#45;&gt;3/bak</title>
<path fill="none" stroke="black" d="M830.38,-195.97C837.1,-187.17 844.76,-177.14 851.93,-167.75"/>
<polygon fill="black" stroke="black" points="854.69,-169.9 857.98,-159.83 849.13,-165.65 854.69,-169.9"/>
</g>
</g>
</svg>
