<?xml version="1.0" encoding="UTF-8" standalone="no"?>
<!DOCTYPE svg PUBLIC "-//W3C//DTD SVG 1.1//EN"
 "http://www.w3.org/Graphics/SVG/1.1/DTD/svg11.dtd">
<!-- Generated by graphviz version 7.0.6 (20230107.1202)
 -->
<!-- Title: Example Pages: 1 -->
<svg width="284pt" height="260pt"
 viewBox="0.00 0.00 283.50 260.00" xmlns="http://www.w3.org/2000/svg" xmlns:xlink="http://www.w3.org/1999/xlink">
<g id="graph0" class="graph" transform="scale(1 1) rotate(0) translate(4 256)">
<title>Example</title>
<polygon fill="none" stroke="none" points="-4,4 -4,-256 279.5,-256 279.5,4 -4,4"/>
<!-- VEHICLE -->
<g id="node1" class="node">
<title>VEHICLE</title>
<polygon fill="powderblue" stroke="royalblue" points="99.5,-252 22.5,-252 22.5,-216 99.5,-216 99.5,-252"/>
<text text-anchor="middle" x="61" y="-230.3" font-family="sans" font-size="14.00">VEHICLE</text>
</g>
<!-- LAND_VEHICLE -->
<g id="node2" class="node">
<title>LAND_VEHICLE</title>
<polygon fill="powderblue" stroke="royalblue" points="122,-180 0,-180 0,-144 122,-144 122,-180"/>
<text text-anchor="middle" x="61" y="-158.3" font-family="sans" font-size="14.00">LAND_VEHICLE</text>
</g>
<!-- VEHICLE&#45;&gt;LAND_VEHICLE -->
<g id="edge1" class="edge">
<title>VEHICLE&#45;&gt;LAND_VEHICLE</title>
<path fill="none" stroke="black" d="M61,-215.7C61,-208.41 61,-199.73 61,-191.54"/>
<polygon fill="black" stroke="black" points="64.5,-191.62 61,-181.62 57.5,-191.62 64.5,-191.62"/>
</g>
<!-- BICYCLE -->
<g id="node3" class="node">
<title>BICYCLE</title>
<polygon fill="powderblue" stroke="royalblue" points="98,-108 24,-108 24,-72 98,-72 98,-108"/>
<text text-anchor="middle" x="61" y="-86.3" font-family="sans" font-size="14.00">BICYCLE</text>
</g>
<!-- LAND_VEHICLE&#45;&gt;BICYCLE -->
<g id="edge2" class="edge">
<title>LAND_VEHICLE&#45;&gt;BICYCLE</title>
<path fill="none" stroke="black" d="M61,-143.7C61,-136.41 61,-127.73 61,-119.54"/>
<polygon fill="black" stroke="black" points="64.5,-119.62 61,-109.62 57.5,-119.62 64.5,-119.62"/>
</g>
<!-- penny_farthing -->
<g id="node5" class="node">
<title>penny_farthing</title>
<polygon fill="powderblue" stroke="royalblue" points="203,-36 53,-36 53,0 203,0 203,-36"/>
<text text-anchor="middle" x="128" y="-14.3" font-family="sans" font-size="14.00">penny_farthing</text>
</g>
<!-- BICYCLE&#45;&gt;penny_farthing -->
<g id="edge3" class="edge">
<title>BICYCLE&#45;&gt;penny_farthing</title>
<path fill="none" stroke="black" d="M77.56,-71.7C85.43,-63.47 94.99,-53.48 103.67,-44.42"/>
<polygon fill="black" stroke="black" points="106.2,-46.84 110.58,-37.2 101.14,-42 106.2,-46.84"/>
</g>
<!-- HUMAN_ENGINE -->
<g id="node4" class="node">
<title>HUMAN_ENGINE</title>
<polygon fill="powderblue" stroke="royalblue" points="275.5,-108 116.5,-108 116.5,-72 275.5,-72 275.5,-108"/>
<text text-anchor="middle" x="196" y="-86.3" font-family="sans" font-size="14.00">HUMAN_ENGINE</text>
</g>
<!-- HUMAN_ENGINE&#45;&gt;penny_farthing -->
<g id="edge4" class="edge">
<title>HUMAN_ENGINE&#45;&gt;penny_farthing</title>
<path fill="none" stroke="black" d="M179.19,-71.7C171.12,-63.39 161.3,-53.28 152.42,-44.14"/>
<polygon fill="black" stroke="black" points="155.15,-41.92 145.67,-37.19 150.13,-46.8 155.15,-41.92"/>
</g>
</g>
</svg>
