<?xml version="1.0" encoding="UTF-8" standalone="no"?>
<!DOCTYPE svg PUBLIC "-//W3C//DTD SVG 1.1//EN"
 "http://www.w3.org/Graphics/SVG/1.1/DTD/svg11.dtd">
<!-- Generated by graphviz version 7.0.6 (20230107.1202)
 -->
<!-- Title: Example Pages: 1 -->
<svg width="167pt" height="191pt"
 viewBox="0.00 0.00 167.00 191.00" xmlns="http://www.w3.org/2000/svg" xmlns:xlink="http://www.w3.org/1999/xlink">
<g id="graph0" class="graph" transform="scale(1 1) rotate(0) translate(4 187)">
<title>Example</title>
<polygon fill="none" stroke="none" points="-4,4 -4,-187 163,-187 163,4 -4,4"/>
<g id="clust1" class="cluster">
<title>cluster_1</title>
<polygon fill="none" stroke="red" stroke-dasharray="5,2" points="8,-64 8,-139 112,-139 112,-64 8,-64"/>
<text text-anchor="middle" x="60" y="-123.8" font-family="sans" font-size="14.00" fill="red">:fail</text>
</g>
<!-- recover -->
<g id="node1" class="node">
<title>recover</title>
<ellipse fill="none" stroke="black" cx="60" cy="-90" rx="44.39" ry="18"/>
<text text-anchor="middle" x="60" y="-86.3" font-family="sans" font-size="14.00">recover</text>
</g>
<!-- bar -->
<g id="node3" class="node">
<title>bar</title>
<ellipse fill="none" stroke="black" cx="132" cy="-18" rx="27" ry="18"/>
<text text-anchor="middle" x="132" y="-14.3" font-family="sans" font-size="14.00">bar</text>
</g>
<!-- recover&#45;&gt;bar -->
<g id="edge2" class="edge">
<title>recover&#45;&gt;bar</title>
<path fill="none" stroke="black" d="M76.34,-73.12C86.03,-63.69 98.46,-51.61 109.12,-41.25"/>
<polygon fill="none" stroke="black" points="111.38,-43.93 116.11,-34.45 106.5,-38.91 111.38,-43.93"/>
</g>
<!-- foo -->
<g id="node2" class="node">
<title>foo</title>
<ellipse fill="none" stroke="black" cx="132" cy="-165" rx="27" ry="18"/>
<text text-anchor="middle" x="132" y="-161.3" font-family="sans" font-size="14.00">foo</text>
</g>
<!-- foo&#45;&gt;recover -->
<g id="edge1" class="edge">
<title>foo&#45;&gt;recover</title>
<path fill="none" stroke="black" d="M117.78,-149.58C108.08,-139.75 95.01,-126.49 83.75,-115.08"/>
<polygon fill="black" stroke="black" points="86.53,-112.91 77.01,-108.25 81.54,-117.83 86.53,-112.91"/>
</g>
<!-- foo&#45;&gt;bar -->
<g id="edge3" class="edge">
<title>foo&#45;&gt;bar</title>
<path fill="none" stroke="black" d="M132,-146.51C132,-121.88 132,-76.71 132,-47.28"/>
<polygon fill="none" stroke="black" points="135.5,-47.62 132,-37.62 128.5,-47.62 135.5,-47.62"/>
</g>
</g>
</svg>
