<?xml version="1.0" encoding="UTF-8" standalone="no"?>
<!DOCTYPE svg PUBLIC "-//W3C//DTD SVG 1.1//EN"
 "http://www.w3.org/Graphics/SVG/1.1/DTD/svg11.dtd">
<!-- Generated by graphviz version 7.0.6 (20230107.1202)
 -->
<!-- Title: Mini_Cylc Pages: 1 -->
<svg width="174pt" height="260pt"
 viewBox="0.00 0.00 174.39 260.00" xmlns="http://www.w3.org/2000/svg" xmlns:xlink="http://www.w3.org/1999/xlink">
<g id="graph0" class="graph" transform="scale(1 1) rotate(0) translate(4 256)">
<title>Mini_Cylc</title>
<polygon fill="none" stroke="none" points="-4,4 -4,-256 170.39,-256 170.39,4 -4,4"/>
<!-- buy_ingredients -->
<g id="node1" class="node">
<title>buy_ingredients</title>
<ellipse fill="none" stroke="black" cx="83.19" cy="-234" rx="83.39" ry="18"/>
<text text-anchor="middle" x="83.19" y="-230.3" font-family="sans" font-size="14.00">buy_ingredients</text>
</g>
<!-- make_dough -->
<g id="node2" class="node">
<title>make_dough</title>
<ellipse fill="none" stroke="black" cx="83.19" cy="-162" rx="68.49" ry="18"/>
<text text-anchor="middle" x="83.19" y="-158.3" font-family="sans" font-size="14.00">make_dough</text>
</g>
<!-- buy_ingredients&#45;&gt;make_dough -->
<g id="edge1" class="edge">
<title>buy_ingredients&#45;&gt;make_dough</title>
<path fill="none" stroke="black" d="M83.19,-215.7C83.19,-208.41 83.19,-199.73 83.19,-191.54"/>
<polygon fill="black" stroke="black" points="86.69,-191.62 83.19,-181.62 79.69,-191.62 86.69,-191.62"/>
</g>
<!-- bake_bread -->
<g id="node4" class="node">
<title>bake_bread</title>
<ellipse fill="none" stroke="black" cx="83.19" cy="-90" rx="62.29" ry="18"/>
<text text-anchor="middle" x="83.19" y="-86.3" font-family="sans" font-size="14.00">bake_bread</text>
</g>
<!-- make_dough&#45;&gt;bake_bread -->
<g id="edge2" class="edge">
<title>make_dough&#45;&gt;bake_bread</title>
<path fill="none" stroke="black" d="M83.19,-143.7C83.19,-136.41 83.19,-127.73 83.19,-119.54"/>
<polygon fill="black" stroke="black" points="86.69,-119.62 83.19,-109.62 79.69,-119.62 86.69,-119.62"/>
</g>
<!-- sell_bread -->
<g id="node3" class="node">
<title>sell_bread</title>
<ellipse fill="none" stroke="black" cx="83.19" cy="-18" rx="55.79" ry="18"/>
<text text-anchor="middle" x="83.19" y="-14.3" font-family="sans" font-size="14.00">sell_bread</text>
</g>
<!-- bake_bread&#45;&gt;sell_bread -->
<g id="edge3" class="edge">
<title>bake_bread&#45;&gt;sell_bread</title>
<path fill="none" stroke="black" d="M83.19,-71.7C83.19,-64.41 83.19,-55.73 83.19,-47.54"/>
<polygon fill="black" stroke="black" points="86.69,-47.62 83.19,-37.62 79.69,-47.62 86.69,-47.62"/>
</g>
</g>
</svg>
