<?xml version="1.0" encoding="UTF-8" standalone="no"?>
<!DOCTYPE svg PUBLIC "-//W3C//DTD SVG 1.1//EN"
 "http://www.w3.org/Graphics/SVG/1.1/DTD/svg11.dtd">
<!-- Generated by graphviz version 7.0.6 (20230107.1202)
 -->
<!-- Title: example Pages: 1 -->
<svg width="496pt" height="603pt"
 viewBox="0.00 0.00 496.00 603.00" xmlns="http://www.w3.org/2000/svg" xmlns:xlink="http://www.w3.org/1999/xlink">
<g id="graph0" class="graph" transform="scale(1 1) rotate(0) translate(4 599)">
<title>example</title>
<polygon fill="none" stroke="none" points="-4,4 -4,-599 492,-599 492,4 -4,4"/>
<g id="clust1" class="cluster">
<title>cluster_legend</title>
<polygon fill="none" stroke="black" stroke-dasharray="5,2" points="0,-224 0,-371 208,-371 208,-224 0,-224"/>
<text text-anchor="middle" x="104" y="-355.8" font-family="sans" font-size="14.00">Legend</text>
</g>
<g id="clust2" class="cluster">
<title>cluster_diagram</title>
</g>
<g id="clust3" class="cluster">
<title>cluster_subshell</title>
<polygon fill="none" stroke="black" stroke-dasharray="5,2" points="273,-72 273,-459 431,-459 431,-72 273,-72"/>
<text text-anchor="middle" x="352" y="-443.8" font-family="sans" font-size="14.00">Subshell process</text>
</g>
<!-- user defined script -->
<g id="node1" class="node">
<title>user defined script</title>
<ellipse fill="none" stroke="black" cx="104" cy="-322" rx="96.38" ry="18"/>
<text text-anchor="middle" x="104" y="-318.3" font-family="sans" font-size="14.00">user defined script</text>
</g>
<!-- cylc defined script -->
<g id="node2" class="node">
<title>cylc defined script</title>
<polygon fill="none" stroke="black" points="176,-268 32,-268 32,-232 176,-232 176,-268"/>
<text text-anchor="middle" x="104" y="-246.3" font-family="sans" font-size="14.00">cylc defined script</text>
</g>
<!-- user defined script&#45;&gt;cylc defined script -->
<!-- cylc&#45;env -->
<g id="node3" class="node">
<title>cylc&#45;env</title>
<polygon fill="none" stroke="black" points="389,-503 315,-503 315,-467 389,-467 389,-503"/>
<text text-anchor="middle" x="352" y="-481.3" font-family="sans" font-size="14.00">cylc&#45;env</text>
</g>
<!-- env&#45;script -->
<g id="node6" class="node">
<title>env&#45;script</title>
<ellipse fill="none" stroke="black" cx="352" cy="-398" rx="55.79" ry="18"/>
<text text-anchor="middle" x="352" y="-394.3" font-family="sans" font-size="14.00">env&#45;script</text>
</g>
<!-- cylc&#45;env&#45;&gt;env&#45;script -->
<g id="edge3" class="edge">
<title>cylc&#45;env&#45;&gt;env&#45;script</title>
<path fill="none" stroke="black" d="M352,-466.8C352,-455.58 352,-440.67 352,-427.69"/>
<polygon fill="black" stroke="black" points="355.5,-427.98 352,-417.98 348.5,-427.98 355.5,-427.98"/>
</g>
<!-- user&#45;env -->
<g id="node4" class="node">
<title>user&#45;env</title>
<polygon fill="none" stroke="black" points="390.5,-344 313.5,-344 313.5,-308 390.5,-308 390.5,-344"/>
<text text-anchor="middle" x="352" y="-322.3" font-family="sans" font-size="14.00">user&#45;env</text>
</g>
<!-- pre&#45;script -->
<g id="node7" class="node">
<title>pre&#45;script</title>
<ellipse fill="none" stroke="black" cx="352" cy="-254" rx="53.89" ry="18"/>
<text text-anchor="middle" x="352" y="-250.3" font-family="sans" font-size="14.00">pre&#45;script</text>
</g>
<!-- user&#45;env&#45;&gt;pre&#45;script -->
<g id="edge5" class="edge">
<title>user&#45;env&#45;&gt;pre&#45;script</title>
<path fill="none" stroke="black" d="M352,-307.7C352,-300.41 352,-291.73 352,-283.54"/>
<polygon fill="black" stroke="black" points="355.5,-283.62 352,-273.62 348.5,-283.62 355.5,-283.62"/>
</g>
<!-- init&#45;script -->
<g id="node5" class="node">
<title>init&#45;script</title>
<ellipse fill="none" stroke="black" cx="352" cy="-557" rx="53.89" ry="18"/>
<text text-anchor="middle" x="352" y="-553.3" font-family="sans" font-size="14.00">init&#45;script</text>
</g>
<!-- init&#45;script&#45;&gt;cylc&#45;env -->
<g id="edge2" class="edge">
<title>init&#45;script&#45;&gt;cylc&#45;env</title>
<path fill="none" stroke="black" d="M352,-538.7C352,-531.41 352,-522.73 352,-514.54"/>
<polygon fill="black" stroke="black" points="355.5,-514.62 352,-504.62 348.5,-514.62 355.5,-514.62"/>
</g>
<!-- env&#45;script&#45;&gt;user&#45;env -->
<g id="edge4" class="edge">
<title>env&#45;script&#45;&gt;user&#45;env</title>
<path fill="none" stroke="black" d="M352,-379.7C352,-372.41 352,-363.73 352,-355.54"/>
<polygon fill="black" stroke="black" points="355.5,-355.62 352,-345.62 348.5,-355.62 355.5,-355.62"/>
</g>
<!-- script -->
<g id="node8" class="node">
<title>script</title>
<ellipse fill="none" stroke="black" cx="352" cy="-182" rx="36.29" ry="18"/>
<text text-anchor="middle" x="352" y="-178.3" font-family="sans" font-size="14.00">script</text>
</g>
<!-- pre&#45;script&#45;&gt;script -->
<g id="edge6" class="edge">
<title>pre&#45;script&#45;&gt;script</title>
<path fill="none" stroke="black" d="M352,-235.7C352,-228.41 352,-219.73 352,-211.54"/>
<polygon fill="black" stroke="black" points="355.5,-211.62 352,-201.62 348.5,-211.62 355.5,-211.62"/>
</g>
<!-- post&#45;script -->
<g id="node9" class="node">
<title>post&#45;script</title>
<ellipse fill="none" stroke="black" cx="352" cy="-110" rx="59.29" ry="18"/>
<text text-anchor="middle" x="352" y="-106.3" font-family="sans" font-size="14.00">post&#45;script</text>
</g>
<!-- script&#45;&gt;post&#45;script -->
<g id="edge7" class="edge">
<title>script&#45;&gt;post&#45;script</title>
<path fill="none" stroke="black" d="M352,-163.7C352,-156.41 352,-147.73 352,-139.54"/>
<polygon fill="black" stroke="black" points="355.5,-139.62 352,-129.62 348.5,-139.62 355.5,-139.62"/>
</g>
<!-- err&#45;script -->
<g id="node10" class="node">
<title>err&#45;script</title>
<ellipse fill="none" stroke="black" cx="287" cy="-38" rx="51.19" ry="18"/>
<text text-anchor="middle" x="287" y="-34.3" font-family="sans" font-size="14.00">err&#45;script</text>
</g>
<!-- post&#45;script&#45;&gt;err&#45;script -->
<g id="edge8" class="edge">
<title>post&#45;script&#45;&gt;err&#45;script</title>
<path fill="none" stroke="black" d="M336.6,-92.41C328.66,-83.87 318.83,-73.28 310.02,-63.79"/>
<polygon fill="black" stroke="black" points="312.69,-61.53 303.32,-56.58 307.56,-66.29 312.69,-61.53"/>
</g>
<!-- exit&#45;script -->
<g id="node11" class="node">
<title>exit&#45;script</title>
<ellipse fill="none" stroke="black" cx="412" cy="-38" rx="55.79" ry="18"/>
<text text-anchor="middle" x="412" y="-34.3" font-family="sans" font-size="14.00">exit&#45;script</text>
</g>
<!-- post&#45;script&#45;&gt;exit&#45;script -->
<g id="edge9" class="edge">
<title>post&#45;script&#45;&gt;exit&#45;script</title>
<path fill="none" stroke="black" d="M366.52,-92.05C373.67,-83.71 382.44,-73.49 390.36,-64.25"/>
<polygon fill="black" stroke="black" points="392.77,-66.81 396.62,-56.94 387.46,-62.25 392.77,-66.81"/>
</g>
</g>
</svg>
