<?xml version="1.0" encoding="UTF-8" standalone="no"?>
<!DOCTYPE svg PUBLIC "-//W3C//DTD SVG 1.1//EN"
 "http://www.w3.org/Graphics/SVG/1.1/DTD/svg11.dtd">
<!-- Generated by graphviz version 7.0.6 (20230107.1202)
 -->
<!-- Title: Example Pages: 1 -->
<svg width="504pt" height="153pt"
 viewBox="0.00 0.00 504.00 152.53" xmlns="http://www.w3.org/2000/svg" xmlns:xlink="http://www.w3.org/1999/xlink">
<g id="graph0" class="graph" transform="scale(0.459435 0.459435) rotate(0) translate(4 328)">
<title>Example</title>
<polygon fill="none" stroke="none" points="-4,4 -4,-328 1093,-328 1093,4 -4,4"/>
<!-- root -->
<g id="node1" class="node">
<title>root</title>
<polygon fill="powderblue" stroke="royalblue" points="701,-324 647,-324 647,-288 701,-288 701,-324"/>
<text text-anchor="middle" x="674" y="-302.3" font-family="sans" font-size="14.00">root</text>
</g>
<!-- ENGINE -->
<g id="node2" class="node">
<title>ENGINE</title>
<polygon fill="powderblue" stroke="royalblue" points="588.5,-180 517.5,-180 517.5,-144 588.5,-144 588.5,-180"/>
<text text-anchor="middle" x="553" y="-158.3" font-family="sans" font-size="14.00">ENGINE</text>
</g>
<!-- root&#45;&gt;ENGINE -->
<g id="edge1" class="edge">
<title>root&#45;&gt;ENGINE</title>
<path fill="none" stroke="royalblue" d="M659.16,-287.59C638.09,-262.86 599.36,-217.41 574.96,-188.77"/>
<polygon fill="royalblue" stroke="royalblue" points="577.71,-186.6 568.56,-181.26 572.38,-191.14 577.71,-186.6"/>
</g>
<!-- VEHICLE -->
<g id="node3" class="node">
<title>VEHICLE</title>
<polygon fill="powderblue" stroke="royalblue" points="766.5,-252 689.5,-252 689.5,-216 766.5,-216 766.5,-252"/>
<text text-anchor="middle" x="728" y="-230.3" font-family="sans" font-size="14.00">VEHICLE</text>
</g>
<!-- root&#45;&gt;VEHICLE -->
<g id="edge2" class="edge">
<title>root&#45;&gt;VEHICLE</title>
<path fill="none" stroke="royalblue" d="M687.35,-287.7C693.56,-279.64 701.08,-269.89 707.96,-260.98"/>
<polygon fill="royalblue" stroke="royalblue" points="710.54,-263.36 713.88,-253.3 705,-259.08 710.54,-263.36"/>
</g>
<!-- INTERNAL_COMBUSTION_ENGINE -->
<g id="node4" class="node">
<title>INTERNAL_COMBUSTION_ENGINE</title>
<polygon fill="powderblue" stroke="royalblue" points="691.5,-108 412.5,-108 412.5,-72 691.5,-72 691.5,-108"/>
<text text-anchor="middle" x="552" y="-86.3" font-family="sans" font-size="14.00">INTERNAL_COMBUSTION_ENGINE</text>
</g>
<!-- ENGINE&#45;&gt;INTERNAL_COMBUSTION_ENGINE -->
<g id="edge3" class="edge">
<title>ENGINE&#45;&gt;INTERNAL_COMBUSTION_ENGINE</title>
<path fill="none" stroke="royalblue" d="M552.75,-143.7C552.65,-136.41 552.52,-127.73 552.41,-119.54"/>
<polygon fill="royalblue" stroke="royalblue" points="555.91,-119.57 552.27,-109.62 548.91,-119.67 555.91,-119.57"/>
</g>
<!-- TURBINE_ENGINE -->
<g id="node5" class="node">
<title>TURBINE_ENGINE</title>
<polygon fill="powderblue" stroke="royalblue" points="168,-108 0,-108 0,-72 168,-72 168,-108"/>
<text text-anchor="middle" x="84" y="-86.3" font-family="sans" font-size="14.00">TURBINE_ENGINE</text>
</g>
<!-- ENGINE&#45;&gt;TURBINE_ENGINE -->
<g id="edge4" class="edge">
<title>ENGINE&#45;&gt;TURBINE_ENGINE</title>
<path fill="none" stroke="royalblue" d="M517.15,-156.44C452.03,-148.05 309.69,-129.23 179.11,-108.31"/>
<polygon fill="royalblue" stroke="royalblue" points="180.05,-104.91 169.62,-106.78 178.93,-111.82 180.05,-104.91"/>
</g>
<!-- HUMAN_ENGINE -->
<g id="node6" class="node">
<title>HUMAN_ENGINE</title>
<polygon fill="powderblue" stroke="royalblue" points="868.5,-108 709.5,-108 709.5,-72 868.5,-72 868.5,-108"/>
<text text-anchor="middle" x="789" y="-86.3" font-family="sans" font-size="14.00">HUMAN_ENGINE</text>
</g>
<!-- ENGINE&#45;&gt;HUMAN_ENGINE -->
<g id="edge5" class="edge">
<title>ENGINE&#45;&gt;HUMAN_ENGINE</title>
<path fill="none" stroke="royalblue" d="M588.91,-146.79C591.64,-145.81 594.36,-144.87 597,-144 633.15,-132.06 673.71,-120.59 708.21,-111.39"/>
<polygon fill="royalblue" stroke="royalblue" points="708.95,-114.82 717.72,-108.87 707.16,-108.05 708.95,-114.82"/>
</g>
<!-- LAND_VEHICLE -->
<g id="node7" class="node">
<title>LAND_VEHICLE</title>
<polygon fill="powderblue" stroke="royalblue" points="1003,-180 881,-180 881,-144 1003,-144 1003,-180"/>
<text text-anchor="middle" x="942" y="-158.3" font-family="sans" font-size="14.00">LAND_VEHICLE</text>
</g>
<!-- VEHICLE&#45;&gt;LAND_VEHICLE -->
<g id="edge6" class="edge">
<title>VEHICLE&#45;&gt;LAND_VEHICLE</title>
<path fill="none" stroke="royalblue" d="M766.75,-220.32C797.78,-210.18 841.94,-195.73 878.17,-183.88"/>
<polygon fill="royalblue" stroke="royalblue" points="878.79,-187.36 887.21,-180.92 876.61,-180.71 878.79,-187.36"/>
</g>
<!-- WATER_VEHICLE -->
<g id="node8" class="node">
<title>WATER_VEHICLE</title>
<polygon fill="powderblue" stroke="royalblue" points="862.5,-180 731.5,-180 731.5,-144 862.5,-144 862.5,-180"/>
<text text-anchor="middle" x="797" y="-158.3" font-family="sans" font-size="14.00">WATER_VEHICLE</text>
</g>
<!-- VEHICLE&#45;&gt;WATER_VEHICLE -->
<g id="edge7" class="edge">
<title>VEHICLE&#45;&gt;WATER_VEHICLE</title>
<path fill="none" stroke="royalblue" d="M745.06,-215.7C753.24,-207.39 763.21,-197.28 772.22,-188.14"/>
<polygon fill="royalblue" stroke="royalblue" points="774.55,-190.76 779.08,-181.18 769.56,-185.85 774.55,-190.76"/>
</g>
<!-- AIR_VEHICLE -->
<g id="node9" class="node">
<title>AIR_VEHICLE</title>
<polygon fill="powderblue" stroke="royalblue" points="713.5,-180 606.5,-180 606.5,-144 713.5,-144 713.5,-180"/>
<text text-anchor="middle" x="660" y="-158.3" font-family="sans" font-size="14.00">AIR_VEHICLE</text>
</g>
<!-- VEHICLE&#45;&gt;AIR_VEHICLE -->
<g id="edge8" class="edge">
<title>VEHICLE&#45;&gt;AIR_VEHICLE</title>
<path fill="none" stroke="royalblue" d="M711.19,-215.7C703.12,-207.39 693.3,-197.28 684.42,-188.14"/>
<polygon fill="royalblue" stroke="royalblue" points="687.15,-185.92 677.67,-181.19 682.13,-190.8 687.15,-185.92"/>
</g>
<!-- r44 -->
<g id="node10" class="node">
<title>r44</title>
<polygon fill="powderblue" stroke="royalblue" points="462,-36 408,-36 408,0 462,0 462,-36"/>
<text text-anchor="middle" x="435" y="-14.3" font-family="sans" font-size="14.00">r44</text>
</g>
<!-- INTERNAL_COMBUSTION_ENGINE&#45;&gt;r44 -->
<g id="edge9" class="edge">
<title>INTERNAL_COMBUSTION_ENGINE&#45;&gt;r44</title>
<path fill="none" stroke="royalblue" d="M522.78,-71.52C507.42,-62.33 488.43,-50.97 472.05,-41.17"/>
<polygon fill="royalblue" stroke="royalblue" points="473.92,-38.21 463.54,-36.08 470.33,-44.22 473.92,-38.21"/>
</g>
<!-- bht130 -->
<g id="node11" class="node">
<title>bht130</title>
<polygon fill="powderblue" stroke="royalblue" points="640.5,-36 573.5,-36 573.5,0 640.5,0 640.5,-36"/>
<text text-anchor="middle" x="607" y="-14.3" font-family="sans" font-size="14.00">bht130</text>
</g>
<!-- INTERNAL_COMBUSTION_ENGINE&#45;&gt;bht130 -->
<g id="edge10" class="edge">
<title>INTERNAL_COMBUSTION_ENGINE&#45;&gt;bht130</title>
<path fill="none" stroke="royalblue" d="M565.6,-71.7C571.92,-63.64 579.58,-53.89 586.59,-44.98"/>
<polygon fill="royalblue" stroke="royalblue" points="589.2,-47.32 592.63,-37.29 583.7,-43 589.2,-47.32"/>
</g>
<!-- v22 -->
<g id="node12" class="node">
<title>v22</title>
<polygon fill="powderblue" stroke="royalblue" points="256,-36 202,-36 202,0 256,0 256,-36"/>
<text text-anchor="middle" x="229" y="-14.3" font-family="sans" font-size="14.00">v22</text>
</g>
<!-- TURBINE_ENGINE&#45;&gt;v22 -->
<g id="edge11" class="edge">
<title>TURBINE_ENGINE&#45;&gt;v22</title>
<path fill="none" stroke="royalblue" d="M120.22,-71.52C141.99,-61.01 169.64,-47.66 191.61,-37.05"/>
<polygon fill="royalblue" stroke="royalblue" points="193.05,-40.24 200.53,-32.74 190.01,-33.94 193.05,-40.24"/>
</g>
<!-- a380 -->
<g id="node13" class="node">
<title>a380</title>
<polygon fill="powderblue" stroke="royalblue" points="148,-36 94,-36 94,0 148,0 148,-36"/>
<text text-anchor="middle" x="121" y="-14.3" font-family="sans" font-size="14.00">a380</text>
</g>
<!-- TURBINE_ENGINE&#45;&gt;a380 -->
<g id="edge12" class="edge">
<title>TURBINE_ENGINE&#45;&gt;a380</title>
<path fill="none" stroke="royalblue" d="M93.15,-71.7C97.22,-63.98 102.12,-54.71 106.67,-46.11"/>
<polygon fill="royalblue" stroke="royalblue" points="109.67,-47.92 111.25,-37.44 103.48,-44.65 109.67,-47.92"/>
</g>
<!-- penny_farthing -->
<g id="node14" class="node">
<title>penny_farthing</title>
<polygon fill="powderblue" stroke="royalblue" points="995,-36 845,-36 845,0 995,0 995,-36"/>
<text text-anchor="middle" x="920" y="-14.3" font-family="sans" font-size="14.00">penny_farthing</text>
</g>
<!-- HUMAN_ENGINE&#45;&gt;penny_farthing -->
<g id="edge13" class="edge">
<title>HUMAN_ENGINE&#45;&gt;penny_farthing</title>
<path fill="none" stroke="royalblue" d="M821.72,-71.52C838.65,-62.47 859.52,-51.32 877.66,-41.62"/>
<polygon fill="royalblue" stroke="royalblue" points="879.19,-44.77 886.36,-36.97 875.89,-38.6 879.19,-44.77"/>
</g>
<!-- HOVERCRAFT -->
<g id="node17" class="node">
<title>HOVERCRAFT</title>
<polygon fill="powderblue" stroke="royalblue" points="997,-108 887,-108 887,-72 997,-72 997,-108"/>
<text text-anchor="middle" x="942" y="-86.3" font-family="sans" font-size="14.00">HOVERCRAFT</text>
</g>
<!-- LAND_VEHICLE&#45;&gt;HOVERCRAFT -->
<g id="edge19" class="edge">
<title>LAND_VEHICLE&#45;&gt;HOVERCRAFT</title>
<path fill="none" stroke="royalblue" d="M942,-143.7C942,-136.41 942,-127.73 942,-119.54"/>
<polygon fill="royalblue" stroke="royalblue" points="945.5,-119.62 942,-109.62 938.5,-119.62 945.5,-119.62"/>
</g>
<!-- BICYCLE -->
<g id="node18" class="node">
<title>BICYCLE</title>
<polygon fill="powderblue" stroke="royalblue" points="1089,-108 1015,-108 1015,-72 1089,-72 1089,-108"/>
<text text-anchor="middle" x="1052" y="-86.3" font-family="sans" font-size="14.00">BICYCLE</text>
</g>
<!-- LAND_VEHICLE&#45;&gt;BICYCLE -->
<g id="edge20" class="edge">
<title>LAND_VEHICLE&#45;&gt;BICYCLE</title>
<path fill="none" stroke="royalblue" d="M969.47,-143.52C983.36,-134.68 1000.4,-123.84 1015.38,-114.3"/>
<polygon fill="royalblue" stroke="royalblue" points="1017.04,-117.39 1023.6,-109.07 1013.28,-111.49 1017.04,-117.39"/>
</g>
<!-- WATER_VEHICLE&#45;&gt;HOVERCRAFT -->
<g id="edge21" class="edge">
<title>WATER_VEHICLE&#45;&gt;HOVERCRAFT</title>
<path fill="none" stroke="royalblue" d="M833.22,-143.52C852.14,-134.38 875.52,-123.09 895.75,-113.33"/>
<polygon fill="royalblue" stroke="royalblue" points="897.15,-116.54 904.63,-109.04 894.1,-110.24 897.15,-116.54"/>
</g>
<!-- AIRPLANE -->
<g id="node15" class="node">
<title>AIRPLANE</title>
<polygon fill="powderblue" stroke="royalblue" points="272,-108 186,-108 186,-72 272,-72 272,-108"/>
<text text-anchor="middle" x="229" y="-86.3" font-family="sans" font-size="14.00">AIRPLANE</text>
</g>
<!-- AIR_VEHICLE&#45;&gt;AIRPLANE -->
<g id="edge22" class="edge">
<title>AIR_VEHICLE&#45;&gt;AIRPLANE</title>
<path fill="none" stroke="royalblue" d="M606.17,-145.9C603.08,-145.21 600,-144.57 597,-144 461.68,-118.19 421.15,-137.1 283.21,-108.22"/>
<polygon fill="royalblue" stroke="royalblue" points="284.22,-104.85 273.71,-106.18 282.75,-111.7 284.22,-104.85"/>
</g>
<!-- HELICOPTER -->
<g id="node16" class="node">
<title>HELICOPTER</title>
<polygon fill="powderblue" stroke="royalblue" points="394,-108 290,-108 290,-72 394,-72 394,-108"/>
<text text-anchor="middle" x="342" y="-86.3" font-family="sans" font-size="14.00">HELICOPTER</text>
</g>
<!-- AIR_VEHICLE&#45;&gt;HELICOPTER -->
<g id="edge23" class="edge">
<title>AIR_VEHICLE&#45;&gt;HELICOPTER</title>
<path fill="none" stroke="royalblue" d="M606.11,-146.16C603.04,-145.4 599.98,-144.68 597,-144 514.99,-125.36 490.43,-127.56 405.71,-108.51"/>
<polygon fill="royalblue" stroke="royalblue" points="406.5,-105.1 395.97,-106.29 404.94,-111.93 406.5,-105.1"/>
</g>
<!-- AIR_VEHICLE&#45;&gt;HOVERCRAFT -->
<g id="edge24" class="edge">
<title>AIR_VEHICLE&#45;&gt;HOVERCRAFT</title>
<path fill="none" stroke="royalblue" d="M713.92,-146.31C716.99,-145.52 720.03,-144.74 723,-144 788.25,-127.63 807.51,-125.28 875.63,-108.55"/>
<polygon fill="royalblue" stroke="royalblue" points="876.19,-112.01 885.06,-106.21 874.51,-105.22 876.19,-112.01"/>
</g>
<!-- AIRPLANE&#45;&gt;v22 -->
<g id="edge14" class="edge">
<title>AIRPLANE&#45;&gt;v22</title>
<path fill="none" stroke="royalblue" d="M229,-71.7C229,-64.41 229,-55.73 229,-47.54"/>
<polygon fill="royalblue" stroke="royalblue" points="232.5,-47.62 229,-37.62 225.5,-47.62 232.5,-47.62"/>
</g>
<!-- AIRPLANE&#45;&gt;a380 -->
<g id="edge15" class="edge">
<title>AIRPLANE&#45;&gt;a380</title>
<path fill="none" stroke="royalblue" d="M202.03,-71.52C188.39,-62.68 171.66,-51.84 156.95,-42.3"/>
<polygon fill="royalblue" stroke="royalblue" points="159.2,-39.59 148.9,-37.08 155.39,-45.46 159.2,-39.59"/>
</g>
<!-- HELICOPTER&#45;&gt;r44 -->
<g id="edge17" class="edge">
<title>HELICOPTER&#45;&gt;r44</title>
<path fill="none" stroke="royalblue" d="M364.99,-71.7C376.39,-63.11 390.35,-52.61 402.8,-43.24"/>
<polygon fill="royalblue" stroke="royalblue" points="404.86,-46.07 410.74,-37.26 400.65,-40.47 404.86,-46.07"/>
</g>
<!-- HELICOPTER&#45;&gt;v22 -->
<g id="edge16" class="edge">
<title>HELICOPTER&#45;&gt;v22</title>
<path fill="none" stroke="royalblue" d="M313.78,-71.52C299.27,-62.53 281.41,-51.47 265.83,-41.81"/>
<polygon fill="royalblue" stroke="royalblue" points="268.1,-39.11 257.76,-36.82 264.42,-45.06 268.1,-39.11"/>
</g>
<!-- HOVERCRAFT&#45;&gt;bht130 -->
<g id="edge18" class="edge">
<title>HOVERCRAFT&#45;&gt;bht130</title>
<path fill="none" stroke="royalblue" d="M886.55,-74.03C883.66,-73.33 880.8,-72.65 878,-72 799.01,-53.81 706.13,-36.52 652.18,-26.89"/>
<polygon fill="royalblue" stroke="royalblue" points="652.9,-23.46 642.44,-25.16 651.68,-30.35 652.9,-23.46"/>
</g>
<!-- BICYCLE&#45;&gt;penny_farthing -->
<g id="edge25" class="edge">
<title>BICYCLE&#45;&gt;penny_farthing</title>
<path fill="none" stroke="royalblue" d="M1019.03,-71.52C1001.97,-62.47 980.95,-51.32 962.66,-41.62"/>
<polygon fill="royalblue" stroke="royalblue" points="964.36,-38.56 953.89,-36.97 961.08,-44.75 964.36,-38.56"/>
</g>
</g>
</svg>
