<?xml version="1.0" encoding="UTF-8" standalone="no"?>
<!DOCTYPE svg PUBLIC "-//W3C//DTD SVG 1.1//EN"
 "http://www.w3.org/Graphics/SVG/1.1/DTD/svg11.dtd">
<!-- Generated by graphviz version 7.0.6 (20230107.1202)
 -->
<!-- Title: Mini_Cylc Pages: 1 -->
<svg width="329pt" height="260pt"
 viewBox="0.00 0.00 329.24 260.00" xmlns="http://www.w3.org/2000/svg" xmlns:xlink="http://www.w3.org/1999/xlink">
<g id="graph0" class="graph" transform="scale(1 1) rotate(0) translate(4 256)">
<title>Mini_Cylc</title>
<polygon fill="none" stroke="none" points="-4,4 -4,-256 325.24,-256 325.24,4 -4,4"/>
<!-- pre_heat_oven -->
<g id="node1" class="node">
<title>pre_heat_oven</title>
<ellipse fill="none" stroke="black" cx="76.04" cy="-162" rx="76.09" ry="18"/>
<text text-anchor="middle" x="76.04" y="-158.3" font-family="sans" font-size="14.00">pre_heat_oven</text>
</g>
<!-- bake_bread -->
<g id="node2" class="node">
<title>bake_bread</title>
<ellipse fill="none" stroke="black" cx="157.04" cy="-90" rx="62.29" ry="18"/>
<text text-anchor="middle" x="157.04" y="-86.3" font-family="sans" font-size="14.00">bake_bread</text>
</g>
<!-- pre_heat_oven&#45;&gt;bake_bread -->
<g id="edge1" class="edge">
<title>pre_heat_oven&#45;&gt;bake_bread</title>
<path fill="none" stroke="black" d="M95.24,-144.41C105.43,-135.61 118.13,-124.63 129.37,-114.92"/>
<polygon fill="black" stroke="black" points="131.56,-117.65 136.84,-108.46 126.99,-112.35 131.56,-117.65"/>
</g>
<!-- clean_oven -->
<g id="node4" class="node">
<title>clean_oven</title>
<ellipse fill="none" stroke="black" cx="90.04" cy="-18" rx="61.19" ry="18"/>
<text text-anchor="middle" x="90.04" y="-14.3" font-family="sans" font-size="14.00">clean_oven</text>
</g>
<!-- bake_bread&#45;&gt;clean_oven -->
<g id="edge4" class="edge">
<title>bake_bread&#45;&gt;clean_oven</title>
<path fill="none" stroke="black" d="M141.17,-72.41C132.99,-63.87 122.85,-53.28 113.77,-43.79"/>
<polygon fill="black" stroke="black" points="116.3,-41.37 106.85,-36.56 111.24,-46.21 116.3,-41.37"/>
</g>
<!-- sell_bread -->
<g id="node6" class="node">
<title>sell_bread</title>
<ellipse fill="none" stroke="black" cx="225.04" cy="-18" rx="55.79" ry="18"/>
<text text-anchor="middle" x="225.04" y="-14.3" font-family="sans" font-size="14.00">sell_bread</text>
</g>
<!-- bake_bread&#45;&gt;sell_bread -->
<g id="edge5" class="edge">
<title>bake_bread&#45;&gt;sell_bread</title>
<path fill="none" stroke="black" d="M173.16,-72.41C181.54,-63.78 191.95,-53.06 201.25,-43.5"/>
<polygon fill="black" stroke="black" points="203.53,-46.17 207.99,-36.56 198.51,-41.29 203.53,-46.17"/>
</g>
<!-- make_dough -->
<g id="node3" class="node">
<title>make_dough</title>
<ellipse fill="none" stroke="black" cx="238.04" cy="-162" rx="68.49" ry="18"/>
<text text-anchor="middle" x="238.04" y="-158.3" font-family="sans" font-size="14.00">make_dough</text>
</g>
<!-- make_dough&#45;&gt;bake_bread -->
<g id="edge2" class="edge">
<title>make_dough&#45;&gt;bake_bread</title>
<path fill="none" stroke="black" d="M218.85,-144.41C208.66,-135.61 195.96,-124.63 184.72,-114.92"/>
<polygon fill="black" stroke="black" points="187.1,-112.35 177.25,-108.46 182.52,-117.65 187.1,-112.35"/>
</g>
<!-- buy_ingredients -->
<g id="node5" class="node">
<title>buy_ingredients</title>
<ellipse fill="none" stroke="black" cx="238.04" cy="-234" rx="83.39" ry="18"/>
<text text-anchor="middle" x="238.04" y="-230.3" font-family="sans" font-size="14.00">buy_ingredients</text>
</g>
<!-- buy_ingredients&#45;&gt;make_dough -->
<g id="edge3" class="edge">
<title>buy_ingredients&#45;&gt;make_dough</title>
<path fill="none" stroke="black" d="M238.04,-215.7C238.04,-208.41 238.04,-199.73 238.04,-191.54"/>
<polygon fill="black" stroke="black" points="241.54,-191.62 238.04,-181.62 234.54,-191.62 241.54,-191.62"/>
</g>
</g>
</svg>
