<?xml version="1.0" encoding="UTF-8" standalone="no"?>
<!DOCTYPE svg PUBLIC "-//W3C//DTD SVG 1.1//EN"
 "http://www.w3.org/Graphics/SVG/1.1/DTD/svg11.dtd">
<!-- Generated by graphviz version 13.0.1 (20250616.1512)
 -->
<!-- Title: Example Pages: 1 -->
<svg width="65pt" height="188pt"
 viewBox="0.00 0.00 65.00 188.00" xmlns="http://www.w3.org/2000/svg" xmlns:xlink="http://www.w3.org/1999/xlink">
<g id="graph0" class="graph" transform="scale(1 1) rotate(0) translate(4 184)">
<title>Example</title>
<polygon fill="none" stroke="none" points="-4,4 -4,-184 61.17,-184 61.17,4 -4,4"/>
<!-- foo -->
<g id="node1" class="node">
<title>foo</title>
<ellipse fill="#ada5a5" stroke="#ada5a5" cx="28.59" cy="-162" rx="27" ry="18"/>
<text xml:space="preserve" text-anchor="middle" x="28.59" y="-157.32" font-family="sans" font-size="14.00">foo</text>
</g>
<!-- bar -->
<g id="node2" class="node">
<title>bar</title>
<ellipse fill="#ff0000" stroke="#ff0000" cx="28.59" cy="-90" rx="27.53" ry="18"/>
<text xml:space="preserve" text-anchor="middle" x="28.59" y="-85.33" font-family="sans" font-size="14.00" fill="white">bar</text>
</g>
<!-- foo&#45;&gt;bar -->
<g id="edge1" class="edge">
<title>foo&#45;&gt;bar</title>
<path fill="none" stroke="black" d="M28.59,-143.7C28.59,-136.41 28.59,-127.73 28.59,-119.54"/>
<polygon fill="black" stroke="black" points="32.09,-119.62 28.59,-109.62 25.09,-119.62 32.09,-119.62"/>
</g>
<!-- baz -->
<g id="node3" class="node">
<title>baz</title>
<ellipse fill="none" stroke="#88c6ff" cx="28.59" cy="-18" rx="28.59" ry="18"/>
<text xml:space="preserve" text-anchor="middle" x="28.59" y="-13.32" font-family="sans" font-size="14.00">baz</text>
</g>
<!-- bar&#45;&gt;baz -->
<g id="edge2" class="edge">
<title>bar&#45;&gt;baz</title>
<path fill="none" stroke="black" d="M28.59,-71.7C28.59,-64.41 28.59,-55.73 28.59,-47.54"/>
<polygon fill="black" stroke="black" points="32.09,-47.62 28.59,-37.62 25.09,-47.62 32.09,-47.62"/>
</g>
</g>
</svg>
