<?xml version="1.0" encoding="UTF-8" standalone="no"?>
<!DOCTYPE svg PUBLIC "-//W3C//DTD SVG 1.1//EN"
 "http://www.w3.org/Graphics/SVG/1.1/DTD/svg11.dtd">
<!-- Generated by graphviz version 13.0.1 (20250616.1512)
 -->
<!-- Title: Example Pages: 1 -->
<svg width="216pt" height="332pt"
 viewBox="0.00 0.00 216.00 332.00" xmlns="http://www.w3.org/2000/svg" xmlns:xlink="http://www.w3.org/1999/xlink">
<g id="graph0" class="graph" transform="scale(1 1) rotate(0) translate(4 328)">
<title>Example</title>
<polygon fill="none" stroke="none" points="-4,4 -4,-328 211.75,-328 211.75,4 -4,4"/>
<!-- AIRPLANE -->
<g id="node1" class="node">
<title>AIRPLANE</title>
<polygon fill="powderblue" stroke="royalblue" points="85.75,-108 0,-108 0,-72 85.75,-72 85.75,-108"/>
<text xml:space="preserve" text-anchor="middle" x="42.88" y="-85.33" font-family="sans" font-size="14.00">AIRPLANE</text>
</g>
<!-- v22 -->
<g id="node2" class="node">
<title>v22</title>
<polygon fill="powderblue" stroke="royalblue" points="126.88,-36 72.88,-36 72.88,0 126.88,0 126.88,-36"/>
<text xml:space="preserve" text-anchor="middle" x="99.88" y="-13.32" font-family="sans" font-size="14.00">v22</text>
</g>
<!-- AIRPLANE&#45;&gt;v22 -->
<g id="edge1" class="edge">
<title>AIRPLANE&#45;&gt;v22</title>
<path fill="none" stroke="royalblue" d="M56.96,-71.7C63.52,-63.64 71.46,-53.89 78.72,-44.98"/>
<polygon fill="royalblue" stroke="royalblue" points="81.39,-47.24 84.99,-37.28 75.96,-42.82 81.39,-47.24"/>
</g>
<!-- a380 -->
<g id="node3" class="node">
<title>a380</title>
<polygon fill="powderblue" stroke="royalblue" points="54.88,-36 0.88,-36 0.88,0 54.88,0 54.88,-36"/>
<text xml:space="preserve" text-anchor="middle" x="27.88" y="-13.32" font-family="sans" font-size="14.00">a380</text>
</g>
<!-- AIRPLANE&#45;&gt;a380 -->
<g id="edge2" class="edge">
<title>AIRPLANE&#45;&gt;a380</title>
<path fill="none" stroke="royalblue" d="M39.17,-71.7C37.59,-64.32 35.7,-55.52 33.93,-47.25"/>
<polygon fill="royalblue" stroke="royalblue" points="37.38,-46.63 31.86,-37.58 30.53,-48.1 37.38,-46.63"/>
</g>
<!-- HELICOPTER -->
<g id="node4" class="node">
<title>HELICOPTER</title>
<polygon fill="powderblue" stroke="royalblue" points="207.75,-108 104,-108 104,-72 207.75,-72 207.75,-108"/>
<text xml:space="preserve" text-anchor="middle" x="155.88" y="-85.33" font-family="sans" font-size="14.00">HELICOPTER</text>
</g>
<!-- HELICOPTER&#45;&gt;v22 -->
<g id="edge3" class="edge">
<title>HELICOPTER&#45;&gt;v22</title>
<path fill="none" stroke="royalblue" d="M142.03,-71.7C135.59,-63.64 127.79,-53.89 120.66,-44.98"/>
<polygon fill="royalblue" stroke="royalblue" points="123.48,-42.91 114.5,-37.29 118.02,-47.28 123.48,-42.91"/>
</g>
<!-- r44 -->
<g id="node5" class="node">
<title>r44</title>
<polygon fill="powderblue" stroke="royalblue" points="198.88,-36 144.88,-36 144.88,0 198.88,0 198.88,-36"/>
<text xml:space="preserve" text-anchor="middle" x="171.88" y="-13.32" font-family="sans" font-size="14.00">r44</text>
</g>
<!-- HELICOPTER&#45;&gt;r44 -->
<g id="edge4" class="edge">
<title>HELICOPTER&#45;&gt;r44</title>
<path fill="none" stroke="royalblue" d="M159.83,-71.7C161.52,-64.32 163.53,-55.52 165.42,-47.25"/>
<polygon fill="royalblue" stroke="royalblue" points="168.81,-48.11 167.63,-37.58 161.99,-46.55 168.81,-48.11"/>
</g>
<!-- root -->
<g id="node6" class="node">
<title>root</title>
<polygon fill="powderblue" stroke="royalblue" points="125.88,-324 71.88,-324 71.88,-288 125.88,-288 125.88,-324"/>
<text xml:space="preserve" text-anchor="middle" x="98.88" y="-301.32" font-family="sans" font-size="14.00">root</text>
</g>
<!-- VEHICLE -->
<g id="node7" class="node">
<title>VEHICLE</title>
<polygon fill="powderblue" stroke="royalblue" points="136.88,-252 60.88,-252 60.88,-216 136.88,-216 136.88,-252"/>
<text xml:space="preserve" text-anchor="middle" x="98.88" y="-229.32" font-family="sans" font-size="14.00">VEHICLE</text>
</g>
<!-- root&#45;&gt;VEHICLE -->
<g id="edge5" class="edge">
<title>root&#45;&gt;VEHICLE</title>
<path fill="none" stroke="royalblue" d="M98.88,-287.7C98.88,-280.41 98.88,-271.73 98.88,-263.54"/>
<polygon fill="royalblue" stroke="royalblue" points="102.38,-263.62 98.88,-253.62 95.38,-263.62 102.38,-263.62"/>
</g>
<!-- AIR_VEHICLE -->
<g id="node8" class="node">
<title>AIR_VEHICLE</title>
<polygon fill="powderblue" stroke="royalblue" points="152.25,-180 45.5,-180 45.5,-144 152.25,-144 152.25,-180"/>
<text xml:space="preserve" text-anchor="middle" x="98.88" y="-157.32" font-family="sans" font-size="14.00">AIR_VEHICLE</text>
</g>
<!-- VEHICLE&#45;&gt;AIR_VEHICLE -->
<g id="edge6" class="edge">
<title>VEHICLE&#45;&gt;AIR_VEHICLE</title>
<path fill="none" stroke="royalblue" d="M98.88,-215.7C98.88,-208.41 98.88,-199.73 98.88,-191.54"/>
<polygon fill="royalblue" stroke="royalblue" points="102.38,-191.62 98.88,-181.62 95.38,-191.62 102.38,-191.62"/>
</g>
<!-- AIR_VEHICLE&#45;&gt;AIRPLANE -->
<g id="edge7" class="edge">
<title>AIR_VEHICLE&#45;&gt;AIRPLANE</title>
<path fill="none" stroke="royalblue" d="M85.03,-143.7C78.59,-135.64 70.79,-125.89 63.66,-116.98"/>
<polygon fill="royalblue" stroke="royalblue" points="66.48,-114.91 57.5,-109.29 61.02,-119.28 66.48,-114.91"/>
</g>
<!-- AIR_VEHICLE&#45;&gt;HELICOPTER -->
<g id="edge8" class="edge">
<title>AIR_VEHICLE&#45;&gt;HELICOPTER</title>
<path fill="none" stroke="royalblue" d="M112.96,-143.7C119.52,-135.64 127.46,-125.89 134.72,-116.98"/>
<polygon fill="royalblue" stroke="royalblue" points="137.39,-119.24 140.99,-109.28 131.96,-114.82 137.39,-119.24"/>
</g>
</g>
</svg>
