<?xml version="1.0" encoding="UTF-8" standalone="no"?>
<!DOCTYPE svg PUBLIC "-//W3C//DTD SVG 1.1//EN"
 "http://www.w3.org/Graphics/SVG/1.1/DTD/svg11.dtd">
<!-- Generated by graphviz version 13.0.1 (20250616.1512)
 -->
<!-- Title: Example Pages: 1 -->
<svg width="504pt" height="408pt"
 viewBox="0.00 0.00 504.00 408.00" xmlns="http://www.w3.org/2000/svg" xmlns:xlink="http://www.w3.org/1999/xlink">
<g id="graph0" class="graph" transform="scale(0.506024 0.506024) rotate(0) translate(4 802.98)">
<title>Example</title>
<polygon fill="none" stroke="none" points="-4,4 -4,-802.98 992,-802.98 992,4 -4,4"/>
<g id="clust1" class="cluster">
<title>cluster_20000101T0000Z</title>
<polygon fill="none" stroke="black" stroke-dasharray="5,2" points="386,-581.52 386,-790.98 623,-790.98 623,-581.52 386,-581.52"/>
<text xml:space="preserve" text-anchor="middle" x="504.5" y="-763.23" font-family="sans" font-size="25.00">20000101T0000Z</text>
</g>
<g id="clust2" class="cluster">
<title>cluster_20000105T0600Z</title>
<polygon fill="none" stroke="black" stroke-dasharray="5,2" points="8,-346.81 8,-573.52 245,-573.52 245,-346.81 8,-346.81"/>
<text xml:space="preserve" text-anchor="middle" x="126.5" y="-545.77" font-family="sans" font-size="25.00">20000105T0600Z</text>
</g>
<g id="clust3" class="cluster">
<title>cluster_20000305T1200Z</title>
<polygon fill="none" stroke="black" stroke-dasharray="5,2" points="253,-225.46 253,-460.17 490,-460.17 490,-225.46 253,-225.46"/>
<text xml:space="preserve" text-anchor="middle" x="371.5" y="-432.42" font-family="sans" font-size="25.00">20000305T1200Z</text>
</g>
<g id="clust4" class="cluster">
<title>cluster_20000528T1336Z</title>
<polygon fill="none" stroke="black" stroke-dasharray="5,2" points="498,-104.1 498,-338.81 735,-338.81 735,-104.1 498,-104.1"/>
<text xml:space="preserve" text-anchor="middle" x="616.5" y="-311.06" font-family="sans" font-size="25.00">20000528T1336Z</text>
</g>
<g id="clust5" class="cluster">
<title>cluster_20010101T0000Z</title>
<polygon fill="none" stroke="black" stroke-dasharray="5,2" points="743,-225.46 743,-338.81 980,-338.81 980,-225.46 743,-225.46"/>
<text xml:space="preserve" text-anchor="middle" x="861.5" y="-311.06" font-family="sans" font-size="25.00">20010101T0000Z</text>
</g>
<g id="clust6" class="cluster">
<title>cluster_20010105T2324Z</title>
<polygon fill="none" stroke="black" stroke-dasharray="5,2" points="743,-8 743,-217.46 980,-217.46 980,-8 743,-8"/>
<text xml:space="preserve" text-anchor="middle" x="861.5" y="-189.71" font-family="sans" font-size="25.00">20010105T2324Z</text>
</g>
<!-- 20000101T0000Z/install -->
<g id="node1" class="node">
<title>20000101T0000Z/install</title>
<ellipse fill="none" stroke="black" cx="509" cy="-715.68" rx="100.41" ry="30.05"/>
<text xml:space="preserve" text-anchor="middle" x="509" y="-719.63" font-family="sans" font-size="14.00">install</text>
<text xml:space="preserve" text-anchor="middle" x="509" y="-702.38" font-family="sans" font-size="14.00">20000101T0000Z</text>
</g>
<!-- 20000101T0000Z/prep -->
<g id="node2" class="node">
<title>20000101T0000Z/prep</title>
<ellipse fill="none" stroke="black" cx="504" cy="-619.57" rx="100.41" ry="30.05"/>
<text xml:space="preserve" text-anchor="middle" x="504" y="-623.52" font-family="sans" font-size="14.00">prep</text>
<text xml:space="preserve" text-anchor="middle" x="504" y="-606.27" font-family="sans" font-size="14.00">20000101T0000Z</text>
</g>
<!-- 20000101T0000Z/install&#45;&gt;20000101T0000Z/prep -->
<g id="edge1" class="edge">
<title>20000101T0000Z/install&#45;&gt;20000101T0000Z/prep</title>
<path fill="none" stroke="black" d="M507.43,-685.16C507.03,-677.63 506.59,-669.39 506.17,-661.41"/>
<polygon fill="black" stroke="black" points="509.67,-661.3 505.64,-651.5 502.68,-661.67 509.67,-661.3"/>
</g>
<!-- 20010101T0000Z/prep -->
<g id="node9" class="node">
<title>20010101T0000Z/prep</title>
<ellipse fill="none" stroke="black" cx="851" cy="-263.51" rx="100.41" ry="30.05"/>
<text xml:space="preserve" text-anchor="middle" x="851" y="-267.46" font-family="sans" font-size="14.00">prep</text>
<text xml:space="preserve" text-anchor="middle" x="851" y="-250.21" font-family="sans" font-size="14.00">20010101T0000Z</text>
</g>
<!-- 20000101T0000Z/install&#45;&gt;20010101T0000Z/prep -->
<g id="edge2" class="edge">
<title>20000101T0000Z/install&#45;&gt;20010101T0000Z/prep</title>
<path fill="none" stroke="black" d="M559.46,-689.41C577.67,-678.75 597.53,-665.18 613,-649.62 719.71,-542.33 800.53,-378.6 834.04,-304"/>
<polygon fill="black" stroke="black" points="837.16,-305.6 838.03,-295.04 830.77,-302.76 837.16,-305.6"/>
</g>
<!-- 20000105T0600Z/run_model -->
<g id="node4" class="node">
<title>20000105T0600Z/run_model</title>
<ellipse fill="none" stroke="black" cx="137" cy="-498.22" rx="100.41" ry="30.05"/>
<text xml:space="preserve" text-anchor="middle" x="137" y="-502.17" font-family="sans" font-size="14.00">run_model</text>
<text xml:space="preserve" text-anchor="middle" x="137" y="-484.92" font-family="sans" font-size="14.00">20000105T0600Z</text>
</g>
<!-- 20000101T0000Z/prep&#45;&gt;20000105T0600Z/run_model -->
<g id="edge3" class="edge">
<title>20000101T0000Z/prep&#45;&gt;20000105T0600Z/run_model</title>
<path fill="none" stroke="black" d="M437.11,-596.82C374.44,-576.44 280.79,-545.98 214.8,-524.52"/>
<polygon fill="black" stroke="black" points="216.08,-521.26 205.49,-521.49 213.91,-527.91 216.08,-521.26"/>
</g>
<!-- 20000305T1200Z/run_model -->
<g id="node6" class="node">
<title>20000305T1200Z/run_model</title>
<ellipse fill="none" stroke="black" cx="382" cy="-384.86" rx="100.41" ry="30.05"/>
<text xml:space="preserve" text-anchor="middle" x="382" y="-388.81" font-family="sans" font-size="14.00">run_model</text>
<text xml:space="preserve" text-anchor="middle" x="382" y="-371.56" font-family="sans" font-size="14.00">20000305T1200Z</text>
</g>
<!-- 20000101T0000Z/prep&#45;&gt;20000305T1200Z/run_model -->
<g id="edge4" class="edge">
<title>20000101T0000Z/prep&#45;&gt;20000305T1200Z/run_model</title>
<path fill="none" stroke="black" d="M488.8,-589.57C467,-548 426.83,-471.37 402.45,-424.87"/>
<polygon fill="black" stroke="black" points="405.65,-423.44 397.91,-416.21 399.45,-426.69 405.65,-423.44"/>
</g>
<!-- 20000528T1336Z/run_model -->
<g id="node8" class="node">
<title>20000528T1336Z/run_model</title>
<ellipse fill="none" stroke="black" cx="606" cy="-263.51" rx="100.41" ry="30.05"/>
<text xml:space="preserve" text-anchor="middle" x="606" y="-267.46" font-family="sans" font-size="14.00">run_model</text>
<text xml:space="preserve" text-anchor="middle" x="606" y="-250.21" font-family="sans" font-size="14.00">20000528T1336Z</text>
</g>
<!-- 20000101T0000Z/prep&#45;&gt;20000528T1336Z/run_model -->
<g id="edge5" class="edge">
<title>20000101T0000Z/prep&#45;&gt;20000528T1336Z/run_model</title>
<path fill="none" stroke="black" d="M512.43,-589.3C530.65,-526.08 573.68,-376.69 594.43,-304.69"/>
<polygon fill="black" stroke="black" points="597.73,-305.85 597.14,-295.27 591.01,-303.91 597.73,-305.85"/>
</g>
<!-- 20000105T0600Z/plot -->
<g id="node3" class="node">
<title>20000105T0600Z/plot</title>
<ellipse fill="none" stroke="black" cx="137" cy="-384.86" rx="100.41" ry="30.05"/>
<text xml:space="preserve" text-anchor="middle" x="137" y="-388.81" font-family="sans" font-size="14.00">plot</text>
<text xml:space="preserve" text-anchor="middle" x="137" y="-371.56" font-family="sans" font-size="14.00">20000105T0600Z</text>
</g>
<!-- 20000105T0600Z/run_model&#45;&gt;20000105T0600Z/plot -->
<g id="edge6" class="edge">
<title>20000105T0600Z/run_model&#45;&gt;20000105T0600Z/plot</title>
<path fill="none" stroke="black" d="M137,-467.67C137,-454.98 137,-439.96 137,-426.27"/>
<polygon fill="black" stroke="black" points="140.5,-426.68 137,-416.68 133.5,-426.68 140.5,-426.68"/>
</g>
<!-- 20000105T0600Z/run_model&#45;&gt;20000305T1200Z/run_model -->
<g id="edge7" class="edge">
<title>20000105T0600Z/run_model&#45;&gt;20000305T1200Z/run_model</title>
<path fill="none" stroke="black" d="M207.08,-476.31C221.15,-471.48 235.69,-466.02 249,-460.17 276.45,-448.09 305.67,-432.14 329.71,-418.11"/>
<polygon fill="black" stroke="black" points="331.2,-421.3 338.03,-413.2 327.64,-415.27 331.2,-421.3"/>
</g>
<!-- 20000305T1200Z/plot -->
<g id="node5" class="node">
<title>20000305T1200Z/plot</title>
<ellipse fill="none" stroke="black" cx="382" cy="-263.51" rx="100.41" ry="30.05"/>
<text xml:space="preserve" text-anchor="middle" x="382" y="-267.46" font-family="sans" font-size="14.00">plot</text>
<text xml:space="preserve" text-anchor="middle" x="382" y="-250.21" font-family="sans" font-size="14.00">20000305T1200Z</text>
</g>
<!-- 20000305T1200Z/run_model&#45;&gt;20000305T1200Z/plot -->
<g id="edge8" class="edge">
<title>20000305T1200Z/run_model&#45;&gt;20000305T1200Z/plot</title>
<path fill="none" stroke="black" d="M382,-354.36C382,-339.47 382,-321.19 382,-305.01"/>
<polygon fill="black" stroke="black" points="385.5,-305.19 382,-295.19 378.5,-305.19 385.5,-305.19"/>
</g>
<!-- 20000305T1200Z/run_model&#45;&gt;20000528T1336Z/run_model -->
<g id="edge9" class="edge">
<title>20000305T1200Z/run_model&#45;&gt;20000528T1336Z/run_model</title>
<path fill="none" stroke="black" d="M444.93,-361.16C461.21,-354.58 478.51,-346.96 494,-338.81 516.45,-327.01 540.03,-311.83 559.73,-298.27"/>
<polygon fill="black" stroke="black" points="561.62,-301.22 567.83,-292.63 557.62,-295.48 561.62,-301.22"/>
</g>
<!-- 20000528T1336Z/plot -->
<g id="node7" class="node">
<title>20000528T1336Z/plot</title>
<ellipse fill="none" stroke="black" cx="606" cy="-142.16" rx="100.41" ry="30.05"/>
<text xml:space="preserve" text-anchor="middle" x="606" y="-146.11" font-family="sans" font-size="14.00">plot</text>
<text xml:space="preserve" text-anchor="middle" x="606" y="-128.86" font-family="sans" font-size="14.00">20000528T1336Z</text>
</g>
<!-- 20000528T1336Z/run_model&#45;&gt;20000528T1336Z/plot -->
<g id="edge10" class="edge">
<title>20000528T1336Z/run_model&#45;&gt;20000528T1336Z/plot</title>
<path fill="none" stroke="black" d="M606,-233.01C606,-218.12 606,-199.83 606,-183.65"/>
<polygon fill="black" stroke="black" points="609.5,-183.83 606,-173.83 602.5,-183.83 609.5,-183.83"/>
</g>
<!-- 20010105T2324Z/run_model -->
<g id="node11" class="node">
<title>20010105T2324Z/run_model</title>
<ellipse fill="none" stroke="black" cx="851" cy="-142.16" rx="100.41" ry="30.05"/>
<text xml:space="preserve" text-anchor="middle" x="851" y="-146.11" font-family="sans" font-size="14.00">run_model</text>
<text xml:space="preserve" text-anchor="middle" x="851" y="-128.86" font-family="sans" font-size="14.00">20010105T2324Z</text>
</g>
<!-- 20000528T1336Z/run_model&#45;&gt;20010105T2324Z/run_model -->
<g id="edge11" class="edge">
<title>20000528T1336Z/run_model&#45;&gt;20010105T2324Z/run_model</title>
<path fill="none" stroke="black" d="M677.43,-242.09C697.76,-235.28 719.63,-226.96 739,-217.46 761.95,-206.2 785.78,-190.96 805.52,-177.22"/>
<polygon fill="black" stroke="black" points="807.48,-180.12 813.62,-171.49 803.44,-174.4 807.48,-180.12"/>
</g>
<!-- 20010101T0000Z/prep&#45;&gt;20010105T2324Z/run_model -->
<g id="edge12" class="edge">
<title>20010101T0000Z/prep&#45;&gt;20010105T2324Z/run_model</title>
<path fill="none" stroke="black" d="M851,-233.01C851,-218.12 851,-199.83 851,-183.65"/>
<polygon fill="black" stroke="black" points="854.5,-183.83 851,-173.83 847.5,-183.83 854.5,-183.83"/>
</g>
<!-- 20010105T2324Z/plot -->
<g id="node10" class="node">
<title>20010105T2324Z/plot</title>
<ellipse fill="none" stroke="black" cx="851" cy="-46.05" rx="100.41" ry="30.05"/>
<text xml:space="preserve" text-anchor="middle" x="851" y="-50" font-family="sans" font-size="14.00">plot</text>
<text xml:space="preserve" text-anchor="middle" x="851" y="-32.75" font-family="sans" font-size="14.00">20010105T2324Z</text>
</g>
<!-- 20010105T2324Z/run_model&#45;&gt;20010105T2324Z/plot -->
<g id="edge13" class="edge">
<title>20010105T2324Z/run_model&#45;&gt;20010105T2324Z/plot</title>
<path fill="none" stroke="black" d="M851,-111.64C851,-104.11 851,-95.87 851,-87.88"/>
<polygon fill="black" stroke="black" points="854.5,-87.98 851,-77.98 847.5,-87.98 854.5,-87.98"/>
</g>
</g>
</svg>
