<?xml version="1.0" encoding="UTF-8" standalone="no"?>
<!DOCTYPE svg PUBLIC "-//W3C//DTD SVG 1.1//EN"
 "http://www.w3.org/Graphics/SVG/1.1/DTD/svg11.dtd">
<!-- Generated by graphviz version 2.40.1 (20161225.0304)
 -->
<!-- Title: example Pages: 1 -->
<svg width="503pt" height="603pt"
 viewBox="0.00 0.00 503.00 603.00" xmlns="http://www.w3.org/2000/svg" xmlns:xlink="http://www.w3.org/1999/xlink">
<g id="graph0" class="graph" transform="scale(1 1) rotate(0) translate(4 599)">
<title>example</title>
<polygon fill="transparent" stroke="transparent" points="-4,4 -4,-599 499,-599 499,4 -4,4"/>
<g id="clust1" class="cluster">
<title>cluster_legend</title>
<polygon fill="transparent" stroke="#000000" stroke-dasharray="5,2" points="0,-224 0,-371 210,-371 210,-224 0,-224"/>
<text text-anchor="middle" x="105" y="-355.8" font-family="sans" font-size="14.00" fill="#000000">Legend</text>
</g>
<g id="clust2" class="cluster">
<title>cluster_diagram</title>
</g>
<g id="clust3" class="cluster">
<title>cluster_subshell</title>
<polygon fill="transparent" stroke="#000000" stroke-dasharray="5,2" points="276,-72 276,-459 436,-459 436,-72 276,-72"/>
<text text-anchor="middle" x="356" y="-443.8" font-family="sans" font-size="14.00" fill="#000000">Subshell process</text>
</g>
<!-- user defined script -->
<g id="node1" class="node">
<title>user defined script</title>
<ellipse fill="none" stroke="#000000" cx="105" cy="-322" rx="97.4827" ry="18"/>
<text text-anchor="middle" x="105" y="-318.3" font-family="sans" font-size="14.00" fill="#000000">user defined script</text>
</g>
<!-- cylc defined script -->
<g id="node2" class="node">
<title>cylc defined script</title>
<polygon fill="none" stroke="#000000" points="178,-268 32,-268 32,-232 178,-232 178,-268"/>
<text text-anchor="middle" x="105" y="-246.3" font-family="sans" font-size="14.00" fill="#000000">cylc defined script</text>
</g>
<!-- user defined script&#45;&gt;cylc defined script -->
<!-- cylc&#45;env -->
<g id="node3" class="node">
<title>cylc&#45;env</title>
<polygon fill="none" stroke="#000000" points="393.5,-503 318.5,-503 318.5,-467 393.5,-467 393.5,-503"/>
<text text-anchor="middle" x="356" y="-481.3" font-family="sans" font-size="14.00" fill="#000000">cylc&#45;env</text>
</g>
<!-- env&#45;script -->
<g id="node6" class="node">
<title>env&#45;script</title>
<ellipse fill="none" stroke="#000000" cx="356" cy="-398" rx="55.7903" ry="18"/>
<text text-anchor="middle" x="356" y="-394.3" font-family="sans" font-size="14.00" fill="#000000">env&#45;script</text>
</g>
<!-- cylc&#45;env&#45;&gt;env&#45;script -->
<g id="edge3" class="edge">
<title>cylc&#45;env&#45;&gt;env&#45;script</title>
<path fill="none" stroke="#000000" d="M356,-466.9735C356,-455.1918 356,-439.5607 356,-426.1581"/>
<polygon fill="#000000" stroke="#000000" points="359.5001,-426.0033 356,-416.0034 352.5001,-426.0034 359.5001,-426.0033"/>
</g>
<!-- user&#45;env -->
<g id="node4" class="node">
<title>user&#45;env</title>
<polygon fill="none" stroke="#000000" points="395.5,-344 316.5,-344 316.5,-308 395.5,-308 395.5,-344"/>
<text text-anchor="middle" x="356" y="-322.3" font-family="sans" font-size="14.00" fill="#000000">user&#45;env</text>
</g>
<!-- pre&#45;script -->
<g id="node7" class="node">
<title>pre&#45;script</title>
<ellipse fill="none" stroke="#000000" cx="356" cy="-254" rx="55.4913" ry="18"/>
<text text-anchor="middle" x="356" y="-250.3" font-family="sans" font-size="14.00" fill="#000000">pre&#45;script</text>
</g>
<!-- user&#45;env&#45;&gt;pre&#45;script -->
<g id="edge5" class="edge">
<title>user&#45;env&#45;&gt;pre&#45;script</title>
<path fill="none" stroke="#000000" d="M356,-307.8314C356,-300.131 356,-290.9743 356,-282.4166"/>
<polygon fill="#000000" stroke="#000000" points="359.5001,-282.4132 356,-272.4133 352.5001,-282.4133 359.5001,-282.4132"/>
</g>
<!-- init&#45;script -->
<g id="node5" class="node">
<title>init&#45;script</title>
<ellipse fill="none" stroke="#000000" cx="356" cy="-557" rx="53.8905" ry="18"/>
<text text-anchor="middle" x="356" y="-553.3" font-family="sans" font-size="14.00" fill="#000000">init&#45;script</text>
</g>
<!-- init&#45;script&#45;&gt;cylc&#45;env -->
<g id="edge2" class="edge">
<title>init&#45;script&#45;&gt;cylc&#45;env</title>
<path fill="none" stroke="#000000" d="M356,-538.8314C356,-531.131 356,-521.9743 356,-513.4166"/>
<polygon fill="#000000" stroke="#000000" points="359.5001,-513.4132 356,-503.4133 352.5001,-513.4133 359.5001,-513.4132"/>
</g>
<!-- env&#45;script&#45;&gt;user&#45;env -->
<g id="edge4" class="edge">
<title>env&#45;script&#45;&gt;user&#45;env</title>
<path fill="none" stroke="#000000" d="M356,-379.8314C356,-372.131 356,-362.9743 356,-354.4166"/>
<polygon fill="#000000" stroke="#000000" points="359.5001,-354.4132 356,-344.4133 352.5001,-354.4133 359.5001,-354.4132"/>
</g>
<!-- script -->
<g id="node8" class="node">
<title>script</title>
<ellipse fill="none" stroke="#000000" cx="356" cy="-182" rx="36.2938" ry="18"/>
<text text-anchor="middle" x="356" y="-178.3" font-family="sans" font-size="14.00" fill="#000000">script</text>
</g>
<!-- pre&#45;script&#45;&gt;script -->
<g id="edge6" class="edge">
<title>pre&#45;script&#45;&gt;script</title>
<path fill="none" stroke="#000000" d="M356,-235.8314C356,-228.131 356,-218.9743 356,-210.4166"/>
<polygon fill="#000000" stroke="#000000" points="359.5001,-210.4132 356,-200.4133 352.5001,-210.4133 359.5001,-210.4132"/>
</g>
<!-- post&#45;script -->
<g id="node9" class="node">
<title>post&#45;script</title>
<ellipse fill="none" stroke="#000000" cx="356" cy="-110" rx="59.5901" ry="18"/>
<text text-anchor="middle" x="356" y="-106.3" font-family="sans" font-size="14.00" fill="#000000">post&#45;script</text>
</g>
<!-- script&#45;&gt;post&#45;script -->
<g id="edge7" class="edge">
<title>script&#45;&gt;post&#45;script</title>
<path fill="none" stroke="#000000" d="M356,-163.8314C356,-156.131 356,-146.9743 356,-138.4166"/>
<polygon fill="#000000" stroke="#000000" points="359.5001,-138.4132 356,-128.4133 352.5001,-138.4133 359.5001,-138.4132"/>
</g>
<!-- err&#45;script -->
<g id="node10" class="node">
<title>err&#45;script</title>
<ellipse fill="none" stroke="#000000" cx="291" cy="-38" rx="52.7911" ry="18"/>
<text text-anchor="middle" x="291" y="-34.3" font-family="sans" font-size="14.00" fill="#000000">err&#45;script</text>
</g>
<!-- post&#45;script&#45;&gt;err&#45;script -->
<g id="edge8" class="edge">
<title>post&#45;script&#45;&gt;err&#45;script</title>
<path fill="none" stroke="#000000" d="M340.2653,-92.5708C332.2014,-83.6385 322.2412,-72.6056 313.3915,-62.8029"/>
<polygon fill="#000000" stroke="#000000" points="315.8888,-60.346 306.5898,-55.2687 310.6929,-65.0368 315.8888,-60.346"/>
</g>
<!-- exit&#45;script -->
<g id="node11" class="node">
<title>exit&#45;script</title>
<ellipse fill="none" stroke="#000000" cx="418" cy="-38" rx="56.59" ry="18"/>
<text text-anchor="middle" x="418" y="-34.3" font-family="sans" font-size="14.00" fill="#000000">exit&#45;script</text>
</g>
<!-- post&#45;script&#45;&gt;exit&#45;script -->
<g id="edge9" class="edge">
<title>post&#45;script&#45;&gt;exit&#45;script</title>
<path fill="none" stroke="#000000" d="M371.0085,-92.5708C378.5681,-83.7919 387.8748,-72.9841 396.2059,-63.3093"/>
<polygon fill="#000000" stroke="#000000" points="399.0418,-65.3798 402.9149,-55.5182 393.7374,-60.8121 399.0418,-65.3798"/>
</g>
</g>
</svg>
