<?xml version="1.0" encoding="UTF-8" standalone="no"?>
<!DOCTYPE svg PUBLIC "-//W3C//DTD SVG 1.1//EN"
 "http://www.w3.org/Graphics/SVG/1.1/DTD/svg11.dtd">
<!-- Generated by graphviz version 2.40.1 (20161225.0304)
 -->
<!-- Title: Example Pages: 1 -->
<svg width="135pt" height="263pt"
 viewBox="0.00 0.00 135.07 263.00" xmlns="http://www.w3.org/2000/svg" xmlns:xlink="http://www.w3.org/1999/xlink">
<g id="graph0" class="graph" transform="scale(1 1) rotate(0) translate(4 259)">
<title>Example</title>
<polygon fill="transparent" stroke="transparent" points="-4,4 -4,-259 131.0729,-259 131.0729,4 -4,4"/>
<g id="clust1" class="cluster">
<title>cluster_1</title>
<polygon fill="transparent" stroke="#ff0000" stroke-dasharray="5,2" points="8,-64 8,-139 116,-139 116,-64 8,-64"/>
<text text-anchor="middle" x="62" y="-123.8" font-family="sans" font-size="14.00" fill="#ff0000">:fail</text>
</g>
<!-- recover -->
<g id="node1" class="node">
<title>recover</title>
<ellipse fill="none" stroke="#000000" cx="62" cy="-90" rx="46.2923" ry="18"/>
<text text-anchor="middle" x="62" y="-86.3" font-family="sans" font-size="14.00" fill="#000000">recover</text>
</g>
<!-- baz -->
<g id="node4" class="node">
<title>baz</title>
<ellipse fill="none" stroke="#000000" cx="99" cy="-18" rx="27.0966" ry="18"/>
<text text-anchor="middle" x="99" y="-14.3" font-family="sans" font-size="14.00" fill="#000000">baz</text>
</g>
<!-- recover&#45;&gt;baz -->
<g id="edge3" class="edge">
<title>recover&#45;&gt;baz</title>
<path fill="none" stroke="#000000" d="M71.1461,-72.2022C75.5117,-63.7071 80.8203,-53.3767 85.6274,-44.0223"/>
<polygon fill="none" stroke="#000000" points="88.7562,-45.5913 90.2139,-35.0972 82.5302,-42.3918 88.7562,-45.5913"/>
</g>
<!-- foo -->
<g id="node2" class="node">
<title>foo</title>
<ellipse fill="none" stroke="#000000" cx="99" cy="-237" rx="27" ry="18"/>
<text text-anchor="middle" x="99" y="-233.3" font-family="sans" font-size="14.00" fill="#000000">foo</text>
</g>
<!-- bar -->
<g id="node3" class="node">
<title>bar</title>
<ellipse fill="none" stroke="#000000" cx="99" cy="-165" rx="27" ry="18"/>
<text text-anchor="middle" x="99" y="-161.3" font-family="sans" font-size="14.00" fill="#000000">bar</text>
</g>
<!-- foo&#45;&gt;bar -->
<g id="edge1" class="edge">
<title>foo&#45;&gt;bar</title>
<path fill="none" stroke="#000000" d="M99,-218.8314C99,-211.131 99,-201.9743 99,-193.4166"/>
<polygon fill="#000000" stroke="#000000" points="102.5001,-193.4132 99,-183.4133 95.5001,-193.4133 102.5001,-193.4132"/>
</g>
<!-- bar&#45;&gt;recover -->
<g id="edge2" class="edge">
<title>bar&#45;&gt;recover</title>
<path fill="none" stroke="#000000" d="M90.4185,-147.605C85.9074,-138.4609 80.2792,-127.0524 75.2244,-116.8062"/>
<polygon fill="#000000" stroke="#000000" points="78.3551,-115.2411 70.7919,-107.8215 72.0774,-118.3381 78.3551,-115.2411"/>
</g>
<!-- bar&#45;&gt;baz -->
<g id="edge4" class="edge">
<title>bar&#45;&gt;baz</title>
<path fill="none" stroke="#000000" d="M114.0049,-149.8336C116.4632,-146.5088 118.6466,-142.8295 120,-139 131.107,-107.5716 127.0833,-96.572 120,-64 118.5554,-57.3571 116.0632,-50.524 113.2895,-44.2236"/>
<polygon fill="none" stroke="#000000" points="116.2842,-42.3734 108.8089,-34.8653 109.9705,-45.3963 116.2842,-42.3734"/>
</g>
</g>
</svg>
