<?xml version="1.0" encoding="UTF-8" standalone="no"?>
<!DOCTYPE svg PUBLIC "-//W3C//DTD SVG 1.1//EN"
 "http://www.w3.org/Graphics/SVG/1.1/DTD/svg11.dtd">
<!-- Generated by graphviz version 2.40.1 (20161225.0304)
 -->
<!-- Title: Mini_Cylc Pages: 1 -->
<svg width="342pt" height="260pt"
 viewBox="0.00 0.00 342.09 260.00" xmlns="http://www.w3.org/2000/svg" xmlns:xlink="http://www.w3.org/1999/xlink">
<g id="graph0" class="graph" transform="scale(1 1) rotate(0) translate(4 256)">
<title>Mini_Cylc</title>
<polygon fill="transparent" stroke="transparent" points="-4,4 -4,-256 338.0854,-256 338.0854,4 -4,4"/>
<!-- buy_ingredients -->
<g id="node1" class="node">
<title>buy_ingredients</title>
<ellipse fill="none" stroke="#000000" cx="85.1424" cy="-234" rx="85.2851" ry="18"/>
<text text-anchor="middle" x="85.1424" y="-230.3" font-family="sans" font-size="14.00" fill="#000000">buy_ingredients</text>
</g>
<!-- make_dough -->
<g id="node2" class="node">
<title>make_dough</title>
<ellipse fill="none" stroke="#000000" cx="85.1424" cy="-162" rx="70.6878" ry="18"/>
<text text-anchor="middle" x="85.1424" y="-158.3" font-family="sans" font-size="14.00" fill="#000000">make_dough</text>
</g>
<!-- buy_ingredients&#45;&gt;make_dough -->
<g id="edge1" class="edge">
<title>buy_ingredients&#45;&gt;make_dough</title>
<path fill="none" stroke="#000000" d="M85.1424,-215.8314C85.1424,-208.131 85.1424,-198.9743 85.1424,-190.4166"/>
<polygon fill="#000000" stroke="#000000" points="88.6425,-190.4132 85.1424,-180.4133 81.6425,-190.4133 88.6425,-190.4132"/>
</g>
<!-- bake_bread -->
<g id="node3" class="node">
<title>bake_bread</title>
<ellipse fill="none" stroke="#000000" cx="169.1424" cy="-90" rx="65.7887" ry="18"/>
<text text-anchor="middle" x="169.1424" y="-86.3" font-family="sans" font-size="14.00" fill="#000000">bake_bread</text>
</g>
<!-- make_dough&#45;&gt;bake_bread -->
<g id="edge2" class="edge">
<title>make_dough&#45;&gt;bake_bread</title>
<path fill="none" stroke="#000000" d="M105.4765,-144.5708C116.2071,-135.3732 129.536,-123.9484 141.2209,-113.9328"/>
<polygon fill="#000000" stroke="#000000" points="143.6808,-116.434 148.9956,-107.2687 139.1253,-111.1192 143.6808,-116.434"/>
</g>
<!-- clean_oven -->
<g id="node4" class="node">
<title>clean_oven</title>
<ellipse fill="none" stroke="#000000" cx="99.1424" cy="-18" rx="63.8893" ry="18"/>
<text text-anchor="middle" x="99.1424" y="-14.3" font-family="sans" font-size="14.00" fill="#000000">clean_oven</text>
</g>
<!-- bake_bread&#45;&gt;clean_oven -->
<g id="edge5" class="edge">
<title>bake_bread&#45;&gt;clean_oven</title>
<path fill="none" stroke="#000000" d="M152.1974,-72.5708C143.4917,-63.6164 132.7337,-52.551 123.1856,-42.7302"/>
<polygon fill="#000000" stroke="#000000" points="125.6544,-40.2484 116.1741,-35.5182 120.6354,-45.128 125.6544,-40.2484"/>
</g>
<!-- sell_bread -->
<g id="node6" class="node">
<title>sell_bread</title>
<ellipse fill="none" stroke="#000000" cx="239.1424" cy="-18" rx="58.4896" ry="18"/>
<text text-anchor="middle" x="239.1424" y="-14.3" font-family="sans" font-size="14.00" fill="#000000">sell_bread</text>
</g>
<!-- bake_bread&#45;&gt;sell_bread -->
<g id="edge4" class="edge">
<title>bake_bread&#45;&gt;sell_bread</title>
<path fill="none" stroke="#000000" d="M186.0875,-72.5708C194.8577,-63.55 205.7107,-52.387 215.3112,-42.5121"/>
<polygon fill="#000000" stroke="#000000" points="217.8921,-44.8784 222.3534,-35.2687 212.8731,-39.9989 217.8921,-44.8784"/>
</g>
<!-- pre_heat_oven -->
<g id="node5" class="node">
<title>pre_heat_oven</title>
<ellipse fill="none" stroke="#000000" cx="254.1424" cy="-162" rx="79.8859" ry="18"/>
<text text-anchor="middle" x="254.1424" y="-158.3" font-family="sans" font-size="14.00" fill="#000000">pre_heat_oven</text>
</g>
<!-- pre_heat_oven&#45;&gt;bake_bread -->
<g id="edge3" class="edge">
<title>pre_heat_oven&#45;&gt;bake_bread</title>
<path fill="none" stroke="#000000" d="M233.5663,-144.5708C222.708,-135.3732 209.2204,-123.9484 197.3964,-113.9328"/>
<polygon fill="#000000" stroke="#000000" points="199.4218,-111.0615 189.5291,-107.2687 194.8974,-116.4028 199.4218,-111.0615"/>
</g>
</g>
</svg>
