<?xml version="1.0" encoding="UTF-8" standalone="no"?>
<!DOCTYPE svg PUBLIC "-//W3C//DTD SVG 1.1//EN"
 "http://www.w3.org/Graphics/SVG/1.1/DTD/svg11.dtd">
<!-- Generated by graphviz version 2.43.0 (0)
 -->
<!-- Title: %3 Pages: 1 -->
<svg width="498pt" height="2574pt"
 viewBox="0.00 0.00 498.00 2573.50" xmlns="http://www.w3.org/2000/svg" xmlns:xlink="http://www.w3.org/1999/xlink">
<g id="graph0" class="graph" transform="scale(1 1) rotate(0) translate(4 2569.5)">
<title>%3</title>
<polygon fill="transparent" stroke="transparent" points="-4,4 -4,-2569.5 494,-2569.5 494,4 -4,4"/>
<!-- absolute_outputs -->
<g id="node1" class="node">
<title>absolute_outputs</title>
<polygon fill="none" stroke="black" points="284.5,-78.5 284.5,-106.5 450.5,-106.5 450.5,-78.5 284.5,-78.5"/>
<text text-anchor="start" x="289.5" y="-89.7" font-family="Helvetica,sans-Serif" font-weight="bold" font-size="16.00">absolute_outputs</text>
<polygon fill="none" stroke="black" points="284.5,-53.5 284.5,-78.5 450.5,-78.5 450.5,-53.5 284.5,-53.5"/>
<text text-anchor="start" x="289.5" y="-62.3" font-family="Helvetica,sans-Serif" font-size="14.00">cycle</text>
<polygon fill="none" stroke="black" points="284.5,-28.5 284.5,-53.5 450.5,-53.5 450.5,-28.5 284.5,-28.5"/>
<text text-anchor="start" x="289.5" y="-37.3" font-family="Helvetica,sans-Serif" font-size="14.00">name</text>
<polygon fill="none" stroke="black" points="284.5,-3.5 284.5,-28.5 450.5,-28.5 450.5,-3.5 284.5,-3.5"/>
<text text-anchor="start" x="289.5" y="-12.3" font-family="Helvetica,sans-Serif" font-size="14.00">output</text>
</g>
<!-- broadcast_events -->
<g id="node2" class="node">
<title>broadcast_events</title>
<polygon fill="none" stroke="black" points="283.5,-283.5 283.5,-311.5 452.5,-311.5 452.5,-283.5 283.5,-283.5"/>
<text text-anchor="start" x="288.5" y="-294.7" font-family="Helvetica,sans-Serif" font-weight="bold" font-size="16.00">broadcast_events</text>
<polygon fill="none" stroke="black" points="283.5,-258.5 283.5,-283.5 452.5,-283.5 452.5,-258.5 283.5,-258.5"/>
<text text-anchor="start" x="288.5" y="-267.3" font-family="Helvetica,sans-Serif" font-size="14.00">time</text>
<polygon fill="none" stroke="black" points="283.5,-233.5 283.5,-258.5 452.5,-258.5 452.5,-233.5 283.5,-233.5"/>
<text text-anchor="start" x="288.5" y="-242.3" font-family="Helvetica,sans-Serif" font-size="14.00">change</text>
<polygon fill="none" stroke="black" points="283.5,-208.5 283.5,-233.5 452.5,-233.5 452.5,-208.5 283.5,-208.5"/>
<text text-anchor="start" x="288.5" y="-217.3" font-family="Helvetica,sans-Serif" font-size="14.00">point</text>
<polygon fill="none" stroke="black" points="283.5,-183.5 283.5,-208.5 452.5,-208.5 452.5,-183.5 283.5,-183.5"/>
<text text-anchor="start" x="288.5" y="-192.3" font-family="Helvetica,sans-Serif" font-size="14.00">namespace</text>
<polygon fill="none" stroke="black" points="283.5,-158.5 283.5,-183.5 452.5,-183.5 452.5,-158.5 283.5,-158.5"/>
<text text-anchor="start" x="288.5" y="-167.3" font-family="Helvetica,sans-Serif" font-size="14.00">key</text>
<polygon fill="none" stroke="black" points="283.5,-133.5 283.5,-158.5 452.5,-158.5 452.5,-133.5 283.5,-133.5"/>
<text text-anchor="start" x="288.5" y="-142.3" font-family="Helvetica,sans-Serif" font-size="14.00">value</text>
</g>
<!-- broadcast_states -->
<g id="node3" class="node">
<title>broadcast_states</title>
<polygon fill="none" stroke="black" points="285.5,-437.5 285.5,-465.5 449.5,-465.5 449.5,-437.5 285.5,-437.5"/>
<text text-anchor="start" x="290.5" y="-448.7" font-family="Helvetica,sans-Serif" font-weight="bold" font-size="16.00">broadcast_states</text>
<polygon fill="none" stroke="black" points="285.5,-412.5 285.5,-437.5 449.5,-437.5 449.5,-412.5 285.5,-412.5"/>
<text text-anchor="start" x="290.5" y="-422.3" font-family="Helvetica,sans-Serif" text-decoration="underline" font-size="14.00">point</text>
<polygon fill="none" stroke="black" points="285.5,-387.5 285.5,-412.5 449.5,-412.5 449.5,-387.5 285.5,-387.5"/>
<text text-anchor="start" x="290.5" y="-397.3" font-family="Helvetica,sans-Serif" text-decoration="underline" font-size="14.00">namespace</text>
<polygon fill="none" stroke="black" points="285.5,-362.5 285.5,-387.5 449.5,-387.5 449.5,-362.5 285.5,-362.5"/>
<text text-anchor="start" x="290.5" y="-372.3" font-family="Helvetica,sans-Serif" text-decoration="underline" font-size="14.00">key</text>
<polygon fill="none" stroke="black" points="285.5,-337.5 285.5,-362.5 449.5,-362.5 449.5,-337.5 285.5,-337.5"/>
<text text-anchor="start" x="290.5" y="-346.3" font-family="Helvetica,sans-Serif" font-size="14.00">value</text>
</g>
<!-- inheritance -->
<g id="node4" class="node">
<title>inheritance</title>
<polygon fill="none" stroke="black" points="311.5,-541.5 311.5,-569.5 423.5,-569.5 423.5,-541.5 311.5,-541.5"/>
<text text-anchor="start" x="316.5" y="-552.7" font-family="Helvetica,sans-Serif" font-weight="bold" font-size="16.00">inheritance</text>
<polygon fill="none" stroke="black" points="311.5,-516.5 311.5,-541.5 423.5,-541.5 423.5,-516.5 311.5,-516.5"/>
<text text-anchor="start" x="316.5" y="-526.3" font-family="Helvetica,sans-Serif" text-decoration="underline" font-size="14.00">namespace</text>
<polygon fill="none" stroke="black" points="311.5,-491.5 311.5,-516.5 423.5,-516.5 423.5,-491.5 311.5,-491.5"/>
<text text-anchor="start" x="316.5" y="-500.3" font-family="Helvetica,sans-Serif" font-size="14.00">inheritance</text>
</g>
<!-- task_action_timers -->
<g id="node5" class="node">
<title>task_action_timers</title>
<polygon fill="none" stroke="black" points="278.5,-1183.5 278.5,-1211.5 457.5,-1211.5 457.5,-1183.5 278.5,-1183.5"/>
<text text-anchor="start" x="283.5" y="-1194.7" font-family="Helvetica,sans-Serif" font-weight="bold" font-size="16.00">task_action_timers</text>
<polygon fill="none" stroke="black" points="278.5,-1158.5 278.5,-1183.5 457.5,-1183.5 457.5,-1158.5 278.5,-1158.5"/>
<text text-anchor="start" x="283.5" y="-1168.3" font-family="Helvetica,sans-Serif" text-decoration="underline" font-size="14.00">cycle</text>
<polygon fill="none" stroke="black" points="278.5,-1133.5 278.5,-1158.5 457.5,-1158.5 457.5,-1133.5 278.5,-1133.5"/>
<text text-anchor="start" x="283.5" y="-1143.3" font-family="Helvetica,sans-Serif" text-decoration="underline" font-size="14.00">name</text>
<polygon fill="none" stroke="black" points="278.5,-1108.5 278.5,-1133.5 457.5,-1133.5 457.5,-1108.5 278.5,-1108.5"/>
<text text-anchor="start" x="283.5" y="-1118.3" font-family="Helvetica,sans-Serif" text-decoration="underline" font-size="14.00">ctx_key</text>
<polygon fill="none" stroke="black" points="278.5,-1083.5 278.5,-1108.5 457.5,-1108.5 457.5,-1083.5 278.5,-1083.5"/>
<text text-anchor="start" x="283.5" y="-1092.3" font-family="Helvetica,sans-Serif" font-size="14.00">ctx</text>
<polygon fill="none" stroke="black" points="278.5,-1058.5 278.5,-1083.5 457.5,-1083.5 457.5,-1058.5 278.5,-1058.5"/>
<text text-anchor="start" x="283.5" y="-1067.3" font-family="Helvetica,sans-Serif" font-size="14.00">delays</text>
<polygon fill="none" stroke="black" points="278.5,-1033.5 278.5,-1058.5 457.5,-1058.5 457.5,-1033.5 278.5,-1033.5"/>
<text text-anchor="start" x="283.5" y="-1042.3" font-family="Helvetica,sans-Serif" font-size="14.00">num</text>
<polygon fill="none" stroke="black" points="278.5,-1008.5 278.5,-1033.5 457.5,-1033.5 457.5,-1008.5 278.5,-1008.5"/>
<text text-anchor="start" x="283.5" y="-1017.3" font-family="Helvetica,sans-Serif" font-size="14.00">delay</text>
<polygon fill="none" stroke="black" points="278.5,-983.5 278.5,-1008.5 457.5,-1008.5 457.5,-983.5 278.5,-983.5"/>
<text text-anchor="start" x="283.5" y="-992.3" font-family="Helvetica,sans-Serif" font-size="14.00">timeout</text>
</g>
<!-- task_events -->
<g id="node6" class="node">
<title>task_events</title>
<polygon fill="none" stroke="black" points="309.5,-1817.5 309.5,-1845.5 426.5,-1845.5 426.5,-1817.5 309.5,-1817.5"/>
<text text-anchor="start" x="314.5" y="-1828.7" font-family="Helvetica,sans-Serif" font-weight="bold" font-size="16.00">task_events</text>
<polygon fill="none" stroke="black" points="309.5,-1792.5 309.5,-1817.5 426.5,-1817.5 426.5,-1792.5 309.5,-1792.5"/>
<text text-anchor="start" x="314.5" y="-1801.3" font-family="Helvetica,sans-Serif" font-size="14.00">name</text>
<polygon fill="none" stroke="black" points="309.5,-1767.5 309.5,-1792.5 426.5,-1792.5 426.5,-1767.5 309.5,-1767.5"/>
<text text-anchor="start" x="314.5" y="-1776.3" font-family="Helvetica,sans-Serif" font-size="14.00">cycle</text>
<polygon fill="none" stroke="black" points="309.5,-1742.5 309.5,-1767.5 426.5,-1767.5 426.5,-1742.5 309.5,-1742.5"/>
<text text-anchor="start" x="314.5" y="-1751.3" font-family="Helvetica,sans-Serif" font-size="14.00">time</text>
<polygon fill="none" stroke="black" points="309.5,-1717.5 309.5,-1742.5 426.5,-1742.5 426.5,-1717.5 309.5,-1717.5"/>
<text text-anchor="start" x="314.5" y="-1726.3" font-family="Helvetica,sans-Serif" font-size="14.00">submit_num</text>
<polygon fill="none" stroke="black" points="309.5,-1692.5 309.5,-1717.5 426.5,-1717.5 426.5,-1692.5 309.5,-1692.5"/>
<text text-anchor="start" x="314.5" y="-1701.3" font-family="Helvetica,sans-Serif" font-size="14.00">event</text>
<polygon fill="none" stroke="black" points="309.5,-1667.5 309.5,-1692.5 426.5,-1692.5 426.5,-1667.5 309.5,-1667.5"/>
<text text-anchor="start" x="314.5" y="-1676.3" font-family="Helvetica,sans-Serif" font-size="14.00">message</text>
</g>
<!-- task_jobs -->
<g id="node7" class="node">
<title>task_jobs</title>
<polygon fill="none" stroke="black" points="300.5,-1612.5 300.5,-1640.5 435.5,-1640.5 435.5,-1612.5 300.5,-1612.5"/>
<text text-anchor="start" x="325.5" y="-1623.7" font-family="Helvetica,sans-Serif" font-weight="bold" font-size="16.00">task_jobs</text>
<polygon fill="none" stroke="black" points="300.5,-1587.5 300.5,-1612.5 435.5,-1612.5 435.5,-1587.5 300.5,-1587.5"/>
<text text-anchor="start" x="305.5" y="-1597.3" font-family="Helvetica,sans-Serif" text-decoration="underline" font-size="14.00">cycle</text>
<polygon fill="none" stroke="black" points="300.5,-1562.5 300.5,-1587.5 435.5,-1587.5 435.5,-1562.5 300.5,-1562.5"/>
<text text-anchor="start" x="305.5" y="-1572.3" font-family="Helvetica,sans-Serif" text-decoration="underline" font-size="14.00">name</text>
<polygon fill="none" stroke="black" points="300.5,-1537.5 300.5,-1562.5 435.5,-1562.5 435.5,-1537.5 300.5,-1537.5"/>
<text text-anchor="start" x="305.5" y="-1547.3" font-family="Helvetica,sans-Serif" text-decoration="underline" font-size="14.00">submit_num</text>
<polygon fill="none" stroke="black" points="300.5,-1512.5 300.5,-1537.5 435.5,-1537.5 435.5,-1512.5 300.5,-1512.5"/>
<text text-anchor="start" x="305.5" y="-1521.3" font-family="Helvetica,sans-Serif" font-size="14.00">is_manual_submit</text>
<polygon fill="none" stroke="black" points="300.5,-1487.5 300.5,-1512.5 435.5,-1512.5 435.5,-1487.5 300.5,-1487.5"/>
<text text-anchor="start" x="305.5" y="-1496.3" font-family="Helvetica,sans-Serif" font-size="14.00">try_num</text>
<polygon fill="none" stroke="black" points="300.5,-1462.5 300.5,-1487.5 435.5,-1487.5 435.5,-1462.5 300.5,-1462.5"/>
<text text-anchor="start" x="305.5" y="-1471.3" font-family="Helvetica,sans-Serif" font-size="14.00">time_submit</text>
<polygon fill="none" stroke="black" points="300.5,-1437.5 300.5,-1462.5 435.5,-1462.5 435.5,-1437.5 300.5,-1437.5"/>
<text text-anchor="start" x="305.5" y="-1446.3" font-family="Helvetica,sans-Serif" font-size="14.00">time_submit_exit</text>
<polygon fill="none" stroke="black" points="300.5,-1412.5 300.5,-1437.5 435.5,-1437.5 435.5,-1412.5 300.5,-1412.5"/>
<text text-anchor="start" x="305.5" y="-1421.3" font-family="Helvetica,sans-Serif" font-size="14.00">submit_status</text>
<polygon fill="none" stroke="black" points="300.5,-1387.5 300.5,-1412.5 435.5,-1412.5 435.5,-1387.5 300.5,-1387.5"/>
<text text-anchor="start" x="305.5" y="-1396.3" font-family="Helvetica,sans-Serif" font-size="14.00">time_run</text>
<polygon fill="none" stroke="black" points="300.5,-1362.5 300.5,-1387.5 435.5,-1387.5 435.5,-1362.5 300.5,-1362.5"/>
<text text-anchor="start" x="305.5" y="-1371.3" font-family="Helvetica,sans-Serif" font-size="14.00">time_run_exit</text>
<polygon fill="none" stroke="black" points="300.5,-1337.5 300.5,-1362.5 435.5,-1362.5 435.5,-1337.5 300.5,-1337.5"/>
<text text-anchor="start" x="305.5" y="-1346.3" font-family="Helvetica,sans-Serif" font-size="14.00">run_signal</text>
<polygon fill="none" stroke="black" points="300.5,-1312.5 300.5,-1337.5 435.5,-1337.5 435.5,-1312.5 300.5,-1312.5"/>
<text text-anchor="start" x="305.5" y="-1321.3" font-family="Helvetica,sans-Serif" font-size="14.00">run_status</text>
<polygon fill="none" stroke="black" points="300.5,-1287.5 300.5,-1312.5 435.5,-1312.5 435.5,-1287.5 300.5,-1287.5"/>
<text text-anchor="start" x="305.5" y="-1296.3" font-family="Helvetica,sans-Serif" font-size="14.00">platform_name</text>
<polygon fill="none" stroke="black" points="300.5,-1262.5 300.5,-1287.5 435.5,-1287.5 435.5,-1262.5 300.5,-1262.5"/>
<text text-anchor="start" x="305.5" y="-1271.3" font-family="Helvetica,sans-Serif" font-size="14.00">job_runner_name</text>
<polygon fill="none" stroke="black" points="300.5,-1237.5 300.5,-1262.5 435.5,-1262.5 435.5,-1237.5 300.5,-1237.5"/>
<text text-anchor="start" x="305.5" y="-1246.3" font-family="Helvetica,sans-Serif" font-size="14.00">job_id</text>
</g>
<!-- task_late_flags -->
<g id="node8" class="node">
<title>task_late_flags</title>
<polygon fill="none" stroke="black" points="296.5,-928.5 296.5,-956.5 439.5,-956.5 439.5,-928.5 296.5,-928.5"/>
<text text-anchor="start" x="301.5" y="-939.7" font-family="Helvetica,sans-Serif" font-weight="bold" font-size="16.00">task_late_flags</text>
<polygon fill="none" stroke="black" points="296.5,-903.5 296.5,-928.5 439.5,-928.5 439.5,-903.5 296.5,-903.5"/>
<text text-anchor="start" x="301.5" y="-913.3" font-family="Helvetica,sans-Serif" text-decoration="underline" font-size="14.00">cycle</text>
<polygon fill="none" stroke="black" points="296.5,-878.5 296.5,-903.5 439.5,-903.5 439.5,-878.5 296.5,-878.5"/>
<text text-anchor="start" x="301.5" y="-888.3" font-family="Helvetica,sans-Serif" text-decoration="underline" font-size="14.00">name</text>
<polygon fill="none" stroke="black" points="296.5,-853.5 296.5,-878.5 439.5,-878.5 439.5,-853.5 296.5,-853.5"/>
<text text-anchor="start" x="301.5" y="-862.3" font-family="Helvetica,sans-Serif" font-size="14.00">value</text>
</g>
<!-- task_outputs -->
<g id="node9" class="node">
<title>task_outputs</title>
<polygon fill="none" stroke="black" points="304.5,-799.5 304.5,-827.5 431.5,-827.5 431.5,-799.5 304.5,-799.5"/>
<text text-anchor="start" x="309.5" y="-810.7" font-family="Helvetica,sans-Serif" font-weight="bold" font-size="16.00">task_outputs</text>
<polygon fill="none" stroke="black" points="304.5,-774.5 304.5,-799.5 431.5,-799.5 431.5,-774.5 304.5,-774.5"/>
<text text-anchor="start" x="309.5" y="-784.3" font-family="Helvetica,sans-Serif" text-decoration="underline" font-size="14.00">cycle</text>
<polygon fill="none" stroke="black" points="304.5,-749.5 304.5,-774.5 431.5,-774.5 431.5,-749.5 304.5,-749.5"/>
<text text-anchor="start" x="309.5" y="-759.3" font-family="Helvetica,sans-Serif" text-decoration="underline" font-size="14.00">name</text>
<polygon fill="none" stroke="black" points="304.5,-724.5 304.5,-749.5 431.5,-749.5 431.5,-724.5 304.5,-724.5"/>
<text text-anchor="start" x="309.5" y="-733.3" font-family="Helvetica,sans-Serif" font-size="14.00">outputs</text>
</g>
<!-- task_pool -->
<g id="node10" class="node">
<title>task_pool</title>
<polygon fill="none" stroke="black" points="38,-888.5 38,-916.5 134,-916.5 134,-888.5 38,-888.5"/>
<text text-anchor="start" x="43" y="-899.7" font-family="Helvetica,sans-Serif" font-weight="bold" font-size="16.00">task_pool</text>
<polygon fill="none" stroke="black" points="38,-863.5 38,-888.5 134,-888.5 134,-863.5 38,-863.5"/>
<text text-anchor="start" x="43" y="-873.3" font-family="Helvetica,sans-Serif" text-decoration="underline" font-size="14.00">cycle</text>
<polygon fill="none" stroke="black" points="38,-838.5 38,-863.5 134,-863.5 134,-838.5 38,-838.5"/>
<text text-anchor="start" x="43" y="-848.3" font-family="Helvetica,sans-Serif" text-decoration="underline" font-size="14.00">name</text>
<polygon fill="none" stroke="black" points="38,-813.5 38,-838.5 134,-838.5 134,-813.5 38,-813.5"/>
<text text-anchor="start" x="43" y="-823.3" font-family="Helvetica,sans-Serif" text-decoration="underline" font-size="14.00">flow_label</text>
<polygon fill="none" stroke="black" points="38,-788.5 38,-813.5 134,-813.5 134,-788.5 38,-788.5"/>
<text text-anchor="start" x="43" y="-797.3" font-family="Helvetica,sans-Serif" font-size="14.00">status</text>
<polygon fill="none" stroke="black" points="38,-763.5 38,-788.5 134,-788.5 134,-763.5 38,-763.5"/>
<text text-anchor="start" x="43" y="-772.3" font-family="Helvetica,sans-Serif" font-size="14.00">is_held</text>
</g>
<!-- task_pool&#45;&#45;task_action_timers -->
<g id="edge3" class="edge">
<title>task_pool&#45;&#45;task_action_timers</title>
<path fill="none" stroke="#7f7f7f" stroke-dasharray="5,2" d="M142.22,-891.27C178.57,-924.7 227.15,-969.37 269.8,-1008.58"/>
<text text-anchor="start" x="228.8" y="-997.38" font-family="Times,serif" font-size="14.00">{0,1}</text>
<text text-anchor="start" x="142.22" y="-880.07" font-family="Times,serif" font-size="14.00">0..N</text>
</g>
<!-- task_pool&#45;&#45;task_late_flags -->
<g id="edge4" class="edge">
<title>task_pool&#45;&#45;task_late_flags</title>
<path fill="none" stroke="#7f7f7f" stroke-dasharray="5,2" d="M142.22,-853.34C183.82,-863.02 241.43,-876.41 287.85,-887.21"/>
<text text-anchor="start" x="246.85" y="-876.01" font-family="Times,serif" font-size="14.00">{0,1}</text>
<text text-anchor="start" x="142.22" y="-842.14" font-family="Times,serif" font-size="14.00">{0,1}</text>
</g>
<!-- task_pool&#45;&#45;task_outputs -->
<g id="edge5" class="edge">
<title>task_pool&#45;&#45;task_outputs</title>
<path fill="none" stroke="#7f7f7f" stroke-dasharray="5,2" d="M142.22,-827.86C186.29,-817.76 248.32,-803.56 295.98,-792.65"/>
<text text-anchor="start" x="254.98" y="-781.45" font-family="Times,serif" font-size="14.00">{0,1}</text>
<text text-anchor="start" x="142.22" y="-816.66" font-family="Times,serif" font-size="14.00">0..N</text>
</g>
<!-- task_timeout_timers -->
<g id="node13" class="node">
<title>task_timeout_timers</title>
<polygon fill="none" stroke="black" points="271.5,-670.5 271.5,-698.5 464.5,-698.5 464.5,-670.5 271.5,-670.5"/>
<text text-anchor="start" x="276.5" y="-681.7" font-family="Helvetica,sans-Serif" font-weight="bold" font-size="16.00">task_timeout_timers</text>
<polygon fill="none" stroke="black" points="271.5,-645.5 271.5,-670.5 464.5,-670.5 464.5,-645.5 271.5,-645.5"/>
<text text-anchor="start" x="276.5" y="-655.3" font-family="Helvetica,sans-Serif" text-decoration="underline" font-size="14.00">cycle</text>
<polygon fill="none" stroke="black" points="271.5,-620.5 271.5,-645.5 464.5,-645.5 464.5,-620.5 271.5,-620.5"/>
<text text-anchor="start" x="276.5" y="-630.3" font-family="Helvetica,sans-Serif" text-decoration="underline" font-size="14.00">name</text>
<polygon fill="none" stroke="black" points="271.5,-595.5 271.5,-620.5 464.5,-620.5 464.5,-595.5 271.5,-595.5"/>
<text text-anchor="start" x="276.5" y="-604.3" font-family="Helvetica,sans-Serif" font-size="14.00">timeout</text>
</g>
<!-- task_pool&#45;&#45;task_timeout_timers -->
<g id="edge6" class="edge">
<title>task_pool&#45;&#45;task_timeout_timers</title>
<path fill="none" stroke="#7f7f7f" stroke-dasharray="5,2" d="M142.3,-790.76C171.71,-765.51 209.12,-735.25 245,-711.5 250.77,-707.68 256.78,-703.91 262.92,-700.22"/>
<text text-anchor="start" x="221.92" y="-689.02" font-family="Times,serif" font-size="14.00">{0,1}</text>
<text text-anchor="start" x="142.3" y="-779.56" font-family="Times,serif" font-size="14.00">{0,1}</text>
</g>
<!-- task_prerequisites -->
<g id="node11" class="node">
<title>task_prerequisites</title>
<polygon fill="none" stroke="black" points="279.5,-2021.5 279.5,-2049.5 455.5,-2049.5 455.5,-2021.5 279.5,-2021.5"/>
<text text-anchor="start" x="284.5" y="-2032.7" font-family="Helvetica,sans-Serif" font-weight="bold" font-size="16.00">task_prerequisites</text>
<polygon fill="none" stroke="black" points="279.5,-1996.5 279.5,-2021.5 455.5,-2021.5 455.5,-1996.5 279.5,-1996.5"/>
<text text-anchor="start" x="284.5" y="-2006.3" font-family="Helvetica,sans-Serif" text-decoration="underline" font-size="14.00">cycle</text>
<polygon fill="none" stroke="black" points="279.5,-1971.5 279.5,-1996.5 455.5,-1996.5 455.5,-1971.5 279.5,-1971.5"/>
<text text-anchor="start" x="284.5" y="-1981.3" font-family="Helvetica,sans-Serif" text-decoration="underline" font-size="14.00">name</text>
<polygon fill="none" stroke="black" points="279.5,-1946.5 279.5,-1971.5 455.5,-1971.5 455.5,-1946.5 279.5,-1946.5"/>
<text text-anchor="start" x="284.5" y="-1956.3" font-family="Helvetica,sans-Serif" text-decoration="underline" font-size="14.00">prereq_name</text>
<polygon fill="none" stroke="black" points="279.5,-1921.5 279.5,-1946.5 455.5,-1946.5 455.5,-1921.5 279.5,-1921.5"/>
<text text-anchor="start" x="284.5" y="-1931.3" font-family="Helvetica,sans-Serif" text-decoration="underline" font-size="14.00">prereq_cycle</text>
<polygon fill="none" stroke="black" points="279.5,-1896.5 279.5,-1921.5 455.5,-1921.5 455.5,-1896.5 279.5,-1896.5"/>
<text text-anchor="start" x="284.5" y="-1906.3" font-family="Helvetica,sans-Serif" text-decoration="underline" font-size="14.00">prereq_output</text>
<polygon fill="none" stroke="black" points="279.5,-1871.5 279.5,-1896.5 455.5,-1896.5 455.5,-1871.5 279.5,-1871.5"/>
<text text-anchor="start" x="284.5" y="-1880.3" font-family="Helvetica,sans-Serif" font-size="14.00">satisfied</text>
</g>
<!-- task_states -->
<g id="node12" class="node">
<title>task_states</title>
<polygon fill="none" stroke="black" points="30,-1671.5 30,-1699.5 143,-1699.5 143,-1671.5 30,-1671.5"/>
<text text-anchor="start" x="35" y="-1682.7" font-family="Helvetica,sans-Serif" font-weight="bold" font-size="16.00">task_states</text>
<polygon fill="none" stroke="black" points="30,-1646.5 30,-1671.5 143,-1671.5 143,-1646.5 30,-1646.5"/>
<text text-anchor="start" x="35" y="-1656.3" font-family="Helvetica,sans-Serif" text-decoration="underline" font-size="14.00">name</text>
<polygon fill="none" stroke="black" points="30,-1621.5 30,-1646.5 143,-1646.5 143,-1621.5 30,-1621.5"/>
<text text-anchor="start" x="35" y="-1631.3" font-family="Helvetica,sans-Serif" text-decoration="underline" font-size="14.00">cycle</text>
<polygon fill="none" stroke="black" points="30,-1596.5 30,-1621.5 143,-1621.5 143,-1596.5 30,-1596.5"/>
<text text-anchor="start" x="35" y="-1606.3" font-family="Helvetica,sans-Serif" text-decoration="underline" font-size="14.00">flow_label</text>
<polygon fill="none" stroke="black" points="30,-1571.5 30,-1596.5 143,-1596.5 143,-1571.5 30,-1571.5"/>
<text text-anchor="start" x="35" y="-1580.3" font-family="Helvetica,sans-Serif" font-size="14.00">time_created</text>
<polygon fill="none" stroke="black" points="30,-1546.5 30,-1571.5 143,-1571.5 143,-1546.5 30,-1546.5"/>
<text text-anchor="start" x="35" y="-1555.3" font-family="Helvetica,sans-Serif" font-size="14.00">time_updated</text>
<polygon fill="none" stroke="black" points="30,-1521.5 30,-1546.5 143,-1546.5 143,-1521.5 30,-1521.5"/>
<text text-anchor="start" x="35" y="-1530.3" font-family="Helvetica,sans-Serif" font-size="14.00">submit_num</text>
<polygon fill="none" stroke="black" points="30,-1496.5 30,-1521.5 143,-1521.5 143,-1496.5 30,-1496.5"/>
<text text-anchor="start" x="35" y="-1505.3" font-family="Helvetica,sans-Serif" font-size="14.00">status</text>
</g>
<!-- task_states&#45;&#45;task_events -->
<g id="edge1" class="edge">
<title>task_states&#45;&#45;task_events</title>
<path fill="none" stroke="#7f7f7f" stroke-dasharray="5,2" d="M150.77,-1634.55C195.56,-1659.87 255.31,-1693.65 300.57,-1719.23"/>
<text text-anchor="start" x="259.57" y="-1708.03" font-family="Times,serif" font-size="14.00">{0,1}</text>
<text text-anchor="start" x="150.77" y="-1623.35" font-family="Times,serif" font-size="14.00">0..N</text>
</g>
<!-- task_states&#45;&#45;task_jobs -->
<g id="edge2" class="edge">
<title>task_states&#45;&#45;task_jobs</title>
<path fill="none" stroke="#7f7f7f" stroke-dasharray="5,2" d="M150.77,-1562.22C192.74,-1538.35 247.85,-1507 291.86,-1481.96"/>
<text text-anchor="start" x="250.86" y="-1470.76" font-family="Times,serif" font-size="14.00">{0,1}</text>
<text text-anchor="start" x="150.77" y="-1551.02" font-family="Times,serif" font-size="14.00">0..N</text>
</g>
<!-- workflow_params -->
<g id="node14" class="node">
<title>workflow_params</title>
<polygon fill="none" stroke="black" points="283.5,-2125.5 283.5,-2153.5 452.5,-2153.5 452.5,-2125.5 283.5,-2125.5"/>
<text text-anchor="start" x="288.5" y="-2136.7" font-family="Helvetica,sans-Serif" font-weight="bold" font-size="16.00">workflow_params</text>
<polygon fill="none" stroke="black" points="283.5,-2100.5 283.5,-2125.5 452.5,-2125.5 452.5,-2100.5 283.5,-2100.5"/>
<text text-anchor="start" x="288.5" y="-2110.3" font-family="Helvetica,sans-Serif" text-decoration="underline" font-size="14.00">key</text>
<polygon fill="none" stroke="black" points="283.5,-2075.5 283.5,-2100.5 452.5,-2100.5 452.5,-2075.5 283.5,-2075.5"/>
<text text-anchor="start" x="288.5" y="-2084.3" font-family="Helvetica,sans-Serif" font-size="14.00">value</text>
</g>
<!-- workflow_template_vars -->
<g id="node15" class="node">
<title>workflow_template_vars</title>
<polygon fill="none" stroke="black" points="253.5,-2229.5 253.5,-2257.5 482.5,-2257.5 482.5,-2229.5 253.5,-2229.5"/>
<text text-anchor="start" x="258.5" y="-2240.7" font-family="Helvetica,sans-Serif" font-weight="bold" font-size="16.00">workflow_template_vars</text>
<polygon fill="none" stroke="black" points="253.5,-2204.5 253.5,-2229.5 482.5,-2229.5 482.5,-2204.5 253.5,-2204.5"/>
<text text-anchor="start" x="258.5" y="-2214.3" font-family="Helvetica,sans-Serif" text-decoration="underline" font-size="14.00">key</text>
<polygon fill="none" stroke="black" points="253.5,-2179.5 253.5,-2204.5 482.5,-2204.5 482.5,-2179.5 253.5,-2179.5"/>
<text text-anchor="start" x="258.5" y="-2188.3" font-family="Helvetica,sans-Serif" font-size="14.00">value</text>
</g>
<!-- xtriggers -->
<g id="node16" class="node">
<title>xtriggers</title>
<polygon fill="none" stroke="black" points="278.5,-2533.5 278.5,-2561.5 456.5,-2561.5 456.5,-2533.5 278.5,-2533.5"/>
<text text-anchor="start" x="326" y="-2544.7" font-family="Helvetica,sans-Serif" font-weight="bold" font-size="16.00">xtriggers</text>
<polygon fill="none" stroke="black" points="278.5,-2508.5 278.5,-2533.5 456.5,-2533.5 456.5,-2508.5 278.5,-2508.5"/>
<text text-anchor="start" x="283.5" y="-2518.3" font-family="Helvetica,sans-Serif" text-decoration="underline" font-size="14.00">signature</text>
<polygon fill="none" stroke="black" points="278.5,-2483.5 278.5,-2508.5 456.5,-2508.5 456.5,-2483.5 278.5,-2483.5"/>
<text text-anchor="start" x="283.5" y="-2492.3" font-family="Helvetica,sans-Serif" font-size="14.00">results</text>
<polygon fill="none" stroke="black" points="278.5,-2458.5 278.5,-2483.5 456.5,-2483.5 456.5,-2458.5 278.5,-2458.5"/>
<text text-anchor="start" x="283.5" y="-2467.3" font-family="Helvetica,sans-Serif" font-size="14.00">absolute_outputs</text>
<polygon fill="none" stroke="black" points="278.5,-2433.5 278.5,-2458.5 456.5,-2458.5 456.5,-2433.5 278.5,-2433.5"/>
<text text-anchor="start" x="283.5" y="-2442.3" font-family="Helvetica,sans-Serif" font-size="14.00">broadcast_events</text>
<polygon fill="none" stroke="black" points="278.5,-2408.5 278.5,-2433.5 456.5,-2433.5 456.5,-2408.5 278.5,-2408.5"/>
<text text-anchor="start" x="283.5" y="-2417.3" font-family="Helvetica,sans-Serif" font-size="14.00">broadcast_states</text>
<polygon fill="none" stroke="black" points="278.5,-2383.5 278.5,-2408.5 456.5,-2408.5 456.5,-2383.5 278.5,-2383.5"/>
<text text-anchor="start" x="283.5" y="-2392.3" font-family="Helvetica,sans-Serif" font-size="14.00">inheritance</text>
<polygon fill="none" stroke="black" points="278.5,-2358.5 278.5,-2383.5 456.5,-2383.5 456.5,-2358.5 278.5,-2358.5"/>
<text text-anchor="start" x="283.5" y="-2367.3" font-family="Helvetica,sans-Serif" font-size="14.00">task_prerequisites</text>
<polygon fill="none" stroke="black" points="278.5,-2333.5 278.5,-2358.5 456.5,-2358.5 456.5,-2333.5 278.5,-2333.5"/>
<text text-anchor="start" x="283.5" y="-2342.3" font-family="Helvetica,sans-Serif" font-size="14.00">workflow_params</text>
<polygon fill="none" stroke="black" points="278.5,-2308.5 278.5,-2333.5 456.5,-2333.5 456.5,-2308.5 278.5,-2308.5"/>
<text text-anchor="start" x="283.5" y="-2317.3" font-family="Helvetica,sans-Serif" font-size="14.00">workflow_template_vars</text>
<polygon fill="none" stroke="black" points="278.5,-2283.5 278.5,-2308.5 456.5,-2308.5 456.5,-2283.5 278.5,-2283.5"/>
<text text-anchor="start" x="283.5" y="-2292.3" font-family="Helvetica,sans-Serif" font-size="14.00">xtriggers</text>
</g>
<!-- task_pool_checkpoints -->
<g id="node17" class="node">
<title>task_pool_checkpoints</title>
<text text-anchor="middle" x="86" y="-526.8" font-family="sans" font-size="14.00">task_pool_checkpoints</text>
</g>
<!-- task_pool_checkpoints&#45;&#45;inheritance -->
</g>
</svg>
