<?xml version="1.0" encoding="UTF-8" standalone="no"?>
<!DOCTYPE svg PUBLIC "-//W3C//DTD SVG 1.1//EN"
 "http://www.w3.org/Graphics/SVG/1.1/DTD/svg11.dtd">
<!-- Generated by graphviz version 2.40.1 (20161225.0304)
 -->
<!-- Title: example Pages: 1 -->
<svg width="81pt" height="504pt"
 viewBox="0.00 0.00 80.75 504.00" xmlns="http://www.w3.org/2000/svg" xmlns:xlink="http://www.w3.org/1999/xlink">
<g id="graph0" class="graph" transform="scale(.4864 .4864) rotate(0) translate(4 1032.1413)">
<title>example</title>
<polygon fill="transparent" stroke="transparent" points="-4,4 -4,-1032.1413 162,-1032.1413 162,4 -4,4"/>
<g id="clust1" class="cluster">
<title>cluster_1</title>
<polygon fill="transparent" stroke="#000000" stroke-dasharray="5,2" points="8,-658.1808 8,-1020.1413 150,-1020.1413 150,-658.1808 8,-658.1808"/>
<text text-anchor="middle" x="79" y="-1004.9413" font-family="sans" font-size="14.00" fill="#000000">1</text>
</g>
<g id="clust2" class="cluster">
<title>cluster_2</title>
<polygon fill="transparent" stroke="#000000" stroke-dasharray="5,2" points="8,-377.9605 8,-650.1808 150,-650.1808 150,-377.9605 8,-377.9605"/>
<text text-anchor="middle" x="79" y="-634.9808" font-family="sans" font-size="14.00" fill="#000000">2</text>
</g>
<g id="clust3" class="cluster">
<title>cluster_3</title>
<polygon fill="transparent" stroke="#000000" stroke-dasharray="5,2" points="8,-8 8,-369.9605 150,-369.9605 150,-8 8,-8"/>
<text text-anchor="middle" x="79" y="-354.7605" font-family="sans" font-size="14.00" fill="#000000">3</text>
</g>
<!-- a.1 -->
<g id="node1" class="node">
<title>a.1</title>
<ellipse fill="none" stroke="#000000" cx="115" cy="-962.2712" rx="27" ry="26.7407"/>
<text text-anchor="middle" x="115" y="-966.0712" font-family="sans" font-size="14.00" fill="#000000">a</text>
<text text-anchor="middle" x="115" y="-951.0712" font-family="sans" font-size="14.00" fill="#000000">1</text>
</g>
<!-- b.1 -->
<g id="node2" class="node">
<title>b.1</title>
<ellipse fill="none" stroke="#000000" cx="79" cy="-872.5311" rx="27" ry="26.7407"/>
<text text-anchor="middle" x="79" y="-876.3311" font-family="sans" font-size="14.00" fill="#000000">b</text>
<text text-anchor="middle" x="79" y="-861.3311" font-family="sans" font-size="14.00" fill="#000000">1</text>
</g>
<!-- a.1&#45;&gt;b.1 -->
<g id="edge1" class="edge">
<title>a.1&#45;&gt;b.1</title>
<path fill="none" stroke="#000000" d="M104.972,-937.2736C101.2196,-927.9198 96.8881,-917.1221 92.851,-907.0585"/>
<polygon fill="#000000" stroke="#000000" points="96.0707,-905.6838 89.0991,-897.7059 89.574,-908.2901 96.0707,-905.6838"/>
</g>
<!-- d.1 -->
<g id="node3" class="node">
<title>d.1</title>
<ellipse fill="none" stroke="#000000" cx="43" cy="-782.791" rx="27" ry="26.7407"/>
<text text-anchor="middle" x="43" y="-786.591" font-family="sans" font-size="14.00" fill="#000000">d</text>
<text text-anchor="middle" x="43" y="-771.591" font-family="sans" font-size="14.00" fill="#000000">1</text>
</g>
<!-- b.1&#45;&gt;d.1 -->
<g id="edge3" class="edge">
<title>b.1&#45;&gt;d.1</title>
<path fill="none" stroke="#000000" d="M68.972,-847.5335C65.2196,-838.1797 60.8881,-827.382 56.851,-817.3184"/>
<polygon fill="#000000" stroke="#000000" points="60.0707,-815.9437 53.0991,-807.9658 53.574,-818.55 60.0707,-815.9437"/>
</g>
<!-- f.1 -->
<g id="node4" class="node">
<title>f.1</title>
<ellipse fill="none" stroke="#000000" cx="115" cy="-782.791" rx="27" ry="26.7407"/>
<text text-anchor="middle" x="115" y="-786.591" font-family="sans" font-size="14.00" fill="#000000">f</text>
<text text-anchor="middle" x="115" y="-771.591" font-family="sans" font-size="14.00" fill="#000000">1</text>
</g>
<!-- b.1&#45;&gt;f.1 -->
<g id="edge2" class="edge">
<title>b.1&#45;&gt;f.1</title>
<path fill="none" stroke="#000000" d="M89.028,-847.5335C92.7804,-838.1797 97.1119,-827.382 101.149,-817.3184"/>
<polygon fill="#000000" stroke="#000000" points="104.426,-818.55 104.9009,-807.9658 97.9293,-815.9437 104.426,-818.55"/>
</g>
<!-- e.1 -->
<g id="node6" class="node">
<title>e.1</title>
<ellipse fill="none" stroke="#000000" cx="43" cy="-693.0509" rx="27" ry="26.7407"/>
<text text-anchor="middle" x="43" y="-696.8509" font-family="sans" font-size="14.00" fill="#000000">e</text>
<text text-anchor="middle" x="43" y="-681.8509" font-family="sans" font-size="14.00" fill="#000000">1</text>
</g>
<!-- d.1&#45;&gt;e.1 -->
<g id="edge13" class="edge">
<title>d.1&#45;&gt;e.1</title>
<path fill="none" stroke="#000000" d="M43,-755.866C43,-747.7911 43,-738.7878 43,-730.1769"/>
<polygon fill="#000000" stroke="#000000" points="46.5001,-729.9568 43,-719.9569 39.5001,-729.9569 46.5001,-729.9568"/>
</g>
<!-- c.2 -->
<g id="node11" class="node">
<title>c.2</title>
<ellipse fill="none" stroke="#000000" cx="115" cy="-592.3107" rx="27" ry="26.7407"/>
<text text-anchor="middle" x="115" y="-596.1107" font-family="sans" font-size="14.00" fill="#000000">c</text>
<text text-anchor="middle" x="115" y="-581.1107" font-family="sans" font-size="14.00" fill="#000000">2</text>
</g>
<!-- f.1&#45;&gt;c.2 -->
<g id="edge17" class="edge">
<title>f.1&#45;&gt;c.2</title>
<path fill="none" stroke="#000000" d="M115,-755.9038C115,-722.9558 115,-666.9403 115,-629.7814"/>
<polygon fill="#000000" stroke="#000000" points="118.5001,-629.3688 115,-619.3689 111.5001,-629.3689 118.5001,-629.3688"/>
</g>
<!-- c.1 -->
<g id="node5" class="node">
<title>c.1</title>
<ellipse fill="none" stroke="#000000" cx="43" cy="-962.2712" rx="27" ry="26.7407"/>
<text text-anchor="middle" x="43" y="-966.0712" font-family="sans" font-size="14.00" fill="#000000">c</text>
<text text-anchor="middle" x="43" y="-951.0712" font-family="sans" font-size="14.00" fill="#000000">1</text>
</g>
<!-- c.1&#45;&gt;b.1 -->
<g id="edge4" class="edge">
<title>c.1&#45;&gt;b.1</title>
<path fill="none" stroke="#000000" d="M53.028,-937.2736C56.7804,-927.9198 61.1119,-917.1221 65.149,-907.0585"/>
<polygon fill="#000000" stroke="#000000" points="68.426,-908.2901 68.9009,-897.7059 61.9293,-905.6838 68.426,-908.2901"/>
</g>
<!-- a.2 -->
<g id="node7" class="node">
<title>a.2</title>
<ellipse fill="none" stroke="#000000" cx="43" cy="-592.3107" rx="27" ry="26.7407"/>
<text text-anchor="middle" x="43" y="-596.1107" font-family="sans" font-size="14.00" fill="#000000">a</text>
<text text-anchor="middle" x="43" y="-581.1107" font-family="sans" font-size="14.00" fill="#000000">2</text>
</g>
<!-- e.1&#45;&gt;a.2 -->
<g id="edge14" class="edge">
<title>e.1&#45;&gt;a.2</title>
<path fill="none" stroke="#000000" d="M43,-666.0544C43,-654.8751 43,-641.7222 43,-629.6434"/>
<polygon fill="#000000" stroke="#000000" points="46.5001,-629.3817 43,-619.3818 39.5001,-629.3818 46.5001,-629.3817"/>
</g>
<!-- b.2 -->
<g id="node8" class="node">
<title>b.2</title>
<ellipse fill="none" stroke="#000000" cx="43" cy="-502.5706" rx="27" ry="26.7407"/>
<text text-anchor="middle" x="43" y="-506.3706" font-family="sans" font-size="14.00" fill="#000000">b</text>
<text text-anchor="middle" x="43" y="-491.3706" font-family="sans" font-size="14.00" fill="#000000">2</text>
</g>
<!-- a.2&#45;&gt;b.2 -->
<g id="edge5" class="edge">
<title>a.2&#45;&gt;b.2</title>
<path fill="none" stroke="#000000" d="M43,-565.3858C43,-557.3108 43,-548.3075 43,-539.6966"/>
<polygon fill="#000000" stroke="#000000" points="46.5001,-539.4766 43,-529.4766 39.5001,-539.4767 46.5001,-539.4766"/>
</g>
<!-- d.2 -->
<g id="node9" class="node">
<title>d.2</title>
<ellipse fill="none" stroke="#000000" cx="43" cy="-412.8305" rx="27" ry="26.7407"/>
<text text-anchor="middle" x="43" y="-416.6305" font-family="sans" font-size="14.00" fill="#000000">d</text>
<text text-anchor="middle" x="43" y="-401.6305" font-family="sans" font-size="14.00" fill="#000000">2</text>
</g>
<!-- b.2&#45;&gt;d.2 -->
<g id="edge7" class="edge">
<title>b.2&#45;&gt;d.2</title>
<path fill="none" stroke="#000000" d="M43,-475.6456C43,-467.5707 43,-458.5674 43,-449.9565"/>
<polygon fill="#000000" stroke="#000000" points="46.5001,-449.7365 43,-439.7365 39.5001,-449.7365 46.5001,-449.7365"/>
</g>
<!-- f.2 -->
<g id="node10" class="node">
<title>f.2</title>
<ellipse fill="none" stroke="#000000" cx="115" cy="-412.8305" rx="27" ry="26.7407"/>
<text text-anchor="middle" x="115" y="-416.6305" font-family="sans" font-size="14.00" fill="#000000">f</text>
<text text-anchor="middle" x="115" y="-401.6305" font-family="sans" font-size="14.00" fill="#000000">2</text>
</g>
<!-- b.2&#45;&gt;f.2 -->
<g id="edge6" class="edge">
<title>b.2&#45;&gt;f.2</title>
<path fill="none" stroke="#000000" d="M60.063,-481.3035C69.478,-469.5687 81.3088,-454.8229 91.5779,-442.0236"/>
<polygon fill="#000000" stroke="#000000" points="94.5314,-443.9352 98.0595,-433.945 89.0715,-439.5546 94.5314,-443.9352"/>
</g>
<!-- a.3 -->
<g id="node12" class="node">
<title>a.3</title>
<ellipse fill="none" stroke="#000000" cx="43" cy="-312.0904" rx="27" ry="26.7407"/>
<text text-anchor="middle" x="43" y="-315.8904" font-family="sans" font-size="14.00" fill="#000000">a</text>
<text text-anchor="middle" x="43" y="-300.8904" font-family="sans" font-size="14.00" fill="#000000">3</text>
</g>
<!-- d.2&#45;&gt;a.3 -->
<g id="edge16" class="edge">
<title>d.2&#45;&gt;a.3</title>
<path fill="none" stroke="#000000" d="M43,-385.834C43,-374.6548 43,-361.5018 43,-349.423"/>
<polygon fill="#000000" stroke="#000000" points="46.5001,-349.1614 43,-339.1614 39.5001,-349.1615 46.5001,-349.1614"/>
</g>
<!-- c.3 -->
<g id="node16" class="node">
<title>c.3</title>
<ellipse fill="none" stroke="#000000" cx="115" cy="-312.0904" rx="27" ry="26.7407"/>
<text text-anchor="middle" x="115" y="-315.8904" font-family="sans" font-size="14.00" fill="#000000">c</text>
<text text-anchor="middle" x="115" y="-300.8904" font-family="sans" font-size="14.00" fill="#000000">3</text>
</g>
<!-- f.2&#45;&gt;c.3 -->
<g id="edge18" class="edge">
<title>f.2&#45;&gt;c.3</title>
<path fill="none" stroke="#000000" d="M115,-385.834C115,-374.6548 115,-361.5018 115,-349.423"/>
<polygon fill="#000000" stroke="#000000" points="118.5001,-349.1614 115,-339.1614 111.5001,-349.1615 118.5001,-349.1614"/>
</g>
<!-- c.2&#45;&gt;b.2 -->
<g id="edge8" class="edge">
<title>c.2&#45;&gt;b.2</title>
<path fill="none" stroke="#000000" d="M97.937,-571.0436C88.522,-559.3088 76.6912,-544.563 66.4221,-531.7638"/>
<polygon fill="#000000" stroke="#000000" points="68.9285,-529.2947 59.9405,-523.6851 63.4686,-533.6753 68.9285,-529.2947"/>
</g>
<!-- b.3 -->
<g id="node13" class="node">
<title>b.3</title>
<ellipse fill="none" stroke="#000000" cx="79" cy="-222.3503" rx="27" ry="26.7407"/>
<text text-anchor="middle" x="79" y="-226.1503" font-family="sans" font-size="14.00" fill="#000000">b</text>
<text text-anchor="middle" x="79" y="-211.1503" font-family="sans" font-size="14.00" fill="#000000">3</text>
</g>
<!-- a.3&#45;&gt;b.3 -->
<g id="edge9" class="edge">
<title>a.3&#45;&gt;b.3</title>
<path fill="none" stroke="#000000" d="M53.028,-287.0928C56.7804,-277.739 61.1119,-266.9413 65.149,-256.8777"/>
<polygon fill="#000000" stroke="#000000" points="68.426,-258.1093 68.9009,-247.5251 61.9293,-255.503 68.426,-258.1093"/>
</g>
<!-- d.3 -->
<g id="node14" class="node">
<title>d.3</title>
<ellipse fill="none" stroke="#000000" cx="43" cy="-132.6102" rx="27" ry="26.7407"/>
<text text-anchor="middle" x="43" y="-136.4102" font-family="sans" font-size="14.00" fill="#000000">d</text>
<text text-anchor="middle" x="43" y="-121.4102" font-family="sans" font-size="14.00" fill="#000000">3</text>
</g>
<!-- b.3&#45;&gt;d.3 -->
<g id="edge11" class="edge">
<title>b.3&#45;&gt;d.3</title>
<path fill="none" stroke="#000000" d="M68.972,-197.3527C65.2196,-187.9989 60.8881,-177.2012 56.851,-167.1376"/>
<polygon fill="#000000" stroke="#000000" points="60.0707,-165.7629 53.0991,-157.785 53.574,-168.3692 60.0707,-165.7629"/>
</g>
<!-- f.3 -->
<g id="node15" class="node">
<title>f.3</title>
<ellipse fill="none" stroke="#000000" cx="115" cy="-132.6102" rx="27" ry="26.7407"/>
<text text-anchor="middle" x="115" y="-136.4102" font-family="sans" font-size="14.00" fill="#000000">f</text>
<text text-anchor="middle" x="115" y="-121.4102" font-family="sans" font-size="14.00" fill="#000000">3</text>
</g>
<!-- b.3&#45;&gt;f.3 -->
<g id="edge10" class="edge">
<title>b.3&#45;&gt;f.3</title>
<path fill="none" stroke="#000000" d="M89.028,-197.3527C92.7804,-187.9989 97.1119,-177.2012 101.149,-167.1376"/>
<polygon fill="#000000" stroke="#000000" points="104.426,-168.3692 104.9009,-157.785 97.9293,-165.7629 104.426,-168.3692"/>
</g>
<!-- e.3 -->
<g id="node17" class="node">
<title>e.3</title>
<ellipse fill="none" stroke="#000000" cx="43" cy="-42.8701" rx="27" ry="26.7407"/>
<text text-anchor="middle" x="43" y="-46.6701" font-family="sans" font-size="14.00" fill="#000000">e</text>
<text text-anchor="middle" x="43" y="-31.6701" font-family="sans" font-size="14.00" fill="#000000">3</text>
</g>
<!-- d.3&#45;&gt;e.3 -->
<g id="edge15" class="edge">
<title>d.3&#45;&gt;e.3</title>
<path fill="none" stroke="#000000" d="M43,-105.6852C43,-97.6102 43,-88.607 43,-79.9961"/>
<polygon fill="#000000" stroke="#000000" points="46.5001,-79.776 43,-69.776 39.5001,-79.7761 46.5001,-79.776"/>
</g>
<!-- c.3&#45;&gt;b.3 -->
<g id="edge12" class="edge">
<title>c.3&#45;&gt;b.3</title>
<path fill="none" stroke="#000000" d="M104.972,-287.0928C101.2196,-277.739 96.8881,-266.9413 92.851,-256.8777"/>
<polygon fill="#000000" stroke="#000000" points="96.0707,-255.503 89.0991,-247.5251 89.574,-258.1093 96.0707,-255.503"/>
</g>
</g>
</svg>
