<?xml version="1.0" encoding="UTF-8" standalone="no"?>
<!DOCTYPE svg PUBLIC "-//W3C//DTD SVG 1.1//EN"
 "http://www.w3.org/Graphics/SVG/1.1/DTD/svg11.dtd">
<!-- Generated by graphviz version 2.43.0 (0)
 -->
<!-- Title: example Pages: 1 -->
<svg width="1228pt" height="213pt"
 viewBox="0.00 0.00 1227.94 213.00" xmlns="http://www.w3.org/2000/svg" xmlns:xlink="http://www.w3.org/1999/xlink">
<g id="graph0" class="graph" transform="scale(1 1) rotate(0) translate(4 209)">
<title>example</title>
<polygon fill="transparent" stroke="transparent" points="-4,4 -4,-209 1223.94,-209 1223.94,4 -4,4"/>
<g id="clust1" class="cluster">
<title>cluster_legend</title>
<polygon fill="transparent" stroke="black" stroke-dasharray="5,2" points="8,-8 8,-83 396.38,-83 396.38,-8 8,-8"/>
<text text-anchor="middle" x="202.19" y="-67.8" font-family="sans" font-size="14.00">Legend</text>
</g>
<g id="clust2" class="cluster">
<title>cluster_diagram</title>
</g>
<!-- user defined script -->
<g id="node1" class="node">
<title>user defined script</title>
<ellipse fill="none" stroke="black" cx="112.19" cy="-34" rx="96.38" ry="18"/>
<text text-anchor="middle" x="112.19" y="-30.3" font-family="sans" font-size="14.00">user defined script</text>
</g>
<!-- cylc defined script -->
<g id="node2" class="node">
<title>cylc defined script</title>
<polygon fill="none" stroke="black" points="388.38,-52 244.38,-52 244.38,-16 388.38,-16 388.38,-52"/>
<text text-anchor="middle" x="316.38" y="-30.3" font-family="sans" font-size="14.00">cylc defined script</text>
</g>
<!-- user defined script&#45;&gt;cylc defined script -->
<!-- cylc&#45;env -->
<g id="node3" class="node">
<title>cylc&#45;env</title>
<polygon fill="none" stroke="black" points="353.38,-162 279.38,-162 279.38,-126 353.38,-126 353.38,-162"/>
<text text-anchor="middle" x="316.38" y="-140.3" font-family="sans" font-size="14.00">cylc&#45;env</text>
</g>
<!-- env&#45;script -->
<g id="node6" class="node">
<title>env&#45;script</title>
<ellipse fill="none" stroke="black" cx="480.28" cy="-144" rx="55.79" ry="18"/>
<text text-anchor="middle" x="480.28" y="-140.3" font-family="sans" font-size="14.00">env&#45;script</text>
</g>
<!-- cylc&#45;env&#45;&gt;env&#45;script -->
<g id="edge3" class="edge">
<title>cylc&#45;env&#45;&gt;env&#45;script</title>
<path fill="none" stroke="black" d="M353.72,-144C371.5,-144 393.46,-144 414.02,-144"/>
<polygon fill="black" stroke="black" points="414.3,-147.5 424.3,-144 414.3,-140.5 414.3,-147.5"/>
</g>
<!-- user&#45;env -->
<g id="node4" class="node">
<title>user&#45;env</title>
<polygon fill="none" stroke="black" points="649.17,-162 572.17,-162 572.17,-126 649.17,-126 649.17,-162"/>
<text text-anchor="middle" x="610.67" y="-140.3" font-family="sans" font-size="14.00">user&#45;env</text>
</g>
<!-- pre&#45;script -->
<g id="node7" class="node">
<title>pre&#45;script</title>
<ellipse fill="none" stroke="black" cx="739.12" cy="-144" rx="53.89" ry="18"/>
<text text-anchor="middle" x="739.12" y="-140.3" font-family="sans" font-size="14.00">pre&#45;script</text>
</g>
<!-- user&#45;env&#45;&gt;pre&#45;script -->
<g id="edge5" class="edge">
<title>user&#45;env&#45;&gt;pre&#45;script</title>
<path fill="none" stroke="black" d="M649.27,-144C657.33,-144 666.05,-144 674.78,-144"/>
<polygon fill="black" stroke="black" points="674.99,-147.5 684.99,-144 674.99,-140.5 674.99,-147.5"/>
</g>
<!-- init&#45;script -->
<g id="node5" class="node">
<title>init&#45;script</title>
<ellipse fill="none" stroke="black" cx="112.19" cy="-144" rx="53.89" ry="18"/>
<text text-anchor="middle" x="112.19" y="-140.3" font-family="sans" font-size="14.00">init&#45;script</text>
</g>
<!-- init&#45;script&#45;&gt;cylc&#45;env -->
<g id="edge2" class="edge">
<title>init&#45;script&#45;&gt;cylc&#45;env</title>
<path fill="none" stroke="black" d="M166.31,-144C198.13,-144 238.2,-144 268.78,-144"/>
<polygon fill="black" stroke="black" points="269.18,-147.5 279.18,-144 269.18,-140.5 269.18,-147.5"/>
</g>
<!-- env&#45;script&#45;&gt;user&#45;env -->
<g id="edge4" class="edge">
<title>env&#45;script&#45;&gt;user&#45;env</title>
<path fill="none" stroke="black" d="M536.47,-144C544.89,-144 553.51,-144 561.75,-144"/>
<polygon fill="black" stroke="black" points="561.93,-147.5 571.93,-144 561.93,-140.5 561.93,-147.5"/>
</g>
<!-- script -->
<g id="node8" class="node">
<title>script</title>
<ellipse fill="none" stroke="black" cx="865.46" cy="-144" rx="36.29" ry="18"/>
<text text-anchor="middle" x="865.46" y="-140.3" font-family="sans" font-size="14.00">script</text>
</g>
<!-- pre&#45;script&#45;&gt;script -->
<g id="edge6" class="edge">
<title>pre&#45;script&#45;&gt;script</title>
<path fill="none" stroke="black" d="M793.21,-144C801.66,-144 810.33,-144 818.6,-144"/>
<polygon fill="black" stroke="black" points="818.79,-147.5 828.79,-144 818.79,-140.5 818.79,-147.5"/>
</g>
<!-- post&#45;script -->
<g id="node9" class="node">
<title>post&#45;script</title>
<ellipse fill="none" stroke="black" cx="997" cy="-144" rx="59.29" ry="18"/>
<text text-anchor="middle" x="997" y="-140.3" font-family="sans" font-size="14.00">post&#45;script</text>
</g>
<!-- script&#45;&gt;post&#45;script -->
<g id="edge7" class="edge">
<title>script&#45;&gt;post&#45;script</title>
<path fill="none" stroke="black" d="M901.86,-144C909.91,-144 918.74,-144 927.65,-144"/>
<polygon fill="black" stroke="black" points="927.72,-147.5 937.72,-144 927.72,-140.5 927.72,-147.5"/>
</g>
<!-- err&#45;script -->
<g id="node10" class="node">
<title>err&#45;script</title>
<ellipse fill="none" stroke="black" cx="1148.04" cy="-117" rx="51.19" ry="18"/>
<text text-anchor="middle" x="1148.04" y="-113.3" font-family="sans" font-size="14.00">err&#45;script</text>
</g>
<!-- post&#45;script&#45;&gt;err&#45;script -->
<g id="edge8" class="edge">
<title>post&#45;script&#45;&gt;err&#45;script</title>
<path fill="none" stroke="black" d="M1048.46,-134.86C1062.46,-132.32 1077.73,-129.56 1091.97,-126.98"/>
<polygon fill="black" stroke="black" points="1092.92,-130.36 1102.14,-125.14 1091.67,-123.47 1092.92,-130.36"/>
</g>
<!-- exit&#45;script -->
<g id="node11" class="node">
<title>exit&#45;script</title>
<ellipse fill="none" stroke="black" cx="1148.04" cy="-171" rx="55.79" ry="18"/>
<text text-anchor="middle" x="1148.04" y="-167.3" font-family="sans" font-size="14.00">exit&#45;script</text>
</g>
<!-- post&#45;script&#45;&gt;exit&#45;script -->
<g id="edge9" class="edge">
<title>post&#45;script&#45;&gt;exit&#45;script</title>
<path fill="none" stroke="black" d="M1048.46,-153.14C1061.45,-155.49 1075.53,-158.04 1088.87,-160.46"/>
<polygon fill="black" stroke="black" points="1088.44,-163.94 1098.9,-162.28 1089.69,-157.05 1088.44,-163.94"/>
</g>
</g>
</svg>
