<?xml version="1.0" encoding="UTF-8" standalone="no"?>
<!DOCTYPE svg PUBLIC "-//W3C//DTD SVG 1.1//EN"
 "http://www.w3.org/Graphics/SVG/1.1/DTD/svg11.dtd">
<!-- Generated by graphviz version 2.43.0 (0)
 -->
<!-- Title: example Pages: 1 -->
<svg width="504pt" height="179pt"
 viewBox="0.00 0.00 504.00 179.45" xmlns="http://www.w3.org/2000/svg" xmlns:xlink="http://www.w3.org/1999/xlink">
<g id="graph0" class="graph" transform="scale(2.15 2.15) rotate(0) translate(4 381.96)">
<title>example</title>
<polygon fill="transparent" stroke="transparent" points="-4,4 -4,-381.96 1080,-381.96 1080,4 -4,4"/>
<g id="clust1" class="cluster">
<title>cluster_1</title>
<polygon fill="transparent" stroke="black" stroke-dasharray="5,2" points="8,-8 8,-369.96 356,-369.96 356,-8 8,-8"/>
<text text-anchor="middle" x="182" y="-354.76" font-family="sans" font-size="14.00">1</text>
</g>
<g id="clust2" class="cluster">
<title>cluster_2</title>
<polygon fill="transparent" stroke="black" stroke-dasharray="5,2" points="364,-8 364,-369.96 712,-369.96 712,-8 364,-8"/>
<text text-anchor="middle" x="538" y="-354.76" font-family="sans" font-size="14.00">2</text>
</g>
<g id="clust3" class="cluster">
<title>cluster_3</title>
<polygon fill="transparent" stroke="black" stroke-dasharray="5,2" points="720,-8 720,-369.96 1068,-369.96 1068,-8 720,-8"/>
<text text-anchor="middle" x="894" y="-354.76" font-family="sans" font-size="14.00">3</text>
</g>
<!-- pur.1 -->
<g id="node1" class="node">
<title>pur.1</title>
<ellipse fill="none" stroke="black" cx="257" cy="-312.09" rx="90.52" ry="26.74"/>
<text text-anchor="middle" x="257" y="-315.89" font-family="sans" font-size="14.00">buy_ingredients</text>
<text text-anchor="middle" x="257" y="-300.89" font-family="sans" font-size="14.00">1</text>
</g>
<!-- mak.1 -->
<g id="node2" class="node">
<title>mak.1</title>
<ellipse fill="none" stroke="black" cx="274" cy="-222.35" rx="74.49" ry="26.74"/>
<text text-anchor="middle" x="274" y="-226.15" font-family="sans" font-size="14.00">make_dough</text>
<text text-anchor="middle" x="274" y="-211.15" font-family="sans" font-size="14.00">1</text>
</g>
<!-- pur.1&#45;&gt;mak.1 -->
<g id="edge1" class="edge">
<title>pur.1&#45;&gt;mak.1</title>
<path fill="none" stroke="black" d="M262.01,-285.24C263.59,-277.1 265.36,-267.96 267.04,-259.26"/>
<polygon fill="black" stroke="black" points="270.5,-259.8 268.97,-249.32 263.63,-258.47 270.5,-259.8"/>
</g>
<!-- bak.1 -->
<g id="node3" class="node">
<title>bak.1</title>
<ellipse fill="none" stroke="black" cx="166" cy="-132.61" rx="67.76" ry="26.74"/>
<text text-anchor="middle" x="166" y="-136.41" font-family="sans" font-size="14.00">bake_bread</text>
<text text-anchor="middle" x="166" y="-121.41" font-family="sans" font-size="14.00">1</text>
</g>
<!-- mak.1&#45;&gt;bak.1 -->
<g id="edge2" class="edge">
<title>mak.1&#45;&gt;bak.1</title>
<path fill="none" stroke="black" d="M244.77,-197.61C231.82,-187.09 216.44,-174.59 202.73,-163.45"/>
<polygon fill="black" stroke="black" points="204.84,-160.66 194.88,-157.07 200.43,-166.09 204.84,-160.66"/>
</g>
<!-- sel.1 -->
<g id="node4" class="node">
<title>sel.1</title>
<ellipse fill="none" stroke="black" cx="88" cy="-42.87" rx="60.62" ry="26.74"/>
<text text-anchor="middle" x="88" y="-46.67" font-family="sans" font-size="14.00">sell_bread</text>
<text text-anchor="middle" x="88" y="-31.67" font-family="sans" font-size="14.00">1</text>
</g>
<!-- bak.1&#45;&gt;sel.1 -->
<g id="edge3" class="edge">
<title>bak.1&#45;&gt;sel.1</title>
<path fill="none" stroke="black" d="M143.86,-106.7C135.31,-97.09 125.44,-85.98 116.38,-75.8"/>
<polygon fill="black" stroke="black" points="118.92,-73.38 109.66,-68.23 113.69,-78.03 118.92,-73.38"/>
</g>
<!-- cle.1 -->
<g id="node5" class="node">
<title>cle.1</title>
<ellipse fill="none" stroke="black" cx="233" cy="-42.87" rx="66.44" ry="26.74"/>
<text text-anchor="middle" x="233" y="-46.67" font-family="sans" font-size="14.00">clean_oven</text>
<text text-anchor="middle" x="233" y="-31.67" font-family="sans" font-size="14.00">1</text>
</g>
<!-- bak.1&#45;&gt;cle.1 -->
<g id="edge5" class="edge">
<title>bak.1&#45;&gt;cle.1</title>
<path fill="none" stroke="black" d="M185.02,-106.7C192.09,-97.44 200.23,-86.78 207.77,-76.91"/>
<polygon fill="black" stroke="black" points="210.64,-78.91 213.93,-68.84 205.08,-74.66 210.64,-78.91"/>
</g>
<!-- pre.1 -->
<g id="node6" class="node">
<title>pre.1</title>
<ellipse fill="none" stroke="black" cx="99" cy="-222.35" rx="82.96" ry="26.74"/>
<text text-anchor="middle" x="99" y="-226.15" font-family="sans" font-size="14.00">pre_heat_oven</text>
<text text-anchor="middle" x="99" y="-211.15" font-family="sans" font-size="14.00">1</text>
</g>
<!-- pre.1&#45;&gt;bak.1 -->
<g id="edge4" class="edge">
<title>pre.1&#45;&gt;bak.1</title>
<path fill="none" stroke="black" d="M118.38,-195.97C125.31,-186.89 133.24,-176.51 140.6,-166.87"/>
<polygon fill="black" stroke="black" points="143.61,-168.7 146.9,-158.63 138.04,-164.45 143.61,-168.7"/>
</g>
<!-- pur.2 -->
<g id="node7" class="node">
<title>pur.2</title>
<ellipse fill="none" stroke="black" cx="613" cy="-312.09" rx="90.52" ry="26.74"/>
<text text-anchor="middle" x="613" y="-315.89" font-family="sans" font-size="14.00">buy_ingredients</text>
<text text-anchor="middle" x="613" y="-300.89" font-family="sans" font-size="14.00">2</text>
</g>
<!-- mak.2 -->
<g id="node8" class="node">
<title>mak.2</title>
<ellipse fill="none" stroke="black" cx="630" cy="-222.35" rx="74.49" ry="26.74"/>
<text text-anchor="middle" x="630" y="-226.15" font-family="sans" font-size="14.00">make_dough</text>
<text text-anchor="middle" x="630" y="-211.15" font-family="sans" font-size="14.00">2</text>
</g>
<!-- pur.2&#45;&gt;mak.2 -->
<g id="edge6" class="edge">
<title>pur.2&#45;&gt;mak.2</title>
<path fill="none" stroke="black" d="M618.01,-285.24C619.59,-277.1 621.36,-267.96 623.04,-259.26"/>
<polygon fill="black" stroke="black" points="626.5,-259.8 624.97,-249.32 619.63,-258.47 626.5,-259.8"/>
</g>
<!-- bak.2 -->
<g id="node9" class="node">
<title>bak.2</title>
<ellipse fill="none" stroke="black" cx="522" cy="-132.61" rx="67.76" ry="26.74"/>
<text text-anchor="middle" x="522" y="-136.41" font-family="sans" font-size="14.00">bake_bread</text>
<text text-anchor="middle" x="522" y="-121.41" font-family="sans" font-size="14.00">2</text>
</g>
<!-- mak.2&#45;&gt;bak.2 -->
<g id="edge7" class="edge">
<title>mak.2&#45;&gt;bak.2</title>
<path fill="none" stroke="black" d="M600.77,-197.61C587.82,-187.09 572.44,-174.59 558.73,-163.45"/>
<polygon fill="black" stroke="black" points="560.84,-160.66 550.88,-157.07 556.43,-166.09 560.84,-160.66"/>
</g>
<!-- sel.2 -->
<g id="node10" class="node">
<title>sel.2</title>
<ellipse fill="none" stroke="black" cx="444" cy="-42.87" rx="60.62" ry="26.74"/>
<text text-anchor="middle" x="444" y="-46.67" font-family="sans" font-size="14.00">sell_bread</text>
<text text-anchor="middle" x="444" y="-31.67" font-family="sans" font-size="14.00">2</text>
</g>
<!-- bak.2&#45;&gt;sel.2 -->
<g id="edge8" class="edge">
<title>bak.2&#45;&gt;sel.2</title>
<path fill="none" stroke="black" d="M499.86,-106.7C491.31,-97.09 481.44,-85.98 472.38,-75.8"/>
<polygon fill="black" stroke="black" points="474.92,-73.38 465.66,-68.23 469.69,-78.03 474.92,-73.38"/>
</g>
<!-- cle.2 -->
<g id="node11" class="node">
<title>cle.2</title>
<ellipse fill="none" stroke="black" cx="589" cy="-42.87" rx="66.44" ry="26.74"/>
<text text-anchor="middle" x="589" y="-46.67" font-family="sans" font-size="14.00">clean_oven</text>
<text text-anchor="middle" x="589" y="-31.67" font-family="sans" font-size="14.00">2</text>
</g>
<!-- bak.2&#45;&gt;cle.2 -->
<g id="edge10" class="edge">
<title>bak.2&#45;&gt;cle.2</title>
<path fill="none" stroke="black" d="M541.02,-106.7C548.09,-97.44 556.23,-86.78 563.77,-76.91"/>
<polygon fill="black" stroke="black" points="566.64,-78.91 569.93,-68.84 561.08,-74.66 566.64,-78.91"/>
</g>
<!-- pre.2 -->
<g id="node12" class="node">
<title>pre.2</title>
<ellipse fill="none" stroke="black" cx="455" cy="-222.35" rx="82.96" ry="26.74"/>
<text text-anchor="middle" x="455" y="-226.15" font-family="sans" font-size="14.00">pre_heat_oven</text>
<text text-anchor="middle" x="455" y="-211.15" font-family="sans" font-size="14.00">2</text>
</g>
<!-- pre.2&#45;&gt;bak.2 -->
<g id="edge9" class="edge">
<title>pre.2&#45;&gt;bak.2</title>
<path fill="none" stroke="black" d="M474.38,-195.97C481.31,-186.89 489.24,-176.51 496.6,-166.87"/>
<polygon fill="black" stroke="black" points="499.61,-168.7 502.9,-158.63 494.04,-164.45 499.61,-168.7"/>
</g>
<!-- pur.3 -->
<g id="node13" class="node">
<title>pur.3</title>
<ellipse fill="none" stroke="black" cx="969" cy="-312.09" rx="90.52" ry="26.74"/>
<text text-anchor="middle" x="969" y="-315.89" font-family="sans" font-size="14.00">buy_ingredients</text>
<text text-anchor="middle" x="969" y="-300.89" font-family="sans" font-size="14.00">3</text>
</g>
<!-- mak.3 -->
<g id="node14" class="node">
<title>mak.3</title>
<ellipse fill="none" stroke="black" cx="986" cy="-222.35" rx="74.49" ry="26.74"/>
<text text-anchor="middle" x="986" y="-226.15" font-family="sans" font-size="14.00">make_dough</text>
<text text-anchor="middle" x="986" y="-211.15" font-family="sans" font-size="14.00">3</text>
</g>
<!-- pur.3&#45;&gt;mak.3 -->
<g id="edge11" class="edge">
<title>pur.3&#45;&gt;mak.3</title>
<path fill="none" stroke="black" d="M974.01,-285.24C975.59,-277.1 977.36,-267.96 979.04,-259.26"/>
<polygon fill="black" stroke="black" points="982.5,-259.8 980.97,-249.32 975.63,-258.47 982.5,-259.8"/>
</g>
<!-- bak.3 -->
<g id="node15" class="node">
<title>bak.3</title>
<ellipse fill="none" stroke="black" cx="878" cy="-132.61" rx="67.76" ry="26.74"/>
<text text-anchor="middle" x="878" y="-136.41" font-family="sans" font-size="14.00">bake_bread</text>
<text text-anchor="middle" x="878" y="-121.41" font-family="sans" font-size="14.00">3</text>
</g>
<!-- mak.3&#45;&gt;bak.3 -->
<g id="edge12" class="edge">
<title>mak.3&#45;&gt;bak.3</title>
<path fill="none" stroke="black" d="M956.77,-197.61C943.82,-187.09 928.44,-174.59 914.73,-163.45"/>
<polygon fill="black" stroke="black" points="916.84,-160.66 906.88,-157.07 912.43,-166.09 916.84,-160.66"/>
</g>
<!-- sel.3 -->
<g id="node16" class="node">
<title>sel.3</title>
<ellipse fill="none" stroke="black" cx="800" cy="-42.87" rx="60.62" ry="26.74"/>
<text text-anchor="middle" x="800" y="-46.67" font-family="sans" font-size="14.00">sell_bread</text>
<text text-anchor="middle" x="800" y="-31.67" font-family="sans" font-size="14.00">3</text>
</g>
<!-- bak.3&#45;&gt;sel.3 -->
<g id="edge13" class="edge">
<title>bak.3&#45;&gt;sel.3</title>
<path fill="none" stroke="black" d="M855.86,-106.7C847.31,-97.09 837.44,-85.98 828.38,-75.8"/>
<polygon fill="black" stroke="black" points="830.92,-73.38 821.66,-68.23 825.69,-78.03 830.92,-73.38"/>
</g>
<!-- cle.3 -->
<g id="node17" class="node">
<title>cle.3</title>
<ellipse fill="none" stroke="black" cx="945" cy="-42.87" rx="66.44" ry="26.74"/>
<text text-anchor="middle" x="945" y="-46.67" font-family="sans" font-size="14.00">clean_oven</text>
<text text-anchor="middle" x="945" y="-31.67" font-family="sans" font-size="14.00">3</text>
</g>
<!-- bak.3&#45;&gt;cle.3 -->
<g id="edge15" class="edge">
<title>bak.3&#45;&gt;cle.3</title>
<path fill="none" stroke="black" d="M897.02,-106.7C904.09,-97.44 912.23,-86.78 919.77,-76.91"/>
<polygon fill="black" stroke="black" points="922.64,-78.91 925.93,-68.84 917.08,-74.66 922.64,-78.91"/>
</g>
<!-- pre.3 -->
<g id="node18" class="node">
<title>pre.3</title>
<ellipse fill="none" stroke="black" cx="811" cy="-222.35" rx="82.96" ry="26.74"/>
<text text-anchor="middle" x="811" y="-226.15" font-family="sans" font-size="14.00">pre_heat_oven</text>
<text text-anchor="middle" x="811" y="-211.15" font-family="sans" font-size="14.00">3</text>
</g>
<!-- pre.3&#45;&gt;bak.3 -->
<g id="edge14" class="edge">
<title>pre.3&#45;&gt;bak.3</title>
<path fill="none" stroke="black" d="M830.38,-195.97C837.31,-186.89 845.24,-176.51 852.6,-166.87"/>
<polygon fill="black" stroke="black" points="855.61,-168.7 858.9,-158.63 850.04,-164.45 855.61,-168.7"/>
</g>
</g>
</svg>
