<?xml version="1.0" encoding="UTF-8" standalone="no"?>
<!DOCTYPE svg PUBLIC "-//W3C//DTD SVG 1.1//EN"
 "http://www.w3.org/Graphics/SVG/1.1/DTD/svg11.dtd">
<!-- Generated by graphviz version 2.43.0 (0)
 -->
<!-- Title: example Pages: 1 -->
<svg width="288pt" height="81pt"
 viewBox="0.00 0.00 288.00 80.71" xmlns="http://www.w3.org/2000/svg" xmlns:xlink="http://www.w3.org/1999/xlink">
<g id="graph0" class="graph" transform="scale(1.45 1.45) rotate(0) translate(4 113)">
<title>example</title>
<polygon fill="transparent" stroke="transparent" points="-4,4 -4,-113 413.47,-113 413.47,4 -4,4"/>
<g id="clust1" class="cluster">
<title>cluster_T06</title>
<polygon fill="transparent" stroke="black" stroke-dasharray="5,2" points="8,-8 8,-101 125.82,-101 125.82,-8 8,-8"/>
<text text-anchor="middle" x="66.91" y="-85.8" font-family="sans" font-size="14.00">T06</text>
</g>
<g id="clust2" class="cluster">
<title>cluster_T12</title>
<polygon fill="transparent" stroke="black" stroke-dasharray="5,2" points="145.82,-8 145.82,-101 263.65,-101 263.65,-8 145.82,-8"/>
<text text-anchor="middle" x="204.74" y="-85.8" font-family="sans" font-size="14.00">T12</text>
</g>
<g id="clust3" class="cluster">
<title>cluster_T18</title>
<polygon fill="transparent" stroke="black" stroke-dasharray="5,2" points="283.65,-8 283.65,-101 401.47,-101 401.47,-8 283.65,-8"/>
<text text-anchor="middle" x="342.56" y="-85.8" font-family="sans" font-size="14.00">T18</text>
</g>
<!-- forecast.t06 -->
<g id="node1" class="node">
<title>forecast.t06</title>
<ellipse fill="none" stroke="black" cx="66.91" cy="-43" rx="50.82" ry="26.74"/>
<text text-anchor="middle" x="66.91" y="-46.8" font-family="sans" font-size="14.00">forecast</text>
<text text-anchor="middle" x="66.91" y="-31.8" font-family="sans" font-size="14.00">T06</text>
</g>
<!-- forecast.t12 -->
<g id="node2" class="node">
<title>forecast.t12</title>
<ellipse fill="none" stroke="black" cx="204.74" cy="-43" rx="50.82" ry="26.74"/>
<text text-anchor="middle" x="204.74" y="-46.8" font-family="sans" font-size="14.00">forecast</text>
<text text-anchor="middle" x="204.74" y="-31.8" font-family="sans" font-size="14.00">T12</text>
</g>
<!-- forecast.t06&#45;&gt;forecast.t12 -->
<g id="edge1" class="edge">
<title>forecast.t06&#45;&gt;forecast.t12</title>
<path fill="none" stroke="black" d="M118.1,-43C126.37,-43 135.03,-43 143.51,-43"/>
<polygon fill="black" stroke="black" points="143.75,-46.5 153.75,-43 143.75,-39.5 143.75,-46.5"/>
</g>
<!-- forecast.t18 -->
<g id="node3" class="node">
<title>forecast.t18</title>
<ellipse fill="none" stroke="black" cx="342.56" cy="-43" rx="50.82" ry="26.74"/>
<text text-anchor="middle" x="342.56" y="-46.8" font-family="sans" font-size="14.00">forecast</text>
<text text-anchor="middle" x="342.56" y="-31.8" font-family="sans" font-size="14.00">T18</text>
</g>
<!-- forecast.t12&#45;&gt;forecast.t18 -->
<g id="edge2" class="edge">
<title>forecast.t12&#45;&gt;forecast.t18</title>
<path fill="none" stroke="black" d="M255.92,-43C264.2,-43 272.85,-43 281.34,-43"/>
<polygon fill="black" stroke="black" points="281.58,-46.5 291.58,-43 281.57,-39.5 281.58,-46.5"/>
</g>
</g>
</svg>
