<?xml version="1.0" encoding="UTF-8" standalone="no"?>
<!DOCTYPE svg PUBLIC "-//W3C//DTD SVG 1.1//EN"
 "http://www.w3.org/Graphics/SVG/1.1/DTD/svg11.dtd">
<!-- Generated by graphviz version 2.43.0 (0)
 -->
<!-- Title: Example Pages: 1 -->
<svg width="244pt" height="335pt"
 viewBox="0.00 0.00 244.00 335.00" xmlns="http://www.w3.org/2000/svg" xmlns:xlink="http://www.w3.org/1999/xlink">
<g id="graph0" class="graph" transform="scale(1 1) rotate(0) translate(4 331)">
<title>Example</title>
<polygon fill="transparent" stroke="transparent" points="-4,4 -4,-331 240,-331 240,4 -4,4"/>
<g id="clust1" class="cluster">
<title>cluster_1</title>
<polygon fill="transparent" stroke="green" stroke-dasharray="5,2" points="8,-64 8,-211 150,-211 150,-64 8,-64"/>
<text text-anchor="middle" x="79" y="-195.8" font-family="sans" font-size="14.00" fill="green">:success</text>
</g>
<g id="clust2" class="cluster">
<title>cluster_2</title>
<polygon fill="transparent" stroke="red" stroke-dasharray="5,2" points="158,-64 158,-211 228,-211 228,-64 158,-64"/>
<text text-anchor="middle" x="193" y="-195.8" font-family="sans" font-size="14.00" fill="red">:fail</text>
</g>
<!-- foo -->
<g id="node1" class="node">
<title>foo</title>
<ellipse fill="none" stroke="black" cx="115" cy="-309" rx="27" ry="18"/>
<text text-anchor="middle" x="115" y="-305.3" font-family="sans" font-size="14.00">foo</text>
</g>
<!-- bar -->
<g id="node2" class="node">
<title>bar</title>
<ellipse fill="none" stroke="black" cx="115" cy="-237" rx="27" ry="18"/>
<text text-anchor="middle" x="115" y="-233.3" font-family="sans" font-size="14.00">bar</text>
</g>
<!-- foo&#45;&gt;bar -->
<g id="edge1" class="edge">
<title>foo&#45;&gt;bar</title>
<path fill="none" stroke="black" d="M115,-290.7C115,-282.98 115,-273.71 115,-265.11"/>
<polygon fill="black" stroke="black" points="118.5,-265.1 115,-255.1 111.5,-265.1 118.5,-265.1"/>
</g>
<!-- tar -->
<g id="node3" class="node">
<title>tar</title>
<ellipse fill="none" stroke="black" cx="115" cy="-162" rx="27" ry="18"/>
<text text-anchor="middle" x="115" y="-158.3" font-family="sans" font-size="14.00">tar</text>
</g>
<!-- bar&#45;&gt;tar -->
<g id="edge2" class="edge">
<title>bar&#45;&gt;tar</title>
<path fill="none" stroke="black" d="M115,-218.7C115,-210.25 115,-199.87 115,-190.37"/>
<polygon fill="black" stroke="black" points="118.5,-190.18 115,-180.18 111.5,-190.18 118.5,-190.18"/>
</g>
<!-- jar -->
<g id="node5" class="node">
<title>jar</title>
<ellipse fill="none" stroke="black" cx="43" cy="-162" rx="27" ry="18"/>
<text text-anchor="middle" x="43" y="-158.3" font-family="sans" font-size="14.00">jar</text>
</g>
<!-- bar&#45;&gt;jar -->
<g id="edge4" class="edge">
<title>bar&#45;&gt;jar</title>
<path fill="none" stroke="black" d="M95.44,-224.09C89.84,-220.25 83.93,-215.75 79,-211 71.73,-203.99 64.8,-195.41 59,-187.45"/>
<polygon fill="black" stroke="black" points="61.8,-185.33 53.19,-179.16 56.07,-189.35 61.8,-185.33"/>
</g>
<!-- baz -->
<g id="node6" class="node">
<title>baz</title>
<ellipse fill="none" stroke="black" cx="193" cy="-162" rx="27" ry="18"/>
<text text-anchor="middle" x="193" y="-158.3" font-family="sans" font-size="14.00">baz</text>
</g>
<!-- bar&#45;&gt;baz -->
<g id="edge6" class="edge">
<title>bar&#45;&gt;baz</title>
<path fill="none" stroke="black" d="M135.31,-224.69C141.61,-220.75 148.36,-216.04 154,-211 161.96,-203.88 169.62,-195.05 176.02,-186.91"/>
<polygon fill="black" stroke="black" points="178.93,-188.87 182.18,-178.78 173.35,-184.64 178.93,-188.87"/>
</g>
<!-- par -->
<g id="node4" class="node">
<title>par</title>
<ellipse fill="none" stroke="black" cx="63" cy="-90" rx="27" ry="18"/>
<text text-anchor="middle" x="63" y="-86.3" font-family="sans" font-size="14.00">par</text>
</g>
<!-- tar&#45;&gt;par -->
<g id="edge3" class="edge">
<title>tar&#45;&gt;par</title>
<path fill="none" stroke="black" d="M103.46,-145.46C96.73,-136.4 88.1,-124.79 80.54,-114.61"/>
<polygon fill="black" stroke="black" points="83.28,-112.43 74.51,-106.49 77.66,-116.61 83.28,-112.43"/>
</g>
<!-- pub -->
<g id="node8" class="node">
<title>pub</title>
<ellipse fill="none" stroke="black" cx="165" cy="-18" rx="28.7" ry="18"/>
<text text-anchor="middle" x="165" y="-14.3" font-family="sans" font-size="14.00">pub</text>
</g>
<!-- tar&#45;&gt;pub -->
<g id="edge8" class="edge">
<title>tar&#45;&gt;pub</title>
<path fill="none" stroke="black" d="M120.93,-144.15C129.54,-119.71 145.57,-74.17 155.74,-45.29"/>
<polygon fill="none" stroke="black" points="159.06,-46.42 159.08,-35.82 152.45,-44.09 159.06,-46.42"/>
</g>
<!-- jar&#45;&gt;par -->
<g id="edge5" class="edge">
<title>jar&#45;&gt;par</title>
<path fill="none" stroke="black" d="M47.84,-144.05C50.1,-136.14 52.85,-126.54 55.37,-117.69"/>
<polygon fill="black" stroke="black" points="58.82,-118.37 58.2,-107.79 52.09,-116.44 58.82,-118.37"/>
</g>
<!-- jaz -->
<g id="node7" class="node">
<title>jaz</title>
<ellipse fill="none" stroke="black" cx="193" cy="-90" rx="27" ry="18"/>
<text text-anchor="middle" x="193" y="-86.3" font-family="sans" font-size="14.00">jaz</text>
</g>
<!-- baz&#45;&gt;jaz -->
<g id="edge7" class="edge">
<title>baz&#45;&gt;jaz</title>
<path fill="none" stroke="black" d="M193,-143.7C193,-135.98 193,-126.71 193,-118.11"/>
<polygon fill="black" stroke="black" points="196.5,-118.1 193,-108.1 189.5,-118.1 196.5,-118.1"/>
</g>
<!-- jaz&#45;&gt;pub -->
<g id="edge9" class="edge">
<title>jaz&#45;&gt;pub</title>
<path fill="none" stroke="black" d="M186.36,-72.41C183.13,-64.34 179.17,-54.43 175.54,-45.35"/>
<polygon fill="none" stroke="black" points="178.75,-43.94 171.78,-35.96 172.25,-46.54 178.75,-43.94"/>
</g>
</g>
</svg>
