<?xml version="1.0" encoding="UTF-8" standalone="no"?>
<!DOCTYPE svg PUBLIC "-//W3C//DTD SVG 1.1//EN"
 "http://www.w3.org/Graphics/SVG/1.1/DTD/svg11.dtd">
<!-- Generated by graphviz version 2.43.0 (0)
 -->
<!-- Title: Example Pages: 1 -->
<svg width="131pt" height="263pt"
 viewBox="0.00 0.00 131.00 263.00" xmlns="http://www.w3.org/2000/svg" xmlns:xlink="http://www.w3.org/1999/xlink">
<g id="graph0" class="graph" transform="scale(1 1) rotate(0) translate(4 259)">
<title>Example</title>
<polygon fill="transparent" stroke="transparent" points="-4,4 -4,-259 127,-259 127,4 -4,4"/>
<g id="clust1" class="cluster">
<title>cluster_1</title>
<polygon fill="transparent" stroke="red" stroke-dasharray="5,2" points="8,-64 8,-139 112,-139 112,-64 8,-64"/>
<text text-anchor="middle" x="60" y="-123.8" font-family="sans" font-size="14.00" fill="red">:fail</text>
</g>
<!-- recover -->
<g id="node1" class="node">
<title>recover</title>
<ellipse fill="none" stroke="black" cx="60" cy="-90" rx="44.39" ry="18"/>
<text text-anchor="middle" x="60" y="-86.3" font-family="sans" font-size="14.00">recover</text>
</g>
<!-- baz -->
<g id="node4" class="node">
<title>baz</title>
<ellipse fill="none" stroke="black" cx="96" cy="-18" rx="27" ry="18"/>
<text text-anchor="middle" x="96" y="-14.3" font-family="sans" font-size="14.00">baz</text>
</g>
<!-- recover&#45;&gt;baz -->
<g id="edge3" class="edge">
<title>recover&#45;&gt;baz</title>
<path fill="none" stroke="black" d="M68.71,-72.05C72.98,-63.77 78.2,-53.62 82.92,-44.42"/>
<polygon fill="none" stroke="black" points="86.15,-45.8 87.61,-35.31 79.93,-42.6 86.15,-45.8"/>
</g>
<!-- foo -->
<g id="node2" class="node">
<title>foo</title>
<ellipse fill="none" stroke="black" cx="96" cy="-237" rx="27" ry="18"/>
<text text-anchor="middle" x="96" y="-233.3" font-family="sans" font-size="14.00">foo</text>
</g>
<!-- bar -->
<g id="node3" class="node">
<title>bar</title>
<ellipse fill="none" stroke="black" cx="96" cy="-165" rx="27" ry="18"/>
<text text-anchor="middle" x="96" y="-161.3" font-family="sans" font-size="14.00">bar</text>
</g>
<!-- foo&#45;&gt;bar -->
<g id="edge1" class="edge">
<title>foo&#45;&gt;bar</title>
<path fill="none" stroke="black" d="M96,-218.7C96,-210.98 96,-201.71 96,-193.11"/>
<polygon fill="black" stroke="black" points="99.5,-193.1 96,-183.1 92.5,-193.1 99.5,-193.1"/>
</g>
<!-- bar&#45;&gt;recover -->
<g id="edge2" class="edge">
<title>bar&#45;&gt;recover</title>
<path fill="none" stroke="black" d="M88.01,-147.8C83.54,-138.73 77.86,-127.21 72.78,-116.92"/>
<polygon fill="black" stroke="black" points="75.9,-115.34 68.34,-107.92 69.63,-118.43 75.9,-115.34"/>
</g>
<!-- bar&#45;&gt;baz -->
<g id="edge4" class="edge">
<title>bar&#45;&gt;baz</title>
<path fill="none" stroke="black" d="M110.29,-149.4C112.63,-146.2 114.71,-142.67 116,-139 127.03,-107.55 122.92,-96.61 116,-64 114.6,-57.41 112.17,-50.62 109.48,-44.37"/>
<polygon fill="none" stroke="black" points="112.55,-42.68 105.13,-35.11 106.21,-45.65 112.55,-42.68"/>
</g>
</g>
</svg>
