<?xml version="1.0" encoding="UTF-8" standalone="no"?>
<!DOCTYPE svg PUBLIC "-//W3C//DTD SVG 1.1//EN"
 "http://www.w3.org/Graphics/SVG/1.1/DTD/svg11.dtd">
<!-- Generated by graphviz version 2.43.0 (0)
 -->
<!-- Title: Example Pages: 1 -->
<svg width="262pt" height="179pt"
 viewBox="0.00 0.00 262.00 179.00" xmlns="http://www.w3.org/2000/svg" xmlns:xlink="http://www.w3.org/1999/xlink">
<g id="graph0" class="graph" transform="scale(1 1) rotate(0) translate(4 175)">
<title>Example</title>
<polygon fill="transparent" stroke="transparent" points="-4,4 -4,-175 258,-175 258,4 -4,4"/>
<g id="clust1" class="cluster">
<title>cluster_1</title>
<polygon fill="transparent" stroke="black" points="8,-8 8,-163 96,-163 96,-8 8,-8"/>
<text text-anchor="middle" x="52" y="-147.8" font-family="sans" font-size="14.00">Grouped</text>
</g>
<g id="clust2" class="cluster">
<title>cluster_2</title>
<polygon fill="transparent" stroke="black" points="104,-12 104,-163 246,-163 246,-12 104,-12"/>
<text text-anchor="middle" x="175" y="-147.8" font-family="sans" font-size="14.00">Un&#45;Grouped</text>
</g>
<!-- foo.1 -->
<g id="node1" class="node">
<title>foo.1</title>
<ellipse fill="none" stroke="black" cx="52" cy="-114" rx="27" ry="18"/>
<text text-anchor="middle" x="52" y="-110.3" font-family="sans" font-size="14.00">foo</text>
</g>
<!-- BAR.1 -->
<g id="node2" class="node">
<title>BAR.1</title>
<polygon fill="none" stroke="black" points="84.24,-30.54 84.24,-45.46 65.35,-56 38.65,-56 19.76,-45.46 19.76,-30.54 38.65,-20 65.35,-20 84.24,-30.54"/>
<polygon fill="none" stroke="black" points="88.22,-28.19 88.22,-47.81 66.39,-60 37.61,-60 15.78,-47.81 15.78,-28.19 37.61,-16 66.39,-16 88.22,-28.19"/>
<text text-anchor="middle" x="52" y="-34.3" font-family="sans" font-size="14.00">BAR</text>
</g>
<!-- foo.1&#45;&gt;BAR.1 -->
<g id="edge1" class="edge">
<title>foo.1&#45;&gt;BAR.1</title>
<path fill="none" stroke="black" d="M52,-95.84C52,-88.16 52,-78.88 52,-70.05"/>
<polygon fill="black" stroke="black" points="55.5,-70.03 52,-60.03 48.5,-70.03 55.5,-70.03"/>
</g>
<!-- foo.2 -->
<g id="node3" class="node">
<title>foo.2</title>
<ellipse fill="none" stroke="black" cx="175" cy="-114" rx="27" ry="18"/>
<text text-anchor="middle" x="175" y="-110.3" font-family="sans" font-size="14.00">foo</text>
</g>
<!-- bar.2 -->
<g id="node4" class="node">
<title>bar.2</title>
<ellipse fill="none" stroke="black" cx="139" cy="-38" rx="27" ry="18"/>
<text text-anchor="middle" x="139" y="-34.3" font-family="sans" font-size="14.00">bar</text>
</g>
<!-- foo.2&#45;&gt;bar.2 -->
<g id="edge2" class="edge">
<title>foo.2&#45;&gt;bar.2</title>
<path fill="none" stroke="black" d="M167.01,-96.58C162.44,-87.19 156.61,-75.21 151.46,-64.61"/>
<polygon fill="black" stroke="black" points="154.49,-62.84 146.97,-55.38 148.19,-65.9 154.49,-62.84"/>
</g>
<!-- baz.2 -->
<g id="node5" class="node">
<title>baz.2</title>
<ellipse fill="none" stroke="black" cx="211" cy="-38" rx="27" ry="18"/>
<text text-anchor="middle" x="211" y="-34.3" font-family="sans" font-size="14.00">baz</text>
</g>
<!-- foo.2&#45;&gt;baz.2 -->
<g id="edge3" class="edge">
<title>foo.2&#45;&gt;baz.2</title>
<path fill="none" stroke="black" d="M182.99,-96.58C187.56,-87.19 193.39,-75.21 198.54,-64.61"/>
<polygon fill="black" stroke="black" points="201.81,-65.9 203.03,-55.38 195.51,-62.84 201.81,-65.9"/>
</g>
</g>
</svg>
