<?xml version="1.0" encoding="UTF-8" standalone="no"?>
<!DOCTYPE svg PUBLIC "-//W3C//DTD SVG 1.1//EN"
 "http://www.w3.org/Graphics/SVG/1.1/DTD/svg11.dtd">
<!-- Generated by graphviz version 2.43.0 (0)
 -->
<!-- Title: Example Pages: 1 -->
<svg width="216pt" height="332pt"
 viewBox="0.00 0.00 216.00 332.00" xmlns="http://www.w3.org/2000/svg" xmlns:xlink="http://www.w3.org/1999/xlink">
<g id="graph0" class="graph" transform="scale(1 1) rotate(0) translate(4 328)">
<title>Example</title>
<polygon fill="transparent" stroke="transparent" points="-4,4 -4,-328 212,-328 212,4 -4,4"/>
<!-- AIRPLANE -->
<g id="node1" class="node">
<title>AIRPLANE</title>
<polygon fill="powderblue" stroke="royalblue" points="86,-108 0,-108 0,-72 86,-72 86,-108"/>
<text text-anchor="middle" x="43" y="-86.3" font-family="sans" font-size="14.00">AIRPLANE</text>
</g>
<!-- v22 -->
<g id="node2" class="node">
<title>v22</title>
<polygon fill="powderblue" stroke="royalblue" points="127,-36 73,-36 73,0 127,0 127,-36"/>
<text text-anchor="middle" x="100" y="-14.3" font-family="sans" font-size="14.00">v22</text>
</g>
<!-- AIRPLANE&#45;&gt;v22 -->
<g id="edge1" class="edge">
<title>AIRPLANE&#45;&gt;v22</title>
<path fill="none" stroke="royalblue" d="M57.09,-71.7C63.92,-63.3 72.26,-53.07 79.76,-43.86"/>
<polygon fill="royalblue" stroke="royalblue" points="82.47,-46.07 86.07,-36.1 77.04,-41.65 82.47,-46.07"/>
</g>
<!-- a380 -->
<g id="node3" class="node">
<title>a380</title>
<polygon fill="powderblue" stroke="royalblue" points="55,-36 1,-36 1,0 55,0 55,-36"/>
<text text-anchor="middle" x="28" y="-14.3" font-family="sans" font-size="14.00">a380</text>
</g>
<!-- AIRPLANE&#45;&gt;a380 -->
<g id="edge2" class="edge">
<title>AIRPLANE&#45;&gt;a380</title>
<path fill="none" stroke="royalblue" d="M39.29,-71.7C37.64,-63.98 35.65,-54.71 33.81,-46.11"/>
<polygon fill="royalblue" stroke="royalblue" points="37.18,-45.15 31.67,-36.1 30.34,-46.62 37.18,-45.15"/>
</g>
<!-- HELICOPTER -->
<g id="node4" class="node">
<title>HELICOPTER</title>
<polygon fill="powderblue" stroke="royalblue" points="208,-108 104,-108 104,-72 208,-72 208,-108"/>
<text text-anchor="middle" x="156" y="-86.3" font-family="sans" font-size="14.00">HELICOPTER</text>
</g>
<!-- HELICOPTER&#45;&gt;v22 -->
<g id="edge3" class="edge">
<title>HELICOPTER&#45;&gt;v22</title>
<path fill="none" stroke="royalblue" d="M142.16,-71.7C135.51,-63.39 127.42,-53.28 120.11,-44.14"/>
<polygon fill="royalblue" stroke="royalblue" points="122.66,-41.73 113.68,-36.1 117.2,-46.1 122.66,-41.73"/>
</g>
<!-- r44 -->
<g id="node5" class="node">
<title>r44</title>
<polygon fill="powderblue" stroke="royalblue" points="199,-36 145,-36 145,0 199,0 199,-36"/>
<text text-anchor="middle" x="172" y="-14.3" font-family="sans" font-size="14.00">r44</text>
</g>
<!-- HELICOPTER&#45;&gt;r44 -->
<g id="edge4" class="edge">
<title>HELICOPTER&#45;&gt;r44</title>
<path fill="none" stroke="royalblue" d="M159.96,-71.7C161.72,-63.98 163.84,-54.71 165.8,-46.11"/>
<polygon fill="royalblue" stroke="royalblue" points="169.27,-46.63 168.09,-36.1 162.45,-45.07 169.27,-46.63"/>
</g>
<!-- root -->
<g id="node6" class="node">
<title>root</title>
<polygon fill="powderblue" stroke="royalblue" points="126,-324 72,-324 72,-288 126,-288 126,-324"/>
<text text-anchor="middle" x="99" y="-302.3" font-family="sans" font-size="14.00">root</text>
</g>
<!-- VEHICLE -->
<g id="node7" class="node">
<title>VEHICLE</title>
<polygon fill="powderblue" stroke="royalblue" points="137.5,-252 60.5,-252 60.5,-216 137.5,-216 137.5,-252"/>
<text text-anchor="middle" x="99" y="-230.3" font-family="sans" font-size="14.00">VEHICLE</text>
</g>
<!-- root&#45;&gt;VEHICLE -->
<g id="edge5" class="edge">
<title>root&#45;&gt;VEHICLE</title>
<path fill="none" stroke="royalblue" d="M99,-287.7C99,-279.98 99,-270.71 99,-262.11"/>
<polygon fill="royalblue" stroke="royalblue" points="102.5,-262.1 99,-252.1 95.5,-262.1 102.5,-262.1"/>
</g>
<!-- AIR_VEHICLE -->
<g id="node8" class="node">
<title>AIR_VEHICLE</title>
<polygon fill="powderblue" stroke="royalblue" points="152.5,-180 45.5,-180 45.5,-144 152.5,-144 152.5,-180"/>
<text text-anchor="middle" x="99" y="-158.3" font-family="sans" font-size="14.00">AIR_VEHICLE</text>
</g>
<!-- VEHICLE&#45;&gt;AIR_VEHICLE -->
<g id="edge6" class="edge">
<title>VEHICLE&#45;&gt;AIR_VEHICLE</title>
<path fill="none" stroke="royalblue" d="M99,-215.7C99,-207.98 99,-198.71 99,-190.11"/>
<polygon fill="royalblue" stroke="royalblue" points="102.5,-190.1 99,-180.1 95.5,-190.1 102.5,-190.1"/>
</g>
<!-- AIR_VEHICLE&#45;&gt;AIRPLANE -->
<g id="edge7" class="edge">
<title>AIR_VEHICLE&#45;&gt;AIRPLANE</title>
<path fill="none" stroke="royalblue" d="M85.16,-143.7C78.51,-135.39 70.42,-125.28 63.11,-116.14"/>
<polygon fill="royalblue" stroke="royalblue" points="65.66,-113.73 56.68,-108.1 60.2,-118.1 65.66,-113.73"/>
</g>
<!-- AIR_VEHICLE&#45;&gt;HELICOPTER -->
<g id="edge8" class="edge">
<title>AIR_VEHICLE&#45;&gt;HELICOPTER</title>
<path fill="none" stroke="royalblue" d="M113.09,-143.7C119.92,-135.3 128.26,-125.07 135.76,-115.86"/>
<polygon fill="royalblue" stroke="royalblue" points="138.47,-118.07 142.07,-108.1 133.04,-113.65 138.47,-118.07"/>
</g>
</g>
</svg>
