<?xml version="1.0" encoding="UTF-8" standalone="no"?>
<!DOCTYPE svg PUBLIC "-//W3C//DTD SVG 1.1//EN"
 "http://www.w3.org/Graphics/SVG/1.1/DTD/svg11.dtd">
<!-- Generated by graphviz version 2.43.0 (0)
 -->
<!-- Title: Example Pages: 1 -->
<svg width="504pt" height="185pt"
 viewBox="0.00 0.00 504.00 184.77" xmlns="http://www.w3.org/2000/svg" xmlns:xlink="http://www.w3.org/1999/xlink">
<g id="graph0" class="graph" transform="scale(1.6 1.6) rotate(0) translate(4 292.22)">
<title>Example</title>
<polygon fill="transparent" stroke="transparent" points="-4,4 -4,-292.22 804,-292.22 804,4 -4,4"/>
<g id="clust1" class="cluster">
<title>cluster_1</title>
<polygon fill="transparent" stroke="black" stroke-dasharray="5,2" points="8,-8 8,-280.22 264,-280.22 264,-8 8,-8"/>
<text text-anchor="middle" x="136" y="-265.02" font-family="sans" font-size="14.00">1</text>
</g>
<g id="clust2" class="cluster">
<title>cluster_2</title>
<polygon fill="transparent" stroke="black" stroke-dasharray="5,2" points="272,-8 272,-280.22 528,-280.22 528,-8 272,-8"/>
<text text-anchor="middle" x="400" y="-265.02" font-family="sans" font-size="14.00">2</text>
</g>
<g id="clust3" class="cluster">
<title>cluster_3</title>
<polygon fill="transparent" stroke="black" stroke-dasharray="5,2" points="536,-8 536,-280.22 792,-280.22 792,-8 536,-8"/>
<text text-anchor="middle" x="664" y="-265.02" font-family="sans" font-size="14.00">3</text>
</g>
<!-- make_cake_mixture.1 -->
<g id="node1" class="node">
<title>make_cake_mixture.1</title>
<ellipse fill="#ada5a5" stroke="#ada5a5" cx="136" cy="-222.35" rx="107.46" ry="26.74"/>
<text text-anchor="middle" x="136" y="-226.15" font-family="sans" font-size="14.00">make_cake_mixture</text>
<text text-anchor="middle" x="136" y="-211.15" font-family="sans" font-size="14.00">1</text>
</g>
<!-- bake_cake.1 -->
<g id="node2" class="node">
<title>bake_cake.1</title>
<ellipse fill="#ada5a5" stroke="#ada5a5" cx="136" cy="-132.61" rx="62.45" ry="26.74"/>
<text text-anchor="middle" x="136" y="-136.41" font-family="sans" font-size="14.00">bake_cake</text>
<text text-anchor="middle" x="136" y="-121.41" font-family="sans" font-size="14.00">1</text>
</g>
<!-- make_cake_mixture.1&#45;&gt;bake_cake.1 -->
<g id="edge1" class="edge">
<title>make_cake_mixture.1&#45;&gt;bake_cake.1</title>
<path fill="none" stroke="black" d="M136,-195.03C136,-187.06 136,-178.17 136,-169.68"/>
<polygon fill="black" stroke="black" points="139.5,-169.61 136,-159.61 132.5,-169.61 139.5,-169.61"/>
</g>
<!-- sell_cake.1 -->
<g id="node3" class="node">
<title>sell_cake.1</title>
<ellipse fill="#ada5a5" stroke="#ada5a5" cx="71" cy="-42.87" rx="55.31" ry="26.74"/>
<text text-anchor="middle" x="71" y="-46.67" font-family="sans" font-size="14.00">sell_cake</text>
<text text-anchor="middle" x="71" y="-31.67" font-family="sans" font-size="14.00">1</text>
</g>
<!-- bake_cake.1&#45;&gt;sell_cake.1 -->
<g id="edge2" class="edge">
<title>bake_cake.1&#45;&gt;sell_cake.1</title>
<path fill="none" stroke="black" d="M117.55,-106.7C110.63,-97.36 102.66,-86.6 95.29,-76.65"/>
<polygon fill="black" stroke="black" points="98.04,-74.49 89.27,-68.54 92.41,-78.66 98.04,-74.49"/>
</g>
<!-- eat_cake.1 -->
<g id="node4" class="node">
<title>eat_cake.1</title>
<ellipse fill="none" stroke="#88c6ff" cx="200" cy="-42.87" rx="55.79" ry="18"/>
<text text-anchor="middle" x="200" y="-39.17" font-family="sans" font-size="14.00">eat_cake1</text>
</g>
<!-- bake_cake.1&#45;&gt;eat_cake.1 -->
<g id="edge3" class="edge">
<title>bake_cake.1&#45;&gt;eat_cake.1</title>
<path fill="none" stroke="black" d="M154.17,-106.7C162.85,-94.8 173.22,-80.59 181.89,-68.69"/>
<polygon fill="black" stroke="black" points="184.8,-70.65 187.86,-60.51 179.14,-66.53 184.8,-70.65"/>
</g>
<!-- make_cake_mixture.2 -->
<g id="node5" class="node">
<title>make_cake_mixture.2</title>
<ellipse fill="#ada5a5" stroke="#ada5a5" cx="400" cy="-222.35" rx="107.46" ry="26.74"/>
<text text-anchor="middle" x="400" y="-226.15" font-family="sans" font-size="14.00">make_cake_mixture</text>
<text text-anchor="middle" x="400" y="-211.15" font-family="sans" font-size="14.00">2</text>
</g>
<!-- bake_cake.2 -->
<g id="node6" class="node">
<title>bake_cake.2</title>
<ellipse fill="#ff0000" stroke="#ff0000" cx="400" cy="-132.61" rx="62.45" ry="26.74"/>
<text text-anchor="middle" x="400" y="-136.41" font-family="sans" font-size="14.00" fill="white">bake_cake</text>
<text text-anchor="middle" x="400" y="-121.41" font-family="sans" font-size="14.00" fill="white">2</text>
</g>
<!-- make_cake_mixture.2&#45;&gt;bake_cake.2 -->
<g id="edge4" class="edge">
<title>make_cake_mixture.2&#45;&gt;bake_cake.2</title>
<path fill="none" stroke="black" d="M400,-195.03C400,-187.06 400,-178.17 400,-169.68"/>
<polygon fill="black" stroke="black" points="403.5,-169.61 400,-159.61 396.5,-169.61 403.5,-169.61"/>
</g>
<!-- sell_cake.2 -->
<g id="node7" class="node">
<title>sell_cake.2</title>
<ellipse fill="none" stroke="#88c6ff" cx="337" cy="-42.87" rx="56.59" ry="18"/>
<text text-anchor="middle" x="337" y="-39.17" font-family="sans" font-size="14.00">sell_cake2</text>
</g>
<!-- bake_cake.2&#45;&gt;sell_cake.2 -->
<g id="edge5" class="edge">
<title>bake_cake.2&#45;&gt;sell_cake.2</title>
<path fill="none" stroke="black" d="M382.12,-106.7C373.57,-94.8 363.36,-80.59 354.82,-68.69"/>
<polygon fill="black" stroke="black" points="357.62,-66.59 348.95,-60.51 351.94,-70.67 357.62,-66.59"/>
</g>
<!-- eat_cake.2 -->
<g id="node8" class="node">
<title>eat_cake.2</title>
<ellipse fill="none" stroke="#888888" cx="466" cy="-42.87" rx="54.39" ry="26.74"/>
<text text-anchor="middle" x="466" y="-46.67" font-family="sans" font-size="14.00" fill="#888888">eat_cake</text>
<text text-anchor="middle" x="466" y="-31.67" font-family="sans" font-size="14.00" fill="#888888">2</text>
</g>
<!-- bake_cake.2&#45;&gt;eat_cake.2 -->
<g id="edge6" class="edge">
<title>bake_cake.2&#45;&gt;eat_cake.2</title>
<path fill="none" stroke="black" d="M418.74,-106.7C425.82,-97.28 434,-86.42 441.53,-76.4"/>
<polygon fill="black" stroke="black" points="444.46,-78.33 447.67,-68.23 438.86,-74.12 444.46,-78.33"/>
</g>
<!-- make_cake_mixture.3 -->
<g id="node9" class="node">
<title>make_cake_mixture.3</title>
<ellipse fill="#ada5a5" stroke="#ada5a5" cx="664" cy="-222.35" rx="107.46" ry="26.74"/>
<text text-anchor="middle" x="664" y="-226.15" font-family="sans" font-size="14.00">make_cake_mixture</text>
<text text-anchor="middle" x="664" y="-211.15" font-family="sans" font-size="14.00">3</text>
</g>
<!-- bake_cake.3 -->
<g id="node10" class="node">
<title>bake_cake.3</title>
<ellipse fill="#ff0000" stroke="#ff0000" cx="664" cy="-132.61" rx="62.45" ry="26.74"/>
<text text-anchor="middle" x="664" y="-136.41" font-family="sans" font-size="14.00" fill="white">bake_cake</text>
<text text-anchor="middle" x="664" y="-121.41" font-family="sans" font-size="14.00" fill="white">3</text>
</g>
<!-- make_cake_mixture.3&#45;&gt;bake_cake.3 -->
<g id="edge7" class="edge">
<title>make_cake_mixture.3&#45;&gt;bake_cake.3</title>
<path fill="none" stroke="black" d="M664,-195.03C664,-187.06 664,-178.17 664,-169.68"/>
<polygon fill="black" stroke="black" points="667.5,-169.61 664,-159.61 660.5,-169.61 667.5,-169.61"/>
</g>
<!-- sell_cake.3 -->
<g id="node11" class="node">
<title>sell_cake.3</title>
<ellipse fill="none" stroke="#888888" cx="599" cy="-42.87" rx="55.31" ry="26.74"/>
<text text-anchor="middle" x="599" y="-46.67" font-family="sans" font-size="14.00" fill="#888888">sell_cake</text>
<text text-anchor="middle" x="599" y="-31.67" font-family="sans" font-size="14.00" fill="#888888">3</text>
</g>
<!-- bake_cake.3&#45;&gt;sell_cake.3 -->
<g id="edge8" class="edge">
<title>bake_cake.3&#45;&gt;sell_cake.3</title>
<path fill="none" stroke="black" d="M645.55,-106.7C638.63,-97.36 630.66,-86.6 623.29,-76.65"/>
<polygon fill="black" stroke="black" points="626.04,-74.49 617.27,-68.54 620.41,-78.66 626.04,-74.49"/>
</g>
<!-- eat_cake.3 -->
<g id="node12" class="node">
<title>eat_cake.3</title>
<ellipse fill="none" stroke="#888888" cx="728" cy="-42.87" rx="55.79" ry="18"/>
<text text-anchor="middle" x="728" y="-39.17" font-family="sans" font-size="14.00" fill="#888888">eat_cake3</text>
</g>
<!-- bake_cake.3&#45;&gt;eat_cake.3 -->
<g id="edge9" class="edge">
<title>bake_cake.3&#45;&gt;eat_cake.3</title>
<path fill="none" stroke="black" d="M682.17,-106.7C690.85,-94.8 701.22,-80.59 709.89,-68.69"/>
<polygon fill="black" stroke="black" points="712.8,-70.65 715.86,-60.51 707.14,-66.53 712.8,-70.65"/>
</g>
</g>
</svg>
