<?xml version="1.0" encoding="UTF-8" standalone="no"?>
<!DOCTYPE svg PUBLIC "-//W3C//DTD SVG 1.1//EN"
 "http://www.w3.org/Graphics/SVG/1.1/DTD/svg11.dtd">
<!-- Generated by graphviz version 2.43.0 (0)
 -->
<!-- Title: Example Pages: 1 -->
<svg width="276pt" height="188pt"
 viewBox="0.00 0.00 276.49 188.00" xmlns="http://www.w3.org/2000/svg" xmlns:xlink="http://www.w3.org/1999/xlink">
<g id="graph0" class="graph" transform="scale(1 1) rotate(0) translate(4 184)">
<title>Example</title>
<polygon fill="transparent" stroke="transparent" points="-4,4 -4,-184 272.49,-184 272.49,4 -4,4"/>
<!-- make_cake_mixture -->
<g id="node1" class="node">
<title>make_cake_mixture</title>
<ellipse fill="none" stroke="black" cx="169.7" cy="-162" rx="98.58" ry="18"/>
<text text-anchor="middle" x="169.7" y="-158.3" font-family="sans" font-size="14.00">make_cake_mixture</text>
</g>
<!-- bake_cake -->
<g id="node2" class="node">
<title>bake_cake</title>
<ellipse fill="none" stroke="black" cx="169.7" cy="-90" rx="57.39" ry="18"/>
<text text-anchor="middle" x="169.7" y="-86.3" font-family="sans" font-size="14.00">bake_cake</text>
</g>
<!-- make_cake_mixture&#45;&gt;bake_cake -->
<g id="edge1" class="edge">
<title>make_cake_mixture&#45;&gt;bake_cake</title>
<path fill="none" stroke="black" d="M169.7,-143.7C169.7,-135.98 169.7,-126.71 169.7,-118.11"/>
<polygon fill="black" stroke="black" points="173.2,-118.1 169.7,-108.1 166.2,-118.1 173.2,-118.1"/>
</g>
<!-- sell_cake -->
<g id="node3" class="node">
<title>sell_cake</title>
<ellipse fill="none" stroke="black" cx="50.7" cy="-18" rx="50.89" ry="18"/>
<text text-anchor="middle" x="50.7" y="-14.3" font-family="sans" font-size="14.00">sell_cake</text>
</g>
<!-- bake_cake&#45;&gt;sell_cake -->
<g id="edge2" class="edge">
<title>bake_cake&#45;&gt;sell_cake</title>
<path fill="none" stroke="black" stroke-dasharray="5,2" d="M143.87,-73.81C125.93,-63.26 101.9,-49.12 82.73,-37.85"/>
<ellipse fill="black" stroke="black" cx="79.1" cy="-35.71" rx="4" ry="4"/>
</g>
<!-- eat_cake -->
<g id="node4" class="node">
<title>eat_cake</title>
<ellipse fill="none" stroke="black" cx="169.7" cy="-18" rx="50.09" ry="18"/>
<text text-anchor="middle" x="169.7" y="-14.3" font-family="sans" font-size="14.00">eat_cake</text>
</g>
<!-- bake_cake&#45;&gt;eat_cake -->
<g id="edge3" class="edge">
<title>bake_cake&#45;&gt;eat_cake</title>
<path fill="none" stroke="black" stroke-dasharray="5,2" d="M163.82,-72.05C162.94,-63.75 162.72,-53.58 163.18,-44.38"/>
<ellipse fill="black" stroke="black" cx="163.48" cy="-40.26" rx="4" ry="4"/>
</g>
<!-- eat_cake&#45;&gt;bake_cake -->
<g id="edge4" class="edge">
<title>eat_cake&#45;&gt;bake_cake</title>
<path fill="none" stroke="black" stroke-dasharray="5,2" d="M175.61,-36.28C176.47,-44.63 176.67,-54.81 176.2,-63.99"/>
<ellipse fill="black" stroke="black" cx="175.88" cy="-68.07" rx="4" ry="4"/>
</g>
</g>
</svg>
