<?xml version="1.0" encoding="UTF-8" standalone="no"?>
<!DOCTYPE svg PUBLIC "-//W3C//DTD SVG 1.1//EN"
 "http://www.w3.org/Graphics/SVG/1.1/DTD/svg11.dtd">
<!-- Generated by graphviz version 2.40.1 (20161225.0304)
 -->
<!-- Title: Example Pages: 1 -->
<svg width="63pt" height="188pt"
 viewBox="0.00 0.00 62.60 188.00" xmlns="http://www.w3.org/2000/svg" xmlns:xlink="http://www.w3.org/1999/xlink">
<g id="graph0" class="graph" transform="scale(1 1) rotate(0) translate(4 184)">
<title>Example</title>
<polygon fill="transparent" stroke="transparent" points="-4,4 -4,-184 58.5952,-184 58.5952,4 -4,4"/>
<!-- foo -->
<g id="node1" class="node">
<title>foo</title>
<ellipse fill="#ada5a5" stroke="#ada5a5" cx="27.2976" cy="-162" rx="27" ry="18"/>
<text text-anchor="middle" x="27.2976" y="-158.3" font-family="sans" font-size="14.00" fill="#000000">foo</text>
</g>
<!-- bar -->
<g id="node2" class="node">
<title>bar</title>
<ellipse fill="#ff0000" stroke="#ff0000" cx="27.2976" cy="-90" rx="27" ry="18"/>
<text text-anchor="middle" x="27.2976" y="-86.3" font-family="sans" font-size="14.00" fill="#ffffff">bar</text>
</g>
<!-- foo&#45;&gt;bar -->
<g id="edge1" class="edge">
<title>foo&#45;&gt;bar</title>
<path fill="none" stroke="#000000" d="M27.2976,-143.8314C27.2976,-136.131 27.2976,-126.9743 27.2976,-118.4166"/>
<polygon fill="#000000" stroke="#000000" points="30.7977,-118.4132 27.2976,-108.4133 23.7977,-118.4133 30.7977,-118.4132"/>
</g>
<!-- baz -->
<g id="node3" class="node">
<title>baz</title>
<ellipse fill="none" stroke="#88c6ff" cx="27.2976" cy="-18" rx="27.0966" ry="18"/>
<text text-anchor="middle" x="27.2976" y="-14.3" font-family="sans" font-size="14.00" fill="#000000">baz</text>
</g>
<!-- bar&#45;&gt;baz -->
<g id="edge2" class="edge">
<title>bar&#45;&gt;baz</title>
<path fill="none" stroke="#000000" d="M27.2976,-71.8314C27.2976,-64.131 27.2976,-54.9743 27.2976,-46.4166"/>
<polygon fill="#000000" stroke="#000000" points="30.7977,-46.4132 27.2976,-36.4133 23.7977,-46.4133 30.7977,-46.4132"/>
</g>
</g>
</svg>
