<?xml version="1.0" encoding="UTF-8" standalone="no"?>
<!DOCTYPE svg PUBLIC "-//W3C//DTD SVG 1.1//EN"
 "http://www.w3.org/Graphics/SVG/1.1/DTD/svg11.dtd">
<!-- Generated by graphviz version 2.43.0 (0)
 -->
<!-- Title: Example Pages: 1 -->
<svg width="504pt" height="153pt"
 viewBox="0.00 0.00 504.00 152.53" xmlns="http://www.w3.org/2000/svg" xmlns:xlink="http://www.w3.org/1999/xlink">
<g id="graph0" class="graph" transform="scale(2.18 2.18) rotate(0) translate(4 328)">
<title>Example</title>
<polygon fill="transparent" stroke="transparent" points="-4,4 -4,-328 1093,-328 1093,4 -4,4"/>
<!-- root -->
<g id="node1" class="node">
<title>root</title>
<polygon fill="powderblue" stroke="royalblue" points="701,-324 647,-324 647,-288 701,-288 701,-324"/>
<text text-anchor="middle" x="674" y="-302.3" font-family="sans" font-size="14.00">root</text>
</g>
<!-- ENGINE -->
<g id="node2" class="node">
<title>ENGINE</title>
<polygon fill="powderblue" stroke="royalblue" points="588.5,-180 517.5,-180 517.5,-144 588.5,-144 588.5,-180"/>
<text text-anchor="middle" x="553" y="-158.3" font-family="sans" font-size="14.00">ENGINE</text>
</g>
<!-- root&#45;&gt;ENGINE -->
<g id="edge1" class="edge">
<title>root&#45;&gt;ENGINE</title>
<path fill="none" stroke="royalblue" d="M659.4,-287.87C638.24,-263.03 598.88,-216.85 574.42,-188.14"/>
<polygon fill="royalblue" stroke="royalblue" points="576.8,-185.53 567.65,-180.19 571.47,-190.07 576.8,-185.53"/>
</g>
<!-- VEHICLE -->
<g id="node3" class="node">
<title>VEHICLE</title>
<polygon fill="powderblue" stroke="royalblue" points="766.5,-252 689.5,-252 689.5,-216 766.5,-216 766.5,-252"/>
<text text-anchor="middle" x="728" y="-230.3" font-family="sans" font-size="14.00">VEHICLE</text>
</g>
<!-- root&#45;&gt;VEHICLE -->
<g id="edge2" class="edge">
<title>root&#45;&gt;VEHICLE</title>
<path fill="none" stroke="royalblue" d="M687.35,-287.7C693.76,-279.39 701.56,-269.28 708.61,-260.14"/>
<polygon fill="royalblue" stroke="royalblue" points="711.47,-262.16 714.81,-252.1 705.93,-257.88 711.47,-262.16"/>
</g>
<!-- INTERNAL_COMBUSTION_ENGINE -->
<g id="node4" class="node">
<title>INTERNAL_COMBUSTION_ENGINE</title>
<polygon fill="powderblue" stroke="royalblue" points="691.5,-108 412.5,-108 412.5,-72 691.5,-72 691.5,-108"/>
<text text-anchor="middle" x="552" y="-86.3" font-family="sans" font-size="14.00">INTERNAL_COMBUSTION_ENGINE</text>
</g>
<!-- ENGINE&#45;&gt;INTERNAL_COMBUSTION_ENGINE -->
<g id="edge3" class="edge">
<title>ENGINE&#45;&gt;INTERNAL_COMBUSTION_ENGINE</title>
<path fill="none" stroke="royalblue" d="M552.75,-143.7C552.64,-135.98 552.51,-126.71 552.39,-118.11"/>
<polygon fill="royalblue" stroke="royalblue" points="555.89,-118.05 552.24,-108.1 548.89,-118.15 555.89,-118.05"/>
</g>
<!-- TURBINE_ENGINE -->
<g id="node5" class="node">
<title>TURBINE_ENGINE</title>
<polygon fill="powderblue" stroke="royalblue" points="168,-108 0,-108 0,-72 168,-72 168,-108"/>
<text text-anchor="middle" x="84" y="-86.3" font-family="sans" font-size="14.00">TURBINE_ENGINE</text>
</g>
<!-- ENGINE&#45;&gt;TURBINE_ENGINE -->
<g id="edge4" class="edge">
<title>ENGINE&#45;&gt;TURBINE_ENGINE</title>
<path fill="none" stroke="royalblue" d="M517.42,-156.48C452.28,-148.09 309.29,-129.18 178.33,-108.18"/>
<polygon fill="royalblue" stroke="royalblue" points="178.55,-104.67 168.12,-106.54 177.44,-111.58 178.55,-104.67"/>
</g>
<!-- HUMAN_ENGINE -->
<g id="node6" class="node">
<title>HUMAN_ENGINE</title>
<polygon fill="powderblue" stroke="royalblue" points="868.5,-108 709.5,-108 709.5,-72 868.5,-72 868.5,-108"/>
<text text-anchor="middle" x="789" y="-86.3" font-family="sans" font-size="14.00">HUMAN_ENGINE</text>
</g>
<!-- ENGINE&#45;&gt;HUMAN_ENGINE -->
<g id="edge5" class="edge">
<title>ENGINE&#45;&gt;HUMAN_ENGINE</title>
<path fill="none" stroke="royalblue" d="M588.76,-147.16C591.87,-146.05 594.98,-144.99 598,-144 635.22,-131.83 677.1,-120.01 712.13,-110.63"/>
<polygon fill="royalblue" stroke="royalblue" points="713.06,-114 721.82,-108.05 711.26,-107.24 713.06,-114"/>
</g>
<!-- LAND_VEHICLE -->
<g id="node7" class="node">
<title>LAND_VEHICLE</title>
<polygon fill="powderblue" stroke="royalblue" points="1003,-180 881,-180 881,-144 1003,-144 1003,-180"/>
<text text-anchor="middle" x="942" y="-158.3" font-family="sans" font-size="14.00">LAND_VEHICLE</text>
</g>
<!-- VEHICLE&#45;&gt;LAND_VEHICLE -->
<g id="edge6" class="edge">
<title>VEHICLE&#45;&gt;LAND_VEHICLE</title>
<path fill="none" stroke="royalblue" d="M766.75,-220.32C798.38,-209.98 843.65,-195.17 880.25,-183.2"/>
<polygon fill="royalblue" stroke="royalblue" points="881.43,-186.5 889.84,-180.06 879.25,-179.84 881.43,-186.5"/>
</g>
<!-- WATER_VEHICLE -->
<g id="node8" class="node">
<title>WATER_VEHICLE</title>
<polygon fill="powderblue" stroke="royalblue" points="862.5,-180 731.5,-180 731.5,-144 862.5,-144 862.5,-180"/>
<text text-anchor="middle" x="797" y="-158.3" font-family="sans" font-size="14.00">WATER_VEHICLE</text>
</g>
<!-- VEHICLE&#45;&gt;WATER_VEHICLE -->
<g id="edge7" class="edge">
<title>VEHICLE&#45;&gt;WATER_VEHICLE</title>
<path fill="none" stroke="royalblue" d="M745.06,-215.7C753.5,-207.14 763.82,-196.66 773.04,-187.3"/>
<polygon fill="royalblue" stroke="royalblue" points="775.61,-189.68 780.14,-180.1 770.63,-184.77 775.61,-189.68"/>
</g>
<!-- AIR_VEHICLE -->
<g id="node9" class="node">
<title>AIR_VEHICLE</title>
<polygon fill="powderblue" stroke="royalblue" points="713.5,-180 606.5,-180 606.5,-144 713.5,-144 713.5,-180"/>
<text text-anchor="middle" x="660" y="-158.3" font-family="sans" font-size="14.00">AIR_VEHICLE</text>
</g>
<!-- VEHICLE&#45;&gt;AIR_VEHICLE -->
<g id="edge8" class="edge">
<title>VEHICLE&#45;&gt;AIR_VEHICLE</title>
<path fill="none" stroke="royalblue" d="M711.19,-215.7C702.87,-207.14 692.69,-196.66 683.61,-187.3"/>
<polygon fill="royalblue" stroke="royalblue" points="686.09,-184.84 676.62,-180.1 681.07,-189.72 686.09,-184.84"/>
</g>
<!-- r44 -->
<g id="node10" class="node">
<title>r44</title>
<polygon fill="powderblue" stroke="royalblue" points="462,-36 408,-36 408,0 462,0 462,-36"/>
<text text-anchor="middle" x="435" y="-14.3" font-family="sans" font-size="14.00">r44</text>
</g>
<!-- INTERNAL_COMBUSTION_ENGINE&#45;&gt;r44 -->
<g id="edge9" class="edge">
<title>INTERNAL_COMBUSTION_ENGINE&#45;&gt;r44</title>
<path fill="none" stroke="royalblue" d="M523.38,-71.88C507.62,-62.45 487.92,-50.66 471.11,-40.61"/>
<polygon fill="royalblue" stroke="royalblue" points="472.5,-37.36 462.12,-35.23 468.9,-43.36 472.5,-37.36"/>
</g>
<!-- bht130 -->
<g id="node11" class="node">
<title>bht130</title>
<polygon fill="powderblue" stroke="royalblue" points="640.5,-36 573.5,-36 573.5,0 640.5,0 640.5,-36"/>
<text text-anchor="middle" x="607" y="-14.3" font-family="sans" font-size="14.00">bht130</text>
</g>
<!-- INTERNAL_COMBUSTION_ENGINE&#45;&gt;bht130 -->
<g id="edge10" class="edge">
<title>INTERNAL_COMBUSTION_ENGINE&#45;&gt;bht130</title>
<path fill="none" stroke="royalblue" d="M565.6,-71.7C572.12,-63.39 580.07,-53.28 587.25,-44.14"/>
<polygon fill="royalblue" stroke="royalblue" points="590.13,-46.13 593.56,-36.1 584.63,-41.81 590.13,-46.13"/>
</g>
<!-- v22 -->
<g id="node12" class="node">
<title>v22</title>
<polygon fill="powderblue" stroke="royalblue" points="256,-36 202,-36 202,0 256,0 256,-36"/>
<text text-anchor="middle" x="229" y="-14.3" font-family="sans" font-size="14.00">v22</text>
</g>
<!-- TURBINE_ENGINE&#45;&gt;v22 -->
<g id="edge11" class="edge">
<title>TURBINE_ENGINE&#45;&gt;v22</title>
<path fill="none" stroke="royalblue" d="M119.47,-71.88C141.63,-61.18 170.09,-47.44 192.44,-36.65"/>
<polygon fill="royalblue" stroke="royalblue" points="194.13,-39.72 201.62,-32.22 191.09,-33.42 194.13,-39.72"/>
</g>
<!-- a380 -->
<g id="node13" class="node">
<title>a380</title>
<polygon fill="powderblue" stroke="royalblue" points="148,-36 94,-36 94,0 148,0 148,-36"/>
<text text-anchor="middle" x="121" y="-14.3" font-family="sans" font-size="14.00">a380</text>
</g>
<!-- TURBINE_ENGINE&#45;&gt;a380 -->
<g id="edge12" class="edge">
<title>TURBINE_ENGINE&#45;&gt;a380</title>
<path fill="none" stroke="royalblue" d="M93.15,-71.7C97.4,-63.64 102.56,-53.89 107.27,-44.98"/>
<polygon fill="royalblue" stroke="royalblue" points="110.38,-46.58 111.96,-36.1 104.19,-43.31 110.38,-46.58"/>
</g>
<!-- penny_farthing -->
<g id="node14" class="node">
<title>penny_farthing</title>
<polygon fill="powderblue" stroke="royalblue" points="995,-36 845,-36 845,0 995,0 995,-36"/>
<text text-anchor="middle" x="920" y="-14.3" font-family="sans" font-size="14.00">penny_farthing</text>
</g>
<!-- HUMAN_ENGINE&#45;&gt;penny_farthing -->
<g id="edge13" class="edge">
<title>HUMAN_ENGINE&#45;&gt;penny_farthing</title>
<path fill="none" stroke="royalblue" d="M821.05,-71.88C838.49,-62.55 860.27,-50.92 878.94,-40.94"/>
<polygon fill="royalblue" stroke="royalblue" points="880.66,-43.99 887.83,-36.19 877.36,-37.82 880.66,-43.99"/>
</g>
<!-- HOVERCRAFT -->
<g id="node17" class="node">
<title>HOVERCRAFT</title>
<polygon fill="powderblue" stroke="royalblue" points="997,-108 887,-108 887,-72 997,-72 997,-108"/>
<text text-anchor="middle" x="942" y="-86.3" font-family="sans" font-size="14.00">HOVERCRAFT</text>
</g>
<!-- LAND_VEHICLE&#45;&gt;HOVERCRAFT -->
<g id="edge19" class="edge">
<title>LAND_VEHICLE&#45;&gt;HOVERCRAFT</title>
<path fill="none" stroke="royalblue" d="M942,-143.7C942,-135.98 942,-126.71 942,-118.11"/>
<polygon fill="royalblue" stroke="royalblue" points="945.5,-118.1 942,-108.1 938.5,-118.1 945.5,-118.1"/>
</g>
<!-- BICYCLE -->
<g id="node18" class="node">
<title>BICYCLE</title>
<polygon fill="powderblue" stroke="royalblue" points="1089,-108 1015,-108 1015,-72 1089,-72 1089,-108"/>
<text text-anchor="middle" x="1052" y="-86.3" font-family="sans" font-size="14.00">BICYCLE</text>
</g>
<!-- LAND_VEHICLE&#45;&gt;BICYCLE -->
<g id="edge20" class="edge">
<title>LAND_VEHICLE&#45;&gt;BICYCLE</title>
<path fill="none" stroke="royalblue" d="M968.91,-143.88C983.16,-134.81 1000.85,-123.55 1016.24,-113.76"/>
<polygon fill="royalblue" stroke="royalblue" points="1018.43,-116.51 1024.99,-108.19 1014.67,-110.61 1018.43,-116.51"/>
</g>
<!-- WATER_VEHICLE&#45;&gt;HOVERCRAFT -->
<g id="edge21" class="edge">
<title>WATER_VEHICLE&#45;&gt;HOVERCRAFT</title>
<path fill="none" stroke="royalblue" d="M832.47,-143.88C852.12,-134.39 876.72,-122.51 897.63,-112.42"/>
<polygon fill="royalblue" stroke="royalblue" points="899.16,-115.57 906.64,-108.07 896.12,-109.26 899.16,-115.57"/>
</g>
<!-- AIRPLANE -->
<g id="node15" class="node">
<title>AIRPLANE</title>
<polygon fill="powderblue" stroke="royalblue" points="272,-108 186,-108 186,-72 272,-72 272,-108"/>
<text text-anchor="middle" x="229" y="-86.3" font-family="sans" font-size="14.00">AIRPLANE</text>
</g>
<!-- AIR_VEHICLE&#45;&gt;AIRPLANE -->
<g id="edge22" class="edge">
<title>AIR_VEHICLE&#45;&gt;AIRPLANE</title>
<path fill="none" stroke="royalblue" d="M606.17,-145.9C603.08,-145.21 600,-144.57 597,-144 461.41,-118.13 420.99,-137.18 282.38,-108.04"/>
<polygon fill="royalblue" stroke="royalblue" points="282.74,-104.54 272.23,-105.86 281.27,-111.38 282.74,-104.54"/>
</g>
<!-- HELICOPTER -->
<g id="node16" class="node">
<title>HELICOPTER</title>
<polygon fill="powderblue" stroke="royalblue" points="394,-108 290,-108 290,-72 394,-72 394,-108"/>
<text text-anchor="middle" x="342" y="-86.3" font-family="sans" font-size="14.00">HELICOPTER</text>
</g>
<!-- AIR_VEHICLE&#45;&gt;HELICOPTER -->
<g id="edge23" class="edge">
<title>AIR_VEHICLE&#45;&gt;HELICOPTER</title>
<path fill="none" stroke="royalblue" d="M606.46,-146.24C603.26,-145.46 600.09,-144.7 597,-144 514.58,-125.26 490.18,-127.59 404.11,-108.14"/>
<polygon fill="royalblue" stroke="royalblue" points="404.69,-104.69 394.17,-105.86 403.13,-111.51 404.69,-104.69"/>
</g>
<!-- AIR_VEHICLE&#45;&gt;HOVERCRAFT -->
<g id="edge24" class="edge">
<title>AIR_VEHICLE&#45;&gt;HOVERCRAFT</title>
<path fill="none" stroke="royalblue" d="M713.58,-146.4C716.77,-145.58 719.92,-144.77 723,-144 788.51,-127.56 807.67,-125.26 876.78,-108.26"/>
<polygon fill="royalblue" stroke="royalblue" points="878.01,-111.56 886.87,-105.76 876.32,-104.77 878.01,-111.56"/>
</g>
<!-- AIRPLANE&#45;&gt;v22 -->
<g id="edge14" class="edge">
<title>AIRPLANE&#45;&gt;v22</title>
<path fill="none" stroke="royalblue" d="M229,-71.7C229,-63.98 229,-54.71 229,-46.11"/>
<polygon fill="royalblue" stroke="royalblue" points="232.5,-46.1 229,-36.1 225.5,-46.1 232.5,-46.1"/>
</g>
<!-- AIRPLANE&#45;&gt;a380 -->
<g id="edge15" class="edge">
<title>AIRPLANE&#45;&gt;a380</title>
<path fill="none" stroke="royalblue" d="M202.58,-71.88C188.59,-62.81 171.22,-51.55 156.11,-41.76"/>
<polygon fill="royalblue" stroke="royalblue" points="157.82,-38.69 147.52,-36.19 154.01,-44.57 157.82,-38.69"/>
</g>
<!-- HELICOPTER&#45;&gt;r44 -->
<g id="edge17" class="edge">
<title>HELICOPTER&#45;&gt;r44</title>
<path fill="none" stroke="royalblue" d="M364.99,-71.7C376.81,-62.8 391.39,-51.82 404.18,-42.2"/>
<polygon fill="royalblue" stroke="royalblue" points="406.39,-44.91 412.28,-36.1 402.18,-39.32 406.39,-44.91"/>
</g>
<!-- HELICOPTER&#45;&gt;v22 -->
<g id="edge16" class="edge">
<title>HELICOPTER&#45;&gt;v22</title>
<path fill="none" stroke="royalblue" d="M314.36,-71.88C299.47,-62.66 280.93,-51.17 264.94,-41.26"/>
<polygon fill="royalblue" stroke="royalblue" points="266.7,-38.24 256.36,-35.95 263.02,-44.19 266.7,-38.24"/>
</g>
<!-- HOVERCRAFT&#45;&gt;bht130 -->
<g id="edge18" class="edge">
<title>HOVERCRAFT&#45;&gt;bht130</title>
<path fill="none" stroke="royalblue" d="M886.9,-74.12C883.89,-73.38 880.91,-72.67 878,-72 798.12,-53.6 704.06,-36.14 650.39,-26.57"/>
<polygon fill="royalblue" stroke="royalblue" points="650.99,-23.12 640.53,-24.82 649.76,-30.01 650.99,-23.12"/>
</g>
<!-- BICYCLE&#45;&gt;penny_farthing -->
<g id="edge25" class="edge">
<title>BICYCLE&#45;&gt;penny_farthing</title>
<path fill="none" stroke="royalblue" d="M1019.71,-71.88C1002.13,-62.55 980.19,-50.92 961.37,-40.94"/>
<polygon fill="royalblue" stroke="royalblue" points="962.89,-37.78 952.41,-36.19 959.61,-43.97 962.89,-37.78"/>
</g>
</g>
</svg>
