<?xml version="1.0" encoding="UTF-8" standalone="no"?>
<!DOCTYPE svg PUBLIC "-//W3C//DTD SVG 1.1//EN"
 "http://www.w3.org/Graphics/SVG/1.1/DTD/svg11.dtd">
<!-- Generated by graphviz version 2.40.1 (20161225.0304)
 -->
<!-- Title: Mini_Cylc Pages: 1 -->
<svg width="178pt" height="260pt"
 viewBox="0.00 0.00 178.28 260.00" xmlns="http://www.w3.org/2000/svg" xmlns:xlink="http://www.w3.org/1999/xlink">
<g id="graph0" class="graph" transform="scale(1 1) rotate(0) translate(4 256)">
<title>Mini_Cylc</title>
<polygon fill="transparent" stroke="transparent" points="-4,4 -4,-256 174.2849,-256 174.2849,4 -4,4"/>
<!-- sell_bread -->
<g id="node1" class="node">
<title>sell_bread</title>
<ellipse fill="none" stroke="#000000" cx="85.1424" cy="-18" rx="58.4896" ry="18"/>
<text text-anchor="middle" x="85.1424" y="-14.3" font-family="sans" font-size="14.00" fill="#000000">sell_bread</text>
</g>
<!-- buy_ingredients -->
<g id="node2" class="node">
<title>buy_ingredients</title>
<ellipse fill="none" stroke="#000000" cx="85.1424" cy="-234" rx="85.2851" ry="18"/>
<text text-anchor="middle" x="85.1424" y="-230.3" font-family="sans" font-size="14.00" fill="#000000">buy_ingredients</text>
</g>
<!-- make_dough -->
<g id="node3" class="node">
<title>make_dough</title>
<ellipse fill="none" stroke="#000000" cx="85.1424" cy="-162" rx="70.6878" ry="18"/>
<text text-anchor="middle" x="85.1424" y="-158.3" font-family="sans" font-size="14.00" fill="#000000">make_dough</text>
</g>
<!-- buy_ingredients&#45;&gt;make_dough -->
<g id="edge1" class="edge">
<title>buy_ingredients&#45;&gt;make_dough</title>
<path fill="none" stroke="#000000" d="M85.1424,-215.8314C85.1424,-208.131 85.1424,-198.9743 85.1424,-190.4166"/>
<polygon fill="#000000" stroke="#000000" points="88.6425,-190.4132 85.1424,-180.4133 81.6425,-190.4133 88.6425,-190.4132"/>
</g>
<!-- bake_bread -->
<g id="node4" class="node">
<title>bake_bread</title>
<ellipse fill="none" stroke="#000000" cx="85.1424" cy="-90" rx="65.7887" ry="18"/>
<text text-anchor="middle" x="85.1424" y="-86.3" font-family="sans" font-size="14.00" fill="#000000">bake_bread</text>
</g>
<!-- make_dough&#45;&gt;bake_bread -->
<g id="edge3" class="edge">
<title>make_dough&#45;&gt;bake_bread</title>
<path fill="none" stroke="#000000" d="M85.1424,-143.8314C85.1424,-136.131 85.1424,-126.9743 85.1424,-118.4166"/>
<polygon fill="#000000" stroke="#000000" points="88.6425,-118.4132 85.1424,-108.4133 81.6425,-118.4133 88.6425,-118.4132"/>
</g>
<!-- bake_bread&#45;&gt;sell_bread -->
<g id="edge2" class="edge">
<title>bake_bread&#45;&gt;sell_bread</title>
<path fill="none" stroke="#000000" d="M85.1424,-71.8314C85.1424,-64.131 85.1424,-54.9743 85.1424,-46.4166"/>
<polygon fill="#000000" stroke="#000000" points="88.6425,-46.4132 85.1424,-36.4133 81.6425,-46.4133 88.6425,-46.4132"/>
</g>
</g>
</svg>
