<?xml version="1.0" encoding="UTF-8" standalone="no"?>
<!DOCTYPE svg PUBLIC "-//W3C//DTD SVG 1.1//EN"
 "http://www.w3.org/Graphics/SVG/1.1/DTD/svg11.dtd">
<!-- Generated by graphviz version 2.40.1 (20161225.0304)
 -->
<!-- Title: Example Pages: 1 -->
<svg width="287pt" height="260pt"
 viewBox="0.00 0.00 286.50 260.00" xmlns="http://www.w3.org/2000/svg" xmlns:xlink="http://www.w3.org/1999/xlink">
<g id="graph0" class="graph" transform="scale(1 1) rotate(0) translate(4 256)">
<title>Example</title>
<polygon fill="transparent" stroke="transparent" points="-4,4 -4,-256 282.5,-256 282.5,4 -4,4"/>
<!-- VEHICLE -->
<g id="node1" class="node">
<title>VEHICLE</title>
<polygon fill="#b0e0e6" stroke="#4169e1" points="101,-252 24,-252 24,-216 101,-216 101,-252"/>
<text text-anchor="middle" x="62.5" y="-230.3" font-family="sans" font-size="14.00" fill="#000000">VEHICLE</text>
</g>
<!-- LAND_VEHICLE -->
<g id="node2" class="node">
<title>LAND_VEHICLE</title>
<polygon fill="#b0e0e6" stroke="#4169e1" points="125,-180 0,-180 0,-144 125,-144 125,-180"/>
<text text-anchor="middle" x="62.5" y="-158.3" font-family="sans" font-size="14.00" fill="#000000">LAND_VEHICLE</text>
</g>
<!-- VEHICLE&#45;&gt;LAND_VEHICLE -->
<g id="edge1" class="edge">
<title>VEHICLE&#45;&gt;LAND_VEHICLE</title>
<path fill="none" stroke="#000000" d="M62.5,-215.8314C62.5,-208.131 62.5,-198.9743 62.5,-190.4166"/>
<polygon fill="#000000" stroke="#000000" points="66.0001,-190.4132 62.5,-180.4133 59.0001,-190.4133 66.0001,-190.4132"/>
</g>
<!-- BICYCLE -->
<g id="node3" class="node">
<title>BICYCLE</title>
<polygon fill="#b0e0e6" stroke="#4169e1" points="100.5,-108 24.5,-108 24.5,-72 100.5,-72 100.5,-108"/>
<text text-anchor="middle" x="62.5" y="-86.3" font-family="sans" font-size="14.00" fill="#000000">BICYCLE</text>
</g>
<!-- LAND_VEHICLE&#45;&gt;BICYCLE -->
<g id="edge2" class="edge">
<title>LAND_VEHICLE&#45;&gt;BICYCLE</title>
<path fill="none" stroke="#000000" d="M62.5,-143.8314C62.5,-136.131 62.5,-126.9743 62.5,-118.4166"/>
<polygon fill="#000000" stroke="#000000" points="66.0001,-118.4132 62.5,-108.4133 59.0001,-118.4133 66.0001,-118.4132"/>
</g>
<!-- penny_farthing -->
<g id="node5" class="node">
<title>penny_farthing</title>
<polygon fill="#b0e0e6" stroke="#4169e1" points="207,-36 54,-36 54,0 207,0 207,-36"/>
<text text-anchor="middle" x="130.5" y="-14.3" font-family="sans" font-size="14.00" fill="#000000">penny_farthing</text>
</g>
<!-- BICYCLE&#45;&gt;penny_farthing -->
<g id="edge3" class="edge">
<title>BICYCLE&#45;&gt;penny_farthing</title>
<path fill="none" stroke="#000000" d="M79.6593,-71.8314C87.6511,-63.3694 97.3038,-53.1489 106.0416,-43.8971"/>
<polygon fill="#000000" stroke="#000000" points="108.788,-46.0866 113.1097,-36.4133 103.6989,-41.2802 108.788,-46.0866"/>
</g>
<!-- HUMAN_ENGINE -->
<g id="node4" class="node">
<title>HUMAN_ENGINE</title>
<polygon fill="#b0e0e6" stroke="#4169e1" points="278.5,-108 118.5,-108 118.5,-72 278.5,-72 278.5,-108"/>
<text text-anchor="middle" x="198.5" y="-86.3" font-family="sans" font-size="14.00" fill="#000000">HUMAN_ENGINE</text>
</g>
<!-- HUMAN_ENGINE&#45;&gt;penny_farthing -->
<g id="edge4" class="edge">
<title>HUMAN_ENGINE&#45;&gt;penny_farthing</title>
<path fill="none" stroke="#000000" d="M181.3407,-71.8314C173.3489,-63.3694 163.6962,-53.1489 154.9584,-43.8971"/>
<polygon fill="#000000" stroke="#000000" points="157.3011,-41.2802 147.8903,-36.4133 152.212,-46.0866 157.3011,-41.2802"/>
</g>
</g>
</svg>
