<?xml version="1.0" encoding="UTF-8" standalone="no"?>
<!DOCTYPE svg PUBLIC "-//W3C//DTD SVG 1.1//EN"
 "http://www.w3.org/Graphics/SVG/1.1/DTD/svg11.dtd">
<!-- Generated by graphviz version 14.1.2 (20260126.1125)
 -->
<!-- Title: example Pages: 1 -->
<svg width="180pt" height="265pt"
 viewBox="0.00 0.00 180.00 265.00" xmlns="http://www.w3.org/2000/svg" xmlns:xlink="http://www.w3.org/1999/xlink">
<g id="graph0" class="graph" transform="scale(1 1) rotate(0) translate(4 261.25)">
<title>example</title>
<polygon fill="none" stroke="none" points="-4,4 -4,-261.25 176,-261.25 176,4 -4,4"/>
<g id="clust1" class="cluster">
<title>cluster_success</title>
<polygon fill="none" stroke="green" stroke-dasharray="5,2" points="8,-64 8,-141.25 86,-141.25 86,-64 8,-64"/>
<text xml:space="preserve" text-anchor="middle" x="47" y="-123.95" font-family="sans" font-size="14.00" fill="green">:succeed</text>
</g>
<g id="clust2" class="cluster">
<title>cluster_failure</title>
<polygon fill="none" stroke="red" stroke-dasharray="5,2" points="94,-64 94,-141.25 164,-141.25 164,-64 94,-64"/>
<text xml:space="preserve" text-anchor="middle" x="129" y="-123.95" font-family="sans" font-size="14.00" fill="red">:fail</text>
</g>
<!-- c -->
<g id="node1" class="node">
<title>c</title>
<ellipse fill="none" stroke="black" cx="51" cy="-90" rx="27" ry="18"/>
<text xml:space="preserve" text-anchor="middle" x="51" y="-85.33" font-family="sans" font-size="14.00">c</text>
</g>
<!-- d -->
<g id="node5" class="node">
<title>d</title>
<ellipse fill="none" stroke="black" cx="90" cy="-18" rx="27" ry="18"/>
<text xml:space="preserve" text-anchor="middle" x="90" y="-13.32" font-family="sans" font-size="14.00">d</text>
</g>
<!-- c&#45;&gt;d -->
<g id="edge3" class="edge">
<title>c&#45;&gt;d</title>
<path fill="none" stroke="black" d="M60.05,-72.76C64.62,-64.55 70.29,-54.37 75.46,-45.09"/>
<polygon fill="black" stroke="black" points="78.46,-46.91 80.27,-36.47 72.34,-43.5 78.46,-46.91"/>
</g>
<!-- r -->
<g id="node2" class="node">
<title>r</title>
<ellipse fill="none" stroke="black" cx="129" cy="-90" rx="27" ry="18"/>
<text xml:space="preserve" text-anchor="middle" x="129" y="-85.33" font-family="sans" font-size="14.00">r</text>
</g>
<!-- r&#45;&gt;d -->
<g id="edge5" class="edge">
<title>r&#45;&gt;d</title>
<path fill="none" stroke="black" d="M119.95,-72.76C115.38,-64.55 109.71,-54.37 104.54,-45.09"/>
<polygon fill="black" stroke="black" points="107.66,-43.5 99.73,-36.47 101.54,-46.91 107.66,-43.5"/>
</g>
<!-- a -->
<g id="node3" class="node">
<title>a</title>
<ellipse fill="none" stroke="black" cx="90" cy="-239.25" rx="27" ry="18"/>
<text xml:space="preserve" text-anchor="middle" x="90" y="-234.57" font-family="sans" font-size="14.00">a</text>
</g>
<!-- b -->
<g id="node4" class="node">
<title>b</title>
<ellipse fill="none" stroke="black" cx="90" cy="-167.25" rx="27" ry="18"/>
<text xml:space="preserve" text-anchor="middle" x="90" y="-162.57" font-family="sans" font-size="14.00">b</text>
</g>
<!-- a&#45;&gt;b -->
<g id="edge1" class="edge">
<title>a&#45;&gt;b</title>
<path fill="none" stroke="black" d="M90,-220.95C90,-213.66 90,-204.98 90,-196.79"/>
<polygon fill="black" stroke="black" points="93.5,-196.87 90,-186.87 86.5,-196.87 93.5,-196.87"/>
</g>
<!-- b&#45;&gt;c -->
<g id="edge2" class="edge">
<title>b&#45;&gt;c</title>
<path fill="none" stroke="black" d="M81.54,-149.92C76.66,-140.52 70.42,-128.47 64.85,-117.73"/>
<polygon fill="black" stroke="black" points="67.99,-116.17 60.28,-108.9 61.77,-119.39 67.99,-116.17"/>
</g>
<!-- b&#45;&gt;r -->
<g id="edge4" class="edge">
<title>b&#45;&gt;r</title>
<path fill="none" stroke="black" d="M98.46,-149.92C103.34,-140.52 109.58,-128.47 115.15,-117.73"/>
<polygon fill="black" stroke="black" points="118.23,-119.39 119.72,-108.9 112.01,-116.17 118.23,-119.39"/>
</g>
</g>
</svg>
