<?xml version="1.0" encoding="UTF-8" standalone="no"?>
<!DOCTYPE svg PUBLIC "-//W3C//DTD SVG 1.1//EN"
 "http://www.w3.org/Graphics/SVG/1.1/DTD/svg11.dtd">
<!-- Generated by graphviz version 14.1.2 (20260126.1125)
 -->
<!-- Pages: 1 -->
<svg width="534pt" height="2607pt"
 viewBox="0.00 0.00 534.00 2607.00" xmlns="http://www.w3.org/2000/svg" xmlns:xlink="http://www.w3.org/1999/xlink">
<g id="graph0" class="graph" transform="scale(1 1) rotate(0) translate(4 2603.25)">
<polygon fill="none" stroke="none" points="-4,4 -4,-2603.25 529.5,-2603.25 529.5,4 -4,4"/>
<!-- absolute_outputs -->
<g id="node1" class="node">
<title>absolute_outputs</title>
<polygon fill="none" stroke="black" points="39.5,-85.75 39.5,-115.25 204.75,-115.25 204.75,-85.75 39.5,-85.75"/>
<text xml:space="preserve" text-anchor="start" x="44.5" y="-96.05" font-family="Helvetica,sans-Serif" font-weight="bold" font-size="16.00">absolute_outputs</text>
<polygon fill="none" stroke="black" points="39.5,-58.5 39.5,-85.75 204.75,-85.75 204.75,-58.5 39.5,-58.5"/>
<text xml:space="preserve" text-anchor="start" x="44.5" y="-68.45" font-family="Helvetica,sans-Serif" font-size="14.00">cycle</text>
<text xml:space="preserve" text-anchor="start" x="79.75" y="-68.45" font-family="Helvetica,sans-Serif" font-size="14.00"> </text>
<polygon fill="none" stroke="black" points="39.5,-31.25 39.5,-58.5 204.75,-58.5 204.75,-31.25 39.5,-31.25"/>
<text xml:space="preserve" text-anchor="start" x="44.5" y="-41.2" font-family="Helvetica,sans-Serif" font-size="14.00">name</text>
<text xml:space="preserve" text-anchor="start" x="83.5" y="-41.2" font-family="Helvetica,sans-Serif" font-size="14.00"> </text>
<polygon fill="none" stroke="black" points="39.5,-4 39.5,-31.25 204.75,-31.25 204.75,-4 39.5,-4"/>
<text xml:space="preserve" text-anchor="start" x="44.5" y="-13.95" font-family="Helvetica,sans-Serif" font-size="14.00">output</text>
<text xml:space="preserve" text-anchor="start" x="90.25" y="-13.95" font-family="Helvetica,sans-Serif" font-size="14.00"> </text>
</g>
<!-- broadcast_events -->
<g id="node2" class="node">
<title>broadcast_events</title>
<polygon fill="none" stroke="black" points="38,-304.62 38,-334.12 206.25,-334.12 206.25,-304.62 38,-304.62"/>
<text xml:space="preserve" text-anchor="start" x="43" y="-314.93" font-family="Helvetica,sans-Serif" font-weight="bold" font-size="16.00">broadcast_events</text>
<polygon fill="none" stroke="black" points="38,-277.38 38,-304.62 206.25,-304.62 206.25,-277.38 38,-277.38"/>
<text xml:space="preserve" text-anchor="start" x="43" y="-287.32" font-family="Helvetica,sans-Serif" font-size="14.00">time</text>
<text xml:space="preserve" text-anchor="start" x="73.75" y="-287.32" font-family="Helvetica,sans-Serif" font-size="14.00"> </text>
<polygon fill="none" stroke="black" points="38,-250.12 38,-277.38 206.25,-277.38 206.25,-250.12 38,-250.12"/>
<text xml:space="preserve" text-anchor="start" x="43" y="-260.07" font-family="Helvetica,sans-Serif" font-size="14.00">change</text>
<text xml:space="preserve" text-anchor="start" x="94" y="-260.07" font-family="Helvetica,sans-Serif" font-size="14.00"> </text>
<polygon fill="none" stroke="black" points="38,-222.88 38,-250.12 206.25,-250.12 206.25,-222.88 38,-222.88"/>
<text xml:space="preserve" text-anchor="start" x="43" y="-232.82" font-family="Helvetica,sans-Serif" font-size="14.00">point</text>
<text xml:space="preserve" text-anchor="start" x="78.25" y="-232.82" font-family="Helvetica,sans-Serif" font-size="14.00"> </text>
<polygon fill="none" stroke="black" points="38,-195.62 38,-222.88 206.25,-222.88 206.25,-195.62 38,-195.62"/>
<text xml:space="preserve" text-anchor="start" x="43" y="-205.57" font-family="Helvetica,sans-Serif" font-size="14.00">namespace</text>
<text xml:space="preserve" text-anchor="start" x="122.5" y="-205.57" font-family="Helvetica,sans-Serif" font-size="14.00"> </text>
<polygon fill="none" stroke="black" points="38,-168.38 38,-195.62 206.25,-195.62 206.25,-168.38 38,-168.38"/>
<text xml:space="preserve" text-anchor="start" x="43" y="-178.32" font-family="Helvetica,sans-Serif" font-size="14.00">key</text>
<text xml:space="preserve" text-anchor="start" x="67" y="-178.32" font-family="Helvetica,sans-Serif" font-size="14.00"> </text>
<polygon fill="none" stroke="black" points="38,-141.12 38,-168.38 206.25,-168.38 206.25,-141.12 38,-141.12"/>
<text xml:space="preserve" text-anchor="start" x="43" y="-151.07" font-family="Helvetica,sans-Serif" font-size="14.00">value</text>
<text xml:space="preserve" text-anchor="start" x="80.5" y="-151.07" font-family="Helvetica,sans-Serif" font-size="14.00"> </text>
</g>
<!-- broadcast_states -->
<g id="node3" class="node">
<title>broadcast_states</title>
<polygon fill="none" stroke="black" points="37.62,-469.38 37.62,-498.88 206.62,-498.88 206.62,-469.38 37.62,-469.38"/>
<text xml:space="preserve" text-anchor="start" x="45.25" y="-479.68" font-family="Helvetica,sans-Serif" font-weight="bold" font-size="16.00">broadcast_states</text>
<polygon fill="none" stroke="black" points="37.62,-442.12 37.62,-469.38 206.62,-469.38 206.62,-442.12 37.62,-442.12"/>
<text xml:space="preserve" text-anchor="start" x="42.62" y="-452.07" font-family="Helvetica,sans-Serif" text-decoration="underline" font-size="14.00">point</text>
<text xml:space="preserve" text-anchor="start" x="77.88" y="-452.07" font-family="Helvetica,sans-Serif" font-size="14.00"> &#160;NOT NULL</text>
<polygon fill="none" stroke="black" points="37.62,-414.88 37.62,-442.12 206.62,-442.12 206.62,-414.88 37.62,-414.88"/>
<text xml:space="preserve" text-anchor="start" x="42.62" y="-424.82" font-family="Helvetica,sans-Serif" text-decoration="underline" font-size="14.00">namespace</text>
<text xml:space="preserve" text-anchor="start" x="122.12" y="-424.82" font-family="Helvetica,sans-Serif" font-size="14.00"> &#160;NOT NULL</text>
<polygon fill="none" stroke="black" points="37.62,-387.62 37.62,-414.88 206.62,-414.88 206.62,-387.62 37.62,-387.62"/>
<text xml:space="preserve" text-anchor="start" x="42.62" y="-397.57" font-family="Helvetica,sans-Serif" text-decoration="underline" font-size="14.00">key</text>
<text xml:space="preserve" text-anchor="start" x="66.62" y="-397.57" font-family="Helvetica,sans-Serif" font-size="14.00"> &#160;NOT NULL</text>
<polygon fill="none" stroke="black" points="37.62,-360.38 37.62,-387.62 206.62,-387.62 206.62,-360.38 37.62,-360.38"/>
<text xml:space="preserve" text-anchor="start" x="42.62" y="-370.32" font-family="Helvetica,sans-Serif" font-size="14.00">value</text>
<text xml:space="preserve" text-anchor="start" x="80.12" y="-370.32" font-family="Helvetica,sans-Serif" font-size="14.00"> </text>
</g>
<!-- inheritance -->
<g id="node4" class="node">
<title>inheritance</title>
<polygon fill="none" stroke="black" points="37.62,-579.12 37.62,-608.62 206.62,-608.62 206.62,-579.12 37.62,-579.12"/>
<text xml:space="preserve" text-anchor="start" x="71.5" y="-589.42" font-family="Helvetica,sans-Serif" font-weight="bold" font-size="16.00">inheritance</text>
<polygon fill="none" stroke="black" points="37.62,-551.88 37.62,-579.12 206.62,-579.12 206.62,-551.88 37.62,-551.88"/>
<text xml:space="preserve" text-anchor="start" x="42.62" y="-561.83" font-family="Helvetica,sans-Serif" text-decoration="underline" font-size="14.00">namespace</text>
<text xml:space="preserve" text-anchor="start" x="122.12" y="-561.83" font-family="Helvetica,sans-Serif" font-size="14.00"> &#160;NOT NULL</text>
<polygon fill="none" stroke="black" points="37.62,-524.62 37.62,-551.88 206.62,-551.88 206.62,-524.62 37.62,-524.62"/>
<text xml:space="preserve" text-anchor="start" x="42.62" y="-534.58" font-family="Helvetica,sans-Serif" font-size="14.00">inheritance</text>
<text xml:space="preserve" text-anchor="start" x="120.62" y="-534.58" font-family="Helvetica,sans-Serif" font-size="14.00"> </text>
</g>
<!-- task_action_timers -->
<g id="node5" class="node">
<title>task_action_timers</title>
<polygon fill="none" stroke="black" points="332.38,-1167.88 332.38,-1197.38 510.38,-1197.38 510.38,-1167.88 332.38,-1167.88"/>
<text xml:space="preserve" text-anchor="start" x="337.38" y="-1178.17" font-family="Helvetica,sans-Serif" font-weight="bold" font-size="16.00">task_action_timers</text>
<polygon fill="none" stroke="black" points="332.38,-1140.62 332.38,-1167.88 510.38,-1167.88 510.38,-1140.62 332.38,-1140.62"/>
<text xml:space="preserve" text-anchor="start" x="337.38" y="-1150.58" font-family="Helvetica,sans-Serif" text-decoration="underline" font-size="14.00">cycle</text>
<text xml:space="preserve" text-anchor="start" x="372.62" y="-1150.58" font-family="Helvetica,sans-Serif" font-size="14.00"> &#160;NOT NULL</text>
<polygon fill="none" stroke="black" points="332.38,-1113.38 332.38,-1140.62 510.38,-1140.62 510.38,-1113.38 332.38,-1113.38"/>
<text xml:space="preserve" text-anchor="start" x="337.38" y="-1123.33" font-family="Helvetica,sans-Serif" text-decoration="underline" font-size="14.00">name</text>
<text xml:space="preserve" text-anchor="start" x="376.38" y="-1123.33" font-family="Helvetica,sans-Serif" font-size="14.00"> &#160;NOT NULL</text>
<polygon fill="none" stroke="black" points="332.38,-1086.12 332.38,-1113.38 510.38,-1113.38 510.38,-1086.12 332.38,-1086.12"/>
<text xml:space="preserve" text-anchor="start" x="337.38" y="-1096.08" font-family="Helvetica,sans-Serif" text-decoration="underline" font-size="14.00">ctx_key</text>
<text xml:space="preserve" text-anchor="start" x="389.12" y="-1096.08" font-family="Helvetica,sans-Serif" font-size="14.00"> &#160;NOT NULL</text>
<polygon fill="none" stroke="black" points="332.38,-1058.88 332.38,-1086.12 510.38,-1086.12 510.38,-1058.88 332.38,-1058.88"/>
<text xml:space="preserve" text-anchor="start" x="337.38" y="-1068.83" font-family="Helvetica,sans-Serif" font-size="14.00">ctx</text>
<text xml:space="preserve" text-anchor="start" x="358.38" y="-1068.83" font-family="Helvetica,sans-Serif" font-size="14.00"> </text>
<polygon fill="none" stroke="black" points="332.38,-1031.62 332.38,-1058.88 510.38,-1058.88 510.38,-1031.62 332.38,-1031.62"/>
<text xml:space="preserve" text-anchor="start" x="337.38" y="-1041.58" font-family="Helvetica,sans-Serif" font-size="14.00">delays</text>
<text xml:space="preserve" text-anchor="start" x="382.38" y="-1041.58" font-family="Helvetica,sans-Serif" font-size="14.00"> </text>
<polygon fill="none" stroke="black" points="332.38,-1004.38 332.38,-1031.62 510.38,-1031.62 510.38,-1004.38 332.38,-1004.38"/>
<text xml:space="preserve" text-anchor="start" x="337.38" y="-1014.33" font-family="Helvetica,sans-Serif" font-size="14.00">num</text>
<text xml:space="preserve" text-anchor="start" x="368.88" y="-1014.33" font-family="Helvetica,sans-Serif" font-size="14.00"> </text>
<polygon fill="none" stroke="black" points="332.38,-977.12 332.38,-1004.38 510.38,-1004.38 510.38,-977.12 332.38,-977.12"/>
<text xml:space="preserve" text-anchor="start" x="337.38" y="-987.08" font-family="Helvetica,sans-Serif" font-size="14.00">delay</text>
<text xml:space="preserve" text-anchor="start" x="374.88" y="-987.08" font-family="Helvetica,sans-Serif" font-size="14.00"> </text>
<polygon fill="none" stroke="black" points="332.38,-949.88 332.38,-977.12 510.38,-977.12 510.38,-949.88 332.38,-949.88"/>
<text xml:space="preserve" text-anchor="start" x="337.38" y="-959.83" font-family="Helvetica,sans-Serif" font-size="14.00">timeout</text>
<text xml:space="preserve" text-anchor="start" x="390.62" y="-959.83" font-family="Helvetica,sans-Serif" font-size="14.00"> </text>
</g>
<!-- task_events -->
<g id="node6" class="node">
<title>task_events</title>
<polygon fill="none" stroke="black" points="363.12,-1878.62 363.12,-1908.12 479.62,-1908.12 479.62,-1878.62 363.12,-1878.62"/>
<text xml:space="preserve" text-anchor="start" x="368.12" y="-1888.92" font-family="Helvetica,sans-Serif" font-weight="bold" font-size="16.00">task_events</text>
<polygon fill="none" stroke="black" points="363.12,-1851.38 363.12,-1878.62 479.62,-1878.62 479.62,-1851.38 363.12,-1851.38"/>
<text xml:space="preserve" text-anchor="start" x="368.12" y="-1861.33" font-family="Helvetica,sans-Serif" font-size="14.00">name</text>
<text xml:space="preserve" text-anchor="start" x="407.12" y="-1861.33" font-family="Helvetica,sans-Serif" font-size="14.00"> </text>
<polygon fill="none" stroke="black" points="363.12,-1824.12 363.12,-1851.38 479.62,-1851.38 479.62,-1824.12 363.12,-1824.12"/>
<text xml:space="preserve" text-anchor="start" x="368.12" y="-1834.08" font-family="Helvetica,sans-Serif" font-size="14.00">cycle</text>
<text xml:space="preserve" text-anchor="start" x="403.38" y="-1834.08" font-family="Helvetica,sans-Serif" font-size="14.00"> </text>
<polygon fill="none" stroke="black" points="363.12,-1796.88 363.12,-1824.12 479.62,-1824.12 479.62,-1796.88 363.12,-1796.88"/>
<text xml:space="preserve" text-anchor="start" x="368.12" y="-1806.83" font-family="Helvetica,sans-Serif" font-size="14.00">time</text>
<text xml:space="preserve" text-anchor="start" x="398.88" y="-1806.83" font-family="Helvetica,sans-Serif" font-size="14.00"> </text>
<polygon fill="none" stroke="black" points="363.12,-1769.62 363.12,-1796.88 479.62,-1796.88 479.62,-1769.62 363.12,-1769.62"/>
<text xml:space="preserve" text-anchor="start" x="368.12" y="-1779.58" font-family="Helvetica,sans-Serif" font-size="14.00">submit_num</text>
<text xml:space="preserve" text-anchor="start" x="454.38" y="-1779.58" font-family="Helvetica,sans-Serif" font-size="14.00"> </text>
<polygon fill="none" stroke="black" points="363.12,-1742.38 363.12,-1769.62 479.62,-1769.62 479.62,-1742.38 363.12,-1742.38"/>
<text xml:space="preserve" text-anchor="start" x="368.12" y="-1752.33" font-family="Helvetica,sans-Serif" font-size="14.00">event</text>
<text xml:space="preserve" text-anchor="start" x="407.12" y="-1752.33" font-family="Helvetica,sans-Serif" font-size="14.00"> </text>
<polygon fill="none" stroke="black" points="363.12,-1715.12 363.12,-1742.38 479.62,-1742.38 479.62,-1715.12 363.12,-1715.12"/>
<text xml:space="preserve" text-anchor="start" x="368.12" y="-1725.08" font-family="Helvetica,sans-Serif" font-size="14.00">message</text>
<text xml:space="preserve" text-anchor="start" x="430.38" y="-1725.08" font-family="Helvetica,sans-Serif" font-size="14.00"> </text>
</g>
<!-- task_jobs -->
<g id="node7" class="node">
<title>task_jobs</title>
<polygon fill="none" stroke="black" points="333.5,-1659.88 333.5,-1689.38 509.25,-1689.38 509.25,-1659.88 333.5,-1659.88"/>
<text xml:space="preserve" text-anchor="start" x="379.38" y="-1670.17" font-family="Helvetica,sans-Serif" font-weight="bold" font-size="16.00">task_jobs</text>
<polygon fill="none" stroke="black" points="333.5,-1632.62 333.5,-1659.88 509.25,-1659.88 509.25,-1632.62 333.5,-1632.62"/>
<text xml:space="preserve" text-anchor="start" x="338.5" y="-1642.58" font-family="Helvetica,sans-Serif" text-decoration="underline" font-size="14.00">cycle</text>
<text xml:space="preserve" text-anchor="start" x="373.75" y="-1642.58" font-family="Helvetica,sans-Serif" font-size="14.00"> &#160;NOT NULL</text>
<polygon fill="none" stroke="black" points="333.5,-1605.38 333.5,-1632.62 509.25,-1632.62 509.25,-1605.38 333.5,-1605.38"/>
<text xml:space="preserve" text-anchor="start" x="338.5" y="-1615.33" font-family="Helvetica,sans-Serif" text-decoration="underline" font-size="14.00">name</text>
<text xml:space="preserve" text-anchor="start" x="377.5" y="-1615.33" font-family="Helvetica,sans-Serif" font-size="14.00"> &#160;NOT NULL</text>
<polygon fill="none" stroke="black" points="333.5,-1578.12 333.5,-1605.38 509.25,-1605.38 509.25,-1578.12 333.5,-1578.12"/>
<text xml:space="preserve" text-anchor="start" x="338.5" y="-1588.08" font-family="Helvetica,sans-Serif" text-decoration="underline" font-size="14.00">submit_num</text>
<text xml:space="preserve" text-anchor="start" x="424.75" y="-1588.08" font-family="Helvetica,sans-Serif" font-size="14.00"> &#160;NOT NULL</text>
<polygon fill="none" stroke="black" points="333.5,-1550.88 333.5,-1578.12 509.25,-1578.12 509.25,-1550.88 333.5,-1550.88"/>
<text xml:space="preserve" text-anchor="start" x="338.5" y="-1560.83" font-family="Helvetica,sans-Serif" font-size="14.00">flow_nums</text>
<text xml:space="preserve" text-anchor="start" x="412.75" y="-1560.83" font-family="Helvetica,sans-Serif" font-size="14.00"> </text>
<polygon fill="none" stroke="black" points="333.5,-1523.62 333.5,-1550.88 509.25,-1550.88 509.25,-1523.62 333.5,-1523.62"/>
<text xml:space="preserve" text-anchor="start" x="338.5" y="-1533.58" font-family="Helvetica,sans-Serif" font-size="14.00">is_manual_submit</text>
<text xml:space="preserve" text-anchor="start" x="463" y="-1533.58" font-family="Helvetica,sans-Serif" font-size="14.00"> </text>
<polygon fill="none" stroke="black" points="333.5,-1496.38 333.5,-1523.62 509.25,-1523.62 509.25,-1496.38 333.5,-1496.38"/>
<text xml:space="preserve" text-anchor="start" x="338.5" y="-1506.33" font-family="Helvetica,sans-Serif" font-size="14.00">try_num</text>
<text xml:space="preserve" text-anchor="start" x="396.25" y="-1506.33" font-family="Helvetica,sans-Serif" font-size="14.00"> </text>
<polygon fill="none" stroke="black" points="333.5,-1469.12 333.5,-1496.38 509.25,-1496.38 509.25,-1469.12 333.5,-1469.12"/>
<text xml:space="preserve" text-anchor="start" x="338.5" y="-1479.08" font-family="Helvetica,sans-Serif" font-size="14.00">time_submit</text>
<text xml:space="preserve" text-anchor="start" x="424" y="-1479.08" font-family="Helvetica,sans-Serif" font-size="14.00"> </text>
<polygon fill="none" stroke="black" points="333.5,-1441.88 333.5,-1469.12 509.25,-1469.12 509.25,-1441.88 333.5,-1441.88"/>
<text xml:space="preserve" text-anchor="start" x="338.5" y="-1451.83" font-family="Helvetica,sans-Serif" font-size="14.00">time_submit_exit</text>
<text xml:space="preserve" text-anchor="start" x="456.25" y="-1451.83" font-family="Helvetica,sans-Serif" font-size="14.00"> </text>
<polygon fill="none" stroke="black" points="333.5,-1414.62 333.5,-1441.88 509.25,-1441.88 509.25,-1414.62 333.5,-1414.62"/>
<text xml:space="preserve" text-anchor="start" x="338.5" y="-1424.58" font-family="Helvetica,sans-Serif" font-size="14.00">submit_status</text>
<text xml:space="preserve" text-anchor="start" x="436" y="-1424.58" font-family="Helvetica,sans-Serif" font-size="14.00"> </text>
<polygon fill="none" stroke="black" points="333.5,-1387.38 333.5,-1414.62 509.25,-1414.62 509.25,-1387.38 333.5,-1387.38"/>
<text xml:space="preserve" text-anchor="start" x="338.5" y="-1397.33" font-family="Helvetica,sans-Serif" font-size="14.00">time_run</text>
<text xml:space="preserve" text-anchor="start" x="400" y="-1397.33" font-family="Helvetica,sans-Serif" font-size="14.00"> </text>
<polygon fill="none" stroke="black" points="333.5,-1360.12 333.5,-1387.38 509.25,-1387.38 509.25,-1360.12 333.5,-1360.12"/>
<text xml:space="preserve" text-anchor="start" x="338.5" y="-1370.08" font-family="Helvetica,sans-Serif" font-size="14.00">time_run_exit</text>
<text xml:space="preserve" text-anchor="start" x="432.25" y="-1370.08" font-family="Helvetica,sans-Serif" font-size="14.00"> </text>
<polygon fill="none" stroke="black" points="333.5,-1332.88 333.5,-1360.12 509.25,-1360.12 509.25,-1332.88 333.5,-1332.88"/>
<text xml:space="preserve" text-anchor="start" x="338.5" y="-1342.83" font-family="Helvetica,sans-Serif" font-size="14.00">run_signal</text>
<text xml:space="preserve" text-anchor="start" x="410.5" y="-1342.83" font-family="Helvetica,sans-Serif" font-size="14.00"> </text>
<polygon fill="none" stroke="black" points="333.5,-1305.62 333.5,-1332.88 509.25,-1332.88 509.25,-1305.62 333.5,-1305.62"/>
<text xml:space="preserve" text-anchor="start" x="338.5" y="-1315.58" font-family="Helvetica,sans-Serif" font-size="14.00">run_status</text>
<text xml:space="preserve" text-anchor="start" x="412" y="-1315.58" font-family="Helvetica,sans-Serif" font-size="14.00"> </text>
<polygon fill="none" stroke="black" points="333.5,-1278.38 333.5,-1305.62 509.25,-1305.62 509.25,-1278.38 333.5,-1278.38"/>
<text xml:space="preserve" text-anchor="start" x="338.5" y="-1288.33" font-family="Helvetica,sans-Serif" font-size="14.00">platform_name</text>
<text xml:space="preserve" text-anchor="start" x="442.75" y="-1288.33" font-family="Helvetica,sans-Serif" font-size="14.00"> </text>
<polygon fill="none" stroke="black" points="333.5,-1251.12 333.5,-1278.38 509.25,-1278.38 509.25,-1251.12 333.5,-1251.12"/>
<text xml:space="preserve" text-anchor="start" x="338.5" y="-1261.08" font-family="Helvetica,sans-Serif" font-size="14.00">job_runner_name</text>
<text xml:space="preserve" text-anchor="start" x="459.25" y="-1261.08" font-family="Helvetica,sans-Serif" font-size="14.00"> </text>
<polygon fill="none" stroke="black" points="333.5,-1223.88 333.5,-1251.12 509.25,-1251.12 509.25,-1223.88 333.5,-1223.88"/>
<text xml:space="preserve" text-anchor="start" x="338.5" y="-1233.83" font-family="Helvetica,sans-Serif" font-size="14.00">job_id</text>
<text xml:space="preserve" text-anchor="start" x="379" y="-1233.83" font-family="Helvetica,sans-Serif" font-size="14.00"> </text>
</g>
<!-- task_late_flags -->
<g id="node8" class="node">
<title>task_late_flags</title>
<polygon fill="none" stroke="black" points="350.38,-894.75 350.38,-924.25 492.38,-924.25 492.38,-894.75 350.38,-894.75"/>
<text xml:space="preserve" text-anchor="start" x="355.38" y="-905.05" font-family="Helvetica,sans-Serif" font-weight="bold" font-size="16.00">task_late_flags</text>
<polygon fill="none" stroke="black" points="350.38,-867.5 350.38,-894.75 492.38,-894.75 492.38,-867.5 350.38,-867.5"/>
<text xml:space="preserve" text-anchor="start" x="355.38" y="-877.45" font-family="Helvetica,sans-Serif" text-decoration="underline" font-size="14.00">cycle</text>
<text xml:space="preserve" text-anchor="start" x="390.62" y="-877.45" font-family="Helvetica,sans-Serif" font-size="14.00"> &#160;NOT NULL</text>
<polygon fill="none" stroke="black" points="350.38,-840.25 350.38,-867.5 492.38,-867.5 492.38,-840.25 350.38,-840.25"/>
<text xml:space="preserve" text-anchor="start" x="355.38" y="-850.2" font-family="Helvetica,sans-Serif" text-decoration="underline" font-size="14.00">name</text>
<text xml:space="preserve" text-anchor="start" x="394.38" y="-850.2" font-family="Helvetica,sans-Serif" font-size="14.00"> &#160;NOT NULL</text>
<polygon fill="none" stroke="black" points="350.38,-813 350.38,-840.25 492.38,-840.25 492.38,-813 350.38,-813"/>
<text xml:space="preserve" text-anchor="start" x="355.38" y="-822.95" font-family="Helvetica,sans-Serif" font-size="14.00">value</text>
<text xml:space="preserve" text-anchor="start" x="392.88" y="-822.95" font-family="Helvetica,sans-Serif" font-size="14.00"> </text>
</g>
<!-- task_outputs -->
<g id="node9" class="node">
<title>task_outputs</title>
<polygon fill="none" stroke="black" points="339.5,-757.38 339.5,-786.88 503.25,-786.88 503.25,-757.38 339.5,-757.38"/>
<text xml:space="preserve" text-anchor="start" x="363.25" y="-767.67" font-family="Helvetica,sans-Serif" font-weight="bold" font-size="16.00">task_outputs</text>
<polygon fill="none" stroke="black" points="339.5,-730.12 339.5,-757.38 503.25,-757.38 503.25,-730.12 339.5,-730.12"/>
<text xml:space="preserve" text-anchor="start" x="344.5" y="-740.08" font-family="Helvetica,sans-Serif" text-decoration="underline" font-size="14.00">cycle</text>
<text xml:space="preserve" text-anchor="start" x="379.75" y="-740.08" font-family="Helvetica,sans-Serif" font-size="14.00"> &#160;NOT NULL</text>
<polygon fill="none" stroke="black" points="339.5,-702.88 339.5,-730.12 503.25,-730.12 503.25,-702.88 339.5,-702.88"/>
<text xml:space="preserve" text-anchor="start" x="344.5" y="-712.83" font-family="Helvetica,sans-Serif" text-decoration="underline" font-size="14.00">name</text>
<text xml:space="preserve" text-anchor="start" x="383.5" y="-712.83" font-family="Helvetica,sans-Serif" font-size="14.00"> &#160;NOT NULL</text>
<polygon fill="none" stroke="black" points="339.5,-675.62 339.5,-702.88 503.25,-702.88 503.25,-675.62 339.5,-675.62"/>
<text xml:space="preserve" text-anchor="start" x="344.5" y="-685.58" font-family="Helvetica,sans-Serif" text-decoration="underline" font-size="14.00">flow_nums</text>
<text xml:space="preserve" text-anchor="start" x="418.75" y="-685.58" font-family="Helvetica,sans-Serif" font-size="14.00"> &#160;NOT NULL</text>
<polygon fill="none" stroke="black" points="339.5,-648.38 339.5,-675.62 503.25,-675.62 503.25,-648.38 339.5,-648.38"/>
<text xml:space="preserve" text-anchor="start" x="344.5" y="-658.33" font-family="Helvetica,sans-Serif" font-size="14.00">outputs</text>
<text xml:space="preserve" text-anchor="start" x="397.75" y="-658.33" font-family="Helvetica,sans-Serif" font-size="14.00"> </text>
</g>
<!-- task_pool -->
<g id="node10" class="node">
<title>task_pool</title>
<polygon fill="none" stroke="black" points="40.25,-771 40.25,-800.5 204,-800.5 204,-771 40.25,-771"/>
<text xml:space="preserve" text-anchor="start" x="79.38" y="-781.3" font-family="Helvetica,sans-Serif" font-weight="bold" font-size="16.00">task_pool</text>
<polygon fill="none" stroke="black" points="40.25,-743.75 40.25,-771 204,-771 204,-743.75 40.25,-743.75"/>
<text xml:space="preserve" text-anchor="start" x="45.25" y="-753.7" font-family="Helvetica,sans-Serif" text-decoration="underline" font-size="14.00">cycle</text>
<text xml:space="preserve" text-anchor="start" x="80.5" y="-753.7" font-family="Helvetica,sans-Serif" font-size="14.00"> &#160;NOT NULL</text>
<polygon fill="none" stroke="black" points="40.25,-716.5 40.25,-743.75 204,-743.75 204,-716.5 40.25,-716.5"/>
<text xml:space="preserve" text-anchor="start" x="45.25" y="-726.45" font-family="Helvetica,sans-Serif" text-decoration="underline" font-size="14.00">name</text>
<text xml:space="preserve" text-anchor="start" x="84.25" y="-726.45" font-family="Helvetica,sans-Serif" font-size="14.00"> &#160;NOT NULL</text>
<polygon fill="none" stroke="black" points="40.25,-689.25 40.25,-716.5 204,-716.5 204,-689.25 40.25,-689.25"/>
<text xml:space="preserve" text-anchor="start" x="45.25" y="-699.2" font-family="Helvetica,sans-Serif" text-decoration="underline" font-size="14.00">flow_nums</text>
<text xml:space="preserve" text-anchor="start" x="119.5" y="-699.2" font-family="Helvetica,sans-Serif" font-size="14.00"> &#160;NOT NULL</text>
<polygon fill="none" stroke="black" points="40.25,-662 40.25,-689.25 204,-689.25 204,-662 40.25,-662"/>
<text xml:space="preserve" text-anchor="start" x="45.25" y="-671.95" font-family="Helvetica,sans-Serif" font-size="14.00">status</text>
<text xml:space="preserve" text-anchor="start" x="88" y="-671.95" font-family="Helvetica,sans-Serif" font-size="14.00"> </text>
<polygon fill="none" stroke="black" points="40.25,-634.75 40.25,-662 204,-662 204,-634.75 40.25,-634.75"/>
<text xml:space="preserve" text-anchor="start" x="45.25" y="-644.7" font-family="Helvetica,sans-Serif" font-size="14.00">is_held</text>
<text xml:space="preserve" text-anchor="start" x="93.25" y="-644.7" font-family="Helvetica,sans-Serif" font-size="14.00"> </text>
</g>
<!-- task_pool&#45;&#45;task_action_timers -->
<g id="edge3" class="edge">
<title>task_pool&#45;&#45;task_action_timers</title>
<path fill="none" stroke="#7f7f7f" stroke-dasharray="5,2" d="M195.46,-804.26C234.3,-850.77 282.67,-908.71 324.6,-958.92"/>
<text xml:space="preserve" text-anchor="start" x="284.1" y="-945.62" font-family="Times,serif" font-size="14.00">{0,1}</text>
<text xml:space="preserve" text-anchor="start" x="165.46" y="-808.21" font-family="Times,serif" font-size="14.00">0..N</text>
</g>
<!-- task_pool&#45;&#45;task_late_flags -->
<g id="edge4" class="edge">
<title>task_pool&#45;&#45;task_late_flags</title>
<path fill="none" stroke="#7f7f7f" stroke-dasharray="5,2" d="M211.91,-762.73C253.48,-783.84 302.55,-808.77 342.63,-829.13"/>
<text xml:space="preserve" text-anchor="start" x="302.13" y="-815.83" font-family="Times,serif" font-size="14.00">{0,1}</text>
<text xml:space="preserve" text-anchor="start" x="211.91" y="-749.43" font-family="Times,serif" font-size="14.00">{0,1}</text>
</g>
<!-- task_pool&#45;&#45;task_outputs -->
<g id="edge5" class="edge">
<title>task_pool&#45;&#45;task_outputs</title>
<path fill="none" stroke="#7f7f7f" stroke-dasharray="5,2" d="M211.91,-717.62C249.71,-717.62 293.72,-717.62 331.54,-717.62"/>
<text xml:space="preserve" text-anchor="start" x="291.04" y="-704.33" font-family="Times,serif" font-size="14.00">{0,1}</text>
<text xml:space="preserve" text-anchor="start" x="211.91" y="-704.33" font-family="Times,serif" font-size="14.00">0..N</text>
</g>
<!-- task_prerequisites -->
<g id="node11" class="node">
<title>task_prerequisites</title>
<polygon fill="none" stroke="black" points="327.88,-593.25 327.88,-622.75 514.88,-622.75 514.88,-593.25 327.88,-593.25"/>
<text xml:space="preserve" text-anchor="start" x="338.5" y="-603.55" font-family="Helvetica,sans-Serif" font-weight="bold" font-size="16.00">task_prerequisites</text>
<polygon fill="none" stroke="black" points="327.88,-566 327.88,-593.25 514.88,-593.25 514.88,-566 327.88,-566"/>
<text xml:space="preserve" text-anchor="start" x="332.88" y="-575.95" font-family="Helvetica,sans-Serif" text-decoration="underline" font-size="14.00">cycle</text>
<text xml:space="preserve" text-anchor="start" x="368.12" y="-575.95" font-family="Helvetica,sans-Serif" font-size="14.00"> &#160;NOT NULL</text>
<polygon fill="none" stroke="black" points="327.88,-538.75 327.88,-566 514.88,-566 514.88,-538.75 327.88,-538.75"/>
<text xml:space="preserve" text-anchor="start" x="332.88" y="-548.7" font-family="Helvetica,sans-Serif" text-decoration="underline" font-size="14.00">name</text>
<text xml:space="preserve" text-anchor="start" x="371.88" y="-548.7" font-family="Helvetica,sans-Serif" font-size="14.00"> &#160;NOT NULL</text>
<polygon fill="none" stroke="black" points="327.88,-511.5 327.88,-538.75 514.88,-538.75 514.88,-511.5 327.88,-511.5"/>
<text xml:space="preserve" text-anchor="start" x="332.88" y="-521.45" font-family="Helvetica,sans-Serif" text-decoration="underline" font-size="14.00">flow_nums</text>
<text xml:space="preserve" text-anchor="start" x="407.12" y="-521.45" font-family="Helvetica,sans-Serif" font-size="14.00"> &#160;NOT NULL</text>
<polygon fill="none" stroke="black" points="327.88,-484.25 327.88,-511.5 514.88,-511.5 514.88,-484.25 327.88,-484.25"/>
<text xml:space="preserve" text-anchor="start" x="332.88" y="-494.2" font-family="Helvetica,sans-Serif" text-decoration="underline" font-size="14.00">prereq_name</text>
<text xml:space="preserve" text-anchor="start" x="423.62" y="-494.2" font-family="Helvetica,sans-Serif" font-size="14.00"> &#160;NOT NULL</text>
<polygon fill="none" stroke="black" points="327.88,-457 327.88,-484.25 514.88,-484.25 514.88,-457 327.88,-457"/>
<text xml:space="preserve" text-anchor="start" x="332.88" y="-466.95" font-family="Helvetica,sans-Serif" text-decoration="underline" font-size="14.00">prereq_cycle</text>
<text xml:space="preserve" text-anchor="start" x="419.88" y="-466.95" font-family="Helvetica,sans-Serif" font-size="14.00"> &#160;NOT NULL</text>
<polygon fill="none" stroke="black" points="327.88,-429.75 327.88,-457 514.88,-457 514.88,-429.75 327.88,-429.75"/>
<text xml:space="preserve" text-anchor="start" x="332.88" y="-439.7" font-family="Helvetica,sans-Serif" text-decoration="underline" font-size="14.00">prereq_output</text>
<text xml:space="preserve" text-anchor="start" x="430.38" y="-439.7" font-family="Helvetica,sans-Serif" font-size="14.00"> &#160;NOT NULL</text>
<polygon fill="none" stroke="black" points="327.88,-402.5 327.88,-429.75 514.88,-429.75 514.88,-402.5 327.88,-402.5"/>
<text xml:space="preserve" text-anchor="start" x="332.88" y="-412.45" font-family="Helvetica,sans-Serif" font-size="14.00">satisfied</text>
<text xml:space="preserve" text-anchor="start" x="391.38" y="-412.45" font-family="Helvetica,sans-Serif" font-size="14.00"> </text>
</g>
<!-- task_pool&#45;&#45;task_prerequisites -->
<g id="edge6" class="edge">
<title>task_pool&#45;&#45;task_prerequisites</title>
<path fill="none" stroke="#7f7f7f" stroke-dasharray="5,2" d="M211.91,-656.4C245.95,-632.92 285.02,-605.97 320.07,-581.8"/>
<text xml:space="preserve" text-anchor="start" x="279.57" y="-568.5" font-family="Times,serif" font-size="14.00">{0,1}</text>
<text xml:space="preserve" text-anchor="start" x="211.91" y="-643.1" font-family="Times,serif" font-size="14.00">0..N</text>
</g>
<!-- task_timeout_timers -->
<g id="node13" class="node">
<title>task_timeout_timers</title>
<polygon fill="none" stroke="black" points="325.25,-346.75 325.25,-376.25 517.5,-376.25 517.5,-346.75 325.25,-346.75"/>
<text xml:space="preserve" text-anchor="start" x="330.25" y="-357.05" font-family="Helvetica,sans-Serif" font-weight="bold" font-size="16.00">task_timeout_timers</text>
<polygon fill="none" stroke="black" points="325.25,-319.5 325.25,-346.75 517.5,-346.75 517.5,-319.5 325.25,-319.5"/>
<text xml:space="preserve" text-anchor="start" x="330.25" y="-329.45" font-family="Helvetica,sans-Serif" text-decoration="underline" font-size="14.00">cycle</text>
<text xml:space="preserve" text-anchor="start" x="365.5" y="-329.45" font-family="Helvetica,sans-Serif" font-size="14.00"> &#160;NOT NULL</text>
<polygon fill="none" stroke="black" points="325.25,-292.25 325.25,-319.5 517.5,-319.5 517.5,-292.25 325.25,-292.25"/>
<text xml:space="preserve" text-anchor="start" x="330.25" y="-302.2" font-family="Helvetica,sans-Serif" text-decoration="underline" font-size="14.00">name</text>
<text xml:space="preserve" text-anchor="start" x="369.25" y="-302.2" font-family="Helvetica,sans-Serif" font-size="14.00"> &#160;NOT NULL</text>
<polygon fill="none" stroke="black" points="325.25,-265 325.25,-292.25 517.5,-292.25 517.5,-265 325.25,-265"/>
<text xml:space="preserve" text-anchor="start" x="330.25" y="-274.95" font-family="Helvetica,sans-Serif" font-size="14.00">timeout</text>
<text xml:space="preserve" text-anchor="start" x="383.5" y="-274.95" font-family="Helvetica,sans-Serif" font-size="14.00"> </text>
</g>
<!-- task_pool&#45;&#45;task_timeout_timers -->
<g id="edge7" class="edge">
<title>task_pool&#45;&#45;task_timeout_timers</title>
<path fill="none" stroke="#7f7f7f" stroke-dasharray="5,2" d="M211.97,-657.74C224,-646.8 235.28,-634.67 244.25,-621.62 305.53,-532.58 252.44,-476.13 317.25,-389.62 319.7,-386.35 322.36,-383.18 325.18,-380.12"/>
<text xml:space="preserve" text-anchor="start" x="284.68" y="-384.07" font-family="Times,serif" font-size="14.00">{0,1}</text>
<text xml:space="preserve" text-anchor="start" x="211.97" y="-661.69" font-family="Times,serif" font-size="14.00">{0,1}</text>
</g>
<!-- task_states -->
<g id="node12" class="node">
<title>task_states</title>
<polygon fill="none" stroke="black" points="40.25,-1742.5 40.25,-1772 204,-1772 204,-1742.5 40.25,-1742.5"/>
<text xml:space="preserve" text-anchor="start" x="71.12" y="-1752.8" font-family="Helvetica,sans-Serif" font-weight="bold" font-size="16.00">task_states</text>
<polygon fill="none" stroke="black" points="40.25,-1715.25 40.25,-1742.5 204,-1742.5 204,-1715.25 40.25,-1715.25"/>
<text xml:space="preserve" text-anchor="start" x="45.25" y="-1725.2" font-family="Helvetica,sans-Serif" text-decoration="underline" font-size="14.00">name</text>
<text xml:space="preserve" text-anchor="start" x="84.25" y="-1725.2" font-family="Helvetica,sans-Serif" font-size="14.00"> &#160;NOT NULL</text>
<polygon fill="none" stroke="black" points="40.25,-1688 40.25,-1715.25 204,-1715.25 204,-1688 40.25,-1688"/>
<text xml:space="preserve" text-anchor="start" x="45.25" y="-1697.95" font-family="Helvetica,sans-Serif" text-decoration="underline" font-size="14.00">cycle</text>
<text xml:space="preserve" text-anchor="start" x="80.5" y="-1697.95" font-family="Helvetica,sans-Serif" font-size="14.00"> &#160;NOT NULL</text>
<polygon fill="none" stroke="black" points="40.25,-1660.75 40.25,-1688 204,-1688 204,-1660.75 40.25,-1660.75"/>
<text xml:space="preserve" text-anchor="start" x="45.25" y="-1670.7" font-family="Helvetica,sans-Serif" text-decoration="underline" font-size="14.00">flow_nums</text>
<text xml:space="preserve" text-anchor="start" x="119.5" y="-1670.7" font-family="Helvetica,sans-Serif" font-size="14.00"> &#160;NOT NULL</text>
<polygon fill="none" stroke="black" points="40.25,-1633.5 40.25,-1660.75 204,-1660.75 204,-1633.5 40.25,-1633.5"/>
<text xml:space="preserve" text-anchor="start" x="45.25" y="-1643.45" font-family="Helvetica,sans-Serif" font-size="14.00">time_created</text>
<text xml:space="preserve" text-anchor="start" x="134.5" y="-1643.45" font-family="Helvetica,sans-Serif" font-size="14.00"> </text>
<polygon fill="none" stroke="black" points="40.25,-1606.25 40.25,-1633.5 204,-1633.5 204,-1606.25 40.25,-1606.25"/>
<text xml:space="preserve" text-anchor="start" x="45.25" y="-1616.2" font-family="Helvetica,sans-Serif" font-size="14.00">time_updated</text>
<text xml:space="preserve" text-anchor="start" x="140.5" y="-1616.2" font-family="Helvetica,sans-Serif" font-size="14.00"> </text>
<polygon fill="none" stroke="black" points="40.25,-1579 40.25,-1606.25 204,-1606.25 204,-1579 40.25,-1579"/>
<text xml:space="preserve" text-anchor="start" x="45.25" y="-1588.95" font-family="Helvetica,sans-Serif" font-size="14.00">submit_num</text>
<text xml:space="preserve" text-anchor="start" x="131.5" y="-1588.95" font-family="Helvetica,sans-Serif" font-size="14.00"> </text>
<polygon fill="none" stroke="black" points="40.25,-1551.75 40.25,-1579 204,-1579 204,-1551.75 40.25,-1551.75"/>
<text xml:space="preserve" text-anchor="start" x="45.25" y="-1561.7" font-family="Helvetica,sans-Serif" font-size="14.00">status</text>
<text xml:space="preserve" text-anchor="start" x="88" y="-1561.7" font-family="Helvetica,sans-Serif" font-size="14.00"> </text>
<polygon fill="none" stroke="black" points="40.25,-1524.5 40.25,-1551.75 204,-1551.75 204,-1524.5 40.25,-1524.5"/>
<text xml:space="preserve" text-anchor="start" x="45.25" y="-1534.45" font-family="Helvetica,sans-Serif" font-size="14.00">flow_wait</text>
<text xml:space="preserve" text-anchor="start" x="109" y="-1534.45" font-family="Helvetica,sans-Serif" font-size="14.00"> </text>
<polygon fill="none" stroke="black" points="40.25,-1497.25 40.25,-1524.5 204,-1524.5 204,-1497.25 40.25,-1497.25"/>
<text xml:space="preserve" text-anchor="start" x="45.25" y="-1507.2" font-family="Helvetica,sans-Serif" font-size="14.00">is_manual_submit</text>
<text xml:space="preserve" text-anchor="start" x="169.75" y="-1507.2" font-family="Helvetica,sans-Serif" font-size="14.00"> </text>
</g>
<!-- task_states&#45;&#45;task_events -->
<g id="edge1" class="edge">
<title>task_states&#45;&#45;task_events</title>
<path fill="none" stroke="#7f7f7f" stroke-dasharray="5,2" d="M211.91,-1687.49C257.93,-1714.89 313.13,-1747.77 355.17,-1772.8"/>
<text xml:space="preserve" text-anchor="start" x="314.67" y="-1759.5" font-family="Times,serif" font-size="14.00">{0,1}</text>
<text xml:space="preserve" text-anchor="start" x="211.91" y="-1674.19" font-family="Times,serif" font-size="14.00">0..N</text>
</g>
<!-- task_states&#45;&#45;task_jobs -->
<g id="edge2" class="edge">
<title>task_states&#45;&#45;task_jobs</title>
<path fill="none" stroke="#7f7f7f" stroke-dasharray="5,2" d="M211.91,-1581.46C247.75,-1560 289.16,-1535.2 325.59,-1513.39"/>
<text xml:space="preserve" text-anchor="start" x="285.09" y="-1500.09" font-family="Times,serif" font-size="14.00">{0,1}</text>
<text xml:space="preserve" text-anchor="start" x="211.91" y="-1568.16" font-family="Times,serif" font-size="14.00">0..N</text>
</g>
<!-- tasks_to_hold -->
<g id="node14" class="node">
<title>tasks_to_hold</title>
<polygon fill="none" stroke="black" points="56,-1852.12 56,-1881.62 188.25,-1881.62 188.25,-1852.12 56,-1852.12"/>
<text xml:space="preserve" text-anchor="start" x="61" y="-1862.42" font-family="Helvetica,sans-Serif" font-weight="bold" font-size="16.00">tasks_to_hold</text>
<polygon fill="none" stroke="black" points="56,-1824.88 56,-1852.12 188.25,-1852.12 188.25,-1824.88 56,-1824.88"/>
<text xml:space="preserve" text-anchor="start" x="61" y="-1834.83" font-family="Helvetica,sans-Serif" font-size="14.00">name</text>
<text xml:space="preserve" text-anchor="start" x="100" y="-1834.83" font-family="Helvetica,sans-Serif" font-size="14.00"> </text>
<polygon fill="none" stroke="black" points="56,-1797.62 56,-1824.88 188.25,-1824.88 188.25,-1797.62 56,-1797.62"/>
<text xml:space="preserve" text-anchor="start" x="61" y="-1807.58" font-family="Helvetica,sans-Serif" font-size="14.00">cycle</text>
<text xml:space="preserve" text-anchor="start" x="96.25" y="-1807.58" font-family="Helvetica,sans-Serif" font-size="14.00"> </text>
</g>
<!-- workflow_flows -->
<g id="node15" class="node">
<title>workflow_flows</title>
<polygon fill="none" stroke="black" points="44,-1989.75 44,-2019.25 200.25,-2019.25 200.25,-1989.75 44,-1989.75"/>
<text xml:space="preserve" text-anchor="start" x="52.38" y="-2000.05" font-family="Helvetica,sans-Serif" font-weight="bold" font-size="16.00">workflow_flows</text>
<polygon fill="none" stroke="black" points="44,-1962.5 44,-1989.75 200.25,-1989.75 200.25,-1962.5 44,-1962.5"/>
<text xml:space="preserve" text-anchor="start" x="49" y="-1972.45" font-family="Helvetica,sans-Serif" text-decoration="underline" font-size="14.00">flow_num</text>
<text xml:space="preserve" text-anchor="start" x="115.75" y="-1972.45" font-family="Helvetica,sans-Serif" font-size="14.00"> &#160;NOT NULL</text>
<polygon fill="none" stroke="black" points="44,-1935.25 44,-1962.5 200.25,-1962.5 200.25,-1935.25 44,-1935.25"/>
<text xml:space="preserve" text-anchor="start" x="49" y="-1945.2" font-family="Helvetica,sans-Serif" font-size="14.00">start_time</text>
<text xml:space="preserve" text-anchor="start" x="118.75" y="-1945.2" font-family="Helvetica,sans-Serif" font-size="14.00"> </text>
<polygon fill="none" stroke="black" points="44,-1908 44,-1935.25 200.25,-1935.25 200.25,-1908 44,-1908"/>
<text xml:space="preserve" text-anchor="start" x="49" y="-1917.95" font-family="Helvetica,sans-Serif" font-size="14.00">description</text>
<text xml:space="preserve" text-anchor="start" x="126.25" y="-1917.95" font-family="Helvetica,sans-Serif" font-size="14.00"> </text>
</g>
<!-- workflow_params -->
<g id="node16" class="node">
<title>workflow_params</title>
<polygon fill="none" stroke="black" points="38,-2100.12 38,-2129.62 206.25,-2129.62 206.25,-2100.12 38,-2100.12"/>
<text xml:space="preserve" text-anchor="start" x="43" y="-2110.43" font-family="Helvetica,sans-Serif" font-weight="bold" font-size="16.00">workflow_params</text>
<polygon fill="none" stroke="black" points="38,-2072.88 38,-2100.12 206.25,-2100.12 206.25,-2072.88 38,-2072.88"/>
<text xml:space="preserve" text-anchor="start" x="43" y="-2082.82" font-family="Helvetica,sans-Serif" text-decoration="underline" font-size="14.00">key</text>
<text xml:space="preserve" text-anchor="start" x="67" y="-2082.82" font-family="Helvetica,sans-Serif" font-size="14.00"> &#160;NOT NULL</text>
<polygon fill="none" stroke="black" points="38,-2045.62 38,-2072.88 206.25,-2072.88 206.25,-2045.62 38,-2045.62"/>
<text xml:space="preserve" text-anchor="start" x="43" y="-2055.57" font-family="Helvetica,sans-Serif" font-size="14.00">value</text>
<text xml:space="preserve" text-anchor="start" x="80.5" y="-2055.57" font-family="Helvetica,sans-Serif" font-size="14.00"> </text>
</g>
<!-- workflow_template_vars -->
<g id="node17" class="node">
<title>workflow_template_vars</title>
<polygon fill="none" stroke="black" points="8,-2210.12 8,-2239.62 236.25,-2239.62 236.25,-2210.12 8,-2210.12"/>
<text xml:space="preserve" text-anchor="start" x="13" y="-2220.43" font-family="Helvetica,sans-Serif" font-weight="bold" font-size="16.00">workflow_template_vars</text>
<polygon fill="none" stroke="black" points="8,-2182.88 8,-2210.12 236.25,-2210.12 236.25,-2182.88 8,-2182.88"/>
<text xml:space="preserve" text-anchor="start" x="13" y="-2192.82" font-family="Helvetica,sans-Serif" text-decoration="underline" font-size="14.00">key</text>
<text xml:space="preserve" text-anchor="start" x="37" y="-2192.82" font-family="Helvetica,sans-Serif" font-size="14.00"> &#160;NOT NULL</text>
<polygon fill="none" stroke="black" points="8,-2155.62 8,-2182.88 236.25,-2182.88 236.25,-2155.62 8,-2155.62"/>
<text xml:space="preserve" text-anchor="start" x="13" y="-2165.57" font-family="Helvetica,sans-Serif" font-size="14.00">value</text>
<text xml:space="preserve" text-anchor="start" x="50.5" y="-2165.57" font-family="Helvetica,sans-Serif" font-size="14.00"> </text>
</g>
<!-- xtriggers -->
<g id="node18" class="node">
<title>xtriggers</title>
<polygon fill="none" stroke="black" points="31.25,-2565.75 31.25,-2595.25 213,-2595.25 213,-2565.75 31.25,-2565.75"/>
<text xml:space="preserve" text-anchor="start" x="80.88" y="-2576.05" font-family="Helvetica,sans-Serif" font-weight="bold" font-size="16.00">xtriggers</text>
<polygon fill="none" stroke="black" points="31.25,-2538.5 31.25,-2565.75 213,-2565.75 213,-2538.5 31.25,-2538.5"/>
<text xml:space="preserve" text-anchor="start" x="36.25" y="-2548.45" font-family="Helvetica,sans-Serif" text-decoration="underline" font-size="14.00">signature</text>
<text xml:space="preserve" text-anchor="start" x="101.5" y="-2548.45" font-family="Helvetica,sans-Serif" font-size="14.00"> &#160;NOT NULL</text>
<polygon fill="none" stroke="black" points="31.25,-2511.25 31.25,-2538.5 213,-2538.5 213,-2511.25 31.25,-2511.25"/>
<text xml:space="preserve" text-anchor="start" x="36.25" y="-2521.2" font-family="Helvetica,sans-Serif" font-size="14.00">results</text>
<text xml:space="preserve" text-anchor="start" x="82.75" y="-2521.2" font-family="Helvetica,sans-Serif" font-size="14.00"> </text>
<polygon fill="none" stroke="black" points="31.25,-2484 31.25,-2511.25 213,-2511.25 213,-2484 31.25,-2484"/>
<text xml:space="preserve" text-anchor="start" x="36.25" y="-2493.95" font-family="Helvetica,sans-Serif" font-size="14.00">absolute_outputs</text>
<text xml:space="preserve" text-anchor="start" x="155.5" y="-2493.95" font-family="Helvetica,sans-Serif" font-size="14.00"> </text>
<polygon fill="none" stroke="black" points="31.25,-2456.75 31.25,-2484 213,-2484 213,-2456.75 31.25,-2456.75"/>
<text xml:space="preserve" text-anchor="start" x="36.25" y="-2466.7" font-family="Helvetica,sans-Serif" font-size="14.00">broadcast_events</text>
<text xml:space="preserve" text-anchor="start" x="157.75" y="-2466.7" font-family="Helvetica,sans-Serif" font-size="14.00"> </text>
<polygon fill="none" stroke="black" points="31.25,-2429.5 31.25,-2456.75 213,-2456.75 213,-2429.5 31.25,-2429.5"/>
<text xml:space="preserve" text-anchor="start" x="36.25" y="-2439.45" font-family="Helvetica,sans-Serif" font-size="14.00">broadcast_states</text>
<text xml:space="preserve" text-anchor="start" x="153.25" y="-2439.45" font-family="Helvetica,sans-Serif" font-size="14.00"> </text>
<polygon fill="none" stroke="black" points="31.25,-2402.25 31.25,-2429.5 213,-2429.5 213,-2402.25 31.25,-2402.25"/>
<text xml:space="preserve" text-anchor="start" x="36.25" y="-2412.2" font-family="Helvetica,sans-Serif" font-size="14.00">inheritance</text>
<text xml:space="preserve" text-anchor="start" x="114.25" y="-2412.2" font-family="Helvetica,sans-Serif" font-size="14.00"> </text>
<polygon fill="none" stroke="black" points="31.25,-2375 31.25,-2402.25 213,-2402.25 213,-2375 31.25,-2375"/>
<text xml:space="preserve" text-anchor="start" x="36.25" y="-2384.95" font-family="Helvetica,sans-Serif" font-size="14.00">tasks_to_hold</text>
<text xml:space="preserve" text-anchor="start" x="130" y="-2384.95" font-family="Helvetica,sans-Serif" font-size="14.00"> </text>
<polygon fill="none" stroke="black" points="31.25,-2347.75 31.25,-2375 213,-2375 213,-2347.75 31.25,-2347.75"/>
<text xml:space="preserve" text-anchor="start" x="36.25" y="-2357.7" font-family="Helvetica,sans-Serif" font-size="14.00">workflow_flows</text>
<text xml:space="preserve" text-anchor="start" x="141.25" y="-2357.7" font-family="Helvetica,sans-Serif" font-size="14.00"> </text>
<polygon fill="none" stroke="black" points="31.25,-2320.5 31.25,-2347.75 213,-2347.75 213,-2320.5 31.25,-2320.5"/>
<text xml:space="preserve" text-anchor="start" x="36.25" y="-2330.45" font-family="Helvetica,sans-Serif" font-size="14.00">workflow_params</text>
<text xml:space="preserve" text-anchor="start" x="157.75" y="-2330.45" font-family="Helvetica,sans-Serif" font-size="14.00"> </text>
<polygon fill="none" stroke="black" points="31.25,-2293.25 31.25,-2320.5 213,-2320.5 213,-2293.25 31.25,-2293.25"/>
<text xml:space="preserve" text-anchor="start" x="36.25" y="-2303.2" font-family="Helvetica,sans-Serif" font-size="14.00">workflow_template_vars</text>
<text xml:space="preserve" text-anchor="start" x="203.5" y="-2303.2" font-family="Helvetica,sans-Serif" font-size="14.00"> </text>
<polygon fill="none" stroke="black" points="31.25,-2266 31.25,-2293.25 213,-2293.25 213,-2266 31.25,-2266"/>
<text xml:space="preserve" text-anchor="start" x="36.25" y="-2275.95" font-family="Helvetica,sans-Serif" font-size="14.00">xtriggers</text>
<text xml:space="preserve" text-anchor="start" x="99.25" y="-2275.95" font-family="Helvetica,sans-Serif" font-size="14.00"> </text>
</g>
</g>
</svg>
