<?xml version="1.0" encoding="UTF-8" standalone="no"?>
<!DOCTYPE svg PUBLIC "-//W3C//DTD SVG 1.1//EN"
 "http://www.w3.org/Graphics/SVG/1.1/DTD/svg11.dtd">
<!-- Generated by graphviz version 13.1.2 (20250809.0930)
 -->
<!-- Title: Example Pages: 1 -->
<svg width="504pt" height="226pt"
 viewBox="0.00 0.00 504.00 226.00" xmlns="http://www.w3.org/2000/svg" xmlns:xlink="http://www.w3.org/1999/xlink">
<g id="graph0" class="graph" transform="scale(0.867507 0.867507) rotate(0) translate(4 256)">
<title>Example</title>
<polygon fill="none" stroke="none" points="-4,4 -4,-256 576.98,-256 576.98,4 -4,4"/>
<!-- VEHICLE -->
<g id="node1" class="node">
<title>VEHICLE</title>
<polygon fill="powderblue" stroke="royalblue" points="223.38,-252 147.38,-252 147.38,-216 223.38,-216 223.38,-252"/>
<text xml:space="preserve" text-anchor="middle" x="185.38" y="-229.32" font-family="sans" font-size="14.00">VEHICLE</text>
</g>
<!-- AIR_VEHICLE -->
<g id="node2" class="node">
<title>AIR_VEHICLE</title>
<polygon fill="powderblue" stroke="royalblue" points="106.75,-180 0,-180 0,-144 106.75,-144 106.75,-180"/>
<text xml:space="preserve" text-anchor="middle" x="53.38" y="-157.32" font-family="sans" font-size="14.00">AIR_VEHICLE</text>
</g>
<!-- VEHICLE&#45;&gt;AIR_VEHICLE -->
<g id="edge1" class="edge">
<title>VEHICLE&#45;&gt;AIR_VEHICLE</title>
<path fill="none" stroke="black" d="M152.41,-215.52C135.35,-206.47 114.32,-195.32 96.04,-185.62"/>
<polygon fill="black" stroke="black" points="97.74,-182.56 87.26,-180.97 94.46,-188.75 97.74,-182.56"/>
</g>
<!-- LAND_VEHICLE -->
<g id="node3" class="node">
<title>LAND_VEHICLE</title>
<polygon fill="powderblue" stroke="royalblue" points="246.25,-180 124.5,-180 124.5,-144 246.25,-144 246.25,-180"/>
<text xml:space="preserve" text-anchor="middle" x="185.38" y="-157.32" font-family="sans" font-size="14.00">LAND_VEHICLE</text>
</g>
<!-- VEHICLE&#45;&gt;LAND_VEHICLE -->
<g id="edge3" class="edge">
<title>VEHICLE&#45;&gt;LAND_VEHICLE</title>
<path fill="none" stroke="black" d="M185.38,-215.7C185.38,-208.41 185.38,-199.73 185.38,-191.54"/>
<polygon fill="black" stroke="black" points="188.88,-191.62 185.38,-181.62 181.88,-191.62 188.88,-191.62"/>
</g>
<!-- WATER_VEHICLE -->
<g id="node4" class="node">
<title>WATER_VEHICLE</title>
<polygon fill="powderblue" stroke="royalblue" points="394.75,-180 264,-180 264,-144 394.75,-144 394.75,-180"/>
<text xml:space="preserve" text-anchor="middle" x="329.38" y="-157.32" font-family="sans" font-size="14.00">WATER_VEHICLE</text>
</g>
<!-- VEHICLE&#45;&gt;WATER_VEHICLE -->
<g id="edge5" class="edge">
<title>VEHICLE&#45;&gt;WATER_VEHICLE</title>
<path fill="none" stroke="black" d="M221.34,-215.52C240.21,-206.34 263.53,-195.01 283.67,-185.22"/>
<polygon fill="black" stroke="black" points="285.04,-188.44 292.51,-180.92 281.98,-182.15 285.04,-188.44"/>
</g>
<!-- HOVERCRAFT -->
<g id="node5" class="node">
<title>HOVERCRAFT</title>
<polygon fill="powderblue" stroke="royalblue" points="264.88,-108 155.88,-108 155.88,-72 264.88,-72 264.88,-108"/>
<text xml:space="preserve" text-anchor="middle" x="210.38" y="-85.33" font-family="sans" font-size="14.00">HOVERCRAFT</text>
</g>
<!-- AIR_VEHICLE&#45;&gt;HOVERCRAFT -->
<g id="edge2" class="edge">
<title>AIR_VEHICLE&#45;&gt;HOVERCRAFT</title>
<path fill="none" stroke="black" d="M92.59,-143.52C113.27,-134.29 138.86,-122.89 160.89,-113.06"/>
<polygon fill="black" stroke="black" points="162.3,-116.27 170.01,-109 159.45,-109.87 162.3,-116.27"/>
</g>
<!-- LAND_VEHICLE&#45;&gt;HOVERCRAFT -->
<g id="edge4" class="edge">
<title>LAND_VEHICLE&#45;&gt;HOVERCRAFT</title>
<path fill="none" stroke="black" d="M191.55,-143.7C194.25,-136.15 197.48,-127.12 200.49,-118.68"/>
<polygon fill="black" stroke="black" points="203.69,-120.12 203.76,-109.53 197.1,-117.77 203.69,-120.12"/>
</g>
<!-- WATER_VEHICLE&#45;&gt;HOVERCRAFT -->
<g id="edge6" class="edge">
<title>WATER_VEHICLE&#45;&gt;HOVERCRAFT</title>
<path fill="none" stroke="black" d="M299.65,-143.52C284.49,-134.6 265.85,-123.63 249.53,-114.03"/>
<polygon fill="black" stroke="black" points="251.42,-111.08 241.02,-109.03 247.87,-117.11 251.42,-111.08"/>
</g>
<!-- bht130 -->
<g id="node6" class="node">
<title>bht130</title>
<polygon fill="powderblue" stroke="royalblue" points="348.5,-36 282.25,-36 282.25,0 348.5,0 348.5,-36"/>
<text xml:space="preserve" text-anchor="middle" x="315.38" y="-13.32" font-family="sans" font-size="14.00">bht130</text>
</g>
<!-- HOVERCRAFT&#45;&gt;bht130 -->
<g id="edge7" class="edge">
<title>HOVERCRAFT&#45;&gt;bht130</title>
<path fill="none" stroke="black" d="M236.6,-71.52C249.73,-62.76 265.81,-52.04 280.01,-42.58"/>
<polygon fill="black" stroke="black" points="281.85,-45.56 288.22,-37.1 277.96,-39.73 281.85,-45.56"/>
</g>
<!-- ENGINE -->
<g id="node7" class="node">
<title>ENGINE</title>
<polygon fill="powderblue" stroke="royalblue" points="482.38,-180 412.38,-180 412.38,-144 482.38,-144 482.38,-180"/>
<text xml:space="preserve" text-anchor="middle" x="447.38" y="-157.32" font-family="sans" font-size="14.00">ENGINE</text>
</g>
<!-- INTERNAL_COMBUSTION_ENGINE -->
<g id="node8" class="node">
<title>INTERNAL_COMBUSTION_ENGINE</title>
<polygon fill="powderblue" stroke="royalblue" points="572.98,-108 295.77,-108 295.77,-72 572.98,-72 572.98,-108"/>
<text xml:space="preserve" text-anchor="middle" x="434.38" y="-85.33" font-family="sans" font-size="14.00">INTERNAL_COMBUSTION_ENGINE</text>
</g>
<!-- ENGINE&#45;&gt;INTERNAL_COMBUSTION_ENGINE -->
<g id="edge8" class="edge">
<title>ENGINE&#45;&gt;INTERNAL_COMBUSTION_ENGINE</title>
<path fill="none" stroke="black" d="M444.16,-143.7C442.79,-136.32 441.16,-127.52 439.62,-119.25"/>
<polygon fill="black" stroke="black" points="443.1,-118.79 437.83,-109.59 436.21,-120.06 443.1,-118.79"/>
</g>
<!-- INTERNAL_COMBUSTION_ENGINE&#45;&gt;bht130 -->
<g id="edge9" class="edge">
<title>INTERNAL_COMBUSTION_ENGINE&#45;&gt;bht130</title>
<path fill="none" stroke="black" d="M404.65,-71.52C389.49,-62.6 370.85,-51.63 354.53,-42.03"/>
<polygon fill="black" stroke="black" points="356.42,-39.08 346.02,-37.03 352.87,-45.11 356.42,-39.08"/>
</g>
</g>
</svg>
