<?xml version="1.0" encoding="UTF-8" standalone="no"?>
<!DOCTYPE svg PUBLIC "-//W3C//DTD SVG 1.1//EN"
 "http://www.w3.org/Graphics/SVG/1.1/DTD/svg11.dtd">
<!-- Generated by graphviz version 8.1.0 (20230707.2238)
 -->
<!-- Title: example Pages: 1 -->
<svg width="504pt" height="468pt"
 viewBox="0.00 0.00 504.00 467.90" xmlns="http://www.w3.org/2000/svg" xmlns:xlink="http://www.w3.org/1999/xlink">
<g id="graph0" class="graph" transform="scale(0.467532 0.467532) rotate(0) translate(4 996.79)">
<title>example</title>
<polygon fill="none" stroke="none" points="-4,4 -4,-996.79 1074,-996.79 1074,4 -4,4"/>
<g id="clust1" class="cluster">
<title>cluster_1</title>
<polygon fill="none" stroke="black" stroke-dasharray="5,2" points="8,-589.87 8,-984.79 354,-984.79 354,-589.87 8,-589.87"/>
<text text-anchor="middle" x="181" y="-967.49" font-family="sans" font-size="14.00">1</text>
</g>
<g id="clust2" class="cluster">
<title>cluster_2</title>
<polygon fill="none" stroke="black" stroke-dasharray="5,2" points="362,-296.31 362,-691.23 708,-691.23 708,-296.31 362,-296.31"/>
<text text-anchor="middle" x="535" y="-673.93" font-family="sans" font-size="14.00">2</text>
</g>
<g id="clust3" class="cluster">
<title>cluster_3</title>
<polygon fill="none" stroke="black" stroke-dasharray="5,2" points="716,-8 716,-397.67 1062,-397.67 1062,-8 716,-8"/>
<text text-anchor="middle" x="889" y="-380.37" font-family="sans" font-size="14.00">3</text>
</g>
<!-- 1/pur -->
<g id="node1" class="node">
<title>1/pur</title>
<ellipse fill="none" stroke="black" cx="256" cy="-921.49" rx="89.8" ry="30.05"/>
<text text-anchor="middle" x="256" y="-925.44" font-family="sans" font-size="14.00">buy_ingredients</text>
<text text-anchor="middle" x="256" y="-908.19" font-family="sans" font-size="14.00">1</text>
</g>
<!-- 1/mak -->
<g id="node2" class="node">
<title>1/mak</title>
<ellipse fill="none" stroke="black" cx="272" cy="-825.38" rx="73.89" ry="30.05"/>
<text text-anchor="middle" x="272" y="-829.33" font-family="sans" font-size="14.00">make_dough</text>
<text text-anchor="middle" x="272" y="-812.08" font-family="sans" font-size="14.00">1</text>
</g>
<!-- 1/pur&#45;&gt;1/mak -->
<g id="edge1" class="edge">
<title>1/pur&#45;&gt;1/mak</title>
<path fill="none" stroke="black" d="M260.97,-891.23C262.31,-883.35 263.79,-874.69 265.21,-866.34"/>
<polygon fill="black" stroke="black" points="268.8,-867.07 267.03,-856.63 261.9,-865.9 268.8,-867.07"/>
</g>
<!-- 1/bak -->
<g id="node3" class="node">
<title>1/bak</title>
<ellipse fill="none" stroke="black" cx="203" cy="-729.28" rx="67.53" ry="30.05"/>
<text text-anchor="middle" x="203" y="-733.23" font-family="sans" font-size="14.00">bake_bread</text>
<text text-anchor="middle" x="203" y="-715.98" font-family="sans" font-size="14.00">1</text>
</g>
<!-- 1/mak&#45;&gt;1/bak -->
<g id="edge2" class="edge">
<title>1/mak&#45;&gt;1/bak</title>
<path fill="none" stroke="black" d="M251.3,-796.15C244.55,-786.95 236.96,-776.6 229.83,-766.87"/>
<polygon fill="black" stroke="black" points="232.19,-765.17 223.45,-759.17 226.54,-769.3 232.19,-765.17"/>
</g>
<!-- 1/sel -->
<g id="node4" class="node">
<title>1/sel</title>
<ellipse fill="none" stroke="black" cx="135" cy="-627.93" rx="60.63" ry="30.05"/>
<text text-anchor="middle" x="135" y="-631.88" font-family="sans" font-size="14.00">sell_bread</text>
<text text-anchor="middle" x="135" y="-614.63" font-family="sans" font-size="14.00">1</text>
</g>
<!-- 1/bak&#45;&gt;1/sel -->
<g id="edge3" class="edge">
<title>1/bak&#45;&gt;1/sel</title>
<path fill="none" stroke="black" d="M183.7,-700.08C176.38,-689.39 167.95,-677.07 160.18,-665.71"/>
<polygon fill="black" stroke="black" points="162.65,-664.13 154.12,-657.86 156.88,-668.09 162.65,-664.13"/>
</g>
<!-- 1/cle -->
<g id="node5" class="node">
<title>1/cle</title>
<ellipse fill="none" stroke="black" cx="280" cy="-627.93" rx="65.94" ry="30.05"/>
<text text-anchor="middle" x="280" y="-631.88" font-family="sans" font-size="14.00">clean_oven</text>
<text text-anchor="middle" x="280" y="-614.63" font-family="sans" font-size="14.00">1</text>
</g>
<!-- 1/bak&#45;&gt;1/cle -->
<g id="edge5" class="edge">
<title>1/bak&#45;&gt;1/cle</title>
<path fill="none" stroke="black" d="M224.65,-700.34C233.09,-689.46 242.87,-676.84 251.84,-665.26"/>
<polygon fill="black" stroke="black" points="255.15,-667.7 258.51,-657.66 249.62,-663.42 255.15,-667.7"/>
</g>
<!-- 2/pre -->
<g id="node12" class="node">
<title>2/pre</title>
<ellipse fill="none" stroke="black" cx="452" cy="-531.82" rx="82.38" ry="30.05"/>
<text text-anchor="middle" x="452" y="-535.77" font-family="sans" font-size="14.00">pre_heat_oven</text>
<text text-anchor="middle" x="452" y="-518.52" font-family="sans" font-size="14.00">2</text>
</g>
<!-- 1/cle&#45;&gt;2/pre -->
<g id="edge6" class="edge">
<title>1/cle&#45;&gt;2/pre</title>
<path fill="none" stroke="black" d="M321.64,-604.15C344.46,-591.66 373.02,-576.04 397.58,-562.6"/>
<polygon fill="black" stroke="black" points="399.04,-565.24 406.13,-557.37 395.68,-559.1 399.04,-565.24"/>
</g>
<!-- 1/pre -->
<g id="node6" class="node">
<title>1/pre</title>
<ellipse fill="none" stroke="black" cx="98" cy="-825.38" rx="82.38" ry="30.05"/>
<text text-anchor="middle" x="98" y="-829.33" font-family="sans" font-size="14.00">pre_heat_oven</text>
<text text-anchor="middle" x="98" y="-812.08" font-family="sans" font-size="14.00">1</text>
</g>
<!-- 1/pre&#45;&gt;1/bak -->
<g id="edge4" class="edge">
<title>1/pre&#45;&gt;1/bak</title>
<path fill="none" stroke="black" d="M128.37,-797.17C139.89,-786.85 153.14,-774.97 165.25,-764.11"/>
<polygon fill="black" stroke="black" points="167.31,-767.07 172.42,-757.79 162.64,-761.86 167.31,-767.07"/>
</g>
<!-- 2/pur -->
<g id="node7" class="node">
<title>2/pur</title>
<ellipse fill="none" stroke="black" cx="610" cy="-627.93" rx="89.8" ry="30.05"/>
<text text-anchor="middle" x="610" y="-631.88" font-family="sans" font-size="14.00">buy_ingredients</text>
<text text-anchor="middle" x="610" y="-614.63" font-family="sans" font-size="14.00">2</text>
</g>
<!-- 2/mak -->
<g id="node8" class="node">
<title>2/mak</title>
<ellipse fill="none" stroke="black" cx="626" cy="-531.82" rx="73.89" ry="30.05"/>
<text text-anchor="middle" x="626" y="-535.77" font-family="sans" font-size="14.00">make_dough</text>
<text text-anchor="middle" x="626" y="-518.52" font-family="sans" font-size="14.00">2</text>
</g>
<!-- 2/pur&#45;&gt;2/mak -->
<g id="edge7" class="edge">
<title>2/pur&#45;&gt;2/mak</title>
<path fill="none" stroke="black" d="M614.97,-597.67C616.31,-589.79 617.79,-581.13 619.21,-572.78"/>
<polygon fill="black" stroke="black" points="622.8,-573.51 621.03,-563.06 615.9,-572.34 622.8,-573.51"/>
</g>
<!-- 2/bak -->
<g id="node9" class="node">
<title>2/bak</title>
<ellipse fill="none" stroke="black" cx="557" cy="-435.72" rx="67.53" ry="30.05"/>
<text text-anchor="middle" x="557" y="-439.67" font-family="sans" font-size="14.00">bake_bread</text>
<text text-anchor="middle" x="557" y="-422.42" font-family="sans" font-size="14.00">2</text>
</g>
<!-- 2/mak&#45;&gt;2/bak -->
<g id="edge8" class="edge">
<title>2/mak&#45;&gt;2/bak</title>
<path fill="none" stroke="black" d="M605.3,-502.59C598.55,-493.39 590.96,-483.03 583.83,-473.31"/>
<polygon fill="black" stroke="black" points="586.19,-471.6 577.45,-465.61 580.54,-475.74 586.19,-471.6"/>
</g>
<!-- 2/sel -->
<g id="node10" class="node">
<title>2/sel</title>
<ellipse fill="none" stroke="black" cx="489" cy="-334.36" rx="60.63" ry="30.05"/>
<text text-anchor="middle" x="489" y="-338.31" font-family="sans" font-size="14.00">sell_bread</text>
<text text-anchor="middle" x="489" y="-321.06" font-family="sans" font-size="14.00">2</text>
</g>
<!-- 2/bak&#45;&gt;2/sel -->
<g id="edge9" class="edge">
<title>2/bak&#45;&gt;2/sel</title>
<path fill="none" stroke="black" d="M537.7,-406.51C530.38,-395.83 521.95,-383.51 514.18,-372.15"/>
<polygon fill="black" stroke="black" points="516.65,-370.57 508.12,-364.3 510.88,-374.53 516.65,-370.57"/>
</g>
<!-- 2/cle -->
<g id="node11" class="node">
<title>2/cle</title>
<ellipse fill="none" stroke="black" cx="634" cy="-334.36" rx="65.94" ry="30.05"/>
<text text-anchor="middle" x="634" y="-338.31" font-family="sans" font-size="14.00">clean_oven</text>
<text text-anchor="middle" x="634" y="-321.06" font-family="sans" font-size="14.00">2</text>
</g>
<!-- 2/bak&#45;&gt;2/cle -->
<g id="edge11" class="edge">
<title>2/bak&#45;&gt;2/cle</title>
<path fill="none" stroke="black" d="M578.65,-406.78C587.09,-395.89 596.87,-383.27 605.84,-371.7"/>
<polygon fill="black" stroke="black" points="609.15,-374.14 612.51,-364.09 603.62,-369.85 609.15,-374.14"/>
</g>
<!-- 3/pre -->
<g id="node18" class="node">
<title>3/pre</title>
<ellipse fill="none" stroke="black" cx="806" cy="-238.26" rx="82.38" ry="30.05"/>
<text text-anchor="middle" x="806" y="-242.21" font-family="sans" font-size="14.00">pre_heat_oven</text>
<text text-anchor="middle" x="806" y="-224.96" font-family="sans" font-size="14.00">3</text>
</g>
<!-- 2/cle&#45;&gt;3/pre -->
<g id="edge12" class="edge">
<title>2/cle&#45;&gt;3/pre</title>
<path fill="none" stroke="black" d="M675.64,-310.58C698.46,-298.1 727.02,-282.47 751.58,-269.03"/>
<polygon fill="black" stroke="black" points="753.04,-271.68 760.13,-263.81 749.68,-265.54 753.04,-271.68"/>
</g>
<!-- 2/pre&#45;&gt;2/bak -->
<g id="edge10" class="edge">
<title>2/pre&#45;&gt;2/bak</title>
<path fill="none" stroke="black" d="M482.37,-503.6C493.89,-493.28 507.14,-481.4 519.25,-470.55"/>
<polygon fill="black" stroke="black" points="521.31,-473.51 526.42,-464.23 516.64,-468.29 521.31,-473.51"/>
</g>
<!-- 3/pur -->
<g id="node13" class="node">
<title>3/pur</title>
<ellipse fill="none" stroke="black" cx="964" cy="-334.36" rx="89.8" ry="30.05"/>
<text text-anchor="middle" x="964" y="-338.31" font-family="sans" font-size="14.00">buy_ingredients</text>
<text text-anchor="middle" x="964" y="-321.06" font-family="sans" font-size="14.00">3</text>
</g>
<!-- 3/mak -->
<g id="node14" class="node">
<title>3/mak</title>
<ellipse fill="none" stroke="black" cx="980" cy="-238.26" rx="73.89" ry="30.05"/>
<text text-anchor="middle" x="980" y="-242.21" font-family="sans" font-size="14.00">make_dough</text>
<text text-anchor="middle" x="980" y="-224.96" font-family="sans" font-size="14.00">3</text>
</g>
<!-- 3/pur&#45;&gt;3/mak -->
<g id="edge13" class="edge">
<title>3/pur&#45;&gt;3/mak</title>
<path fill="none" stroke="black" d="M968.97,-304.1C970.31,-296.23 971.79,-287.57 973.21,-279.22"/>
<polygon fill="black" stroke="black" points="976.8,-279.95 975.03,-269.5 969.9,-278.77 976.8,-279.95"/>
</g>
<!-- 3/bak -->
<g id="node15" class="node">
<title>3/bak</title>
<ellipse fill="none" stroke="black" cx="873" cy="-142.16" rx="67.53" ry="30.05"/>
<text text-anchor="middle" x="873" y="-146.11" font-family="sans" font-size="14.00">bake_bread</text>
<text text-anchor="middle" x="873" y="-128.86" font-family="sans" font-size="14.00">3</text>
</g>
<!-- 3/mak&#45;&gt;3/bak -->
<g id="edge14" class="edge">
<title>3/mak&#45;&gt;3/bak</title>
<path fill="none" stroke="black" d="M949.62,-210.55C937.56,-199.94 923.56,-187.62 910.85,-176.44"/>
<polygon fill="black" stroke="black" points="913.53,-173.26 903.71,-169.29 908.91,-178.52 913.53,-173.26"/>
</g>
<!-- 3/sel -->
<g id="node16" class="node">
<title>3/sel</title>
<ellipse fill="none" stroke="black" cx="795" cy="-46.05" rx="60.63" ry="30.05"/>
<text text-anchor="middle" x="795" y="-50" font-family="sans" font-size="14.00">sell_bread</text>
<text text-anchor="middle" x="795" y="-32.75" font-family="sans" font-size="14.00">3</text>
</g>
<!-- 3/bak&#45;&gt;3/sel -->
<g id="edge15" class="edge">
<title>3/bak&#45;&gt;3/sel</title>
<path fill="none" stroke="black" d="M850.02,-113.43C842.01,-103.77 832.92,-92.8 824.46,-82.6"/>
<polygon fill="black" stroke="black" points="826.62,-80.72 817.55,-75.26 821.23,-85.19 826.62,-80.72"/>
</g>
<!-- 3/cle -->
<g id="node17" class="node">
<title>3/cle</title>
<ellipse fill="none" stroke="black" cx="940" cy="-46.05" rx="65.94" ry="30.05"/>
<text text-anchor="middle" x="940" y="-50" font-family="sans" font-size="14.00">clean_oven</text>
<text text-anchor="middle" x="940" y="-32.75" font-family="sans" font-size="14.00">3</text>
</g>
<!-- 3/bak&#45;&gt;3/cle -->
<g id="edge17" class="edge">
<title>3/bak&#45;&gt;3/cle</title>
<path fill="none" stroke="black" d="M892.92,-113.18C899.48,-103.97 906.87,-93.59 913.82,-83.82"/>
<polygon fill="black" stroke="black" points="917.09,-86.26 920.04,-76.09 911.39,-82.2 917.09,-86.26"/>
</g>
<!-- 3/pre&#45;&gt;3/bak -->
<g id="edge16" class="edge">
<title>3/pre&#45;&gt;3/bak</title>
<path fill="none" stroke="black" d="M826.28,-208.77C832.71,-199.75 839.9,-189.65 846.68,-180.13"/>
<polygon fill="black" stroke="black" points="850.07,-182.4 853.02,-172.23 844.36,-178.34 850.07,-182.4"/>
</g>
</g>
</svg>
