<?xml version="1.0" encoding="UTF-8" standalone="no"?>
<!DOCTYPE svg PUBLIC "-//W3C//DTD SVG 1.1//EN"
 "http://www.w3.org/Graphics/SVG/1.1/DTD/svg11.dtd">
<!-- Generated by graphviz version 8.1.0 (20230707.2238)
 -->
<!-- Title: Example Pages: 1 -->
<svg width="504pt" height="226pt"
 viewBox="0.00 0.00 504.00 225.55" xmlns="http://www.w3.org/2000/svg" xmlns:xlink="http://www.w3.org/1999/xlink">
<g id="graph0" class="graph" transform="scale(0.867507 0.867507) rotate(0) translate(4 256)">
<title>Example</title>
<polygon fill="none" stroke="none" points="-4,4 -4,-256 576.98,-256 576.98,4 -4,4"/>
<!-- VEHICLE -->
<g id="node1" class="node">
<title>VEHICLE</title>
<polygon fill="powderblue" stroke="royalblue" points="223.38,-252 147.38,-252 147.38,-216 223.38,-216 223.38,-252"/>
<text text-anchor="middle" x="185.38" y="-229.32" font-family="sans" font-size="14.00">VEHICLE</text>
</g>
<!-- AIR_VEHICLE -->
<g id="node2" class="node">
<title>AIR_VEHICLE</title>
<polygon fill="powderblue" stroke="royalblue" points="106.75,-180 0,-180 0,-144 106.75,-144 106.75,-180"/>
<text text-anchor="middle" x="53.38" y="-157.32" font-family="sans" font-size="14.00">AIR_VEHICLE</text>
</g>
<!-- VEHICLE&#45;&gt;AIR_VEHICLE -->
<g id="edge1" class="edge">
<title>VEHICLE&#45;&gt;AIR_VEHICLE</title>
<path fill="none" stroke="black" d="M152.41,-215.52C135.19,-206.39 113.93,-195.11 95.53,-185.35"/>
<polygon fill="black" stroke="black" points="97.4,-181.85 86.92,-180.26 94.12,-188.04 97.4,-181.85"/>
</g>
<!-- LAND_VEHICLE -->
<g id="node3" class="node">
<title>LAND_VEHICLE</title>
<polygon fill="powderblue" stroke="royalblue" points="246.25,-180 124.5,-180 124.5,-144 246.25,-144 246.25,-180"/>
<text text-anchor="middle" x="185.38" y="-157.32" font-family="sans" font-size="14.00">LAND_VEHICLE</text>
</g>
<!-- VEHICLE&#45;&gt;LAND_VEHICLE -->
<g id="edge3" class="edge">
<title>VEHICLE&#45;&gt;LAND_VEHICLE</title>
<path fill="none" stroke="black" d="M185.38,-215.7C185.38,-208.24 185.38,-199.32 185.38,-190.97"/>
<polygon fill="black" stroke="black" points="188.88,-191.1 185.38,-181.1 181.88,-191.1 188.88,-191.1"/>
</g>
<!-- WATER_VEHICLE -->
<g id="node4" class="node">
<title>WATER_VEHICLE</title>
<polygon fill="powderblue" stroke="royalblue" points="394.75,-180 264,-180 264,-144 394.75,-144 394.75,-180"/>
<text text-anchor="middle" x="329.38" y="-157.32" font-family="sans" font-size="14.00">WATER_VEHICLE</text>
</g>
<!-- VEHICLE&#45;&gt;WATER_VEHICLE -->
<g id="edge5" class="edge">
<title>VEHICLE&#45;&gt;WATER_VEHICLE</title>
<path fill="none" stroke="black" d="M221.34,-215.52C240.38,-206.26 263.96,-194.8 284.22,-184.95"/>
<polygon fill="black" stroke="black" points="285.4,-187.78 292.87,-180.26 282.34,-181.48 285.4,-187.78"/>
</g>
<!-- HOVERCRAFT -->
<g id="node5" class="node">
<title>HOVERCRAFT</title>
<polygon fill="powderblue" stroke="royalblue" points="264.88,-108 155.88,-108 155.88,-72 264.88,-72 264.88,-108"/>
<text text-anchor="middle" x="210.38" y="-85.33" font-family="sans" font-size="14.00">HOVERCRAFT</text>
</g>
<!-- AIR_VEHICLE&#45;&gt;HOVERCRAFT -->
<g id="edge2" class="edge">
<title>AIR_VEHICLE&#45;&gt;HOVERCRAFT</title>
<path fill="none" stroke="black" d="M92.59,-143.52C113.46,-134.21 139.32,-122.68 161.49,-112.79"/>
<polygon fill="black" stroke="black" points="162.68,-115.65 170.39,-108.38 159.83,-109.26 162.68,-115.65"/>
</g>
<!-- LAND_VEHICLE&#45;&gt;HOVERCRAFT -->
<g id="edge4" class="edge">
<title>LAND_VEHICLE&#45;&gt;HOVERCRAFT</title>
<path fill="none" stroke="black" d="M191.55,-143.7C194.28,-136.07 197.55,-126.92 200.59,-118.4"/>
<polygon fill="black" stroke="black" points="204.2,-119.7 204.27,-109.1 197.61,-117.34 204.2,-119.7"/>
</g>
<!-- WATER_VEHICLE&#45;&gt;HOVERCRAFT -->
<g id="edge6" class="edge">
<title>WATER_VEHICLE&#45;&gt;HOVERCRAFT</title>
<path fill="none" stroke="black" d="M299.65,-143.52C284.35,-134.51 265.5,-123.42 249.07,-113.76"/>
<polygon fill="black" stroke="black" points="251.11,-110.31 240.72,-108.26 247.56,-116.35 251.11,-110.31"/>
</g>
<!-- bht130 -->
<g id="node6" class="node">
<title>bht130</title>
<polygon fill="powderblue" stroke="royalblue" points="348.5,-36 282.25,-36 282.25,0 348.5,0 348.5,-36"/>
<text text-anchor="middle" x="315.38" y="-13.32" font-family="sans" font-size="14.00">bht130</text>
</g>
<!-- HOVERCRAFT&#45;&gt;bht130 -->
<g id="edge7" class="edge">
<title>HOVERCRAFT&#45;&gt;bht130</title>
<path fill="none" stroke="black" d="M236.6,-71.52C249.85,-62.68 266.12,-51.84 280.42,-42.3"/>
<polygon fill="black" stroke="black" points="282.11,-44.72 288.48,-36.26 278.22,-38.9 282.11,-44.72"/>
</g>
<!-- ENGINE -->
<g id="node7" class="node">
<title>ENGINE</title>
<polygon fill="powderblue" stroke="royalblue" points="482.38,-180 412.38,-180 412.38,-144 482.38,-144 482.38,-180"/>
<text text-anchor="middle" x="447.38" y="-157.32" font-family="sans" font-size="14.00">ENGINE</text>
</g>
<!-- INTERNAL_COMBUSTION_ENGINE -->
<g id="node8" class="node">
<title>INTERNAL_COMBUSTION_ENGINE</title>
<polygon fill="powderblue" stroke="royalblue" points="572.98,-108 295.77,-108 295.77,-72 572.98,-72 572.98,-108"/>
<text text-anchor="middle" x="434.38" y="-85.33" font-family="sans" font-size="14.00">INTERNAL_COMBUSTION_ENGINE</text>
</g>
<!-- ENGINE&#45;&gt;INTERNAL_COMBUSTION_ENGINE -->
<g id="edge8" class="edge">
<title>ENGINE&#45;&gt;INTERNAL_COMBUSTION_ENGINE</title>
<path fill="none" stroke="black" d="M444.16,-143.7C442.76,-136.15 441.08,-127.12 439.52,-118.68"/>
<polygon fill="black" stroke="black" points="442.82,-118.3 437.55,-109.1 435.94,-119.58 442.82,-118.3"/>
</g>
<!-- INTERNAL_COMBUSTION_ENGINE&#45;&gt;bht130 -->
<g id="edge9" class="edge">
<title>INTERNAL_COMBUSTION_ENGINE&#45;&gt;bht130</title>
<path fill="none" stroke="black" d="M404.65,-71.52C389.35,-62.51 370.5,-51.42 354.07,-41.76"/>
<polygon fill="black" stroke="black" points="356.11,-38.31 345.72,-36.26 352.56,-44.35 356.11,-38.31"/>
</g>
</g>
</svg>
