<?xml version="1.0" encoding="UTF-8" standalone="no"?>
<!DOCTYPE svg PUBLIC "-//W3C//DTD SVG 1.1//EN"
 "http://www.w3.org/Graphics/SVG/1.1/DTD/svg11.dtd">
<!-- Generated by graphviz version 8.1.0 (20230707.2238)
 -->
<!-- Title: Mini_Cylc Pages: 1 -->
<svg width="352pt" height="260pt"
 viewBox="0.00 0.00 351.81 260.00" xmlns="http://www.w3.org/2000/svg" xmlns:xlink="http://www.w3.org/1999/xlink">
<g id="graph0" class="graph" transform="scale(1 1) rotate(0) translate(4 256)">
<title>Mini_Cylc</title>
<polygon fill="none" stroke="none" points="-4,4 -4,-256 347.81,-256 347.81,4 -4,4"/>
<!-- bake_bread -->
<g id="node1" class="node">
<title>bake_bread</title>
<ellipse fill="none" stroke="black" cx="167.72" cy="-90" rx="66.99" ry="18"/>
<text text-anchor="middle" x="167.72" y="-85.33" font-family="sans" font-size="14.00">bake_bread</text>
</g>
<!-- clean_oven -->
<g id="node2" class="node">
<title>clean_oven</title>
<ellipse fill="none" stroke="black" cx="95.72" cy="-18" rx="65.41" ry="18"/>
<text text-anchor="middle" x="95.72" y="-13.32" font-family="sans" font-size="14.00">clean_oven</text>
</g>
<!-- bake_bread&#45;&gt;clean_oven -->
<g id="edge1" class="edge">
<title>bake_bread&#45;&gt;clean_oven</title>
<path fill="none" stroke="black" d="M150.66,-72.41C141.6,-63.61 130.31,-52.63 120.32,-42.92"/>
<polygon fill="black" stroke="black" points="123.27,-40.93 113.66,-36.47 118.39,-45.95 123.27,-40.93"/>
</g>
<!-- sell_bread -->
<g id="node4" class="node">
<title>sell_bread</title>
<ellipse fill="none" stroke="black" cx="239.72" cy="-18" rx="60.15" ry="18"/>
<text text-anchor="middle" x="239.72" y="-13.32" font-family="sans" font-size="14.00">sell_bread</text>
</g>
<!-- bake_bread&#45;&gt;sell_bread -->
<g id="edge3" class="edge">
<title>bake_bread&#45;&gt;sell_bread</title>
<path fill="none" stroke="black" d="M184.79,-72.41C193.84,-63.61 205.13,-52.63 215.12,-42.92"/>
<polygon fill="black" stroke="black" points="217.05,-45.95 221.78,-36.47 212.17,-40.93 217.05,-45.95"/>
</g>
<!-- pre_heat_oven -->
<g id="node3" class="node">
<title>pre_heat_oven</title>
<ellipse fill="none" stroke="black" cx="81.72" cy="-162" rx="81.72" ry="18"/>
<text text-anchor="middle" x="81.72" y="-157.32" font-family="sans" font-size="14.00">pre_heat_oven</text>
</g>
<!-- pre_heat_oven&#45;&gt;bake_bread -->
<g id="edge2" class="edge">
<title>pre_heat_oven&#45;&gt;bake_bread</title>
<path fill="none" stroke="black" d="M102.1,-144.41C113.13,-135.43 126.94,-124.19 139.04,-114.34"/>
<polygon fill="black" stroke="black" points="140.94,-116.5 146.49,-107.47 136.52,-111.07 140.94,-116.5"/>
</g>
<!-- buy_ingredients -->
<g id="node5" class="node">
<title>buy_ingredients</title>
<ellipse fill="none" stroke="black" cx="254.72" cy="-234" rx="89.09" ry="18"/>
<text text-anchor="middle" x="254.72" y="-229.32" font-family="sans" font-size="14.00">buy_ingredients</text>
</g>
<!-- make_dough -->
<g id="node6" class="node">
<title>make_dough</title>
<ellipse fill="none" stroke="black" cx="254.72" cy="-162" rx="73.3" ry="18"/>
<text text-anchor="middle" x="254.72" y="-157.32" font-family="sans" font-size="14.00">make_dough</text>
</g>
<!-- buy_ingredients&#45;&gt;make_dough -->
<g id="edge4" class="edge">
<title>buy_ingredients&#45;&gt;make_dough</title>
<path fill="none" stroke="black" d="M254.72,-215.7C254.72,-208.24 254.72,-199.32 254.72,-190.97"/>
<polygon fill="black" stroke="black" points="258.22,-191.1 254.72,-181.1 251.22,-191.1 258.22,-191.1"/>
</g>
<!-- make_dough&#45;&gt;bake_bread -->
<g id="edge5" class="edge">
<title>make_dough&#45;&gt;bake_bread</title>
<path fill="none" stroke="black" d="M234.1,-144.41C222.94,-135.43 208.98,-124.19 196.74,-114.34"/>
<polygon fill="black" stroke="black" points="199.18,-111.01 189.19,-107.47 194.79,-116.47 199.18,-111.01"/>
</g>
</g>
</svg>
