<?xml version="1.0" encoding="UTF-8" standalone="no"?>
<!DOCTYPE svg PUBLIC "-//W3C//DTD SVG 1.1//EN"
 "http://www.w3.org/Graphics/SVG/1.1/DTD/svg11.dtd">
<!-- Generated by graphviz version 8.1.0 (20230707.2238)
 -->
<!-- Title: Mini_Cylc Pages: 1 -->
<svg width="352pt" height="260pt"
 viewBox="0.00 0.00 351.81 260.00" xmlns="http://www.w3.org/2000/svg" xmlns:xlink="http://www.w3.org/1999/xlink">
<g id="graph0" class="graph" transform="scale(1 1) rotate(0) translate(4 256)">
<title>Mini_Cylc</title>
<polygon fill="none" stroke="none" points="-4,4 -4,-256 347.81,-256 347.81,4 -4,4"/>
<!-- bake_bread -->
<g id="node1" class="node">
<title>bake_bread</title>
<ellipse fill="none" stroke="black" cx="175.09" cy="-90" rx="66.99" ry="18"/>
<text text-anchor="middle" x="175.09" y="-85.33" font-family="sans" font-size="14.00">bake_bread</text>
</g>
<!-- sell_bread -->
<g id="node2" class="node">
<title>sell_bread</title>
<ellipse fill="none" stroke="black" cx="103.09" cy="-18" rx="60.15" ry="18"/>
<text text-anchor="middle" x="103.09" y="-13.32" font-family="sans" font-size="14.00">sell_bread</text>
</g>
<!-- bake_bread&#45;&gt;sell_bread -->
<g id="edge1" class="edge">
<title>bake_bread&#45;&gt;sell_bread</title>
<path fill="none" stroke="black" d="M158.02,-72.41C148.97,-63.61 137.68,-52.63 127.69,-42.92"/>
<polygon fill="black" stroke="black" points="130.64,-40.93 121.03,-36.47 125.76,-45.95 130.64,-40.93"/>
</g>
<!-- clean_oven -->
<g id="node6" class="node">
<title>clean_oven</title>
<ellipse fill="none" stroke="black" cx="247.09" cy="-18" rx="65.41" ry="18"/>
<text text-anchor="middle" x="247.09" y="-13.32" font-family="sans" font-size="14.00">clean_oven</text>
</g>
<!-- bake_bread&#45;&gt;clean_oven -->
<g id="edge5" class="edge">
<title>bake_bread&#45;&gt;clean_oven</title>
<path fill="none" stroke="black" d="M192.15,-72.41C201.21,-63.61 212.5,-52.63 222.49,-42.92"/>
<polygon fill="black" stroke="black" points="224.42,-45.95 229.15,-36.47 219.54,-40.93 224.42,-45.95"/>
</g>
<!-- make_dough -->
<g id="node3" class="node">
<title>make_dough</title>
<ellipse fill="none" stroke="black" cx="89.09" cy="-162" rx="73.3" ry="18"/>
<text text-anchor="middle" x="89.09" y="-157.32" font-family="sans" font-size="14.00">make_dough</text>
</g>
<!-- make_dough&#45;&gt;bake_bread -->
<g id="edge2" class="edge">
<title>make_dough&#45;&gt;bake_bread</title>
<path fill="none" stroke="black" d="M109.47,-144.41C120.5,-135.43 134.31,-124.19 146.41,-114.34"/>
<polygon fill="black" stroke="black" points="148.31,-116.5 153.85,-107.47 143.89,-111.07 148.31,-116.5"/>
</g>
<!-- pre_heat_oven -->
<g id="node4" class="node">
<title>pre_heat_oven</title>
<ellipse fill="none" stroke="black" cx="262.09" cy="-162" rx="81.72" ry="18"/>
<text text-anchor="middle" x="262.09" y="-157.32" font-family="sans" font-size="14.00">pre_heat_oven</text>
</g>
<!-- pre_heat_oven&#45;&gt;bake_bread -->
<g id="edge3" class="edge">
<title>pre_heat_oven&#45;&gt;bake_bread</title>
<path fill="none" stroke="black" d="M241.47,-144.41C230.31,-135.43 216.34,-124.19 204.1,-114.34"/>
<polygon fill="black" stroke="black" points="206.54,-111.01 196.56,-107.47 202.15,-116.47 206.54,-111.01"/>
</g>
<!-- buy_ingredients -->
<g id="node5" class="node">
<title>buy_ingredients</title>
<ellipse fill="none" stroke="black" cx="89.09" cy="-234" rx="89.09" ry="18"/>
<text text-anchor="middle" x="89.09" y="-229.32" font-family="sans" font-size="14.00">buy_ingredients</text>
</g>
<!-- buy_ingredients&#45;&gt;make_dough -->
<g id="edge4" class="edge">
<title>buy_ingredients&#45;&gt;make_dough</title>
<path fill="none" stroke="black" d="M89.09,-215.7C89.09,-208.24 89.09,-199.32 89.09,-190.97"/>
<polygon fill="black" stroke="black" points="92.59,-191.1 89.09,-181.1 85.59,-191.1 92.59,-191.1"/>
</g>
</g>
</svg>
