<?xml version="1.0" encoding="UTF-8" standalone="no"?>
<!DOCTYPE svg PUBLIC "-//W3C//DTD SVG 1.1//EN"
 "http://www.w3.org/Graphics/SVG/1.1/DTD/svg11.dtd">
<!-- Generated by graphviz version 9.0.0 (20231125.0833)
 -->
<!-- Title: example Pages: 1 -->
<svg width="179pt" height="265pt"
 viewBox="0.00 0.00 179.00 265.25" xmlns="http://www.w3.org/2000/svg" xmlns:xlink="http://www.w3.org/1999/xlink">
<g id="graph0" class="graph" transform="scale(1 1) rotate(0) translate(4 261.25)">
<title>example</title>
<polygon fill="none" stroke="none" points="-4,4 -4,-261.25 175,-261.25 175,4 -4,4"/>
<g id="clust1" class="cluster">
<title>cluster_success</title>
<polygon fill="none" stroke="green" stroke-dasharray="5,2" points="8,-64 8,-141.25 85,-141.25 85,-64 8,-64"/>
<text text-anchor="middle" x="46.5" y="-123.95" font-family="sans" font-size="14.00" fill="green">:succeed</text>
</g>
<g id="clust2" class="cluster">
<title>cluster_failure</title>
<polygon fill="none" stroke="red" stroke-dasharray="5,2" points="93,-64 93,-141.25 163,-141.25 163,-64 93,-64"/>
<text text-anchor="middle" x="128" y="-123.95" font-family="sans" font-size="14.00" fill="red">:fail</text>
</g>
<!-- c -->
<g id="node1" class="node">
<title>c</title>
<ellipse fill="none" stroke="black" cx="50" cy="-90" rx="27" ry="18"/>
<text text-anchor="middle" x="50" y="-85.33" font-family="sans" font-size="14.00">c</text>
</g>
<!-- d -->
<g id="node5" class="node">
<title>d</title>
<ellipse fill="none" stroke="black" cx="89" cy="-18" rx="27" ry="18"/>
<text text-anchor="middle" x="89" y="-13.32" font-family="sans" font-size="14.00">d</text>
</g>
<!-- c&#45;&gt;d -->
<g id="edge3" class="edge">
<title>c&#45;&gt;d</title>
<path fill="none" stroke="black" d="M59.05,-72.76C63.62,-64.55 69.29,-54.37 74.46,-45.09"/>
<polygon fill="black" stroke="black" points="77.46,-46.91 79.27,-36.47 71.34,-43.5 77.46,-46.91"/>
</g>
<!-- r -->
<g id="node2" class="node">
<title>r</title>
<ellipse fill="none" stroke="black" cx="128" cy="-90" rx="27" ry="18"/>
<text text-anchor="middle" x="128" y="-85.33" font-family="sans" font-size="14.00">r</text>
</g>
<!-- r&#45;&gt;d -->
<g id="edge5" class="edge">
<title>r&#45;&gt;d</title>
<path fill="none" stroke="black" d="M118.95,-72.76C114.38,-64.55 108.71,-54.37 103.54,-45.09"/>
<polygon fill="black" stroke="black" points="106.66,-43.5 98.73,-36.47 100.54,-46.91 106.66,-43.5"/>
</g>
<!-- a -->
<g id="node3" class="node">
<title>a</title>
<ellipse fill="none" stroke="black" cx="89" cy="-239.25" rx="27" ry="18"/>
<text text-anchor="middle" x="89" y="-234.57" font-family="sans" font-size="14.00">a</text>
</g>
<!-- b -->
<g id="node4" class="node">
<title>b</title>
<ellipse fill="none" stroke="black" cx="89" cy="-167.25" rx="27" ry="18"/>
<text text-anchor="middle" x="89" y="-162.57" font-family="sans" font-size="14.00">b</text>
</g>
<!-- a&#45;&gt;b -->
<g id="edge1" class="edge">
<title>a&#45;&gt;b</title>
<path fill="none" stroke="black" d="M89,-220.95C89,-213.66 89,-204.98 89,-196.79"/>
<polygon fill="black" stroke="black" points="92.5,-196.87 89,-186.87 85.5,-196.87 92.5,-196.87"/>
</g>
<!-- b&#45;&gt;c -->
<g id="edge2" class="edge">
<title>b&#45;&gt;c</title>
<path fill="none" stroke="black" d="M80.54,-149.92C75.66,-140.52 69.42,-128.47 63.85,-117.73"/>
<polygon fill="black" stroke="black" points="66.99,-116.17 59.28,-108.9 60.77,-119.39 66.99,-116.17"/>
</g>
<!-- b&#45;&gt;r -->
<g id="edge4" class="edge">
<title>b&#45;&gt;r</title>
<path fill="none" stroke="black" d="M97.46,-149.92C102.34,-140.52 108.58,-128.47 114.15,-117.73"/>
<polygon fill="black" stroke="black" points="117.23,-119.39 118.72,-108.9 111.01,-116.17 117.23,-119.39"/>
</g>
</g>
</svg>
