<?xml version="1.0" encoding="UTF-8" standalone="no"?>
<!DOCTYPE svg PUBLIC "-//W3C//DTD SVG 1.1//EN"
 "http://www.w3.org/Graphics/SVG/1.1/DTD/svg11.dtd">
<!-- Generated by graphviz version 8.1.0 (20230707.2238)
 -->
<!-- Title: example Pages: 1 -->
<svg width="504pt" height="108pt"
 viewBox="0.00 0.00 504.00 107.74" xmlns="http://www.w3.org/2000/svg" xmlns:xlink="http://www.w3.org/1999/xlink">
<g id="graph0" class="graph" transform="scale(0.486486 0.486486) rotate(0) translate(4 217.46)">
<title>example</title>
<polygon fill="none" stroke="none" points="-4,4 -4,-217.46 1032,-217.46 1032,4 -4,4"/>
<g id="clust1" class="cluster">
<title>cluster_T00</title>
<polygon fill="none" stroke="black" stroke-dasharray="5,2" points="8,-104.1 8,-205.46 290,-205.46 290,-104.1 8,-104.1"/>
<text text-anchor="middle" x="149" y="-188.16" font-family="sans" font-size="14.00">+PT0H</text>
</g>
<g id="clust2" class="cluster">
<title>cluster_T03</title>
<polygon fill="none" stroke="black" stroke-dasharray="5,2" points="738,-104.1 738,-205.46 1020,-205.46 1020,-104.1 738,-104.1"/>
<text text-anchor="middle" x="879" y="-188.16" font-family="sans" font-size="14.00">+PT3H</text>
</g>
<g id="clust3" class="cluster">
<title>cluster_T06</title>
<polygon fill="none" stroke="black" stroke-dasharray="5,2" points="298,-8 298,-205.46 730,-205.46 730,-8 298,-8"/>
<text text-anchor="middle" x="514" y="-188.16" font-family="sans" font-size="14.00">+PT6H</text>
</g>
<!-- observations.t00 -->
<g id="node1" class="node">
<title>observations.t00</title>
<ellipse fill="none" stroke="black" cx="149" cy="-142.16" rx="133.29" ry="30.05"/>
<text text-anchor="middle" x="149" y="-146.11" font-family="sans" font-size="14.00">consolidate observations</text>
<text text-anchor="middle" x="149" y="-128.86" font-family="sans" font-size="14.00">+PT0H</text>
</g>
<!-- forecast.t06 -->
<g id="node3" class="node">
<title>forecast.t06</title>
<ellipse fill="none" stroke="black" cx="547" cy="-46.05" rx="50.56" ry="30.05"/>
<text text-anchor="middle" x="547" y="-50" font-family="sans" font-size="14.00">forecast</text>
<text text-anchor="middle" x="547" y="-32.75" font-family="sans" font-size="14.00">+PT6H</text>
</g>
<!-- observations.t00&#45;&gt;forecast.t06 -->
<g id="edge1" class="edge">
<title>observations.t00&#45;&gt;forecast.t06</title>
<path fill="none" stroke="black" d="M234.77,-118.81C254.22,-113.86 274.8,-108.72 294,-104.1 360.82,-88.04 437.91,-70.85 489.26,-59.58"/>
<polygon fill="black" stroke="black" points="489.79,-62.83 498.81,-57.27 488.29,-55.99 489.79,-62.83"/>
</g>
<!-- observations.t03 -->
<g id="node2" class="node">
<title>observations.t03</title>
<ellipse fill="none" stroke="black" cx="879" cy="-142.16" rx="133.29" ry="30.05"/>
<text text-anchor="middle" x="879" y="-146.11" font-family="sans" font-size="14.00">consolidate observations</text>
<text text-anchor="middle" x="879" y="-128.86" font-family="sans" font-size="14.00">+PT3H</text>
</g>
<!-- observations.t03&#45;&gt;forecast.t06 -->
<g id="edge2" class="edge">
<title>observations.t03&#45;&gt;forecast.t06</title>
<path fill="none" stroke="black" d="M797.36,-118.02C736.7,-100.82 655.57,-77.83 602.34,-62.74"/>
<polygon fill="black" stroke="black" points="603.65,-59.19 593.07,-59.83 601.74,-65.92 603.65,-59.19"/>
</g>
<!-- get_rainfall.t06 -->
<g id="node4" class="node">
<title>get_rainfall.t06</title>
<ellipse fill="none" stroke="black" cx="656" cy="-142.16" rx="65.94" ry="30.05"/>
<text text-anchor="middle" x="656" y="-146.11" font-family="sans" font-size="14.00">get_rainfall</text>
<text text-anchor="middle" x="656" y="-128.86" font-family="sans" font-size="14.00">+PT6H</text>
</g>
<!-- get_rainfall.t06&#45;&gt;forecast.t06 -->
<g id="edge4" class="edge">
<title>get_rainfall.t06&#45;&gt;forecast.t06</title>
<path fill="none" stroke="black" d="M625.93,-115.19C612.65,-103.73 596.94,-90.17 583.04,-78.17"/>
<polygon fill="black" stroke="black" points="585.96,-75.2 576.1,-71.31 581.39,-80.5 585.96,-75.2"/>
</g>
<!-- observations.t06 -->
<g id="node5" class="node">
<title>observations.t06</title>
<ellipse fill="none" stroke="black" cx="439" cy="-142.16" rx="133.29" ry="30.05"/>
<text text-anchor="middle" x="439" y="-146.11" font-family="sans" font-size="14.00">consolidate observations</text>
<text text-anchor="middle" x="439" y="-128.86" font-family="sans" font-size="14.00">+PT6H</text>
</g>
<!-- observations.t06&#45;&gt;forecast.t06 -->
<g id="edge3" class="edge">
<title>observations.t06&#45;&gt;forecast.t06</title>
<path fill="none" stroke="black" d="M471.7,-112.67C484.12,-101.84 498.34,-89.45 511.05,-78.37"/>
<polygon fill="black" stroke="black" points="512.91,-80.52 518.15,-71.31 508.32,-75.25 512.91,-80.52"/>
</g>
</g>
</svg>
