<?xml version="1.0" encoding="UTF-8" standalone="no"?>
<!DOCTYPE svg PUBLIC "-//W3C//DTD SVG 1.1//EN"
 "http://www.w3.org/Graphics/SVG/1.1/DTD/svg11.dtd">
<!-- Generated by graphviz version 2.40.1 (20161225.0304)
 -->
<!-- Title: example Pages: 1 -->
<svg width="504pt" height="173pt"
 viewBox="0.00 0.00 504.00 172.76" xmlns="http://www.w3.org/2000/svg" xmlns:xlink="http://www.w3.org/1999/xlink">
<g id="graph0" class="graph" transform="scale(.4476 .4476) rotate(0) translate(4 381.9605)">
<title>example</title>
<polygon fill="transparent" stroke="transparent" points="-4,4 -4,-381.9605 1122,-381.9605 1122,4 -4,4"/>
<g id="clust1" class="cluster">
<title>cluster_1</title>
<polygon fill="transparent" stroke="#000000" stroke-dasharray="5,2" points="8,-8 8,-369.9605 370,-369.9605 370,-8 8,-8"/>
<text text-anchor="middle" x="189" y="-354.7605" font-family="sans" font-size="14.00" fill="#000000">1</text>
</g>
<g id="clust2" class="cluster">
<title>cluster_2</title>
<polygon fill="transparent" stroke="#000000" stroke-dasharray="5,2" points="378,-8 378,-369.9605 740,-369.9605 740,-8 378,-8"/>
<text text-anchor="middle" x="559" y="-354.7605" font-family="sans" font-size="14.00" fill="#000000">2</text>
</g>
<g id="clust3" class="cluster">
<title>cluster_3</title>
<polygon fill="transparent" stroke="#000000" stroke-dasharray="5,2" points="748,-8 748,-369.9605 1110,-369.9605 1110,-8 748,-8"/>
<text text-anchor="middle" x="929" y="-354.7605" font-family="sans" font-size="14.00" fill="#000000">3</text>
</g>
<!-- pur.1 -->
<g id="node1" class="node">
<title>pur.1</title>
<ellipse fill="none" stroke="#000000" cx="269" cy="-312.0904" rx="92.7622" ry="26.7407"/>
<text text-anchor="middle" x="269" y="-315.8904" font-family="sans" font-size="14.00" fill="#000000">buy_ingredients</text>
<text text-anchor="middle" x="269" y="-300.8904" font-family="sans" font-size="14.00" fill="#000000">1</text>
</g>
<!-- mak.1 -->
<g id="node2" class="node">
<title>mak.1</title>
<ellipse fill="none" stroke="#000000" cx="285" cy="-222.3503" rx="77.1494" ry="26.7407"/>
<text text-anchor="middle" x="285" y="-226.1503" font-family="sans" font-size="14.00" fill="#000000">make_dough</text>
<text text-anchor="middle" x="285" y="-211.1503" font-family="sans" font-size="14.00" fill="#000000">1</text>
</g>
<!-- pur.1&#45;&gt;mak.1 -->
<g id="edge1" class="edge">
<title>pur.1&#45;&gt;mak.1</title>
<path fill="none" stroke="#000000" d="M273.8005,-285.1654C275.256,-277.0017 276.8807,-267.8892 278.4313,-259.1926"/>
<polygon fill="#000000" stroke="#000000" points="281.8932,-259.7154 280.2029,-249.2563 275.0019,-258.4867 281.8932,-259.7154"/>
</g>
<!-- bak.1 -->
<g id="node3" class="node">
<title>bak.1</title>
<ellipse fill="none" stroke="#000000" cx="172" cy="-132.6102" rx="71.3357" ry="26.7407"/>
<text text-anchor="middle" x="172" y="-136.4102" font-family="sans" font-size="14.00" fill="#000000">bake_bread</text>
<text text-anchor="middle" x="172" y="-121.4102" font-family="sans" font-size="14.00" fill="#000000">1</text>
</g>
<!-- mak.1&#45;&gt;bak.1 -->
<g id="edge2" class="edge">
<title>mak.1&#45;&gt;bak.1</title>
<path fill="none" stroke="#000000" d="M253.8231,-197.5909C240.4985,-187.009 224.8047,-174.5455 210.744,-163.3791"/>
<polygon fill="#000000" stroke="#000000" points="212.6919,-160.4566 202.6842,-156.9784 208.3385,-165.9383 212.6919,-160.4566"/>
</g>
<!-- sel.1 -->
<g id="node4" class="node">
<title>sel.1</title>
<ellipse fill="none" stroke="#000000" cx="91" cy="-42.8701" rx="63.7795" ry="26.7407"/>
<text text-anchor="middle" x="91" y="-46.6701" font-family="sans" font-size="14.00" fill="#000000">sell_bread</text>
<text text-anchor="middle" x="91" y="-31.6701" font-family="sans" font-size="14.00" fill="#000000">1</text>
</g>
<!-- bak.1&#45;&gt;sel.1 -->
<g id="edge3" class="edge">
<title>bak.1&#45;&gt;sel.1</title>
<path fill="none" stroke="#000000" d="M149.0053,-107.1343C140.2093,-97.3892 130.0491,-86.1327 120.7137,-75.7899"/>
<polygon fill="#000000" stroke="#000000" points="123.0704,-73.1772 113.7718,-68.099 117.874,-77.8675 123.0704,-73.1772"/>
</g>
<!-- cle.1 -->
<g id="node5" class="node">
<title>cle.1</title>
<ellipse fill="none" stroke="#000000" cx="242" cy="-42.8701" rx="69.0935" ry="26.7407"/>
<text text-anchor="middle" x="242" y="-46.6701" font-family="sans" font-size="14.00" fill="#000000">clean_oven</text>
<text text-anchor="middle" x="242" y="-31.6701" font-family="sans" font-size="14.00" fill="#000000">1</text>
</g>
<!-- bak.1&#45;&gt;cle.1 -->
<g id="edge5" class="edge">
<title>bak.1&#45;&gt;cle.1</title>
<path fill="none" stroke="#000000" d="M192.2469,-106.6536C199.5024,-97.3521 207.7932,-86.7233 215.4989,-76.8445"/>
<polygon fill="#000000" stroke="#000000" points="218.4078,-78.8059 221.7986,-68.7683 212.8884,-74.5005 218.4078,-78.8059"/>
</g>
<!-- pre.1 -->
<g id="node6" class="node">
<title>pre.1</title>
<ellipse fill="none" stroke="#000000" cx="103" cy="-222.3503" rx="86.9483" ry="26.7407"/>
<text text-anchor="middle" x="103" y="-226.1503" font-family="sans" font-size="14.00" fill="#000000">pre_heat_oven</text>
<text text-anchor="middle" x="103" y="-211.1503" font-family="sans" font-size="14.00" fill="#000000">1</text>
</g>
<!-- pre.1&#45;&gt;bak.1 -->
<g id="edge4" class="edge">
<title>pre.1&#45;&gt;bak.1</title>
<path fill="none" stroke="#000000" d="M123.3291,-195.9107C130.41,-186.7014 138.4549,-176.2383 145.936,-166.5086"/>
<polygon fill="#000000" stroke="#000000" points="148.7331,-168.6127 152.0539,-158.5517 143.1838,-164.3459 148.7331,-168.6127"/>
</g>
<!-- pur.2 -->
<g id="node7" class="node">
<title>pur.2</title>
<ellipse fill="none" stroke="#000000" cx="639" cy="-312.0904" rx="92.7622" ry="26.7407"/>
<text text-anchor="middle" x="639" y="-315.8904" font-family="sans" font-size="14.00" fill="#000000">buy_ingredients</text>
<text text-anchor="middle" x="639" y="-300.8904" font-family="sans" font-size="14.00" fill="#000000">2</text>
</g>
<!-- mak.2 -->
<g id="node8" class="node">
<title>mak.2</title>
<ellipse fill="none" stroke="#000000" cx="655" cy="-222.3503" rx="77.1494" ry="26.7407"/>
<text text-anchor="middle" x="655" y="-226.1503" font-family="sans" font-size="14.00" fill="#000000">make_dough</text>
<text text-anchor="middle" x="655" y="-211.1503" font-family="sans" font-size="14.00" fill="#000000">2</text>
</g>
<!-- pur.2&#45;&gt;mak.2 -->
<g id="edge6" class="edge">
<title>pur.2&#45;&gt;mak.2</title>
<path fill="none" stroke="#000000" d="M643.8005,-285.1654C645.256,-277.0017 646.8807,-267.8892 648.4313,-259.1926"/>
<polygon fill="#000000" stroke="#000000" points="651.8932,-259.7154 650.2029,-249.2563 645.0019,-258.4867 651.8932,-259.7154"/>
</g>
<!-- bak.2 -->
<g id="node9" class="node">
<title>bak.2</title>
<ellipse fill="none" stroke="#000000" cx="542" cy="-132.6102" rx="71.3357" ry="26.7407"/>
<text text-anchor="middle" x="542" y="-136.4102" font-family="sans" font-size="14.00" fill="#000000">bake_bread</text>
<text text-anchor="middle" x="542" y="-121.4102" font-family="sans" font-size="14.00" fill="#000000">2</text>
</g>
<!-- mak.2&#45;&gt;bak.2 -->
<g id="edge7" class="edge">
<title>mak.2&#45;&gt;bak.2</title>
<path fill="none" stroke="#000000" d="M623.8231,-197.5909C610.4985,-187.009 594.8047,-174.5455 580.744,-163.3791"/>
<polygon fill="#000000" stroke="#000000" points="582.6919,-160.4566 572.6842,-156.9784 578.3385,-165.9383 582.6919,-160.4566"/>
</g>
<!-- sel.2 -->
<g id="node10" class="node">
<title>sel.2</title>
<ellipse fill="none" stroke="#000000" cx="461" cy="-42.8701" rx="63.7795" ry="26.7407"/>
<text text-anchor="middle" x="461" y="-46.6701" font-family="sans" font-size="14.00" fill="#000000">sell_bread</text>
<text text-anchor="middle" x="461" y="-31.6701" font-family="sans" font-size="14.00" fill="#000000">2</text>
</g>
<!-- bak.2&#45;&gt;sel.2 -->
<g id="edge8" class="edge">
<title>bak.2&#45;&gt;sel.2</title>
<path fill="none" stroke="#000000" d="M519.0053,-107.1343C510.2093,-97.3892 500.0491,-86.1327 490.7137,-75.7899"/>
<polygon fill="#000000" stroke="#000000" points="493.0704,-73.1772 483.7718,-68.099 487.874,-77.8675 493.0704,-73.1772"/>
</g>
<!-- cle.2 -->
<g id="node11" class="node">
<title>cle.2</title>
<ellipse fill="none" stroke="#000000" cx="612" cy="-42.8701" rx="69.0935" ry="26.7407"/>
<text text-anchor="middle" x="612" y="-46.6701" font-family="sans" font-size="14.00" fill="#000000">clean_oven</text>
<text text-anchor="middle" x="612" y="-31.6701" font-family="sans" font-size="14.00" fill="#000000">2</text>
</g>
<!-- bak.2&#45;&gt;cle.2 -->
<g id="edge10" class="edge">
<title>bak.2&#45;&gt;cle.2</title>
<path fill="none" stroke="#000000" d="M562.2469,-106.6536C569.5024,-97.3521 577.7932,-86.7233 585.4989,-76.8445"/>
<polygon fill="#000000" stroke="#000000" points="588.4078,-78.8059 591.7986,-68.7683 582.8884,-74.5005 588.4078,-78.8059"/>
</g>
<!-- pre.2 -->
<g id="node12" class="node">
<title>pre.2</title>
<ellipse fill="none" stroke="#000000" cx="473" cy="-222.3503" rx="86.9483" ry="26.7407"/>
<text text-anchor="middle" x="473" y="-226.1503" font-family="sans" font-size="14.00" fill="#000000">pre_heat_oven</text>
<text text-anchor="middle" x="473" y="-211.1503" font-family="sans" font-size="14.00" fill="#000000">2</text>
</g>
<!-- pre.2&#45;&gt;bak.2 -->
<g id="edge9" class="edge">
<title>pre.2&#45;&gt;bak.2</title>
<path fill="none" stroke="#000000" d="M493.3291,-195.9107C500.41,-186.7014 508.4549,-176.2383 515.936,-166.5086"/>
<polygon fill="#000000" stroke="#000000" points="518.7331,-168.6127 522.0539,-158.5517 513.1838,-164.3459 518.7331,-168.6127"/>
</g>
<!-- pur.3 -->
<g id="node13" class="node">
<title>pur.3</title>
<ellipse fill="none" stroke="#000000" cx="1009" cy="-312.0904" rx="92.7622" ry="26.7407"/>
<text text-anchor="middle" x="1009" y="-315.8904" font-family="sans" font-size="14.00" fill="#000000">buy_ingredients</text>
<text text-anchor="middle" x="1009" y="-300.8904" font-family="sans" font-size="14.00" fill="#000000">3</text>
</g>
<!-- mak.3 -->
<g id="node14" class="node">
<title>mak.3</title>
<ellipse fill="none" stroke="#000000" cx="1025" cy="-222.3503" rx="77.1494" ry="26.7407"/>
<text text-anchor="middle" x="1025" y="-226.1503" font-family="sans" font-size="14.00" fill="#000000">make_dough</text>
<text text-anchor="middle" x="1025" y="-211.1503" font-family="sans" font-size="14.00" fill="#000000">3</text>
</g>
<!-- pur.3&#45;&gt;mak.3 -->
<g id="edge11" class="edge">
<title>pur.3&#45;&gt;mak.3</title>
<path fill="none" stroke="#000000" d="M1013.8005,-285.1654C1015.256,-277.0017 1016.8807,-267.8892 1018.4313,-259.1926"/>
<polygon fill="#000000" stroke="#000000" points="1021.8932,-259.7154 1020.2029,-249.2563 1015.0019,-258.4867 1021.8932,-259.7154"/>
</g>
<!-- bak.3 -->
<g id="node15" class="node">
<title>bak.3</title>
<ellipse fill="none" stroke="#000000" cx="912" cy="-132.6102" rx="71.3357" ry="26.7407"/>
<text text-anchor="middle" x="912" y="-136.4102" font-family="sans" font-size="14.00" fill="#000000">bake_bread</text>
<text text-anchor="middle" x="912" y="-121.4102" font-family="sans" font-size="14.00" fill="#000000">3</text>
</g>
<!-- mak.3&#45;&gt;bak.3 -->
<g id="edge12" class="edge">
<title>mak.3&#45;&gt;bak.3</title>
<path fill="none" stroke="#000000" d="M993.8231,-197.5909C980.4985,-187.009 964.8047,-174.5455 950.744,-163.3791"/>
<polygon fill="#000000" stroke="#000000" points="952.6919,-160.4566 942.6842,-156.9784 948.3385,-165.9383 952.6919,-160.4566"/>
</g>
<!-- sel.3 -->
<g id="node16" class="node">
<title>sel.3</title>
<ellipse fill="none" stroke="#000000" cx="831" cy="-42.8701" rx="63.7795" ry="26.7407"/>
<text text-anchor="middle" x="831" y="-46.6701" font-family="sans" font-size="14.00" fill="#000000">sell_bread</text>
<text text-anchor="middle" x="831" y="-31.6701" font-family="sans" font-size="14.00" fill="#000000">3</text>
</g>
<!-- bak.3&#45;&gt;sel.3 -->
<g id="edge13" class="edge">
<title>bak.3&#45;&gt;sel.3</title>
<path fill="none" stroke="#000000" d="M889.0053,-107.1343C880.2093,-97.3892 870.0491,-86.1327 860.7137,-75.7899"/>
<polygon fill="#000000" stroke="#000000" points="863.0704,-73.1772 853.7718,-68.099 857.874,-77.8675 863.0704,-73.1772"/>
</g>
<!-- cle.3 -->
<g id="node17" class="node">
<title>cle.3</title>
<ellipse fill="none" stroke="#000000" cx="982" cy="-42.8701" rx="69.0935" ry="26.7407"/>
<text text-anchor="middle" x="982" y="-46.6701" font-family="sans" font-size="14.00" fill="#000000">clean_oven</text>
<text text-anchor="middle" x="982" y="-31.6701" font-family="sans" font-size="14.00" fill="#000000">3</text>
</g>
<!-- bak.3&#45;&gt;cle.3 -->
<g id="edge15" class="edge">
<title>bak.3&#45;&gt;cle.3</title>
<path fill="none" stroke="#000000" d="M932.2469,-106.6536C939.5024,-97.3521 947.7932,-86.7233 955.4989,-76.8445"/>
<polygon fill="#000000" stroke="#000000" points="958.4078,-78.8059 961.7986,-68.7683 952.8884,-74.5005 958.4078,-78.8059"/>
</g>
<!-- pre.3 -->
<g id="node18" class="node">
<title>pre.3</title>
<ellipse fill="none" stroke="#000000" cx="843" cy="-222.3503" rx="86.9483" ry="26.7407"/>
<text text-anchor="middle" x="843" y="-226.1503" font-family="sans" font-size="14.00" fill="#000000">pre_heat_oven</text>
<text text-anchor="middle" x="843" y="-211.1503" font-family="sans" font-size="14.00" fill="#000000">3</text>
</g>
<!-- pre.3&#45;&gt;bak.3 -->
<g id="edge14" class="edge">
<title>pre.3&#45;&gt;bak.3</title>
<path fill="none" stroke="#000000" d="M863.3291,-195.9107C870.41,-186.7014 878.4549,-176.2383 885.936,-166.5086"/>
<polygon fill="#000000" stroke="#000000" points="888.7331,-168.6127 892.0539,-158.5517 883.1838,-164.3459 888.7331,-168.6127"/>
</g>
</g>
</svg>
