<?xml version="1.0" encoding="UTF-8" standalone="no"?>
<!DOCTYPE svg PUBLIC "-//W3C//DTD SVG 1.1//EN"
 "http://www.w3.org/Graphics/SVG/1.1/DTD/svg11.dtd">
<!-- Generated by graphviz version 2.40.1 (20161225.0304)
 -->
<!-- Title: example Pages: 1 -->
<svg width="1090pt" height="230pt"
 viewBox="0.00 0.00 1089.64 230.00" xmlns="http://www.w3.org/2000/svg" xmlns:xlink="http://www.w3.org/1999/xlink">
<g id="graph0" class="graph" transform="scale(1 1) rotate(0) translate(4 226)">
<title>example</title>
<polygon fill="transparent" stroke="transparent" points="-4,4 -4,-226 1085.6436,-226 1085.6436,4 -4,4"/>
<g id="clust1" class="cluster">
<title>cluster_legend</title>
<polygon fill="transparent" stroke="#000000" stroke-dasharray="5,2" points="344.6609,0 344.6609,-75 737.6436,-75 737.6436,0 344.6609,0"/>
<text text-anchor="middle" x="541.1522" y="-59.8" font-family="sans" font-size="14.00" fill="#000000">Legend</text>
</g>
<g id="clust2" class="cluster">
<title>cluster_diagram</title>
</g>
<g id="clust3" class="cluster">
<title>cluster_subshell</title>
<polygon fill="transparent" stroke="#000000" stroke-dasharray="5,2" points="254.8904,-103 254.8904,-202 932.5536,-202 932.5536,-103 254.8904,-103"/>
<text text-anchor="middle" x="593.722" y="-186.8" font-family="sans" font-size="14.00" fill="#000000">Subshell process</text>
</g>
<!-- user defined script -->
<g id="node1" class="node">
<title>user defined script</title>
<ellipse fill="none" stroke="#000000" cx="450.1522" cy="-26" rx="97.4827" ry="18"/>
<text text-anchor="middle" x="450.1522" y="-22.3" font-family="sans" font-size="14.00" fill="#000000">user defined script</text>
</g>
<!-- cylc defined script -->
<g id="node2" class="node">
<title>cylc defined script</title>
<polygon fill="none" stroke="#000000" points="729.6436,-44 583.6436,-44 583.6436,-8 729.6436,-8 729.6436,-44"/>
<text text-anchor="middle" x="656.6436" y="-22.3" font-family="sans" font-size="14.00" fill="#000000">cylc defined script</text>
</g>
<!-- user defined script&#45;&gt;cylc defined script -->
<!-- cylc&#45;env -->
<g id="node3" class="node">
<title>cylc&#45;env</title>
<polygon fill="none" stroke="#000000" points="238.8904,-159 163.8904,-159 163.8904,-123 238.8904,-123 238.8904,-159"/>
<text text-anchor="middle" x="201.3904" y="-137.3" font-family="sans" font-size="14.00" fill="#000000">cylc&#45;env</text>
</g>
<!-- env&#45;script -->
<g id="node6" class="node">
<title>env&#45;script</title>
<ellipse fill="none" stroke="#000000" cx="330.7855" cy="-141" rx="55.7903" ry="18"/>
<text text-anchor="middle" x="330.7855" y="-137.3" font-family="sans" font-size="14.00" fill="#000000">env&#45;script</text>
</g>
<!-- cylc&#45;env&#45;&gt;env&#45;script -->
<g id="edge3" class="edge">
<title>cylc&#45;env&#45;&gt;env&#45;script</title>
<path fill="none" stroke="#000000" d="M239.1647,-141C247.0997,-141 255.6924,-141 264.327,-141"/>
<polygon fill="#000000" stroke="#000000" points="264.4456,-144.5001 274.4455,-141 264.4455,-137.5001 264.4456,-144.5001"/>
</g>
<!-- user&#45;env -->
<g id="node4" class="node">
<title>user&#45;env</title>
<polygon fill="none" stroke="#000000" points="501.6805,-159 422.6805,-159 422.6805,-123 501.6805,-123 501.6805,-159"/>
<text text-anchor="middle" x="462.1805" y="-137.3" font-family="sans" font-size="14.00" fill="#000000">user&#45;env</text>
</g>
<!-- pre&#45;script -->
<g id="node7" class="node">
<title>pre&#45;script</title>
<ellipse fill="none" stroke="#000000" cx="592.9256" cy="-141" rx="55.4913" ry="18"/>
<text text-anchor="middle" x="592.9256" y="-137.3" font-family="sans" font-size="14.00" fill="#000000">pre&#45;script</text>
</g>
<!-- user&#45;env&#45;&gt;pre&#45;script -->
<g id="edge5" class="edge">
<title>user&#45;env&#45;&gt;pre&#45;script</title>
<path fill="none" stroke="#000000" d="M501.7632,-141C509.8663,-141 518.599,-141 527.3369,-141"/>
<polygon fill="#000000" stroke="#000000" points="527.5594,-144.5001 537.5594,-141 527.5593,-137.5001 527.5594,-144.5001"/>
</g>
<!-- init&#45;script -->
<g id="node5" class="node">
<title>init&#45;script</title>
<ellipse fill="none" stroke="#000000" cx="73.9452" cy="-141" rx="53.8905" ry="18"/>
<text text-anchor="middle" x="73.9452" y="-137.3" font-family="sans" font-size="14.00" fill="#000000">init&#45;script</text>
</g>
<!-- init&#45;script&#45;&gt;cylc&#45;env -->
<g id="edge2" class="edge">
<title>init&#45;script&#45;&gt;cylc&#45;env</title>
<path fill="none" stroke="#000000" d="M127.9935,-141C136.5787,-141 145.4038,-141 153.8257,-141"/>
<polygon fill="#000000" stroke="#000000" points="153.8554,-144.5001 163.8554,-141 153.8554,-137.5001 153.8554,-144.5001"/>
</g>
<!-- env&#45;script&#45;&gt;user&#45;env -->
<g id="edge4" class="edge">
<title>env&#45;script&#45;&gt;user&#45;env</title>
<path fill="none" stroke="#000000" d="M386.8899,-141C395.3255,-141 403.9767,-141 412.2711,-141"/>
<polygon fill="#000000" stroke="#000000" points="412.5433,-144.5001 422.5433,-141 412.5432,-137.5001 412.5433,-144.5001"/>
</g>
<!-- script -->
<g id="node8" class="node">
<title>script</title>
<ellipse fill="none" stroke="#000000" cx="720.5675" cy="-141" rx="36.2938" ry="18"/>
<text text-anchor="middle" x="720.5675" y="-137.3" font-family="sans" font-size="14.00" fill="#000000">script</text>
</g>
<!-- pre&#45;script&#45;&gt;script -->
<g id="edge6" class="edge">
<title>pre&#45;script&#45;&gt;script</title>
<path fill="none" stroke="#000000" d="M648.5399,-141C656.948,-141 665.5494,-141 673.7472,-141"/>
<polygon fill="#000000" stroke="#000000" points="673.8702,-144.5001 683.8702,-141 673.8702,-137.5001 673.8702,-144.5001"/>
</g>
<!-- post&#45;script -->
<g id="node9" class="node">
<title>post&#45;script</title>
<ellipse fill="none" stroke="#000000" cx="852.7589" cy="-141" rx="59.5901" ry="18"/>
<text text-anchor="middle" x="852.7589" y="-137.3" font-family="sans" font-size="14.00" fill="#000000">post&#45;script</text>
</g>
<!-- script&#45;&gt;post&#45;script -->
<g id="edge7" class="edge">
<title>script&#45;&gt;post&#45;script</title>
<path fill="none" stroke="#000000" d="M757.0393,-141C765.0904,-141 773.881,-141 782.7658,-141"/>
<polygon fill="#000000" stroke="#000000" points="782.8027,-144.5001 792.8026,-141 782.8026,-137.5001 782.8027,-144.5001"/>
</g>
<!-- err&#45;script -->
<g id="node10" class="node">
<title>err&#45;script</title>
<ellipse fill="none" stroke="#000000" cx="1005.0986" cy="-125" rx="52.7911" ry="18"/>
<text text-anchor="middle" x="1005.0986" y="-121.3" font-family="sans" font-size="14.00" fill="#000000">err&#45;script</text>
</g>
<!-- post&#45;script&#45;&gt;err&#45;script -->
<g id="edge8" class="edge">
<title>post&#45;script&#45;&gt;err&#45;script</title>
<path fill="none" stroke="#000000" d="M909.4846,-135.0422C920.8692,-133.8465 932.8748,-132.5856 944.3884,-131.3763"/>
<polygon fill="#000000" stroke="#000000" points="944.7722,-134.8553 954.3519,-130.3299 944.0409,-127.8936 944.7722,-134.8553"/>
</g>
<!-- exit&#45;script -->
<g id="node11" class="node">
<title>exit&#45;script</title>
<ellipse fill="none" stroke="#000000" cx="1005.0986" cy="-179" rx="56.59" ry="18"/>
<text text-anchor="middle" x="1005.0986" y="-175.3" font-family="sans" font-size="14.00" fill="#000000">exit&#45;script</text>
</g>
<!-- post&#45;script&#45;&gt;exit&#45;script -->
<g id="edge9" class="edge">
<title>post&#45;script&#45;&gt;exit&#45;script</title>
<path fill="none" stroke="#000000" d="M898.8793,-152.5044C915.2042,-156.5765 933.7222,-161.1957 950.6723,-165.4238"/>
<polygon fill="#000000" stroke="#000000" points="949.8928,-168.8365 960.4427,-167.8609 951.5871,-162.0446 949.8928,-168.8365"/>
</g>
</g>
</svg>
