<?xml version="1.0" encoding="UTF-8" standalone="no"?>
<!DOCTYPE svg PUBLIC "-//W3C//DTD SVG 1.1//EN"
 "http://www.w3.org/Graphics/SVG/1.1/DTD/svg11.dtd">
<!-- Generated by graphviz version 6.0.1 (20220911.2005)
 -->
<!-- Title: Example Pages: 1 -->
<svg width="216pt" height="332pt"
 viewBox="0.00 0.00 216.00 332.00" xmlns="http://www.w3.org/2000/svg" xmlns:xlink="http://www.w3.org/1999/xlink">
<g id="graph0" class="graph" transform="scale(1 1) rotate(0) translate(4 328)">
<title>Example</title>
<polygon fill="none" stroke="none" points="-4,4 -4,-328 212,-328 212,4 -4,4"/>
<!-- AIRPLANE -->
<g id="node1" class="node">
<title>AIRPLANE</title>
<polygon fill="powderblue" stroke="royalblue" points="86,-108 0,-108 0,-72 86,-72 86,-108"/>
<text text-anchor="middle" x="43" y="-86.3" font-family="sans" font-size="14.00">AIRPLANE</text>
</g>
<!-- a380 -->
<g id="node2" class="node">
<title>a380</title>
<polygon fill="powderblue" stroke="royalblue" points="70,-36 16,-36 16,0 70,0 70,-36"/>
<text text-anchor="middle" x="43" y="-14.3" font-family="sans" font-size="14.00">a380</text>
</g>
<!-- AIRPLANE&#45;&gt;a380 -->
<g id="edge1" class="edge">
<title>AIRPLANE&#45;&gt;a380</title>
<path fill="none" stroke="royalblue" d="M43,-71.7C43,-63.98 43,-54.71 43,-46.11"/>
<polygon fill="royalblue" stroke="royalblue" points="46.5,-46.1 43,-36.1 39.5,-46.1 46.5,-46.1"/>
</g>
<!-- HELICOPTER -->
<g id="node3" class="node">
<title>HELICOPTER</title>
<polygon fill="powderblue" stroke="royalblue" points="208,-108 104,-108 104,-72 208,-72 208,-108"/>
<text text-anchor="middle" x="156" y="-86.3" font-family="sans" font-size="14.00">HELICOPTER</text>
</g>
<!-- r44 -->
<g id="node4" class="node">
<title>r44</title>
<polygon fill="powderblue" stroke="royalblue" points="183,-36 129,-36 129,0 183,0 183,-36"/>
<text text-anchor="middle" x="156" y="-14.3" font-family="sans" font-size="14.00">r44</text>
</g>
<!-- HELICOPTER&#45;&gt;r44 -->
<g id="edge2" class="edge">
<title>HELICOPTER&#45;&gt;r44</title>
<path fill="none" stroke="royalblue" d="M156,-71.7C156,-63.98 156,-54.71 156,-46.11"/>
<polygon fill="royalblue" stroke="royalblue" points="159.5,-46.1 156,-36.1 152.5,-46.1 159.5,-46.1"/>
</g>
<!-- root -->
<g id="node5" class="node">
<title>root</title>
<polygon fill="powderblue" stroke="royalblue" points="126,-324 72,-324 72,-288 126,-288 126,-324"/>
<text text-anchor="middle" x="99" y="-302.3" font-family="sans" font-size="14.00">root</text>
</g>
<!-- VEHICLE -->
<g id="node6" class="node">
<title>VEHICLE</title>
<polygon fill="powderblue" stroke="royalblue" points="137.5,-252 60.5,-252 60.5,-216 137.5,-216 137.5,-252"/>
<text text-anchor="middle" x="99" y="-230.3" font-family="sans" font-size="14.00">VEHICLE</text>
</g>
<!-- root&#45;&gt;VEHICLE -->
<g id="edge3" class="edge">
<title>root&#45;&gt;VEHICLE</title>
<path fill="none" stroke="royalblue" d="M99,-287.7C99,-279.98 99,-270.71 99,-262.11"/>
<polygon fill="royalblue" stroke="royalblue" points="102.5,-262.1 99,-252.1 95.5,-262.1 102.5,-262.1"/>
</g>
<!-- AIR_VEHICLE -->
<g id="node7" class="node">
<title>AIR_VEHICLE</title>
<polygon fill="powderblue" stroke="royalblue" points="152.5,-180 45.5,-180 45.5,-144 152.5,-144 152.5,-180"/>
<text text-anchor="middle" x="99" y="-158.3" font-family="sans" font-size="14.00">AIR_VEHICLE</text>
</g>
<!-- VEHICLE&#45;&gt;AIR_VEHICLE -->
<g id="edge4" class="edge">
<title>VEHICLE&#45;&gt;AIR_VEHICLE</title>
<path fill="none" stroke="royalblue" d="M99,-215.7C99,-207.98 99,-198.71 99,-190.11"/>
<polygon fill="royalblue" stroke="royalblue" points="102.5,-190.1 99,-180.1 95.5,-190.1 102.5,-190.1"/>
</g>
<!-- AIR_VEHICLE&#45;&gt;AIRPLANE -->
<g id="edge5" class="edge">
<title>AIR_VEHICLE&#45;&gt;AIRPLANE</title>
<path fill="none" stroke="royalblue" d="M85.16,-143.7C78.51,-135.39 70.42,-125.28 63.11,-116.14"/>
<polygon fill="royalblue" stroke="royalblue" points="65.66,-113.73 56.68,-108.1 60.2,-118.1 65.66,-113.73"/>
</g>
<!-- AIR_VEHICLE&#45;&gt;HELICOPTER -->
<g id="edge6" class="edge">
<title>AIR_VEHICLE&#45;&gt;HELICOPTER</title>
<path fill="none" stroke="royalblue" d="M113.09,-143.7C119.92,-135.3 128.26,-125.07 135.76,-115.86"/>
<polygon fill="royalblue" stroke="royalblue" points="138.47,-118.07 142.07,-108.1 133.04,-113.65 138.47,-118.07"/>
</g>
</g>
</svg>
