<?xml version="1.0" encoding="UTF-8" standalone="no"?>
<!DOCTYPE svg PUBLIC "-//W3C//DTD SVG 1.1//EN"
 "http://www.w3.org/Graphics/SVG/1.1/DTD/svg11.dtd">
<!-- Generated by graphviz version 6.0.1 (20220911.2005)
 -->
<!-- Pages: 1 -->
<svg width="535pt" height="2418pt"
 viewBox="0.00 0.00 535.00 2418.00" xmlns="http://www.w3.org/2000/svg" xmlns:xlink="http://www.w3.org/1999/xlink">
<g id="graph0" class="graph" transform="scale(1 1) rotate(0) translate(4 2414)">
<polygon fill="none" stroke="none" points="-4,4 -4,-2414 531,-2414 531,4 -4,4"/>
<!-- absolute_outputs -->
<g id="node1" class="node">
<title>absolute_outputs</title>
<polygon fill="none" stroke="black" points="39.5,-78.5 39.5,-106.5 205.5,-106.5 205.5,-78.5 39.5,-78.5"/>
<text text-anchor="start" x="44.5" y="-89.7" font-family="Helvetica,sans-Serif" font-weight="bold" font-size="16.00">absolute_outputs</text>
<polygon fill="none" stroke="black" points="39.5,-53.5 39.5,-78.5 205.5,-78.5 205.5,-53.5 39.5,-53.5"/>
<text text-anchor="start" x="44.5" y="-62.3" font-family="Helvetica,sans-Serif" font-size="14.00">cycle</text>
<polygon fill="none" stroke="black" points="39.5,-28.5 39.5,-53.5 205.5,-53.5 205.5,-28.5 39.5,-28.5"/>
<text text-anchor="start" x="44.5" y="-37.3" font-family="Helvetica,sans-Serif" font-size="14.00">name</text>
<polygon fill="none" stroke="black" points="39.5,-3.5 39.5,-28.5 205.5,-28.5 205.5,-3.5 39.5,-3.5"/>
<text text-anchor="start" x="44.5" y="-12.3" font-family="Helvetica,sans-Serif" font-size="14.00">output</text>
</g>
<!-- broadcast_events -->
<g id="node2" class="node">
<title>broadcast_events</title>
<polygon fill="none" stroke="black" points="38.5,-283.5 38.5,-311.5 207.5,-311.5 207.5,-283.5 38.5,-283.5"/>
<text text-anchor="start" x="43.5" y="-294.7" font-family="Helvetica,sans-Serif" font-weight="bold" font-size="16.00">broadcast_events</text>
<polygon fill="none" stroke="black" points="38.5,-258.5 38.5,-283.5 207.5,-283.5 207.5,-258.5 38.5,-258.5"/>
<text text-anchor="start" x="43.5" y="-267.3" font-family="Helvetica,sans-Serif" font-size="14.00">time</text>
<polygon fill="none" stroke="black" points="38.5,-233.5 38.5,-258.5 207.5,-258.5 207.5,-233.5 38.5,-233.5"/>
<text text-anchor="start" x="43.5" y="-242.3" font-family="Helvetica,sans-Serif" font-size="14.00">change</text>
<polygon fill="none" stroke="black" points="38.5,-208.5 38.5,-233.5 207.5,-233.5 207.5,-208.5 38.5,-208.5"/>
<text text-anchor="start" x="43.5" y="-217.3" font-family="Helvetica,sans-Serif" font-size="14.00">point</text>
<polygon fill="none" stroke="black" points="38.5,-183.5 38.5,-208.5 207.5,-208.5 207.5,-183.5 38.5,-183.5"/>
<text text-anchor="start" x="43.5" y="-192.3" font-family="Helvetica,sans-Serif" font-size="14.00">namespace</text>
<polygon fill="none" stroke="black" points="38.5,-158.5 38.5,-183.5 207.5,-183.5 207.5,-158.5 38.5,-158.5"/>
<text text-anchor="start" x="43.5" y="-167.3" font-family="Helvetica,sans-Serif" font-size="14.00">key</text>
<polygon fill="none" stroke="black" points="38.5,-133.5 38.5,-158.5 207.5,-158.5 207.5,-133.5 38.5,-133.5"/>
<text text-anchor="start" x="43.5" y="-142.3" font-family="Helvetica,sans-Serif" font-size="14.00">value</text>
</g>
<!-- broadcast_states -->
<g id="node3" class="node">
<title>broadcast_states</title>
<polygon fill="none" stroke="black" points="40.5,-437.5 40.5,-465.5 204.5,-465.5 204.5,-437.5 40.5,-437.5"/>
<text text-anchor="start" x="45.5" y="-448.7" font-family="Helvetica,sans-Serif" font-weight="bold" font-size="16.00">broadcast_states</text>
<polygon fill="none" stroke="black" points="40.5,-412.5 40.5,-437.5 204.5,-437.5 204.5,-412.5 40.5,-412.5"/>
<text text-anchor="start" x="45.5" y="-422.3" font-family="Helvetica,sans-Serif" text-decoration="underline" font-size="14.00">point</text>
<polygon fill="none" stroke="black" points="40.5,-387.5 40.5,-412.5 204.5,-412.5 204.5,-387.5 40.5,-387.5"/>
<text text-anchor="start" x="45.5" y="-397.3" font-family="Helvetica,sans-Serif" text-decoration="underline" font-size="14.00">namespace</text>
<polygon fill="none" stroke="black" points="40.5,-362.5 40.5,-387.5 204.5,-387.5 204.5,-362.5 40.5,-362.5"/>
<text text-anchor="start" x="45.5" y="-372.3" font-family="Helvetica,sans-Serif" text-decoration="underline" font-size="14.00">key</text>
<polygon fill="none" stroke="black" points="40.5,-337.5 40.5,-362.5 204.5,-362.5 204.5,-337.5 40.5,-337.5"/>
<text text-anchor="start" x="45.5" y="-346.3" font-family="Helvetica,sans-Serif" font-size="14.00">value</text>
</g>
<!-- inheritance -->
<g id="node4" class="node">
<title>inheritance</title>
<polygon fill="none" stroke="black" points="66.5,-541.5 66.5,-569.5 178.5,-569.5 178.5,-541.5 66.5,-541.5"/>
<text text-anchor="start" x="71.5" y="-552.7" font-family="Helvetica,sans-Serif" font-weight="bold" font-size="16.00">inheritance</text>
<polygon fill="none" stroke="black" points="66.5,-516.5 66.5,-541.5 178.5,-541.5 178.5,-516.5 66.5,-516.5"/>
<text text-anchor="start" x="71.5" y="-526.3" font-family="Helvetica,sans-Serif" text-decoration="underline" font-size="14.00">namespace</text>
<polygon fill="none" stroke="black" points="66.5,-491.5 66.5,-516.5 178.5,-516.5 178.5,-491.5 66.5,-491.5"/>
<text text-anchor="start" x="71.5" y="-500.3" font-family="Helvetica,sans-Serif" font-size="14.00">inheritance</text>
</g>
<!-- task_action_timers -->
<g id="node5" class="node">
<title>task_action_timers</title>
<polygon fill="none" stroke="black" points="333.5,-1092.5 333.5,-1120.5 512.5,-1120.5 512.5,-1092.5 333.5,-1092.5"/>
<text text-anchor="start" x="338.5" y="-1103.7" font-family="Helvetica,sans-Serif" font-weight="bold" font-size="16.00">task_action_timers</text>
<polygon fill="none" stroke="black" points="333.5,-1067.5 333.5,-1092.5 512.5,-1092.5 512.5,-1067.5 333.5,-1067.5"/>
<text text-anchor="start" x="338.5" y="-1077.3" font-family="Helvetica,sans-Serif" text-decoration="underline" font-size="14.00">cycle</text>
<polygon fill="none" stroke="black" points="333.5,-1042.5 333.5,-1067.5 512.5,-1067.5 512.5,-1042.5 333.5,-1042.5"/>
<text text-anchor="start" x="338.5" y="-1052.3" font-family="Helvetica,sans-Serif" text-decoration="underline" font-size="14.00">name</text>
<polygon fill="none" stroke="black" points="333.5,-1017.5 333.5,-1042.5 512.5,-1042.5 512.5,-1017.5 333.5,-1017.5"/>
<text text-anchor="start" x="338.5" y="-1027.3" font-family="Helvetica,sans-Serif" text-decoration="underline" font-size="14.00">ctx_key</text>
<polygon fill="none" stroke="black" points="333.5,-992.5 333.5,-1017.5 512.5,-1017.5 512.5,-992.5 333.5,-992.5"/>
<text text-anchor="start" x="338.5" y="-1001.3" font-family="Helvetica,sans-Serif" font-size="14.00">ctx</text>
<polygon fill="none" stroke="black" points="333.5,-967.5 333.5,-992.5 512.5,-992.5 512.5,-967.5 333.5,-967.5"/>
<text text-anchor="start" x="338.5" y="-976.3" font-family="Helvetica,sans-Serif" font-size="14.00">delays</text>
<polygon fill="none" stroke="black" points="333.5,-942.5 333.5,-967.5 512.5,-967.5 512.5,-942.5 333.5,-942.5"/>
<text text-anchor="start" x="338.5" y="-951.3" font-family="Helvetica,sans-Serif" font-size="14.00">num</text>
<polygon fill="none" stroke="black" points="333.5,-917.5 333.5,-942.5 512.5,-942.5 512.5,-917.5 333.5,-917.5"/>
<text text-anchor="start" x="338.5" y="-926.3" font-family="Helvetica,sans-Serif" font-size="14.00">delay</text>
<polygon fill="none" stroke="black" points="333.5,-892.5 333.5,-917.5 512.5,-917.5 512.5,-892.5 333.5,-892.5"/>
<text text-anchor="start" x="338.5" y="-901.3" font-family="Helvetica,sans-Serif" font-size="14.00">timeout</text>
</g>
<!-- task_events -->
<g id="node6" class="node">
<title>task_events</title>
<polygon fill="none" stroke="black" points="364.5,-1726.5 364.5,-1754.5 481.5,-1754.5 481.5,-1726.5 364.5,-1726.5"/>
<text text-anchor="start" x="369.5" y="-1737.7" font-family="Helvetica,sans-Serif" font-weight="bold" font-size="16.00">task_events</text>
<polygon fill="none" stroke="black" points="364.5,-1701.5 364.5,-1726.5 481.5,-1726.5 481.5,-1701.5 364.5,-1701.5"/>
<text text-anchor="start" x="369.5" y="-1710.3" font-family="Helvetica,sans-Serif" font-size="14.00">name</text>
<polygon fill="none" stroke="black" points="364.5,-1676.5 364.5,-1701.5 481.5,-1701.5 481.5,-1676.5 364.5,-1676.5"/>
<text text-anchor="start" x="369.5" y="-1685.3" font-family="Helvetica,sans-Serif" font-size="14.00">cycle</text>
<polygon fill="none" stroke="black" points="364.5,-1651.5 364.5,-1676.5 481.5,-1676.5 481.5,-1651.5 364.5,-1651.5"/>
<text text-anchor="start" x="369.5" y="-1660.3" font-family="Helvetica,sans-Serif" font-size="14.00">time</text>
<polygon fill="none" stroke="black" points="364.5,-1626.5 364.5,-1651.5 481.5,-1651.5 481.5,-1626.5 364.5,-1626.5"/>
<text text-anchor="start" x="369.5" y="-1635.3" font-family="Helvetica,sans-Serif" font-size="14.00">submit_num</text>
<polygon fill="none" stroke="black" points="364.5,-1601.5 364.5,-1626.5 481.5,-1626.5 481.5,-1601.5 364.5,-1601.5"/>
<text text-anchor="start" x="369.5" y="-1610.3" font-family="Helvetica,sans-Serif" font-size="14.00">event</text>
<polygon fill="none" stroke="black" points="364.5,-1576.5 364.5,-1601.5 481.5,-1601.5 481.5,-1576.5 364.5,-1576.5"/>
<text text-anchor="start" x="369.5" y="-1585.3" font-family="Helvetica,sans-Serif" font-size="14.00">message</text>
</g>
<!-- task_jobs -->
<g id="node7" class="node">
<title>task_jobs</title>
<polygon fill="none" stroke="black" points="355.5,-1521.5 355.5,-1549.5 490.5,-1549.5 490.5,-1521.5 355.5,-1521.5"/>
<text text-anchor="start" x="380.5" y="-1532.7" font-family="Helvetica,sans-Serif" font-weight="bold" font-size="16.00">task_jobs</text>
<polygon fill="none" stroke="black" points="355.5,-1496.5 355.5,-1521.5 490.5,-1521.5 490.5,-1496.5 355.5,-1496.5"/>
<text text-anchor="start" x="360.5" y="-1506.3" font-family="Helvetica,sans-Serif" text-decoration="underline" font-size="14.00">cycle</text>
<polygon fill="none" stroke="black" points="355.5,-1471.5 355.5,-1496.5 490.5,-1496.5 490.5,-1471.5 355.5,-1471.5"/>
<text text-anchor="start" x="360.5" y="-1481.3" font-family="Helvetica,sans-Serif" text-decoration="underline" font-size="14.00">name</text>
<polygon fill="none" stroke="black" points="355.5,-1446.5 355.5,-1471.5 490.5,-1471.5 490.5,-1446.5 355.5,-1446.5"/>
<text text-anchor="start" x="360.5" y="-1456.3" font-family="Helvetica,sans-Serif" text-decoration="underline" font-size="14.00">submit_num</text>
<polygon fill="none" stroke="black" points="355.5,-1421.5 355.5,-1446.5 490.5,-1446.5 490.5,-1421.5 355.5,-1421.5"/>
<text text-anchor="start" x="360.5" y="-1430.3" font-family="Helvetica,sans-Serif" font-size="14.00">is_manual_submit</text>
<polygon fill="none" stroke="black" points="355.5,-1396.5 355.5,-1421.5 490.5,-1421.5 490.5,-1396.5 355.5,-1396.5"/>
<text text-anchor="start" x="360.5" y="-1405.3" font-family="Helvetica,sans-Serif" font-size="14.00">try_num</text>
<polygon fill="none" stroke="black" points="355.5,-1371.5 355.5,-1396.5 490.5,-1396.5 490.5,-1371.5 355.5,-1371.5"/>
<text text-anchor="start" x="360.5" y="-1380.3" font-family="Helvetica,sans-Serif" font-size="14.00">time_submit</text>
<polygon fill="none" stroke="black" points="355.5,-1346.5 355.5,-1371.5 490.5,-1371.5 490.5,-1346.5 355.5,-1346.5"/>
<text text-anchor="start" x="360.5" y="-1355.3" font-family="Helvetica,sans-Serif" font-size="14.00">time_submit_exit</text>
<polygon fill="none" stroke="black" points="355.5,-1321.5 355.5,-1346.5 490.5,-1346.5 490.5,-1321.5 355.5,-1321.5"/>
<text text-anchor="start" x="360.5" y="-1330.3" font-family="Helvetica,sans-Serif" font-size="14.00">submit_status</text>
<polygon fill="none" stroke="black" points="355.5,-1296.5 355.5,-1321.5 490.5,-1321.5 490.5,-1296.5 355.5,-1296.5"/>
<text text-anchor="start" x="360.5" y="-1305.3" font-family="Helvetica,sans-Serif" font-size="14.00">time_run</text>
<polygon fill="none" stroke="black" points="355.5,-1271.5 355.5,-1296.5 490.5,-1296.5 490.5,-1271.5 355.5,-1271.5"/>
<text text-anchor="start" x="360.5" y="-1280.3" font-family="Helvetica,sans-Serif" font-size="14.00">time_run_exit</text>
<polygon fill="none" stroke="black" points="355.5,-1246.5 355.5,-1271.5 490.5,-1271.5 490.5,-1246.5 355.5,-1246.5"/>
<text text-anchor="start" x="360.5" y="-1255.3" font-family="Helvetica,sans-Serif" font-size="14.00">run_signal</text>
<polygon fill="none" stroke="black" points="355.5,-1221.5 355.5,-1246.5 490.5,-1246.5 490.5,-1221.5 355.5,-1221.5"/>
<text text-anchor="start" x="360.5" y="-1230.3" font-family="Helvetica,sans-Serif" font-size="14.00">run_status</text>
<polygon fill="none" stroke="black" points="355.5,-1196.5 355.5,-1221.5 490.5,-1221.5 490.5,-1196.5 355.5,-1196.5"/>
<text text-anchor="start" x="360.5" y="-1205.3" font-family="Helvetica,sans-Serif" font-size="14.00">platform_name</text>
<polygon fill="none" stroke="black" points="355.5,-1171.5 355.5,-1196.5 490.5,-1196.5 490.5,-1171.5 355.5,-1171.5"/>
<text text-anchor="start" x="360.5" y="-1180.3" font-family="Helvetica,sans-Serif" font-size="14.00">job_runner_name</text>
<polygon fill="none" stroke="black" points="355.5,-1146.5 355.5,-1171.5 490.5,-1171.5 490.5,-1146.5 355.5,-1146.5"/>
<text text-anchor="start" x="360.5" y="-1155.3" font-family="Helvetica,sans-Serif" font-size="14.00">job_id</text>
</g>
<!-- task_late_flags -->
<g id="node8" class="node">
<title>task_late_flags</title>
<polygon fill="none" stroke="black" points="351.5,-837.5 351.5,-865.5 494.5,-865.5 494.5,-837.5 351.5,-837.5"/>
<text text-anchor="start" x="356.5" y="-848.7" font-family="Helvetica,sans-Serif" font-weight="bold" font-size="16.00">task_late_flags</text>
<polygon fill="none" stroke="black" points="351.5,-812.5 351.5,-837.5 494.5,-837.5 494.5,-812.5 351.5,-812.5"/>
<text text-anchor="start" x="356.5" y="-822.3" font-family="Helvetica,sans-Serif" text-decoration="underline" font-size="14.00">cycle</text>
<polygon fill="none" stroke="black" points="351.5,-787.5 351.5,-812.5 494.5,-812.5 494.5,-787.5 351.5,-787.5"/>
<text text-anchor="start" x="356.5" y="-797.3" font-family="Helvetica,sans-Serif" text-decoration="underline" font-size="14.00">name</text>
<polygon fill="none" stroke="black" points="351.5,-762.5 351.5,-787.5 494.5,-787.5 494.5,-762.5 351.5,-762.5"/>
<text text-anchor="start" x="356.5" y="-771.3" font-family="Helvetica,sans-Serif" font-size="14.00">value</text>
</g>
<!-- task_outputs -->
<g id="node9" class="node">
<title>task_outputs</title>
<polygon fill="none" stroke="black" points="359.5,-708.5 359.5,-736.5 486.5,-736.5 486.5,-708.5 359.5,-708.5"/>
<text text-anchor="start" x="364.5" y="-719.7" font-family="Helvetica,sans-Serif" font-weight="bold" font-size="16.00">task_outputs</text>
<polygon fill="none" stroke="black" points="359.5,-683.5 359.5,-708.5 486.5,-708.5 486.5,-683.5 359.5,-683.5"/>
<text text-anchor="start" x="364.5" y="-693.3" font-family="Helvetica,sans-Serif" text-decoration="underline" font-size="14.00">cycle</text>
<polygon fill="none" stroke="black" points="359.5,-658.5 359.5,-683.5 486.5,-683.5 486.5,-658.5 359.5,-658.5"/>
<text text-anchor="start" x="364.5" y="-668.3" font-family="Helvetica,sans-Serif" text-decoration="underline" font-size="14.00">name</text>
<polygon fill="none" stroke="black" points="359.5,-633.5 359.5,-658.5 486.5,-658.5 486.5,-633.5 359.5,-633.5"/>
<text text-anchor="start" x="364.5" y="-643.3" font-family="Helvetica,sans-Serif" text-decoration="underline" font-size="14.00">flow_nums</text>
<polygon fill="none" stroke="black" points="359.5,-608.5 359.5,-633.5 486.5,-633.5 486.5,-608.5 359.5,-608.5"/>
<text text-anchor="start" x="364.5" y="-617.3" font-family="Helvetica,sans-Serif" font-size="14.00">outputs</text>
</g>
<!-- task_pool -->
<g id="node10" class="node">
<title>task_pool</title>
<polygon fill="none" stroke="black" points="74.5,-720.5 74.5,-748.5 170.5,-748.5 170.5,-720.5 74.5,-720.5"/>
<text text-anchor="start" x="79.5" y="-731.7" font-family="Helvetica,sans-Serif" font-weight="bold" font-size="16.00">task_pool</text>
<polygon fill="none" stroke="black" points="74.5,-695.5 74.5,-720.5 170.5,-720.5 170.5,-695.5 74.5,-695.5"/>
<text text-anchor="start" x="79.5" y="-705.3" font-family="Helvetica,sans-Serif" text-decoration="underline" font-size="14.00">cycle</text>
<polygon fill="none" stroke="black" points="74.5,-670.5 74.5,-695.5 170.5,-695.5 170.5,-670.5 74.5,-670.5"/>
<text text-anchor="start" x="79.5" y="-680.3" font-family="Helvetica,sans-Serif" text-decoration="underline" font-size="14.00">name</text>
<polygon fill="none" stroke="black" points="74.5,-645.5 74.5,-670.5 170.5,-670.5 170.5,-645.5 74.5,-645.5"/>
<text text-anchor="start" x="79.5" y="-655.3" font-family="Helvetica,sans-Serif" text-decoration="underline" font-size="14.00">flow_nums</text>
<polygon fill="none" stroke="black" points="74.5,-620.5 74.5,-645.5 170.5,-645.5 170.5,-620.5 74.5,-620.5"/>
<text text-anchor="start" x="79.5" y="-629.3" font-family="Helvetica,sans-Serif" font-size="14.00">status</text>
<polygon fill="none" stroke="black" points="74.5,-595.5 74.5,-620.5 170.5,-620.5 170.5,-595.5 74.5,-595.5"/>
<text text-anchor="start" x="79.5" y="-604.3" font-family="Helvetica,sans-Serif" font-size="14.00">is_held</text>
</g>
<!-- task_pool&#45;&#45;task_action_timers -->
<g id="edge3" class="edge">
<title>task_pool&#45;&#45;task_action_timers</title>
<path fill="none" stroke="#7f7f7f" stroke-dasharray="5,2" d="M178.51,-734.15C219.46,-780.05 276.42,-843.89 324.9,-898.23"/>
<text text-anchor="start" x="283.9" y="-887.03" font-family="Times,serif" font-size="14.00">{0,1}</text>
<text text-anchor="start" x="178.51" y="-722.95" font-family="Times,serif" font-size="14.00">0..N</text>
</g>
<!-- task_pool&#45;&#45;task_late_flags -->
<g id="edge4" class="edge">
<title>task_pool&#45;&#45;task_late_flags</title>
<path fill="none" stroke="#7f7f7f" stroke-dasharray="5,2" d="M178.51,-698.71C224.67,-720.71 291.18,-752.4 342.95,-777.07"/>
<text text-anchor="start" x="301.95" y="-765.87" font-family="Times,serif" font-size="14.00">{0,1}</text>
<text text-anchor="start" x="178.51" y="-687.51" font-family="Times,serif" font-size="14.00">{0,1}</text>
</g>
<!-- task_pool&#45;&#45;task_outputs -->
<g id="edge5" class="edge">
<title>task_pool&#45;&#45;task_outputs</title>
<path fill="none" stroke="#7f7f7f" stroke-dasharray="5,2" d="M178.51,-672.5C227.02,-672.5 298.02,-672.5 350.75,-672.5"/>
<text text-anchor="start" x="309.75" y="-661.3" font-family="Times,serif" font-size="14.00">{0,1}</text>
<text text-anchor="start" x="178.51" y="-661.3" font-family="Times,serif" font-size="14.00">0..N</text>
</g>
<!-- task_prerequisites -->
<g id="node11" class="node">
<title>task_prerequisites</title>
<polygon fill="none" stroke="black" points="334.5,-553.5 334.5,-581.5 510.5,-581.5 510.5,-553.5 334.5,-553.5"/>
<text text-anchor="start" x="339.5" y="-564.7" font-family="Helvetica,sans-Serif" font-weight="bold" font-size="16.00">task_prerequisites</text>
<polygon fill="none" stroke="black" points="334.5,-528.5 334.5,-553.5 510.5,-553.5 510.5,-528.5 334.5,-528.5"/>
<text text-anchor="start" x="339.5" y="-538.3" font-family="Helvetica,sans-Serif" text-decoration="underline" font-size="14.00">cycle</text>
<polygon fill="none" stroke="black" points="334.5,-503.5 334.5,-528.5 510.5,-528.5 510.5,-503.5 334.5,-503.5"/>
<text text-anchor="start" x="339.5" y="-513.3" font-family="Helvetica,sans-Serif" text-decoration="underline" font-size="14.00">name</text>
<polygon fill="none" stroke="black" points="334.5,-478.5 334.5,-503.5 510.5,-503.5 510.5,-478.5 334.5,-478.5"/>
<text text-anchor="start" x="339.5" y="-488.3" font-family="Helvetica,sans-Serif" text-decoration="underline" font-size="14.00">flow_nums</text>
<polygon fill="none" stroke="black" points="334.5,-453.5 334.5,-478.5 510.5,-478.5 510.5,-453.5 334.5,-453.5"/>
<text text-anchor="start" x="339.5" y="-463.3" font-family="Helvetica,sans-Serif" text-decoration="underline" font-size="14.00">prereq_name</text>
<polygon fill="none" stroke="black" points="334.5,-428.5 334.5,-453.5 510.5,-453.5 510.5,-428.5 334.5,-428.5"/>
<text text-anchor="start" x="339.5" y="-438.3" font-family="Helvetica,sans-Serif" text-decoration="underline" font-size="14.00">prereq_cycle</text>
<polygon fill="none" stroke="black" points="334.5,-403.5 334.5,-428.5 510.5,-428.5 510.5,-403.5 334.5,-403.5"/>
<text text-anchor="start" x="339.5" y="-413.3" font-family="Helvetica,sans-Serif" text-decoration="underline" font-size="14.00">prereq_output</text>
<polygon fill="none" stroke="black" points="334.5,-378.5 334.5,-403.5 510.5,-403.5 510.5,-378.5 334.5,-378.5"/>
<text text-anchor="start" x="339.5" y="-387.3" font-family="Helvetica,sans-Serif" font-size="14.00">satisfied</text>
</g>
<!-- task_pool&#45;&#45;task_prerequisites -->
<g id="edge6" class="edge">
<title>task_pool&#45;&#45;task_prerequisites</title>
<path fill="none" stroke="#7f7f7f" stroke-dasharray="5,2" d="M178.51,-637.06C219.88,-610.41 277.59,-573.22 326.39,-541.78"/>
<text text-anchor="start" x="285.39" y="-530.58" font-family="Times,serif" font-size="14.00">{0,1}</text>
<text text-anchor="start" x="178.51" y="-625.86" font-family="Times,serif" font-size="14.00">0..N</text>
</g>
<!-- task_timeout_timers -->
<g id="node13" class="node">
<title>task_timeout_timers</title>
<polygon fill="none" stroke="black" points="326.5,-324.5 326.5,-352.5 519.5,-352.5 519.5,-324.5 326.5,-324.5"/>
<text text-anchor="start" x="331.5" y="-335.7" font-family="Helvetica,sans-Serif" font-weight="bold" font-size="16.00">task_timeout_timers</text>
<polygon fill="none" stroke="black" points="326.5,-299.5 326.5,-324.5 519.5,-324.5 519.5,-299.5 326.5,-299.5"/>
<text text-anchor="start" x="331.5" y="-309.3" font-family="Helvetica,sans-Serif" text-decoration="underline" font-size="14.00">cycle</text>
<polygon fill="none" stroke="black" points="326.5,-274.5 326.5,-299.5 519.5,-299.5 519.5,-274.5 326.5,-274.5"/>
<text text-anchor="start" x="331.5" y="-284.3" font-family="Helvetica,sans-Serif" text-decoration="underline" font-size="14.00">name</text>
<polygon fill="none" stroke="black" points="326.5,-249.5 326.5,-274.5 519.5,-274.5 519.5,-249.5 326.5,-249.5"/>
<text text-anchor="start" x="331.5" y="-258.3" font-family="Helvetica,sans-Serif" font-size="14.00">timeout</text>
</g>
<!-- task_pool&#45;&#45;task_timeout_timers -->
<g id="edge7" class="edge">
<title>task_pool&#45;&#45;task_timeout_timers</title>
<path fill="none" stroke="#7f7f7f" stroke-dasharray="5,2" d="M178.55,-642.08C201.83,-626.83 227.55,-606.49 245,-582.5 304.86,-500.21 254.75,-445.21 318,-365.5 320.23,-362.69 322.62,-359.96 325.15,-357.33"/>
<text text-anchor="start" x="284.15" y="-361.13" font-family="Times,serif" font-size="14.00">{0,1}</text>
<text text-anchor="start" x="178.55" y="-645.88" font-family="Times,serif" font-size="14.00">{0,1}</text>
</g>
<!-- task_states -->
<g id="node12" class="node">
<title>task_states</title>
<polygon fill="none" stroke="black" points="55.5,-1605.5 55.5,-1633.5 190.5,-1633.5 190.5,-1605.5 55.5,-1605.5"/>
<text text-anchor="start" x="71.5" y="-1616.7" font-family="Helvetica,sans-Serif" font-weight="bold" font-size="16.00">task_states</text>
<polygon fill="none" stroke="black" points="55.5,-1580.5 55.5,-1605.5 190.5,-1605.5 190.5,-1580.5 55.5,-1580.5"/>
<text text-anchor="start" x="60.5" y="-1590.3" font-family="Helvetica,sans-Serif" text-decoration="underline" font-size="14.00">name</text>
<polygon fill="none" stroke="black" points="55.5,-1555.5 55.5,-1580.5 190.5,-1580.5 190.5,-1555.5 55.5,-1555.5"/>
<text text-anchor="start" x="60.5" y="-1565.3" font-family="Helvetica,sans-Serif" text-decoration="underline" font-size="14.00">cycle</text>
<polygon fill="none" stroke="black" points="55.5,-1530.5 55.5,-1555.5 190.5,-1555.5 190.5,-1530.5 55.5,-1530.5"/>
<text text-anchor="start" x="60.5" y="-1540.3" font-family="Helvetica,sans-Serif" text-decoration="underline" font-size="14.00">flow_nums</text>
<polygon fill="none" stroke="black" points="55.5,-1505.5 55.5,-1530.5 190.5,-1530.5 190.5,-1505.5 55.5,-1505.5"/>
<text text-anchor="start" x="60.5" y="-1514.3" font-family="Helvetica,sans-Serif" font-size="14.00">time_created</text>
<polygon fill="none" stroke="black" points="55.5,-1480.5 55.5,-1505.5 190.5,-1505.5 190.5,-1480.5 55.5,-1480.5"/>
<text text-anchor="start" x="60.5" y="-1489.3" font-family="Helvetica,sans-Serif" font-size="14.00">time_updated</text>
<polygon fill="none" stroke="black" points="55.5,-1455.5 55.5,-1480.5 190.5,-1480.5 190.5,-1455.5 55.5,-1455.5"/>
<text text-anchor="start" x="60.5" y="-1464.3" font-family="Helvetica,sans-Serif" font-size="14.00">submit_num</text>
<polygon fill="none" stroke="black" points="55.5,-1430.5 55.5,-1455.5 190.5,-1455.5 190.5,-1430.5 55.5,-1430.5"/>
<text text-anchor="start" x="60.5" y="-1439.3" font-family="Helvetica,sans-Serif" font-size="14.00">status</text>
<polygon fill="none" stroke="black" points="55.5,-1405.5 55.5,-1430.5 190.5,-1430.5 190.5,-1405.5 55.5,-1405.5"/>
<text text-anchor="start" x="60.5" y="-1414.3" font-family="Helvetica,sans-Serif" font-size="14.00">flow_wait</text>
<polygon fill="none" stroke="black" points="55.5,-1380.5 55.5,-1405.5 190.5,-1405.5 190.5,-1380.5 55.5,-1380.5"/>
<text text-anchor="start" x="60.5" y="-1389.3" font-family="Helvetica,sans-Serif" font-size="14.00">is_manual_submit</text>
</g>
<!-- task_states&#45;&#45;task_events -->
<g id="edge1" class="edge">
<title>task_states&#45;&#45;task_events</title>
<path fill="none" stroke="#7f7f7f" stroke-dasharray="5,2" d="M198.31,-1547.17C246.76,-1572.85 309.26,-1605.99 355.79,-1630.66"/>
<text text-anchor="start" x="314.79" y="-1619.46" font-family="Times,serif" font-size="14.00">{0,1}</text>
<text text-anchor="start" x="198.31" y="-1535.97" font-family="Times,serif" font-size="14.00">0..N</text>
</g>
<!-- task_states&#45;&#45;task_jobs -->
<g id="edge2" class="edge">
<title>task_states&#45;&#45;task_jobs</title>
<path fill="none" stroke="#7f7f7f" stroke-dasharray="5,2" d="M198.31,-1467.58C243.74,-1443.34 301.53,-1412.51 346.91,-1388.3"/>
<text text-anchor="start" x="305.91" y="-1377.1" font-family="Times,serif" font-size="14.00">{0,1}</text>
<text text-anchor="start" x="198.31" y="-1456.38" font-family="Times,serif" font-size="14.00">0..N</text>
</g>
<!-- tasks_to_hold -->
<g id="node14" class="node">
<title>tasks_to_hold</title>
<polygon fill="none" stroke="black" points="56.5,-1710.5 56.5,-1738.5 189.5,-1738.5 189.5,-1710.5 56.5,-1710.5"/>
<text text-anchor="start" x="61.5" y="-1721.7" font-family="Helvetica,sans-Serif" font-weight="bold" font-size="16.00">tasks_to_hold</text>
<polygon fill="none" stroke="black" points="56.5,-1685.5 56.5,-1710.5 189.5,-1710.5 189.5,-1685.5 56.5,-1685.5"/>
<text text-anchor="start" x="61.5" y="-1694.3" font-family="Helvetica,sans-Serif" font-size="14.00">name</text>
<polygon fill="none" stroke="black" points="56.5,-1660.5 56.5,-1685.5 189.5,-1685.5 189.5,-1660.5 56.5,-1660.5"/>
<text text-anchor="start" x="61.5" y="-1669.3" font-family="Helvetica,sans-Serif" font-size="14.00">cycle</text>
</g>
<!-- workflow_flows -->
<g id="node15" class="node">
<title>workflow_flows</title>
<polygon fill="none" stroke="black" points="47.5,-1839.5 47.5,-1867.5 197.5,-1867.5 197.5,-1839.5 47.5,-1839.5"/>
<text text-anchor="start" x="52.5" y="-1850.7" font-family="Helvetica,sans-Serif" font-weight="bold" font-size="16.00">workflow_flows</text>
<polygon fill="none" stroke="black" points="47.5,-1814.5 47.5,-1839.5 197.5,-1839.5 197.5,-1814.5 47.5,-1814.5"/>
<text text-anchor="start" x="52.5" y="-1824.3" font-family="Helvetica,sans-Serif" text-decoration="underline" font-size="14.00">flow_num</text>
<polygon fill="none" stroke="black" points="47.5,-1789.5 47.5,-1814.5 197.5,-1814.5 197.5,-1789.5 47.5,-1789.5"/>
<text text-anchor="start" x="52.5" y="-1798.3" font-family="Helvetica,sans-Serif" font-size="14.00">start_time</text>
<polygon fill="none" stroke="black" points="47.5,-1764.5 47.5,-1789.5 197.5,-1789.5 197.5,-1764.5 47.5,-1764.5"/>
<text text-anchor="start" x="52.5" y="-1773.3" font-family="Helvetica,sans-Serif" font-size="14.00">description</text>
</g>
<!-- workflow_params -->
<g id="node16" class="node">
<title>workflow_params</title>
<polygon fill="none" stroke="black" points="38.5,-1944.5 38.5,-1972.5 207.5,-1972.5 207.5,-1944.5 38.5,-1944.5"/>
<text text-anchor="start" x="43.5" y="-1955.7" font-family="Helvetica,sans-Serif" font-weight="bold" font-size="16.00">workflow_params</text>
<polygon fill="none" stroke="black" points="38.5,-1919.5 38.5,-1944.5 207.5,-1944.5 207.5,-1919.5 38.5,-1919.5"/>
<text text-anchor="start" x="43.5" y="-1929.3" font-family="Helvetica,sans-Serif" text-decoration="underline" font-size="14.00">key</text>
<polygon fill="none" stroke="black" points="38.5,-1894.5 38.5,-1919.5 207.5,-1919.5 207.5,-1894.5 38.5,-1894.5"/>
<text text-anchor="start" x="43.5" y="-1903.3" font-family="Helvetica,sans-Serif" font-size="14.00">value</text>
</g>
<!-- workflow_template_vars -->
<g id="node17" class="node">
<title>workflow_template_vars</title>
<polygon fill="none" stroke="black" points="8.5,-2048.5 8.5,-2076.5 237.5,-2076.5 237.5,-2048.5 8.5,-2048.5"/>
<text text-anchor="start" x="13.5" y="-2059.7" font-family="Helvetica,sans-Serif" font-weight="bold" font-size="16.00">workflow_template_vars</text>
<polygon fill="none" stroke="black" points="8.5,-2023.5 8.5,-2048.5 237.5,-2048.5 237.5,-2023.5 8.5,-2023.5"/>
<text text-anchor="start" x="13.5" y="-2033.3" font-family="Helvetica,sans-Serif" text-decoration="underline" font-size="14.00">key</text>
<polygon fill="none" stroke="black" points="8.5,-1998.5 8.5,-2023.5 237.5,-2023.5 237.5,-1998.5 8.5,-1998.5"/>
<text text-anchor="start" x="13.5" y="-2007.3" font-family="Helvetica,sans-Serif" font-size="14.00">value</text>
</g>
<!-- xtriggers -->
<g id="node18" class="node">
<title>xtriggers</title>
<polygon fill="none" stroke="black" points="33.5,-2377.5 33.5,-2405.5 211.5,-2405.5 211.5,-2377.5 33.5,-2377.5"/>
<text text-anchor="start" x="81" y="-2388.7" font-family="Helvetica,sans-Serif" font-weight="bold" font-size="16.00">xtriggers</text>
<polygon fill="none" stroke="black" points="33.5,-2352.5 33.5,-2377.5 211.5,-2377.5 211.5,-2352.5 33.5,-2352.5"/>
<text text-anchor="start" x="38.5" y="-2362.3" font-family="Helvetica,sans-Serif" text-decoration="underline" font-size="14.00">signature</text>
<polygon fill="none" stroke="black" points="33.5,-2327.5 33.5,-2352.5 211.5,-2352.5 211.5,-2327.5 33.5,-2327.5"/>
<text text-anchor="start" x="38.5" y="-2336.3" font-family="Helvetica,sans-Serif" font-size="14.00">results</text>
<polygon fill="none" stroke="black" points="33.5,-2302.5 33.5,-2327.5 211.5,-2327.5 211.5,-2302.5 33.5,-2302.5"/>
<text text-anchor="start" x="38.5" y="-2311.3" font-family="Helvetica,sans-Serif" font-size="14.00">absolute_outputs</text>
<polygon fill="none" stroke="black" points="33.5,-2277.5 33.5,-2302.5 211.5,-2302.5 211.5,-2277.5 33.5,-2277.5"/>
<text text-anchor="start" x="38.5" y="-2286.3" font-family="Helvetica,sans-Serif" font-size="14.00">broadcast_events</text>
<polygon fill="none" stroke="black" points="33.5,-2252.5 33.5,-2277.5 211.5,-2277.5 211.5,-2252.5 33.5,-2252.5"/>
<text text-anchor="start" x="38.5" y="-2261.3" font-family="Helvetica,sans-Serif" font-size="14.00">broadcast_states</text>
<polygon fill="none" stroke="black" points="33.5,-2227.5 33.5,-2252.5 211.5,-2252.5 211.5,-2227.5 33.5,-2227.5"/>
<text text-anchor="start" x="38.5" y="-2236.3" font-family="Helvetica,sans-Serif" font-size="14.00">inheritance</text>
<polygon fill="none" stroke="black" points="33.5,-2202.5 33.5,-2227.5 211.5,-2227.5 211.5,-2202.5 33.5,-2202.5"/>
<text text-anchor="start" x="38.5" y="-2211.3" font-family="Helvetica,sans-Serif" font-size="14.00">tasks_to_hold</text>
<polygon fill="none" stroke="black" points="33.5,-2177.5 33.5,-2202.5 211.5,-2202.5 211.5,-2177.5 33.5,-2177.5"/>
<text text-anchor="start" x="38.5" y="-2186.3" font-family="Helvetica,sans-Serif" font-size="14.00">workflow_flows</text>
<polygon fill="none" stroke="black" points="33.5,-2152.5 33.5,-2177.5 211.5,-2177.5 211.5,-2152.5 33.5,-2152.5"/>
<text text-anchor="start" x="38.5" y="-2161.3" font-family="Helvetica,sans-Serif" font-size="14.00">workflow_params</text>
<polygon fill="none" stroke="black" points="33.5,-2127.5 33.5,-2152.5 211.5,-2152.5 211.5,-2127.5 33.5,-2127.5"/>
<text text-anchor="start" x="38.5" y="-2136.3" font-family="Helvetica,sans-Serif" font-size="14.00">workflow_template_vars</text>
<polygon fill="none" stroke="black" points="33.5,-2102.5 33.5,-2127.5 211.5,-2127.5 211.5,-2102.5 33.5,-2102.5"/>
<text text-anchor="start" x="38.5" y="-2111.3" font-family="Helvetica,sans-Serif" font-size="14.00">xtriggers</text>
</g>
</g>
</svg>
