<?xml version="1.0" encoding="UTF-8" standalone="no"?>
<!DOCTYPE svg PUBLIC "-//W3C//DTD SVG 1.1//EN"
 "http://www.w3.org/Graphics/SVG/1.1/DTD/svg11.dtd">
<!-- Generated by graphviz version 6.0.1 (20220911.2005)
 -->
<!-- Title: example Pages: 1 -->
<svg width="496pt" height="603pt"
 viewBox="0.00 0.00 496.00 603.00" xmlns="http://www.w3.org/2000/svg" xmlns:xlink="http://www.w3.org/1999/xlink">
<g id="graph0" class="graph" transform="scale(1 1) rotate(0) translate(4 599)">
<title>example</title>
<polygon fill="none" stroke="none" points="-4,4 -4,-599 492,-599 492,4 -4,4"/>
<g id="clust1" class="cluster">
<title>cluster_legend</title>
<polygon fill="none" stroke="black" stroke-dasharray="5,2" points="0,-224 0,-371 208,-371 208,-224 0,-224"/>
<text text-anchor="middle" x="104" y="-355.8" font-family="sans" font-size="14.00">Legend</text>
</g>
<g id="clust2" class="cluster">
<title>cluster_diagram</title>
</g>
<g id="clust3" class="cluster">
<title>cluster_subshell</title>
<polygon fill="none" stroke="black" stroke-dasharray="5,2" points="273,-72 273,-459 431,-459 431,-72 273,-72"/>
<text text-anchor="middle" x="352" y="-443.8" font-family="sans" font-size="14.00">Subshell process</text>
</g>
<!-- user defined script -->
<g id="node1" class="node">
<title>user defined script</title>
<ellipse fill="none" stroke="black" cx="104" cy="-322" rx="96.38" ry="18"/>
<text text-anchor="middle" x="104" y="-318.3" font-family="sans" font-size="14.00">user defined script</text>
</g>
<!-- cylc defined script -->
<g id="node2" class="node">
<title>cylc defined script</title>
<polygon fill="none" stroke="black" points="176,-268 32,-268 32,-232 176,-232 176,-268"/>
<text text-anchor="middle" x="104" y="-246.3" font-family="sans" font-size="14.00">cylc defined script</text>
</g>
<!-- user defined script&#45;&gt;cylc defined script -->
<!-- cylc&#45;env -->
<g id="node3" class="node">
<title>cylc&#45;env</title>
<polygon fill="none" stroke="black" points="389,-503 315,-503 315,-467 389,-467 389,-503"/>
<text text-anchor="middle" x="352" y="-481.3" font-family="sans" font-size="14.00">cylc&#45;env</text>
</g>
<!-- env&#45;script -->
<g id="node6" class="node">
<title>env&#45;script</title>
<ellipse fill="none" stroke="black" cx="352" cy="-398" rx="55.79" ry="18"/>
<text text-anchor="middle" x="352" y="-394.3" font-family="sans" font-size="14.00">env&#45;script</text>
</g>
<!-- cylc&#45;env&#45;&gt;env&#45;script -->
<g id="edge3" class="edge">
<title>cylc&#45;env&#45;&gt;env&#45;script</title>
<path fill="none" stroke="black" d="M352,-466.8C352,-455.16 352,-439.55 352,-426.24"/>
<polygon fill="black" stroke="black" points="355.5,-426.18 352,-416.18 348.5,-426.18 355.5,-426.18"/>
</g>
<!-- user&#45;env -->
<g id="node4" class="node">
<title>user&#45;env</title>
<polygon fill="none" stroke="black" points="390.5,-344 313.5,-344 313.5,-308 390.5,-308 390.5,-344"/>
<text text-anchor="middle" x="352" y="-322.3" font-family="sans" font-size="14.00">user&#45;env</text>
</g>
<!-- pre&#45;script -->
<g id="node7" class="node">
<title>pre&#45;script</title>
<ellipse fill="none" stroke="black" cx="352" cy="-254" rx="53.89" ry="18"/>
<text text-anchor="middle" x="352" y="-250.3" font-family="sans" font-size="14.00">pre&#45;script</text>
</g>
<!-- user&#45;env&#45;&gt;pre&#45;script -->
<g id="edge5" class="edge">
<title>user&#45;env&#45;&gt;pre&#45;script</title>
<path fill="none" stroke="black" d="M352,-307.7C352,-299.98 352,-290.71 352,-282.11"/>
<polygon fill="black" stroke="black" points="355.5,-282.1 352,-272.1 348.5,-282.1 355.5,-282.1"/>
</g>
<!-- init&#45;script -->
<g id="node5" class="node">
<title>init&#45;script</title>
<ellipse fill="none" stroke="black" cx="352" cy="-557" rx="53.89" ry="18"/>
<text text-anchor="middle" x="352" y="-553.3" font-family="sans" font-size="14.00">init&#45;script</text>
</g>
<!-- init&#45;script&#45;&gt;cylc&#45;env -->
<g id="edge2" class="edge">
<title>init&#45;script&#45;&gt;cylc&#45;env</title>
<path fill="none" stroke="black" d="M352,-538.7C352,-530.98 352,-521.71 352,-513.11"/>
<polygon fill="black" stroke="black" points="355.5,-513.1 352,-503.1 348.5,-513.1 355.5,-513.1"/>
</g>
<!-- env&#45;script&#45;&gt;user&#45;env -->
<g id="edge4" class="edge">
<title>env&#45;script&#45;&gt;user&#45;env</title>
<path fill="none" stroke="black" d="M352,-379.7C352,-371.98 352,-362.71 352,-354.11"/>
<polygon fill="black" stroke="black" points="355.5,-354.1 352,-344.1 348.5,-354.1 355.5,-354.1"/>
</g>
<!-- script -->
<g id="node8" class="node">
<title>script</title>
<ellipse fill="none" stroke="black" cx="352" cy="-182" rx="36.29" ry="18"/>
<text text-anchor="middle" x="352" y="-178.3" font-family="sans" font-size="14.00">script</text>
</g>
<!-- pre&#45;script&#45;&gt;script -->
<g id="edge6" class="edge">
<title>pre&#45;script&#45;&gt;script</title>
<path fill="none" stroke="black" d="M352,-235.7C352,-227.98 352,-218.71 352,-210.11"/>
<polygon fill="black" stroke="black" points="355.5,-210.1 352,-200.1 348.5,-210.1 355.5,-210.1"/>
</g>
<!-- post&#45;script -->
<g id="node9" class="node">
<title>post&#45;script</title>
<ellipse fill="none" stroke="black" cx="352" cy="-110" rx="59.29" ry="18"/>
<text text-anchor="middle" x="352" y="-106.3" font-family="sans" font-size="14.00">post&#45;script</text>
</g>
<!-- script&#45;&gt;post&#45;script -->
<g id="edge7" class="edge">
<title>script&#45;&gt;post&#45;script</title>
<path fill="none" stroke="black" d="M352,-163.7C352,-155.98 352,-146.71 352,-138.11"/>
<polygon fill="black" stroke="black" points="355.5,-138.1 352,-128.1 348.5,-138.1 355.5,-138.1"/>
</g>
<!-- err&#45;script -->
<g id="node10" class="node">
<title>err&#45;script</title>
<ellipse fill="none" stroke="black" cx="287" cy="-38" rx="51.19" ry="18"/>
<text text-anchor="middle" x="287" y="-34.3" font-family="sans" font-size="14.00">err&#45;script</text>
</g>
<!-- post&#45;script&#45;&gt;err&#45;script -->
<g id="edge8" class="edge">
<title>post&#45;script&#45;&gt;err&#45;script</title>
<path fill="none" stroke="black" d="M336.6,-92.41C328.42,-83.61 318.23,-72.63 309.21,-62.92"/>
<polygon fill="black" stroke="black" points="311.66,-60.42 302.29,-55.47 306.53,-65.18 311.66,-60.42"/>
</g>
<!-- exit&#45;script -->
<g id="node11" class="node">
<title>exit&#45;script</title>
<ellipse fill="none" stroke="black" cx="412" cy="-38" rx="55.79" ry="18"/>
<text text-anchor="middle" x="412" y="-34.3" font-family="sans" font-size="14.00">exit&#45;script</text>
</g>
<!-- post&#45;script&#45;&gt;exit&#45;script -->
<g id="edge9" class="edge">
<title>post&#45;script&#45;&gt;exit&#45;script</title>
<path fill="none" stroke="black" d="M366.22,-92.41C373.69,-83.69 382.99,-72.85 391.25,-63.21"/>
<polygon fill="black" stroke="black" points="394.03,-65.34 397.88,-55.47 388.72,-60.78 394.03,-65.34"/>
</g>
</g>
</svg>
