<?xml version="1.0" encoding="UTF-8" standalone="no"?>
<!DOCTYPE svg PUBLIC "-//W3C//DTD SVG 1.1//EN"
 "http://www.w3.org/Graphics/SVG/1.1/DTD/svg11.dtd">
<!-- Generated by graphviz version 6.0.1 (20220911.2005)
 -->
<!-- Title: Example Pages: 1 -->
<svg width="167pt" height="191pt"
 viewBox="0.00 0.00 167.00 191.00" xmlns="http://www.w3.org/2000/svg" xmlns:xlink="http://www.w3.org/1999/xlink">
<g id="graph0" class="graph" transform="scale(1 1) rotate(0) translate(4 187)">
<title>Example</title>
<polygon fill="none" stroke="none" points="-4,4 -4,-187 163,-187 163,4 -4,4"/>
<g id="clust1" class="cluster">
<title>cluster_1</title>
<polygon fill="none" stroke="red" stroke-dasharray="5,2" points="8,-64 8,-139 112,-139 112,-64 8,-64"/>
<text text-anchor="middle" x="60" y="-123.8" font-family="sans" font-size="14.00" fill="red">:fail</text>
</g>
<!-- recover -->
<g id="node1" class="node">
<title>recover</title>
<ellipse fill="none" stroke="black" cx="60" cy="-90" rx="44.39" ry="18"/>
<text text-anchor="middle" x="60" y="-86.3" font-family="sans" font-size="14.00">recover</text>
</g>
<!-- bar -->
<g id="node3" class="node">
<title>bar</title>
<ellipse fill="none" stroke="black" cx="132" cy="-18" rx="27" ry="18"/>
<text text-anchor="middle" x="132" y="-14.3" font-family="sans" font-size="14.00">bar</text>
</g>
<!-- recover&#45;&gt;bar -->
<g id="edge2" class="edge">
<title>recover&#45;&gt;bar</title>
<path fill="none" stroke="black" d="M76.34,-73.12C86.22,-63.51 98.95,-51.13 109.75,-40.63"/>
<polygon fill="none" stroke="black" points="112.47,-42.87 117.2,-33.39 107.59,-37.85 112.47,-42.87"/>
</g>
<!-- foo -->
<g id="node2" class="node">
<title>foo</title>
<ellipse fill="none" stroke="black" cx="132" cy="-165" rx="27" ry="18"/>
<text text-anchor="middle" x="132" y="-161.3" font-family="sans" font-size="14.00">foo</text>
</g>
<!-- foo&#45;&gt;recover -->
<g id="edge1" class="edge">
<title>foo&#45;&gt;recover</title>
<path fill="none" stroke="black" d="M117.78,-149.58C107.82,-139.49 94.32,-125.79 82.87,-114.18"/>
<polygon fill="black" stroke="black" points="85.21,-111.57 75.7,-106.91 80.23,-116.49 85.21,-111.57"/>
</g>
<!-- foo&#45;&gt;bar -->
<g id="edge3" class="edge">
<title>foo&#45;&gt;bar</title>
<path fill="none" stroke="black" d="M132,-146.8C132,-121.94 132,-75.74 132,-46.23"/>
<polygon fill="none" stroke="black" points="135.5,-46.18 132,-36.18 128.5,-46.18 135.5,-46.18"/>
</g>
</g>
</svg>
