<?xml version="1.0" encoding="UTF-8" standalone="no"?>
<!DOCTYPE svg PUBLIC "-//W3C//DTD SVG 1.1//EN"
 "http://www.w3.org/Graphics/SVG/1.1/DTD/svg11.dtd">
<!-- Generated by graphviz version 6.0.1 (20220911.2005)
 -->
<!-- Title: example Pages: 1 -->
<svg width="180pt" height="263pt"
 viewBox="0.00 0.00 180.00 263.00" xmlns="http://www.w3.org/2000/svg" xmlns:xlink="http://www.w3.org/1999/xlink">
<g id="graph0" class="graph" transform="scale(1 1) rotate(0) translate(4 259)">
<title>example</title>
<polygon fill="none" stroke="none" points="-4,4 -4,-259 176,-259 176,4 -4,4"/>
<g id="clust1" class="cluster">
<title>cluster_success</title>
<polygon fill="none" stroke="green" stroke-dasharray="5,2" points="8,-64 8,-139 86,-139 86,-64 8,-64"/>
<text text-anchor="middle" x="47" y="-123.8" font-family="sans" font-size="14.00" fill="green">:succeed</text>
</g>
<g id="clust2" class="cluster">
<title>cluster_failure</title>
<polygon fill="none" stroke="red" stroke-dasharray="5,2" points="94,-64 94,-139 164,-139 164,-64 94,-64"/>
<text text-anchor="middle" x="129" y="-123.8" font-family="sans" font-size="14.00" fill="red">:fail</text>
</g>
<!-- c -->
<g id="node1" class="node">
<title>c</title>
<ellipse fill="none" stroke="black" cx="51" cy="-90" rx="27" ry="18"/>
<text text-anchor="middle" x="51" y="-86.3" font-family="sans" font-size="14.00">c</text>
</g>
<!-- d -->
<g id="node5" class="node">
<title>d</title>
<ellipse fill="none" stroke="black" cx="90" cy="-18" rx="27" ry="18"/>
<text text-anchor="middle" x="90" y="-14.3" font-family="sans" font-size="14.00">d</text>
</g>
<!-- c&#45;&gt;d -->
<g id="edge3" class="edge">
<title>c&#45;&gt;d</title>
<path fill="none" stroke="black" d="M60.05,-72.76C64.82,-64.19 70.78,-53.49 76.13,-43.9"/>
<polygon fill="black" stroke="black" points="79.19,-45.59 81,-35.15 73.08,-42.18 79.19,-45.59"/>
</g>
<!-- r -->
<g id="node2" class="node">
<title>r</title>
<ellipse fill="none" stroke="black" cx="129" cy="-90" rx="27" ry="18"/>
<text text-anchor="middle" x="129" y="-86.3" font-family="sans" font-size="14.00">r</text>
</g>
<!-- r&#45;&gt;d -->
<g id="edge5" class="edge">
<title>r&#45;&gt;d</title>
<path fill="none" stroke="black" d="M119.95,-72.76C115.18,-64.19 109.22,-53.49 103.87,-43.9"/>
<polygon fill="black" stroke="black" points="106.92,-42.18 99,-35.15 100.81,-45.59 106.92,-42.18"/>
</g>
<!-- a -->
<g id="node3" class="node">
<title>a</title>
<ellipse fill="none" stroke="black" cx="90" cy="-237" rx="27" ry="18"/>
<text text-anchor="middle" x="90" y="-233.3" font-family="sans" font-size="14.00">a</text>
</g>
<!-- b -->
<g id="node4" class="node">
<title>b</title>
<ellipse fill="none" stroke="black" cx="90" cy="-165" rx="27" ry="18"/>
<text text-anchor="middle" x="90" y="-161.3" font-family="sans" font-size="14.00">b</text>
</g>
<!-- a&#45;&gt;b -->
<g id="edge1" class="edge">
<title>a&#45;&gt;b</title>
<path fill="none" stroke="black" d="M90,-218.7C90,-210.98 90,-201.71 90,-193.11"/>
<polygon fill="black" stroke="black" points="93.5,-193.1 90,-183.1 86.5,-193.1 93.5,-193.1"/>
</g>
<!-- b&#45;&gt;c -->
<g id="edge2" class="edge">
<title>b&#45;&gt;c</title>
<path fill="none" stroke="black" d="M81.34,-147.8C76.4,-138.54 70.08,-126.72 64.5,-116.26"/>
<polygon fill="black" stroke="black" points="67.43,-114.33 59.63,-107.16 61.26,-117.63 67.43,-114.33"/>
</g>
<!-- b&#45;&gt;r -->
<g id="edge4" class="edge">
<title>b&#45;&gt;r</title>
<path fill="none" stroke="black" d="M98.66,-147.8C103.6,-138.54 109.92,-126.72 115.5,-116.26"/>
<polygon fill="black" stroke="black" points="118.74,-117.63 120.37,-107.16 112.57,-114.33 118.74,-117.63"/>
</g>
</g>
</svg>
