<?xml version="1.0" encoding="UTF-8" standalone="no"?>
<!DOCTYPE svg PUBLIC "-//W3C//DTD SVG 1.1//EN"
 "http://www.w3.org/Graphics/SVG/1.1/DTD/svg11.dtd">
<!-- Generated by graphviz version 6.0.1 (20220911.2005)
 -->
<!-- Title: _ Pages: 1 -->
<svg width="199pt" height="380pt"
 viewBox="0.00 0.00 198.90 380.00" xmlns="http://www.w3.org/2000/svg" xmlns:xlink="http://www.w3.org/1999/xlink">
<g id="graph0" class="graph" transform="scale(1 1) rotate(0) translate(4 376)">
<title>_</title>
<polygon fill="none" stroke="none" points="-4,4 -4,-376 194.9,-376 194.9,4 -4,4"/>
<!-- Jobs -->
<g id="node1" class="node">
<title>Jobs</title>
<ellipse fill="none" stroke="black" cx="55.9" cy="-354" rx="29.8" ry="18"/>
<text text-anchor="middle" x="55.9" y="-350.3" font-family="sans" font-size="14.00">Jobs</text>
</g>
<!-- Scheduler -->
<g id="node2" class="node">
<title>Scheduler</title>
<ellipse fill="none" stroke="black" cx="55.9" cy="-237" rx="55.79" ry="18"/>
<text text-anchor="middle" x="55.9" y="-233.3" font-family="sans" font-size="14.00">Scheduler</text>
</g>
<!-- Jobs&#45;&gt;Scheduler -->
<g id="edge1" class="edge">
<title>Jobs&#45;&gt;Scheduler</title>
<path fill="none" stroke="black" d="M55.9,-335.53C55.9,-316.94 55.9,-287.24 55.9,-265.5"/>
<polygon fill="black" stroke="black" points="59.4,-265.25 55.9,-255.25 52.4,-265.25 59.4,-265.25"/>
<text text-anchor="middle" x="90.9" y="-306.8" font-family="Times,serif" font-size="14.00"> ZMQ</text>
<text text-anchor="middle" x="90.9" y="-291.8" font-family="Times,serif" font-size="14.00"> GraphQL</text>
<text text-anchor="middle" x="90.9" y="-276.8" font-family="Times,serif" font-size="14.00"> (default)</text>
</g>
<!-- UIS -->
<g id="node3" class="node">
<title>UIS</title>
<ellipse fill="none" stroke="black" cx="55.9" cy="-120" rx="27" ry="18"/>
<text text-anchor="middle" x="55.9" y="-116.3" font-family="sans" font-size="14.00">UIS</text>
</g>
<!-- Scheduler&#45;&gt;UIS -->
<g id="edge2" class="edge">
<title>Scheduler&#45;&gt;UIS</title>
<path fill="none" stroke="black" d="M55.9,-218.53C55.9,-199.94 55.9,-170.24 55.9,-148.5"/>
<polygon fill="black" stroke="black" points="59.4,-148.25 55.9,-138.25 52.4,-148.25 59.4,-148.25"/>
<text text-anchor="middle" x="123.4" y="-189.8" font-family="Times,serif" font-size="14.00"> ZMQ</text>
<text text-anchor="middle" x="123.4" y="-174.8" font-family="Times,serif" font-size="14.00"> GraphQL (control)</text>
<text text-anchor="middle" x="123.4" y="-159.8" font-family="Times,serif" font-size="14.00"> Protobuf (data)</text>
</g>
<!-- UI -->
<g id="node4" class="node">
<title>UI</title>
<ellipse fill="none" stroke="black" cx="55.9" cy="-18" rx="27" ry="18"/>
<text text-anchor="middle" x="55.9" y="-14.3" font-family="sans" font-size="14.00">UI</text>
</g>
<!-- UIS&#45;&gt;UI -->
<g id="edge3" class="edge">
<title>UIS&#45;&gt;UI</title>
<path fill="none" stroke="black" d="M55.9,-101.58C55.9,-86.38 55.9,-64.07 55.9,-46.46"/>
<polygon fill="black" stroke="black" points="59.4,-46.22 55.9,-36.22 52.4,-46.22 59.4,-46.22"/>
<text text-anchor="middle" x="96.9" y="-72.8" font-family="Times,serif" font-size="14.00"> Websocket</text>
<text text-anchor="middle" x="96.9" y="-57.8" font-family="Times,serif" font-size="14.00"> GraphQL</text>
</g>
</g>
</svg>
