<?xml version="1.0" encoding="UTF-8" standalone="no"?>
<!DOCTYPE svg PUBLIC "-//W3C//DTD SVG 1.1//EN"
 "http://www.w3.org/Graphics/SVG/1.1/DTD/svg11.dtd">
<!-- Generated by graphviz version 6.0.1 (20220911.2005)
 -->
<!-- Title: Example Pages: 1 -->
<svg width="504pt" height="224pt"
 viewBox="0.00 0.00 504.00 224.00" xmlns="http://www.w3.org/2000/svg" xmlns:xlink="http://www.w3.org/1999/xlink">
<g id="graph0" class="graph" transform="scale(0.861538 0.861538) rotate(0) translate(4 256)">
<title>Example</title>
<polygon fill="none" stroke="none" points="-4,4 -4,-256 581,-256 581,4 -4,4"/>
<!-- VEHICLE -->
<g id="node1" class="node">
<title>VEHICLE</title>
<polygon fill="powderblue" stroke="royalblue" points="225,-252 148,-252 148,-216 225,-216 225,-252"/>
<text text-anchor="middle" x="186.5" y="-230.3" font-family="sans" font-size="14.00">VEHICLE</text>
</g>
<!-- AIR_VEHICLE -->
<g id="node2" class="node">
<title>AIR_VEHICLE</title>
<polygon fill="powderblue" stroke="royalblue" points="107,-180 0,-180 0,-144 107,-144 107,-180"/>
<text text-anchor="middle" x="53.5" y="-158.3" font-family="sans" font-size="14.00">AIR_VEHICLE</text>
</g>
<!-- VEHICLE&#45;&gt;AIR_VEHICLE -->
<g id="edge1" class="edge">
<title>VEHICLE&#45;&gt;AIR_VEHICLE</title>
<path fill="none" stroke="black" d="M153.96,-215.88C136.25,-206.55 114.15,-194.92 95.18,-184.94"/>
<polygon fill="black" stroke="black" points="96.64,-181.75 86.16,-180.19 93.38,-187.94 96.64,-181.75"/>
</g>
<!-- LAND_VEHICLE -->
<g id="node3" class="node">
<title>LAND_VEHICLE</title>
<polygon fill="powderblue" stroke="royalblue" points="247.5,-180 125.5,-180 125.5,-144 247.5,-144 247.5,-180"/>
<text text-anchor="middle" x="186.5" y="-158.3" font-family="sans" font-size="14.00">LAND_VEHICLE</text>
</g>
<!-- VEHICLE&#45;&gt;LAND_VEHICLE -->
<g id="edge3" class="edge">
<title>VEHICLE&#45;&gt;LAND_VEHICLE</title>
<path fill="none" stroke="black" d="M186.5,-215.7C186.5,-207.98 186.5,-198.71 186.5,-190.11"/>
<polygon fill="black" stroke="black" points="190,-190.1 186.5,-180.1 183,-190.1 190,-190.1"/>
</g>
<!-- WATER_VEHICLE -->
<g id="node4" class="node">
<title>WATER_VEHICLE</title>
<polygon fill="powderblue" stroke="royalblue" points="397,-180 266,-180 266,-144 397,-144 397,-180"/>
<text text-anchor="middle" x="331.5" y="-158.3" font-family="sans" font-size="14.00">WATER_VEHICLE</text>
</g>
<!-- VEHICLE&#45;&gt;WATER_VEHICLE -->
<g id="edge5" class="edge">
<title>VEHICLE&#45;&gt;WATER_VEHICLE</title>
<path fill="none" stroke="black" d="M221.97,-215.88C241.62,-206.39 266.22,-194.51 287.13,-184.42"/>
<polygon fill="black" stroke="black" points="288.66,-187.57 296.14,-180.07 285.62,-181.26 288.66,-187.57"/>
</g>
<!-- HOVERCRAFT -->
<g id="node5" class="node">
<title>HOVERCRAFT</title>
<polygon fill="powderblue" stroke="royalblue" points="266.5,-108 156.5,-108 156.5,-72 266.5,-72 266.5,-108"/>
<text text-anchor="middle" x="211.5" y="-86.3" font-family="sans" font-size="14.00">HOVERCRAFT</text>
</g>
<!-- AIR_VEHICLE&#45;&gt;HOVERCRAFT -->
<g id="edge2" class="edge">
<title>AIR_VEHICLE&#45;&gt;HOVERCRAFT</title>
<path fill="none" stroke="black" d="M92.15,-143.88C113.75,-134.31 140.85,-122.3 163.77,-112.15"/>
<polygon fill="black" stroke="black" points="165.25,-115.32 172.97,-108.07 162.41,-108.92 165.25,-115.32"/>
</g>
<!-- LAND_VEHICLE&#45;&gt;HOVERCRAFT -->
<g id="edge4" class="edge">
<title>LAND_VEHICLE&#45;&gt;HOVERCRAFT</title>
<path fill="none" stroke="black" d="M192.68,-143.7C195.5,-135.81 198.89,-126.3 202.02,-117.55"/>
<polygon fill="black" stroke="black" points="205.32,-118.7 205.39,-108.1 198.73,-116.34 205.32,-118.7"/>
</g>
<!-- WATER_VEHICLE&#45;&gt;HOVERCRAFT -->
<g id="edge6" class="edge">
<title>WATER_VEHICLE&#45;&gt;HOVERCRAFT</title>
<path fill="none" stroke="black" d="M302.14,-143.88C286.45,-134.72 266.94,-123.34 250.05,-113.48"/>
<polygon fill="black" stroke="black" points="251.37,-110.21 240.97,-108.19 247.84,-116.25 251.37,-110.21"/>
</g>
<!-- bht130 -->
<g id="node6" class="node">
<title>bht130</title>
<polygon fill="powderblue" stroke="royalblue" points="351,-36 284,-36 284,0 351,0 351,-36"/>
<text text-anchor="middle" x="317.5" y="-14.3" font-family="sans" font-size="14.00">bht130</text>
</g>
<!-- HOVERCRAFT&#45;&gt;bht130 -->
<g id="edge7" class="edge">
<title>HOVERCRAFT&#45;&gt;bht130</title>
<path fill="none" stroke="black" d="M237.43,-71.88C251.16,-62.81 268.21,-51.55 283.04,-41.76"/>
<polygon fill="black" stroke="black" points="285.05,-44.62 291.47,-36.19 281.2,-38.78 285.05,-44.62"/>
</g>
<!-- ENGINE -->
<g id="node7" class="node">
<title>ENGINE</title>
<polygon fill="powderblue" stroke="royalblue" points="486,-180 415,-180 415,-144 486,-144 486,-180"/>
<text text-anchor="middle" x="450.5" y="-158.3" font-family="sans" font-size="14.00">ENGINE</text>
</g>
<!-- INTERNAL_COMBUSTION_ENGINE -->
<g id="node8" class="node">
<title>INTERNAL_COMBUSTION_ENGINE</title>
<polygon fill="powderblue" stroke="royalblue" points="577,-108 298,-108 298,-72 577,-72 577,-108"/>
<text text-anchor="middle" x="437.5" y="-86.3" font-family="sans" font-size="14.00">INTERNAL_COMBUSTION_ENGINE</text>
</g>
<!-- ENGINE&#45;&gt;INTERNAL_COMBUSTION_ENGINE -->
<g id="edge8" class="edge">
<title>ENGINE&#45;&gt;INTERNAL_COMBUSTION_ENGINE</title>
<path fill="none" stroke="black" d="M447.29,-143.7C445.85,-135.98 444.13,-126.71 442.54,-118.11"/>
<polygon fill="black" stroke="black" points="445.94,-117.3 440.68,-108.1 439.06,-118.58 445.94,-117.3"/>
</g>
<!-- INTERNAL_COMBUSTION_ENGINE&#45;&gt;bht130 -->
<g id="edge9" class="edge">
<title>INTERNAL_COMBUSTION_ENGINE&#45;&gt;bht130</title>
<path fill="none" stroke="black" d="M408.14,-71.88C392.45,-62.72 372.94,-51.34 356.05,-41.48"/>
<polygon fill="black" stroke="black" points="357.37,-38.21 346.97,-36.19 353.84,-44.25 357.37,-38.21"/>
</g>
</g>
</svg>
