<?xml version="1.0" encoding="UTF-8" standalone="no"?>
<!DOCTYPE svg PUBLIC "-//W3C//DTD SVG 1.1//EN"
 "http://www.w3.org/Graphics/SVG/1.1/DTD/svg11.dtd">
<!-- Generated by graphviz version 6.0.1 (20220911.2005)
 -->
<!-- Title: Example Pages: 1 -->
<svg width="360pt" height="64pt"
 viewBox="0.00 0.00 360.00 64.20" xmlns="http://www.w3.org/2000/svg" xmlns:xlink="http://www.w3.org/1999/xlink">
<g id="graph0" class="graph" transform="scale(0.55342 0.55342) rotate(0) translate(4 112)">
<title>Example</title>
<polygon fill="none" stroke="none" points="-4,4 -4,-112 646.5,-112 646.5,4 -4,4"/>
<!-- ENGINE -->
<g id="node1" class="node">
<title>ENGINE</title>
<polygon fill="powderblue" stroke="royalblue" points="375.5,-108 276.5,-108 276.5,-72 375.5,-72 375.5,-108"/>
<text text-anchor="middle" x="326" y="-86.3" font-family="sans" font-size="14.00">ENGINE</text>
</g>
<!-- TURBINE_ENGINE -->
<g id="node2" class="node">
<title>TURBINE_ENGINE</title>
<polygon fill="powderblue" stroke="royalblue" points="168,-36 0,-36 0,0 168,0 168,-36"/>
<text text-anchor="middle" x="84" y="-14.3" font-family="sans" font-size="14.00">TURBINE_ENGINE</text>
</g>
<!-- ENGINE&#45;&gt;TURBINE_ENGINE -->
<g id="edge1" class="edge">
<title>ENGINE&#45;&gt;TURBINE_ENGINE</title>
<path fill="none" stroke="black" d="M276.44,-74.67C240.75,-64.34 192.13,-50.28 152.7,-38.87"/>
<polygon fill="black" stroke="black" points="153.46,-35.45 142.88,-36.03 151.51,-42.17 153.46,-35.45"/>
</g>
<!-- INTERNAL_COMBUSTION_ENGINE -->
<g id="node3" class="node">
<title>INTERNAL_COMBUSTION_ENGINE</title>
<polygon fill="powderblue" stroke="royalblue" points="465.5,-36 186.5,-36 186.5,0 465.5,0 465.5,-36"/>
<text text-anchor="middle" x="326" y="-14.3" font-family="sans" font-size="14.00">INTERNAL_COMBUSTION_ENGINE</text>
</g>
<!-- ENGINE&#45;&gt;INTERNAL_COMBUSTION_ENGINE -->
<g id="edge2" class="edge">
<title>ENGINE&#45;&gt;INTERNAL_COMBUSTION_ENGINE</title>
<path fill="none" stroke="black" d="M326,-71.7C326,-63.98 326,-54.71 326,-46.11"/>
<polygon fill="black" stroke="black" points="329.5,-46.1 326,-36.1 322.5,-46.1 329.5,-46.1"/>
</g>
<!-- HUMAN_ENGINE -->
<g id="node4" class="node">
<title>HUMAN_ENGINE</title>
<polygon fill="powderblue" stroke="royalblue" points="642.5,-36 483.5,-36 483.5,0 642.5,0 642.5,-36"/>
<text text-anchor="middle" x="563" y="-14.3" font-family="sans" font-size="14.00">HUMAN_ENGINE</text>
</g>
<!-- ENGINE&#45;&gt;HUMAN_ENGINE -->
<g id="edge3" class="edge">
<title>ENGINE&#45;&gt;HUMAN_ENGINE</title>
<path fill="none" stroke="black" d="M375.68,-74.33C410.32,-64.09 456.97,-50.32 495.04,-39.07"/>
<polygon fill="black" stroke="black" points="496.43,-42.31 505.03,-36.12 494.45,-35.6 496.43,-42.31"/>
</g>
</g>
</svg>
