<?xml version="1.0" encoding="UTF-8" standalone="no"?>
<!DOCTYPE svg PUBLIC "-//W3C//DTD SVG 1.1//EN"
 "http://www.w3.org/Graphics/SVG/1.1/DTD/svg11.dtd">
<!-- Generated by graphviz version 6.0.1 (20220911.2005)
 -->
<!-- Title: bakery Pages: 1 -->
<svg width="345pt" height="260pt"
 viewBox="0.00 0.00 345.38 260.00" xmlns="http://www.w3.org/2000/svg" xmlns:xlink="http://www.w3.org/1999/xlink">
<g id="graph0" class="graph" transform="scale(1 1) rotate(0) translate(4 256)">
<title>bakery</title>
<polygon fill="none" stroke="none" points="-4,4 -4,-256 341.38,-256 341.38,4 -4,4"/>
<!-- purchase ingredients -->
<g id="node1" class="node">
<title>purchase ingredients</title>
<ellipse fill="none" stroke="black" cx="105.94" cy="-234" rx="105.88" ry="18"/>
<text text-anchor="middle" x="105.94" y="-230.3" font-family="sans" font-size="14.00">purchase ingredients</text>
</g>
<!-- make dough -->
<g id="node2" class="node">
<title>make dough</title>
<ellipse fill="none" stroke="black" cx="105.94" cy="-162" rx="66.89" ry="18"/>
<text text-anchor="middle" x="105.94" y="-158.3" font-family="sans" font-size="14.00">make dough</text>
</g>
<!-- purchase ingredients&#45;&gt;make dough -->
<g id="edge1" class="edge">
<title>purchase ingredients&#45;&gt;make dough</title>
<path fill="none" stroke="black" d="M105.94,-215.7C105.94,-207.98 105.94,-198.71 105.94,-190.11"/>
<polygon fill="black" stroke="black" points="109.44,-190.1 105.94,-180.1 102.44,-190.1 109.44,-190.1"/>
</g>
<!-- bake bread -->
<g id="node3" class="node">
<title>bake bread</title>
<ellipse fill="none" stroke="black" cx="184.94" cy="-90" rx="61.19" ry="18"/>
<text text-anchor="middle" x="184.94" y="-86.3" font-family="sans" font-size="14.00">bake bread</text>
</g>
<!-- make dough&#45;&gt;bake bread -->
<g id="edge2" class="edge">
<title>make dough&#45;&gt;bake bread</title>
<path fill="none" stroke="black" d="M124.66,-144.41C134.87,-135.37 147.66,-124.03 158.84,-114.13"/>
<polygon fill="black" stroke="black" points="161.46,-116.48 166.63,-107.23 156.82,-111.24 161.46,-116.48"/>
</g>
<!-- sell bread -->
<g id="node4" class="node">
<title>sell bread</title>
<ellipse fill="none" stroke="black" cx="118.94" cy="-18" rx="54.69" ry="18"/>
<text text-anchor="middle" x="118.94" y="-14.3" font-family="sans" font-size="14.00">sell bread</text>
</g>
<!-- bake bread&#45;&gt;sell bread -->
<g id="edge3" class="edge">
<title>bake bread&#45;&gt;sell bread</title>
<path fill="none" stroke="black" d="M169.3,-72.41C161,-63.61 150.65,-52.63 141.49,-42.92"/>
<polygon fill="black" stroke="black" points="143.88,-40.34 134.47,-35.47 138.78,-45.15 143.88,-40.34"/>
</g>
<!-- clean oven -->
<g id="node5" class="node">
<title>clean oven</title>
<ellipse fill="none" stroke="black" cx="250.94" cy="-18" rx="59.59" ry="18"/>
<text text-anchor="middle" x="250.94" y="-14.3" font-family="sans" font-size="14.00">clean oven</text>
</g>
<!-- bake bread&#45;&gt;clean oven -->
<g id="edge4" class="edge">
<title>bake bread&#45;&gt;clean oven</title>
<path fill="none" stroke="black" d="M200.58,-72.41C208.88,-63.61 219.23,-52.63 228.39,-42.92"/>
<polygon fill="black" stroke="black" points="231.1,-45.15 235.41,-35.47 226.01,-40.34 231.1,-45.15"/>
</g>
<!-- pre&#45;heat oven -->
<g id="node6" class="node">
<title>pre&#45;heat oven</title>
<ellipse fill="none" stroke="black" cx="263.94" cy="-162" rx="73.39" ry="18"/>
<text text-anchor="middle" x="263.94" y="-158.3" font-family="sans" font-size="14.00">pre&#45;heat oven</text>
</g>
<!-- pre&#45;heat oven&#45;&gt;bake bread -->
<g id="edge5" class="edge">
<title>pre&#45;heat oven&#45;&gt;bake bread</title>
<path fill="none" stroke="black" d="M245.22,-144.41C235.01,-135.37 222.22,-124.03 211.04,-114.13"/>
<polygon fill="black" stroke="black" points="213.06,-111.24 203.26,-107.23 208.42,-116.48 213.06,-111.24"/>
</g>
</g>
</svg>
