<?xml version="1.0" encoding="UTF-8" standalone="no"?>
<!DOCTYPE svg PUBLIC "-//W3C//DTD SVG 1.1//EN"
 "http://www.w3.org/Graphics/SVG/1.1/DTD/svg11.dtd">
<!-- Generated by graphviz version 6.0.1 (20220911.2005)
 -->
<!-- Title: example Pages: 1 -->
<svg width="504pt" height="433pt"
 viewBox="0.00 0.00 504.00 432.59" xmlns="http://www.w3.org/2000/svg" xmlns:xlink="http://www.w3.org/1999/xlink">
<g id="graph0" class="graph" transform="scale(0.464945 0.464945) rotate(0) translate(4 926.4)">
<title>example</title>
<polygon fill="none" stroke="none" points="-4,4 -4,-926.4 1080,-926.4 1080,4 -4,4"/>
<g id="clust1" class="cluster">
<title>cluster_1</title>
<polygon fill="none" stroke="black" stroke-dasharray="5,2" points="8,-549.44 8,-914.4 356,-914.4 356,-549.44 8,-549.44"/>
<text text-anchor="middle" x="182" y="-899.2" font-family="sans" font-size="14.00">1</text>
</g>
<g id="clust2" class="cluster">
<title>cluster_2</title>
<polygon fill="none" stroke="black" stroke-dasharray="5,2" points="364,-277.22 364,-642.18 712,-642.18 712,-277.22 364,-277.22"/>
<text text-anchor="middle" x="538" y="-626.98" font-family="sans" font-size="14.00">2</text>
</g>
<g id="clust3" class="cluster">
<title>cluster_3</title>
<polygon fill="none" stroke="black" stroke-dasharray="5,2" points="720,-8 720,-369.96 1068,-369.96 1068,-8 720,-8"/>
<text text-anchor="middle" x="894" y="-354.76" font-family="sans" font-size="14.00">3</text>
</g>
<!-- 1/pur -->
<g id="node1" class="node">
<title>1/pur</title>
<ellipse fill="none" stroke="black" cx="257" cy="-856.53" rx="90.52" ry="26.74"/>
<text text-anchor="middle" x="257" y="-860.33" font-family="sans" font-size="14.00">buy_ingredients</text>
<text text-anchor="middle" x="257" y="-845.33" font-family="sans" font-size="14.00">1</text>
</g>
<!-- 1/mak -->
<g id="node2" class="node">
<title>1/mak</title>
<ellipse fill="none" stroke="black" cx="274" cy="-766.79" rx="74.49" ry="26.74"/>
<text text-anchor="middle" x="274" y="-770.59" font-family="sans" font-size="14.00">make_dough</text>
<text text-anchor="middle" x="274" y="-755.59" font-family="sans" font-size="14.00">1</text>
</g>
<!-- 1/pur&#45;&gt;1/mak -->
<g id="edge1" class="edge">
<title>1/pur&#45;&gt;1/mak</title>
<path fill="none" stroke="black" d="M262.01,-829.68C263.59,-821.54 265.36,-812.4 267.04,-803.7"/>
<polygon fill="black" stroke="black" points="270.5,-804.24 268.97,-793.76 263.63,-802.91 270.5,-804.24"/>
</g>
<!-- 1/bak -->
<g id="node3" class="node">
<title>1/bak</title>
<ellipse fill="none" stroke="black" cx="205" cy="-677.05" rx="67.76" ry="26.74"/>
<text text-anchor="middle" x="205" y="-680.85" font-family="sans" font-size="14.00">bake_bread</text>
<text text-anchor="middle" x="205" y="-665.85" font-family="sans" font-size="14.00">1</text>
</g>
<!-- 1/mak&#45;&gt;1/bak -->
<g id="edge2" class="edge">
<title>1/mak&#45;&gt;1/bak</title>
<path fill="none" stroke="black" d="M254.04,-740.41C246.83,-731.24 238.58,-720.75 230.92,-711.02"/>
<polygon fill="black" stroke="black" points="233.61,-708.77 224.67,-703.07 228.1,-713.09 233.61,-708.77"/>
</g>
<!-- 1/sel -->
<g id="node4" class="node">
<title>1/sel</title>
<ellipse fill="none" stroke="black" cx="137" cy="-584.31" rx="60.62" ry="26.74"/>
<text text-anchor="middle" x="137" y="-588.11" font-family="sans" font-size="14.00">sell_bread</text>
<text text-anchor="middle" x="137" y="-573.11" font-family="sans" font-size="14.00">1</text>
</g>
<!-- 1/bak&#45;&gt;1/sel -->
<g id="edge3" class="edge">
<title>1/bak&#45;&gt;1/sel</title>
<path fill="none" stroke="black" d="M186.06,-650.77C178.55,-640.76 169.82,-629.11 161.83,-618.44"/>
<polygon fill="black" stroke="black" points="164.4,-616.04 155.61,-610.14 158.8,-620.24 164.4,-616.04"/>
</g>
<!-- 1/cle -->
<g id="node5" class="node">
<title>1/cle</title>
<ellipse fill="none" stroke="black" cx="282" cy="-584.31" rx="66.44" ry="26.74"/>
<text text-anchor="middle" x="282" y="-588.11" font-family="sans" font-size="14.00">clean_oven</text>
<text text-anchor="middle" x="282" y="-573.11" font-family="sans" font-size="14.00">1</text>
</g>
<!-- 1/bak&#45;&gt;1/cle -->
<g id="edge5" class="edge">
<title>1/bak&#45;&gt;1/cle</title>
<path fill="none" stroke="black" d="M226.04,-651.26C234.78,-640.95 245.05,-628.85 254.39,-617.85"/>
<polygon fill="black" stroke="black" points="257.18,-619.97 260.98,-610.08 251.85,-615.44 257.18,-619.97"/>
</g>
<!-- 2/pre -->
<g id="node12" class="node">
<title>2/pre</title>
<ellipse fill="none" stroke="black" cx="455" cy="-494.57" rx="82.96" ry="26.74"/>
<text text-anchor="middle" x="455" y="-498.37" font-family="sans" font-size="14.00">pre_heat_oven</text>
<text text-anchor="middle" x="455" y="-483.37" font-family="sans" font-size="14.00">2</text>
</g>
<!-- 1/cle&#45;&gt;2/pre -->
<g id="edge6" class="edge">
<title>1/cle&#45;&gt;2/pre</title>
<path fill="none" stroke="black" d="M322.56,-562.74C346.4,-550.65 376.79,-535.23 402.45,-522.22"/>
<polygon fill="black" stroke="black" points="404.33,-525.19 411.67,-517.55 401.17,-518.95 404.33,-525.19"/>
</g>
<!-- 1/pre -->
<g id="node6" class="node">
<title>1/pre</title>
<ellipse fill="none" stroke="black" cx="99" cy="-766.79" rx="82.96" ry="26.74"/>
<text text-anchor="middle" x="99" y="-770.59" font-family="sans" font-size="14.00">pre_heat_oven</text>
<text text-anchor="middle" x="99" y="-755.59" font-family="sans" font-size="14.00">1</text>
</g>
<!-- 1/pre&#45;&gt;1/bak -->
<g id="edge4" class="edge">
<title>1/pre&#45;&gt;1/bak</title>
<path fill="none" stroke="black" d="M128.25,-741.58C140.73,-731.25 155.43,-719.08 168.61,-708.17"/>
<polygon fill="black" stroke="black" points="171.11,-710.65 176.58,-701.57 166.65,-705.25 171.11,-710.65"/>
</g>
<!-- 2/pur -->
<g id="node7" class="node">
<title>2/pur</title>
<ellipse fill="none" stroke="black" cx="613" cy="-584.31" rx="90.52" ry="26.74"/>
<text text-anchor="middle" x="613" y="-588.11" font-family="sans" font-size="14.00">buy_ingredients</text>
<text text-anchor="middle" x="613" y="-573.11" font-family="sans" font-size="14.00">2</text>
</g>
<!-- 2/mak -->
<g id="node8" class="node">
<title>2/mak</title>
<ellipse fill="none" stroke="black" cx="630" cy="-494.57" rx="74.49" ry="26.74"/>
<text text-anchor="middle" x="630" y="-498.37" font-family="sans" font-size="14.00">make_dough</text>
<text text-anchor="middle" x="630" y="-483.37" font-family="sans" font-size="14.00">2</text>
</g>
<!-- 2/pur&#45;&gt;2/mak -->
<g id="edge7" class="edge">
<title>2/pur&#45;&gt;2/mak</title>
<path fill="none" stroke="black" d="M618.01,-557.46C619.59,-549.32 621.36,-540.18 623.04,-531.48"/>
<polygon fill="black" stroke="black" points="626.5,-532.02 624.97,-521.54 619.63,-530.69 626.5,-532.02"/>
</g>
<!-- 2/bak -->
<g id="node9" class="node">
<title>2/bak</title>
<ellipse fill="none" stroke="black" cx="561" cy="-404.83" rx="67.76" ry="26.74"/>
<text text-anchor="middle" x="561" y="-408.63" font-family="sans" font-size="14.00">bake_bread</text>
<text text-anchor="middle" x="561" y="-393.63" font-family="sans" font-size="14.00">2</text>
</g>
<!-- 2/mak&#45;&gt;2/bak -->
<g id="edge8" class="edge">
<title>2/mak&#45;&gt;2/bak</title>
<path fill="none" stroke="black" d="M610.04,-468.19C602.83,-459.02 594.58,-448.53 586.92,-438.8"/>
<polygon fill="black" stroke="black" points="589.61,-436.55 580.67,-430.85 584.1,-440.87 589.61,-436.55"/>
</g>
<!-- 2/sel -->
<g id="node10" class="node">
<title>2/sel</title>
<ellipse fill="none" stroke="black" cx="493" cy="-312.09" rx="60.62" ry="26.74"/>
<text text-anchor="middle" x="493" y="-315.89" font-family="sans" font-size="14.00">sell_bread</text>
<text text-anchor="middle" x="493" y="-300.89" font-family="sans" font-size="14.00">2</text>
</g>
<!-- 2/bak&#45;&gt;2/sel -->
<g id="edge9" class="edge">
<title>2/bak&#45;&gt;2/sel</title>
<path fill="none" stroke="black" d="M542.06,-378.55C534.55,-368.54 525.82,-356.89 517.83,-346.22"/>
<polygon fill="black" stroke="black" points="520.4,-343.82 511.61,-337.92 514.8,-348.02 520.4,-343.82"/>
</g>
<!-- 2/cle -->
<g id="node11" class="node">
<title>2/cle</title>
<ellipse fill="none" stroke="black" cx="638" cy="-312.09" rx="66.44" ry="26.74"/>
<text text-anchor="middle" x="638" y="-315.89" font-family="sans" font-size="14.00">clean_oven</text>
<text text-anchor="middle" x="638" y="-300.89" font-family="sans" font-size="14.00">2</text>
</g>
<!-- 2/bak&#45;&gt;2/cle -->
<g id="edge11" class="edge">
<title>2/bak&#45;&gt;2/cle</title>
<path fill="none" stroke="black" d="M582.04,-379.04C590.78,-368.73 601.05,-356.63 610.39,-345.63"/>
<polygon fill="black" stroke="black" points="613.18,-347.74 616.98,-337.86 607.85,-343.22 613.18,-347.74"/>
</g>
<!-- 3/pre -->
<g id="node18" class="node">
<title>3/pre</title>
<ellipse fill="none" stroke="black" cx="811" cy="-222.35" rx="82.96" ry="26.74"/>
<text text-anchor="middle" x="811" y="-226.15" font-family="sans" font-size="14.00">pre_heat_oven</text>
<text text-anchor="middle" x="811" y="-211.15" font-family="sans" font-size="14.00">3</text>
</g>
<!-- 2/cle&#45;&gt;3/pre -->
<g id="edge12" class="edge">
<title>2/cle&#45;&gt;3/pre</title>
<path fill="none" stroke="black" d="M678.56,-290.52C702.4,-278.43 732.79,-263.01 758.45,-250"/>
<polygon fill="black" stroke="black" points="760.33,-252.97 767.67,-245.33 757.17,-246.73 760.33,-252.97"/>
</g>
<!-- 2/pre&#45;&gt;2/bak -->
<g id="edge10" class="edge">
<title>2/pre&#45;&gt;2/bak</title>
<path fill="none" stroke="black" d="M484.25,-469.36C496.73,-459.03 511.43,-446.86 524.61,-435.95"/>
<polygon fill="black" stroke="black" points="527.11,-438.43 532.58,-429.35 522.65,-433.03 527.11,-438.43"/>
</g>
<!-- 3/pur -->
<g id="node13" class="node">
<title>3/pur</title>
<ellipse fill="none" stroke="black" cx="969" cy="-312.09" rx="90.52" ry="26.74"/>
<text text-anchor="middle" x="969" y="-315.89" font-family="sans" font-size="14.00">buy_ingredients</text>
<text text-anchor="middle" x="969" y="-300.89" font-family="sans" font-size="14.00">3</text>
</g>
<!-- 3/mak -->
<g id="node14" class="node">
<title>3/mak</title>
<ellipse fill="none" stroke="black" cx="986" cy="-222.35" rx="74.49" ry="26.74"/>
<text text-anchor="middle" x="986" y="-226.15" font-family="sans" font-size="14.00">make_dough</text>
<text text-anchor="middle" x="986" y="-211.15" font-family="sans" font-size="14.00">3</text>
</g>
<!-- 3/pur&#45;&gt;3/mak -->
<g id="edge13" class="edge">
<title>3/pur&#45;&gt;3/mak</title>
<path fill="none" stroke="black" d="M974.01,-285.24C975.59,-277.1 977.36,-267.96 979.04,-259.26"/>
<polygon fill="black" stroke="black" points="982.5,-259.8 980.97,-249.32 975.63,-258.47 982.5,-259.8"/>
</g>
<!-- 3/bak -->
<g id="node15" class="node">
<title>3/bak</title>
<ellipse fill="none" stroke="black" cx="878" cy="-132.61" rx="67.76" ry="26.74"/>
<text text-anchor="middle" x="878" y="-136.41" font-family="sans" font-size="14.00">bake_bread</text>
<text text-anchor="middle" x="878" y="-121.41" font-family="sans" font-size="14.00">3</text>
</g>
<!-- 3/mak&#45;&gt;3/bak -->
<g id="edge14" class="edge">
<title>3/mak&#45;&gt;3/bak</title>
<path fill="none" stroke="black" d="M956.77,-197.61C943.82,-187.09 928.44,-174.59 914.73,-163.45"/>
<polygon fill="black" stroke="black" points="916.84,-160.66 906.88,-157.07 912.43,-166.09 916.84,-160.66"/>
</g>
<!-- 3/sel -->
<g id="node16" class="node">
<title>3/sel</title>
<ellipse fill="none" stroke="black" cx="800" cy="-42.87" rx="60.62" ry="26.74"/>
<text text-anchor="middle" x="800" y="-46.67" font-family="sans" font-size="14.00">sell_bread</text>
<text text-anchor="middle" x="800" y="-31.67" font-family="sans" font-size="14.00">3</text>
</g>
<!-- 3/bak&#45;&gt;3/sel -->
<g id="edge15" class="edge">
<title>3/bak&#45;&gt;3/sel</title>
<path fill="none" stroke="black" d="M855.86,-106.7C847.31,-97.09 837.44,-85.98 828.38,-75.8"/>
<polygon fill="black" stroke="black" points="830.92,-73.38 821.66,-68.23 825.69,-78.03 830.92,-73.38"/>
</g>
<!-- 3/cle -->
<g id="node17" class="node">
<title>3/cle</title>
<ellipse fill="none" stroke="black" cx="945" cy="-42.87" rx="66.44" ry="26.74"/>
<text text-anchor="middle" x="945" y="-46.67" font-family="sans" font-size="14.00">clean_oven</text>
<text text-anchor="middle" x="945" y="-31.67" font-family="sans" font-size="14.00">3</text>
</g>
<!-- 3/bak&#45;&gt;3/cle -->
<g id="edge17" class="edge">
<title>3/bak&#45;&gt;3/cle</title>
<path fill="none" stroke="black" d="M897.02,-106.7C904.09,-97.44 912.23,-86.78 919.77,-76.91"/>
<polygon fill="black" stroke="black" points="922.64,-78.91 925.93,-68.84 917.08,-74.66 922.64,-78.91"/>
</g>
<!-- 3/pre&#45;&gt;3/bak -->
<g id="edge16" class="edge">
<title>3/pre&#45;&gt;3/bak</title>
<path fill="none" stroke="black" d="M830.38,-195.97C837.31,-186.89 845.24,-176.51 852.6,-166.87"/>
<polygon fill="black" stroke="black" points="855.61,-168.7 858.9,-158.63 850.04,-164.45 855.61,-168.7"/>
</g>
</g>
</svg>
