<?xml version="1.0" encoding="UTF-8" standalone="no"?>
<!DOCTYPE svg PUBLIC "-//W3C//DTD SVG 1.1//EN"
 "http://www.w3.org/Graphics/SVG/1.1/DTD/svg11.dtd">
<!-- Generated by graphviz version 6.0.1 (20220911.2005)
 -->
<!-- Title: Example Pages: 1 -->
<svg width="272pt" height="191pt"
 viewBox="0.00 0.00 272.00 191.00" xmlns="http://www.w3.org/2000/svg" xmlns:xlink="http://www.w3.org/1999/xlink">
<g id="graph0" class="graph" transform="scale(1 1) rotate(0) translate(4 187)">
<title>Example</title>
<polygon fill="none" stroke="none" points="-4,4 -4,-187 268,-187 268,4 -4,4"/>
<g id="clust1" class="cluster">
<title>cluster_1</title>
<polygon fill="none" stroke="green" stroke-dasharray="5,2" points="8,-64 8,-139 90,-139 90,-64 8,-64"/>
<text text-anchor="middle" x="49" y="-123.8" font-family="sans" font-size="14.00" fill="green">:good</text>
</g>
<g id="clust2" class="cluster">
<title>cluster_2</title>
<polygon fill="none" stroke="red" stroke-dasharray="5,2" points="98,-64 98,-139 170,-139 170,-64 98,-64"/>
<text text-anchor="middle" x="134" y="-123.8" font-family="sans" font-size="14.00" fill="red">:bad</text>
</g>
<g id="clust3" class="cluster">
<title>cluster_3</title>
<polygon fill="none" stroke="purple" stroke-dasharray="5,2" points="178,-64 178,-139 256,-139 256,-64 178,-64"/>
<text text-anchor="middle" x="217" y="-123.8" font-family="sans" font-size="14.00" fill="purple">:ugly</text>
</g>
<!-- good -->
<g id="node1" class="node">
<title>good</title>
<ellipse fill="none" stroke="black" cx="49" cy="-90" rx="33.29" ry="18"/>
<text text-anchor="middle" x="49" y="-86.3" font-family="sans" font-size="14.00">good</text>
</g>
<!-- fin -->
<g id="node5" class="node">
<title>fin</title>
<ellipse fill="none" stroke="black" cx="134" cy="-18" rx="27" ry="18"/>
<text text-anchor="middle" x="134" y="-14.3" font-family="sans" font-size="14.00">fin</text>
</g>
<!-- good&#45;&gt;fin -->
<g id="edge4" class="edge">
<title>good&#45;&gt;fin</title>
<path fill="none" stroke="black" d="M66.61,-74.5C79.01,-64.28 95.78,-50.47 109.49,-39.18"/>
<polygon fill="none" stroke="black" points="112.07,-41.59 117.56,-32.54 107.62,-36.19 112.07,-41.59"/>
</g>
<!-- bad -->
<g id="node2" class="node">
<title>bad</title>
<ellipse fill="none" stroke="black" cx="134" cy="-90" rx="27.9" ry="18"/>
<text text-anchor="middle" x="134" y="-86.3" font-family="sans" font-size="14.00">bad</text>
</g>
<!-- bad&#45;&gt;fin -->
<g id="edge5" class="edge">
<title>bad&#45;&gt;fin</title>
<path fill="none" stroke="black" d="M134,-71.7C134,-63.98 134,-54.71 134,-46.11"/>
<polygon fill="none" stroke="black" points="137.5,-46.1 134,-36.1 130.5,-46.1 137.5,-46.1"/>
</g>
<!-- ugly -->
<g id="node3" class="node">
<title>ugly</title>
<ellipse fill="none" stroke="black" cx="217" cy="-90" rx="30.59" ry="18"/>
<text text-anchor="middle" x="217" y="-86.3" font-family="sans" font-size="14.00">ugly</text>
</g>
<!-- ugly&#45;&gt;fin -->
<g id="edge6" class="edge">
<title>ugly&#45;&gt;fin</title>
<path fill="none" stroke="black" d="M200.2,-74.83C188.12,-64.64 171.65,-50.75 158.16,-39.37"/>
<polygon fill="none" stroke="black" points="160.11,-36.44 150.21,-32.67 155.59,-41.79 160.11,-36.44"/>
</g>
<!-- showdown -->
<g id="node4" class="node">
<title>showdown</title>
<ellipse fill="none" stroke="black" cx="134" cy="-165" rx="58.49" ry="18"/>
<text text-anchor="middle" x="134" y="-161.3" font-family="sans" font-size="14.00">showdown</text>
</g>
<!-- showdown&#45;&gt;good -->
<g id="edge1" class="edge">
<title>showdown&#45;&gt;good</title>
<path fill="none" stroke="black" d="M107.5,-148.8C102.86,-145.76 98.17,-142.43 94,-139 85.04,-131.63 76.11,-122.56 68.59,-114.29"/>
<polygon fill="black" stroke="black" points="71.11,-111.86 61.86,-106.69 65.87,-116.5 71.11,-111.86"/>
</g>
<!-- showdown&#45;&gt;bad -->
<g id="edge2" class="edge">
<title>showdown&#45;&gt;bad</title>
<path fill="none" stroke="black" d="M134,-146.7C134,-138.25 134,-127.87 134,-118.37"/>
<polygon fill="black" stroke="black" points="137.5,-118.18 134,-108.18 130.5,-118.18 137.5,-118.18"/>
</g>
<!-- showdown&#45;&gt;ugly -->
<g id="edge3" class="edge">
<title>showdown&#45;&gt;ugly</title>
<path fill="none" stroke="black" d="M160.56,-148.88C165.2,-145.83 169.86,-142.48 174,-139 182.6,-131.76 191.08,-122.81 198.2,-114.6"/>
<polygon fill="black" stroke="black" points="201.06,-116.64 204.83,-106.74 195.71,-112.13 201.06,-116.64"/>
</g>
</g>
</svg>
