<?xml version="1.0" encoding="UTF-8" standalone="no"?>
<!DOCTYPE svg PUBLIC "-//W3C//DTD SVG 1.1//EN"
 "http://www.w3.org/Graphics/SVG/1.1/DTD/svg11.dtd">
<!-- Generated by graphviz version 6.0.1 (20220911.2005)
 -->
<!-- Title: example Pages: 1 -->
<svg width="504pt" height="97pt"
 viewBox="0.00 0.00 504.00 96.68" xmlns="http://www.w3.org/2000/svg" xmlns:xlink="http://www.w3.org/1999/xlink">
<g id="graph0" class="graph" transform="scale(0.514272 0.514272) rotate(0) translate(4 184)">
<title>example</title>
<polygon fill="none" stroke="none" points="-4,4 -4,-184 976.03,-184 976.03,4 -4,4"/>
<!-- get_observations_aldergrove -->
<g id="node1" class="node">
<title>get_observations_aldergrove</title>
<ellipse fill="none" stroke="black" cx="139.74" cy="-162" rx="139.98" ry="18"/>
<text text-anchor="middle" x="139.74" y="-158.3" font-family="sans" font-size="14.00">get_observations_aldergrove</text>
</g>
<!-- consolidate_observations -->
<g id="node2" class="node">
<title>consolidate_observations</title>
<ellipse fill="none" stroke="black" cx="395.74" cy="-18" rx="124.28" ry="18"/>
<text text-anchor="middle" x="395.74" y="-14.3" font-family="sans" font-size="14.00">consolidate_observations</text>
</g>
<!-- get_observations_aldergrove&#45;&gt;consolidate_observations -->
<g id="edge1" class="edge">
<title>get_observations_aldergrove&#45;&gt;consolidate_observations</title>
<path fill="none" stroke="black" d="M162.88,-143.99C189.19,-125.07 233.79,-94.25 274.74,-72 297.2,-59.79 323.05,-48.16 345.08,-38.92"/>
<polygon fill="black" stroke="black" points="346.68,-42.05 354.58,-34.99 344,-35.58 346.68,-42.05"/>
</g>
<!-- hidden -->
<!-- get_observations_aldergrove&#45;&gt;hidden -->
<!-- get_observations_camborne -->
<g id="node3" class="node">
<title>get_observations_camborne</title>
<ellipse fill="none" stroke="black" cx="434.74" cy="-162" rx="137.28" ry="18"/>
<text text-anchor="middle" x="434.74" y="-158.3" font-family="sans" font-size="14.00">get_observations_camborne</text>
</g>
<!-- get_observations_camborne&#45;&gt;consolidate_observations -->
<g id="edge2" class="edge">
<title>get_observations_camborne&#45;&gt;consolidate_observations</title>
<path fill="none" stroke="black" d="M427.4,-143.56C423.28,-133.33 418.28,-120.08 414.74,-108 408.74,-87.57 403.79,-63.98 400.45,-46.22"/>
<polygon fill="black" stroke="black" points="403.87,-45.46 398.62,-36.25 396.98,-46.72 403.87,-45.46"/>
</g>
<!-- get_observations_camborne&#45;&gt;hidden -->
<!-- get_observations_heathrow -->
<g id="node4" class="node">
<title>get_observations_heathrow</title>
<ellipse fill="none" stroke="black" cx="557.74" cy="-90" rx="133.78" ry="18"/>
<text text-anchor="middle" x="557.74" y="-86.3" font-family="sans" font-size="14.00">get_observations_heathrow</text>
</g>
<!-- get_observations_heathrow&#45;&gt;consolidate_observations -->
<g id="edge3" class="edge">
<title>get_observations_heathrow&#45;&gt;consolidate_observations</title>
<path fill="none" stroke="black" d="M519.76,-72.59C496.72,-62.63 467.15,-49.86 442.66,-39.27"/>
<polygon fill="black" stroke="black" points="443.77,-35.94 433.2,-35.19 440.99,-42.37 443.77,-35.94"/>
</g>
<!-- get_observations_shetland -->
<g id="node5" class="node">
<title>get_observations_shetland</title>
<ellipse fill="none" stroke="black" cx="840.74" cy="-90" rx="131.08" ry="18"/>
<text text-anchor="middle" x="840.74" y="-86.3" font-family="sans" font-size="14.00">get_observations_shetland</text>
</g>
<!-- get_observations_shetland&#45;&gt;consolidate_observations -->
<g id="edge4" class="edge">
<title>get_observations_shetland&#45;&gt;consolidate_observations</title>
<path fill="none" stroke="black" d="M758.08,-76C680.95,-63.86 566.11,-45.8 486.47,-33.27"/>
<polygon fill="black" stroke="black" points="486.88,-29.79 476.45,-31.7 485.79,-36.71 486.88,-29.79"/>
</g>
<!-- hidden&#45;&gt;consolidate_observations -->
</g>
</svg>
