<?xml version="1.0" encoding="UTF-8" standalone="no"?>
<!DOCTYPE svg PUBLIC "-//W3C//DTD SVG 1.1//EN"
 "http://www.w3.org/Graphics/SVG/1.1/DTD/svg11.dtd">
<!-- Generated by graphviz version 2.40.1 (20161225.0304)
 -->
<!-- Title: Example Pages: 1 -->
<svg width="360pt" height="63pt"
 viewBox="0.00 0.00 360.00 63.47" xmlns="http://www.w3.org/2000/svg" xmlns:xlink="http://www.w3.org/1999/xlink">
<g id="graph0" class="graph" transform="scale(.5471 .5471) rotate(0) translate(4 112)">
<title>Example</title>
<polygon fill="transparent" stroke="transparent" points="-4,4 -4,-112 654,-112 654,4 -4,4"/>
<!-- ENGINE -->
<g id="node1" class="node">
<title>ENGINE</title>
<polygon fill="#b0e0e6" stroke="#4169e1" points="379.5,-108 280.5,-108 280.5,-72 379.5,-72 379.5,-108"/>
<text text-anchor="middle" x="330" y="-86.3" font-family="sans" font-size="14.00" fill="#000000">ENGINE</text>
</g>
<!-- TURBINE_ENGINE -->
<g id="node2" class="node">
<title>TURBINE_ENGINE</title>
<polygon fill="#b0e0e6" stroke="#4169e1" points="170,-36 0,-36 0,0 170,0 170,-36"/>
<text text-anchor="middle" x="85" y="-14.3" font-family="sans" font-size="14.00" fill="#000000">TURBINE_ENGINE</text>
</g>
<!-- ENGINE&#45;&gt;TURBINE_ENGINE -->
<g id="edge1" class="edge">
<title>ENGINE&#45;&gt;TURBINE_ENGINE</title>
<path fill="none" stroke="#000000" d="M280.4206,-75.4297C244.7688,-64.9525 196.161,-50.6677 156.3432,-38.9662"/>
<polygon fill="#000000" stroke="#000000" points="157.2666,-35.5896 146.6854,-36.128 155.2928,-42.3056 157.2666,-35.5896"/>
</g>
<!-- INTERNAL_COMBUSTION_ENGINE -->
<g id="node3" class="node">
<title>INTERNAL_COMBUSTION_ENGINE</title>
<polygon fill="#b0e0e6" stroke="#4169e1" points="471.5,-36 188.5,-36 188.5,0 471.5,0 471.5,-36"/>
<text text-anchor="middle" x="330" y="-14.3" font-family="sans" font-size="14.00" fill="#000000">INTERNAL_COMBUSTION_ENGINE</text>
</g>
<!-- ENGINE&#45;&gt;INTERNAL_COMBUSTION_ENGINE -->
<g id="edge2" class="edge">
<title>ENGINE&#45;&gt;INTERNAL_COMBUSTION_ENGINE</title>
<path fill="none" stroke="#000000" d="M330,-71.8314C330,-64.131 330,-54.9743 330,-46.4166"/>
<polygon fill="#000000" stroke="#000000" points="333.5001,-46.4132 330,-36.4133 326.5001,-46.4133 333.5001,-46.4132"/>
</g>
<!-- HUMAN_ENGINE -->
<g id="node4" class="node">
<title>HUMAN_ENGINE</title>
<polygon fill="#b0e0e6" stroke="#4169e1" points="650,-36 490,-36 490,0 650,0 650,-36"/>
<text text-anchor="middle" x="570" y="-14.3" font-family="sans" font-size="14.00" fill="#000000">HUMAN_ENGINE</text>
</g>
<!-- ENGINE&#45;&gt;HUMAN_ENGINE -->
<g id="edge3" class="edge">
<title>ENGINE&#45;&gt;HUMAN_ENGINE</title>
<path fill="none" stroke="#000000" d="M379.7282,-75.0816C414.5358,-64.6393 461.5228,-50.5432 500.0941,-38.9718"/>
<polygon fill="#000000" stroke="#000000" points="501.134,-42.314 509.7065,-36.088 499.1225,-35.6092 501.134,-42.314"/>
</g>
</g>
</svg>
