<?xml version="1.0" encoding="UTF-8" standalone="no"?>
<!DOCTYPE svg PUBLIC "-//W3C//DTD SVG 1.1//EN"
 "http://www.w3.org/Graphics/SVG/1.1/DTD/svg11.dtd">
<!-- Generated by graphviz version 2.40.1 (20161225.0304)
 -->
<!-- Title: example Pages: 1 -->
<svg width="504pt" height="93pt"
 viewBox="0.00 0.00 504.00 93.16" xmlns="http://www.w3.org/2000/svg" xmlns:xlink="http://www.w3.org/1999/xlink">
<g id="graph0" class="graph" transform="scale(.4955 .4955) rotate(0) translate(4 184)">
<title>example</title>
<polygon fill="transparent" stroke="transparent" points="-4,4 -4,-184 1013.075,-184 1013.075,4 -4,4"/>
<!-- get_observations_aldergrove -->
<g id="node1" class="node">
<title>get_observations_aldergrove</title>
<ellipse fill="none" stroke="#000000" cx="146.237" cy="-162" rx="146.4744" ry="18"/>
<text text-anchor="middle" x="146.237" y="-158.3" font-family="sans" font-size="14.00" fill="#000000">get_observations_aldergrove</text>
</g>
<!-- consolidate_observations -->
<g id="node2" class="node">
<title>consolidate_observations</title>
<ellipse fill="none" stroke="#000000" cx="411.237" cy="-18" rx="128.8774" ry="18"/>
<text text-anchor="middle" x="411.237" y="-14.3" font-family="sans" font-size="14.00" fill="#000000">consolidate_observations</text>
</g>
<!-- get_observations_aldergrove&#45;&gt;consolidate_observations -->
<g id="edge1" class="edge">
<title>get_observations_aldergrove&#45;&gt;consolidate_observations</title>
<path fill="none" stroke="#000000" d="M172.3867,-144.1121C200.7511,-125.0793 247.6884,-94.65 290.237,-72 312.5245,-60.1356 337.943,-48.5185 359.7108,-39.1176"/>
<polygon fill="#000000" stroke="#000000" points="361.295,-42.2468 369.1127,-35.096 358.542,-35.8108 361.295,-42.2468"/>
</g>
<!-- hidden -->
<!-- get_observations_aldergrove&#45;&gt;hidden -->
<!-- get_observations_camborne -->
<g id="node3" class="node">
<title>get_observations_camborne</title>
<ellipse fill="none" stroke="#000000" cx="453.237" cy="-162" rx="142.9746" ry="18"/>
<text text-anchor="middle" x="453.237" y="-158.3" font-family="sans" font-size="14.00" fill="#000000">get_observations_camborne</text>
</g>
<!-- get_observations_camborne&#45;&gt;consolidate_observations -->
<g id="edge2" class="edge">
<title>get_observations_camborne&#45;&gt;consolidate_observations</title>
<path fill="none" stroke="#000000" d="M444.4536,-143.8405C439.729,-133.5181 434.0969,-120.2454 430.237,-108 423.8458,-87.7242 418.9637,-64.1982 415.7495,-46.2853"/>
<polygon fill="#000000" stroke="#000000" points="419.158,-45.4549 414.0081,-36.1959 412.26,-46.6455 419.158,-45.4549"/>
</g>
<!-- get_observations_camborne&#45;&gt;hidden -->
<!-- get_observations_heathrow -->
<g id="node4" class="node">
<title>get_observations_heathrow</title>
<ellipse fill="none" stroke="#000000" cx="579.237" cy="-90" rx="139.9756" ry="18"/>
<text text-anchor="middle" x="579.237" y="-86.3" font-family="sans" font-size="14.00" fill="#000000">get_observations_heathrow</text>
</g>
<!-- get_observations_heathrow&#45;&gt;consolidate_observations -->
<g id="edge3" class="edge">
<title>get_observations_heathrow&#45;&gt;consolidate_observations</title>
<path fill="none" stroke="#000000" d="M538.9968,-72.7542C515.498,-62.6833 485.6602,-49.8956 460.7305,-39.2115"/>
<polygon fill="#000000" stroke="#000000" points="462.0099,-35.9519 451.4397,-35.2297 459.2524,-42.386 462.0099,-35.9519"/>
</g>
<!-- get_observations_shetland -->
<g id="node5" class="node">
<title>get_observations_shetland</title>
<ellipse fill="none" stroke="#000000" cx="873.237" cy="-90" rx="135.6761" ry="18"/>
<text text-anchor="middle" x="873.237" y="-86.3" font-family="sans" font-size="14.00" fill="#000000">get_observations_shetland</text>
</g>
<!-- get_observations_shetland&#45;&gt;consolidate_observations -->
<g id="edge4" class="edge">
<title>get_observations_shetland&#45;&gt;consolidate_observations</title>
<path fill="none" stroke="#000000" d="M784.9783,-76.2454C705.6096,-63.8762 589.2665,-45.7449 507.5214,-33.0054"/>
<polygon fill="#000000" stroke="#000000" points="507.6479,-29.4829 497.2281,-31.4012 506.5699,-36.3994 507.6479,-29.4829"/>
</g>
<!-- hidden&#45;&gt;consolidate_observations -->
</g>
</svg>
