<?xml version="1.0" encoding="UTF-8" standalone="no"?>
<!DOCTYPE svg PUBLIC "-//W3C//DTD SVG 1.1//EN"
 "http://www.w3.org/Graphics/SVG/1.1/DTD/svg11.dtd">
<!-- Generated by graphviz version 2.40.1 (20161225.0304)
 -->
<!-- Title: example Pages: 1 -->
<svg width="288pt" height="78pt"
 viewBox="0.00 0.00 288.00 78.33" xmlns="http://www.w3.org/2000/svg" xmlns:xlink="http://www.w3.org/1999/xlink">
<g id="graph0" class="graph" transform="scale(.6695 .6695) rotate(0) translate(4 113)">
<title>example</title>
<polygon fill="transparent" stroke="transparent" points="-4,4 -4,-113 426.1981,-113 426.1981,4 -4,4"/>
<g id="clust1" class="cluster">
<title>cluster_T06</title>
<polygon fill="transparent" stroke="#000000" stroke-dasharray="5,2" points="8,-8 8,-101 130.066,-101 130.066,-8 8,-8"/>
<text text-anchor="middle" x="69.033" y="-85.8" font-family="sans" font-size="14.00" fill="#000000">T06</text>
</g>
<g id="clust2" class="cluster">
<title>cluster_T12</title>
<polygon fill="transparent" stroke="#000000" stroke-dasharray="5,2" points="150.066,-8 150.066,-101 272.132,-101 272.132,-8 150.066,-8"/>
<text text-anchor="middle" x="211.099" y="-85.8" font-family="sans" font-size="14.00" fill="#000000">T12</text>
</g>
<g id="clust3" class="cluster">
<title>cluster_T18</title>
<polygon fill="transparent" stroke="#000000" stroke-dasharray="5,2" points="292.132,-8 292.132,-101 414.1981,-101 414.1981,-8 292.132,-8"/>
<text text-anchor="middle" x="353.165" y="-85.8" font-family="sans" font-size="14.00" fill="#000000">T18</text>
</g>
<!-- forecast.t06 -->
<g id="node1" class="node">
<title>forecast.t06</title>
<ellipse fill="none" stroke="#000000" cx="69.033" cy="-43" rx="53.066" ry="26.7407"/>
<text text-anchor="middle" x="69.033" y="-46.8" font-family="sans" font-size="14.00" fill="#000000">forecast</text>
<text text-anchor="middle" x="69.033" y="-31.8" font-family="sans" font-size="14.00" fill="#000000">T06</text>
</g>
<!-- forecast.t12 -->
<g id="node2" class="node">
<title>forecast.t12</title>
<ellipse fill="none" stroke="#000000" cx="211.099" cy="-43" rx="53.066" ry="26.7407"/>
<text text-anchor="middle" x="211.099" y="-46.8" font-family="sans" font-size="14.00" fill="#000000">forecast</text>
<text text-anchor="middle" x="211.099" y="-31.8" font-family="sans" font-size="14.00" fill="#000000">T12</text>
</g>
<!-- forecast.t06&#45;&gt;forecast.t12 -->
<g id="edge1" class="edge">
<title>forecast.t06&#45;&gt;forecast.t12</title>
<path fill="none" stroke="#000000" d="M122.3373,-43C130.6216,-43 139.2496,-43 147.7302,-43"/>
<polygon fill="#000000" stroke="#000000" points="147.9685,-46.5001 157.9684,-43 147.9684,-39.5001 147.9685,-46.5001"/>
</g>
<!-- forecast.t18 -->
<g id="node3" class="node">
<title>forecast.t18</title>
<ellipse fill="none" stroke="#000000" cx="353.165" cy="-43" rx="53.066" ry="26.7407"/>
<text text-anchor="middle" x="353.165" y="-46.8" font-family="sans" font-size="14.00" fill="#000000">forecast</text>
<text text-anchor="middle" x="353.165" y="-31.8" font-family="sans" font-size="14.00" fill="#000000">T18</text>
</g>
<!-- forecast.t12&#45;&gt;forecast.t18 -->
<g id="edge2" class="edge">
<title>forecast.t12&#45;&gt;forecast.t18</title>
<path fill="none" stroke="#000000" d="M264.4034,-43C272.6877,-43 281.3156,-43 289.7962,-43"/>
<polygon fill="#000000" stroke="#000000" points="290.0345,-46.5001 300.0345,-43 290.0344,-39.5001 290.0345,-46.5001"/>
</g>
</g>
</svg>
