<?xml version="1.0" encoding="UTF-8" standalone="no"?>
<!DOCTYPE svg PUBLIC "-//W3C//DTD SVG 1.1//EN"
 "http://www.w3.org/Graphics/SVG/1.1/DTD/svg11.dtd">
<!-- Generated by graphviz version 2.40.1 (20161225.0304)
 -->
<!-- Title: Example Pages: 1 -->
<svg width="274pt" height="227pt"
 viewBox="0.00 0.00 274.00 227.00" xmlns="http://www.w3.org/2000/svg" xmlns:xlink="http://www.w3.org/1999/xlink">
<g id="graph0" class="graph" transform="scale(1 1) rotate(0) translate(4 223)">
<title>Example</title>
<polygon fill="transparent" stroke="transparent" points="-4,4 -4,-223 270,-223 270,4 -4,4"/>
<g id="clust1" class="cluster">
<title>cluster_1</title>
<polygon fill="transparent" stroke="#00ff00" stroke-dasharray="5,2" points="8,-8 8,-83 130,-83 130,-8 8,-8"/>
<text text-anchor="middle" x="69" y="-15.8" font-family="sans" font-size="14.00" fill="#00ff00">:succeed</text>
</g>
<g id="clust2" class="cluster">
<title>cluster_2</title>
<polygon fill="transparent" stroke="#ff0000" stroke-dasharray="5,2" points="138,-8 138,-83 258,-83 258,-8 138,-8"/>
<text text-anchor="middle" x="198" y="-15.8" font-family="sans" font-size="14.00" fill="#ff0000">:fail</text>
</g>
<!-- make_cake_mixture -->
<g id="node1" class="node">
<title>make_cake_mixture</title>
<ellipse fill="none" stroke="#000000" cx="133" cy="-201" rx="103.9815" ry="18"/>
<text text-anchor="middle" x="133" y="-197.3" font-family="sans" font-size="14.00" fill="#000000">make_cake_mixture</text>
</g>
<!-- bake_cake -->
<g id="node2" class="node">
<title>bake_cake</title>
<ellipse fill="none" stroke="#000000" cx="133" cy="-129" rx="59.5901" ry="18"/>
<text text-anchor="middle" x="133" y="-125.3" font-family="sans" font-size="14.00" fill="#000000">bake_cake</text>
</g>
<!-- make_cake_mixture&#45;&gt;bake_cake -->
<g id="edge1" class="edge">
<title>make_cake_mixture&#45;&gt;bake_cake</title>
<path fill="none" stroke="#000000" d="M133,-182.8314C133,-175.131 133,-165.9743 133,-157.4166"/>
<polygon fill="#000000" stroke="#000000" points="136.5001,-157.4132 133,-147.4133 129.5001,-157.4133 136.5001,-157.4132"/>
</g>
<!-- sell_cake -->
<g id="node3" class="node">
<title>sell_cake</title>
<ellipse fill="none" stroke="#000000" cx="69" cy="-57" rx="52.7911" ry="18"/>
<text text-anchor="middle" x="69" y="-53.3" font-family="sans" font-size="14.00" fill="#000000">sell_cake</text>
</g>
<!-- bake_cake&#45;&gt;sell_cake -->
<g id="edge2" class="edge">
<title>bake_cake&#45;&gt;sell_cake</title>
<path fill="none" stroke="#000000" d="M117.5074,-111.5708C109.5675,-102.6385 99.7606,-91.6056 91.047,-81.8029"/>
<polygon fill="#000000" stroke="#000000" points="93.6096,-79.4175 84.3499,-74.2687 88.3777,-84.0681 93.6096,-79.4175"/>
</g>
<!-- eat_cake -->
<g id="node4" class="node">
<title>eat_cake</title>
<ellipse fill="none" stroke="#000000" cx="198" cy="-57" rx="51.9908" ry="18"/>
<text text-anchor="middle" x="198" y="-53.3" font-family="sans" font-size="14.00" fill="#000000">eat_cake</text>
</g>
<!-- bake_cake&#45;&gt;eat_cake -->
<g id="edge3" class="edge">
<title>bake_cake&#45;&gt;eat_cake</title>
<path fill="none" stroke="#000000" d="M148.7347,-111.5708C156.7986,-102.6385 166.7588,-91.6056 175.6085,-81.8029"/>
<polygon fill="#000000" stroke="#000000" points="178.3071,-84.0368 182.4102,-74.2687 173.1112,-79.346 178.3071,-84.0368"/>
</g>
</g>
</svg>
