<?xml version="1.0" encoding="UTF-8" standalone="no"?>
<!DOCTYPE svg PUBLIC "-//W3C//DTD SVG 1.1//EN"
 "http://www.w3.org/Graphics/SVG/1.1/DTD/svg11.dtd">
<!-- Generated by graphviz version 2.40.1 (20161225.0304)
 -->
<!-- Title: example Pages: 1 -->
<svg width="1240pt" height="213pt"
 viewBox="0.00 0.00 1239.74 213.00" xmlns="http://www.w3.org/2000/svg" xmlns:xlink="http://www.w3.org/1999/xlink">
<g id="graph0" class="graph" transform="scale(1 1) rotate(0) translate(4 209)">
<title>example</title>
<polygon fill="transparent" stroke="transparent" points="-4,4 -4,-209 1235.7359,-209 1235.7359,4 -4,4"/>
<g id="clust1" class="cluster">
<title>cluster_legend</title>
<polygon fill="transparent" stroke="#000000" stroke-dasharray="5,2" points="8,-8 8,-83 400.9827,-83 400.9827,-8 8,-8"/>
<text text-anchor="middle" x="204.4913" y="-67.8" font-family="sans" font-size="14.00" fill="#000000">Legend</text>
</g>
<g id="clust2" class="cluster">
<title>cluster_diagram</title>
</g>
<!-- user defined script -->
<g id="node1" class="node">
<title>user defined script</title>
<ellipse fill="none" stroke="#000000" cx="113.4913" cy="-34" rx="97.4827" ry="18"/>
<text text-anchor="middle" x="113.4913" y="-30.3" font-family="sans" font-size="14.00" fill="#000000">user defined script</text>
</g>
<!-- cylc defined script -->
<g id="node2" class="node">
<title>cylc defined script</title>
<polygon fill="none" stroke="#000000" points="392.9827,-52 246.9827,-52 246.9827,-16 392.9827,-16 392.9827,-52"/>
<text text-anchor="middle" x="319.9827" y="-30.3" font-family="sans" font-size="14.00" fill="#000000">cylc defined script</text>
</g>
<!-- user defined script&#45;&gt;cylc defined script -->
<!-- cylc&#45;env -->
<g id="node3" class="node">
<title>cylc&#45;env</title>
<polygon fill="none" stroke="#000000" points="357.4827,-162 282.4827,-162 282.4827,-126 357.4827,-126 357.4827,-162"/>
<text text-anchor="middle" x="319.9827" y="-140.3" font-family="sans" font-size="14.00" fill="#000000">cylc&#45;env</text>
</g>
<!-- env&#45;script -->
<g id="node6" class="node">
<title>env&#45;script</title>
<ellipse fill="none" stroke="#000000" cx="484.8777" cy="-144" rx="55.7903" ry="18"/>
<text text-anchor="middle" x="484.8777" y="-140.3" font-family="sans" font-size="14.00" fill="#000000">env&#45;script</text>
</g>
<!-- cylc&#45;env&#45;&gt;env&#45;script -->
<g id="edge3" class="edge">
<title>cylc&#45;env&#45;&gt;env&#45;script</title>
<path fill="none" stroke="#000000" d="M357.813,-144C375.8714,-144 398.0163,-144 418.7313,-144"/>
<polygon fill="#000000" stroke="#000000" points="418.7615,-147.5001 428.7615,-144 418.7614,-140.5001 418.7615,-147.5001"/>
</g>
<!-- user&#45;env -->
<g id="node4" class="node">
<title>user&#45;env</title>
<polygon fill="none" stroke="#000000" points="655.7728,-162 576.7728,-162 576.7728,-126 655.7728,-126 655.7728,-162"/>
<text text-anchor="middle" x="616.2728" y="-140.3" font-family="sans" font-size="14.00" fill="#000000">user&#45;env</text>
</g>
<!-- pre&#45;script -->
<g id="node7" class="node">
<title>pre&#45;script</title>
<ellipse fill="none" stroke="#000000" cx="747.0179" cy="-144" rx="55.4913" ry="18"/>
<text text-anchor="middle" x="747.0179" y="-140.3" font-family="sans" font-size="14.00" fill="#000000">pre&#45;script</text>
</g>
<!-- user&#45;env&#45;&gt;pre&#45;script -->
<g id="edge5" class="edge">
<title>user&#45;env&#45;&gt;pre&#45;script</title>
<path fill="none" stroke="#000000" d="M655.8554,-144C663.9586,-144 672.6913,-144 681.4292,-144"/>
<polygon fill="#000000" stroke="#000000" points="681.6517,-147.5001 691.6516,-144 681.6516,-140.5001 681.6517,-147.5001"/>
</g>
<!-- init&#45;script -->
<g id="node5" class="node">
<title>init&#45;script</title>
<ellipse fill="none" stroke="#000000" cx="113.4913" cy="-144" rx="53.8905" ry="18"/>
<text text-anchor="middle" x="113.4913" y="-140.3" font-family="sans" font-size="14.00" fill="#000000">init&#45;script</text>
</g>
<!-- init&#45;script&#45;&gt;cylc&#45;env -->
<g id="edge2" class="edge">
<title>init&#45;script&#45;&gt;cylc&#45;env</title>
<path fill="none" stroke="#000000" d="M167.4748,-144C199.8972,-144 240.7853,-144 272.0612,-144"/>
<polygon fill="#000000" stroke="#000000" points="272.2732,-147.5001 282.2732,-144 272.2732,-140.5001 272.2732,-147.5001"/>
</g>
<!-- env&#45;script&#45;&gt;user&#45;env -->
<g id="edge4" class="edge">
<title>env&#45;script&#45;&gt;user&#45;env</title>
<path fill="none" stroke="#000000" d="M540.9822,-144C549.4178,-144 558.069,-144 566.3633,-144"/>
<polygon fill="#000000" stroke="#000000" points="566.6356,-147.5001 576.6355,-144 566.6355,-140.5001 566.6356,-147.5001"/>
</g>
<!-- script -->
<g id="node8" class="node">
<title>script</title>
<ellipse fill="none" stroke="#000000" cx="874.6597" cy="-144" rx="36.2938" ry="18"/>
<text text-anchor="middle" x="874.6597" y="-140.3" font-family="sans" font-size="14.00" fill="#000000">script</text>
</g>
<!-- pre&#45;script&#45;&gt;script -->
<g id="edge6" class="edge">
<title>pre&#45;script&#45;&gt;script</title>
<path fill="none" stroke="#000000" d="M802.6321,-144C811.0403,-144 819.6417,-144 827.8395,-144"/>
<polygon fill="#000000" stroke="#000000" points="827.9625,-147.5001 837.9625,-144 827.9624,-140.5001 827.9625,-147.5001"/>
</g>
<!-- post&#45;script -->
<g id="node9" class="node">
<title>post&#45;script</title>
<ellipse fill="none" stroke="#000000" cx="1006.8512" cy="-144" rx="59.5901" ry="18"/>
<text text-anchor="middle" x="1006.8512" y="-140.3" font-family="sans" font-size="14.00" fill="#000000">post&#45;script</text>
</g>
<!-- script&#45;&gt;post&#45;script -->
<g id="edge7" class="edge">
<title>script&#45;&gt;post&#45;script</title>
<path fill="none" stroke="#000000" d="M911.1316,-144C919.1827,-144 927.9733,-144 936.858,-144"/>
<polygon fill="#000000" stroke="#000000" points="936.8949,-147.5001 946.8949,-144 936.8949,-140.5001 936.8949,-147.5001"/>
</g>
<!-- err&#45;script -->
<g id="node10" class="node">
<title>err&#45;script</title>
<ellipse fill="none" stroke="#000000" cx="1159.1909" cy="-117" rx="52.7911" ry="18"/>
<text text-anchor="middle" x="1159.1909" y="-113.3" font-family="sans" font-size="14.00" fill="#000000">err&#45;script</text>
</g>
<!-- post&#45;script&#45;&gt;err&#45;script -->
<g id="edge8" class="edge">
<title>post&#45;script&#45;&gt;err&#45;script</title>
<path fill="none" stroke="#000000" d="M1058.4265,-134.859C1072.4572,-132.3723 1087.7352,-129.6645 1102.0543,-127.1266"/>
<polygon fill="#000000" stroke="#000000" points="1103.0442,-130.5058 1112.2799,-125.3143 1101.8225,-123.6132 1103.0442,-130.5058"/>
</g>
<!-- exit&#45;script -->
<g id="node11" class="node">
<title>exit&#45;script</title>
<ellipse fill="none" stroke="#000000" cx="1159.1909" cy="-171" rx="56.59" ry="18"/>
<text text-anchor="middle" x="1159.1909" y="-167.3" font-family="sans" font-size="14.00" fill="#000000">exit&#45;script</text>
</g>
<!-- post&#45;script&#45;&gt;exit&#45;script -->
<g id="edge9" class="edge">
<title>post&#45;script&#45;&gt;exit&#45;script</title>
<path fill="none" stroke="#000000" d="M1058.4265,-153.141C1071.6332,-155.4817 1085.9449,-158.0182 1099.5219,-160.4245"/>
<polygon fill="#000000" stroke="#000000" points="1099.2732,-163.9349 1109.7306,-162.2339 1100.4948,-157.0423 1099.2732,-163.9349"/>
</g>
</g>
</svg>
