<?xml version="1.0" encoding="UTF-8" standalone="no"?>
<!DOCTYPE svg PUBLIC "-//W3C//DTD SVG 1.1//EN"
 "http://www.w3.org/Graphics/SVG/1.1/DTD/svg11.dtd">
<!-- Generated by graphviz version 2.40.1 (20161225.0304)
 -->
<!-- Title: example Pages: 1 -->
<svg width="324pt" height="505pt"
 viewBox="0.00 0.00 324.00 504.73" xmlns="http://www.w3.org/2000/svg" xmlns:xlink="http://www.w3.org/1999/xlink">
<g id="graph0" class="graph" transform="scale(.4197 .4197) rotate(0) translate(4 1198.6215)">
<title>example</title>
<polygon fill="transparent" stroke="transparent" points="-4,4 -4,-1198.6215 768,-1198.6215 768,4 -4,4"/>
<g id="clust1" class="cluster">
<title>cluster_1</title>
<polygon fill="transparent" stroke="#000000" stroke-dasharray="5,2" points="8,-821.661 8,-1186.6215 370,-1186.6215 370,-821.661 8,-821.661"/>
<text text-anchor="middle" x="189" y="-1171.4215" font-family="sans" font-size="14.00" fill="#000000">1</text>
</g>
<g id="clust2" class="cluster">
<title>cluster_2</title>
<polygon fill="transparent" stroke="#000000" stroke-dasharray="5,2" points="394,-549.4407 394,-914.4012 756,-914.4012 756,-549.4407 394,-549.4407"/>
<text text-anchor="middle" x="575" y="-899.2012" font-family="sans" font-size="14.00" fill="#000000">2</text>
</g>
<g id="clust3" class="cluster">
<title>cluster_3</title>
<polygon fill="transparent" stroke="#000000" stroke-dasharray="5,2" points="24,-277.2203 24,-642.1808 386,-642.1808 386,-277.2203 24,-277.2203"/>
<text text-anchor="middle" x="205" y="-626.9808" font-family="sans" font-size="14.00" fill="#000000">3</text>
</g>
<g id="clust4" class="cluster">
<title>cluster_4</title>
<polygon fill="transparent" stroke="#000000" stroke-dasharray="5,2" points="394,-8 394,-369.9605 756,-369.9605 756,-8 394,-8"/>
<text text-anchor="middle" x="575" y="-354.7605" font-family="sans" font-size="14.00" fill="#000000">4</text>
</g>
<!-- pur.1 -->
<g id="node1" class="node">
<title>pur.1</title>
<ellipse fill="none" stroke="#000000" cx="269" cy="-1128.7514" rx="92.7622" ry="26.7407"/>
<text text-anchor="middle" x="269" y="-1132.5514" font-family="sans" font-size="14.00" fill="#000000">buy_ingredients</text>
<text text-anchor="middle" x="269" y="-1117.5514" font-family="sans" font-size="14.00" fill="#000000">1</text>
</g>
<!-- mak.1 -->
<g id="node2" class="node">
<title>mak.1</title>
<ellipse fill="none" stroke="#000000" cx="285" cy="-1039.0113" rx="77.1494" ry="26.7407"/>
<text text-anchor="middle" x="285" y="-1042.8113" font-family="sans" font-size="14.00" fill="#000000">make_dough</text>
<text text-anchor="middle" x="285" y="-1027.8113" font-family="sans" font-size="14.00" fill="#000000">1</text>
</g>
<!-- pur.1&#45;&gt;mak.1 -->
<g id="edge1" class="edge">
<title>pur.1&#45;&gt;mak.1</title>
<path fill="none" stroke="#000000" d="M273.8005,-1101.8264C275.256,-1093.6628 276.8807,-1084.5503 278.4313,-1075.8536"/>
<polygon fill="#000000" stroke="#000000" points="281.8932,-1076.3764 280.2029,-1065.9173 275.0019,-1075.1477 281.8932,-1076.3764"/>
</g>
<!-- bak.1 -->
<g id="node3" class="node">
<title>bak.1</title>
<ellipse fill="none" stroke="#000000" cx="211" cy="-949.2712" rx="71.3357" ry="26.7407"/>
<text text-anchor="middle" x="211" y="-953.0712" font-family="sans" font-size="14.00" fill="#000000">bake_bread</text>
<text text-anchor="middle" x="211" y="-938.0712" font-family="sans" font-size="14.00" fill="#000000">1</text>
</g>
<!-- mak.1&#45;&gt;bak.1 -->
<g id="edge2" class="edge">
<title>mak.1&#45;&gt;bak.1</title>
<path fill="none" stroke="#000000" d="M263.5961,-1013.0548C255.8494,-1003.6602 246.9861,-992.9117 238.7712,-982.9495"/>
<polygon fill="#000000" stroke="#000000" points="241.4181,-980.658 232.3558,-975.1694 236.0175,-985.1114 241.4181,-980.658"/>
</g>
<!-- sel.1 -->
<g id="node4" class="node">
<title>sel.1</title>
<ellipse fill="none" stroke="#000000" cx="136" cy="-856.5311" rx="63.7795" ry="26.7407"/>
<text text-anchor="middle" x="136" y="-860.3311" font-family="sans" font-size="14.00" fill="#000000">sell_bread</text>
<text text-anchor="middle" x="136" y="-845.3311" font-family="sans" font-size="14.00" fill="#000000">1</text>
</g>
<!-- bak.1&#45;&gt;sel.1 -->
<g id="edge3" class="edge">
<title>bak.1&#45;&gt;sel.1</title>
<path fill="none" stroke="#000000" d="M190.1083,-923.4379C181.7376,-913.0872 171.9833,-901.0257 163.0801,-890.0166"/>
<polygon fill="#000000" stroke="#000000" points="165.7893,-887.8005 156.7796,-882.2258 160.3464,-892.2023 165.7893,-887.8005"/>
</g>
<!-- cle.1 -->
<g id="node5" class="node">
<title>cle.1</title>
<ellipse fill="none" stroke="#000000" cx="291" cy="-856.5311" rx="69.0935" ry="26.7407"/>
<text text-anchor="middle" x="291" y="-860.3311" font-family="sans" font-size="14.00" fill="#000000">clean_oven</text>
<text text-anchor="middle" x="291" y="-845.3311" font-family="sans" font-size="14.00" fill="#000000">1</text>
</g>
<!-- bak.1&#45;&gt;cle.1 -->
<g id="edge5" class="edge">
<title>bak.1&#45;&gt;cle.1</title>
<path fill="none" stroke="#000000" d="M233.2845,-923.4379C242.2132,-913.0872 252.6178,-901.0257 262.1145,-890.0166"/>
<polygon fill="#000000" stroke="#000000" points="264.9534,-892.084 268.835,-882.2258 259.653,-887.5117 264.9534,-892.084"/>
</g>
<!-- pur.3 -->
<g id="node13" class="node">
<title>pur.3</title>
<ellipse fill="none" stroke="#000000" cx="133" cy="-584.3107" rx="92.7622" ry="26.7407"/>
<text text-anchor="middle" x="133" y="-588.1107" font-family="sans" font-size="14.00" fill="#000000">buy_ingredients</text>
<text text-anchor="middle" x="133" y="-573.1107" font-family="sans" font-size="14.00" fill="#000000">3</text>
</g>
<!-- sel.1&#45;&gt;pur.3 -->
<g id="edge7" class="edge">
<title>sel.1&#45;&gt;pur.3</title>
<path fill="none" stroke="#000000" d="M135.7014,-829.4343C135.1612,-780.4145 134.021,-676.9527 133.4089,-621.412"/>
<polygon fill="#000000" stroke="#000000" points="136.9075,-621.2587 133.2974,-611.2979 129.9079,-621.3359 136.9075,-621.2587"/>
</g>
<!-- pre.2 -->
<g id="node12" class="node">
<title>pre.2</title>
<ellipse fill="none" stroke="#000000" cx="489" cy="-766.791" rx="86.9483" ry="26.7407"/>
<text text-anchor="middle" x="489" y="-770.591" font-family="sans" font-size="14.00" fill="#000000">pre_heat_oven</text>
<text text-anchor="middle" x="489" y="-755.591" font-family="sans" font-size="14.00" fill="#000000">2</text>
</g>
<!-- cle.1&#45;&gt;pre.2 -->
<g id="edge6" class="edge">
<title>cle.1&#45;&gt;pre.2</title>
<path fill="none" stroke="#000000" d="M336.4252,-835.9429C364.4653,-823.2342 400.7108,-806.8066 430.8381,-793.1519"/>
<polygon fill="#000000" stroke="#000000" points="432.3124,-796.3264 439.9757,-789.0104 429.4227,-789.9507 432.3124,-796.3264"/>
</g>
<!-- pre.1 -->
<g id="node6" class="node">
<title>pre.1</title>
<ellipse fill="none" stroke="#000000" cx="103" cy="-1039.0113" rx="86.9483" ry="26.7407"/>
<text text-anchor="middle" x="103" y="-1042.8113" font-family="sans" font-size="14.00" fill="#000000">pre_heat_oven</text>
<text text-anchor="middle" x="103" y="-1027.8113" font-family="sans" font-size="14.00" fill="#000000">1</text>
</g>
<!-- pre.1&#45;&gt;bak.1 -->
<g id="edge4" class="edge">
<title>pre.1&#45;&gt;bak.1</title>
<path fill="none" stroke="#000000" d="M133.3714,-1013.7749C145.7715,-1003.4714 160.2421,-991.4473 173.3073,-980.5911"/>
<polygon fill="#000000" stroke="#000000" points="175.775,-983.0913 181.2295,-974.0083 171.3013,-977.7073 175.775,-983.0913"/>
</g>
<!-- pur.2 -->
<g id="node7" class="node">
<title>pur.2</title>
<ellipse fill="none" stroke="#000000" cx="655" cy="-856.5311" rx="92.7622" ry="26.7407"/>
<text text-anchor="middle" x="655" y="-860.3311" font-family="sans" font-size="14.00" fill="#000000">buy_ingredients</text>
<text text-anchor="middle" x="655" y="-845.3311" font-family="sans" font-size="14.00" fill="#000000">2</text>
</g>
<!-- mak.2 -->
<g id="node8" class="node">
<title>mak.2</title>
<ellipse fill="none" stroke="#000000" cx="671" cy="-766.791" rx="77.1494" ry="26.7407"/>
<text text-anchor="middle" x="671" y="-770.591" font-family="sans" font-size="14.00" fill="#000000">make_dough</text>
<text text-anchor="middle" x="671" y="-755.591" font-family="sans" font-size="14.00" fill="#000000">2</text>
</g>
<!-- pur.2&#45;&gt;mak.2 -->
<g id="edge8" class="edge">
<title>pur.2&#45;&gt;mak.2</title>
<path fill="none" stroke="#000000" d="M659.8005,-829.6061C661.256,-821.4424 662.8807,-812.3299 664.4313,-803.6333"/>
<polygon fill="#000000" stroke="#000000" points="667.8932,-804.1561 666.2029,-793.697 661.0019,-802.9274 667.8932,-804.1561"/>
</g>
<!-- bak.2 -->
<g id="node9" class="node">
<title>bak.2</title>
<ellipse fill="none" stroke="#000000" cx="561" cy="-677.0509" rx="71.3357" ry="26.7407"/>
<text text-anchor="middle" x="561" y="-680.8509" font-family="sans" font-size="14.00" fill="#000000">bake_bread</text>
<text text-anchor="middle" x="561" y="-665.8509" font-family="sans" font-size="14.00" fill="#000000">2</text>
</g>
<!-- mak.2&#45;&gt;bak.2 -->
<g id="edge9" class="edge">
<title>mak.2&#45;&gt;bak.2</title>
<path fill="none" stroke="#000000" d="M640.6508,-742.0315C627.7863,-731.5364 612.6531,-719.1904 599.0523,-708.0946"/>
<polygon fill="#000000" stroke="#000000" points="601.2112,-705.3389 591.2501,-701.7295 596.7862,-710.7629 601.2112,-705.3389"/>
</g>
<!-- sel.2 -->
<g id="node10" class="node">
<title>sel.2</title>
<ellipse fill="none" stroke="#000000" cx="634" cy="-584.3107" rx="63.7795" ry="26.7407"/>
<text text-anchor="middle" x="634" y="-588.1107" font-family="sans" font-size="14.00" fill="#000000">sell_bread</text>
<text text-anchor="middle" x="634" y="-573.1107" font-family="sans" font-size="14.00" fill="#000000">2</text>
</g>
<!-- bak.2&#45;&gt;sel.2 -->
<g id="edge10" class="edge">
<title>bak.2&#45;&gt;sel.2</title>
<path fill="none" stroke="#000000" d="M581.3346,-651.2176C589.403,-640.9674 598.792,-629.0394 607.3894,-618.1172"/>
<polygon fill="#000000" stroke="#000000" points="610.3395,-620.0281 613.7745,-610.0055 604.8391,-615.6984 610.3395,-620.0281"/>
</g>
<!-- cle.2 -->
<g id="node11" class="node">
<title>cle.2</title>
<ellipse fill="none" stroke="#000000" cx="479" cy="-584.3107" rx="69.0935" ry="26.7407"/>
<text text-anchor="middle" x="479" y="-588.1107" font-family="sans" font-size="14.00" fill="#000000">clean_oven</text>
<text text-anchor="middle" x="479" y="-573.1107" font-family="sans" font-size="14.00" fill="#000000">2</text>
</g>
<!-- bak.2&#45;&gt;cle.2 -->
<g id="edge12" class="edge">
<title>bak.2&#45;&gt;cle.2</title>
<path fill="none" stroke="#000000" d="M538.1584,-651.2176C529.0064,-640.8669 518.3417,-628.8053 508.6076,-617.7963"/>
<polygon fill="#000000" stroke="#000000" points="510.9651,-615.1787 501.7191,-610.0055 505.721,-619.8155 510.9651,-615.1787"/>
</g>
<!-- pur.4 -->
<g id="node19" class="node">
<title>pur.4</title>
<ellipse fill="none" stroke="#000000" cx="652" cy="-312.0904" rx="92.7622" ry="26.7407"/>
<text text-anchor="middle" x="652" y="-315.8904" font-family="sans" font-size="14.00" fill="#000000">buy_ingredients</text>
<text text-anchor="middle" x="652" y="-300.8904" font-family="sans" font-size="14.00" fill="#000000">4</text>
</g>
<!-- sel.2&#45;&gt;pur.4 -->
<g id="edge14" class="edge">
<title>sel.2&#45;&gt;pur.4</title>
<path fill="none" stroke="#000000" d="M635.7917,-557.214C639.0331,-508.1941 645.8742,-404.7324 649.5468,-349.1917"/>
<polygon fill="#000000" stroke="#000000" points="653.048,-349.2867 650.2155,-339.0776 646.0633,-348.8248 653.048,-349.2867"/>
</g>
<!-- pre.3 -->
<g id="node18" class="node">
<title>pre.3</title>
<ellipse fill="none" stroke="#000000" cx="291" cy="-494.5706" rx="86.9483" ry="26.7407"/>
<text text-anchor="middle" x="291" y="-498.3706" font-family="sans" font-size="14.00" fill="#000000">pre_heat_oven</text>
<text text-anchor="middle" x="291" y="-483.3706" font-family="sans" font-size="14.00" fill="#000000">3</text>
</g>
<!-- cle.2&#45;&gt;pre.3 -->
<g id="edge13" class="edge">
<title>cle.2&#45;&gt;pre.3</title>
<path fill="none" stroke="#000000" d="M434.9224,-563.2707C408.888,-550.8434 375.6562,-534.9805 347.6862,-521.6293"/>
<polygon fill="#000000" stroke="#000000" points="348.9527,-518.3556 338.4204,-517.2063 345.9372,-524.6728 348.9527,-518.3556"/>
</g>
<!-- pre.2&#45;&gt;bak.2 -->
<g id="edge11" class="edge">
<title>pre.2&#45;&gt;bak.2</title>
<path fill="none" stroke="#000000" d="M510.213,-740.3514C517.6017,-731.142 525.9964,-720.679 533.8027,-710.9493"/>
<polygon fill="#000000" stroke="#000000" points="536.6587,-712.9826 540.1867,-702.9924 531.1987,-708.602 536.6587,-712.9826"/>
</g>
<!-- mak.3 -->
<g id="node14" class="node">
<title>mak.3</title>
<ellipse fill="none" stroke="#000000" cx="109" cy="-494.5706" rx="77.1494" ry="26.7407"/>
<text text-anchor="middle" x="109" y="-498.3706" font-family="sans" font-size="14.00" fill="#000000">make_dough</text>
<text text-anchor="middle" x="109" y="-483.3706" font-family="sans" font-size="14.00" fill="#000000">3</text>
</g>
<!-- pur.3&#45;&gt;mak.3 -->
<g id="edge15" class="edge">
<title>pur.3&#45;&gt;mak.3</title>
<path fill="none" stroke="#000000" d="M125.7992,-557.3858C123.6159,-549.2221 121.1789,-540.1096 118.8531,-531.4129"/>
<polygon fill="#000000" stroke="#000000" points="122.1605,-530.2328 116.1957,-521.4766 115.3982,-532.0414 122.1605,-530.2328"/>
</g>
<!-- bak.3 -->
<g id="node15" class="node">
<title>bak.3</title>
<ellipse fill="none" stroke="#000000" cx="224" cy="-404.8305" rx="71.3357" ry="26.7407"/>
<text text-anchor="middle" x="224" y="-408.6305" font-family="sans" font-size="14.00" fill="#000000">bake_bread</text>
<text text-anchor="middle" x="224" y="-393.6305" font-family="sans" font-size="14.00" fill="#000000">3</text>
</g>
<!-- mak.3&#45;&gt;bak.3 -->
<g id="edge16" class="edge">
<title>mak.3&#45;&gt;bak.3</title>
<path fill="none" stroke="#000000" d="M140.7287,-469.8112C154.2891,-459.2293 170.2607,-446.7659 184.5703,-435.5994"/>
<polygon fill="#000000" stroke="#000000" points="187.0422,-438.1101 192.7727,-429.1987 182.7358,-432.5915 187.0422,-438.1101"/>
</g>
<!-- sel.3 -->
<g id="node16" class="node">
<title>sel.3</title>
<ellipse fill="none" stroke="#000000" cx="158" cy="-312.0904" rx="63.7795" ry="26.7407"/>
<text text-anchor="middle" x="158" y="-315.8904" font-family="sans" font-size="14.00" fill="#000000">sell_bread</text>
<text text-anchor="middle" x="158" y="-300.8904" font-family="sans" font-size="14.00" fill="#000000">3</text>
</g>
<!-- bak.3&#45;&gt;sel.3 -->
<g id="edge17" class="edge">
<title>bak.3&#45;&gt;sel.3</title>
<path fill="none" stroke="#000000" d="M205.2636,-378.503C198.1066,-368.4463 189.8412,-356.8322 182.2434,-346.1561"/>
<polygon fill="#000000" stroke="#000000" points="184.977,-343.9609 176.3271,-337.8429 179.2738,-348.0197 184.977,-343.9609"/>
</g>
<!-- cle.3 -->
<g id="node17" class="node">
<title>cle.3</title>
<ellipse fill="none" stroke="#000000" cx="309" cy="-312.0904" rx="69.0935" ry="26.7407"/>
<text text-anchor="middle" x="309" y="-315.8904" font-family="sans" font-size="14.00" fill="#000000">clean_oven</text>
<text text-anchor="middle" x="309" y="-300.8904" font-family="sans" font-size="14.00" fill="#000000">3</text>
</g>
<!-- bak.3&#45;&gt;cle.3 -->
<g id="edge19" class="edge">
<title>bak.3&#45;&gt;cle.3</title>
<path fill="none" stroke="#000000" d="M247.6772,-378.9972C257.336,-368.459 268.6201,-356.1473 278.8568,-344.9784"/>
<polygon fill="#000000" stroke="#000000" points="281.567,-347.2015 285.7435,-337.4646 276.4065,-342.4718 281.567,-347.2015"/>
</g>
<!-- pre.4 -->
<g id="node24" class="node">
<title>pre.4</title>
<ellipse fill="none" stroke="#000000" cx="489" cy="-222.3503" rx="86.9483" ry="26.7407"/>
<text text-anchor="middle" x="489" y="-226.1503" font-family="sans" font-size="14.00" fill="#000000">pre_heat_oven</text>
<text text-anchor="middle" x="489" y="-211.1503" font-family="sans" font-size="14.00" fill="#000000">4</text>
</g>
<!-- cle.3&#45;&gt;pre.4 -->
<g id="edge20" class="edge">
<title>cle.3&#45;&gt;pre.4</title>
<path fill="none" stroke="#000000" d="M351.6575,-290.8232C376.3017,-278.5367 407.5666,-262.9494 434.0388,-249.7516"/>
<polygon fill="#000000" stroke="#000000" points="435.7959,-252.7864 443.1837,-245.1923 432.6726,-246.5218 435.7959,-252.7864"/>
</g>
<!-- pre.3&#45;&gt;bak.3 -->
<g id="edge18" class="edge">
<title>pre.3&#45;&gt;bak.3</title>
<path fill="none" stroke="#000000" d="M271.2602,-468.131C264.4533,-459.0138 256.7289,-448.6678 249.5267,-439.021"/>
<polygon fill="#000000" stroke="#000000" points="252.1551,-436.6912 243.3679,-430.772 246.5459,-440.879 252.1551,-436.6912"/>
</g>
<!-- mak.4 -->
<g id="node20" class="node">
<title>mak.4</title>
<ellipse fill="none" stroke="#000000" cx="671" cy="-222.3503" rx="77.1494" ry="26.7407"/>
<text text-anchor="middle" x="671" y="-226.1503" font-family="sans" font-size="14.00" fill="#000000">make_dough</text>
<text text-anchor="middle" x="671" y="-211.1503" font-family="sans" font-size="14.00" fill="#000000">4</text>
</g>
<!-- pur.4&#45;&gt;mak.4 -->
<g id="edge21" class="edge">
<title>pur.4&#45;&gt;mak.4</title>
<path fill="none" stroke="#000000" d="M657.7006,-285.1654C659.4291,-277.0017 661.3584,-267.8892 663.1997,-259.1926"/>
<polygon fill="#000000" stroke="#000000" points="666.6561,-259.7644 665.3034,-249.2563 659.8079,-258.3144 666.6561,-259.7644"/>
</g>
<!-- bak.4 -->
<g id="node21" class="node">
<title>bak.4</title>
<ellipse fill="none" stroke="#000000" cx="558" cy="-132.6102" rx="71.3357" ry="26.7407"/>
<text text-anchor="middle" x="558" y="-136.4102" font-family="sans" font-size="14.00" fill="#000000">bake_bread</text>
<text text-anchor="middle" x="558" y="-121.4102" font-family="sans" font-size="14.00" fill="#000000">4</text>
</g>
<!-- mak.4&#45;&gt;bak.4 -->
<g id="edge22" class="edge">
<title>mak.4&#45;&gt;bak.4</title>
<path fill="none" stroke="#000000" d="M639.8231,-197.5909C626.4985,-187.009 610.8047,-174.5455 596.744,-163.3791"/>
<polygon fill="#000000" stroke="#000000" points="598.6919,-160.4566 588.6842,-156.9784 594.3385,-165.9383 598.6919,-160.4566"/>
</g>
<!-- sel.4 -->
<g id="node22" class="node">
<title>sel.4</title>
<ellipse fill="none" stroke="#000000" cx="477" cy="-42.8701" rx="63.7795" ry="26.7407"/>
<text text-anchor="middle" x="477" y="-46.6701" font-family="sans" font-size="14.00" fill="#000000">sell_bread</text>
<text text-anchor="middle" x="477" y="-31.6701" font-family="sans" font-size="14.00" fill="#000000">4</text>
</g>
<!-- bak.4&#45;&gt;sel.4 -->
<g id="edge23" class="edge">
<title>bak.4&#45;&gt;sel.4</title>
<path fill="none" stroke="#000000" d="M535.0053,-107.1343C526.2093,-97.3892 516.0491,-86.1327 506.7137,-75.7899"/>
<polygon fill="#000000" stroke="#000000" points="509.0704,-73.1772 499.7718,-68.099 503.874,-77.8675 509.0704,-73.1772"/>
</g>
<!-- cle.4 -->
<g id="node23" class="node">
<title>cle.4</title>
<ellipse fill="none" stroke="#000000" cx="628" cy="-42.8701" rx="69.0935" ry="26.7407"/>
<text text-anchor="middle" x="628" y="-46.6701" font-family="sans" font-size="14.00" fill="#000000">clean_oven</text>
<text text-anchor="middle" x="628" y="-31.6701" font-family="sans" font-size="14.00" fill="#000000">4</text>
</g>
<!-- bak.4&#45;&gt;cle.4 -->
<g id="edge25" class="edge">
<title>bak.4&#45;&gt;cle.4</title>
<path fill="none" stroke="#000000" d="M578.2469,-106.6536C585.5024,-97.3521 593.7932,-86.7233 601.4989,-76.8445"/>
<polygon fill="#000000" stroke="#000000" points="604.4078,-78.8059 607.7986,-68.7683 598.8884,-74.5005 604.4078,-78.8059"/>
</g>
<!-- pre.4&#45;&gt;bak.4 -->
<g id="edge24" class="edge">
<title>pre.4&#45;&gt;bak.4</title>
<path fill="none" stroke="#000000" d="M509.3291,-195.9107C516.41,-186.7014 524.4549,-176.2383 531.936,-166.5086"/>
<polygon fill="#000000" stroke="#000000" points="534.7331,-168.6127 538.0539,-158.5517 529.1838,-164.3459 534.7331,-168.6127"/>
</g>
</g>
</svg>
