<?xml version="1.0" encoding="UTF-8" standalone="no"?>
<!DOCTYPE svg PUBLIC "-//W3C//DTD SVG 1.1//EN"
 "http://www.w3.org/Graphics/SVG/1.1/DTD/svg11.dtd">
<!-- Generated by graphviz version 2.40.1 (20161225.0304)
 -->
<!-- Title: Example Pages: 1 -->
<svg width="154pt" height="242pt"
 viewBox="0.00 0.00 154.30 242.00" xmlns="http://www.w3.org/2000/svg" xmlns:xlink="http://www.w3.org/1999/xlink">
<g id="graph0" class="graph" transform="scale(1 1) rotate(0) translate(4 238)">
<title>Example</title>
<polygon fill="transparent" stroke="transparent" points="-4,4 -4,-238 150.2976,-238 150.2976,4 -4,4"/>
<g id="clust1" class="cluster">
<title>cluster_1</title>
<polygon fill="transparent" stroke="#ffa500" stroke-dasharray="5,2" points="8,-8 8,-98 82,-98 82,-8 8,-8"/>
<text text-anchor="middle" x="45" y="-30.8" font-family="sans" font-size="14.00" fill="#ffa500">Faulty</text>
<text text-anchor="middle" x="45" y="-15.8" font-family="sans" font-size="14.00" fill="#ffa500">Task</text>
</g>
<!-- pub -->
<g id="node1" class="node">
<title>pub</title>
<ellipse fill="none" stroke="#000000" cx="45" cy="-72" rx="28.6953" ry="18"/>
<text text-anchor="middle" x="45" y="-68.3" font-family="sans" font-size="14.00" fill="#000000">pub</text>
</g>
<!-- foo -->
<g id="node2" class="node">
<title>foo</title>
<ellipse fill="none" stroke="#000000" cx="82" cy="-216" rx="27" ry="18"/>
<text text-anchor="middle" x="82" y="-212.3" font-family="sans" font-size="14.00" fill="#000000">foo</text>
</g>
<!-- bar -->
<g id="node3" class="node">
<title>bar</title>
<ellipse fill="none" stroke="#000000" cx="82" cy="-144" rx="27" ry="18"/>
<text text-anchor="middle" x="82" y="-140.3" font-family="sans" font-size="14.00" fill="#000000">bar</text>
</g>
<!-- foo&#45;&gt;bar -->
<g id="edge1" class="edge">
<title>foo&#45;&gt;bar</title>
<path fill="none" stroke="#000000" d="M82,-197.8314C82,-190.131 82,-180.9743 82,-172.4166"/>
<polygon fill="#000000" stroke="#000000" points="85.5001,-172.4132 82,-162.4133 78.5001,-172.4133 85.5001,-172.4132"/>
</g>
<!-- bar&#45;&gt;pub -->
<g id="edge3" class="edge">
<title>bar&#45;&gt;pub</title>
<path fill="none" stroke="#000000" d="M73.2315,-126.937C68.8721,-118.4537 63.5047,-108.0092 58.6247,-98.513"/>
<polygon fill="#000000" stroke="#000000" points="61.6463,-96.7352 53.9626,-89.4407 55.4203,-99.9348 61.6463,-96.7352"/>
</g>
<!-- baz -->
<g id="node4" class="node">
<title>baz</title>
<ellipse fill="none" stroke="#000000" cx="119" cy="-72" rx="27.0966" ry="18"/>
<text text-anchor="middle" x="119" y="-68.3" font-family="sans" font-size="14.00" fill="#000000">baz</text>
</g>
<!-- bar&#45;&gt;baz -->
<g id="edge2" class="edge">
<title>bar&#45;&gt;baz</title>
<path fill="none" stroke="#000000" d="M90.7685,-126.937C95.1279,-118.4537 100.4953,-108.0092 105.3753,-98.513"/>
<polygon fill="#000000" stroke="#000000" points="108.5797,-99.9348 110.0374,-89.4407 102.3537,-96.7352 108.5797,-99.9348"/>
</g>
</g>
</svg>
