<?xml version="1.0" encoding="UTF-8" standalone="no"?>
<!DOCTYPE svg PUBLIC "-//W3C//DTD SVG 1.1//EN"
 "http://www.w3.org/Graphics/SVG/1.1/DTD/svg11.dtd">
<!-- Generated by graphviz version 2.40.1 (20161225.0304)
 -->
<!-- Title: %3 Pages: 1 -->
<svg width="755pt" height="1803pt"
 viewBox="0.00 0.00 755.00 1802.50" xmlns="http://www.w3.org/2000/svg" xmlns:xlink="http://www.w3.org/1999/xlink">
<g id="graph0" class="graph" transform="scale(1 1) rotate(0) translate(4 1798.5)">
<title>%3</title>
<polygon fill="transparent" stroke="transparent" points="-4,4 -4,-1798.5 751,-1798.5 751,4 -4,4"/>
<!-- absolute_outputs -->
<g id="node1" class="node">
<title>absolute_outputs</title>
<polygon fill="none" stroke="#000000" points="584.5,-449.5 584.5,-477.5 728.5,-477.5 728.5,-449.5 584.5,-449.5"/>
<text text-anchor="start" x="589.5" y="-460.7" font-family="Helvetica,sans-Serif" font-weight="bold" font-size="16.00" fill="#000000">absolute_outputs</text>
<polygon fill="none" stroke="#000000" points="584.5,-424.5 584.5,-449.5 728.5,-449.5 728.5,-424.5 584.5,-424.5"/>
<text text-anchor="start" x="589.5" y="-433.3" font-family="Helvetica,sans-Serif" font-size="14.00" fill="#000000">cycle</text>
<polygon fill="none" stroke="#000000" points="584.5,-399.5 584.5,-424.5 728.5,-424.5 728.5,-399.5 584.5,-399.5"/>
<text text-anchor="start" x="589.5" y="-408.3" font-family="Helvetica,sans-Serif" font-size="14.00" fill="#000000">name</text>
<polygon fill="none" stroke="#000000" points="584.5,-374.5 584.5,-399.5 728.5,-399.5 728.5,-374.5 584.5,-374.5"/>
<text text-anchor="start" x="589.5" y="-383.3" font-family="Helvetica,sans-Serif" font-size="14.00" fill="#000000">output</text>
</g>
<!-- broadcast_events -->
<g id="node2" class="node">
<title>broadcast_events</title>
<polygon fill="none" stroke="#000000" points="583.5,-654.5 583.5,-682.5 730.5,-682.5 730.5,-654.5 583.5,-654.5"/>
<text text-anchor="start" x="588.5" y="-665.7" font-family="Helvetica,sans-Serif" font-weight="bold" font-size="16.00" fill="#000000">broadcast_events</text>
<polygon fill="none" stroke="#000000" points="583.5,-629.5 583.5,-654.5 730.5,-654.5 730.5,-629.5 583.5,-629.5"/>
<text text-anchor="start" x="588.5" y="-638.3" font-family="Helvetica,sans-Serif" font-size="14.00" fill="#000000">time</text>
<polygon fill="none" stroke="#000000" points="583.5,-604.5 583.5,-629.5 730.5,-629.5 730.5,-604.5 583.5,-604.5"/>
<text text-anchor="start" x="588.5" y="-613.3" font-family="Helvetica,sans-Serif" font-size="14.00" fill="#000000">change</text>
<polygon fill="none" stroke="#000000" points="583.5,-579.5 583.5,-604.5 730.5,-604.5 730.5,-579.5 583.5,-579.5"/>
<text text-anchor="start" x="588.5" y="-588.3" font-family="Helvetica,sans-Serif" font-size="14.00" fill="#000000">point</text>
<polygon fill="none" stroke="#000000" points="583.5,-554.5 583.5,-579.5 730.5,-579.5 730.5,-554.5 583.5,-554.5"/>
<text text-anchor="start" x="588.5" y="-563.3" font-family="Helvetica,sans-Serif" font-size="14.00" fill="#000000">namespace</text>
<polygon fill="none" stroke="#000000" points="583.5,-529.5 583.5,-554.5 730.5,-554.5 730.5,-529.5 583.5,-529.5"/>
<text text-anchor="start" x="588.5" y="-538.3" font-family="Helvetica,sans-Serif" font-size="14.00" fill="#000000">key</text>
<polygon fill="none" stroke="#000000" points="583.5,-504.5 583.5,-529.5 730.5,-529.5 730.5,-504.5 583.5,-504.5"/>
<text text-anchor="start" x="588.5" y="-513.3" font-family="Helvetica,sans-Serif" font-size="14.00" fill="#000000">value</text>
</g>
<!-- broadcast_states -->
<g id="node3" class="node">
<title>broadcast_states</title>
<polygon fill="none" stroke="#000000" points="8.5,-1116.5 8.5,-1144.5 151.5,-1144.5 151.5,-1116.5 8.5,-1116.5"/>
<text text-anchor="start" x="13.5" y="-1127.7" font-family="Helvetica,sans-Serif" font-weight="bold" font-size="16.00" fill="#000000">broadcast_states</text>
<polygon fill="none" stroke="#000000" points="8.5,-1091.5 8.5,-1116.5 151.5,-1116.5 151.5,-1091.5 8.5,-1091.5"/>
<text text-anchor="start" x="13.5" y="-1101.3" font-family="Helvetica,sans-Serif" text-decoration="underline" font-size="14.00" fill="#000000">point</text>
<polygon fill="none" stroke="#000000" points="8.5,-1066.5 8.5,-1091.5 151.5,-1091.5 151.5,-1066.5 8.5,-1066.5"/>
<text text-anchor="start" x="13.5" y="-1076.3" font-family="Helvetica,sans-Serif" text-decoration="underline" font-size="14.00" fill="#000000">namespace</text>
<polygon fill="none" stroke="#000000" points="8.5,-1041.5 8.5,-1066.5 151.5,-1066.5 151.5,-1041.5 8.5,-1041.5"/>
<text text-anchor="start" x="13.5" y="-1051.3" font-family="Helvetica,sans-Serif" text-decoration="underline" font-size="14.00" fill="#000000">key</text>
<polygon fill="none" stroke="#000000" points="8.5,-1016.5 8.5,-1041.5 151.5,-1041.5 151.5,-1016.5 8.5,-1016.5"/>
<text text-anchor="start" x="13.5" y="-1025.3" font-family="Helvetica,sans-Serif" font-size="14.00" fill="#000000">value</text>
</g>
<!-- broadcast_states_checkpoints -->
<g id="node4" class="node">
<title>broadcast_states_checkpoints</title>
<polygon fill="none" stroke="#000000" points="240.5,-1128.5 240.5,-1156.5 485.5,-1156.5 485.5,-1128.5 240.5,-1128.5"/>
<text text-anchor="start" x="245.5" y="-1139.7" font-family="Helvetica,sans-Serif" font-weight="bold" font-size="16.00" fill="#000000">broadcast_states_checkpoints</text>
<polygon fill="none" stroke="#000000" points="240.5,-1103.5 240.5,-1128.5 485.5,-1128.5 485.5,-1103.5 240.5,-1103.5"/>
<text text-anchor="start" x="245.5" y="-1113.3" font-family="Helvetica,sans-Serif" text-decoration="underline" font-size="14.00" fill="#000000">id</text>
<polygon fill="none" stroke="#000000" points="240.5,-1078.5 240.5,-1103.5 485.5,-1103.5 485.5,-1078.5 240.5,-1078.5"/>
<text text-anchor="start" x="245.5" y="-1088.3" font-family="Helvetica,sans-Serif" text-decoration="underline" font-size="14.00" fill="#000000">point</text>
<polygon fill="none" stroke="#000000" points="240.5,-1053.5 240.5,-1078.5 485.5,-1078.5 485.5,-1053.5 240.5,-1053.5"/>
<text text-anchor="start" x="245.5" y="-1063.3" font-family="Helvetica,sans-Serif" text-decoration="underline" font-size="14.00" fill="#000000">namespace</text>
<polygon fill="none" stroke="#000000" points="240.5,-1028.5 240.5,-1053.5 485.5,-1053.5 485.5,-1028.5 240.5,-1028.5"/>
<text text-anchor="start" x="245.5" y="-1038.3" font-family="Helvetica,sans-Serif" text-decoration="underline" font-size="14.00" fill="#000000">key</text>
<polygon fill="none" stroke="#000000" points="240.5,-1003.5 240.5,-1028.5 485.5,-1028.5 485.5,-1003.5 240.5,-1003.5"/>
<text text-anchor="start" x="245.5" y="-1012.3" font-family="Helvetica,sans-Serif" font-size="14.00" fill="#000000">value</text>
</g>
<!-- broadcast_states&#45;&#45;broadcast_states_checkpoints -->
<g id="edge3" class="edge">
<title>broadcast_states&#45;&#45;broadcast_states_checkpoints</title>
<path fill="none" stroke="#7f7f7f" stroke-dasharray="5,2" d="M159.0844,-1080.5C181.7271,-1080.5 207.0045,-1080.5 231.8345,-1080.5"/>
<text text-anchor="start" x="200.8345" y="-1069.3" font-family="Times,serif" font-size="14.00" fill="#000000">{0,1}</text>
<text text-anchor="start" x="159.0844" y="-1069.3" font-family="Times,serif" font-size="14.00" fill="#000000">0..N</text>
</g>
<!-- checkpoint_id -->
<g id="node5" class="node">
<title>checkpoint_id</title>
<polygon fill="none" stroke="#000000" points="20.5,-958.5 20.5,-986.5 139.5,-986.5 139.5,-958.5 20.5,-958.5"/>
<text text-anchor="start" x="25.5" y="-969.7" font-family="Helvetica,sans-Serif" font-weight="bold" font-size="16.00" fill="#000000">checkpoint_id</text>
<polygon fill="none" stroke="#000000" points="20.5,-933.5 20.5,-958.5 139.5,-958.5 139.5,-933.5 20.5,-933.5"/>
<text text-anchor="start" x="25.5" y="-943.3" font-family="Helvetica,sans-Serif" text-decoration="underline" font-size="14.00" fill="#000000">id</text>
<polygon fill="none" stroke="#000000" points="20.5,-908.5 20.5,-933.5 139.5,-933.5 139.5,-908.5 20.5,-908.5"/>
<text text-anchor="start" x="25.5" y="-917.3" font-family="Helvetica,sans-Serif" font-size="14.00" fill="#000000">time</text>
<polygon fill="none" stroke="#000000" points="20.5,-883.5 20.5,-908.5 139.5,-908.5 139.5,-883.5 20.5,-883.5"/>
<text text-anchor="start" x="25.5" y="-892.3" font-family="Helvetica,sans-Serif" font-size="14.00" fill="#000000">event</text>
</g>
<!-- checkpoint_id&#45;&#45;broadcast_states_checkpoints -->
<g id="edge4" class="edge">
<title>checkpoint_id&#45;&#45;broadcast_states_checkpoints</title>
<path fill="none" stroke="#7f7f7f" stroke-dasharray="5,2" d="M147.2856,-970.2311C172.7132,-983.2594 202.5469,-998.5452 231.765,-1013.5156"/>
<text text-anchor="start" x="200.765" y="-1002.3156" font-family="Times,serif" font-size="14.00" fill="#000000">{0,1}</text>
<text text-anchor="start" x="147.2856" y="-959.0311" font-family="Times,serif" font-size="14.00" fill="#000000">0..N</text>
</g>
<!-- suite_params_checkpoints -->
<g id="node8" class="node">
<title>suite_params_checkpoints</title>
<polygon fill="none" stroke="#000000" points="254.5,-949.5 254.5,-977.5 471.5,-977.5 471.5,-949.5 254.5,-949.5"/>
<text text-anchor="start" x="259.5" y="-960.7" font-family="Helvetica,sans-Serif" font-weight="bold" font-size="16.00" fill="#000000">suite_params_checkpoints</text>
<polygon fill="none" stroke="#000000" points="254.5,-924.5 254.5,-949.5 471.5,-949.5 471.5,-924.5 254.5,-924.5"/>
<text text-anchor="start" x="259.5" y="-934.3" font-family="Helvetica,sans-Serif" text-decoration="underline" font-size="14.00" fill="#000000">id</text>
<polygon fill="none" stroke="#000000" points="254.5,-899.5 254.5,-924.5 471.5,-924.5 471.5,-899.5 254.5,-899.5"/>
<text text-anchor="start" x="259.5" y="-909.3" font-family="Helvetica,sans-Serif" text-decoration="underline" font-size="14.00" fill="#000000">key</text>
<polygon fill="none" stroke="#000000" points="254.5,-874.5 254.5,-899.5 471.5,-899.5 471.5,-874.5 254.5,-874.5"/>
<text text-anchor="start" x="259.5" y="-883.3" font-family="Helvetica,sans-Serif" font-size="14.00" fill="#000000">value</text>
</g>
<!-- checkpoint_id&#45;&#45;suite_params_checkpoints -->
<g id="edge5" class="edge">
<title>checkpoint_id&#45;&#45;suite_params_checkpoints</title>
<path fill="none" stroke="#7f7f7f" stroke-dasharray="5,2" d="M147.2856,-933.3443C176.8012,-932.4056 212.2537,-931.2782 245.7887,-930.2117"/>
<text text-anchor="start" x="214.7887" y="-919.0117" font-family="Times,serif" font-size="14.00" fill="#000000">{0,1}</text>
<text text-anchor="start" x="147.2856" y="-922.1443" font-family="Times,serif" font-size="14.00" fill="#000000">0..N</text>
</g>
<!-- task_pool_checkpoints -->
<g id="node16" class="node">
<title>task_pool_checkpoints</title>
<polygon fill="none" stroke="#000000" points="268.5,-820.5 268.5,-848.5 456.5,-848.5 456.5,-820.5 268.5,-820.5"/>
<text text-anchor="start" x="273.5" y="-831.7" font-family="Helvetica,sans-Serif" font-weight="bold" font-size="16.00" fill="#000000">task_pool_checkpoints</text>
<polygon fill="none" stroke="#000000" points="268.5,-795.5 268.5,-820.5 456.5,-820.5 456.5,-795.5 268.5,-795.5"/>
<text text-anchor="start" x="273.5" y="-805.3" font-family="Helvetica,sans-Serif" text-decoration="underline" font-size="14.00" fill="#000000">id</text>
<polygon fill="none" stroke="#000000" points="268.5,-770.5 268.5,-795.5 456.5,-795.5 456.5,-770.5 268.5,-770.5"/>
<text text-anchor="start" x="273.5" y="-780.3" font-family="Helvetica,sans-Serif" text-decoration="underline" font-size="14.00" fill="#000000">cycle</text>
<polygon fill="none" stroke="#000000" points="268.5,-745.5 268.5,-770.5 456.5,-770.5 456.5,-745.5 268.5,-745.5"/>
<text text-anchor="start" x="273.5" y="-755.3" font-family="Helvetica,sans-Serif" text-decoration="underline" font-size="14.00" fill="#000000">name</text>
<polygon fill="none" stroke="#000000" points="268.5,-720.5 268.5,-745.5 456.5,-745.5 456.5,-720.5 268.5,-720.5"/>
<text text-anchor="start" x="273.5" y="-730.3" font-family="Helvetica,sans-Serif" text-decoration="underline" font-size="14.00" fill="#000000">flow_label</text>
<polygon fill="none" stroke="#000000" points="268.5,-695.5 268.5,-720.5 456.5,-720.5 456.5,-695.5 268.5,-695.5"/>
<text text-anchor="start" x="273.5" y="-704.3" font-family="Helvetica,sans-Serif" font-size="14.00" fill="#000000">status</text>
<polygon fill="none" stroke="#000000" points="268.5,-670.5 268.5,-695.5 456.5,-695.5 456.5,-670.5 268.5,-670.5"/>
<text text-anchor="start" x="273.5" y="-679.3" font-family="Helvetica,sans-Serif" font-size="14.00" fill="#000000">satisfied</text>
<polygon fill="none" stroke="#000000" points="268.5,-645.5 268.5,-670.5 456.5,-670.5 456.5,-645.5 268.5,-645.5"/>
<text text-anchor="start" x="273.5" y="-654.3" font-family="Helvetica,sans-Serif" font-size="14.00" fill="#000000">is_held</text>
</g>
<!-- checkpoint_id&#45;&#45;task_pool_checkpoints -->
<g id="edge6" class="edge">
<title>checkpoint_id&#45;&#45;task_pool_checkpoints</title>
<path fill="none" stroke="#7f7f7f" stroke-dasharray="5,2" d="M147.2856,-890.4693C181.1345,-867.9831 222.7915,-840.3099 260.4102,-815.3194"/>
<text text-anchor="start" x="229.4102" y="-804.1194" font-family="Times,serif" font-size="14.00" fill="#000000">{0,1}</text>
<text text-anchor="start" x="147.2856" y="-879.2693" font-family="Times,serif" font-size="14.00" fill="#000000">0..N</text>
</g>
<!-- inheritance -->
<g id="node6" class="node">
<title>inheritance</title>
<polygon fill="none" stroke="#000000" points="608.5,-758.5 608.5,-786.5 704.5,-786.5 704.5,-758.5 608.5,-758.5"/>
<text text-anchor="start" x="613.5" y="-769.7" font-family="Helvetica,sans-Serif" font-weight="bold" font-size="16.00" fill="#000000">inheritance</text>
<polygon fill="none" stroke="#000000" points="608.5,-733.5 608.5,-758.5 704.5,-758.5 704.5,-733.5 608.5,-733.5"/>
<text text-anchor="start" x="613.5" y="-743.3" font-family="Helvetica,sans-Serif" text-decoration="underline" font-size="14.00" fill="#000000">namespace</text>
<polygon fill="none" stroke="#000000" points="608.5,-708.5 608.5,-733.5 704.5,-733.5 704.5,-708.5 608.5,-708.5"/>
<text text-anchor="start" x="613.5" y="-717.3" font-family="Helvetica,sans-Serif" font-size="14.00" fill="#000000">inheritance</text>
</g>
<!-- suite_params -->
<g id="node7" class="node">
<title>suite_params</title>
<polygon fill="none" stroke="#000000" points="22.5,-829.5 22.5,-857.5 136.5,-857.5 136.5,-829.5 22.5,-829.5"/>
<text text-anchor="start" x="27.5" y="-840.7" font-family="Helvetica,sans-Serif" font-weight="bold" font-size="16.00" fill="#000000">suite_params</text>
<polygon fill="none" stroke="#000000" points="22.5,-804.5 22.5,-829.5 136.5,-829.5 136.5,-804.5 22.5,-804.5"/>
<text text-anchor="start" x="27.5" y="-814.3" font-family="Helvetica,sans-Serif" text-decoration="underline" font-size="14.00" fill="#000000">key</text>
<polygon fill="none" stroke="#000000" points="22.5,-779.5 22.5,-804.5 136.5,-804.5 136.5,-779.5 22.5,-779.5"/>
<text text-anchor="start" x="27.5" y="-788.3" font-family="Helvetica,sans-Serif" font-size="14.00" fill="#000000">value</text>
</g>
<!-- suite_params&#45;&#45;suite_params_checkpoints -->
<g id="edge7" class="edge">
<title>suite_params&#45;&#45;suite_params_checkpoints</title>
<path fill="none" stroke="#7f7f7f" stroke-dasharray="5,2" d="M144.7813,-843.413C174.8167,-854.8753 211.3826,-868.8297 245.9061,-882.0048"/>
<text text-anchor="start" x="214.9061" y="-870.8048" font-family="Times,serif" font-size="14.00" fill="#000000">{0,1}</text>
<text text-anchor="start" x="144.7813" y="-832.213" font-family="Times,serif" font-size="14.00" fill="#000000">0..N</text>
</g>
<!-- suite_template_vars -->
<g id="node9" class="node">
<title>suite_template_vars</title>
<polygon fill="none" stroke="#000000" points="574.5,-862.5 574.5,-890.5 739.5,-890.5 739.5,-862.5 574.5,-862.5"/>
<text text-anchor="start" x="579.5" y="-873.7" font-family="Helvetica,sans-Serif" font-weight="bold" font-size="16.00" fill="#000000">suite_template_vars</text>
<polygon fill="none" stroke="#000000" points="574.5,-837.5 574.5,-862.5 739.5,-862.5 739.5,-837.5 574.5,-837.5"/>
<text text-anchor="start" x="579.5" y="-847.3" font-family="Helvetica,sans-Serif" text-decoration="underline" font-size="14.00" fill="#000000">key</text>
<polygon fill="none" stroke="#000000" points="574.5,-812.5 574.5,-837.5 739.5,-837.5 739.5,-812.5 574.5,-812.5"/>
<text text-anchor="start" x="579.5" y="-821.3" font-family="Helvetica,sans-Serif" font-size="14.00" fill="#000000">value</text>
</g>
<!-- task_action_timers -->
<g id="node10" class="node">
<title>task_action_timers</title>
<polygon fill="none" stroke="#000000" points="284.5,-462.5 284.5,-490.5 440.5,-490.5 440.5,-462.5 284.5,-462.5"/>
<text text-anchor="start" x="289.5" y="-473.7" font-family="Helvetica,sans-Serif" font-weight="bold" font-size="16.00" fill="#000000">task_action_timers</text>
<polygon fill="none" stroke="#000000" points="284.5,-437.5 284.5,-462.5 440.5,-462.5 440.5,-437.5 284.5,-437.5"/>
<text text-anchor="start" x="289.5" y="-447.3" font-family="Helvetica,sans-Serif" text-decoration="underline" font-size="14.00" fill="#000000">cycle</text>
<polygon fill="none" stroke="#000000" points="284.5,-412.5 284.5,-437.5 440.5,-437.5 440.5,-412.5 284.5,-412.5"/>
<text text-anchor="start" x="289.5" y="-422.3" font-family="Helvetica,sans-Serif" text-decoration="underline" font-size="14.00" fill="#000000">name</text>
<polygon fill="none" stroke="#000000" points="284.5,-387.5 284.5,-412.5 440.5,-412.5 440.5,-387.5 284.5,-387.5"/>
<text text-anchor="start" x="289.5" y="-397.3" font-family="Helvetica,sans-Serif" text-decoration="underline" font-size="14.00" fill="#000000">ctx_key</text>
<polygon fill="none" stroke="#000000" points="284.5,-362.5 284.5,-387.5 440.5,-387.5 440.5,-362.5 284.5,-362.5"/>
<text text-anchor="start" x="289.5" y="-371.3" font-family="Helvetica,sans-Serif" font-size="14.00" fill="#000000">ctx</text>
<polygon fill="none" stroke="#000000" points="284.5,-337.5 284.5,-362.5 440.5,-362.5 440.5,-337.5 284.5,-337.5"/>
<text text-anchor="start" x="289.5" y="-346.3" font-family="Helvetica,sans-Serif" font-size="14.00" fill="#000000">delays</text>
<polygon fill="none" stroke="#000000" points="284.5,-312.5 284.5,-337.5 440.5,-337.5 440.5,-312.5 284.5,-312.5"/>
<text text-anchor="start" x="289.5" y="-321.3" font-family="Helvetica,sans-Serif" font-size="14.00" fill="#000000">num</text>
<polygon fill="none" stroke="#000000" points="284.5,-287.5 284.5,-312.5 440.5,-312.5 440.5,-287.5 284.5,-287.5"/>
<text text-anchor="start" x="289.5" y="-296.3" font-family="Helvetica,sans-Serif" font-size="14.00" fill="#000000">delay</text>
<polygon fill="none" stroke="#000000" points="284.5,-262.5 284.5,-287.5 440.5,-287.5 440.5,-262.5 284.5,-262.5"/>
<text text-anchor="start" x="289.5" y="-271.3" font-family="Helvetica,sans-Serif" font-size="14.00" fill="#000000">timeout</text>
</g>
<!-- task_events -->
<g id="node11" class="node">
<title>task_events</title>
<polygon fill="none" stroke="#000000" points="311.5,-1762.5 311.5,-1790.5 414.5,-1790.5 414.5,-1762.5 311.5,-1762.5"/>
<text text-anchor="start" x="316.5" y="-1773.7" font-family="Helvetica,sans-Serif" font-weight="bold" font-size="16.00" fill="#000000">task_events</text>
<polygon fill="none" stroke="#000000" points="311.5,-1737.5 311.5,-1762.5 414.5,-1762.5 414.5,-1737.5 311.5,-1737.5"/>
<text text-anchor="start" x="316.5" y="-1746.3" font-family="Helvetica,sans-Serif" font-size="14.00" fill="#000000">name</text>
<polygon fill="none" stroke="#000000" points="311.5,-1712.5 311.5,-1737.5 414.5,-1737.5 414.5,-1712.5 311.5,-1712.5"/>
<text text-anchor="start" x="316.5" y="-1721.3" font-family="Helvetica,sans-Serif" font-size="14.00" fill="#000000">cycle</text>
<polygon fill="none" stroke="#000000" points="311.5,-1687.5 311.5,-1712.5 414.5,-1712.5 414.5,-1687.5 311.5,-1687.5"/>
<text text-anchor="start" x="316.5" y="-1696.3" font-family="Helvetica,sans-Serif" font-size="14.00" fill="#000000">time</text>
<polygon fill="none" stroke="#000000" points="311.5,-1662.5 311.5,-1687.5 414.5,-1687.5 414.5,-1662.5 311.5,-1662.5"/>
<text text-anchor="start" x="316.5" y="-1671.3" font-family="Helvetica,sans-Serif" font-size="14.00" fill="#000000">submit_num</text>
<polygon fill="none" stroke="#000000" points="311.5,-1637.5 311.5,-1662.5 414.5,-1662.5 414.5,-1637.5 311.5,-1637.5"/>
<text text-anchor="start" x="316.5" y="-1646.3" font-family="Helvetica,sans-Serif" font-size="14.00" fill="#000000">event</text>
<polygon fill="none" stroke="#000000" points="311.5,-1612.5 311.5,-1637.5 414.5,-1637.5 414.5,-1612.5 311.5,-1612.5"/>
<text text-anchor="start" x="316.5" y="-1621.3" font-family="Helvetica,sans-Serif" font-size="14.00" fill="#000000">message</text>
</g>
<!-- task_jobs -->
<g id="node12" class="node">
<title>task_jobs</title>
<polygon fill="none" stroke="#000000" points="302.5,-1557.5 302.5,-1585.5 423.5,-1585.5 423.5,-1557.5 302.5,-1557.5"/>
<text text-anchor="start" x="325.5" y="-1568.7" font-family="Helvetica,sans-Serif" font-weight="bold" font-size="16.00" fill="#000000">task_jobs</text>
<polygon fill="none" stroke="#000000" points="302.5,-1532.5 302.5,-1557.5 423.5,-1557.5 423.5,-1532.5 302.5,-1532.5"/>
<text text-anchor="start" x="307.5" y="-1542.3" font-family="Helvetica,sans-Serif" text-decoration="underline" font-size="14.00" fill="#000000">cycle</text>
<polygon fill="none" stroke="#000000" points="302.5,-1507.5 302.5,-1532.5 423.5,-1532.5 423.5,-1507.5 302.5,-1507.5"/>
<text text-anchor="start" x="307.5" y="-1517.3" font-family="Helvetica,sans-Serif" text-decoration="underline" font-size="14.00" fill="#000000">name</text>
<polygon fill="none" stroke="#000000" points="302.5,-1482.5 302.5,-1507.5 423.5,-1507.5 423.5,-1482.5 302.5,-1482.5"/>
<text text-anchor="start" x="307.5" y="-1492.3" font-family="Helvetica,sans-Serif" text-decoration="underline" font-size="14.00" fill="#000000">submit_num</text>
<polygon fill="none" stroke="#000000" points="302.5,-1457.5 302.5,-1482.5 423.5,-1482.5 423.5,-1457.5 302.5,-1457.5"/>
<text text-anchor="start" x="307.5" y="-1466.3" font-family="Helvetica,sans-Serif" font-size="14.00" fill="#000000">is_manual_submit</text>
<polygon fill="none" stroke="#000000" points="302.5,-1432.5 302.5,-1457.5 423.5,-1457.5 423.5,-1432.5 302.5,-1432.5"/>
<text text-anchor="start" x="307.5" y="-1441.3" font-family="Helvetica,sans-Serif" font-size="14.00" fill="#000000">try_num</text>
<polygon fill="none" stroke="#000000" points="302.5,-1407.5 302.5,-1432.5 423.5,-1432.5 423.5,-1407.5 302.5,-1407.5"/>
<text text-anchor="start" x="307.5" y="-1416.3" font-family="Helvetica,sans-Serif" font-size="14.00" fill="#000000">time_submit</text>
<polygon fill="none" stroke="#000000" points="302.5,-1382.5 302.5,-1407.5 423.5,-1407.5 423.5,-1382.5 302.5,-1382.5"/>
<text text-anchor="start" x="307.5" y="-1391.3" font-family="Helvetica,sans-Serif" font-size="14.00" fill="#000000">time_submit_exit</text>
<polygon fill="none" stroke="#000000" points="302.5,-1357.5 302.5,-1382.5 423.5,-1382.5 423.5,-1357.5 302.5,-1357.5"/>
<text text-anchor="start" x="307.5" y="-1366.3" font-family="Helvetica,sans-Serif" font-size="14.00" fill="#000000">submit_status</text>
<polygon fill="none" stroke="#000000" points="302.5,-1332.5 302.5,-1357.5 423.5,-1357.5 423.5,-1332.5 302.5,-1332.5"/>
<text text-anchor="start" x="307.5" y="-1341.3" font-family="Helvetica,sans-Serif" font-size="14.00" fill="#000000">time_run</text>
<polygon fill="none" stroke="#000000" points="302.5,-1307.5 302.5,-1332.5 423.5,-1332.5 423.5,-1307.5 302.5,-1307.5"/>
<text text-anchor="start" x="307.5" y="-1316.3" font-family="Helvetica,sans-Serif" font-size="14.00" fill="#000000">time_run_exit</text>
<polygon fill="none" stroke="#000000" points="302.5,-1282.5 302.5,-1307.5 423.5,-1307.5 423.5,-1282.5 302.5,-1282.5"/>
<text text-anchor="start" x="307.5" y="-1291.3" font-family="Helvetica,sans-Serif" font-size="14.00" fill="#000000">run_signal</text>
<polygon fill="none" stroke="#000000" points="302.5,-1257.5 302.5,-1282.5 423.5,-1282.5 423.5,-1257.5 302.5,-1257.5"/>
<text text-anchor="start" x="307.5" y="-1266.3" font-family="Helvetica,sans-Serif" font-size="14.00" fill="#000000">run_status</text>
<polygon fill="none" stroke="#000000" points="302.5,-1232.5 302.5,-1257.5 423.5,-1257.5 423.5,-1232.5 302.5,-1232.5"/>
<text text-anchor="start" x="307.5" y="-1241.3" font-family="Helvetica,sans-Serif" font-size="14.00" fill="#000000">user_at_host</text>
<polygon fill="none" stroke="#000000" points="302.5,-1207.5 302.5,-1232.5 423.5,-1232.5 423.5,-1207.5 302.5,-1207.5"/>
<text text-anchor="start" x="307.5" y="-1216.3" font-family="Helvetica,sans-Serif" font-size="14.00" fill="#000000">batch_sys_name</text>
<polygon fill="none" stroke="#000000" points="302.5,-1182.5 302.5,-1207.5 423.5,-1207.5 423.5,-1182.5 302.5,-1182.5"/>
<text text-anchor="start" x="307.5" y="-1191.3" font-family="Helvetica,sans-Serif" font-size="14.00" fill="#000000">batch_sys_job_id</text>
</g>
<!-- task_late_flags -->
<g id="node13" class="node">
<title>task_late_flags</title>
<polygon fill="none" stroke="#000000" points="299.5,-207.5 299.5,-235.5 425.5,-235.5 425.5,-207.5 299.5,-207.5"/>
<text text-anchor="start" x="304.5" y="-218.7" font-family="Helvetica,sans-Serif" font-weight="bold" font-size="16.00" fill="#000000">task_late_flags</text>
<polygon fill="none" stroke="#000000" points="299.5,-182.5 299.5,-207.5 425.5,-207.5 425.5,-182.5 299.5,-182.5"/>
<text text-anchor="start" x="304.5" y="-192.3" font-family="Helvetica,sans-Serif" text-decoration="underline" font-size="14.00" fill="#000000">cycle</text>
<polygon fill="none" stroke="#000000" points="299.5,-157.5 299.5,-182.5 425.5,-182.5 425.5,-157.5 299.5,-157.5"/>
<text text-anchor="start" x="304.5" y="-167.3" font-family="Helvetica,sans-Serif" text-decoration="underline" font-size="14.00" fill="#000000">name</text>
<polygon fill="none" stroke="#000000" points="299.5,-132.5 299.5,-157.5 425.5,-157.5 425.5,-132.5 299.5,-132.5"/>
<text text-anchor="start" x="304.5" y="-141.3" font-family="Helvetica,sans-Serif" font-size="14.00" fill="#000000">value</text>
</g>
<!-- task_outputs -->
<g id="node14" class="node">
<title>task_outputs</title>
<polygon fill="none" stroke="#000000" points="307.5,-78.5 307.5,-106.5 417.5,-106.5 417.5,-78.5 307.5,-78.5"/>
<text text-anchor="start" x="312.5" y="-89.7" font-family="Helvetica,sans-Serif" font-weight="bold" font-size="16.00" fill="#000000">task_outputs</text>
<polygon fill="none" stroke="#000000" points="307.5,-53.5 307.5,-78.5 417.5,-78.5 417.5,-53.5 307.5,-53.5"/>
<text text-anchor="start" x="312.5" y="-63.3" font-family="Helvetica,sans-Serif" text-decoration="underline" font-size="14.00" fill="#000000">cycle</text>
<polygon fill="none" stroke="#000000" points="307.5,-28.5 307.5,-53.5 417.5,-53.5 417.5,-28.5 307.5,-28.5"/>
<text text-anchor="start" x="312.5" y="-38.3" font-family="Helvetica,sans-Serif" text-decoration="underline" font-size="14.00" fill="#000000">name</text>
<polygon fill="none" stroke="#000000" points="307.5,-3.5 307.5,-28.5 417.5,-28.5 417.5,-3.5 307.5,-3.5"/>
<text text-anchor="start" x="312.5" y="-12.3" font-family="Helvetica,sans-Serif" font-size="14.00" fill="#000000">outputs</text>
</g>
<!-- task_pool -->
<g id="node15" class="node">
<title>task_pool</title>
<polygon fill="none" stroke="#000000" points="36.5,-437.5 36.5,-465.5 122.5,-465.5 122.5,-437.5 36.5,-437.5"/>
<text text-anchor="start" x="41.5" y="-448.7" font-family="Helvetica,sans-Serif" font-weight="bold" font-size="16.00" fill="#000000">task_pool</text>
<polygon fill="none" stroke="#000000" points="36.5,-412.5 36.5,-437.5 122.5,-437.5 122.5,-412.5 36.5,-412.5"/>
<text text-anchor="start" x="41.5" y="-422.3" font-family="Helvetica,sans-Serif" text-decoration="underline" font-size="14.00" fill="#000000">cycle</text>
<polygon fill="none" stroke="#000000" points="36.5,-387.5 36.5,-412.5 122.5,-412.5 122.5,-387.5 36.5,-387.5"/>
<text text-anchor="start" x="41.5" y="-397.3" font-family="Helvetica,sans-Serif" text-decoration="underline" font-size="14.00" fill="#000000">name</text>
<polygon fill="none" stroke="#000000" points="36.5,-362.5 36.5,-387.5 122.5,-387.5 122.5,-362.5 36.5,-362.5"/>
<text text-anchor="start" x="41.5" y="-372.3" font-family="Helvetica,sans-Serif" text-decoration="underline" font-size="14.00" fill="#000000">flow_label</text>
<polygon fill="none" stroke="#000000" points="36.5,-337.5 36.5,-362.5 122.5,-362.5 122.5,-337.5 36.5,-337.5"/>
<text text-anchor="start" x="41.5" y="-346.3" font-family="Helvetica,sans-Serif" font-size="14.00" fill="#000000">status</text>
<polygon fill="none" stroke="#000000" points="36.5,-312.5 36.5,-337.5 122.5,-337.5 122.5,-312.5 36.5,-312.5"/>
<text text-anchor="start" x="41.5" y="-321.3" font-family="Helvetica,sans-Serif" font-size="14.00" fill="#000000">satisfied</text>
<polygon fill="none" stroke="#000000" points="36.5,-287.5 36.5,-312.5 122.5,-312.5 122.5,-287.5 36.5,-287.5"/>
<text text-anchor="start" x="41.5" y="-296.3" font-family="Helvetica,sans-Serif" font-size="14.00" fill="#000000">is_held</text>
</g>
<!-- task_pool&#45;&#45;task_action_timers -->
<g id="edge9" class="edge">
<title>task_pool&#45;&#45;task_action_timers</title>
<path fill="none" stroke="#7f7f7f" stroke-dasharray="5,2" d="M130.7492,-376.5C171.2867,-376.5 228.7849,-376.5 276.3666,-376.5"/>
<text text-anchor="start" x="245.3666" y="-365.3" font-family="Times,serif" font-size="14.00" fill="#000000">{0,1}</text>
<text text-anchor="start" x="130.7492" y="-365.3" font-family="Times,serif" font-size="14.00" fill="#000000">0..N</text>
</g>
<!-- task_pool&#45;&#45;task_late_flags -->
<g id="edge10" class="edge">
<title>task_pool&#45;&#45;task_late_flags</title>
<path fill="none" stroke="#7f7f7f" stroke-dasharray="5,2" d="M130.787,-328.6497C159.3254,-303.3778 196.2229,-272.8514 232,-249.5 250.5463,-237.395 271.6602,-225.9712 291.4197,-216.1772"/>
<text text-anchor="start" x="260.4197" y="-204.9772" font-family="Times,serif" font-size="14.00" fill="#000000">{0,1}</text>
<text text-anchor="start" x="130.787" y="-317.4497" font-family="Times,serif" font-size="14.00" fill="#000000">{0,1}</text>
</g>
<!-- task_pool&#45;&#45;task_outputs -->
<g id="edge11" class="edge">
<title>task_pool&#45;&#45;task_outputs</title>
<path fill="none" stroke="#7f7f7f" stroke-dasharray="5,2" d="M118.4021,-283.3387C144.3423,-230.0596 182.7345,-164.9928 232,-119.5 251.1878,-101.7816 276.1915,-87.929 299.172,-77.7125"/>
<text text-anchor="start" x="268.172" y="-66.5125" font-family="Times,serif" font-size="14.00" fill="#000000">{0,1}</text>
<text text-anchor="start" x="93.4021" y="-272.1387" font-family="Times,serif" font-size="14.00" fill="#000000">0..N</text>
</g>
<!-- task_pool&#45;&#45;task_pool_checkpoints -->
<g id="edge8" class="edge">
<title>task_pool&#45;&#45;task_pool_checkpoints</title>
<path fill="none" stroke="#7f7f7f" stroke-dasharray="5,2" d="M125.8186,-469.6091C153.2195,-520.2942 190.6131,-582.6448 232,-632.5 240.6798,-642.9558 250.3405,-653.2891 260.3689,-663.22"/>
<text text-anchor="start" x="229.3689" y="-652.02" font-family="Times,serif" font-size="14.00" fill="#000000">{0,1}</text>
<text text-anchor="start" x="100.8186" y="-473.4091" font-family="Times,serif" font-size="14.00" fill="#000000">0..N</text>
</g>
<!-- task_timeout_timers -->
<g id="node18" class="node">
<title>task_timeout_timers</title>
<polygon fill="none" stroke="#000000" points="279.5,-591.5 279.5,-619.5 446.5,-619.5 446.5,-591.5 279.5,-591.5"/>
<text text-anchor="start" x="284.5" y="-602.7" font-family="Helvetica,sans-Serif" font-weight="bold" font-size="16.00" fill="#000000">task_timeout_timers</text>
<polygon fill="none" stroke="#000000" points="279.5,-566.5 279.5,-591.5 446.5,-591.5 446.5,-566.5 279.5,-566.5"/>
<text text-anchor="start" x="284.5" y="-576.3" font-family="Helvetica,sans-Serif" text-decoration="underline" font-size="14.00" fill="#000000">cycle</text>
<polygon fill="none" stroke="#000000" points="279.5,-541.5 279.5,-566.5 446.5,-566.5 446.5,-541.5 279.5,-541.5"/>
<text text-anchor="start" x="284.5" y="-551.3" font-family="Helvetica,sans-Serif" text-decoration="underline" font-size="14.00" fill="#000000">name</text>
<polygon fill="none" stroke="#000000" points="279.5,-516.5 279.5,-541.5 446.5,-541.5 446.5,-516.5 279.5,-516.5"/>
<text text-anchor="start" x="284.5" y="-525.3" font-family="Helvetica,sans-Serif" font-size="14.00" fill="#000000">timeout</text>
</g>
<!-- task_pool&#45;&#45;task_timeout_timers -->
<g id="edge12" class="edge">
<title>task_pool&#45;&#45;task_timeout_timers</title>
<path fill="none" stroke="#7f7f7f" stroke-dasharray="5,2" d="M130.787,-424.3503C159.3254,-449.6222 196.2229,-480.1486 232,-503.5 244.1876,-511.4547 257.4839,-519.1153 270.7761,-526.2124"/>
<text text-anchor="start" x="239.7761" y="-515.0124" font-family="Times,serif" font-size="14.00" fill="#000000">{0,1}</text>
<text text-anchor="start" x="130.787" y="-413.1503" font-family="Times,serif" font-size="14.00" fill="#000000">{0,1}</text>
</g>
<!-- task_pool_checkpoints&#45;&#45;inheritance -->
<!-- task_states -->
<g id="node17" class="node">
<title>task_states</title>
<polygon fill="none" stroke="#000000" points="30.5,-1616.5 30.5,-1644.5 128.5,-1644.5 128.5,-1616.5 30.5,-1616.5"/>
<text text-anchor="start" x="35.5" y="-1627.7" font-family="Helvetica,sans-Serif" font-weight="bold" font-size="16.00" fill="#000000">task_states</text>
<polygon fill="none" stroke="#000000" points="30.5,-1591.5 30.5,-1616.5 128.5,-1616.5 128.5,-1591.5 30.5,-1591.5"/>
<text text-anchor="start" x="35.5" y="-1601.3" font-family="Helvetica,sans-Serif" text-decoration="underline" font-size="14.00" fill="#000000">name</text>
<polygon fill="none" stroke="#000000" points="30.5,-1566.5 30.5,-1591.5 128.5,-1591.5 128.5,-1566.5 30.5,-1566.5"/>
<text text-anchor="start" x="35.5" y="-1576.3" font-family="Helvetica,sans-Serif" text-decoration="underline" font-size="14.00" fill="#000000">cycle</text>
<polygon fill="none" stroke="#000000" points="30.5,-1541.5 30.5,-1566.5 128.5,-1566.5 128.5,-1541.5 30.5,-1541.5"/>
<text text-anchor="start" x="35.5" y="-1551.3" font-family="Helvetica,sans-Serif" text-decoration="underline" font-size="14.00" fill="#000000">flow_label</text>
<polygon fill="none" stroke="#000000" points="30.5,-1516.5 30.5,-1541.5 128.5,-1541.5 128.5,-1516.5 30.5,-1516.5"/>
<text text-anchor="start" x="35.5" y="-1525.3" font-family="Helvetica,sans-Serif" font-size="14.00" fill="#000000">time_created</text>
<polygon fill="none" stroke="#000000" points="30.5,-1491.5 30.5,-1516.5 128.5,-1516.5 128.5,-1491.5 30.5,-1491.5"/>
<text text-anchor="start" x="35.5" y="-1500.3" font-family="Helvetica,sans-Serif" font-size="14.00" fill="#000000">time_updated</text>
<polygon fill="none" stroke="#000000" points="30.5,-1466.5 30.5,-1491.5 128.5,-1491.5 128.5,-1466.5 30.5,-1466.5"/>
<text text-anchor="start" x="35.5" y="-1475.3" font-family="Helvetica,sans-Serif" font-size="14.00" fill="#000000">submit_num</text>
<polygon fill="none" stroke="#000000" points="30.5,-1441.5 30.5,-1466.5 128.5,-1466.5 128.5,-1441.5 30.5,-1441.5"/>
<text text-anchor="start" x="35.5" y="-1450.3" font-family="Helvetica,sans-Serif" font-size="14.00" fill="#000000">status</text>
</g>
<!-- task_states&#45;&#45;task_events -->
<g id="edge1" class="edge">
<title>task_states&#45;&#45;task_events</title>
<path fill="none" stroke="#7f7f7f" stroke-dasharray="5,2" d="M136.7693,-1575.4737C185.0609,-1602.4351 253.9322,-1640.8861 302.8774,-1668.2124"/>
<text text-anchor="start" x="271.8774" y="-1657.0124" font-family="Times,serif" font-size="14.00" fill="#000000">{0,1}</text>
<text text-anchor="start" x="136.7693" y="-1564.2737" font-family="Times,serif" font-size="14.00" fill="#000000">0..N</text>
</g>
<!-- task_states&#45;&#45;task_jobs -->
<g id="edge2" class="edge">
<title>task_states&#45;&#45;task_jobs</title>
<path fill="none" stroke="#7f7f7f" stroke-dasharray="5,2" d="M136.7693,-1511.324C182.1538,-1485.8253 245.7146,-1450.1144 293.83,-1423.0814"/>
<text text-anchor="start" x="262.83" y="-1411.8814" font-family="Times,serif" font-size="14.00" fill="#000000">{0,1}</text>
<text text-anchor="start" x="136.7693" y="-1500.124" font-family="Times,serif" font-size="14.00" fill="#000000">0..N</text>
</g>
<!-- xtriggers -->
<g id="node19" class="node">
<title>xtriggers</title>
<polygon fill="none" stroke="#000000" points="590.5,-1091.5 590.5,-1119.5 722.5,-1119.5 722.5,-1091.5 590.5,-1091.5"/>
<text text-anchor="start" x="622" y="-1102.7" font-family="Helvetica,sans-Serif" font-weight="bold" font-size="16.00" fill="#000000">xtriggers</text>
<polygon fill="none" stroke="#000000" points="590.5,-1066.5 590.5,-1091.5 722.5,-1091.5 722.5,-1066.5 590.5,-1066.5"/>
<text text-anchor="start" x="595.5" y="-1076.3" font-family="Helvetica,sans-Serif" text-decoration="underline" font-size="14.00" fill="#000000">signature</text>
<polygon fill="none" stroke="#000000" points="590.5,-1041.5 590.5,-1066.5 722.5,-1066.5 722.5,-1041.5 590.5,-1041.5"/>
<text text-anchor="start" x="595.5" y="-1050.3" font-family="Helvetica,sans-Serif" font-size="14.00" fill="#000000">results</text>
<polygon fill="none" stroke="#000000" points="590.5,-1016.5 590.5,-1041.5 722.5,-1041.5 722.5,-1016.5 590.5,-1016.5"/>
<text text-anchor="start" x="595.5" y="-1025.3" font-family="Helvetica,sans-Serif" font-size="14.00" fill="#000000">absolute_outputs</text>
<polygon fill="none" stroke="#000000" points="590.5,-991.5 590.5,-1016.5 722.5,-1016.5 722.5,-991.5 590.5,-991.5"/>
<text text-anchor="start" x="595.5" y="-1000.3" font-family="Helvetica,sans-Serif" font-size="14.00" fill="#000000">broadcast_events</text>
<polygon fill="none" stroke="#000000" points="590.5,-966.5 590.5,-991.5 722.5,-991.5 722.5,-966.5 590.5,-966.5"/>
<text text-anchor="start" x="595.5" y="-975.3" font-family="Helvetica,sans-Serif" font-size="14.00" fill="#000000">inheritance</text>
<polygon fill="none" stroke="#000000" points="590.5,-941.5 590.5,-966.5 722.5,-966.5 722.5,-941.5 590.5,-941.5"/>
<text text-anchor="start" x="595.5" y="-950.3" font-family="Helvetica,sans-Serif" font-size="14.00" fill="#000000">suite_template_vars</text>
<polygon fill="none" stroke="#000000" points="590.5,-916.5 590.5,-941.5 722.5,-941.5 722.5,-916.5 590.5,-916.5"/>
<text text-anchor="start" x="595.5" y="-925.3" font-family="Helvetica,sans-Serif" font-size="14.00" fill="#000000">xtriggers</text>
</g>
</g>
</svg>
