<?xml version="1.0" encoding="UTF-8" standalone="no"?>
<!DOCTYPE svg PUBLIC "-//W3C//DTD SVG 1.1//EN"
 "http://www.w3.org/Graphics/SVG/1.1/DTD/svg11.dtd">
<!-- Generated by graphviz version 2.40.1 (20161225.0304)
 -->
<!-- Title: Example Pages: 1 -->
<svg width="262pt" height="179pt"
 viewBox="0.00 0.00 262.00 179.00" xmlns="http://www.w3.org/2000/svg" xmlns:xlink="http://www.w3.org/1999/xlink">
<g id="graph0" class="graph" transform="scale(1 1) rotate(0) translate(4 175)">
<title>Example</title>
<polygon fill="transparent" stroke="transparent" points="-4,4 -4,-175 258,-175 258,4 -4,4"/>
<g id="clust1" class="cluster">
<title>cluster_1</title>
<polygon fill="transparent" stroke="#000000" points="8,-8 8,-163 96,-163 96,-8 8,-8"/>
<text text-anchor="middle" x="52" y="-147.8" font-family="sans" font-size="14.00" fill="#000000">Grouped</text>
</g>
<g id="clust2" class="cluster">
<title>cluster_2</title>
<polygon fill="transparent" stroke="#000000" points="104,-12 104,-163 246,-163 246,-12 104,-12"/>
<text text-anchor="middle" x="175" y="-147.8" font-family="sans" font-size="14.00" fill="#000000">Un&#45;Grouped</text>
</g>
<!-- foo.1 -->
<g id="node1" class="node">
<title>foo.1</title>
<ellipse fill="none" stroke="#000000" cx="52" cy="-114" rx="27" ry="18"/>
<text text-anchor="middle" x="52" y="-110.3" font-family="sans" font-size="14.00" fill="#000000">foo</text>
</g>
<!-- BAR.1 -->
<g id="node2" class="node">
<title>BAR.1</title>
<polygon fill="none" stroke="#000000" points="84.2371,-30.5442 84.2371,-45.4558 65.353,-56 38.647,-56 19.7629,-45.4558 19.7629,-30.5442 38.647,-20 65.353,-20 84.2371,-30.5442"/>
<polygon fill="none" stroke="#000000" points="88.2218,-28.1919 88.2218,-47.8081 66.3867,-60 37.6133,-60 15.7782,-47.8081 15.7782,-28.1919 37.6133,-16 66.3867,-16 88.2218,-28.1919"/>
<text text-anchor="middle" x="52" y="-34.3" font-family="sans" font-size="14.00" fill="#000000">BAR</text>
</g>
<!-- foo.1&#45;&gt;BAR.1 -->
<g id="edge1" class="edge">
<title>foo.1&#45;&gt;BAR.1</title>
<path fill="none" stroke="#000000" d="M52,-95.9891C52,-88.291 52,-79.0629 52,-70.2561"/>
<polygon fill="#000000" stroke="#000000" points="55.5001,-70.2282 52,-60.2282 48.5001,-70.2282 55.5001,-70.2282"/>
</g>
<!-- foo.2 -->
<g id="node3" class="node">
<title>foo.2</title>
<ellipse fill="none" stroke="#000000" cx="175" cy="-114" rx="27" ry="18"/>
<text text-anchor="middle" x="175" y="-110.3" font-family="sans" font-size="14.00" fill="#000000">foo</text>
</g>
<!-- bar.2 -->
<g id="node4" class="node">
<title>bar.2</title>
<ellipse fill="none" stroke="#000000" cx="139" cy="-38" rx="27" ry="18"/>
<text text-anchor="middle" x="139" y="-34.3" font-family="sans" font-size="14.00" fill="#000000">bar</text>
</g>
<!-- foo.2&#45;&gt;bar.2 -->
<g id="edge2" class="edge">
<title>foo.2&#45;&gt;bar.2</title>
<path fill="none" stroke="#000000" d="M166.831,-96.7544C162.3203,-87.2317 156.6213,-75.2006 151.5569,-64.5091"/>
<polygon fill="#000000" stroke="#000000" points="154.5806,-62.7164 147.1366,-55.1773 148.2545,-65.713 154.5806,-62.7164"/>
</g>
<!-- baz.2 -->
<g id="node5" class="node">
<title>baz.2</title>
<ellipse fill="none" stroke="#000000" cx="211" cy="-38" rx="27.0966" ry="18"/>
<text text-anchor="middle" x="211" y="-34.3" font-family="sans" font-size="14.00" fill="#000000">baz</text>
</g>
<!-- foo.2&#45;&gt;baz.2 -->
<g id="edge3" class="edge">
<title>foo.2&#45;&gt;baz.2</title>
<path fill="none" stroke="#000000" d="M183.169,-96.7544C187.648,-87.2987 193.2985,-75.3699 198.336,-64.7351"/>
<polygon fill="#000000" stroke="#000000" points="201.6209,-65.9761 202.7388,-55.4404 195.2948,-62.9795 201.6209,-65.9761"/>
</g>
</g>
</svg>
