<?xml version="1.0" encoding="UTF-8" standalone="no"?>
<!DOCTYPE svg PUBLIC "-//W3C//DTD SVG 1.1//EN"
 "http://www.w3.org/Graphics/SVG/1.1/DTD/svg11.dtd">
<!-- Generated by graphviz version 12.2.1 (20250203.1708)
 -->
<!-- Pages: 1 -->
<svg width="534pt" height="2607pt"
 viewBox="0.00 0.00 533.50 2607.25" xmlns="http://www.w3.org/2000/svg" xmlns:xlink="http://www.w3.org/1999/xlink">
<g id="graph0" class="graph" transform="scale(1 1) rotate(0) translate(4 2603.25)">
<polygon fill="none" stroke="none" points="-4,4 -4,-2603.25 529.5,-2603.25 529.5,4 -4,4"/>
<!-- absolute_outputs -->
<g id="node1" class="node">
<title>absolute_outputs</title>
<polygon fill="none" stroke="black" points="39.5,-85.75 39.5,-115.25 204.75,-115.25 204.75,-85.75 39.5,-85.75"/>
<text text-anchor="start" x="44.5" y="-96.05" font-family="Helvetica,sans-Serif" font-weight="bold" font-size="16.00">absolute_outputs</text>
<polygon fill="none" stroke="black" points="39.5,-58.5 39.5,-85.75 204.75,-85.75 204.75,-58.5 39.5,-58.5"/>
<text text-anchor="start" x="44.5" y="-67.45" font-family="Helvetica,sans-Serif" font-size="14.00">cycle</text>
<polygon fill="none" stroke="black" points="39.5,-31.25 39.5,-58.5 204.75,-58.5 204.75,-31.25 39.5,-31.25"/>
<text text-anchor="start" x="44.5" y="-40.2" font-family="Helvetica,sans-Serif" font-size="14.00">name</text>
<polygon fill="none" stroke="black" points="39.5,-4 39.5,-31.25 204.75,-31.25 204.75,-4 39.5,-4"/>
<text text-anchor="start" x="44.5" y="-12.95" font-family="Helvetica,sans-Serif" font-size="14.00">output</text>
</g>
<!-- broadcast_events -->
<g id="node2" class="node">
<title>broadcast_events</title>
<polygon fill="none" stroke="black" points="38,-304.62 38,-334.12 206.25,-334.12 206.25,-304.62 38,-304.62"/>
<text text-anchor="start" x="43" y="-314.93" font-family="Helvetica,sans-Serif" font-weight="bold" font-size="16.00">broadcast_events</text>
<polygon fill="none" stroke="black" points="38,-277.38 38,-304.62 206.25,-304.62 206.25,-277.38 38,-277.38"/>
<text text-anchor="start" x="43" y="-286.32" font-family="Helvetica,sans-Serif" font-size="14.00">time</text>
<polygon fill="none" stroke="black" points="38,-250.12 38,-277.38 206.25,-277.38 206.25,-250.12 38,-250.12"/>
<text text-anchor="start" x="43" y="-259.07" font-family="Helvetica,sans-Serif" font-size="14.00">change</text>
<polygon fill="none" stroke="black" points="38,-222.88 38,-250.12 206.25,-250.12 206.25,-222.88 38,-222.88"/>
<text text-anchor="start" x="43" y="-231.82" font-family="Helvetica,sans-Serif" font-size="14.00">point</text>
<polygon fill="none" stroke="black" points="38,-195.62 38,-222.88 206.25,-222.88 206.25,-195.62 38,-195.62"/>
<text text-anchor="start" x="43" y="-204.57" font-family="Helvetica,sans-Serif" font-size="14.00">namespace</text>
<polygon fill="none" stroke="black" points="38,-168.38 38,-195.62 206.25,-195.62 206.25,-168.38 38,-168.38"/>
<text text-anchor="start" x="43" y="-177.32" font-family="Helvetica,sans-Serif" font-size="14.00">key</text>
<polygon fill="none" stroke="black" points="38,-141.12 38,-168.38 206.25,-168.38 206.25,-141.12 38,-141.12"/>
<text text-anchor="start" x="43" y="-150.07" font-family="Helvetica,sans-Serif" font-size="14.00">value</text>
</g>
<!-- broadcast_states -->
<g id="node3" class="node">
<title>broadcast_states</title>
<polygon fill="none" stroke="black" points="40.25,-469.38 40.25,-498.88 204,-498.88 204,-469.38 40.25,-469.38"/>
<text text-anchor="start" x="45.25" y="-479.68" font-family="Helvetica,sans-Serif" font-weight="bold" font-size="16.00">broadcast_states</text>
<polygon fill="none" stroke="black" points="40.25,-442.12 40.25,-469.38 204,-469.38 204,-442.12 40.25,-442.12"/>
<text text-anchor="start" x="45.25" y="-452.07" font-family="Helvetica,sans-Serif" text-decoration="underline" font-size="14.00">point</text>
<polygon fill="none" stroke="black" points="40.25,-414.88 40.25,-442.12 204,-442.12 204,-414.88 40.25,-414.88"/>
<text text-anchor="start" x="45.25" y="-424.82" font-family="Helvetica,sans-Serif" text-decoration="underline" font-size="14.00">namespace</text>
<polygon fill="none" stroke="black" points="40.25,-387.62 40.25,-414.88 204,-414.88 204,-387.62 40.25,-387.62"/>
<text text-anchor="start" x="45.25" y="-397.57" font-family="Helvetica,sans-Serif" text-decoration="underline" font-size="14.00">key</text>
<polygon fill="none" stroke="black" points="40.25,-360.38 40.25,-387.62 204,-387.62 204,-360.38 40.25,-360.38"/>
<text text-anchor="start" x="45.25" y="-369.32" font-family="Helvetica,sans-Serif" font-size="14.00">value</text>
</g>
<!-- inheritance -->
<g id="node4" class="node">
<title>inheritance</title>
<polygon fill="none" stroke="black" points="66.5,-579.12 66.5,-608.62 177.75,-608.62 177.75,-579.12 66.5,-579.12"/>
<text text-anchor="start" x="71.5" y="-589.42" font-family="Helvetica,sans-Serif" font-weight="bold" font-size="16.00">inheritance</text>
<polygon fill="none" stroke="black" points="66.5,-551.88 66.5,-579.12 177.75,-579.12 177.75,-551.88 66.5,-551.88"/>
<text text-anchor="start" x="71.5" y="-561.83" font-family="Helvetica,sans-Serif" text-decoration="underline" font-size="14.00">namespace</text>
<polygon fill="none" stroke="black" points="66.5,-524.62 66.5,-551.88 177.75,-551.88 177.75,-524.62 66.5,-524.62"/>
<text text-anchor="start" x="71.5" y="-533.58" font-family="Helvetica,sans-Serif" font-size="14.00">inheritance</text>
</g>
<!-- task_action_timers -->
<g id="node5" class="node">
<title>task_action_timers</title>
<polygon fill="none" stroke="black" points="332.38,-1167.88 332.38,-1197.38 510.38,-1197.38 510.38,-1167.88 332.38,-1167.88"/>
<text text-anchor="start" x="337.38" y="-1178.17" font-family="Helvetica,sans-Serif" font-weight="bold" font-size="16.00">task_action_timers</text>
<polygon fill="none" stroke="black" points="332.38,-1140.62 332.38,-1167.88 510.38,-1167.88 510.38,-1140.62 332.38,-1140.62"/>
<text text-anchor="start" x="337.38" y="-1150.58" font-family="Helvetica,sans-Serif" text-decoration="underline" font-size="14.00">cycle</text>
<polygon fill="none" stroke="black" points="332.38,-1113.38 332.38,-1140.62 510.38,-1140.62 510.38,-1113.38 332.38,-1113.38"/>
<text text-anchor="start" x="337.38" y="-1123.33" font-family="Helvetica,sans-Serif" text-decoration="underline" font-size="14.00">name</text>
<polygon fill="none" stroke="black" points="332.38,-1086.12 332.38,-1113.38 510.38,-1113.38 510.38,-1086.12 332.38,-1086.12"/>
<text text-anchor="start" x="337.38" y="-1096.08" font-family="Helvetica,sans-Serif" text-decoration="underline" font-size="14.00">ctx_key</text>
<polygon fill="none" stroke="black" points="332.38,-1058.88 332.38,-1086.12 510.38,-1086.12 510.38,-1058.88 332.38,-1058.88"/>
<text text-anchor="start" x="337.38" y="-1067.83" font-family="Helvetica,sans-Serif" font-size="14.00">ctx</text>
<polygon fill="none" stroke="black" points="332.38,-1031.62 332.38,-1058.88 510.38,-1058.88 510.38,-1031.62 332.38,-1031.62"/>
<text text-anchor="start" x="337.38" y="-1040.58" font-family="Helvetica,sans-Serif" font-size="14.00">delays</text>
<polygon fill="none" stroke="black" points="332.38,-1004.38 332.38,-1031.62 510.38,-1031.62 510.38,-1004.38 332.38,-1004.38"/>
<text text-anchor="start" x="337.38" y="-1013.33" font-family="Helvetica,sans-Serif" font-size="14.00">num</text>
<polygon fill="none" stroke="black" points="332.38,-977.12 332.38,-1004.38 510.38,-1004.38 510.38,-977.12 332.38,-977.12"/>
<text text-anchor="start" x="337.38" y="-986.08" font-family="Helvetica,sans-Serif" font-size="14.00">delay</text>
<polygon fill="none" stroke="black" points="332.38,-949.88 332.38,-977.12 510.38,-977.12 510.38,-949.88 332.38,-949.88"/>
<text text-anchor="start" x="337.38" y="-958.83" font-family="Helvetica,sans-Serif" font-size="14.00">timeout</text>
</g>
<!-- task_events -->
<g id="node6" class="node">
<title>task_events</title>
<polygon fill="none" stroke="black" points="363.12,-1878.62 363.12,-1908.12 479.62,-1908.12 479.62,-1878.62 363.12,-1878.62"/>
<text text-anchor="start" x="368.12" y="-1888.92" font-family="Helvetica,sans-Serif" font-weight="bold" font-size="16.00">task_events</text>
<polygon fill="none" stroke="black" points="363.12,-1851.38 363.12,-1878.62 479.62,-1878.62 479.62,-1851.38 363.12,-1851.38"/>
<text text-anchor="start" x="368.12" y="-1860.33" font-family="Helvetica,sans-Serif" font-size="14.00">name</text>
<polygon fill="none" stroke="black" points="363.12,-1824.12 363.12,-1851.38 479.62,-1851.38 479.62,-1824.12 363.12,-1824.12"/>
<text text-anchor="start" x="368.12" y="-1833.08" font-family="Helvetica,sans-Serif" font-size="14.00">cycle</text>
<polygon fill="none" stroke="black" points="363.12,-1796.88 363.12,-1824.12 479.62,-1824.12 479.62,-1796.88 363.12,-1796.88"/>
<text text-anchor="start" x="368.12" y="-1805.83" font-family="Helvetica,sans-Serif" font-size="14.00">time</text>
<polygon fill="none" stroke="black" points="363.12,-1769.62 363.12,-1796.88 479.62,-1796.88 479.62,-1769.62 363.12,-1769.62"/>
<text text-anchor="start" x="368.12" y="-1778.58" font-family="Helvetica,sans-Serif" font-size="14.00">submit_num</text>
<polygon fill="none" stroke="black" points="363.12,-1742.38 363.12,-1769.62 479.62,-1769.62 479.62,-1742.38 363.12,-1742.38"/>
<text text-anchor="start" x="368.12" y="-1751.33" font-family="Helvetica,sans-Serif" font-size="14.00">event</text>
<polygon fill="none" stroke="black" points="363.12,-1715.12 363.12,-1742.38 479.62,-1742.38 479.62,-1715.12 363.12,-1715.12"/>
<text text-anchor="start" x="368.12" y="-1724.08" font-family="Helvetica,sans-Serif" font-size="14.00">message</text>
</g>
<!-- task_jobs -->
<g id="node7" class="node">
<title>task_jobs</title>
<polygon fill="none" stroke="black" points="354.12,-1659.88 354.12,-1689.38 488.62,-1689.38 488.62,-1659.88 354.12,-1659.88"/>
<text text-anchor="start" x="379.38" y="-1670.17" font-family="Helvetica,sans-Serif" font-weight="bold" font-size="16.00">task_jobs</text>
<polygon fill="none" stroke="black" points="354.12,-1632.62 354.12,-1659.88 488.62,-1659.88 488.62,-1632.62 354.12,-1632.62"/>
<text text-anchor="start" x="359.12" y="-1642.58" font-family="Helvetica,sans-Serif" text-decoration="underline" font-size="14.00">cycle</text>
<polygon fill="none" stroke="black" points="354.12,-1605.38 354.12,-1632.62 488.62,-1632.62 488.62,-1605.38 354.12,-1605.38"/>
<text text-anchor="start" x="359.12" y="-1615.33" font-family="Helvetica,sans-Serif" text-decoration="underline" font-size="14.00">name</text>
<polygon fill="none" stroke="black" points="354.12,-1578.12 354.12,-1605.38 488.62,-1605.38 488.62,-1578.12 354.12,-1578.12"/>
<text text-anchor="start" x="359.12" y="-1588.08" font-family="Helvetica,sans-Serif" text-decoration="underline" font-size="14.00">submit_num</text>
<polygon fill="none" stroke="black" points="354.12,-1550.88 354.12,-1578.12 488.62,-1578.12 488.62,-1550.88 354.12,-1550.88"/>
<text text-anchor="start" x="359.12" y="-1559.83" font-family="Helvetica,sans-Serif" font-size="14.00">flow_nums</text>
<polygon fill="none" stroke="black" points="354.12,-1523.62 354.12,-1550.88 488.62,-1550.88 488.62,-1523.62 354.12,-1523.62"/>
<text text-anchor="start" x="359.12" y="-1532.58" font-family="Helvetica,sans-Serif" font-size="14.00">is_manual_submit</text>
<polygon fill="none" stroke="black" points="354.12,-1496.38 354.12,-1523.62 488.62,-1523.62 488.62,-1496.38 354.12,-1496.38"/>
<text text-anchor="start" x="359.12" y="-1505.33" font-family="Helvetica,sans-Serif" font-size="14.00">try_num</text>
<polygon fill="none" stroke="black" points="354.12,-1469.12 354.12,-1496.38 488.62,-1496.38 488.62,-1469.12 354.12,-1469.12"/>
<text text-anchor="start" x="359.12" y="-1478.08" font-family="Helvetica,sans-Serif" font-size="14.00">time_submit</text>
<polygon fill="none" stroke="black" points="354.12,-1441.88 354.12,-1469.12 488.62,-1469.12 488.62,-1441.88 354.12,-1441.88"/>
<text text-anchor="start" x="359.12" y="-1450.83" font-family="Helvetica,sans-Serif" font-size="14.00">time_submit_exit</text>
<polygon fill="none" stroke="black" points="354.12,-1414.62 354.12,-1441.88 488.62,-1441.88 488.62,-1414.62 354.12,-1414.62"/>
<text text-anchor="start" x="359.12" y="-1423.58" font-family="Helvetica,sans-Serif" font-size="14.00">submit_status</text>
<polygon fill="none" stroke="black" points="354.12,-1387.38 354.12,-1414.62 488.62,-1414.62 488.62,-1387.38 354.12,-1387.38"/>
<text text-anchor="start" x="359.12" y="-1396.33" font-family="Helvetica,sans-Serif" font-size="14.00">time_run</text>
<polygon fill="none" stroke="black" points="354.12,-1360.12 354.12,-1387.38 488.62,-1387.38 488.62,-1360.12 354.12,-1360.12"/>
<text text-anchor="start" x="359.12" y="-1369.08" font-family="Helvetica,sans-Serif" font-size="14.00">time_run_exit</text>
<polygon fill="none" stroke="black" points="354.12,-1332.88 354.12,-1360.12 488.62,-1360.12 488.62,-1332.88 354.12,-1332.88"/>
<text text-anchor="start" x="359.12" y="-1341.83" font-family="Helvetica,sans-Serif" font-size="14.00">run_signal</text>
<polygon fill="none" stroke="black" points="354.12,-1305.62 354.12,-1332.88 488.62,-1332.88 488.62,-1305.62 354.12,-1305.62"/>
<text text-anchor="start" x="359.12" y="-1314.58" font-family="Helvetica,sans-Serif" font-size="14.00">run_status</text>
<polygon fill="none" stroke="black" points="354.12,-1278.38 354.12,-1305.62 488.62,-1305.62 488.62,-1278.38 354.12,-1278.38"/>
<text text-anchor="start" x="359.12" y="-1287.33" font-family="Helvetica,sans-Serif" font-size="14.00">platform_name</text>
<polygon fill="none" stroke="black" points="354.12,-1251.12 354.12,-1278.38 488.62,-1278.38 488.62,-1251.12 354.12,-1251.12"/>
<text text-anchor="start" x="359.12" y="-1260.08" font-family="Helvetica,sans-Serif" font-size="14.00">job_runner_name</text>
<polygon fill="none" stroke="black" points="354.12,-1223.88 354.12,-1251.12 488.62,-1251.12 488.62,-1223.88 354.12,-1223.88"/>
<text text-anchor="start" x="359.12" y="-1232.83" font-family="Helvetica,sans-Serif" font-size="14.00">job_id</text>
</g>
<!-- task_late_flags -->
<g id="node8" class="node">
<title>task_late_flags</title>
<polygon fill="none" stroke="black" points="350.38,-894.75 350.38,-924.25 492.38,-924.25 492.38,-894.75 350.38,-894.75"/>
<text text-anchor="start" x="355.38" y="-905.05" font-family="Helvetica,sans-Serif" font-weight="bold" font-size="16.00">task_late_flags</text>
<polygon fill="none" stroke="black" points="350.38,-867.5 350.38,-894.75 492.38,-894.75 492.38,-867.5 350.38,-867.5"/>
<text text-anchor="start" x="355.38" y="-877.45" font-family="Helvetica,sans-Serif" text-decoration="underline" font-size="14.00">cycle</text>
<polygon fill="none" stroke="black" points="350.38,-840.25 350.38,-867.5 492.38,-867.5 492.38,-840.25 350.38,-840.25"/>
<text text-anchor="start" x="355.38" y="-850.2" font-family="Helvetica,sans-Serif" text-decoration="underline" font-size="14.00">name</text>
<polygon fill="none" stroke="black" points="350.38,-813 350.38,-840.25 492.38,-840.25 492.38,-813 350.38,-813"/>
<text text-anchor="start" x="355.38" y="-821.95" font-family="Helvetica,sans-Serif" font-size="14.00">value</text>
</g>
<!-- task_outputs -->
<g id="node9" class="node">
<title>task_outputs</title>
<polygon fill="none" stroke="black" points="358.25,-757.38 358.25,-786.88 484.5,-786.88 484.5,-757.38 358.25,-757.38"/>
<text text-anchor="start" x="363.25" y="-767.67" font-family="Helvetica,sans-Serif" font-weight="bold" font-size="16.00">task_outputs</text>
<polygon fill="none" stroke="black" points="358.25,-730.12 358.25,-757.38 484.5,-757.38 484.5,-730.12 358.25,-730.12"/>
<text text-anchor="start" x="363.25" y="-740.08" font-family="Helvetica,sans-Serif" text-decoration="underline" font-size="14.00">cycle</text>
<polygon fill="none" stroke="black" points="358.25,-702.88 358.25,-730.12 484.5,-730.12 484.5,-702.88 358.25,-702.88"/>
<text text-anchor="start" x="363.25" y="-712.83" font-family="Helvetica,sans-Serif" text-decoration="underline" font-size="14.00">name</text>
<polygon fill="none" stroke="black" points="358.25,-675.62 358.25,-702.88 484.5,-702.88 484.5,-675.62 358.25,-675.62"/>
<text text-anchor="start" x="363.25" y="-685.58" font-family="Helvetica,sans-Serif" text-decoration="underline" font-size="14.00">flow_nums</text>
<polygon fill="none" stroke="black" points="358.25,-648.38 358.25,-675.62 484.5,-675.62 484.5,-648.38 358.25,-648.38"/>
<text text-anchor="start" x="363.25" y="-657.33" font-family="Helvetica,sans-Serif" font-size="14.00">outputs</text>
</g>
<!-- task_pool -->
<g id="node10" class="node">
<title>task_pool</title>
<polygon fill="none" stroke="black" points="74.38,-771 74.38,-800.5 169.88,-800.5 169.88,-771 74.38,-771"/>
<text text-anchor="start" x="79.38" y="-781.3" font-family="Helvetica,sans-Serif" font-weight="bold" font-size="16.00">task_pool</text>
<polygon fill="none" stroke="black" points="74.38,-743.75 74.38,-771 169.88,-771 169.88,-743.75 74.38,-743.75"/>
<text text-anchor="start" x="79.38" y="-753.7" font-family="Helvetica,sans-Serif" text-decoration="underline" font-size="14.00">cycle</text>
<polygon fill="none" stroke="black" points="74.38,-716.5 74.38,-743.75 169.88,-743.75 169.88,-716.5 74.38,-716.5"/>
<text text-anchor="start" x="79.38" y="-726.45" font-family="Helvetica,sans-Serif" text-decoration="underline" font-size="14.00">name</text>
<polygon fill="none" stroke="black" points="74.38,-689.25 74.38,-716.5 169.88,-716.5 169.88,-689.25 74.38,-689.25"/>
<text text-anchor="start" x="79.38" y="-699.2" font-family="Helvetica,sans-Serif" text-decoration="underline" font-size="14.00">flow_nums</text>
<polygon fill="none" stroke="black" points="74.38,-662 74.38,-689.25 169.88,-689.25 169.88,-662 74.38,-662"/>
<text text-anchor="start" x="79.38" y="-670.95" font-family="Helvetica,sans-Serif" font-size="14.00">status</text>
<polygon fill="none" stroke="black" points="74.38,-634.75 74.38,-662 169.88,-662 169.88,-634.75 74.38,-634.75"/>
<text text-anchor="start" x="79.38" y="-643.7" font-family="Helvetica,sans-Serif" font-size="14.00">is_held</text>
</g>
<!-- task_pool&#45;&#45;task_action_timers -->
<g id="edge3" class="edge">
<title>task_pool&#45;&#45;task_action_timers</title>
<path fill="none" stroke="#7f7f7f" stroke-dasharray="5,2" d="M177.65,-782.92C218.62,-832 275.82,-900.5 324.4,-958.68"/>
<text text-anchor="start" x="283.9" y="-945.38" font-family="Times,serif" font-size="14.00">{0,1}</text>
<text text-anchor="start" x="177.65" y="-769.62" font-family="Times,serif" font-size="14.00">0..N</text>
</g>
<!-- task_pool&#45;&#45;task_late_flags -->
<g id="edge4" class="edge">
<title>task_pool&#45;&#45;task_late_flags</title>
<path fill="none" stroke="#7f7f7f" stroke-dasharray="5,2" d="M177.65,-745.32C223.82,-768.78 290.58,-802.69 342.41,-829.02"/>
<text text-anchor="start" x="301.91" y="-815.72" font-family="Times,serif" font-size="14.00">{0,1}</text>
<text text-anchor="start" x="177.65" y="-732.02" font-family="Times,serif" font-size="14.00">{0,1}</text>
</g>
<!-- task_pool&#45;&#45;task_outputs -->
<g id="edge5" class="edge">
<title>task_pool&#45;&#45;task_outputs</title>
<path fill="none" stroke="#7f7f7f" stroke-dasharray="5,2" d="M177.65,-717.62C226.25,-717.62 297.67,-717.62 350.46,-717.62"/>
<text text-anchor="start" x="309.96" y="-704.33" font-family="Times,serif" font-size="14.00">{0,1}</text>
<text text-anchor="start" x="177.65" y="-704.33" font-family="Times,serif" font-size="14.00">0..N</text>
</g>
<!-- task_prerequisites -->
<g id="node11" class="node">
<title>task_prerequisites</title>
<polygon fill="none" stroke="black" points="333.5,-593.25 333.5,-622.75 509.25,-622.75 509.25,-593.25 333.5,-593.25"/>
<text text-anchor="start" x="338.5" y="-603.55" font-family="Helvetica,sans-Serif" font-weight="bold" font-size="16.00">task_prerequisites</text>
<polygon fill="none" stroke="black" points="333.5,-566 333.5,-593.25 509.25,-593.25 509.25,-566 333.5,-566"/>
<text text-anchor="start" x="338.5" y="-575.95" font-family="Helvetica,sans-Serif" text-decoration="underline" font-size="14.00">cycle</text>
<polygon fill="none" stroke="black" points="333.5,-538.75 333.5,-566 509.25,-566 509.25,-538.75 333.5,-538.75"/>
<text text-anchor="start" x="338.5" y="-548.7" font-family="Helvetica,sans-Serif" text-decoration="underline" font-size="14.00">name</text>
<polygon fill="none" stroke="black" points="333.5,-511.5 333.5,-538.75 509.25,-538.75 509.25,-511.5 333.5,-511.5"/>
<text text-anchor="start" x="338.5" y="-521.45" font-family="Helvetica,sans-Serif" text-decoration="underline" font-size="14.00">flow_nums</text>
<polygon fill="none" stroke="black" points="333.5,-484.25 333.5,-511.5 509.25,-511.5 509.25,-484.25 333.5,-484.25"/>
<text text-anchor="start" x="338.5" y="-494.2" font-family="Helvetica,sans-Serif" text-decoration="underline" font-size="14.00">prereq_name</text>
<polygon fill="none" stroke="black" points="333.5,-457 333.5,-484.25 509.25,-484.25 509.25,-457 333.5,-457"/>
<text text-anchor="start" x="338.5" y="-466.95" font-family="Helvetica,sans-Serif" text-decoration="underline" font-size="14.00">prereq_cycle</text>
<polygon fill="none" stroke="black" points="333.5,-429.75 333.5,-457 509.25,-457 509.25,-429.75 333.5,-429.75"/>
<text text-anchor="start" x="338.5" y="-439.7" font-family="Helvetica,sans-Serif" text-decoration="underline" font-size="14.00">prereq_output</text>
<polygon fill="none" stroke="black" points="333.5,-402.5 333.5,-429.75 509.25,-429.75 509.25,-402.5 333.5,-402.5"/>
<text text-anchor="start" x="338.5" y="-411.45" font-family="Helvetica,sans-Serif" font-size="14.00">satisfied</text>
</g>
<!-- task_pool&#45;&#45;task_prerequisites -->
<g id="edge6" class="edge">
<title>task_pool&#45;&#45;task_prerequisites</title>
<path fill="none" stroke="#7f7f7f" stroke-dasharray="5,2" d="M177.65,-680.02C218.96,-651.53 276.76,-611.67 325.59,-578"/>
<text text-anchor="start" x="285.09" y="-564.7" font-family="Times,serif" font-size="14.00">{0,1}</text>
<text text-anchor="start" x="177.65" y="-666.72" font-family="Times,serif" font-size="14.00">0..N</text>
</g>
<!-- task_timeout_timers -->
<g id="node13" class="node">
<title>task_timeout_timers</title>
<polygon fill="none" stroke="black" points="325.25,-346.75 325.25,-376.25 517.5,-376.25 517.5,-346.75 325.25,-346.75"/>
<text text-anchor="start" x="330.25" y="-357.05" font-family="Helvetica,sans-Serif" font-weight="bold" font-size="16.00">task_timeout_timers</text>
<polygon fill="none" stroke="black" points="325.25,-319.5 325.25,-346.75 517.5,-346.75 517.5,-319.5 325.25,-319.5"/>
<text text-anchor="start" x="330.25" y="-329.45" font-family="Helvetica,sans-Serif" text-decoration="underline" font-size="14.00">cycle</text>
<polygon fill="none" stroke="black" points="325.25,-292.25 325.25,-319.5 517.5,-319.5 517.5,-292.25 325.25,-292.25"/>
<text text-anchor="start" x="330.25" y="-302.2" font-family="Helvetica,sans-Serif" text-decoration="underline" font-size="14.00">name</text>
<polygon fill="none" stroke="black" points="325.25,-265 325.25,-292.25 517.5,-292.25 517.5,-265 325.25,-265"/>
<text text-anchor="start" x="330.25" y="-273.95" font-family="Helvetica,sans-Serif" font-size="14.00">timeout</text>
</g>
<!-- task_pool&#45;&#45;task_timeout_timers -->
<g id="edge7" class="edge">
<title>task_pool&#45;&#45;task_timeout_timers</title>
<path fill="none" stroke="#7f7f7f" stroke-dasharray="5,2" d="M177.58,-685.04C200.99,-668.62 226.91,-646.82 244.25,-621.62 305.53,-532.58 252.44,-476.13 317.25,-389.62 319.7,-386.35 322.36,-383.18 325.18,-380.12"/>
<text text-anchor="start" x="284.68" y="-384.07" font-family="Times,serif" font-size="14.00">{0,1}</text>
<text text-anchor="start" x="177.58" y="-684.68" font-family="Times,serif" font-size="14.00">{0,1}</text>
</g>
<!-- task_states -->
<g id="node12" class="node">
<title>task_states</title>
<polygon fill="none" stroke="black" points="54.88,-1742.5 54.88,-1772 189.38,-1772 189.38,-1742.5 54.88,-1742.5"/>
<text text-anchor="start" x="71.12" y="-1752.8" font-family="Helvetica,sans-Serif" font-weight="bold" font-size="16.00">task_states</text>
<polygon fill="none" stroke="black" points="54.88,-1715.25 54.88,-1742.5 189.38,-1742.5 189.38,-1715.25 54.88,-1715.25"/>
<text text-anchor="start" x="59.88" y="-1725.2" font-family="Helvetica,sans-Serif" text-decoration="underline" font-size="14.00">name</text>
<polygon fill="none" stroke="black" points="54.88,-1688 54.88,-1715.25 189.38,-1715.25 189.38,-1688 54.88,-1688"/>
<text text-anchor="start" x="59.88" y="-1697.95" font-family="Helvetica,sans-Serif" text-decoration="underline" font-size="14.00">cycle</text>
<polygon fill="none" stroke="black" points="54.88,-1660.75 54.88,-1688 189.38,-1688 189.38,-1660.75 54.88,-1660.75"/>
<text text-anchor="start" x="59.88" y="-1670.7" font-family="Helvetica,sans-Serif" text-decoration="underline" font-size="14.00">flow_nums</text>
<polygon fill="none" stroke="black" points="54.88,-1633.5 54.88,-1660.75 189.38,-1660.75 189.38,-1633.5 54.88,-1633.5"/>
<text text-anchor="start" x="59.88" y="-1642.45" font-family="Helvetica,sans-Serif" font-size="14.00">time_created</text>
<polygon fill="none" stroke="black" points="54.88,-1606.25 54.88,-1633.5 189.38,-1633.5 189.38,-1606.25 54.88,-1606.25"/>
<text text-anchor="start" x="59.88" y="-1615.2" font-family="Helvetica,sans-Serif" font-size="14.00">time_updated</text>
<polygon fill="none" stroke="black" points="54.88,-1579 54.88,-1606.25 189.38,-1606.25 189.38,-1579 54.88,-1579"/>
<text text-anchor="start" x="59.88" y="-1587.95" font-family="Helvetica,sans-Serif" font-size="14.00">submit_num</text>
<polygon fill="none" stroke="black" points="54.88,-1551.75 54.88,-1579 189.38,-1579 189.38,-1551.75 54.88,-1551.75"/>
<text text-anchor="start" x="59.88" y="-1560.7" font-family="Helvetica,sans-Serif" font-size="14.00">status</text>
<polygon fill="none" stroke="black" points="54.88,-1524.5 54.88,-1551.75 189.38,-1551.75 189.38,-1524.5 54.88,-1524.5"/>
<text text-anchor="start" x="59.88" y="-1533.45" font-family="Helvetica,sans-Serif" font-size="14.00">flow_wait</text>
<polygon fill="none" stroke="black" points="54.88,-1497.25 54.88,-1524.5 189.38,-1524.5 189.38,-1497.25 54.88,-1497.25"/>
<text text-anchor="start" x="59.88" y="-1506.2" font-family="Helvetica,sans-Serif" font-size="14.00">is_manual_submit</text>
</g>
<!-- task_states&#45;&#45;task_events -->
<g id="edge1" class="edge">
<title>task_states&#45;&#45;task_events</title>
<path fill="none" stroke="#7f7f7f" stroke-dasharray="5,2" d="M197.37,-1678.83C245.86,-1707.71 308.59,-1745.06 355.16,-1772.79"/>
<text text-anchor="start" x="314.66" y="-1759.49" font-family="Times,serif" font-size="14.00">{0,1}</text>
<text text-anchor="start" x="197.37" y="-1665.53" font-family="Times,serif" font-size="14.00">0..N</text>
</g>
<!-- task_states&#45;&#45;task_jobs -->
<g id="edge2" class="edge">
<title>task_states&#45;&#45;task_jobs</title>
<path fill="none" stroke="#7f7f7f" stroke-dasharray="5,2" d="M197.37,-1590.17C242.85,-1562.93 300.86,-1528.2 346.31,-1500.98"/>
<text text-anchor="start" x="305.81" y="-1487.68" font-family="Times,serif" font-size="14.00">{0,1}</text>
<text text-anchor="start" x="197.37" y="-1576.87" font-family="Times,serif" font-size="14.00">0..N</text>
</g>
<!-- tasks_to_hold -->
<g id="node14" class="node">
<title>tasks_to_hold</title>
<polygon fill="none" stroke="black" points="56,-1852.12 56,-1881.62 188.25,-1881.62 188.25,-1852.12 56,-1852.12"/>
<text text-anchor="start" x="61" y="-1862.42" font-family="Helvetica,sans-Serif" font-weight="bold" font-size="16.00">tasks_to_hold</text>
<polygon fill="none" stroke="black" points="56,-1824.88 56,-1852.12 188.25,-1852.12 188.25,-1824.88 56,-1824.88"/>
<text text-anchor="start" x="61" y="-1833.83" font-family="Helvetica,sans-Serif" font-size="14.00">name</text>
<polygon fill="none" stroke="black" points="56,-1797.62 56,-1824.88 188.25,-1824.88 188.25,-1797.62 56,-1797.62"/>
<text text-anchor="start" x="61" y="-1806.58" font-family="Helvetica,sans-Serif" font-size="14.00">cycle</text>
</g>
<!-- workflow_flows -->
<g id="node15" class="node">
<title>workflow_flows</title>
<polygon fill="none" stroke="black" points="47.38,-1989.75 47.38,-2019.25 196.88,-2019.25 196.88,-1989.75 47.38,-1989.75"/>
<text text-anchor="start" x="52.38" y="-2000.05" font-family="Helvetica,sans-Serif" font-weight="bold" font-size="16.00">workflow_flows</text>
<polygon fill="none" stroke="black" points="47.38,-1962.5 47.38,-1989.75 196.88,-1989.75 196.88,-1962.5 47.38,-1962.5"/>
<text text-anchor="start" x="52.38" y="-1972.45" font-family="Helvetica,sans-Serif" text-decoration="underline" font-size="14.00">flow_num</text>
<polygon fill="none" stroke="black" points="47.38,-1935.25 47.38,-1962.5 196.88,-1962.5 196.88,-1935.25 47.38,-1935.25"/>
<text text-anchor="start" x="52.38" y="-1944.2" font-family="Helvetica,sans-Serif" font-size="14.00">start_time</text>
<polygon fill="none" stroke="black" points="47.38,-1908 47.38,-1935.25 196.88,-1935.25 196.88,-1908 47.38,-1908"/>
<text text-anchor="start" x="52.38" y="-1916.95" font-family="Helvetica,sans-Serif" font-size="14.00">description</text>
</g>
<!-- workflow_params -->
<g id="node16" class="node">
<title>workflow_params</title>
<polygon fill="none" stroke="black" points="38,-2100.12 38,-2129.62 206.25,-2129.62 206.25,-2100.12 38,-2100.12"/>
<text text-anchor="start" x="43" y="-2110.43" font-family="Helvetica,sans-Serif" font-weight="bold" font-size="16.00">workflow_params</text>
<polygon fill="none" stroke="black" points="38,-2072.88 38,-2100.12 206.25,-2100.12 206.25,-2072.88 38,-2072.88"/>
<text text-anchor="start" x="43" y="-2082.82" font-family="Helvetica,sans-Serif" text-decoration="underline" font-size="14.00">key</text>
<polygon fill="none" stroke="black" points="38,-2045.62 38,-2072.88 206.25,-2072.88 206.25,-2045.62 38,-2045.62"/>
<text text-anchor="start" x="43" y="-2054.57" font-family="Helvetica,sans-Serif" font-size="14.00">value</text>
</g>
<!-- workflow_template_vars -->
<g id="node17" class="node">
<title>workflow_template_vars</title>
<polygon fill="none" stroke="black" points="8,-2210.12 8,-2239.62 236.25,-2239.62 236.25,-2210.12 8,-2210.12"/>
<text text-anchor="start" x="13" y="-2220.43" font-family="Helvetica,sans-Serif" font-weight="bold" font-size="16.00">workflow_template_vars</text>
<polygon fill="none" stroke="black" points="8,-2182.88 8,-2210.12 236.25,-2210.12 236.25,-2182.88 8,-2182.88"/>
<text text-anchor="start" x="13" y="-2192.82" font-family="Helvetica,sans-Serif" text-decoration="underline" font-size="14.00">key</text>
<polygon fill="none" stroke="black" points="8,-2155.62 8,-2182.88 236.25,-2182.88 236.25,-2155.62 8,-2155.62"/>
<text text-anchor="start" x="13" y="-2164.57" font-family="Helvetica,sans-Serif" font-size="14.00">value</text>
</g>
<!-- xtriggers -->
<g id="node18" class="node">
<title>xtriggers</title>
<polygon fill="none" stroke="black" points="33.5,-2565.75 33.5,-2595.25 210.75,-2595.25 210.75,-2565.75 33.5,-2565.75"/>
<text text-anchor="start" x="80.88" y="-2576.05" font-family="Helvetica,sans-Serif" font-weight="bold" font-size="16.00">xtriggers</text>
<polygon fill="none" stroke="black" points="33.5,-2538.5 33.5,-2565.75 210.75,-2565.75 210.75,-2538.5 33.5,-2538.5"/>
<text text-anchor="start" x="38.5" y="-2548.45" font-family="Helvetica,sans-Serif" text-decoration="underline" font-size="14.00">signature</text>
<polygon fill="none" stroke="black" points="33.5,-2511.25 33.5,-2538.5 210.75,-2538.5 210.75,-2511.25 33.5,-2511.25"/>
<text text-anchor="start" x="38.5" y="-2520.2" font-family="Helvetica,sans-Serif" font-size="14.00">results</text>
<polygon fill="none" stroke="black" points="33.5,-2484 33.5,-2511.25 210.75,-2511.25 210.75,-2484 33.5,-2484"/>
<text text-anchor="start" x="38.5" y="-2492.95" font-family="Helvetica,sans-Serif" font-size="14.00">absolute_outputs</text>
<polygon fill="none" stroke="black" points="33.5,-2456.75 33.5,-2484 210.75,-2484 210.75,-2456.75 33.5,-2456.75"/>
<text text-anchor="start" x="38.5" y="-2465.7" font-family="Helvetica,sans-Serif" font-size="14.00">broadcast_events</text>
<polygon fill="none" stroke="black" points="33.5,-2429.5 33.5,-2456.75 210.75,-2456.75 210.75,-2429.5 33.5,-2429.5"/>
<text text-anchor="start" x="38.5" y="-2438.45" font-family="Helvetica,sans-Serif" font-size="14.00">broadcast_states</text>
<polygon fill="none" stroke="black" points="33.5,-2402.25 33.5,-2429.5 210.75,-2429.5 210.75,-2402.25 33.5,-2402.25"/>
<text text-anchor="start" x="38.5" y="-2411.2" font-family="Helvetica,sans-Serif" font-size="14.00">inheritance</text>
<polygon fill="none" stroke="black" points="33.5,-2375 33.5,-2402.25 210.75,-2402.25 210.75,-2375 33.5,-2375"/>
<text text-anchor="start" x="38.5" y="-2383.95" font-family="Helvetica,sans-Serif" font-size="14.00">tasks_to_hold</text>
<polygon fill="none" stroke="black" points="33.5,-2347.75 33.5,-2375 210.75,-2375 210.75,-2347.75 33.5,-2347.75"/>
<text text-anchor="start" x="38.5" y="-2356.7" font-family="Helvetica,sans-Serif" font-size="14.00">workflow_flows</text>
<polygon fill="none" stroke="black" points="33.5,-2320.5 33.5,-2347.75 210.75,-2347.75 210.75,-2320.5 33.5,-2320.5"/>
<text text-anchor="start" x="38.5" y="-2329.45" font-family="Helvetica,sans-Serif" font-size="14.00">workflow_params</text>
<polygon fill="none" stroke="black" points="33.5,-2293.25 33.5,-2320.5 210.75,-2320.5 210.75,-2293.25 33.5,-2293.25"/>
<text text-anchor="start" x="38.5" y="-2302.2" font-family="Helvetica,sans-Serif" font-size="14.00">workflow_template_vars</text>
<polygon fill="none" stroke="black" points="33.5,-2266 33.5,-2293.25 210.75,-2293.25 210.75,-2266 33.5,-2266"/>
<text text-anchor="start" x="38.5" y="-2274.95" font-family="Helvetica,sans-Serif" font-size="14.00">xtriggers</text>
</g>
</g>
</svg>
