<?xml version="1.0" encoding="UTF-8" standalone="no"?>
<!DOCTYPE svg PUBLIC "-//W3C//DTD SVG 1.1//EN"
 "http://www.w3.org/Graphics/SVG/1.1/DTD/svg11.dtd">
<!-- Generated by graphviz version 2.40.1 (20161225.0304)
 -->
<!-- Title: bakery Pages: 1 -->
<svg width="357pt" height="260pt"
 viewBox="0.00 0.00 357.23 260.00" xmlns="http://www.w3.org/2000/svg" xmlns:xlink="http://www.w3.org/1999/xlink">
<g id="graph0" class="graph" transform="scale(1 1) rotate(0) translate(4 256)">
<title>bakery</title>
<polygon fill="transparent" stroke="transparent" points="-4,4 -4,-256 353.2336,-256 353.2336,4 -4,4"/>
<!-- purchase ingredients -->
<g id="node1" class="node">
<title>purchase ingredients</title>
<ellipse fill="none" stroke="#000000" cx="108.5404" cy="-234" rx="108.5808" ry="18"/>
<text text-anchor="middle" x="108.5404" y="-230.3" font-family="sans" font-size="14.00" fill="#000000">purchase ingredients</text>
</g>
<!-- make dough -->
<g id="node2" class="node">
<title>make dough</title>
<ellipse fill="none" stroke="#000000" cx="108.5404" cy="-162" rx="68.7879" ry="18"/>
<text text-anchor="middle" x="108.5404" y="-158.3" font-family="sans" font-size="14.00" fill="#000000">make dough</text>
</g>
<!-- purchase ingredients&#45;&gt;make dough -->
<g id="edge1" class="edge">
<title>purchase ingredients&#45;&gt;make dough</title>
<path fill="none" stroke="#000000" d="M108.5404,-215.8314C108.5404,-208.131 108.5404,-198.9743 108.5404,-190.4166"/>
<polygon fill="#000000" stroke="#000000" points="112.0405,-190.4132 108.5404,-180.4133 105.0405,-190.4133 112.0405,-190.4132"/>
</g>
<!-- bake bread -->
<g id="node3" class="node">
<title>bake bread</title>
<ellipse fill="none" stroke="#000000" cx="190.5404" cy="-90" rx="63.8893" ry="18"/>
<text text-anchor="middle" x="190.5404" y="-86.3" font-family="sans" font-size="14.00" fill="#000000">bake bread</text>
</g>
<!-- make dough&#45;&gt;bake bread -->
<g id="edge2" class="edge">
<title>make dough&#45;&gt;bake bread</title>
<path fill="none" stroke="#000000" d="M128.3903,-144.5708C138.8654,-135.3732 151.8769,-123.9484 163.2836,-113.9328"/>
<polygon fill="#000000" stroke="#000000" points="165.6681,-116.4968 170.8733,-107.2687 161.0495,-111.2367 165.6681,-116.4968"/>
</g>
<!-- sell bread -->
<g id="node4" class="node">
<title>sell bread</title>
<ellipse fill="none" stroke="#000000" cx="122.5404" cy="-18" rx="56.59" ry="18"/>
<text text-anchor="middle" x="122.5404" y="-14.3" font-family="sans" font-size="14.00" fill="#000000">sell bread</text>
</g>
<!-- bake bread&#45;&gt;sell bread -->
<g id="edge3" class="edge">
<title>bake bread&#45;&gt;sell bread</title>
<path fill="none" stroke="#000000" d="M174.0795,-72.5708C165.6434,-63.6385 155.2235,-52.6056 145.9654,-42.8029"/>
<polygon fill="#000000" stroke="#000000" points="148.2605,-40.1357 138.8497,-35.2687 143.1714,-44.942 148.2605,-40.1357"/>
</g>
<!-- clean oven -->
<g id="node5" class="node">
<title>clean oven</title>
<ellipse fill="none" stroke="#000000" cx="258.5404" cy="-18" rx="61.99" ry="18"/>
<text text-anchor="middle" x="258.5404" y="-14.3" font-family="sans" font-size="14.00" fill="#000000">clean oven</text>
</g>
<!-- bake bread&#45;&gt;clean oven -->
<g id="edge4" class="edge">
<title>bake bread&#45;&gt;clean oven</title>
<path fill="none" stroke="#000000" d="M207.0013,-72.5708C215.3753,-63.7041 225.7041,-52.7678 234.911,-43.0194"/>
<polygon fill="#000000" stroke="#000000" points="237.6737,-45.1916 241.9954,-35.5182 232.5845,-40.3852 237.6737,-45.1916"/>
</g>
<!-- pre&#45;heat oven -->
<g id="node6" class="node">
<title>pre&#45;heat oven</title>
<ellipse fill="none" stroke="#000000" cx="272.5404" cy="-162" rx="76.8869" ry="18"/>
<text text-anchor="middle" x="272.5404" y="-158.3" font-family="sans" font-size="14.00" fill="#000000">pre&#45;heat oven</text>
</g>
<!-- pre&#45;heat oven&#45;&gt;bake bread -->
<g id="edge5" class="edge">
<title>pre&#45;heat oven&#45;&gt;bake bread</title>
<path fill="none" stroke="#000000" d="M252.6905,-144.5708C242.2153,-135.3732 229.2038,-123.9484 217.7971,-113.9328"/>
<polygon fill="#000000" stroke="#000000" points="220.0312,-111.2367 210.2075,-107.2687 215.4126,-116.4968 220.0312,-111.2367"/>
</g>
</g>
</svg>
