<?xml version="1.0" encoding="UTF-8" standalone="no"?>
<!DOCTYPE svg PUBLIC "-//W3C//DTD SVG 1.1//EN"
 "http://www.w3.org/Graphics/SVG/1.1/DTD/svg11.dtd">
<!-- Generated by graphviz version 2.40.1 (20161225.0304)
 -->
<!-- Title: Example Pages: 1 -->
<svg width="171pt" height="191pt"
 viewBox="0.00 0.00 171.00 191.00" xmlns="http://www.w3.org/2000/svg" xmlns:xlink="http://www.w3.org/1999/xlink">
<g id="graph0" class="graph" transform="scale(1 1) rotate(0) translate(4 187)">
<title>Example</title>
<polygon fill="transparent" stroke="transparent" points="-4,4 -4,-187 167,-187 167,4 -4,4"/>
<g id="clust1" class="cluster">
<title>cluster_1</title>
<polygon fill="transparent" stroke="#ff0000" stroke-dasharray="5,2" points="8,-64 8,-139 116,-139 116,-64 8,-64"/>
<text text-anchor="middle" x="62" y="-123.8" font-family="sans" font-size="14.00" fill="#ff0000">:fail</text>
</g>
<!-- recover -->
<g id="node1" class="node">
<title>recover</title>
<ellipse fill="none" stroke="#000000" cx="62" cy="-90" rx="46.2923" ry="18"/>
<text text-anchor="middle" x="62" y="-86.3" font-family="sans" font-size="14.00" fill="#000000">recover</text>
</g>
<!-- bar -->
<g id="node3" class="node">
<title>bar</title>
<ellipse fill="none" stroke="#000000" cx="136" cy="-18" rx="27" ry="18"/>
<text text-anchor="middle" x="136" y="-14.3" font-family="sans" font-size="14.00" fill="#000000">bar</text>
</g>
<!-- recover&#45;&gt;bar -->
<g id="edge2" class="edge">
<title>recover&#45;&gt;bar</title>
<path fill="none" stroke="#000000" d="M79.537,-72.937C89.5795,-63.1659 102.2962,-50.7928 113.1176,-40.2639"/>
<polygon fill="none" stroke="#000000" points="115.8704,-42.4689 120.5969,-32.9868 110.9889,-37.4518 115.8704,-42.4689"/>
</g>
<!-- foo -->
<g id="node2" class="node">
<title>foo</title>
<ellipse fill="none" stroke="#000000" cx="136" cy="-165" rx="27" ry="18"/>
<text text-anchor="middle" x="136" y="-161.3" font-family="sans" font-size="14.00" fill="#000000">foo</text>
</g>
<!-- foo&#45;&gt;recover -->
<g id="edge1" class="edge">
<title>foo&#45;&gt;recover</title>
<path fill="none" stroke="#000000" d="M121.025,-149.8226C110.9783,-139.6402 97.5252,-126.0053 86,-114.3244"/>
<polygon fill="#000000" stroke="#000000" points="88.2749,-111.6466 78.76,-106.9864 83.292,-116.5631 88.2749,-111.6466"/>
</g>
<!-- foo&#45;&gt;bar -->
<g id="edge3" class="edge">
<title>foo&#45;&gt;bar</title>
<path fill="none" stroke="#000000" d="M136,-146.9749C136,-121.8475 136,-76.0393 136,-46.324"/>
<polygon fill="none" stroke="#000000" points="139.5001,-46.1725 136,-36.1725 132.5001,-46.1726 139.5001,-46.1725"/>
</g>
</g>
</svg>
