<?xml version="1.0" encoding="UTF-8" standalone="no"?>
<!DOCTYPE svg PUBLIC "-//W3C//DTD SVG 1.1//EN"
 "http://www.w3.org/Graphics/SVG/1.1/DTD/svg11.dtd">
<!-- Generated by graphviz version 2.40.1 (20161225.0304)
 -->
<!-- Title: %3 Pages: 1 -->
<svg width="477pt" height="2404pt"
 viewBox="0.00 0.00 477.00 2404.00" xmlns="http://www.w3.org/2000/svg" xmlns:xlink="http://www.w3.org/1999/xlink">
<g id="graph0" class="graph" transform="scale(1 1) rotate(0) translate(4 2400)">
<title>%3</title>
<polygon fill="transparent" stroke="transparent" points="-4,4 -4,-2400 473,-2400 473,4 -4,4"/>
<!-- absolute_outputs -->
<g id="node1" class="node">
<title>absolute_outputs</title>
<polygon fill="none" stroke="#000000" points="34.5,-78.5 34.5,-106.5 178.5,-106.5 178.5,-78.5 34.5,-78.5"/>
<text text-anchor="start" x="39.5" y="-89.7" font-family="Helvetica,sans-Serif" font-weight="bold" font-size="16.00" fill="#000000">absolute_outputs</text>
<polygon fill="none" stroke="#000000" points="34.5,-53.5 34.5,-78.5 178.5,-78.5 178.5,-53.5 34.5,-53.5"/>
<text text-anchor="start" x="39.5" y="-62.3" font-family="Helvetica,sans-Serif" font-size="14.00" fill="#000000">cycle</text>
<polygon fill="none" stroke="#000000" points="34.5,-28.5 34.5,-53.5 178.5,-53.5 178.5,-28.5 34.5,-28.5"/>
<text text-anchor="start" x="39.5" y="-37.3" font-family="Helvetica,sans-Serif" font-size="14.00" fill="#000000">name</text>
<polygon fill="none" stroke="#000000" points="34.5,-3.5 34.5,-28.5 178.5,-28.5 178.5,-3.5 34.5,-3.5"/>
<text text-anchor="start" x="39.5" y="-12.3" font-family="Helvetica,sans-Serif" font-size="14.00" fill="#000000">output</text>
</g>
<!-- broadcast_events -->
<g id="node2" class="node">
<title>broadcast_events</title>
<polygon fill="none" stroke="#000000" points="33.5,-283.5 33.5,-311.5 180.5,-311.5 180.5,-283.5 33.5,-283.5"/>
<text text-anchor="start" x="38.5" y="-294.7" font-family="Helvetica,sans-Serif" font-weight="bold" font-size="16.00" fill="#000000">broadcast_events</text>
<polygon fill="none" stroke="#000000" points="33.5,-258.5 33.5,-283.5 180.5,-283.5 180.5,-258.5 33.5,-258.5"/>
<text text-anchor="start" x="38.5" y="-267.3" font-family="Helvetica,sans-Serif" font-size="14.00" fill="#000000">time</text>
<polygon fill="none" stroke="#000000" points="33.5,-233.5 33.5,-258.5 180.5,-258.5 180.5,-233.5 33.5,-233.5"/>
<text text-anchor="start" x="38.5" y="-242.3" font-family="Helvetica,sans-Serif" font-size="14.00" fill="#000000">change</text>
<polygon fill="none" stroke="#000000" points="33.5,-208.5 33.5,-233.5 180.5,-233.5 180.5,-208.5 33.5,-208.5"/>
<text text-anchor="start" x="38.5" y="-217.3" font-family="Helvetica,sans-Serif" font-size="14.00" fill="#000000">point</text>
<polygon fill="none" stroke="#000000" points="33.5,-183.5 33.5,-208.5 180.5,-208.5 180.5,-183.5 33.5,-183.5"/>
<text text-anchor="start" x="38.5" y="-192.3" font-family="Helvetica,sans-Serif" font-size="14.00" fill="#000000">namespace</text>
<polygon fill="none" stroke="#000000" points="33.5,-158.5 33.5,-183.5 180.5,-183.5 180.5,-158.5 33.5,-158.5"/>
<text text-anchor="start" x="38.5" y="-167.3" font-family="Helvetica,sans-Serif" font-size="14.00" fill="#000000">key</text>
<polygon fill="none" stroke="#000000" points="33.5,-133.5 33.5,-158.5 180.5,-158.5 180.5,-133.5 33.5,-133.5"/>
<text text-anchor="start" x="38.5" y="-142.3" font-family="Helvetica,sans-Serif" font-size="14.00" fill="#000000">value</text>
</g>
<!-- broadcast_states -->
<g id="node3" class="node">
<title>broadcast_states</title>
<polygon fill="none" stroke="#000000" points="35.5,-437.5 35.5,-465.5 178.5,-465.5 178.5,-437.5 35.5,-437.5"/>
<text text-anchor="start" x="40.5" y="-448.7" font-family="Helvetica,sans-Serif" font-weight="bold" font-size="16.00" fill="#000000">broadcast_states</text>
<polygon fill="none" stroke="#000000" points="35.5,-412.5 35.5,-437.5 178.5,-437.5 178.5,-412.5 35.5,-412.5"/>
<text text-anchor="start" x="40.5" y="-422.3" font-family="Helvetica,sans-Serif" text-decoration="underline" font-size="14.00" fill="#000000">point</text>
<polygon fill="none" stroke="#000000" points="35.5,-387.5 35.5,-412.5 178.5,-412.5 178.5,-387.5 35.5,-387.5"/>
<text text-anchor="start" x="40.5" y="-397.3" font-family="Helvetica,sans-Serif" text-decoration="underline" font-size="14.00" fill="#000000">namespace</text>
<polygon fill="none" stroke="#000000" points="35.5,-362.5 35.5,-387.5 178.5,-387.5 178.5,-362.5 35.5,-362.5"/>
<text text-anchor="start" x="40.5" y="-372.3" font-family="Helvetica,sans-Serif" text-decoration="underline" font-size="14.00" fill="#000000">key</text>
<polygon fill="none" stroke="#000000" points="35.5,-337.5 35.5,-362.5 178.5,-362.5 178.5,-337.5 35.5,-337.5"/>
<text text-anchor="start" x="40.5" y="-346.3" font-family="Helvetica,sans-Serif" font-size="14.00" fill="#000000">value</text>
</g>
<!-- inheritance -->
<g id="node4" class="node">
<title>inheritance</title>
<polygon fill="none" stroke="#000000" points="58.5,-541.5 58.5,-569.5 154.5,-569.5 154.5,-541.5 58.5,-541.5"/>
<text text-anchor="start" x="63.5" y="-552.7" font-family="Helvetica,sans-Serif" font-weight="bold" font-size="16.00" fill="#000000">inheritance</text>
<polygon fill="none" stroke="#000000" points="58.5,-516.5 58.5,-541.5 154.5,-541.5 154.5,-516.5 58.5,-516.5"/>
<text text-anchor="start" x="63.5" y="-526.3" font-family="Helvetica,sans-Serif" text-decoration="underline" font-size="14.00" fill="#000000">namespace</text>
<polygon fill="none" stroke="#000000" points="58.5,-491.5 58.5,-516.5 154.5,-516.5 154.5,-491.5 58.5,-491.5"/>
<text text-anchor="start" x="63.5" y="-500.3" font-family="Helvetica,sans-Serif" font-size="14.00" fill="#000000">inheritance</text>
</g>
<!-- task_action_timers -->
<g id="node5" class="node">
<title>task_action_timers</title>
<polygon fill="none" stroke="#000000" points="299.5,-1092.5 299.5,-1120.5 455.5,-1120.5 455.5,-1092.5 299.5,-1092.5"/>
<text text-anchor="start" x="304.5" y="-1103.7" font-family="Helvetica,sans-Serif" font-weight="bold" font-size="16.00" fill="#000000">task_action_timers</text>
<polygon fill="none" stroke="#000000" points="299.5,-1067.5 299.5,-1092.5 455.5,-1092.5 455.5,-1067.5 299.5,-1067.5"/>
<text text-anchor="start" x="304.5" y="-1077.3" font-family="Helvetica,sans-Serif" text-decoration="underline" font-size="14.00" fill="#000000">cycle</text>
<polygon fill="none" stroke="#000000" points="299.5,-1042.5 299.5,-1067.5 455.5,-1067.5 455.5,-1042.5 299.5,-1042.5"/>
<text text-anchor="start" x="304.5" y="-1052.3" font-family="Helvetica,sans-Serif" text-decoration="underline" font-size="14.00" fill="#000000">name</text>
<polygon fill="none" stroke="#000000" points="299.5,-1017.5 299.5,-1042.5 455.5,-1042.5 455.5,-1017.5 299.5,-1017.5"/>
<text text-anchor="start" x="304.5" y="-1027.3" font-family="Helvetica,sans-Serif" text-decoration="underline" font-size="14.00" fill="#000000">ctx_key</text>
<polygon fill="none" stroke="#000000" points="299.5,-992.5 299.5,-1017.5 455.5,-1017.5 455.5,-992.5 299.5,-992.5"/>
<text text-anchor="start" x="304.5" y="-1001.3" font-family="Helvetica,sans-Serif" font-size="14.00" fill="#000000">ctx</text>
<polygon fill="none" stroke="#000000" points="299.5,-967.5 299.5,-992.5 455.5,-992.5 455.5,-967.5 299.5,-967.5"/>
<text text-anchor="start" x="304.5" y="-976.3" font-family="Helvetica,sans-Serif" font-size="14.00" fill="#000000">delays</text>
<polygon fill="none" stroke="#000000" points="299.5,-942.5 299.5,-967.5 455.5,-967.5 455.5,-942.5 299.5,-942.5"/>
<text text-anchor="start" x="304.5" y="-951.3" font-family="Helvetica,sans-Serif" font-size="14.00" fill="#000000">num</text>
<polygon fill="none" stroke="#000000" points="299.5,-917.5 299.5,-942.5 455.5,-942.5 455.5,-917.5 299.5,-917.5"/>
<text text-anchor="start" x="304.5" y="-926.3" font-family="Helvetica,sans-Serif" font-size="14.00" fill="#000000">delay</text>
<polygon fill="none" stroke="#000000" points="299.5,-892.5 299.5,-917.5 455.5,-917.5 455.5,-892.5 299.5,-892.5"/>
<text text-anchor="start" x="304.5" y="-901.3" font-family="Helvetica,sans-Serif" font-size="14.00" fill="#000000">timeout</text>
</g>
<!-- task_events -->
<g id="node6" class="node">
<title>task_events</title>
<polygon fill="none" stroke="#000000" points="326.5,-1726.5 326.5,-1754.5 429.5,-1754.5 429.5,-1726.5 326.5,-1726.5"/>
<text text-anchor="start" x="331.5" y="-1737.7" font-family="Helvetica,sans-Serif" font-weight="bold" font-size="16.00" fill="#000000">task_events</text>
<polygon fill="none" stroke="#000000" points="326.5,-1701.5 326.5,-1726.5 429.5,-1726.5 429.5,-1701.5 326.5,-1701.5"/>
<text text-anchor="start" x="331.5" y="-1710.3" font-family="Helvetica,sans-Serif" font-size="14.00" fill="#000000">name</text>
<polygon fill="none" stroke="#000000" points="326.5,-1676.5 326.5,-1701.5 429.5,-1701.5 429.5,-1676.5 326.5,-1676.5"/>
<text text-anchor="start" x="331.5" y="-1685.3" font-family="Helvetica,sans-Serif" font-size="14.00" fill="#000000">cycle</text>
<polygon fill="none" stroke="#000000" points="326.5,-1651.5 326.5,-1676.5 429.5,-1676.5 429.5,-1651.5 326.5,-1651.5"/>
<text text-anchor="start" x="331.5" y="-1660.3" font-family="Helvetica,sans-Serif" font-size="14.00" fill="#000000">time</text>
<polygon fill="none" stroke="#000000" points="326.5,-1626.5 326.5,-1651.5 429.5,-1651.5 429.5,-1626.5 326.5,-1626.5"/>
<text text-anchor="start" x="331.5" y="-1635.3" font-family="Helvetica,sans-Serif" font-size="14.00" fill="#000000">submit_num</text>
<polygon fill="none" stroke="#000000" points="326.5,-1601.5 326.5,-1626.5 429.5,-1626.5 429.5,-1601.5 326.5,-1601.5"/>
<text text-anchor="start" x="331.5" y="-1610.3" font-family="Helvetica,sans-Serif" font-size="14.00" fill="#000000">event</text>
<polygon fill="none" stroke="#000000" points="326.5,-1576.5 326.5,-1601.5 429.5,-1601.5 429.5,-1576.5 326.5,-1576.5"/>
<text text-anchor="start" x="331.5" y="-1585.3" font-family="Helvetica,sans-Serif" font-size="14.00" fill="#000000">message</text>
</g>
<!-- task_jobs -->
<g id="node7" class="node">
<title>task_jobs</title>
<polygon fill="none" stroke="#000000" points="317.5,-1521.5 317.5,-1549.5 438.5,-1549.5 438.5,-1521.5 317.5,-1521.5"/>
<text text-anchor="start" x="340.5" y="-1532.7" font-family="Helvetica,sans-Serif" font-weight="bold" font-size="16.00" fill="#000000">task_jobs</text>
<polygon fill="none" stroke="#000000" points="317.5,-1496.5 317.5,-1521.5 438.5,-1521.5 438.5,-1496.5 317.5,-1496.5"/>
<text text-anchor="start" x="322.5" y="-1506.3" font-family="Helvetica,sans-Serif" text-decoration="underline" font-size="14.00" fill="#000000">cycle</text>
<polygon fill="none" stroke="#000000" points="317.5,-1471.5 317.5,-1496.5 438.5,-1496.5 438.5,-1471.5 317.5,-1471.5"/>
<text text-anchor="start" x="322.5" y="-1481.3" font-family="Helvetica,sans-Serif" text-decoration="underline" font-size="14.00" fill="#000000">name</text>
<polygon fill="none" stroke="#000000" points="317.5,-1446.5 317.5,-1471.5 438.5,-1471.5 438.5,-1446.5 317.5,-1446.5"/>
<text text-anchor="start" x="322.5" y="-1456.3" font-family="Helvetica,sans-Serif" text-decoration="underline" font-size="14.00" fill="#000000">submit_num</text>
<polygon fill="none" stroke="#000000" points="317.5,-1421.5 317.5,-1446.5 438.5,-1446.5 438.5,-1421.5 317.5,-1421.5"/>
<text text-anchor="start" x="322.5" y="-1430.3" font-family="Helvetica,sans-Serif" font-size="14.00" fill="#000000">is_manual_submit</text>
<polygon fill="none" stroke="#000000" points="317.5,-1396.5 317.5,-1421.5 438.5,-1421.5 438.5,-1396.5 317.5,-1396.5"/>
<text text-anchor="start" x="322.5" y="-1405.3" font-family="Helvetica,sans-Serif" font-size="14.00" fill="#000000">try_num</text>
<polygon fill="none" stroke="#000000" points="317.5,-1371.5 317.5,-1396.5 438.5,-1396.5 438.5,-1371.5 317.5,-1371.5"/>
<text text-anchor="start" x="322.5" y="-1380.3" font-family="Helvetica,sans-Serif" font-size="14.00" fill="#000000">time_submit</text>
<polygon fill="none" stroke="#000000" points="317.5,-1346.5 317.5,-1371.5 438.5,-1371.5 438.5,-1346.5 317.5,-1346.5"/>
<text text-anchor="start" x="322.5" y="-1355.3" font-family="Helvetica,sans-Serif" font-size="14.00" fill="#000000">time_submit_exit</text>
<polygon fill="none" stroke="#000000" points="317.5,-1321.5 317.5,-1346.5 438.5,-1346.5 438.5,-1321.5 317.5,-1321.5"/>
<text text-anchor="start" x="322.5" y="-1330.3" font-family="Helvetica,sans-Serif" font-size="14.00" fill="#000000">submit_status</text>
<polygon fill="none" stroke="#000000" points="317.5,-1296.5 317.5,-1321.5 438.5,-1321.5 438.5,-1296.5 317.5,-1296.5"/>
<text text-anchor="start" x="322.5" y="-1305.3" font-family="Helvetica,sans-Serif" font-size="14.00" fill="#000000">time_run</text>
<polygon fill="none" stroke="#000000" points="317.5,-1271.5 317.5,-1296.5 438.5,-1296.5 438.5,-1271.5 317.5,-1271.5"/>
<text text-anchor="start" x="322.5" y="-1280.3" font-family="Helvetica,sans-Serif" font-size="14.00" fill="#000000">time_run_exit</text>
<polygon fill="none" stroke="#000000" points="317.5,-1246.5 317.5,-1271.5 438.5,-1271.5 438.5,-1246.5 317.5,-1246.5"/>
<text text-anchor="start" x="322.5" y="-1255.3" font-family="Helvetica,sans-Serif" font-size="14.00" fill="#000000">run_signal</text>
<polygon fill="none" stroke="#000000" points="317.5,-1221.5 317.5,-1246.5 438.5,-1246.5 438.5,-1221.5 317.5,-1221.5"/>
<text text-anchor="start" x="322.5" y="-1230.3" font-family="Helvetica,sans-Serif" font-size="14.00" fill="#000000">run_status</text>
<polygon fill="none" stroke="#000000" points="317.5,-1196.5 317.5,-1221.5 438.5,-1221.5 438.5,-1196.5 317.5,-1196.5"/>
<text text-anchor="start" x="322.5" y="-1205.3" font-family="Helvetica,sans-Serif" font-size="14.00" fill="#000000">platform_name</text>
<polygon fill="none" stroke="#000000" points="317.5,-1171.5 317.5,-1196.5 438.5,-1196.5 438.5,-1171.5 317.5,-1171.5"/>
<text text-anchor="start" x="322.5" y="-1180.3" font-family="Helvetica,sans-Serif" font-size="14.00" fill="#000000">job_runner_name</text>
<polygon fill="none" stroke="#000000" points="317.5,-1146.5 317.5,-1171.5 438.5,-1171.5 438.5,-1146.5 317.5,-1146.5"/>
<text text-anchor="start" x="322.5" y="-1155.3" font-family="Helvetica,sans-Serif" font-size="14.00" fill="#000000">job_id</text>
</g>
<!-- task_late_flags -->
<g id="node8" class="node">
<title>task_late_flags</title>
<polygon fill="none" stroke="#000000" points="314.5,-837.5 314.5,-865.5 440.5,-865.5 440.5,-837.5 314.5,-837.5"/>
<text text-anchor="start" x="319.5" y="-848.7" font-family="Helvetica,sans-Serif" font-weight="bold" font-size="16.00" fill="#000000">task_late_flags</text>
<polygon fill="none" stroke="#000000" points="314.5,-812.5 314.5,-837.5 440.5,-837.5 440.5,-812.5 314.5,-812.5"/>
<text text-anchor="start" x="319.5" y="-822.3" font-family="Helvetica,sans-Serif" text-decoration="underline" font-size="14.00" fill="#000000">cycle</text>
<polygon fill="none" stroke="#000000" points="314.5,-787.5 314.5,-812.5 440.5,-812.5 440.5,-787.5 314.5,-787.5"/>
<text text-anchor="start" x="319.5" y="-797.3" font-family="Helvetica,sans-Serif" text-decoration="underline" font-size="14.00" fill="#000000">name</text>
<polygon fill="none" stroke="#000000" points="314.5,-762.5 314.5,-787.5 440.5,-787.5 440.5,-762.5 314.5,-762.5"/>
<text text-anchor="start" x="319.5" y="-771.3" font-family="Helvetica,sans-Serif" font-size="14.00" fill="#000000">value</text>
</g>
<!-- task_outputs -->
<g id="node9" class="node">
<title>task_outputs</title>
<polygon fill="none" stroke="#000000" points="322.5,-708.5 322.5,-736.5 432.5,-736.5 432.5,-708.5 322.5,-708.5"/>
<text text-anchor="start" x="327.5" y="-719.7" font-family="Helvetica,sans-Serif" font-weight="bold" font-size="16.00" fill="#000000">task_outputs</text>
<polygon fill="none" stroke="#000000" points="322.5,-683.5 322.5,-708.5 432.5,-708.5 432.5,-683.5 322.5,-683.5"/>
<text text-anchor="start" x="327.5" y="-693.3" font-family="Helvetica,sans-Serif" text-decoration="underline" font-size="14.00" fill="#000000">cycle</text>
<polygon fill="none" stroke="#000000" points="322.5,-658.5 322.5,-683.5 432.5,-683.5 432.5,-658.5 322.5,-658.5"/>
<text text-anchor="start" x="327.5" y="-668.3" font-family="Helvetica,sans-Serif" text-decoration="underline" font-size="14.00" fill="#000000">name</text>
<polygon fill="none" stroke="#000000" points="322.5,-633.5 322.5,-658.5 432.5,-658.5 432.5,-633.5 322.5,-633.5"/>
<text text-anchor="start" x="327.5" y="-643.3" font-family="Helvetica,sans-Serif" text-decoration="underline" font-size="14.00" fill="#000000">flow_nums</text>
<polygon fill="none" stroke="#000000" points="322.5,-608.5 322.5,-633.5 432.5,-633.5 432.5,-608.5 322.5,-608.5"/>
<text text-anchor="start" x="327.5" y="-617.3" font-family="Helvetica,sans-Serif" font-size="14.00" fill="#000000">outputs</text>
</g>
<!-- task_pool -->
<g id="node10" class="node">
<title>task_pool</title>
<polygon fill="none" stroke="#000000" points="63.5,-720.5 63.5,-748.5 149.5,-748.5 149.5,-720.5 63.5,-720.5"/>
<text text-anchor="start" x="68.5" y="-731.7" font-family="Helvetica,sans-Serif" font-weight="bold" font-size="16.00" fill="#000000">task_pool</text>
<polygon fill="none" stroke="#000000" points="63.5,-695.5 63.5,-720.5 149.5,-720.5 149.5,-695.5 63.5,-695.5"/>
<text text-anchor="start" x="68.5" y="-705.3" font-family="Helvetica,sans-Serif" text-decoration="underline" font-size="14.00" fill="#000000">cycle</text>
<polygon fill="none" stroke="#000000" points="63.5,-670.5 63.5,-695.5 149.5,-695.5 149.5,-670.5 63.5,-670.5"/>
<text text-anchor="start" x="68.5" y="-680.3" font-family="Helvetica,sans-Serif" text-decoration="underline" font-size="14.00" fill="#000000">name</text>
<polygon fill="none" stroke="#000000" points="63.5,-645.5 63.5,-670.5 149.5,-670.5 149.5,-645.5 63.5,-645.5"/>
<text text-anchor="start" x="68.5" y="-655.3" font-family="Helvetica,sans-Serif" text-decoration="underline" font-size="14.00" fill="#000000">flow_nums</text>
<polygon fill="none" stroke="#000000" points="63.5,-620.5 63.5,-645.5 149.5,-645.5 149.5,-620.5 63.5,-620.5"/>
<text text-anchor="start" x="68.5" y="-629.3" font-family="Helvetica,sans-Serif" font-size="14.00" fill="#000000">status</text>
<polygon fill="none" stroke="#000000" points="63.5,-595.5 63.5,-620.5 149.5,-620.5 149.5,-595.5 63.5,-595.5"/>
<text text-anchor="start" x="68.5" y="-604.3" font-family="Helvetica,sans-Serif" font-size="14.00" fill="#000000">is_held</text>
</g>
<!-- task_pool&#45;&#45;task_action_timers -->
<g id="edge3" class="edge">
<title>task_pool&#45;&#45;task_action_timers</title>
<path fill="none" stroke="#7f7f7f" stroke-dasharray="5,2" d="M157.7916,-735.7155C195.3866,-782.0502 247.3102,-846.0446 291.2411,-900.1883"/>
<text text-anchor="start" x="260.2411" y="-888.9883" font-family="Times,serif" font-size="14.00" fill="#000000">{0,1}</text>
<text text-anchor="start" x="157.7916" y="-724.5155" font-family="Times,serif" font-size="14.00" fill="#000000">0..N</text>
</g>
<!-- task_pool&#45;&#45;task_late_flags -->
<g id="edge4" class="edge">
<title>task_pool&#45;&#45;task_late_flags</title>
<path fill="none" stroke="#7f7f7f" stroke-dasharray="5,2" d="M157.7916,-699.3761C199.8366,-721.407 259.803,-752.8285 306.4681,-777.2803"/>
<text text-anchor="start" x="275.4681" y="-766.0803" font-family="Times,serif" font-size="14.00" fill="#000000">{0,1}</text>
<text text-anchor="start" x="157.7916" y="-688.1761" font-family="Times,serif" font-size="14.00" fill="#000000">{0,1}</text>
</g>
<!-- task_pool&#45;&#45;task_outputs -->
<g id="edge5" class="edge">
<title>task_pool&#45;&#45;task_outputs</title>
<path fill="none" stroke="#7f7f7f" stroke-dasharray="5,2" d="M157.7916,-672.5C202.1383,-672.5 266.4224,-672.5 314.0073,-672.5"/>
<text text-anchor="start" x="283.0073" y="-661.3" font-family="Times,serif" font-size="14.00" fill="#000000">{0,1}</text>
<text text-anchor="start" x="157.7916" y="-661.3" font-family="Times,serif" font-size="14.00" fill="#000000">0..N</text>
</g>
<!-- task_prerequisites -->
<g id="node11" class="node">
<title>task_prerequisites</title>
<polygon fill="none" stroke="#000000" points="301.5,-553.5 301.5,-581.5 453.5,-581.5 453.5,-553.5 301.5,-553.5"/>
<text text-anchor="start" x="306.5" y="-564.7" font-family="Helvetica,sans-Serif" font-weight="bold" font-size="16.00" fill="#000000">task_prerequisites</text>
<polygon fill="none" stroke="#000000" points="301.5,-528.5 301.5,-553.5 453.5,-553.5 453.5,-528.5 301.5,-528.5"/>
<text text-anchor="start" x="306.5" y="-538.3" font-family="Helvetica,sans-Serif" text-decoration="underline" font-size="14.00" fill="#000000">cycle</text>
<polygon fill="none" stroke="#000000" points="301.5,-503.5 301.5,-528.5 453.5,-528.5 453.5,-503.5 301.5,-503.5"/>
<text text-anchor="start" x="306.5" y="-513.3" font-family="Helvetica,sans-Serif" text-decoration="underline" font-size="14.00" fill="#000000">name</text>
<polygon fill="none" stroke="#000000" points="301.5,-478.5 301.5,-503.5 453.5,-503.5 453.5,-478.5 301.5,-478.5"/>
<text text-anchor="start" x="306.5" y="-488.3" font-family="Helvetica,sans-Serif" text-decoration="underline" font-size="14.00" fill="#000000">flow_nums</text>
<polygon fill="none" stroke="#000000" points="301.5,-453.5 301.5,-478.5 453.5,-478.5 453.5,-453.5 301.5,-453.5"/>
<text text-anchor="start" x="306.5" y="-463.3" font-family="Helvetica,sans-Serif" text-decoration="underline" font-size="14.00" fill="#000000">prereq_name</text>
<polygon fill="none" stroke="#000000" points="301.5,-428.5 301.5,-453.5 453.5,-453.5 453.5,-428.5 301.5,-428.5"/>
<text text-anchor="start" x="306.5" y="-438.3" font-family="Helvetica,sans-Serif" text-decoration="underline" font-size="14.00" fill="#000000">prereq_cycle</text>
<polygon fill="none" stroke="#000000" points="301.5,-403.5 301.5,-428.5 453.5,-428.5 453.5,-403.5 301.5,-403.5"/>
<text text-anchor="start" x="306.5" y="-413.3" font-family="Helvetica,sans-Serif" text-decoration="underline" font-size="14.00" fill="#000000">prereq_output</text>
<polygon fill="none" stroke="#000000" points="301.5,-378.5 301.5,-403.5 453.5,-403.5 453.5,-378.5 301.5,-378.5"/>
<text text-anchor="start" x="306.5" y="-387.3" font-family="Helvetica,sans-Serif" font-size="14.00" fill="#000000">satisfied</text>
</g>
<!-- task_pool&#45;&#45;task_prerequisites -->
<g id="edge6" class="edge">
<title>task_pool&#45;&#45;task_prerequisites</title>
<path fill="none" stroke="#7f7f7f" stroke-dasharray="5,2" d="M157.7916,-636.1605C196.0003,-609.0902 249.0095,-571.5339 293.3863,-540.0935"/>
<text text-anchor="start" x="262.3863" y="-528.8935" font-family="Times,serif" font-size="14.00" fill="#000000">{0,1}</text>
<text text-anchor="start" x="157.7916" y="-624.9605" font-family="Times,serif" font-size="14.00" fill="#000000">0..N</text>
</g>
<!-- task_timeout_timers -->
<g id="node13" class="node">
<title>task_timeout_timers</title>
<polygon fill="none" stroke="#000000" points="294.5,-324.5 294.5,-352.5 461.5,-352.5 461.5,-324.5 294.5,-324.5"/>
<text text-anchor="start" x="299.5" y="-335.7" font-family="Helvetica,sans-Serif" font-weight="bold" font-size="16.00" fill="#000000">task_timeout_timers</text>
<polygon fill="none" stroke="#000000" points="294.5,-299.5 294.5,-324.5 461.5,-324.5 461.5,-299.5 294.5,-299.5"/>
<text text-anchor="start" x="299.5" y="-309.3" font-family="Helvetica,sans-Serif" text-decoration="underline" font-size="14.00" fill="#000000">cycle</text>
<polygon fill="none" stroke="#000000" points="294.5,-274.5 294.5,-299.5 461.5,-299.5 461.5,-274.5 294.5,-274.5"/>
<text text-anchor="start" x="299.5" y="-284.3" font-family="Helvetica,sans-Serif" text-decoration="underline" font-size="14.00" fill="#000000">name</text>
<polygon fill="none" stroke="#000000" points="294.5,-249.5 294.5,-274.5 461.5,-274.5 461.5,-249.5 294.5,-249.5"/>
<text text-anchor="start" x="299.5" y="-258.3" font-family="Helvetica,sans-Serif" font-size="14.00" fill="#000000">timeout</text>
</g>
<!-- task_pool&#45;&#45;task_timeout_timers -->
<g id="edge7" class="edge">
<title>task_pool&#45;&#45;task_timeout_timers</title>
<path fill="none" stroke="#7f7f7f" stroke-dasharray="5,2" d="M157.6687,-638.5099C177.2521,-623.3414 198.3741,-604.0241 213,-582.5 270.19,-498.3366 225.0303,-446.967 286,-365.5 288.0908,-362.7063 290.3399,-359.9891 292.7148,-357.3514"/>
<text text-anchor="start" x="261.7148" y="-361.1514" font-family="Times,serif" font-size="14.00" fill="#000000">{0,1}</text>
<text text-anchor="start" x="157.6687" y="-642.3099" font-family="Times,serif" font-size="14.00" fill="#000000">{0,1}</text>
</g>
<!-- task_states -->
<g id="node12" class="node">
<title>task_states</title>
<polygon fill="none" stroke="#000000" points="57.5,-1592.5 57.5,-1620.5 155.5,-1620.5 155.5,-1592.5 57.5,-1592.5"/>
<text text-anchor="start" x="62.5" y="-1603.7" font-family="Helvetica,sans-Serif" font-weight="bold" font-size="16.00" fill="#000000">task_states</text>
<polygon fill="none" stroke="#000000" points="57.5,-1567.5 57.5,-1592.5 155.5,-1592.5 155.5,-1567.5 57.5,-1567.5"/>
<text text-anchor="start" x="62.5" y="-1577.3" font-family="Helvetica,sans-Serif" text-decoration="underline" font-size="14.00" fill="#000000">name</text>
<polygon fill="none" stroke="#000000" points="57.5,-1542.5 57.5,-1567.5 155.5,-1567.5 155.5,-1542.5 57.5,-1542.5"/>
<text text-anchor="start" x="62.5" y="-1552.3" font-family="Helvetica,sans-Serif" text-decoration="underline" font-size="14.00" fill="#000000">cycle</text>
<polygon fill="none" stroke="#000000" points="57.5,-1517.5 57.5,-1542.5 155.5,-1542.5 155.5,-1517.5 57.5,-1517.5"/>
<text text-anchor="start" x="62.5" y="-1527.3" font-family="Helvetica,sans-Serif" text-decoration="underline" font-size="14.00" fill="#000000">flow_nums</text>
<polygon fill="none" stroke="#000000" points="57.5,-1492.5 57.5,-1517.5 155.5,-1517.5 155.5,-1492.5 57.5,-1492.5"/>
<text text-anchor="start" x="62.5" y="-1501.3" font-family="Helvetica,sans-Serif" font-size="14.00" fill="#000000">time_created</text>
<polygon fill="none" stroke="#000000" points="57.5,-1467.5 57.5,-1492.5 155.5,-1492.5 155.5,-1467.5 57.5,-1467.5"/>
<text text-anchor="start" x="62.5" y="-1476.3" font-family="Helvetica,sans-Serif" font-size="14.00" fill="#000000">time_updated</text>
<polygon fill="none" stroke="#000000" points="57.5,-1442.5 57.5,-1467.5 155.5,-1467.5 155.5,-1442.5 57.5,-1442.5"/>
<text text-anchor="start" x="62.5" y="-1451.3" font-family="Helvetica,sans-Serif" font-size="14.00" fill="#000000">submit_num</text>
<polygon fill="none" stroke="#000000" points="57.5,-1417.5 57.5,-1442.5 155.5,-1442.5 155.5,-1417.5 57.5,-1417.5"/>
<text text-anchor="start" x="62.5" y="-1426.3" font-family="Helvetica,sans-Serif" font-size="14.00" fill="#000000">status</text>
<polygon fill="none" stroke="#000000" points="57.5,-1392.5 57.5,-1417.5 155.5,-1417.5 155.5,-1392.5 57.5,-1392.5"/>
<text text-anchor="start" x="62.5" y="-1401.3" font-family="Helvetica,sans-Serif" font-size="14.00" fill="#000000">flow_wait</text>
</g>
<!-- task_states&#45;&#45;task_events -->
<g id="edge1" class="edge">
<title>task_states&#45;&#45;task_events</title>
<path fill="none" stroke="#7f7f7f" stroke-dasharray="5,2" d="M163.641,-1540.0255C208.8303,-1566.5388 271.7354,-1603.4463 317.6209,-1630.368"/>
<text text-anchor="start" x="286.6209" y="-1619.168" font-family="Times,serif" font-size="14.00" fill="#000000">{0,1}</text>
<text text-anchor="start" x="163.641" y="-1528.8255" font-family="Times,serif" font-size="14.00" fill="#000000">0..N</text>
</g>
<!-- task_states&#45;&#45;task_jobs -->
<g id="edge2" class="edge">
<title>task_states&#45;&#45;task_jobs</title>
<path fill="none" stroke="#7f7f7f" stroke-dasharray="5,2" d="M163.641,-1473.1853C206.0351,-1448.4685 264.0211,-1414.6611 308.9189,-1388.4845"/>
<text text-anchor="start" x="277.9189" y="-1377.2845" font-family="Times,serif" font-size="14.00" fill="#000000">{0,1}</text>
<text text-anchor="start" x="163.641" y="-1461.9853" font-family="Times,serif" font-size="14.00" fill="#000000">0..N</text>
</g>
<!-- tasks_to_hold -->
<g id="node14" class="node">
<title>tasks_to_hold</title>
<polygon fill="none" stroke="#000000" points="47.5,-1696.5 47.5,-1724.5 166.5,-1724.5 166.5,-1696.5 47.5,-1696.5"/>
<text text-anchor="start" x="52.5" y="-1707.7" font-family="Helvetica,sans-Serif" font-weight="bold" font-size="16.00" fill="#000000">tasks_to_hold</text>
<polygon fill="none" stroke="#000000" points="47.5,-1671.5 47.5,-1696.5 166.5,-1696.5 166.5,-1671.5 47.5,-1671.5"/>
<text text-anchor="start" x="52.5" y="-1680.3" font-family="Helvetica,sans-Serif" font-size="14.00" fill="#000000">name</text>
<polygon fill="none" stroke="#000000" points="47.5,-1646.5 47.5,-1671.5 166.5,-1671.5 166.5,-1646.5 47.5,-1646.5"/>
<text text-anchor="start" x="52.5" y="-1655.3" font-family="Helvetica,sans-Serif" font-size="14.00" fill="#000000">cycle</text>
</g>
<!-- workflow_flows -->
<g id="node15" class="node">
<title>workflow_flows</title>
<polygon fill="none" stroke="#000000" points="41.5,-1825.5 41.5,-1853.5 172.5,-1853.5 172.5,-1825.5 41.5,-1825.5"/>
<text text-anchor="start" x="46.5" y="-1836.7" font-family="Helvetica,sans-Serif" font-weight="bold" font-size="16.00" fill="#000000">workflow_flows</text>
<polygon fill="none" stroke="#000000" points="41.5,-1800.5 41.5,-1825.5 172.5,-1825.5 172.5,-1800.5 41.5,-1800.5"/>
<text text-anchor="start" x="46.5" y="-1810.3" font-family="Helvetica,sans-Serif" text-decoration="underline" font-size="14.00" fill="#000000">flow_num</text>
<polygon fill="none" stroke="#000000" points="41.5,-1775.5 41.5,-1800.5 172.5,-1800.5 172.5,-1775.5 41.5,-1775.5"/>
<text text-anchor="start" x="46.5" y="-1784.3" font-family="Helvetica,sans-Serif" font-size="14.00" fill="#000000">start_time</text>
<polygon fill="none" stroke="#000000" points="41.5,-1750.5 41.5,-1775.5 172.5,-1775.5 172.5,-1750.5 41.5,-1750.5"/>
<text text-anchor="start" x="46.5" y="-1759.3" font-family="Helvetica,sans-Serif" font-size="14.00" fill="#000000">description</text>
</g>
<!-- workflow_params -->
<g id="node16" class="node">
<title>workflow_params</title>
<polygon fill="none" stroke="#000000" points="33.5,-1930.5 33.5,-1958.5 179.5,-1958.5 179.5,-1930.5 33.5,-1930.5"/>
<text text-anchor="start" x="38.5" y="-1941.7" font-family="Helvetica,sans-Serif" font-weight="bold" font-size="16.00" fill="#000000">workflow_params</text>
<polygon fill="none" stroke="#000000" points="33.5,-1905.5 33.5,-1930.5 179.5,-1930.5 179.5,-1905.5 33.5,-1905.5"/>
<text text-anchor="start" x="38.5" y="-1915.3" font-family="Helvetica,sans-Serif" text-decoration="underline" font-size="14.00" fill="#000000">key</text>
<polygon fill="none" stroke="#000000" points="33.5,-1880.5 33.5,-1905.5 179.5,-1905.5 179.5,-1880.5 33.5,-1880.5"/>
<text text-anchor="start" x="38.5" y="-1889.3" font-family="Helvetica,sans-Serif" font-size="14.00" fill="#000000">value</text>
</g>
<!-- workflow_template_vars -->
<g id="node17" class="node">
<title>workflow_template_vars</title>
<polygon fill="none" stroke="#000000" points="8.5,-2034.5 8.5,-2062.5 205.5,-2062.5 205.5,-2034.5 8.5,-2034.5"/>
<text text-anchor="start" x="13.5" y="-2045.7" font-family="Helvetica,sans-Serif" font-weight="bold" font-size="16.00" fill="#000000">workflow_template_vars</text>
<polygon fill="none" stroke="#000000" points="8.5,-2009.5 8.5,-2034.5 205.5,-2034.5 205.5,-2009.5 8.5,-2009.5"/>
<text text-anchor="start" x="13.5" y="-2019.3" font-family="Helvetica,sans-Serif" text-decoration="underline" font-size="14.00" fill="#000000">key</text>
<polygon fill="none" stroke="#000000" points="8.5,-1984.5 8.5,-2009.5 205.5,-2009.5 205.5,-1984.5 8.5,-1984.5"/>
<text text-anchor="start" x="13.5" y="-1993.3" font-family="Helvetica,sans-Serif" font-size="14.00" fill="#000000">value</text>
</g>
<!-- xtriggers -->
<g id="node18" class="node">
<title>xtriggers</title>
<polygon fill="none" stroke="#000000" points="28.5,-2363.5 28.5,-2391.5 184.5,-2391.5 184.5,-2363.5 28.5,-2363.5"/>
<text text-anchor="start" x="72" y="-2374.7" font-family="Helvetica,sans-Serif" font-weight="bold" font-size="16.00" fill="#000000">xtriggers</text>
<polygon fill="none" stroke="#000000" points="28.5,-2338.5 28.5,-2363.5 184.5,-2363.5 184.5,-2338.5 28.5,-2338.5"/>
<text text-anchor="start" x="33.5" y="-2348.3" font-family="Helvetica,sans-Serif" text-decoration="underline" font-size="14.00" fill="#000000">signature</text>
<polygon fill="none" stroke="#000000" points="28.5,-2313.5 28.5,-2338.5 184.5,-2338.5 184.5,-2313.5 28.5,-2313.5"/>
<text text-anchor="start" x="33.5" y="-2322.3" font-family="Helvetica,sans-Serif" font-size="14.00" fill="#000000">results</text>
<polygon fill="none" stroke="#000000" points="28.5,-2288.5 28.5,-2313.5 184.5,-2313.5 184.5,-2288.5 28.5,-2288.5"/>
<text text-anchor="start" x="33.5" y="-2297.3" font-family="Helvetica,sans-Serif" font-size="14.00" fill="#000000">absolute_outputs</text>
<polygon fill="none" stroke="#000000" points="28.5,-2263.5 28.5,-2288.5 184.5,-2288.5 184.5,-2263.5 28.5,-2263.5"/>
<text text-anchor="start" x="33.5" y="-2272.3" font-family="Helvetica,sans-Serif" font-size="14.00" fill="#000000">broadcast_events</text>
<polygon fill="none" stroke="#000000" points="28.5,-2238.5 28.5,-2263.5 184.5,-2263.5 184.5,-2238.5 28.5,-2238.5"/>
<text text-anchor="start" x="33.5" y="-2247.3" font-family="Helvetica,sans-Serif" font-size="14.00" fill="#000000">broadcast_states</text>
<polygon fill="none" stroke="#000000" points="28.5,-2213.5 28.5,-2238.5 184.5,-2238.5 184.5,-2213.5 28.5,-2213.5"/>
<text text-anchor="start" x="33.5" y="-2222.3" font-family="Helvetica,sans-Serif" font-size="14.00" fill="#000000">inheritance</text>
<polygon fill="none" stroke="#000000" points="28.5,-2188.5 28.5,-2213.5 184.5,-2213.5 184.5,-2188.5 28.5,-2188.5"/>
<text text-anchor="start" x="33.5" y="-2197.3" font-family="Helvetica,sans-Serif" font-size="14.00" fill="#000000">tasks_to_hold</text>
<polygon fill="none" stroke="#000000" points="28.5,-2163.5 28.5,-2188.5 184.5,-2188.5 184.5,-2163.5 28.5,-2163.5"/>
<text text-anchor="start" x="33.5" y="-2172.3" font-family="Helvetica,sans-Serif" font-size="14.00" fill="#000000">workflow_flows</text>
<polygon fill="none" stroke="#000000" points="28.5,-2138.5 28.5,-2163.5 184.5,-2163.5 184.5,-2138.5 28.5,-2138.5"/>
<text text-anchor="start" x="33.5" y="-2147.3" font-family="Helvetica,sans-Serif" font-size="14.00" fill="#000000">workflow_params</text>
<polygon fill="none" stroke="#000000" points="28.5,-2113.5 28.5,-2138.5 184.5,-2138.5 184.5,-2113.5 28.5,-2113.5"/>
<text text-anchor="start" x="33.5" y="-2122.3" font-family="Helvetica,sans-Serif" font-size="14.00" fill="#000000">workflow_template_vars</text>
<polygon fill="none" stroke="#000000" points="28.5,-2088.5 28.5,-2113.5 184.5,-2113.5 184.5,-2088.5 28.5,-2088.5"/>
<text text-anchor="start" x="33.5" y="-2097.3" font-family="Helvetica,sans-Serif" font-size="14.00" fill="#000000">xtriggers</text>
</g>
</g>
</svg>
