<?xml version="1.0" encoding="UTF-8" standalone="no"?>
<!DOCTYPE svg PUBLIC "-//W3C//DTD SVG 1.1//EN"
 "http://www.w3.org/Graphics/SVG/1.1/DTD/svg11.dtd">
<!-- Generated by graphviz version 2.43.0 (0)
 -->
<!-- Title: Example Pages: 1 -->
<svg width="284pt" height="260pt"
 viewBox="0.00 0.00 283.50 260.00" xmlns="http://www.w3.org/2000/svg" xmlns:xlink="http://www.w3.org/1999/xlink">
<g id="graph0" class="graph" transform="scale(1 1) rotate(0) translate(4 256)">
<title>Example</title>
<polygon fill="transparent" stroke="transparent" points="-4,4 -4,-256 279.5,-256 279.5,4 -4,4"/>
<!-- VEHICLE -->
<g id="node1" class="node">
<title>VEHICLE</title>
<polygon fill="powderblue" stroke="royalblue" points="99.5,-252 22.5,-252 22.5,-216 99.5,-216 99.5,-252"/>
<text text-anchor="middle" x="61" y="-230.3" font-family="sans" font-size="14.00">VEHICLE</text>
</g>
<!-- LAND_VEHICLE -->
<g id="node2" class="node">
<title>LAND_VEHICLE</title>
<polygon fill="powderblue" stroke="royalblue" points="122,-180 0,-180 0,-144 122,-144 122,-180"/>
<text text-anchor="middle" x="61" y="-158.3" font-family="sans" font-size="14.00">LAND_VEHICLE</text>
</g>
<!-- VEHICLE&#45;&gt;LAND_VEHICLE -->
<g id="edge1" class="edge">
<title>VEHICLE&#45;&gt;LAND_VEHICLE</title>
<path fill="none" stroke="black" d="M61,-215.7C61,-207.98 61,-198.71 61,-190.11"/>
<polygon fill="black" stroke="black" points="64.5,-190.1 61,-180.1 57.5,-190.1 64.5,-190.1"/>
</g>
<!-- BICYCLE -->
<g id="node3" class="node">
<title>BICYCLE</title>
<polygon fill="powderblue" stroke="royalblue" points="98,-108 24,-108 24,-72 98,-72 98,-108"/>
<text text-anchor="middle" x="61" y="-86.3" font-family="sans" font-size="14.00">BICYCLE</text>
</g>
<!-- LAND_VEHICLE&#45;&gt;BICYCLE -->
<g id="edge2" class="edge">
<title>LAND_VEHICLE&#45;&gt;BICYCLE</title>
<path fill="none" stroke="black" d="M61,-143.7C61,-135.98 61,-126.71 61,-118.11"/>
<polygon fill="black" stroke="black" points="64.5,-118.1 61,-108.1 57.5,-118.1 64.5,-118.1"/>
</g>
<!-- penny_farthing -->
<g id="node5" class="node">
<title>penny_farthing</title>
<polygon fill="powderblue" stroke="royalblue" points="203,-36 53,-36 53,0 203,0 203,-36"/>
<text text-anchor="middle" x="128" y="-14.3" font-family="sans" font-size="14.00">penny_farthing</text>
</g>
<!-- BICYCLE&#45;&gt;penny_farthing -->
<g id="edge3" class="edge">
<title>BICYCLE&#45;&gt;penny_farthing</title>
<path fill="none" stroke="black" d="M77.56,-71.7C85.68,-63.22 95.59,-52.86 104.47,-43.58"/>
<polygon fill="black" stroke="black" points="107.24,-45.75 111.63,-36.1 102.19,-40.91 107.24,-45.75"/>
</g>
<!-- HUMAN_ENGINE -->
<g id="node4" class="node">
<title>HUMAN_ENGINE</title>
<polygon fill="powderblue" stroke="royalblue" points="275.5,-108 116.5,-108 116.5,-72 275.5,-72 275.5,-108"/>
<text text-anchor="middle" x="196" y="-86.3" font-family="sans" font-size="14.00">HUMAN_ENGINE</text>
</g>
<!-- HUMAN_ENGINE&#45;&gt;penny_farthing -->
<g id="edge4" class="edge">
<title>HUMAN_ENGINE&#45;&gt;penny_farthing</title>
<path fill="none" stroke="black" d="M179.19,-71.7C170.87,-63.14 160.69,-52.66 151.61,-43.3"/>
<polygon fill="black" stroke="black" points="154.09,-40.84 144.62,-36.1 149.07,-45.72 154.09,-40.84"/>
</g>
</g>
</svg>
