<?xml version="1.0" encoding="UTF-8" standalone="no"?>
<!DOCTYPE svg PUBLIC "-//W3C//DTD SVG 1.1//EN"
 "http://www.w3.org/Graphics/SVG/1.1/DTD/svg11.dtd">
<!-- Generated by graphviz version 2.43.0 (0)
 -->
<!-- Title: Mini_Cylc Pages: 1 -->
<svg width="206pt" height="188pt"
 viewBox="0.00 0.00 205.58 188.00" xmlns="http://www.w3.org/2000/svg" xmlns:xlink="http://www.w3.org/1999/xlink">
<g id="graph0" class="graph" transform="scale(1 1) rotate(0) translate(4 184)">
<title>Mini_Cylc</title>
<polygon fill="transparent" stroke="transparent" points="-4,4 -4,-184 201.58,-184 201.58,4 -4,4"/>
<!-- bake_cake -->
<g id="node1" class="node">
<title>bake_cake</title>
<ellipse fill="none" stroke="black" cx="98.79" cy="-90" rx="57.39" ry="18"/>
<text text-anchor="middle" x="98.79" y="-86.3" font-family="sans" font-size="14.00">bake_cake</text>
</g>
<!-- sell_cake -->
<g id="node2" class="node">
<title>sell_cake</title>
<ellipse fill="none" stroke="black" cx="98.79" cy="-18" rx="50.89" ry="18"/>
<text text-anchor="middle" x="98.79" y="-14.3" font-family="sans" font-size="14.00">sell_cake</text>
</g>
<!-- bake_cake&#45;&gt;sell_cake -->
<g id="edge1" class="edge">
<title>bake_cake&#45;&gt;sell_cake</title>
<path fill="none" stroke="black" d="M98.79,-71.7C98.79,-63.98 98.79,-54.71 98.79,-46.11"/>
<polygon fill="black" stroke="black" points="102.29,-46.1 98.79,-36.1 95.29,-46.1 102.29,-46.1"/>
</g>
<!-- make_cake_mixture -->
<g id="node3" class="node">
<title>make_cake_mixture</title>
<ellipse fill="none" stroke="black" cx="98.79" cy="-162" rx="98.58" ry="18"/>
<text text-anchor="middle" x="98.79" y="-158.3" font-family="sans" font-size="14.00">make_cake_mixture</text>
</g>
<!-- make_cake_mixture&#45;&gt;bake_cake -->
<g id="edge2" class="edge">
<title>make_cake_mixture&#45;&gt;bake_cake</title>
<path fill="none" stroke="black" d="M98.79,-143.7C98.79,-135.98 98.79,-126.71 98.79,-118.11"/>
<polygon fill="black" stroke="black" points="102.29,-118.1 98.79,-108.1 95.29,-118.1 102.29,-118.1"/>
</g>
</g>
</svg>
