<?xml version="1.0" encoding="UTF-8" standalone="no"?>
<!DOCTYPE svg PUBLIC "-//W3C//DTD SVG 1.1//EN"
 "http://www.w3.org/Graphics/SVG/1.1/DTD/svg11.dtd">
<!-- Generated by graphviz version 2.43.0 (0)
 -->
<!-- Title: example Pages: 1 -->
<svg width="1081pt" height="230pt"
 viewBox="0.00 0.00 1081.44 230.00" xmlns="http://www.w3.org/2000/svg" xmlns:xlink="http://www.w3.org/1999/xlink">
<g id="graph0" class="graph" transform="scale(1 1) rotate(0) translate(4 226)">
<title>example</title>
<polygon fill="transparent" stroke="transparent" points="-4,4 -4,-226 1077.44,-226 1077.44,4 -4,4"/>
<g id="clust1" class="cluster">
<title>cluster_legend</title>
<polygon fill="transparent" stroke="black" stroke-dasharray="5,2" points="343.06,0 343.06,-75 731.44,-75 731.44,0 343.06,0"/>
<text text-anchor="middle" x="537.25" y="-59.8" font-family="sans" font-size="14.00">Legend</text>
</g>
<g id="clust2" class="cluster">
<title>cluster_diagram</title>
</g>
<g id="clust3" class="cluster">
<title>cluster_subshell</title>
<polygon fill="transparent" stroke="black" stroke-dasharray="5,2" points="253.89,-103 253.89,-202 925.65,-202 925.65,-103 253.89,-103"/>
<text text-anchor="middle" x="589.77" y="-186.8" font-family="sans" font-size="14.00">Subshell process</text>
</g>
<!-- user defined script -->
<g id="node1" class="node">
<title>user defined script</title>
<ellipse fill="none" stroke="black" cx="447.25" cy="-26" rx="96.38" ry="18"/>
<text text-anchor="middle" x="447.25" y="-22.3" font-family="sans" font-size="14.00">user defined script</text>
</g>
<!-- cylc defined script -->
<g id="node2" class="node">
<title>cylc defined script</title>
<polygon fill="none" stroke="black" points="723.44,-44 579.44,-44 579.44,-8 723.44,-8 723.44,-44"/>
<text text-anchor="middle" x="651.44" y="-22.3" font-family="sans" font-size="14.00">cylc defined script</text>
</g>
<!-- user defined script&#45;&gt;cylc defined script -->
<!-- cylc&#45;env -->
<g id="node3" class="node">
<title>cylc&#45;env</title>
<polygon fill="none" stroke="black" points="237.89,-159 163.89,-159 163.89,-123 237.89,-123 237.89,-159"/>
<text text-anchor="middle" x="200.89" y="-137.3" font-family="sans" font-size="14.00">cylc&#45;env</text>
</g>
<!-- env&#45;script -->
<g id="node6" class="node">
<title>env&#45;script</title>
<ellipse fill="none" stroke="black" cx="329.79" cy="-141" rx="55.79" ry="18"/>
<text text-anchor="middle" x="329.79" y="-137.3" font-family="sans" font-size="14.00">env&#45;script</text>
</g>
<!-- cylc&#45;env&#45;&gt;env&#45;script -->
<g id="edge3" class="edge">
<title>cylc&#45;env&#45;&gt;env&#45;script</title>
<path fill="none" stroke="black" d="M237.91,-141C245.92,-141 254.65,-141 263.42,-141"/>
<polygon fill="black" stroke="black" points="263.7,-144.5 273.7,-141 263.7,-137.5 263.7,-144.5"/>
</g>
<!-- user&#45;env -->
<g id="node4" class="node">
<title>user&#45;env</title>
<polygon fill="none" stroke="black" points="498.68,-159 421.68,-159 421.68,-123 498.68,-123 498.68,-159"/>
<text text-anchor="middle" x="460.18" y="-137.3" font-family="sans" font-size="14.00">user&#45;env</text>
</g>
<!-- pre&#45;script -->
<g id="node7" class="node">
<title>pre&#45;script</title>
<ellipse fill="none" stroke="black" cx="588.63" cy="-141" rx="53.89" ry="18"/>
<text text-anchor="middle" x="588.63" y="-137.3" font-family="sans" font-size="14.00">pre&#45;script</text>
</g>
<!-- user&#45;env&#45;&gt;pre&#45;script -->
<g id="edge5" class="edge">
<title>user&#45;env&#45;&gt;pre&#45;script</title>
<path fill="none" stroke="black" d="M498.78,-141C506.83,-141 515.56,-141 524.29,-141"/>
<polygon fill="black" stroke="black" points="524.5,-144.5 534.5,-141 524.5,-137.5 524.5,-144.5"/>
</g>
<!-- init&#45;script -->
<g id="node5" class="node">
<title>init&#45;script</title>
<ellipse fill="none" stroke="black" cx="73.95" cy="-141" rx="53.89" ry="18"/>
<text text-anchor="middle" x="73.95" y="-137.3" font-family="sans" font-size="14.00">init&#45;script</text>
</g>
<!-- init&#45;script&#45;&gt;cylc&#45;env -->
<g id="edge2" class="edge">
<title>init&#45;script&#45;&gt;cylc&#45;env</title>
<path fill="none" stroke="black" d="M127.93,-141C136.54,-141 145.39,-141 153.81,-141"/>
<polygon fill="black" stroke="black" points="153.83,-144.5 163.83,-141 153.83,-137.5 153.83,-144.5"/>
</g>
<!-- env&#45;script&#45;&gt;user&#45;env -->
<g id="edge4" class="edge">
<title>env&#45;script&#45;&gt;user&#45;env</title>
<path fill="none" stroke="black" d="M385.98,-141C394.39,-141 403.01,-141 411.25,-141"/>
<polygon fill="black" stroke="black" points="411.44,-144.5 421.44,-141 411.44,-137.5 411.44,-144.5"/>
</g>
<!-- script -->
<g id="node8" class="node">
<title>script</title>
<ellipse fill="none" stroke="black" cx="714.97" cy="-141" rx="36.29" ry="18"/>
<text text-anchor="middle" x="714.97" y="-137.3" font-family="sans" font-size="14.00">script</text>
</g>
<!-- pre&#45;script&#45;&gt;script -->
<g id="edge6" class="edge">
<title>pre&#45;script&#45;&gt;script</title>
<path fill="none" stroke="black" d="M642.72,-141C651.17,-141 659.84,-141 668.1,-141"/>
<polygon fill="black" stroke="black" points="668.3,-144.5 678.3,-141 668.3,-137.5 668.3,-144.5"/>
</g>
<!-- post&#45;script -->
<g id="node9" class="node">
<title>post&#45;script</title>
<ellipse fill="none" stroke="black" cx="846.51" cy="-141" rx="59.29" ry="18"/>
<text text-anchor="middle" x="846.51" y="-137.3" font-family="sans" font-size="14.00">post&#45;script</text>
</g>
<!-- script&#45;&gt;post&#45;script -->
<g id="edge7" class="edge">
<title>script&#45;&gt;post&#45;script</title>
<path fill="none" stroke="black" d="M751.37,-141C759.42,-141 768.25,-141 777.16,-141"/>
<polygon fill="black" stroke="black" points="777.23,-144.5 787.23,-141 777.23,-137.5 777.23,-144.5"/>
</g>
<!-- err&#45;script -->
<g id="node10" class="node">
<title>err&#45;script</title>
<ellipse fill="none" stroke="black" cx="997.55" cy="-125" rx="51.19" ry="18"/>
<text text-anchor="middle" x="997.55" y="-121.3" font-family="sans" font-size="14.00">err&#45;script</text>
</g>
<!-- post&#45;script&#45;&gt;err&#45;script -->
<g id="edge8" class="edge">
<title>post&#45;script&#45;&gt;err&#45;script</title>
<path fill="none" stroke="black" d="M902.58,-135.09C914.13,-133.85 926.34,-132.54 938.01,-131.28"/>
<polygon fill="black" stroke="black" points="938.52,-134.75 948.09,-130.2 937.77,-127.79 938.52,-134.75"/>
</g>
<!-- exit&#45;script -->
<g id="node11" class="node">
<title>exit&#45;script</title>
<ellipse fill="none" stroke="black" cx="997.55" cy="-179" rx="55.79" ry="18"/>
<text text-anchor="middle" x="997.55" y="-175.3" font-family="sans" font-size="14.00">exit&#45;script</text>
</g>
<!-- post&#45;script&#45;&gt;exit&#45;script -->
<g id="edge9" class="edge">
<title>post&#45;script&#45;&gt;exit&#45;script</title>
<path fill="none" stroke="black" d="M892.63,-152.5C908.52,-156.56 926.54,-161.15 943.06,-165.36"/>
<polygon fill="black" stroke="black" points="942.56,-168.85 953.12,-167.93 944.29,-162.06 942.56,-168.85"/>
</g>
</g>
</svg>
