<?xml version="1.0" encoding="UTF-8" standalone="no"?>
<!DOCTYPE svg PUBLIC "-//W3C//DTD SVG 1.1//EN"
 "http://www.w3.org/Graphics/SVG/1.1/DTD/svg11.dtd">
<!-- Generated by graphviz version 2.43.0 (0)
 -->
<!-- Title: Example Pages: 1 -->
<svg width="266pt" height="227pt"
 viewBox="0.00 0.00 266.00 227.00" xmlns="http://www.w3.org/2000/svg" xmlns:xlink="http://www.w3.org/1999/xlink">
<g id="graph0" class="graph" transform="scale(1 1) rotate(0) translate(4 223)">
<title>Example</title>
<polygon fill="transparent" stroke="transparent" points="-4,4 -4,-223 262,-223 262,4 -4,4"/>
<g id="clust1" class="cluster">
<title>cluster_1</title>
<polygon fill="transparent" stroke="green" stroke-dasharray="5,2" points="8,-8 8,-83 126,-83 126,-8 8,-8"/>
<text text-anchor="middle" x="67" y="-15.8" font-family="sans" font-size="14.00" fill="green">:succeed</text>
</g>
<g id="clust2" class="cluster">
<title>cluster_2</title>
<polygon fill="transparent" stroke="red" stroke-dasharray="5,2" points="134,-8 134,-83 250,-83 250,-8 134,-8"/>
<text text-anchor="middle" x="192" y="-15.8" font-family="sans" font-size="14.00" fill="red">:fail</text>
</g>
<!-- make_cake_mixture -->
<g id="node1" class="node">
<title>make_cake_mixture</title>
<ellipse fill="none" stroke="black" cx="129" cy="-201" rx="98.58" ry="18"/>
<text text-anchor="middle" x="129" y="-197.3" font-family="sans" font-size="14.00">make_cake_mixture</text>
</g>
<!-- bake_cake -->
<g id="node2" class="node">
<title>bake_cake</title>
<ellipse fill="none" stroke="black" cx="129" cy="-129" rx="57.39" ry="18"/>
<text text-anchor="middle" x="129" y="-125.3" font-family="sans" font-size="14.00">bake_cake</text>
</g>
<!-- make_cake_mixture&#45;&gt;bake_cake -->
<g id="edge1" class="edge">
<title>make_cake_mixture&#45;&gt;bake_cake</title>
<path fill="none" stroke="black" d="M129,-182.7C129,-174.98 129,-165.71 129,-157.11"/>
<polygon fill="black" stroke="black" points="132.5,-157.1 129,-147.1 125.5,-157.1 132.5,-157.1"/>
</g>
<!-- sell_cake -->
<g id="node3" class="node">
<title>sell_cake</title>
<ellipse fill="none" stroke="black" cx="67" cy="-57" rx="50.89" ry="18"/>
<text text-anchor="middle" x="67" y="-53.3" font-family="sans" font-size="14.00">sell_cake</text>
</g>
<!-- bake_cake&#45;&gt;sell_cake -->
<g id="edge2" class="edge">
<title>bake_cake&#45;&gt;sell_cake</title>
<path fill="none" stroke="black" d="M114.31,-111.41C106.59,-102.69 96.98,-91.85 88.44,-82.21"/>
<polygon fill="black" stroke="black" points="90.84,-79.64 81.59,-74.47 85.6,-84.28 90.84,-79.64"/>
</g>
<!-- eat_cake -->
<g id="node4" class="node">
<title>eat_cake</title>
<ellipse fill="none" stroke="black" cx="192" cy="-57" rx="50.09" ry="18"/>
<text text-anchor="middle" x="192" y="-53.3" font-family="sans" font-size="14.00">eat_cake</text>
</g>
<!-- bake_cake&#45;&gt;eat_cake -->
<g id="edge3" class="edge">
<title>bake_cake&#45;&gt;eat_cake</title>
<path fill="none" stroke="black" d="M143.93,-111.41C151.85,-102.61 161.73,-91.63 170.47,-81.92"/>
<polygon fill="black" stroke="black" points="173.09,-84.24 177.18,-74.47 167.89,-79.56 173.09,-84.24"/>
</g>
</g>
</svg>
