<?xml version="1.0" encoding="UTF-8" standalone="no"?>
<!DOCTYPE svg PUBLIC "-//W3C//DTD SVG 1.1//EN"
 "http://www.w3.org/Graphics/SVG/1.1/DTD/svg11.dtd">
<!-- Generated by graphviz version 2.40.1 (20161225.0304)
 -->
<!-- Title: Example Pages: 1 -->
<svg width="504pt" height="151pt"
 viewBox="0.00 0.00 504.00 150.75" xmlns="http://www.w3.org/2000/svg" xmlns:xlink="http://www.w3.org/1999/xlink">
<g id="graph0" class="graph" transform="scale(.4541 .4541) rotate(0) translate(4 328)">
<title>Example</title>
<polygon fill="transparent" stroke="transparent" points="-4,4 -4,-328 1106,-328 1106,4 -4,4"/>
<!-- root -->
<g id="node1" class="node">
<title>root</title>
<polygon fill="#b0e0e6" stroke="#4169e1" points="709,-324 655,-324 655,-288 709,-288 709,-324"/>
<text text-anchor="middle" x="682" y="-302.3" font-family="sans" font-size="14.00" fill="#000000">root</text>
</g>
<!-- ENGINE -->
<g id="node2" class="node">
<title>ENGINE</title>
<polygon fill="#b0e0e6" stroke="#4169e1" points="593.5,-180 522.5,-180 522.5,-144 593.5,-144 593.5,-180"/>
<text text-anchor="middle" x="558" y="-158.3" font-family="sans" font-size="14.00" fill="#000000">ENGINE</text>
</g>
<!-- root&#45;&gt;ENGINE -->
<g id="edge1" class="edge">
<title>root&#45;&gt;ENGINE</title>
<path fill="none" stroke="#4169e1" d="M666.2953,-287.7623C644.4931,-262.4436 604.9462,-216.5182 580.1521,-187.7251"/>
<polygon fill="#4169e1" stroke="#4169e1" points="582.7546,-185.3835 573.5772,-180.0896 577.4502,-189.9512 582.7546,-185.3835"/>
</g>
<!-- VEHICLE -->
<g id="node3" class="node">
<title>VEHICLE</title>
<polygon fill="#b0e0e6" stroke="#4169e1" points="774.5,-252 697.5,-252 697.5,-216 774.5,-216 774.5,-252"/>
<text text-anchor="middle" x="736" y="-230.3" font-family="sans" font-size="14.00" fill="#000000">VEHICLE</text>
</g>
<!-- root&#45;&gt;VEHICLE -->
<g id="edge2" class="edge">
<title>root&#45;&gt;VEHICLE</title>
<path fill="none" stroke="#4169e1" d="M695.6265,-287.8314C701.846,-279.5386 709.3322,-269.557 716.16,-260.4533"/>
<polygon fill="#4169e1" stroke="#4169e1" points="718.99,-262.5133 722.19,-252.4133 713.39,-258.3133 718.99,-262.5133"/>
</g>
<!-- INTERNAL_COMBUSTION_ENGINE -->
<g id="node4" class="node">
<title>INTERNAL_COMBUSTION_ENGINE</title>
<polygon fill="#b0e0e6" stroke="#4169e1" points="699.5,-108 416.5,-108 416.5,-72 699.5,-72 699.5,-108"/>
<text text-anchor="middle" x="558" y="-86.3" font-family="sans" font-size="14.00" fill="#000000">INTERNAL_COMBUSTION_ENGINE</text>
</g>
<!-- ENGINE&#45;&gt;INTERNAL_COMBUSTION_ENGINE -->
<g id="edge3" class="edge">
<title>ENGINE&#45;&gt;INTERNAL_COMBUSTION_ENGINE</title>
<path fill="none" stroke="#4169e1" d="M558,-143.8314C558,-136.131 558,-126.9743 558,-118.4166"/>
<polygon fill="#4169e1" stroke="#4169e1" points="561.5001,-118.4132 558,-108.4133 554.5001,-118.4133 561.5001,-118.4132"/>
</g>
<!-- TURBINE_ENGINE -->
<g id="node5" class="node">
<title>TURBINE_ENGINE</title>
<polygon fill="#b0e0e6" stroke="#4169e1" points="170,-108 0,-108 0,-72 170,-72 170,-108"/>
<text text-anchor="middle" x="85" y="-86.3" font-family="sans" font-size="14.00" fill="#000000">TURBINE_ENGINE</text>
</g>
<!-- ENGINE&#45;&gt;TURBINE_ENGINE -->
<g id="edge4" class="edge">
<title>ENGINE&#45;&gt;TURBINE_ENGINE</title>
<path fill="none" stroke="#4169e1" d="M522.3816,-157.5011C456.7638,-149.0884 312.1556,-129.9695 179.9244,-108.1147"/>
<polygon fill="#4169e1" stroke="#4169e1" points="180.4603,-104.6559 170.0218,-106.469 179.3126,-111.5611 180.4603,-104.6559"/>
</g>
<!-- HUMAN_ENGINE -->
<g id="node6" class="node">
<title>HUMAN_ENGINE</title>
<polygon fill="#b0e0e6" stroke="#4169e1" points="878,-108 718,-108 718,-72 878,-72 878,-108"/>
<text text-anchor="middle" x="798" y="-86.3" font-family="sans" font-size="14.00" fill="#000000">HUMAN_ENGINE</text>
</g>
<!-- ENGINE&#45;&gt;HUMAN_ENGINE -->
<g id="edge5" class="edge">
<title>ENGINE&#45;&gt;HUMAN_ENGINE</title>
<path fill="none" stroke="#4169e1" d="M593.8857,-146.9111C596.6173,-145.8881 599.344,-144.9055 602,-144 638.491,-131.5588 679.5251,-119.9034 714.582,-110.6282"/>
<polygon fill="#4169e1" stroke="#4169e1" points="715.5189,-114.0009 724.3026,-108.0766 713.7416,-107.2303 715.5189,-114.0009"/>
</g>
<!-- LAND_VEHICLE -->
<g id="node7" class="node">
<title>LAND_VEHICLE</title>
<polygon fill="#b0e0e6" stroke="#4169e1" points="1016.5,-180 891.5,-180 891.5,-144 1016.5,-144 1016.5,-180"/>
<text text-anchor="middle" x="954" y="-158.3" font-family="sans" font-size="14.00" fill="#000000">LAND_VEHICLE</text>
</g>
<!-- VEHICLE&#45;&gt;LAND_VEHICLE -->
<g id="edge6" class="edge">
<title>VEHICLE&#45;&gt;LAND_VEHICLE</title>
<path fill="none" stroke="#4169e1" d="M774.7228,-221.2108C806.5082,-210.7129 852.1927,-195.6244 889.4886,-183.3065"/>
<polygon fill="#4169e1" stroke="#4169e1" points="890.8724,-186.5355 899.2702,-180.0759 888.6771,-179.8887 890.8724,-186.5355"/>
</g>
<!-- WATER_VEHICLE -->
<g id="node8" class="node">
<title>WATER_VEHICLE</title>
<polygon fill="#b0e0e6" stroke="#4169e1" points="873.5,-180 738.5,-180 738.5,-144 873.5,-144 873.5,-180"/>
<text text-anchor="middle" x="806" y="-158.3" font-family="sans" font-size="14.00" fill="#000000">WATER_VEHICLE</text>
</g>
<!-- VEHICLE&#45;&gt;WATER_VEHICLE -->
<g id="edge7" class="edge">
<title>VEHICLE&#45;&gt;WATER_VEHICLE</title>
<path fill="none" stroke="#4169e1" d="M753.664,-215.8314C761.9732,-207.2848 772.0264,-196.9443 781.0918,-187.6198"/>
<polygon fill="#4169e1" stroke="#4169e1" points="783.6369,-190.023 788.0982,-180.4133 778.6179,-185.1435 783.6369,-190.023"/>
</g>
<!-- AIR_VEHICLE -->
<g id="node9" class="node">
<title>AIR_VEHICLE</title>
<polygon fill="#b0e0e6" stroke="#4169e1" points="720.5,-180 611.5,-180 611.5,-144 720.5,-144 720.5,-180"/>
<text text-anchor="middle" x="666" y="-158.3" font-family="sans" font-size="14.00" fill="#000000">AIR_VEHICLE</text>
</g>
<!-- VEHICLE&#45;&gt;AIR_VEHICLE -->
<g id="edge8" class="edge">
<title>VEHICLE&#45;&gt;AIR_VEHICLE</title>
<path fill="none" stroke="#4169e1" d="M718.336,-215.8314C710.0268,-207.2848 699.9736,-196.9443 690.9082,-187.6198"/>
<polygon fill="#4169e1" stroke="#4169e1" points="693.3821,-185.1435 683.9018,-180.4133 688.3631,-190.023 693.3821,-185.1435"/>
</g>
<!-- r44 -->
<g id="node10" class="node">
<title>r44</title>
<polygon fill="#b0e0e6" stroke="#4169e1" points="467,-36 413,-36 413,0 467,0 467,-36"/>
<text text-anchor="middle" x="440" y="-14.3" font-family="sans" font-size="14.00" fill="#000000">r44</text>
</g>
<!-- INTERNAL_COMBUSTION_ENGINE&#45;&gt;r44 -->
<g id="edge9" class="edge">
<title>INTERNAL_COMBUSTION_ENGINE&#45;&gt;r44</title>
<path fill="none" stroke="#4169e1" d="M528.2236,-71.8314C512.4394,-62.2003 492.9219,-50.2913 476.2608,-40.1252"/>
<polygon fill="#4169e1" stroke="#4169e1" points="477.6998,-36.9032 467.3403,-34.6822 474.0537,-42.8787 477.6998,-36.9032"/>
</g>
<!-- bht130 -->
<g id="node11" class="node">
<title>bht130</title>
<polygon fill="#b0e0e6" stroke="#4169e1" points="647.5,-36 580.5,-36 580.5,0 647.5,0 647.5,-36"/>
<text text-anchor="middle" x="614" y="-14.3" font-family="sans" font-size="14.00" fill="#000000">bht130</text>
</g>
<!-- INTERNAL_COMBUSTION_ENGINE&#45;&gt;bht130 -->
<g id="edge10" class="edge">
<title>INTERNAL_COMBUSTION_ENGINE&#45;&gt;bht130</title>
<path fill="none" stroke="#4169e1" d="M572.1312,-71.8314C578.5811,-63.5386 586.3445,-53.557 593.4252,-44.4533"/>
<polygon fill="#4169e1" stroke="#4169e1" points="596.3019,-46.4556 599.6786,-36.4133 590.7764,-42.158 596.3019,-46.4556"/>
</g>
<!-- v22 -->
<g id="node12" class="node">
<title>v22</title>
<polygon fill="#b0e0e6" stroke="#4169e1" points="258,-36 204,-36 204,0 258,0 258,-36"/>
<text text-anchor="middle" x="231" y="-14.3" font-family="sans" font-size="14.00" fill="#000000">v22</text>
</g>
<!-- TURBINE_ENGINE&#45;&gt;v22 -->
<g id="edge11" class="edge">
<title>TURBINE_ENGINE&#45;&gt;v22</title>
<path fill="none" stroke="#4169e1" d="M121.842,-71.8314C144.1645,-60.823 172.5219,-46.8385 194.7387,-35.8823"/>
<polygon fill="#4169e1" stroke="#4169e1" points="196.428,-38.9517 203.8487,-31.3897 193.3319,-32.6736 196.428,-38.9517"/>
</g>
<!-- a380 -->
<g id="node13" class="node">
<title>a380</title>
<polygon fill="#b0e0e6" stroke="#4169e1" points="149,-36 95,-36 95,0 149,0 149,-36"/>
<text text-anchor="middle" x="122" y="-14.3" font-family="sans" font-size="14.00" fill="#000000">a380</text>
</g>
<!-- TURBINE_ENGINE&#45;&gt;a380 -->
<g id="edge12" class="edge">
<title>TURBINE_ENGINE&#45;&gt;a380</title>
<path fill="none" stroke="#4169e1" d="M94.3367,-71.8314C98.4243,-63.8771 103.3104,-54.369 107.8309,-45.5723"/>
<polygon fill="#4169e1" stroke="#4169e1" points="111.0799,-46.9074 112.5376,-36.4133 104.8539,-43.7078 111.0799,-46.9074"/>
</g>
<!-- penny_farthing -->
<g id="node14" class="node">
<title>penny_farthing</title>
<polygon fill="#b0e0e6" stroke="#4169e1" points="1007.5,-36 854.5,-36 854.5,0 1007.5,0 1007.5,-36"/>
<text text-anchor="middle" x="931" y="-14.3" font-family="sans" font-size="14.00" fill="#000000">penny_farthing</text>
</g>
<!-- HUMAN_ENGINE&#45;&gt;penny_farthing -->
<g id="edge13" class="edge">
<title>HUMAN_ENGINE&#45;&gt;penny_farthing</title>
<path fill="none" stroke="#4169e1" d="M831.5615,-71.8314C848.8881,-62.4516 870.2058,-50.9112 888.6536,-40.9244"/>
<polygon fill="#4169e1" stroke="#4169e1" points="890.3214,-44.0015 897.4492,-36.1628 886.9889,-37.8457 890.3214,-44.0015"/>
</g>
<!-- HOVERCRAFT -->
<g id="node17" class="node">
<title>HOVERCRAFT</title>
<polygon fill="#b0e0e6" stroke="#4169e1" points="1008,-108 896,-108 896,-72 1008,-72 1008,-108"/>
<text text-anchor="middle" x="952" y="-86.3" font-family="sans" font-size="14.00" fill="#000000">HOVERCRAFT</text>
</g>
<!-- LAND_VEHICLE&#45;&gt;HOVERCRAFT -->
<g id="edge19" class="edge">
<title>LAND_VEHICLE&#45;&gt;HOVERCRAFT</title>
<path fill="none" stroke="#4169e1" d="M953.4953,-143.8314C953.2814,-136.131 953.0271,-126.9743 952.7894,-118.4166"/>
<polygon fill="#4169e1" stroke="#4169e1" points="956.2879,-118.3122 952.5115,-108.4133 949.2906,-118.5066 956.2879,-118.3122"/>
</g>
<!-- BICYCLE -->
<g id="node18" class="node">
<title>BICYCLE</title>
<polygon fill="#b0e0e6" stroke="#4169e1" points="1102,-108 1026,-108 1026,-72 1102,-72 1102,-108"/>
<text text-anchor="middle" x="1064" y="-86.3" font-family="sans" font-size="14.00" fill="#000000">BICYCLE</text>
</g>
<!-- LAND_VEHICLE&#45;&gt;BICYCLE -->
<g id="edge20" class="edge">
<title>LAND_VEHICLE&#45;&gt;BICYCLE</title>
<path fill="none" stroke="#4169e1" d="M981.7576,-143.8314C995.697,-134.7074 1012.7598,-123.539 1027.7231,-113.7449"/>
<polygon fill="#4169e1" stroke="#4169e1" points="1029.801,-116.5679 1036.2512,-108.1628 1025.9674,-110.711 1029.801,-116.5679"/>
</g>
<!-- WATER_VEHICLE&#45;&gt;HOVERCRAFT -->
<g id="edge21" class="edge">
<title>WATER_VEHICLE&#45;&gt;HOVERCRAFT</title>
<path fill="none" stroke="#4169e1" d="M842.842,-143.8314C862.1082,-134.3302 885.8699,-122.6121 906.2992,-112.5374"/>
<polygon fill="#4169e1" stroke="#4169e1" points="908.0023,-115.6 915.423,-108.038 904.9062,-109.3219 908.0023,-115.6"/>
</g>
<!-- AIRPLANE -->
<g id="node15" class="node">
<title>AIRPLANE</title>
<polygon fill="#b0e0e6" stroke="#4169e1" points="274,-108 188,-108 188,-72 274,-72 274,-108"/>
<text text-anchor="middle" x="231" y="-86.3" font-family="sans" font-size="14.00" fill="#000000">AIRPLANE</text>
</g>
<!-- AIR_VEHICLE&#45;&gt;AIRPLANE -->
<g id="edge22" class="edge">
<title>AIR_VEHICLE&#45;&gt;AIRPLANE</title>
<path fill="none" stroke="#4169e1" d="M611.3274,-145.9953C608.1835,-145.2711 605.0584,-144.5986 602,-144 465.1238,-117.2112 423.9905,-138.523 284.0115,-107.9466"/>
<polygon fill="#4169e1" stroke="#4169e1" points="284.7262,-104.52 274.2036,-105.7555 283.2,-111.3517 284.7262,-104.52"/>
</g>
<!-- HELICOPTER -->
<g id="node16" class="node">
<title>HELICOPTER</title>
<polygon fill="#b0e0e6" stroke="#4169e1" points="398,-108 292,-108 292,-72 398,-72 398,-108"/>
<text text-anchor="middle" x="345" y="-86.3" font-family="sans" font-size="14.00" fill="#000000">HELICOPTER</text>
</g>
<!-- AIR_VEHICLE&#45;&gt;HELICOPTER -->
<g id="edge23" class="edge">
<title>AIR_VEHICLE&#45;&gt;HELICOPTER</title>
<path fill="none" stroke="#4169e1" d="M611.2724,-146.252C608.1426,-145.4624 605.0355,-144.7055 602,-144 519.2586,-124.7694 494.5311,-128.0349 408.0051,-108.1084"/>
<polygon fill="#4169e1" stroke="#4169e1" points="408.542,-104.6395 398.0073,-105.7673 406.9459,-111.4552 408.542,-104.6395"/>
</g>
<!-- AIR_VEHICLE&#45;&gt;HOVERCRAFT -->
<g id="edge24" class="edge">
<title>AIR_VEHICLE&#45;&gt;HOVERCRAFT</title>
<path fill="none" stroke="#4169e1" d="M720.7655,-146.4077C723.8857,-145.5784 726.9803,-144.7704 730,-144 796.3863,-127.064 815.9365,-125.6526 885.9293,-108.2136"/>
<polygon fill="#4169e1" stroke="#4169e1" points="886.8258,-111.5972 895.6708,-105.7649 885.1192,-104.8084 886.8258,-111.5972"/>
</g>
<!-- AIRPLANE&#45;&gt;v22 -->
<g id="edge14" class="edge">
<title>AIRPLANE&#45;&gt;v22</title>
<path fill="none" stroke="#4169e1" d="M231,-71.8314C231,-64.131 231,-54.9743 231,-46.4166"/>
<polygon fill="#4169e1" stroke="#4169e1" points="234.5001,-46.4132 231,-36.4133 227.5001,-46.4133 234.5001,-46.4132"/>
</g>
<!-- AIRPLANE&#45;&gt;a380 -->
<g id="edge15" class="edge">
<title>AIRPLANE&#45;&gt;a380</title>
<path fill="none" stroke="#4169e1" d="M203.4947,-71.8314C189.5766,-62.6377 172.5161,-51.3684 157.6079,-41.5208"/>
<polygon fill="#4169e1" stroke="#4169e1" points="159.392,-38.5047 149.1189,-35.9134 155.5338,-44.3455 159.392,-38.5047"/>
</g>
<!-- HELICOPTER&#45;&gt;r44 -->
<g id="edge17" class="edge">
<title>HELICOPTER&#45;&gt;r44</title>
<path fill="none" stroke="#4169e1" d="M368.9725,-71.8314C380.7861,-62.8779 395.1972,-51.9558 407.9435,-42.2955"/>
<polygon fill="#4169e1" stroke="#4169e1" points="410.1795,-44.9925 416.0352,-36.1628 405.9514,-39.4137 410.1795,-44.9925"/>
</g>
<!-- HELICOPTER&#45;&gt;v22 -->
<g id="edge16" class="edge">
<title>HELICOPTER&#45;&gt;v22</title>
<path fill="none" stroke="#4169e1" d="M316.233,-71.8314C301.2065,-62.3409 282.6777,-50.6386 266.7383,-40.5716"/>
<polygon fill="#4169e1" stroke="#4169e1" points="268.512,-37.5522 258.1881,-35.1715 264.7741,-43.4707 268.512,-37.5522"/>
</g>
<!-- HOVERCRAFT&#45;&gt;bht130 -->
<g id="edge18" class="edge">
<title>HOVERCRAFT&#45;&gt;bht130</title>
<path fill="none" stroke="#4169e1" d="M895.6964,-74.1305C892.7604,-73.39 889.8484,-72.6751 887,-72 806.6191,-52.9488 711.8299,-35.2576 657.7351,-25.608"/>
<polygon fill="#4169e1" stroke="#4169e1" points="658.2556,-22.1458 647.7978,-23.8443 657.0323,-29.0381 658.2556,-22.1458"/>
</g>
<!-- BICYCLE&#45;&gt;penny_farthing -->
<g id="edge25" class="edge">
<title>BICYCLE&#45;&gt;penny_farthing</title>
<path fill="none" stroke="#4169e1" d="M1030.4385,-71.8314C1013.1119,-62.4516 991.7942,-50.9112 973.3464,-40.9244"/>
<polygon fill="#4169e1" stroke="#4169e1" points="975.0111,-37.8457 964.5508,-36.1628 971.6786,-44.0015 975.0111,-37.8457"/>
</g>
</g>
</svg>
