<?xml version="1.0" encoding="UTF-8" standalone="no"?>
<!DOCTYPE svg PUBLIC "-//W3C//DTD SVG 1.1//EN"
 "http://www.w3.org/Graphics/SVG/1.1/DTD/svg11.dtd">
<!-- Generated by graphviz version 2.40.1 (20161225.0304)
 -->
<!-- Title: example Pages: 1 -->
<svg width="504pt" height="97pt"
 viewBox="0.00 0.00 504.00 97.17" xmlns="http://www.w3.org/2000/svg" xmlns:xlink="http://www.w3.org/1999/xlink">
<g id="graph0" class="graph" transform="scale(.4706 .4706) rotate(0) translate(4 202.4802)">
<title>example</title>
<polygon fill="transparent" stroke="transparent" points="-4,4 -4,-202.4802 1067,-202.4802 1067,4 -4,4"/>
<g id="clust1" class="cluster">
<title>cluster_T00</title>
<polygon fill="transparent" stroke="#000000" stroke-dasharray="5,2" points="8,-97.7401 8,-190.4802 300,-190.4802 300,-97.7401 8,-97.7401"/>
<text text-anchor="middle" x="154" y="-175.2802" font-family="sans" font-size="14.00" fill="#000000">+PT0H</text>
</g>
<g id="clust2" class="cluster">
<title>cluster_T03</title>
<polygon fill="transparent" stroke="#000000" stroke-dasharray="5,2" points="763,-97.7401 763,-190.4802 1055,-190.4802 1055,-97.7401 763,-97.7401"/>
<text text-anchor="middle" x="909" y="-175.2802" font-family="sans" font-size="14.00" fill="#000000">+PT3H</text>
</g>
<g id="clust3" class="cluster">
<title>cluster_T06</title>
<polygon fill="transparent" stroke="#000000" stroke-dasharray="5,2" points="308,-8 308,-190.4802 755,-190.4802 755,-8 308,-8"/>
<text text-anchor="middle" x="531.5" y="-175.2802" font-family="sans" font-size="14.00" fill="#000000">+PT6H</text>
</g>
<!-- observations.t00 -->
<g id="node1" class="node">
<title>observations.t00</title>
<ellipse fill="none" stroke="#000000" cx="154" cy="-132.6102" rx="137.7717" ry="26.7407"/>
<text text-anchor="middle" x="154" y="-136.4102" font-family="sans" font-size="14.00" fill="#000000">consolidate observations</text>
<text text-anchor="middle" x="154" y="-121.4102" font-family="sans" font-size="14.00" fill="#000000">+PT0H</text>
</g>
<!-- forecast.t06 -->
<g id="node3" class="node">
<title>forecast.t06</title>
<ellipse fill="none" stroke="#000000" cx="566" cy="-42.8701" rx="53.066" ry="26.7407"/>
<text text-anchor="middle" x="566" y="-46.6701" font-family="sans" font-size="14.00" fill="#000000">forecast</text>
<text text-anchor="middle" x="566" y="-31.6701" font-family="sans" font-size="14.00" fill="#000000">+PT6H</text>
</g>
<!-- observations.t00&#45;&gt;forecast.t06 -->
<g id="edge1" class="edge">
<title>observations.t00&#45;&gt;forecast.t06</title>
<path fill="none" stroke="#000000" d="M241.9681,-111.82C262.3181,-107.1052 283.8979,-102.1811 304,-97.7401 373.4889,-82.3887 453.5905,-65.77 506.7451,-54.8929"/>
<polygon fill="#000000" stroke="#000000" points="507.5798,-58.2947 516.6765,-52.8632 506.1782,-51.4364 507.5798,-58.2947"/>
</g>
<!-- observations.t03 -->
<g id="node2" class="node">
<title>observations.t03</title>
<ellipse fill="none" stroke="#000000" cx="909" cy="-132.6102" rx="137.7717" ry="26.7407"/>
<text text-anchor="middle" x="909" y="-136.4102" font-family="sans" font-size="14.00" fill="#000000">consolidate observations</text>
<text text-anchor="middle" x="909" y="-121.4102" font-family="sans" font-size="14.00" fill="#000000">+PT3H</text>
</g>
<!-- observations.t03&#45;&gt;forecast.t06 -->
<g id="edge2" class="edge">
<title>observations.t03&#45;&gt;forecast.t06</title>
<path fill="none" stroke="#000000" d="M826.4065,-111.001C763.7041,-94.596 679.0861,-72.4571 623.5632,-57.9305"/>
<polygon fill="#000000" stroke="#000000" points="624.1065,-54.4549 613.5463,-55.3097 622.3347,-61.227 624.1065,-54.4549"/>
</g>
<!-- get_rainfall.t06 -->
<g id="node4" class="node">
<title>get_rainfall.t06</title>
<ellipse fill="none" stroke="#000000" cx="678" cy="-132.6102" rx="68.6788" ry="26.7407"/>
<text text-anchor="middle" x="678" y="-136.4102" font-family="sans" font-size="14.00" fill="#000000">get_rainfall</text>
<text text-anchor="middle" x="678" y="-121.4102" font-family="sans" font-size="14.00" fill="#000000">+PT6H</text>
</g>
<!-- get_rainfall.t06&#45;&gt;forecast.t06 -->
<g id="edge4" class="edge">
<title>get_rainfall.t06&#45;&gt;forecast.t06</title>
<path fill="none" stroke="#000000" d="M647.6912,-108.3252C633.6979,-97.1131 616.9722,-83.7116 602.31,-71.9635"/>
<polygon fill="#000000" stroke="#000000" points="604.3996,-69.1528 594.4071,-65.6313 600.0225,-74.6156 604.3996,-69.1528"/>
</g>
<!-- observations.t06 -->
<g id="node5" class="node">
<title>observations.t06</title>
<ellipse fill="none" stroke="#000000" cx="454" cy="-132.6102" rx="137.7717" ry="26.7407"/>
<text text-anchor="middle" x="454" y="-136.4102" font-family="sans" font-size="14.00" fill="#000000">consolidate observations</text>
<text text-anchor="middle" x="454" y="-121.4102" font-family="sans" font-size="14.00" fill="#000000">+PT6H</text>
</g>
<!-- observations.t06&#45;&gt;forecast.t06 -->
<g id="edge3" class="edge">
<title>observations.t06&#45;&gt;forecast.t06</title>
<path fill="none" stroke="#000000" d="M486.6961,-106.4124C500.1896,-95.6007 515.8802,-83.0286 529.7262,-71.9345"/>
<polygon fill="#000000" stroke="#000000" points="532.0193,-74.5821 537.6348,-65.5977 527.6423,-69.1193 532.0193,-74.5821"/>
</g>
</g>
</svg>
