<?xml version="1.0" encoding="UTF-8" standalone="no"?>
<!DOCTYPE svg PUBLIC "-//W3C//DTD SVG 1.1//EN"
 "http://www.w3.org/Graphics/SVG/1.1/DTD/svg11.dtd">
<!-- Generated by graphviz version 2.40.1 (20161225.0304)
 -->
<!-- Title: Example Pages: 1 -->
<svg width="167pt" height="216pt"
 viewBox="0.00 0.00 166.72 216.00" xmlns="http://www.w3.org/2000/svg" xmlns:xlink="http://www.w3.org/1999/xlink">
<g id="graph0" class="graph" transform="scale(.8954 .8954) rotate(0) translate(4 237.2203)">
<title>Example</title>
<polygon fill="transparent" stroke="transparent" points="-4,4 -4,-237.2203 182.1909,-237.2203 182.1909,4 -4,4"/>
<!-- 1/foo -->
<g id="node1" class="node">
<title>1/foo</title>
<ellipse fill="none" stroke="#000000" cx="89.0955" cy="-206.3503" rx="89.191" ry="26.7407"/>
<text text-anchor="middle" x="89.0955" y="-210.1503" font-family="sans" font-size="14.00" fill="#000000">foo</text>
<text text-anchor="middle" x="89.0955" y="-195.1503" font-family="sans" font-size="14.00" fill="#000000">2000&#45;01&#45;01T00</text>
</g>
<!-- 2/foo -->
<g id="node2" class="node">
<title>2/foo</title>
<ellipse fill="none" stroke="#000000" cx="89.0955" cy="-116.6102" rx="89.191" ry="26.7407"/>
<text text-anchor="middle" x="89.0955" y="-120.4102" font-family="sans" font-size="14.00" fill="#000000">foo</text>
<text text-anchor="middle" x="89.0955" y="-105.4102" font-family="sans" font-size="14.00" fill="#000000">2000&#45;01&#45;02T00</text>
</g>
<!-- 1/foo&#45;&gt;2/foo -->
<g id="edge1" class="edge">
<title>1/foo&#45;&gt;2/foo</title>
<path fill="none" stroke="#000000" d="M89.0955,-179.4253C89.0955,-171.3504 89.0955,-162.3471 89.0955,-153.7362"/>
<polygon fill="#000000" stroke="#000000" points="92.5956,-153.5161 89.0955,-143.5162 85.5956,-153.5162 92.5956,-153.5161"/>
</g>
<!-- 3/foo -->
<g id="node3" class="node">
<title>3/foo</title>
<ellipse fill="none" stroke="#000000" cx="89.0955" cy="-26.8701" rx="89.191" ry="26.7407"/>
<text text-anchor="middle" x="89.0955" y="-30.6701" font-family="sans" font-size="14.00" fill="#000000">foo</text>
<text text-anchor="middle" x="89.0955" y="-15.6701" font-family="sans" font-size="14.00" fill="#000000">2000&#45;01&#45;03T00</text>
</g>
<!-- 2/foo&#45;&gt;3/foo -->
<g id="edge2" class="edge">
<title>2/foo&#45;&gt;3/foo</title>
<path fill="none" stroke="#000000" d="M89.0955,-89.6852C89.0955,-81.6102 89.0955,-72.607 89.0955,-63.9961"/>
<polygon fill="#000000" stroke="#000000" points="92.5956,-63.776 89.0955,-53.776 85.5956,-63.7761 92.5956,-63.776"/>
</g>
</g>
</svg>
