<?xml version="1.0" encoding="UTF-8" standalone="no"?>
<!DOCTYPE svg PUBLIC "-//W3C//DTD SVG 1.1//EN"
 "http://www.w3.org/Graphics/SVG/1.1/DTD/svg11.dtd">
<!-- Generated by graphviz version 2.40.1 (20161225.0304)
 -->
<!-- Title: _ Pages: 1 -->
<svg width="172pt" height="380pt"
 viewBox="0.00 0.00 172.19 380.00" xmlns="http://www.w3.org/2000/svg" xmlns:xlink="http://www.w3.org/1999/xlink">
<g id="graph0" class="graph" transform="scale(1 1) rotate(0) translate(4 376)">
<title>_</title>
<polygon fill="transparent" stroke="transparent" points="-4,4 -4,-376 168.1949,-376 168.1949,4 -4,4"/>
<!-- Jobs -->
<g id="node1" class="node">
<title>Jobs</title>
<ellipse fill="none" stroke="#000000" cx="57.1949" cy="-354" rx="30.5947" ry="18"/>
<text text-anchor="middle" x="57.1949" y="-350.3" font-family="sans" font-size="14.00" fill="#000000">Jobs</text>
</g>
<!-- Scheduler -->
<g id="node2" class="node">
<title>Scheduler</title>
<ellipse fill="none" stroke="#000000" cx="57.1949" cy="-237" rx="57.3905" ry="18"/>
<text text-anchor="middle" x="57.1949" y="-233.3" font-family="sans" font-size="14.00" fill="#000000">Scheduler</text>
</g>
<!-- Jobs&#45;&gt;Scheduler -->
<g id="edge1" class="edge">
<title>Jobs&#45;&gt;Scheduler</title>
<path fill="none" stroke="#000000" d="M57.1949,-335.9752C57.1949,-317.1356 57.1949,-287.3112 57.1949,-265.3213"/>
<polygon fill="#000000" stroke="#000000" points="60.695,-265.2381 57.1949,-255.2381 53.695,-265.2381 60.695,-265.2381"/>
<text text-anchor="middle" x="85.1949" y="-306.8" font-family="Times,serif" font-size="14.00" fill="#000000"> ZMQ</text>
<text text-anchor="middle" x="85.1949" y="-291.8" font-family="Times,serif" font-size="14.00" fill="#000000"> GraphQL</text>
<text text-anchor="middle" x="85.1949" y="-276.8" font-family="Times,serif" font-size="14.00" fill="#000000"> (default)</text>
</g>
<!-- UIS -->
<g id="node3" class="node">
<title>UIS</title>
<ellipse fill="none" stroke="#000000" cx="57.1949" cy="-120" rx="27" ry="18"/>
<text text-anchor="middle" x="57.1949" y="-116.3" font-family="sans" font-size="14.00" fill="#000000">UIS</text>
</g>
<!-- Scheduler&#45;&gt;UIS -->
<g id="edge2" class="edge">
<title>Scheduler&#45;&gt;UIS</title>
<path fill="none" stroke="#000000" d="M57.1949,-218.9752C57.1949,-200.1356 57.1949,-170.3112 57.1949,-148.3213"/>
<polygon fill="#000000" stroke="#000000" points="60.695,-148.2381 57.1949,-138.2381 53.695,-148.2381 60.695,-148.2381"/>
<text text-anchor="middle" x="110.6949" y="-189.8" font-family="Times,serif" font-size="14.00" fill="#000000"> ZMQ</text>
<text text-anchor="middle" x="110.6949" y="-174.8" font-family="Times,serif" font-size="14.00" fill="#000000"> GraphQL (control)</text>
<text text-anchor="middle" x="110.6949" y="-159.8" font-family="Times,serif" font-size="14.00" fill="#000000"> Protobuf (data)</text>
</g>
<!-- UI -->
<g id="node4" class="node">
<title>UI</title>
<ellipse fill="none" stroke="#000000" cx="57.1949" cy="-18" rx="27" ry="18"/>
<text text-anchor="middle" x="57.1949" y="-14.3" font-family="sans" font-size="14.00" fill="#000000">UI</text>
</g>
<!-- UIS&#45;&gt;UI -->
<g id="edge3" class="edge">
<title>UIS&#45;&gt;UI</title>
<path fill="none" stroke="#000000" d="M57.1949,-101.7644C57.1949,-86.317 57.1949,-63.9149 57.1949,-46.164"/>
<polygon fill="#000000" stroke="#000000" points="60.695,-46.0776 57.1949,-36.0777 53.695,-46.0777 60.695,-46.0776"/>
<text text-anchor="middle" x="89.6949" y="-72.8" font-family="Times,serif" font-size="14.00" fill="#000000"> Websocket</text>
<text text-anchor="middle" x="89.6949" y="-57.8" font-family="Times,serif" font-size="14.00" fill="#000000"> GraphQL</text>
</g>
</g>
</svg>
