<?xml version="1.0" encoding="UTF-8" standalone="no"?>
<!DOCTYPE svg PUBLIC "-//W3C//DTD SVG 1.1//EN"
 "http://www.w3.org/Graphics/SVG/1.1/DTD/svg11.dtd">
<!-- Generated by graphviz version 2.40.1 (20161225.0304)
 -->
<!-- Title: %3 Pages: 1 -->
<svg width="477pt" height="2379pt"
 viewBox="0.00 0.00 477.00 2379.00" xmlns="http://www.w3.org/2000/svg" xmlns:xlink="http://www.w3.org/1999/xlink">
<g id="graph0" class="graph" transform="scale(1 1) rotate(0) translate(4 2375)">
<title>%3</title>
<polygon fill="transparent" stroke="transparent" points="-4,4 -4,-2375 473,-2375 473,4 -4,4"/>
<!-- absolute_outputs -->
<g id="node1" class="node">
<title>absolute_outputs</title>
<polygon fill="none" stroke="#000000" points="34.5,-78.5 34.5,-106.5 178.5,-106.5 178.5,-78.5 34.5,-78.5"/>
<text text-anchor="start" x="39.5" y="-89.7" font-family="Helvetica,sans-Serif" font-weight="bold" font-size="16.00" fill="#000000">absolute_outputs</text>
<polygon fill="none" stroke="#000000" points="34.5,-53.5 34.5,-78.5 178.5,-78.5 178.5,-53.5 34.5,-53.5"/>
<text text-anchor="start" x="39.5" y="-62.3" font-family="Helvetica,sans-Serif" font-size="14.00" fill="#000000">cycle</text>
<polygon fill="none" stroke="#000000" points="34.5,-28.5 34.5,-53.5 178.5,-53.5 178.5,-28.5 34.5,-28.5"/>
<text text-anchor="start" x="39.5" y="-37.3" font-family="Helvetica,sans-Serif" font-size="14.00" fill="#000000">name</text>
<polygon fill="none" stroke="#000000" points="34.5,-3.5 34.5,-28.5 178.5,-28.5 178.5,-3.5 34.5,-3.5"/>
<text text-anchor="start" x="39.5" y="-12.3" font-family="Helvetica,sans-Serif" font-size="14.00" fill="#000000">output</text>
</g>
<!-- broadcast_events -->
<g id="node2" class="node">
<title>broadcast_events</title>
<polygon fill="none" stroke="#000000" points="33.5,-283.5 33.5,-311.5 180.5,-311.5 180.5,-283.5 33.5,-283.5"/>
<text text-anchor="start" x="38.5" y="-294.7" font-family="Helvetica,sans-Serif" font-weight="bold" font-size="16.00" fill="#000000">broadcast_events</text>
<polygon fill="none" stroke="#000000" points="33.5,-258.5 33.5,-283.5 180.5,-283.5 180.5,-258.5 33.5,-258.5"/>
<text text-anchor="start" x="38.5" y="-267.3" font-family="Helvetica,sans-Serif" font-size="14.00" fill="#000000">time</text>
<polygon fill="none" stroke="#000000" points="33.5,-233.5 33.5,-258.5 180.5,-258.5 180.5,-233.5 33.5,-233.5"/>
<text text-anchor="start" x="38.5" y="-242.3" font-family="Helvetica,sans-Serif" font-size="14.00" fill="#000000">change</text>
<polygon fill="none" stroke="#000000" points="33.5,-208.5 33.5,-233.5 180.5,-233.5 180.5,-208.5 33.5,-208.5"/>
<text text-anchor="start" x="38.5" y="-217.3" font-family="Helvetica,sans-Serif" font-size="14.00" fill="#000000">point</text>
<polygon fill="none" stroke="#000000" points="33.5,-183.5 33.5,-208.5 180.5,-208.5 180.5,-183.5 33.5,-183.5"/>
<text text-anchor="start" x="38.5" y="-192.3" font-family="Helvetica,sans-Serif" font-size="14.00" fill="#000000">namespace</text>
<polygon fill="none" stroke="#000000" points="33.5,-158.5 33.5,-183.5 180.5,-183.5 180.5,-158.5 33.5,-158.5"/>
<text text-anchor="start" x="38.5" y="-167.3" font-family="Helvetica,sans-Serif" font-size="14.00" fill="#000000">key</text>
<polygon fill="none" stroke="#000000" points="33.5,-133.5 33.5,-158.5 180.5,-158.5 180.5,-133.5 33.5,-133.5"/>
<text text-anchor="start" x="38.5" y="-142.3" font-family="Helvetica,sans-Serif" font-size="14.00" fill="#000000">value</text>
</g>
<!-- broadcast_states -->
<g id="node3" class="node">
<title>broadcast_states</title>
<polygon fill="none" stroke="#000000" points="35.5,-437.5 35.5,-465.5 178.5,-465.5 178.5,-437.5 35.5,-437.5"/>
<text text-anchor="start" x="40.5" y="-448.7" font-family="Helvetica,sans-Serif" font-weight="bold" font-size="16.00" fill="#000000">broadcast_states</text>
<polygon fill="none" stroke="#000000" points="35.5,-412.5 35.5,-437.5 178.5,-437.5 178.5,-412.5 35.5,-412.5"/>
<text text-anchor="start" x="40.5" y="-422.3" font-family="Helvetica,sans-Serif" text-decoration="underline" font-size="14.00" fill="#000000">point</text>
<polygon fill="none" stroke="#000000" points="35.5,-387.5 35.5,-412.5 178.5,-412.5 178.5,-387.5 35.5,-387.5"/>
<text text-anchor="start" x="40.5" y="-397.3" font-family="Helvetica,sans-Serif" text-decoration="underline" font-size="14.00" fill="#000000">namespace</text>
<polygon fill="none" stroke="#000000" points="35.5,-362.5 35.5,-387.5 178.5,-387.5 178.5,-362.5 35.5,-362.5"/>
<text text-anchor="start" x="40.5" y="-372.3" font-family="Helvetica,sans-Serif" text-decoration="underline" font-size="14.00" fill="#000000">key</text>
<polygon fill="none" stroke="#000000" points="35.5,-337.5 35.5,-362.5 178.5,-362.5 178.5,-337.5 35.5,-337.5"/>
<text text-anchor="start" x="40.5" y="-346.3" font-family="Helvetica,sans-Serif" font-size="14.00" fill="#000000">value</text>
</g>
<!-- inheritance -->
<g id="node4" class="node">
<title>inheritance</title>
<polygon fill="none" stroke="#000000" points="58.5,-541.5 58.5,-569.5 154.5,-569.5 154.5,-541.5 58.5,-541.5"/>
<text text-anchor="start" x="63.5" y="-552.7" font-family="Helvetica,sans-Serif" font-weight="bold" font-size="16.00" fill="#000000">inheritance</text>
<polygon fill="none" stroke="#000000" points="58.5,-516.5 58.5,-541.5 154.5,-541.5 154.5,-516.5 58.5,-516.5"/>
<text text-anchor="start" x="63.5" y="-526.3" font-family="Helvetica,sans-Serif" text-decoration="underline" font-size="14.00" fill="#000000">namespace</text>
<polygon fill="none" stroke="#000000" points="58.5,-491.5 58.5,-516.5 154.5,-516.5 154.5,-491.5 58.5,-491.5"/>
<text text-anchor="start" x="63.5" y="-500.3" font-family="Helvetica,sans-Serif" font-size="14.00" fill="#000000">inheritance</text>
</g>
<!-- task_action_timers -->
<g id="node5" class="node">
<title>task_action_timers</title>
<polygon fill="none" stroke="#000000" points="299.5,-1079.5 299.5,-1107.5 455.5,-1107.5 455.5,-1079.5 299.5,-1079.5"/>
<text text-anchor="start" x="304.5" y="-1090.7" font-family="Helvetica,sans-Serif" font-weight="bold" font-size="16.00" fill="#000000">task_action_timers</text>
<polygon fill="none" stroke="#000000" points="299.5,-1054.5 299.5,-1079.5 455.5,-1079.5 455.5,-1054.5 299.5,-1054.5"/>
<text text-anchor="start" x="304.5" y="-1064.3" font-family="Helvetica,sans-Serif" text-decoration="underline" font-size="14.00" fill="#000000">cycle</text>
<polygon fill="none" stroke="#000000" points="299.5,-1029.5 299.5,-1054.5 455.5,-1054.5 455.5,-1029.5 299.5,-1029.5"/>
<text text-anchor="start" x="304.5" y="-1039.3" font-family="Helvetica,sans-Serif" text-decoration="underline" font-size="14.00" fill="#000000">name</text>
<polygon fill="none" stroke="#000000" points="299.5,-1004.5 299.5,-1029.5 455.5,-1029.5 455.5,-1004.5 299.5,-1004.5"/>
<text text-anchor="start" x="304.5" y="-1014.3" font-family="Helvetica,sans-Serif" text-decoration="underline" font-size="14.00" fill="#000000">ctx_key</text>
<polygon fill="none" stroke="#000000" points="299.5,-979.5 299.5,-1004.5 455.5,-1004.5 455.5,-979.5 299.5,-979.5"/>
<text text-anchor="start" x="304.5" y="-988.3" font-family="Helvetica,sans-Serif" font-size="14.00" fill="#000000">ctx</text>
<polygon fill="none" stroke="#000000" points="299.5,-954.5 299.5,-979.5 455.5,-979.5 455.5,-954.5 299.5,-954.5"/>
<text text-anchor="start" x="304.5" y="-963.3" font-family="Helvetica,sans-Serif" font-size="14.00" fill="#000000">delays</text>
<polygon fill="none" stroke="#000000" points="299.5,-929.5 299.5,-954.5 455.5,-954.5 455.5,-929.5 299.5,-929.5"/>
<text text-anchor="start" x="304.5" y="-938.3" font-family="Helvetica,sans-Serif" font-size="14.00" fill="#000000">num</text>
<polygon fill="none" stroke="#000000" points="299.5,-904.5 299.5,-929.5 455.5,-929.5 455.5,-904.5 299.5,-904.5"/>
<text text-anchor="start" x="304.5" y="-913.3" font-family="Helvetica,sans-Serif" font-size="14.00" fill="#000000">delay</text>
<polygon fill="none" stroke="#000000" points="299.5,-879.5 299.5,-904.5 455.5,-904.5 455.5,-879.5 299.5,-879.5"/>
<text text-anchor="start" x="304.5" y="-888.3" font-family="Helvetica,sans-Serif" font-size="14.00" fill="#000000">timeout</text>
</g>
<!-- task_events -->
<g id="node6" class="node">
<title>task_events</title>
<polygon fill="none" stroke="#000000" points="326.5,-1713.5 326.5,-1741.5 429.5,-1741.5 429.5,-1713.5 326.5,-1713.5"/>
<text text-anchor="start" x="331.5" y="-1724.7" font-family="Helvetica,sans-Serif" font-weight="bold" font-size="16.00" fill="#000000">task_events</text>
<polygon fill="none" stroke="#000000" points="326.5,-1688.5 326.5,-1713.5 429.5,-1713.5 429.5,-1688.5 326.5,-1688.5"/>
<text text-anchor="start" x="331.5" y="-1697.3" font-family="Helvetica,sans-Serif" font-size="14.00" fill="#000000">name</text>
<polygon fill="none" stroke="#000000" points="326.5,-1663.5 326.5,-1688.5 429.5,-1688.5 429.5,-1663.5 326.5,-1663.5"/>
<text text-anchor="start" x="331.5" y="-1672.3" font-family="Helvetica,sans-Serif" font-size="14.00" fill="#000000">cycle</text>
<polygon fill="none" stroke="#000000" points="326.5,-1638.5 326.5,-1663.5 429.5,-1663.5 429.5,-1638.5 326.5,-1638.5"/>
<text text-anchor="start" x="331.5" y="-1647.3" font-family="Helvetica,sans-Serif" font-size="14.00" fill="#000000">time</text>
<polygon fill="none" stroke="#000000" points="326.5,-1613.5 326.5,-1638.5 429.5,-1638.5 429.5,-1613.5 326.5,-1613.5"/>
<text text-anchor="start" x="331.5" y="-1622.3" font-family="Helvetica,sans-Serif" font-size="14.00" fill="#000000">submit_num</text>
<polygon fill="none" stroke="#000000" points="326.5,-1588.5 326.5,-1613.5 429.5,-1613.5 429.5,-1588.5 326.5,-1588.5"/>
<text text-anchor="start" x="331.5" y="-1597.3" font-family="Helvetica,sans-Serif" font-size="14.00" fill="#000000">event</text>
<polygon fill="none" stroke="#000000" points="326.5,-1563.5 326.5,-1588.5 429.5,-1588.5 429.5,-1563.5 326.5,-1563.5"/>
<text text-anchor="start" x="331.5" y="-1572.3" font-family="Helvetica,sans-Serif" font-size="14.00" fill="#000000">message</text>
</g>
<!-- task_jobs -->
<g id="node7" class="node">
<title>task_jobs</title>
<polygon fill="none" stroke="#000000" points="317.5,-1508.5 317.5,-1536.5 438.5,-1536.5 438.5,-1508.5 317.5,-1508.5"/>
<text text-anchor="start" x="340.5" y="-1519.7" font-family="Helvetica,sans-Serif" font-weight="bold" font-size="16.00" fill="#000000">task_jobs</text>
<polygon fill="none" stroke="#000000" points="317.5,-1483.5 317.5,-1508.5 438.5,-1508.5 438.5,-1483.5 317.5,-1483.5"/>
<text text-anchor="start" x="322.5" y="-1493.3" font-family="Helvetica,sans-Serif" text-decoration="underline" font-size="14.00" fill="#000000">cycle</text>
<polygon fill="none" stroke="#000000" points="317.5,-1458.5 317.5,-1483.5 438.5,-1483.5 438.5,-1458.5 317.5,-1458.5"/>
<text text-anchor="start" x="322.5" y="-1468.3" font-family="Helvetica,sans-Serif" text-decoration="underline" font-size="14.00" fill="#000000">name</text>
<polygon fill="none" stroke="#000000" points="317.5,-1433.5 317.5,-1458.5 438.5,-1458.5 438.5,-1433.5 317.5,-1433.5"/>
<text text-anchor="start" x="322.5" y="-1443.3" font-family="Helvetica,sans-Serif" text-decoration="underline" font-size="14.00" fill="#000000">submit_num</text>
<polygon fill="none" stroke="#000000" points="317.5,-1408.5 317.5,-1433.5 438.5,-1433.5 438.5,-1408.5 317.5,-1408.5"/>
<text text-anchor="start" x="322.5" y="-1417.3" font-family="Helvetica,sans-Serif" font-size="14.00" fill="#000000">is_manual_submit</text>
<polygon fill="none" stroke="#000000" points="317.5,-1383.5 317.5,-1408.5 438.5,-1408.5 438.5,-1383.5 317.5,-1383.5"/>
<text text-anchor="start" x="322.5" y="-1392.3" font-family="Helvetica,sans-Serif" font-size="14.00" fill="#000000">try_num</text>
<polygon fill="none" stroke="#000000" points="317.5,-1358.5 317.5,-1383.5 438.5,-1383.5 438.5,-1358.5 317.5,-1358.5"/>
<text text-anchor="start" x="322.5" y="-1367.3" font-family="Helvetica,sans-Serif" font-size="14.00" fill="#000000">time_submit</text>
<polygon fill="none" stroke="#000000" points="317.5,-1333.5 317.5,-1358.5 438.5,-1358.5 438.5,-1333.5 317.5,-1333.5"/>
<text text-anchor="start" x="322.5" y="-1342.3" font-family="Helvetica,sans-Serif" font-size="14.00" fill="#000000">time_submit_exit</text>
<polygon fill="none" stroke="#000000" points="317.5,-1308.5 317.5,-1333.5 438.5,-1333.5 438.5,-1308.5 317.5,-1308.5"/>
<text text-anchor="start" x="322.5" y="-1317.3" font-family="Helvetica,sans-Serif" font-size="14.00" fill="#000000">submit_status</text>
<polygon fill="none" stroke="#000000" points="317.5,-1283.5 317.5,-1308.5 438.5,-1308.5 438.5,-1283.5 317.5,-1283.5"/>
<text text-anchor="start" x="322.5" y="-1292.3" font-family="Helvetica,sans-Serif" font-size="14.00" fill="#000000">time_run</text>
<polygon fill="none" stroke="#000000" points="317.5,-1258.5 317.5,-1283.5 438.5,-1283.5 438.5,-1258.5 317.5,-1258.5"/>
<text text-anchor="start" x="322.5" y="-1267.3" font-family="Helvetica,sans-Serif" font-size="14.00" fill="#000000">time_run_exit</text>
<polygon fill="none" stroke="#000000" points="317.5,-1233.5 317.5,-1258.5 438.5,-1258.5 438.5,-1233.5 317.5,-1233.5"/>
<text text-anchor="start" x="322.5" y="-1242.3" font-family="Helvetica,sans-Serif" font-size="14.00" fill="#000000">run_signal</text>
<polygon fill="none" stroke="#000000" points="317.5,-1208.5 317.5,-1233.5 438.5,-1233.5 438.5,-1208.5 317.5,-1208.5"/>
<text text-anchor="start" x="322.5" y="-1217.3" font-family="Helvetica,sans-Serif" font-size="14.00" fill="#000000">run_status</text>
<polygon fill="none" stroke="#000000" points="317.5,-1183.5 317.5,-1208.5 438.5,-1208.5 438.5,-1183.5 317.5,-1183.5"/>
<text text-anchor="start" x="322.5" y="-1192.3" font-family="Helvetica,sans-Serif" font-size="14.00" fill="#000000">platform_name</text>
<polygon fill="none" stroke="#000000" points="317.5,-1158.5 317.5,-1183.5 438.5,-1183.5 438.5,-1158.5 317.5,-1158.5"/>
<text text-anchor="start" x="322.5" y="-1167.3" font-family="Helvetica,sans-Serif" font-size="14.00" fill="#000000">job_runner_name</text>
<polygon fill="none" stroke="#000000" points="317.5,-1133.5 317.5,-1158.5 438.5,-1158.5 438.5,-1133.5 317.5,-1133.5"/>
<text text-anchor="start" x="322.5" y="-1142.3" font-family="Helvetica,sans-Serif" font-size="14.00" fill="#000000">job_id</text>
</g>
<!-- task_late_flags -->
<g id="node8" class="node">
<title>task_late_flags</title>
<polygon fill="none" stroke="#000000" points="314.5,-824.5 314.5,-852.5 440.5,-852.5 440.5,-824.5 314.5,-824.5"/>
<text text-anchor="start" x="319.5" y="-835.7" font-family="Helvetica,sans-Serif" font-weight="bold" font-size="16.00" fill="#000000">task_late_flags</text>
<polygon fill="none" stroke="#000000" points="314.5,-799.5 314.5,-824.5 440.5,-824.5 440.5,-799.5 314.5,-799.5"/>
<text text-anchor="start" x="319.5" y="-809.3" font-family="Helvetica,sans-Serif" text-decoration="underline" font-size="14.00" fill="#000000">cycle</text>
<polygon fill="none" stroke="#000000" points="314.5,-774.5 314.5,-799.5 440.5,-799.5 440.5,-774.5 314.5,-774.5"/>
<text text-anchor="start" x="319.5" y="-784.3" font-family="Helvetica,sans-Serif" text-decoration="underline" font-size="14.00" fill="#000000">name</text>
<polygon fill="none" stroke="#000000" points="314.5,-749.5 314.5,-774.5 440.5,-774.5 440.5,-749.5 314.5,-749.5"/>
<text text-anchor="start" x="319.5" y="-758.3" font-family="Helvetica,sans-Serif" font-size="14.00" fill="#000000">value</text>
</g>
<!-- task_outputs -->
<g id="node9" class="node">
<title>task_outputs</title>
<polygon fill="none" stroke="#000000" points="322.5,-695.5 322.5,-723.5 432.5,-723.5 432.5,-695.5 322.5,-695.5"/>
<text text-anchor="start" x="327.5" y="-706.7" font-family="Helvetica,sans-Serif" font-weight="bold" font-size="16.00" fill="#000000">task_outputs</text>
<polygon fill="none" stroke="#000000" points="322.5,-670.5 322.5,-695.5 432.5,-695.5 432.5,-670.5 322.5,-670.5"/>
<text text-anchor="start" x="327.5" y="-680.3" font-family="Helvetica,sans-Serif" text-decoration="underline" font-size="14.00" fill="#000000">cycle</text>
<polygon fill="none" stroke="#000000" points="322.5,-645.5 322.5,-670.5 432.5,-670.5 432.5,-645.5 322.5,-645.5"/>
<text text-anchor="start" x="327.5" y="-655.3" font-family="Helvetica,sans-Serif" text-decoration="underline" font-size="14.00" fill="#000000">name</text>
<polygon fill="none" stroke="#000000" points="322.5,-620.5 322.5,-645.5 432.5,-645.5 432.5,-620.5 322.5,-620.5"/>
<text text-anchor="start" x="327.5" y="-629.3" font-family="Helvetica,sans-Serif" font-size="14.00" fill="#000000">outputs</text>
</g>
<!-- task_pool -->
<g id="node10" class="node">
<title>task_pool</title>
<polygon fill="none" stroke="#000000" points="63.5,-720.5 63.5,-748.5 149.5,-748.5 149.5,-720.5 63.5,-720.5"/>
<text text-anchor="start" x="68.5" y="-731.7" font-family="Helvetica,sans-Serif" font-weight="bold" font-size="16.00" fill="#000000">task_pool</text>
<polygon fill="none" stroke="#000000" points="63.5,-695.5 63.5,-720.5 149.5,-720.5 149.5,-695.5 63.5,-695.5"/>
<text text-anchor="start" x="68.5" y="-705.3" font-family="Helvetica,sans-Serif" text-decoration="underline" font-size="14.00" fill="#000000">cycle</text>
<polygon fill="none" stroke="#000000" points="63.5,-670.5 63.5,-695.5 149.5,-695.5 149.5,-670.5 63.5,-670.5"/>
<text text-anchor="start" x="68.5" y="-680.3" font-family="Helvetica,sans-Serif" text-decoration="underline" font-size="14.00" fill="#000000">name</text>
<polygon fill="none" stroke="#000000" points="63.5,-645.5 63.5,-670.5 149.5,-670.5 149.5,-645.5 63.5,-645.5"/>
<text text-anchor="start" x="68.5" y="-655.3" font-family="Helvetica,sans-Serif" text-decoration="underline" font-size="14.00" fill="#000000">flow_nums</text>
<polygon fill="none" stroke="#000000" points="63.5,-620.5 63.5,-645.5 149.5,-645.5 149.5,-620.5 63.5,-620.5"/>
<text text-anchor="start" x="68.5" y="-629.3" font-family="Helvetica,sans-Serif" font-size="14.00" fill="#000000">status</text>
<polygon fill="none" stroke="#000000" points="63.5,-595.5 63.5,-620.5 149.5,-620.5 149.5,-595.5 63.5,-595.5"/>
<text text-anchor="start" x="68.5" y="-604.3" font-family="Helvetica,sans-Serif" font-size="14.00" fill="#000000">is_held</text>
</g>
<!-- task_pool&#45;&#45;task_action_timers -->
<g id="edge3" class="edge">
<title>task_pool&#45;&#45;task_action_timers</title>
<path fill="none" stroke="#7f7f7f" stroke-dasharray="5,2" d="M157.7916,-733.255C195.3866,-777.7863 247.3102,-839.2899 291.2411,-891.3262"/>
<text text-anchor="start" x="260.2411" y="-880.1262" font-family="Times,serif" font-size="14.00" fill="#000000">{0,1}</text>
<text text-anchor="start" x="157.7916" y="-722.055" font-family="Times,serif" font-size="14.00" fill="#000000">0..N</text>
</g>
<!-- task_pool&#45;&#45;task_late_flags -->
<g id="edge4" class="edge">
<title>task_pool&#45;&#45;task_late_flags</title>
<path fill="none" stroke="#7f7f7f" stroke-dasharray="5,2" d="M157.7916,-696.9156C199.8366,-716.9296 259.803,-745.4745 306.4681,-767.6878"/>
<text text-anchor="start" x="275.4681" y="-756.4878" font-family="Times,serif" font-size="14.00" fill="#000000">{0,1}</text>
<text text-anchor="start" x="157.7916" y="-685.7156" font-family="Times,serif" font-size="14.00" fill="#000000">{0,1}</text>
</g>
<!-- task_pool&#45;&#45;task_outputs -->
<g id="edge5" class="edge">
<title>task_pool&#45;&#45;task_outputs</title>
<path fill="none" stroke="#7f7f7f" stroke-dasharray="5,2" d="M157.7916,-672.5C202.1383,-672.5 266.4224,-672.5 314.0073,-672.5"/>
<text text-anchor="start" x="283.0073" y="-661.3" font-family="Times,serif" font-size="14.00" fill="#000000">{0,1}</text>
<text text-anchor="start" x="157.7916" y="-661.3" font-family="Times,serif" font-size="14.00" fill="#000000">0..N</text>
</g>
<!-- task_prerequisites -->
<g id="node11" class="node">
<title>task_prerequisites</title>
<polygon fill="none" stroke="#000000" points="301.5,-566.5 301.5,-594.5 453.5,-594.5 453.5,-566.5 301.5,-566.5"/>
<text text-anchor="start" x="306.5" y="-577.7" font-family="Helvetica,sans-Serif" font-weight="bold" font-size="16.00" fill="#000000">task_prerequisites</text>
<polygon fill="none" stroke="#000000" points="301.5,-541.5 301.5,-566.5 453.5,-566.5 453.5,-541.5 301.5,-541.5"/>
<text text-anchor="start" x="306.5" y="-551.3" font-family="Helvetica,sans-Serif" text-decoration="underline" font-size="14.00" fill="#000000">cycle</text>
<polygon fill="none" stroke="#000000" points="301.5,-516.5 301.5,-541.5 453.5,-541.5 453.5,-516.5 301.5,-516.5"/>
<text text-anchor="start" x="306.5" y="-526.3" font-family="Helvetica,sans-Serif" text-decoration="underline" font-size="14.00" fill="#000000">name</text>
<polygon fill="none" stroke="#000000" points="301.5,-491.5 301.5,-516.5 453.5,-516.5 453.5,-491.5 301.5,-491.5"/>
<text text-anchor="start" x="306.5" y="-501.3" font-family="Helvetica,sans-Serif" text-decoration="underline" font-size="14.00" fill="#000000">flow_nums</text>
<polygon fill="none" stroke="#000000" points="301.5,-466.5 301.5,-491.5 453.5,-491.5 453.5,-466.5 301.5,-466.5"/>
<text text-anchor="start" x="306.5" y="-476.3" font-family="Helvetica,sans-Serif" text-decoration="underline" font-size="14.00" fill="#000000">prereq_name</text>
<polygon fill="none" stroke="#000000" points="301.5,-441.5 301.5,-466.5 453.5,-466.5 453.5,-441.5 301.5,-441.5"/>
<text text-anchor="start" x="306.5" y="-451.3" font-family="Helvetica,sans-Serif" text-decoration="underline" font-size="14.00" fill="#000000">prereq_cycle</text>
<polygon fill="none" stroke="#000000" points="301.5,-416.5 301.5,-441.5 453.5,-441.5 453.5,-416.5 301.5,-416.5"/>
<text text-anchor="start" x="306.5" y="-426.3" font-family="Helvetica,sans-Serif" text-decoration="underline" font-size="14.00" fill="#000000">prereq_output</text>
<polygon fill="none" stroke="#000000" points="301.5,-391.5 301.5,-416.5 453.5,-416.5 453.5,-391.5 301.5,-391.5"/>
<text text-anchor="start" x="306.5" y="-400.3" font-family="Helvetica,sans-Serif" font-size="14.00" fill="#000000">satisfied</text>
</g>
<!-- task_pool&#45;&#45;task_prerequisites -->
<g id="edge6" class="edge">
<title>task_pool&#45;&#45;task_prerequisites</title>
<path fill="none" stroke="#7f7f7f" stroke-dasharray="5,2" d="M157.7916,-638.621C196.0003,-613.3835 249.0095,-578.3701 293.3863,-549.0585"/>
<text text-anchor="start" x="262.3863" y="-537.8585" font-family="Times,serif" font-size="14.00" fill="#000000">{0,1}</text>
<text text-anchor="start" x="157.7916" y="-627.421" font-family="Times,serif" font-size="14.00" fill="#000000">0..N</text>
</g>
<!-- task_timeout_timers -->
<g id="node13" class="node">
<title>task_timeout_timers</title>
<polygon fill="none" stroke="#000000" points="294.5,-337.5 294.5,-365.5 461.5,-365.5 461.5,-337.5 294.5,-337.5"/>
<text text-anchor="start" x="299.5" y="-348.7" font-family="Helvetica,sans-Serif" font-weight="bold" font-size="16.00" fill="#000000">task_timeout_timers</text>
<polygon fill="none" stroke="#000000" points="294.5,-312.5 294.5,-337.5 461.5,-337.5 461.5,-312.5 294.5,-312.5"/>
<text text-anchor="start" x="299.5" y="-322.3" font-family="Helvetica,sans-Serif" text-decoration="underline" font-size="14.00" fill="#000000">cycle</text>
<polygon fill="none" stroke="#000000" points="294.5,-287.5 294.5,-312.5 461.5,-312.5 461.5,-287.5 294.5,-287.5"/>
<text text-anchor="start" x="299.5" y="-297.3" font-family="Helvetica,sans-Serif" text-decoration="underline" font-size="14.00" fill="#000000">name</text>
<polygon fill="none" stroke="#000000" points="294.5,-262.5 294.5,-287.5 461.5,-287.5 461.5,-262.5 294.5,-262.5"/>
<text text-anchor="start" x="299.5" y="-271.3" font-family="Helvetica,sans-Serif" font-size="14.00" fill="#000000">timeout</text>
</g>
<!-- task_pool&#45;&#45;task_timeout_timers -->
<g id="edge7" class="edge">
<title>task_pool&#45;&#45;task_timeout_timers</title>
<path fill="none" stroke="#7f7f7f" stroke-dasharray="5,2" d="M157.7345,-638.1554C177.2107,-622.9984 198.2379,-603.7837 213,-582.5 267.8815,-503.3728 227.5661,-455.0413 286,-378.5 288.1174,-375.7264 290.3894,-373.0265 292.7838,-370.4036"/>
<text text-anchor="start" x="261.7838" y="-374.2036" font-family="Times,serif" font-size="14.00" fill="#000000">{0,1}</text>
<text text-anchor="start" x="157.7345" y="-641.9554" font-family="Times,serif" font-size="14.00" fill="#000000">{0,1}</text>
</g>
<!-- task_states -->
<g id="node12" class="node">
<title>task_states</title>
<polygon fill="none" stroke="#000000" points="57.5,-1566.5 57.5,-1594.5 155.5,-1594.5 155.5,-1566.5 57.5,-1566.5"/>
<text text-anchor="start" x="62.5" y="-1577.7" font-family="Helvetica,sans-Serif" font-weight="bold" font-size="16.00" fill="#000000">task_states</text>
<polygon fill="none" stroke="#000000" points="57.5,-1541.5 57.5,-1566.5 155.5,-1566.5 155.5,-1541.5 57.5,-1541.5"/>
<text text-anchor="start" x="62.5" y="-1551.3" font-family="Helvetica,sans-Serif" text-decoration="underline" font-size="14.00" fill="#000000">name</text>
<polygon fill="none" stroke="#000000" points="57.5,-1516.5 57.5,-1541.5 155.5,-1541.5 155.5,-1516.5 57.5,-1516.5"/>
<text text-anchor="start" x="62.5" y="-1526.3" font-family="Helvetica,sans-Serif" text-decoration="underline" font-size="14.00" fill="#000000">cycle</text>
<polygon fill="none" stroke="#000000" points="57.5,-1491.5 57.5,-1516.5 155.5,-1516.5 155.5,-1491.5 57.5,-1491.5"/>
<text text-anchor="start" x="62.5" y="-1501.3" font-family="Helvetica,sans-Serif" text-decoration="underline" font-size="14.00" fill="#000000">flow_nums</text>
<polygon fill="none" stroke="#000000" points="57.5,-1466.5 57.5,-1491.5 155.5,-1491.5 155.5,-1466.5 57.5,-1466.5"/>
<text text-anchor="start" x="62.5" y="-1475.3" font-family="Helvetica,sans-Serif" font-size="14.00" fill="#000000">time_created</text>
<polygon fill="none" stroke="#000000" points="57.5,-1441.5 57.5,-1466.5 155.5,-1466.5 155.5,-1441.5 57.5,-1441.5"/>
<text text-anchor="start" x="62.5" y="-1450.3" font-family="Helvetica,sans-Serif" font-size="14.00" fill="#000000">time_updated</text>
<polygon fill="none" stroke="#000000" points="57.5,-1416.5 57.5,-1441.5 155.5,-1441.5 155.5,-1416.5 57.5,-1416.5"/>
<text text-anchor="start" x="62.5" y="-1425.3" font-family="Helvetica,sans-Serif" font-size="14.00" fill="#000000">submit_num</text>
<polygon fill="none" stroke="#000000" points="57.5,-1391.5 57.5,-1416.5 155.5,-1416.5 155.5,-1391.5 57.5,-1391.5"/>
<text text-anchor="start" x="62.5" y="-1400.3" font-family="Helvetica,sans-Serif" font-size="14.00" fill="#000000">status</text>
</g>
<!-- task_states&#45;&#45;task_events -->
<g id="edge1" class="edge">
<title>task_states&#45;&#45;task_events</title>
<path fill="none" stroke="#7f7f7f" stroke-dasharray="5,2" d="M163.641,-1527.0255C208.8303,-1553.5388 271.7354,-1590.4463 317.6209,-1617.368"/>
<text text-anchor="start" x="286.6209" y="-1606.168" font-family="Times,serif" font-size="14.00" fill="#000000">{0,1}</text>
<text text-anchor="start" x="163.641" y="-1515.8255" font-family="Times,serif" font-size="14.00" fill="#000000">0..N</text>
</g>
<!-- task_states&#45;&#45;task_jobs -->
<g id="edge2" class="edge">
<title>task_states&#45;&#45;task_jobs</title>
<path fill="none" stroke="#7f7f7f" stroke-dasharray="5,2" d="M163.641,-1460.1853C206.0351,-1435.4685 264.0211,-1401.6611 308.9189,-1375.4845"/>
<text text-anchor="start" x="277.9189" y="-1364.2845" font-family="Times,serif" font-size="14.00" fill="#000000">{0,1}</text>
<text text-anchor="start" x="163.641" y="-1448.9853" font-family="Times,serif" font-size="14.00" fill="#000000">0..N</text>
</g>
<!-- tasks_to_hold -->
<g id="node14" class="node">
<title>tasks_to_hold</title>
<polygon fill="none" stroke="#000000" points="47.5,-1671.5 47.5,-1699.5 166.5,-1699.5 166.5,-1671.5 47.5,-1671.5"/>
<text text-anchor="start" x="52.5" y="-1682.7" font-family="Helvetica,sans-Serif" font-weight="bold" font-size="16.00" fill="#000000">tasks_to_hold</text>
<polygon fill="none" stroke="#000000" points="47.5,-1646.5 47.5,-1671.5 166.5,-1671.5 166.5,-1646.5 47.5,-1646.5"/>
<text text-anchor="start" x="52.5" y="-1655.3" font-family="Helvetica,sans-Serif" font-size="14.00" fill="#000000">name</text>
<polygon fill="none" stroke="#000000" points="47.5,-1621.5 47.5,-1646.5 166.5,-1646.5 166.5,-1621.5 47.5,-1621.5"/>
<text text-anchor="start" x="52.5" y="-1630.3" font-family="Helvetica,sans-Serif" font-size="14.00" fill="#000000">cycle</text>
</g>
<!-- workflow_flows -->
<g id="node15" class="node">
<title>workflow_flows</title>
<polygon fill="none" stroke="#000000" points="41.5,-1800.5 41.5,-1828.5 172.5,-1828.5 172.5,-1800.5 41.5,-1800.5"/>
<text text-anchor="start" x="46.5" y="-1811.7" font-family="Helvetica,sans-Serif" font-weight="bold" font-size="16.00" fill="#000000">workflow_flows</text>
<polygon fill="none" stroke="#000000" points="41.5,-1775.5 41.5,-1800.5 172.5,-1800.5 172.5,-1775.5 41.5,-1775.5"/>
<text text-anchor="start" x="46.5" y="-1785.3" font-family="Helvetica,sans-Serif" text-decoration="underline" font-size="14.00" fill="#000000">flow_num</text>
<polygon fill="none" stroke="#000000" points="41.5,-1750.5 41.5,-1775.5 172.5,-1775.5 172.5,-1750.5 41.5,-1750.5"/>
<text text-anchor="start" x="46.5" y="-1759.3" font-family="Helvetica,sans-Serif" font-size="14.00" fill="#000000">start_time</text>
<polygon fill="none" stroke="#000000" points="41.5,-1725.5 41.5,-1750.5 172.5,-1750.5 172.5,-1725.5 41.5,-1725.5"/>
<text text-anchor="start" x="46.5" y="-1734.3" font-family="Helvetica,sans-Serif" font-size="14.00" fill="#000000">description</text>
</g>
<!-- workflow_params -->
<g id="node16" class="node">
<title>workflow_params</title>
<polygon fill="none" stroke="#000000" points="33.5,-1905.5 33.5,-1933.5 179.5,-1933.5 179.5,-1905.5 33.5,-1905.5"/>
<text text-anchor="start" x="38.5" y="-1916.7" font-family="Helvetica,sans-Serif" font-weight="bold" font-size="16.00" fill="#000000">workflow_params</text>
<polygon fill="none" stroke="#000000" points="33.5,-1880.5 33.5,-1905.5 179.5,-1905.5 179.5,-1880.5 33.5,-1880.5"/>
<text text-anchor="start" x="38.5" y="-1890.3" font-family="Helvetica,sans-Serif" text-decoration="underline" font-size="14.00" fill="#000000">key</text>
<polygon fill="none" stroke="#000000" points="33.5,-1855.5 33.5,-1880.5 179.5,-1880.5 179.5,-1855.5 33.5,-1855.5"/>
<text text-anchor="start" x="38.5" y="-1864.3" font-family="Helvetica,sans-Serif" font-size="14.00" fill="#000000">value</text>
</g>
<!-- workflow_template_vars -->
<g id="node17" class="node">
<title>workflow_template_vars</title>
<polygon fill="none" stroke="#000000" points="8.5,-2009.5 8.5,-2037.5 205.5,-2037.5 205.5,-2009.5 8.5,-2009.5"/>
<text text-anchor="start" x="13.5" y="-2020.7" font-family="Helvetica,sans-Serif" font-weight="bold" font-size="16.00" fill="#000000">workflow_template_vars</text>
<polygon fill="none" stroke="#000000" points="8.5,-1984.5 8.5,-2009.5 205.5,-2009.5 205.5,-1984.5 8.5,-1984.5"/>
<text text-anchor="start" x="13.5" y="-1994.3" font-family="Helvetica,sans-Serif" text-decoration="underline" font-size="14.00" fill="#000000">key</text>
<polygon fill="none" stroke="#000000" points="8.5,-1959.5 8.5,-1984.5 205.5,-1984.5 205.5,-1959.5 8.5,-1959.5"/>
<text text-anchor="start" x="13.5" y="-1968.3" font-family="Helvetica,sans-Serif" font-size="14.00" fill="#000000">value</text>
</g>
<!-- xtriggers -->
<g id="node18" class="node">
<title>xtriggers</title>
<polygon fill="none" stroke="#000000" points="28.5,-2338.5 28.5,-2366.5 184.5,-2366.5 184.5,-2338.5 28.5,-2338.5"/>
<text text-anchor="start" x="72" y="-2349.7" font-family="Helvetica,sans-Serif" font-weight="bold" font-size="16.00" fill="#000000">xtriggers</text>
<polygon fill="none" stroke="#000000" points="28.5,-2313.5 28.5,-2338.5 184.5,-2338.5 184.5,-2313.5 28.5,-2313.5"/>
<text text-anchor="start" x="33.5" y="-2323.3" font-family="Helvetica,sans-Serif" text-decoration="underline" font-size="14.00" fill="#000000">signature</text>
<polygon fill="none" stroke="#000000" points="28.5,-2288.5 28.5,-2313.5 184.5,-2313.5 184.5,-2288.5 28.5,-2288.5"/>
<text text-anchor="start" x="33.5" y="-2297.3" font-family="Helvetica,sans-Serif" font-size="14.00" fill="#000000">results</text>
<polygon fill="none" stroke="#000000" points="28.5,-2263.5 28.5,-2288.5 184.5,-2288.5 184.5,-2263.5 28.5,-2263.5"/>
<text text-anchor="start" x="33.5" y="-2272.3" font-family="Helvetica,sans-Serif" font-size="14.00" fill="#000000">absolute_outputs</text>
<polygon fill="none" stroke="#000000" points="28.5,-2238.5 28.5,-2263.5 184.5,-2263.5 184.5,-2238.5 28.5,-2238.5"/>
<text text-anchor="start" x="33.5" y="-2247.3" font-family="Helvetica,sans-Serif" font-size="14.00" fill="#000000">broadcast_events</text>
<polygon fill="none" stroke="#000000" points="28.5,-2213.5 28.5,-2238.5 184.5,-2238.5 184.5,-2213.5 28.5,-2213.5"/>
<text text-anchor="start" x="33.5" y="-2222.3" font-family="Helvetica,sans-Serif" font-size="14.00" fill="#000000">broadcast_states</text>
<polygon fill="none" stroke="#000000" points="28.5,-2188.5 28.5,-2213.5 184.5,-2213.5 184.5,-2188.5 28.5,-2188.5"/>
<text text-anchor="start" x="33.5" y="-2197.3" font-family="Helvetica,sans-Serif" font-size="14.00" fill="#000000">inheritance</text>
<polygon fill="none" stroke="#000000" points="28.5,-2163.5 28.5,-2188.5 184.5,-2188.5 184.5,-2163.5 28.5,-2163.5"/>
<text text-anchor="start" x="33.5" y="-2172.3" font-family="Helvetica,sans-Serif" font-size="14.00" fill="#000000">tasks_to_hold</text>
<polygon fill="none" stroke="#000000" points="28.5,-2138.5 28.5,-2163.5 184.5,-2163.5 184.5,-2138.5 28.5,-2138.5"/>
<text text-anchor="start" x="33.5" y="-2147.3" font-family="Helvetica,sans-Serif" font-size="14.00" fill="#000000">workflow_flows</text>
<polygon fill="none" stroke="#000000" points="28.5,-2113.5 28.5,-2138.5 184.5,-2138.5 184.5,-2113.5 28.5,-2113.5"/>
<text text-anchor="start" x="33.5" y="-2122.3" font-family="Helvetica,sans-Serif" font-size="14.00" fill="#000000">workflow_params</text>
<polygon fill="none" stroke="#000000" points="28.5,-2088.5 28.5,-2113.5 184.5,-2113.5 184.5,-2088.5 28.5,-2088.5"/>
<text text-anchor="start" x="33.5" y="-2097.3" font-family="Helvetica,sans-Serif" font-size="14.00" fill="#000000">workflow_template_vars</text>
<polygon fill="none" stroke="#000000" points="28.5,-2063.5 28.5,-2088.5 184.5,-2088.5 184.5,-2063.5 28.5,-2063.5"/>
<text text-anchor="start" x="33.5" y="-2072.3" font-family="Helvetica,sans-Serif" font-size="14.00" fill="#000000">xtriggers</text>
</g>
</g>
</svg>
