<?xml version="1.0" encoding="UTF-8" standalone="no"?>
<!DOCTYPE svg PUBLIC "-//W3C//DTD SVG 1.1//EN"
 "http://www.w3.org/Graphics/SVG/1.1/DTD/svg11.dtd">
<!-- Generated by graphviz version 8.0.4 (20230426.1303)
 -->
<!-- Title: Example Pages: 1 -->
<svg width="280pt" height="260pt"
 viewBox="0.00 0.00 280.48 260.00" xmlns="http://www.w3.org/2000/svg" xmlns:xlink="http://www.w3.org/1999/xlink">
<g id="graph0" class="graph" transform="scale(1 1) rotate(0) translate(4 256)">
<title>Example</title>
<polygon fill="none" stroke="none" points="-4,4 -4,-256 276.48,-256 276.48,4 -4,4"/>
<!-- VEHICLE -->
<g id="node1" class="node">
<title>VEHICLE</title>
<polygon fill="powderblue" stroke="royalblue" points="98.88,-252 22.88,-252 22.88,-216 98.88,-216 98.88,-252"/>
<text text-anchor="middle" x="60.88" y="-229.32" font-family="sans" font-size="14.00">VEHICLE</text>
</g>
<!-- LAND_VEHICLE -->
<g id="node2" class="node">
<title>LAND_VEHICLE</title>
<polygon fill="powderblue" stroke="royalblue" points="121.75,-180 0,-180 0,-144 121.75,-144 121.75,-180"/>
<text text-anchor="middle" x="60.88" y="-157.32" font-family="sans" font-size="14.00">LAND_VEHICLE</text>
</g>
<!-- VEHICLE&#45;&gt;LAND_VEHICLE -->
<g id="edge1" class="edge">
<title>VEHICLE&#45;&gt;LAND_VEHICLE</title>
<path fill="none" stroke="black" d="M60.88,-215.7C60.88,-208.24 60.88,-199.32 60.88,-190.97"/>
<polygon fill="black" stroke="black" points="64.38,-191.1 60.88,-181.1 57.38,-191.1 64.38,-191.1"/>
</g>
<!-- BICYCLE -->
<g id="node3" class="node">
<title>BICYCLE</title>
<polygon fill="powderblue" stroke="royalblue" points="97.75,-108 24,-108 24,-72 97.75,-72 97.75,-108"/>
<text text-anchor="middle" x="60.88" y="-85.33" font-family="sans" font-size="14.00">BICYCLE</text>
</g>
<!-- LAND_VEHICLE&#45;&gt;BICYCLE -->
<g id="edge2" class="edge">
<title>LAND_VEHICLE&#45;&gt;BICYCLE</title>
<path fill="none" stroke="black" d="M60.88,-143.7C60.88,-136.24 60.88,-127.32 60.88,-118.97"/>
<polygon fill="black" stroke="black" points="64.38,-119.1 60.88,-109.1 57.38,-119.1 64.38,-119.1"/>
</g>
<!-- penny_farthing -->
<g id="node5" class="node">
<title>penny_farthing</title>
<polygon fill="powderblue" stroke="royalblue" points="201.35,-36 52.4,-36 52.4,0 201.35,0 201.35,-36"/>
<text text-anchor="middle" x="126.88" y="-13.32" font-family="sans" font-size="14.00">penny_farthing</text>
</g>
<!-- BICYCLE&#45;&gt;penny_farthing -->
<g id="edge3" class="edge">
<title>BICYCLE&#45;&gt;penny_farthing</title>
<path fill="none" stroke="black" d="M77.19,-71.7C85.1,-63.3 94.75,-53.07 103.43,-43.86"/>
<polygon fill="black" stroke="black" points="105.43,-46.78 109.75,-37.1 100.34,-41.98 105.43,-46.78"/>
</g>
<!-- HUMAN_ENGINE -->
<g id="node4" class="node">
<title>HUMAN_ENGINE</title>
<polygon fill="powderblue" stroke="royalblue" points="272.48,-108 115.28,-108 115.28,-72 272.48,-72 272.48,-108"/>
<text text-anchor="middle" x="193.88" y="-85.33" font-family="sans" font-size="14.00">HUMAN_ENGINE</text>
</g>
<!-- HUMAN_ENGINE&#45;&gt;penny_farthing -->
<g id="edge4" class="edge">
<title>HUMAN_ENGINE&#45;&gt;penny_farthing</title>
<path fill="none" stroke="black" d="M177.31,-71.7C169.28,-63.3 159.49,-53.07 150.67,-43.86"/>
<polygon fill="black" stroke="black" points="153.69,-41.91 144.25,-37.1 148.63,-46.75 153.69,-41.91"/>
</g>
</g>
</svg>
