<?xml version="1.0" encoding="UTF-8" standalone="no"?>
<!DOCTYPE svg PUBLIC "-//W3C//DTD SVG 1.1//EN"
 "http://www.w3.org/Graphics/SVG/1.1/DTD/svg11.dtd">
<!-- Generated by graphviz version 8.0.4 (20230426.1303)
 -->
<!-- Title: _ Pages: 1 -->
<svg width="202pt" height="398pt"
 viewBox="0.00 0.00 202.40 398.00" xmlns="http://www.w3.org/2000/svg" xmlns:xlink="http://www.w3.org/1999/xlink">
<g id="graph0" class="graph" transform="scale(1 1) rotate(0) translate(4 394)">
<title>_</title>
<polygon fill="none" stroke="none" points="-4,4 -4,-394 198.4,-394 198.4,4 -4,4"/>
<!-- Jobs -->
<g id="node1" class="node">
<title>Jobs</title>
<ellipse fill="none" stroke="black" cx="60.15" cy="-372" rx="31.74" ry="18"/>
<text text-anchor="middle" x="60.15" y="-367.32" font-family="sans" font-size="14.00">Jobs</text>
</g>
<!-- Scheduler -->
<g id="node2" class="node">
<title>Scheduler</title>
<ellipse fill="none" stroke="black" cx="60.15" cy="-248.25" rx="60.15" ry="18"/>
<text text-anchor="middle" x="60.15" y="-243.57" font-family="sans" font-size="14.00">Scheduler</text>
</g>
<!-- Jobs&#45;&gt;Scheduler -->
<g id="edge1" class="edge">
<title>Jobs&#45;&gt;Scheduler</title>
<path fill="none" stroke="black" d="M60.15,-353.56C60.15,-333.67 60.15,-300.87 60.15,-277.36"/>
<polygon fill="black" stroke="black" points="63.65,-277.66 60.15,-267.66 56.65,-277.66 63.65,-277.66"/>
<text text-anchor="middle" x="94.65" y="-322.7" font-family="Times,serif" font-size="14.00"> ZMQ</text>
<text text-anchor="middle" x="94.65" y="-305.45" font-family="Times,serif" font-size="14.00"> GraphQL</text>
<text text-anchor="middle" x="94.65" y="-288.2" font-family="Times,serif" font-size="14.00"> (default)</text>
</g>
<!-- UIS -->
<g id="node3" class="node">
<title>UIS</title>
<ellipse fill="none" stroke="black" cx="60.15" cy="-124.5" rx="28.06" ry="18"/>
<text text-anchor="middle" x="60.15" y="-119.83" font-family="sans" font-size="14.00">UIS</text>
</g>
<!-- Scheduler&#45;&gt;UIS -->
<g id="edge2" class="edge">
<title>Scheduler&#45;&gt;UIS</title>
<path fill="none" stroke="black" d="M60.15,-229.81C60.15,-209.92 60.15,-177.12 60.15,-153.61"/>
<polygon fill="black" stroke="black" points="63.65,-153.91 60.15,-143.91 56.65,-153.91 63.65,-153.91"/>
<text text-anchor="middle" x="127.28" y="-198.95" font-family="Times,serif" font-size="14.00"> ZMQ</text>
<text text-anchor="middle" x="127.28" y="-181.7" font-family="Times,serif" font-size="14.00"> GraphQL (control)</text>
<text text-anchor="middle" x="127.28" y="-164.45" font-family="Times,serif" font-size="14.00"> Protobuf (data)</text>
</g>
<!-- UI -->
<g id="node4" class="node">
<title>UI</title>
<ellipse fill="none" stroke="black" cx="60.15" cy="-18" rx="27" ry="18"/>
<text text-anchor="middle" x="60.15" y="-13.32" font-family="sans" font-size="14.00">UI</text>
</g>
<!-- UIS&#45;&gt;UI -->
<g id="edge3" class="edge">
<title>UIS&#45;&gt;UI</title>
<path fill="none" stroke="black" d="M60.15,-106.24C60.15,-90.21 60.15,-66.04 60.15,-47.2"/>
<polygon fill="black" stroke="black" points="63.65,-47.28 60.15,-37.28 56.65,-47.28 63.65,-47.28"/>
<text text-anchor="middle" x="100.65" y="-75.2" font-family="Times,serif" font-size="14.00"> Websocket</text>
<text text-anchor="middle" x="100.65" y="-57.95" font-family="Times,serif" font-size="14.00"> GraphQL</text>
</g>
</g>
</svg>
