<?xml version="1.0" encoding="UTF-8" standalone="no"?>
<!DOCTYPE svg PUBLIC "-//W3C//DTD SVG 1.1//EN"
 "http://www.w3.org/Graphics/SVG/1.1/DTD/svg11.dtd">
<!-- Generated by graphviz version 8.0.4 (20230426.1303)
 -->
<!-- Title: Example Pages: 1 -->
<svg width="140pt" height="265pt"
 viewBox="0.00 0.00 139.72 265.25" xmlns="http://www.w3.org/2000/svg" xmlns:xlink="http://www.w3.org/1999/xlink">
<g id="graph0" class="graph" transform="scale(1 1) rotate(0) translate(4 261.25)">
<title>Example</title>
<polygon fill="none" stroke="none" points="-4,4 -4,-261.25 135.72,-261.25 135.72,4 -4,4"/>
<g id="clust1" class="cluster">
<title>cluster_1</title>
<polygon fill="none" stroke="red" stroke-dasharray="5,2" points="8,-64 8,-141.25 120,-141.25 120,-64 8,-64"/>
<text text-anchor="middle" x="64" y="-123.95" font-family="sans" font-size="14.00" fill="red">:fail</text>
</g>
<!-- recover -->
<g id="node1" class="node">
<title>recover</title>
<ellipse fill="none" stroke="black" cx="64" cy="-90" rx="47.53" ry="18"/>
<text text-anchor="middle" x="64" y="-85.33" font-family="sans" font-size="14.00">recover</text>
</g>
<!-- baz -->
<g id="node4" class="node">
<title>baz</title>
<ellipse fill="none" stroke="black" cx="102" cy="-18" rx="28.59" ry="18"/>
<text text-anchor="middle" x="102" y="-13.32" font-family="sans" font-size="14.00">baz</text>
</g>
<!-- recover&#45;&gt;baz -->
<g id="edge3" class="edge">
<title>recover&#45;&gt;baz</title>
<path fill="none" stroke="black" d="M73.2,-72.05C77.65,-63.85 83.09,-53.83 88.04,-44.71"/>
<polygon fill="none" stroke="black" points="91.45,-46.77 93.15,-36.31 85.3,-43.43 91.45,-46.77"/>
</g>
<!-- foo -->
<g id="node2" class="node">
<title>foo</title>
<ellipse fill="none" stroke="black" cx="102" cy="-239.25" rx="27" ry="18"/>
<text text-anchor="middle" x="102" y="-234.57" font-family="sans" font-size="14.00">foo</text>
</g>
<!-- bar -->
<g id="node3" class="node">
<title>bar</title>
<ellipse fill="none" stroke="black" cx="102" cy="-167.25" rx="27.53" ry="18"/>
<text text-anchor="middle" x="102" y="-162.57" font-family="sans" font-size="14.00">bar</text>
</g>
<!-- foo&#45;&gt;bar -->
<g id="edge1" class="edge">
<title>foo&#45;&gt;bar</title>
<path fill="none" stroke="black" d="M102,-220.95C102,-213.49 102,-204.57 102,-196.22"/>
<polygon fill="black" stroke="black" points="105.5,-196.35 102,-186.35 98.5,-196.35 105.5,-196.35"/>
</g>
<!-- bar&#45;&gt;recover -->
<g id="edge2" class="edge">
<title>bar&#45;&gt;recover</title>
<path fill="none" stroke="black" d="M93.75,-149.92C89.02,-140.55 82.97,-128.56 77.55,-117.84"/>
<polygon fill="black" stroke="black" points="80.26,-116.43 72.63,-109.08 74.01,-119.58 80.26,-116.43"/>
</g>
<!-- bar&#45;&gt;baz -->
<g id="edge4" class="edge">
<title>bar&#45;&gt;baz</title>
<path fill="none" stroke="black" d="M117.48,-152.11C120.15,-148.83 122.53,-145.14 124,-141.25 136.12,-109.13 131.74,-97.45 124,-64 122.49,-57.49 119.91,-50.83 117.03,-44.7"/>
<polygon fill="none" stroke="black" points="119.72,-43.29 112.04,-36 113.5,-46.49 119.72,-43.29"/>
</g>
</g>
</svg>
