<?xml version="1.0" encoding="UTF-8" standalone="no"?>
<!DOCTYPE svg PUBLIC "-//W3C//DTD SVG 1.1//EN"
 "http://www.w3.org/Graphics/SVG/1.1/DTD/svg11.dtd">
<!-- Generated by graphviz version 8.0.4 (20230426.1303)
 -->
<!-- Title: Example Pages: 1 -->
<svg width="360pt" height="65pt"
 viewBox="0.00 0.00 360.00 64.77" xmlns="http://www.w3.org/2000/svg" xmlns:xlink="http://www.w3.org/1999/xlink">
<g id="graph0" class="graph" transform="scale(0.558399 0.558399) rotate(0) translate(4 112)">
<title>Example</title>
<polygon fill="none" stroke="none" points="-4,4 -4,-112 640.7,-112 640.7,4 -4,4"/>
<!-- ENGINE -->
<g id="node1" class="node">
<title>ENGINE</title>
<polygon fill="powderblue" stroke="royalblue" points="371.7,-108 274.5,-108 274.5,-72 371.7,-72 371.7,-108"/>
<text text-anchor="middle" x="323.1" y="-85.33" font-family="sans" font-size="14.00">ENGINE</text>
</g>
<!-- TURBINE_ENGINE -->
<g id="node2" class="node">
<title>TURBINE_ENGINE</title>
<polygon fill="powderblue" stroke="royalblue" points="166.2,-36 0,-36 0,0 166.2,0 166.2,-36"/>
<text text-anchor="middle" x="83.1" y="-13.32" font-family="sans" font-size="14.00">TURBINE_ENGINE</text>
</g>
<!-- ENGINE&#45;&gt;TURBINE_ENGINE -->
<g id="edge1" class="edge">
<title>ENGINE&#45;&gt;TURBINE_ENGINE</title>
<path fill="none" stroke="black" d="M274.24,-74.75C239.39,-64.59 192.01,-50.77 153.15,-39.43"/>
<polygon fill="black" stroke="black" points="154.52,-35.89 143.94,-36.45 152.56,-42.61 154.52,-35.89"/>
</g>
<!-- INTERNAL_COMBUSTION_ENGINE -->
<g id="node3" class="node">
<title>INTERNAL_COMBUSTION_ENGINE</title>
<polygon fill="powderblue" stroke="royalblue" points="461.7,-36 184.5,-36 184.5,0 461.7,0 461.7,-36"/>
<text text-anchor="middle" x="323.1" y="-13.32" font-family="sans" font-size="14.00">INTERNAL_COMBUSTION_ENGINE</text>
</g>
<!-- ENGINE&#45;&gt;INTERNAL_COMBUSTION_ENGINE -->
<g id="edge2" class="edge">
<title>ENGINE&#45;&gt;INTERNAL_COMBUSTION_ENGINE</title>
<path fill="none" stroke="black" d="M323.1,-71.7C323.1,-64.24 323.1,-55.32 323.1,-46.97"/>
<polygon fill="black" stroke="black" points="326.6,-47.1 323.1,-37.1 319.6,-47.1 326.6,-47.1"/>
</g>
<!-- HUMAN_ENGINE -->
<g id="node4" class="node">
<title>HUMAN_ENGINE</title>
<polygon fill="powderblue" stroke="royalblue" points="636.7,-36 479.5,-36 479.5,0 636.7,0 636.7,-36"/>
<text text-anchor="middle" x="558.1" y="-13.32" font-family="sans" font-size="14.00">HUMAN_ENGINE</text>
</g>
<!-- ENGINE&#45;&gt;HUMAN_ENGINE -->
<g id="edge3" class="edge">
<title>ENGINE&#45;&gt;HUMAN_ENGINE</title>
<path fill="none" stroke="black" d="M372.08,-74.41C406.01,-64.3 451.67,-50.7 489.26,-39.51"/>
<polygon fill="black" stroke="black" points="490.05,-42.63 498.63,-36.42 488.05,-35.92 490.05,-42.63"/>
</g>
</g>
</svg>
