<?xml version="1.0" encoding="UTF-8" standalone="no"?>
<!DOCTYPE svg PUBLIC "-//W3C//DTD SVG 1.1//EN"
 "http://www.w3.org/Graphics/SVG/1.1/DTD/svg11.dtd">
<!-- Generated by graphviz version 8.0.4 (20230426.1303)
 -->
<!-- Title: Example Pages: 1 -->
<svg width="504pt" height="154pt"
 viewBox="0.00 0.00 504.00 153.80" xmlns="http://www.w3.org/2000/svg" xmlns:xlink="http://www.w3.org/1999/xlink">
<g id="graph0" class="graph" transform="scale(0.463246 0.463246) rotate(0) translate(4 328)">
<title>Example</title>
<polygon fill="none" stroke="none" points="-4,4 -4,-328 1083.97,-328 1083.97,4 -4,4"/>
<!-- root -->
<g id="node1" class="node">
<title>root</title>
<polygon fill="powderblue" stroke="royalblue" points="696.1,-324 642.1,-324 642.1,-288 696.1,-288 696.1,-324"/>
<text text-anchor="middle" x="669.1" y="-301.32" font-family="sans" font-size="14.00">root</text>
</g>
<!-- ENGINE -->
<g id="node2" class="node">
<title>ENGINE</title>
<polygon fill="powderblue" stroke="royalblue" points="583.1,-180 513.1,-180 513.1,-144 583.1,-144 583.1,-180"/>
<text text-anchor="middle" x="548.1" y="-157.32" font-family="sans" font-size="14.00">ENGINE</text>
</g>
<!-- root&#45;&gt;ENGINE -->
<g id="edge1" class="edge">
<title>root&#45;&gt;ENGINE</title>
<path fill="none" stroke="royalblue" d="M654.26,-287.59C633.1,-262.76 594.12,-217.01 569.74,-188.4"/>
<polygon fill="royalblue" stroke="royalblue" points="571.83,-186.45 562.68,-181.11 566.5,-190.99 571.83,-186.45"/>
</g>
<!-- VEHICLE -->
<g id="node3" class="node">
<title>VEHICLE</title>
<polygon fill="powderblue" stroke="royalblue" points="760.1,-252 684.1,-252 684.1,-216 760.1,-216 760.1,-252"/>
<text text-anchor="middle" x="722.1" y="-229.32" font-family="sans" font-size="14.00">VEHICLE</text>
</g>
<!-- root&#45;&gt;VEHICLE -->
<g id="edge2" class="edge">
<title>root&#45;&gt;VEHICLE</title>
<path fill="none" stroke="royalblue" d="M682.2,-287.7C688.36,-279.56 695.84,-269.69 702.64,-260.7"/>
<polygon fill="royalblue" stroke="royalblue" points="705.9,-263.19 709.15,-253.1 700.32,-258.96 705.9,-263.19"/>
</g>
<!-- INTERNAL_COMBUSTION_ENGINE -->
<g id="node4" class="node">
<title>INTERNAL_COMBUSTION_ENGINE</title>
<polygon fill="powderblue" stroke="royalblue" points="686.7,-108 409.5,-108 409.5,-72 686.7,-72 686.7,-108"/>
<text text-anchor="middle" x="548.1" y="-85.33" font-family="sans" font-size="14.00">INTERNAL_COMBUSTION_ENGINE</text>
</g>
<!-- ENGINE&#45;&gt;INTERNAL_COMBUSTION_ENGINE -->
<g id="edge3" class="edge">
<title>ENGINE&#45;&gt;INTERNAL_COMBUSTION_ENGINE</title>
<path fill="none" stroke="royalblue" d="M548.1,-143.7C548.1,-136.24 548.1,-127.32 548.1,-118.97"/>
<polygon fill="royalblue" stroke="royalblue" points="551.6,-119.1 548.1,-109.1 544.6,-119.1 551.6,-119.1"/>
</g>
<!-- TURBINE_ENGINE -->
<g id="node5" class="node">
<title>TURBINE_ENGINE</title>
<polygon fill="powderblue" stroke="royalblue" points="166.2,-108 0,-108 0,-72 166.2,-72 166.2,-108"/>
<text text-anchor="middle" x="83.1" y="-85.33" font-family="sans" font-size="14.00">TURBINE_ENGINE</text>
</g>
<!-- ENGINE&#45;&gt;TURBINE_ENGINE -->
<g id="edge4" class="edge">
<title>ENGINE&#45;&gt;TURBINE_ENGINE</title>
<path fill="none" stroke="royalblue" d="M512.8,-156.48C448.25,-148.11 306.61,-129.25 176.83,-108.25"/>
<polygon fill="royalblue" stroke="royalblue" points="177.75,-104.69 167.32,-106.54 176.63,-111.6 177.75,-104.69"/>
</g>
<!-- HUMAN_ENGINE -->
<g id="node6" class="node">
<title>HUMAN_ENGINE</title>
<polygon fill="powderblue" stroke="royalblue" points="861.7,-108 704.5,-108 704.5,-72 861.7,-72 861.7,-108"/>
<text text-anchor="middle" x="783.1" y="-85.33" font-family="sans" font-size="14.00">HUMAN_ENGINE</text>
</g>
<!-- ENGINE&#45;&gt;HUMAN_ENGINE -->
<g id="edge5" class="edge">
<title>ENGINE&#45;&gt;HUMAN_ENGINE</title>
<path fill="none" stroke="royalblue" d="M583.53,-146.97C586.42,-145.93 589.3,-144.93 592.1,-144 628.37,-131.99 669.1,-120.43 703.6,-111.19"/>
<polygon fill="royalblue" stroke="royalblue" points="704.33,-114.35 713.1,-108.4 702.53,-107.59 704.33,-114.35"/>
</g>
<!-- LAND_VEHICLE -->
<g id="node7" class="node">
<title>LAND_VEHICLE</title>
<polygon fill="powderblue" stroke="royalblue" points="995.98,-180 874.23,-180 874.23,-144 995.98,-144 995.98,-180"/>
<text text-anchor="middle" x="935.1" y="-157.32" font-family="sans" font-size="14.00">LAND_VEHICLE</text>
</g>
<!-- VEHICLE&#45;&gt;LAND_VEHICLE -->
<g id="edge6" class="edge">
<title>VEHICLE&#45;&gt;LAND_VEHICLE</title>
<path fill="none" stroke="royalblue" d="M760.18,-220.49C791.24,-210.28 835.77,-195.64 872.13,-183.69"/>
<polygon fill="royalblue" stroke="royalblue" points="872.74,-186.85 881.15,-180.4 870.56,-180.2 872.74,-186.85"/>
</g>
<!-- WATER_VEHICLE -->
<g id="node8" class="node">
<title>WATER_VEHICLE</title>
<polygon fill="powderblue" stroke="royalblue" points="856.48,-180 725.73,-180 725.73,-144 856.48,-144 856.48,-180"/>
<text text-anchor="middle" x="791.1" y="-157.32" font-family="sans" font-size="14.00">WATER_VEHICLE</text>
</g>
<!-- VEHICLE&#45;&gt;WATER_VEHICLE -->
<g id="edge7" class="edge">
<title>VEHICLE&#45;&gt;WATER_VEHICLE</title>
<path fill="none" stroke="royalblue" d="M739.16,-215.7C747.43,-207.3 757.52,-197.07 766.59,-187.86"/>
<polygon fill="royalblue" stroke="royalblue" points="768.71,-190.68 773.24,-181.1 763.73,-185.77 768.71,-190.68"/>
</g>
<!-- AIR_VEHICLE -->
<g id="node9" class="node">
<title>AIR_VEHICLE</title>
<polygon fill="powderblue" stroke="royalblue" points="707.48,-180 600.73,-180 600.73,-144 707.48,-144 707.48,-180"/>
<text text-anchor="middle" x="654.1" y="-157.32" font-family="sans" font-size="14.00">AIR_VEHICLE</text>
</g>
<!-- VEHICLE&#45;&gt;AIR_VEHICLE -->
<g id="edge8" class="edge">
<title>VEHICLE&#45;&gt;AIR_VEHICLE</title>
<path fill="none" stroke="royalblue" d="M705.29,-215.7C697.14,-207.3 687.2,-197.07 678.25,-187.86"/>
<polygon fill="royalblue" stroke="royalblue" points="681.19,-185.84 671.72,-181.1 676.17,-190.72 681.19,-185.84"/>
</g>
<!-- r44 -->
<g id="node10" class="node">
<title>r44</title>
<polygon fill="powderblue" stroke="royalblue" points="459.1,-36 405.1,-36 405.1,0 459.1,0 459.1,-36"/>
<text text-anchor="middle" x="432.1" y="-13.32" font-family="sans" font-size="14.00">r44</text>
</g>
<!-- INTERNAL_COMBUSTION_ENGINE&#45;&gt;r44 -->
<g id="edge9" class="edge">
<title>INTERNAL_COMBUSTION_ENGINE&#45;&gt;r44</title>
<path fill="none" stroke="royalblue" d="M519.13,-71.52C503.87,-62.31 485,-50.92 468.74,-41.11"/>
<polygon fill="royalblue" stroke="royalblue" points="470.88,-37.71 460.51,-35.54 467.26,-43.7 470.88,-37.71"/>
</g>
<!-- bht130 -->
<g id="node11" class="node">
<title>bht130</title>
<polygon fill="powderblue" stroke="royalblue" points="635.23,-36 568.98,-36 568.98,0 635.23,0 635.23,-36"/>
<text text-anchor="middle" x="602.1" y="-13.32" font-family="sans" font-size="14.00">bht130</text>
</g>
<!-- INTERNAL_COMBUSTION_ENGINE&#45;&gt;bht130 -->
<g id="edge10" class="edge">
<title>INTERNAL_COMBUSTION_ENGINE&#45;&gt;bht130</title>
<path fill="none" stroke="royalblue" d="M561.45,-71.7C567.73,-63.56 575.34,-53.69 582.27,-44.7"/>
<polygon fill="royalblue" stroke="royalblue" points="585.57,-47.16 588.91,-37.1 580.03,-42.88 585.57,-47.16"/>
</g>
<!-- v22 -->
<g id="node12" class="node">
<title>v22</title>
<polygon fill="powderblue" stroke="royalblue" points="254.1,-36 200.1,-36 200.1,0 254.1,0 254.1,-36"/>
<text text-anchor="middle" x="227.1" y="-13.32" font-family="sans" font-size="14.00">v22</text>
</g>
<!-- TURBINE_ENGINE&#45;&gt;v22 -->
<g id="edge11" class="edge">
<title>TURBINE_ENGINE&#45;&gt;v22</title>
<path fill="none" stroke="royalblue" d="M119.07,-71.52C140.64,-61.03 168.03,-47.71 189.83,-37.12"/>
<polygon fill="royalblue" stroke="royalblue" points="191.26,-39.83 198.73,-32.31 188.2,-33.53 191.26,-39.83"/>
</g>
<!-- a380 -->
<g id="node13" class="node">
<title>a380</title>
<polygon fill="powderblue" stroke="royalblue" points="146.1,-36 92.1,-36 92.1,0 146.1,0 146.1,-36"/>
<text text-anchor="middle" x="119.1" y="-13.32" font-family="sans" font-size="14.00">a380</text>
</g>
<!-- TURBINE_ENGINE&#45;&gt;a380 -->
<g id="edge12" class="edge">
<title>TURBINE_ENGINE&#45;&gt;a380</title>
<path fill="none" stroke="royalblue" d="M92,-71.7C96.01,-63.9 100.84,-54.51 105.3,-45.83"/>
<polygon fill="royalblue" stroke="royalblue" points="108.84,-47.6 110.3,-37.1 102.62,-44.4 108.84,-47.6"/>
</g>
<!-- penny_farthing -->
<g id="node14" class="node">
<title>penny_farthing</title>
<polygon fill="powderblue" stroke="royalblue" points="987.58,-36 838.62,-36 838.62,0 987.58,0 987.58,-36"/>
<text text-anchor="middle" x="913.1" y="-13.32" font-family="sans" font-size="14.00">penny_farthing</text>
</g>
<!-- HUMAN_ENGINE&#45;&gt;penny_farthing -->
<g id="edge13" class="edge">
<title>HUMAN_ENGINE&#45;&gt;penny_farthing</title>
<path fill="none" stroke="royalblue" d="M815.57,-71.52C832.6,-62.34 853.66,-51.01 871.84,-41.22"/>
<polygon fill="royalblue" stroke="royalblue" points="872.9,-44.08 880.04,-36.26 869.58,-37.92 872.9,-44.08"/>
</g>
<!-- HOVERCRAFT -->
<g id="node17" class="node">
<title>HOVERCRAFT</title>
<polygon fill="powderblue" stroke="royalblue" points="988.6,-108 879.6,-108 879.6,-72 988.6,-72 988.6,-108"/>
<text text-anchor="middle" x="934.1" y="-85.33" font-family="sans" font-size="14.00">HOVERCRAFT</text>
</g>
<!-- LAND_VEHICLE&#45;&gt;HOVERCRAFT -->
<g id="edge19" class="edge">
<title>LAND_VEHICLE&#45;&gt;HOVERCRAFT</title>
<path fill="none" stroke="royalblue" d="M934.85,-143.7C934.75,-136.24 934.62,-127.32 934.5,-118.97"/>
<polygon fill="royalblue" stroke="royalblue" points="937.99,-119.05 934.34,-109.1 930.99,-119.15 937.99,-119.05"/>
</g>
<!-- BICYCLE -->
<g id="node18" class="node">
<title>BICYCLE</title>
<polygon fill="powderblue" stroke="royalblue" points="1079.97,-108 1006.22,-108 1006.22,-72 1079.97,-72 1079.97,-108"/>
<text text-anchor="middle" x="1043.1" y="-85.33" font-family="sans" font-size="14.00">BICYCLE</text>
</g>
<!-- LAND_VEHICLE&#45;&gt;BICYCLE -->
<g id="edge20" class="edge">
<title>LAND_VEHICLE&#45;&gt;BICYCLE</title>
<path fill="none" stroke="royalblue" d="M962.07,-143.52C975.84,-134.6 992.76,-123.63 1007.57,-114.03"/>
<polygon fill="royalblue" stroke="royalblue" points="1008.98,-116.64 1015.47,-108.26 1005.17,-110.76 1008.98,-116.64"/>
</g>
<!-- WATER_VEHICLE&#45;&gt;HOVERCRAFT -->
<g id="edge21" class="edge">
<title>WATER_VEHICLE&#45;&gt;HOVERCRAFT</title>
<path fill="none" stroke="royalblue" d="M826.82,-143.52C845.64,-134.3 868.92,-122.9 888.98,-113.08"/>
<polygon fill="royalblue" stroke="royalblue" points="890.4,-115.8 897.84,-108.26 887.32,-109.51 890.4,-115.8"/>
</g>
<!-- AIRPLANE -->
<g id="node15" class="node">
<title>AIRPLANE</title>
<polygon fill="powderblue" stroke="royalblue" points="269.98,-108 184.23,-108 184.23,-72 269.98,-72 269.98,-108"/>
<text text-anchor="middle" x="227.1" y="-85.33" font-family="sans" font-size="14.00">AIRPLANE</text>
</g>
<!-- AIR_VEHICLE&#45;&gt;AIRPLANE -->
<g id="edge22" class="edge">
<title>AIR_VEHICLE&#45;&gt;AIRPLANE</title>
<path fill="none" stroke="royalblue" d="M600.45,-145.75C597.64,-145.12 594.84,-144.53 592.1,-144 457.98,-118.06 417.85,-136.93 280.8,-108.11"/>
<polygon fill="royalblue" stroke="royalblue" points="281.84,-104.54 271.33,-105.86 280.37,-111.38 281.84,-104.54"/>
</g>
<!-- HELICOPTER -->
<g id="node16" class="node">
<title>HELICOPTER</title>
<polygon fill="powderblue" stroke="royalblue" points="391.98,-108 288.23,-108 288.23,-72 391.98,-72 391.98,-108"/>
<text text-anchor="middle" x="340.1" y="-85.33" font-family="sans" font-size="14.00">HELICOPTER</text>
</g>
<!-- AIR_VEHICLE&#45;&gt;HELICOPTER -->
<g id="edge23" class="edge">
<title>AIR_VEHICLE&#45;&gt;HELICOPTER</title>
<path fill="none" stroke="royalblue" d="M600.4,-145.99C597.6,-145.29 594.82,-144.63 592.1,-144 510.8,-125.27 486.5,-127.63 402.88,-108.55"/>
<polygon fill="royalblue" stroke="royalblue" points="403.92,-104.97 393.38,-106.12 402.33,-111.78 403.92,-104.97"/>
</g>
<!-- AIR_VEHICLE&#45;&gt;HOVERCRAFT -->
<g id="edge24" class="edge">
<title>AIR_VEHICLE&#45;&gt;HOVERCRAFT</title>
<path fill="none" stroke="royalblue" d="M707.68,-146.41C710.87,-145.58 714.02,-144.77 717.1,-144 782.07,-127.65 801.17,-125.35 868.81,-108.53"/>
<polygon fill="royalblue" stroke="royalblue" points="869.3,-111.77 878.15,-105.94 867.6,-104.98 869.3,-111.77"/>
</g>
<!-- AIRPLANE&#45;&gt;v22 -->
<g id="edge14" class="edge">
<title>AIRPLANE&#45;&gt;v22</title>
<path fill="none" stroke="royalblue" d="M227.1,-71.7C227.1,-64.24 227.1,-55.32 227.1,-46.97"/>
<polygon fill="royalblue" stroke="royalblue" points="230.6,-47.1 227.1,-37.1 223.6,-47.1 230.6,-47.1"/>
</g>
<!-- AIRPLANE&#45;&gt;a380 -->
<g id="edge15" class="edge">
<title>AIRPLANE&#45;&gt;a380</title>
<path fill="none" stroke="royalblue" d="M200.13,-71.52C186.36,-62.6 169.44,-51.63 154.63,-42.03"/>
<polygon fill="royalblue" stroke="royalblue" points="157.03,-38.76 146.73,-36.26 153.22,-44.64 157.03,-38.76"/>
</g>
<!-- HELICOPTER&#45;&gt;r44 -->
<g id="edge17" class="edge">
<title>HELICOPTER&#45;&gt;r44</title>
<path fill="none" stroke="royalblue" d="M362.84,-71.7C374.23,-63.03 388.2,-52.4 400.61,-42.96"/>
<polygon fill="royalblue" stroke="royalblue" points="402.46,-45.19 408.3,-36.35 398.22,-39.62 402.46,-45.19"/>
</g>
<!-- HELICOPTER&#45;&gt;v22 -->
<g id="edge16" class="edge">
<title>HELICOPTER&#45;&gt;v22</title>
<path fill="none" stroke="royalblue" d="M311.88,-71.52C297.23,-62.44 279.17,-51.26 263.49,-41.54"/>
<polygon fill="royalblue" stroke="royalblue" points="265.92,-38.31 255.57,-36.02 262.23,-44.26 265.92,-38.31"/>
</g>
<!-- HOVERCRAFT&#45;&gt;bht130 -->
<g id="edge18" class="edge">
<title>HOVERCRAFT&#45;&gt;bht130</title>
<path fill="none" stroke="royalblue" d="M879.18,-73.94C876.45,-73.27 873.75,-72.62 871.1,-72 792.33,-53.64 699.62,-36.3 646.18,-26.72"/>
<polygon fill="royalblue" stroke="royalblue" points="646.85,-23.11 636.39,-24.79 645.62,-30 646.85,-23.11"/>
</g>
<!-- BICYCLE&#45;&gt;penny_farthing -->
<g id="edge25" class="edge">
<title>BICYCLE&#45;&gt;penny_farthing</title>
<path fill="none" stroke="royalblue" d="M1010.63,-71.52C993.6,-62.34 972.54,-51.01 954.36,-41.22"/>
<polygon fill="royalblue" stroke="royalblue" points="956.62,-37.92 946.16,-36.26 953.3,-44.08 956.62,-37.92"/>
</g>
</g>
</svg>
