<?xml version="1.0" encoding="UTF-8" standalone="no"?>
<!DOCTYPE svg PUBLIC "-//W3C//DTD SVG 1.1//EN"
 "http://www.w3.org/Graphics/SVG/1.1/DTD/svg11.dtd">
<!-- Generated by graphviz version 8.0.4 (20230426.1303)
 -->
<!-- Title: bakery Pages: 1 -->
<svg width="370pt" height="260pt"
 viewBox="0.00 0.00 369.91 260.00" xmlns="http://www.w3.org/2000/svg" xmlns:xlink="http://www.w3.org/1999/xlink">
<g id="graph0" class="graph" transform="scale(1 1) rotate(0) translate(4 256)">
<title>bakery</title>
<polygon fill="none" stroke="none" points="-4,4 -4,-256 365.91,-256 365.91,4 -4,4"/>
<!-- purchase ingredients -->
<g id="node1" class="node">
<title>purchase ingredients</title>
<ellipse fill="none" stroke="black" cx="113.82" cy="-234" rx="113.82" ry="18"/>
<text text-anchor="middle" x="113.82" y="-229.32" font-family="sans" font-size="14.00">purchase ingredients</text>
</g>
<!-- make dough -->
<g id="node2" class="node">
<title>make dough</title>
<ellipse fill="none" stroke="black" cx="113.82" cy="-162" rx="71.73" ry="18"/>
<text text-anchor="middle" x="113.82" y="-157.32" font-family="sans" font-size="14.00">make dough</text>
</g>
<!-- purchase ingredients&#45;&gt;make dough -->
<g id="edge1" class="edge">
<title>purchase ingredients&#45;&gt;make dough</title>
<path fill="none" stroke="black" d="M113.82,-215.7C113.82,-208.24 113.82,-199.32 113.82,-190.97"/>
<polygon fill="black" stroke="black" points="117.32,-191.1 113.82,-181.1 110.32,-191.1 117.32,-191.1"/>
</g>
<!-- bake bread -->
<g id="node3" class="node">
<title>bake bread</title>
<ellipse fill="none" stroke="black" cx="197.82" cy="-90" rx="65.41" ry="18"/>
<text text-anchor="middle" x="197.82" y="-85.33" font-family="sans" font-size="14.00">bake bread</text>
</g>
<!-- make dough&#45;&gt;bake bread -->
<g id="edge2" class="edge">
<title>make dough&#45;&gt;bake bread</title>
<path fill="none" stroke="black" d="M133.72,-144.41C144.5,-135.43 157.98,-124.19 169.8,-114.34"/>
<polygon fill="black" stroke="black" points="171.61,-116.56 177.05,-107.47 167.13,-111.18 171.61,-116.56"/>
</g>
<!-- sell bread -->
<g id="node4" class="node">
<title>sell bread</title>
<ellipse fill="none" stroke="black" cx="127.82" cy="-18" rx="58.57" ry="18"/>
<text text-anchor="middle" x="127.82" y="-13.32" font-family="sans" font-size="14.00">sell bread</text>
</g>
<!-- bake bread&#45;&gt;sell bread -->
<g id="edge3" class="edge">
<title>bake bread&#45;&gt;sell bread</title>
<path fill="none" stroke="black" d="M181.23,-72.41C172.51,-63.69 161.66,-52.85 152.02,-43.21"/>
<polygon fill="black" stroke="black" points="154.83,-41.07 145.29,-36.47 149.88,-46.02 154.83,-41.07"/>
</g>
<!-- clean oven -->
<g id="node5" class="node">
<title>clean oven</title>
<ellipse fill="none" stroke="black" cx="267.82" cy="-18" rx="63.83" ry="18"/>
<text text-anchor="middle" x="267.82" y="-13.32" font-family="sans" font-size="14.00">clean oven</text>
</g>
<!-- bake bread&#45;&gt;clean oven -->
<g id="edge4" class="edge">
<title>bake bread&#45;&gt;clean oven</title>
<path fill="none" stroke="black" d="M214.4,-72.41C223.12,-63.69 233.97,-52.85 243.61,-43.21"/>
<polygon fill="black" stroke="black" points="245.75,-46.02 250.35,-36.47 240.8,-41.07 245.75,-46.02"/>
</g>
<!-- pre&#45;heat oven -->
<g id="node6" class="node">
<title>pre&#45;heat oven</title>
<ellipse fill="none" stroke="black" cx="282.82" cy="-162" rx="79.09" ry="18"/>
<text text-anchor="middle" x="282.82" y="-157.32" font-family="sans" font-size="14.00">pre&#45;heat oven</text>
</g>
<!-- pre&#45;heat oven&#45;&gt;bake bread -->
<g id="edge5" class="edge">
<title>pre&#45;heat oven&#45;&gt;bake bread</title>
<path fill="none" stroke="black" d="M262.67,-144.41C251.77,-135.43 238.12,-124.19 226.16,-114.34"/>
<polygon fill="black" stroke="black" points="228.76,-111.13 218.81,-107.47 224.31,-116.53 228.76,-111.13"/>
</g>
</g>
</svg>
