<?xml version="1.0" encoding="UTF-8" standalone="no"?>
<!DOCTYPE svg PUBLIC "-//W3C//DTD SVG 1.1//EN"
 "http://www.w3.org/Graphics/SVG/1.1/DTD/svg11.dtd">
<!-- Generated by graphviz version 8.0.4 (20230426.1303)
 -->
<!-- Title: Example Pages: 1 -->
<svg width="282pt" height="193pt"
 viewBox="0.00 0.00 282.00 193.25" xmlns="http://www.w3.org/2000/svg" xmlns:xlink="http://www.w3.org/1999/xlink">
<g id="graph0" class="graph" transform="scale(1 1) rotate(0) translate(4 189.25)">
<title>Example</title>
<polygon fill="none" stroke="none" points="-4,4 -4,-189.25 278,-189.25 278,4 -4,4"/>
<g id="clust1" class="cluster">
<title>cluster_1</title>
<polygon fill="none" stroke="green" stroke-dasharray="5,2" points="8,-64 8,-141.25 94,-141.25 94,-64 8,-64"/>
<text text-anchor="middle" x="51" y="-123.95" font-family="sans" font-size="14.00" fill="green">:good</text>
</g>
<g id="clust2" class="cluster">
<title>cluster_2</title>
<polygon fill="none" stroke="red" stroke-dasharray="5,2" points="102,-64 102,-141.25 178,-141.25 178,-64 102,-64"/>
<text text-anchor="middle" x="140" y="-123.95" font-family="sans" font-size="14.00" fill="red">:bad</text>
</g>
<g id="clust3" class="cluster">
<title>cluster_3</title>
<polygon fill="none" stroke="purple" stroke-dasharray="5,2" points="186,-64 186,-141.25 266,-141.25 266,-64 186,-64"/>
<text text-anchor="middle" x="226" y="-123.95" font-family="sans" font-size="14.00" fill="purple">:ugly</text>
</g>
<!-- good -->
<g id="node1" class="node">
<title>good</title>
<ellipse fill="none" stroke="black" cx="51" cy="-90" rx="35.42" ry="18"/>
<text text-anchor="middle" x="51" y="-85.33" font-family="sans" font-size="14.00">good</text>
</g>
<!-- fin -->
<g id="node5" class="node">
<title>fin</title>
<ellipse fill="none" stroke="black" cx="140" cy="-18" rx="27" ry="18"/>
<text text-anchor="middle" x="140" y="-13.32" font-family="sans" font-size="14.00">fin</text>
</g>
<!-- good&#45;&gt;fin -->
<g id="edge4" class="edge">
<title>good&#45;&gt;fin</title>
<path fill="none" stroke="black" d="M69.44,-74.5C82.51,-64.22 100.21,-50.29 114.62,-38.96"/>
<polygon fill="none" stroke="black" points="116.39,-41.23 122.09,-32.3 112.06,-35.73 116.39,-41.23"/>
</g>
<!-- bad -->
<g id="node2" class="node">
<title>bad</title>
<ellipse fill="none" stroke="black" cx="140" cy="-90" rx="29.64" ry="18"/>
<text text-anchor="middle" x="140" y="-85.33" font-family="sans" font-size="14.00">bad</text>
</g>
<!-- bad&#45;&gt;fin -->
<g id="edge5" class="edge">
<title>bad&#45;&gt;fin</title>
<path fill="none" stroke="black" d="M140,-71.7C140,-64.24 140,-55.32 140,-46.97"/>
<polygon fill="none" stroke="black" points="143.5,-47.1 140,-37.1 136.5,-47.1 143.5,-47.1"/>
</g>
<!-- ugly -->
<g id="node3" class="node">
<title>ugly</title>
<ellipse fill="none" stroke="black" cx="226" cy="-90" rx="32.27" ry="18"/>
<text text-anchor="middle" x="226" y="-85.33" font-family="sans" font-size="14.00">ugly</text>
</g>
<!-- ugly&#45;&gt;fin -->
<g id="edge6" class="edge">
<title>ugly&#45;&gt;fin</title>
<path fill="none" stroke="black" d="M208.18,-74.5C195.63,-64.28 178.67,-50.47 164.8,-39.18"/>
<polygon fill="none" stroke="black" points="167.59,-36.13 157.63,-32.54 163.18,-41.56 167.59,-36.13"/>
</g>
<!-- showdown -->
<g id="node4" class="node">
<title>showdown</title>
<ellipse fill="none" stroke="black" cx="140" cy="-167.25" rx="62.78" ry="18"/>
<text text-anchor="middle" x="140" y="-162.57" font-family="sans" font-size="14.00">showdown</text>
</g>
<!-- showdown&#45;&gt;good -->
<g id="edge1" class="edge">
<title>showdown&#45;&gt;good</title>
<path fill="none" stroke="black" d="M111.7,-150.9C106.97,-147.92 102.23,-144.66 98,-141.25 88.41,-133.53 78.92,-123.88 71.01,-115.11"/>
<polygon fill="black" stroke="black" points="73.18,-113.27 63.96,-108.06 67.92,-117.88 73.18,-113.27"/>
</g>
<!-- showdown&#45;&gt;bad -->
<g id="edge2" class="edge">
<title>showdown&#45;&gt;bad</title>
<path fill="none" stroke="black" d="M140,-148.8C140,-139.96 140,-129.03 140,-119.05"/>
<polygon fill="black" stroke="black" points="143.5,-119.36 140,-109.36 136.5,-119.36 143.5,-119.36"/>
</g>
<!-- showdown&#45;&gt;ugly -->
<g id="edge3" class="edge">
<title>showdown&#45;&gt;ugly</title>
<path fill="none" stroke="black" d="M168.39,-151.02C173.11,-148.02 177.83,-144.72 182,-141.25 191.09,-133.68 199.92,-124.17 207.26,-115.46"/>
<polygon fill="black" stroke="black" points="210.45,-118.09 214.05,-108.12 205.02,-113.66 210.45,-118.09"/>
</g>
</g>
</svg>
