<?xml version="1.0" encoding="UTF-8" standalone="no"?>
<!DOCTYPE svg PUBLIC "-//W3C//DTD SVG 1.1//EN"
 "http://www.w3.org/Graphics/SVG/1.1/DTD/svg11.dtd">
<!-- Generated by graphviz version 8.0.4 (20230426.1303)
 -->
<!-- Title: example Pages: 1 -->
<svg width="324pt" height="568pt"
 viewBox="0.00 0.00 324.00 568.25" xmlns="http://www.w3.org/2000/svg" xmlns:xlink="http://www.w3.org/1999/xlink">
<g id="graph0" class="graph" transform="scale(0.439024 0.439024) rotate(0) translate(4 1290.35)">
<title>example</title>
<polygon fill="none" stroke="none" points="-4,4 -4,-1290.35 734,-1290.35 734,4 -4,4"/>
<g id="clust1" class="cluster">
<title>cluster_1</title>
<polygon fill="none" stroke="black" stroke-dasharray="5,2" points="8,-883.44 8,-1278.35 354,-1278.35 354,-883.44 8,-883.44"/>
<text text-anchor="middle" x="181" y="-1261.05" font-family="sans" font-size="14.00">1</text>
</g>
<g id="clust2" class="cluster">
<title>cluster_2</title>
<polygon fill="none" stroke="black" stroke-dasharray="5,2" points="376,-589.87 376,-984.79 722,-984.79 722,-589.87 376,-589.87"/>
<text text-anchor="middle" x="549" y="-967.49" font-family="sans" font-size="14.00">2</text>
</g>
<g id="clust3" class="cluster">
<title>cluster_3</title>
<polygon fill="none" stroke="black" stroke-dasharray="5,2" points="22,-296.31 22,-691.23 368,-691.23 368,-296.31 22,-296.31"/>
<text text-anchor="middle" x="195" y="-673.93" font-family="sans" font-size="14.00">3</text>
</g>
<g id="clust4" class="cluster">
<title>cluster_4</title>
<polygon fill="none" stroke="black" stroke-dasharray="5,2" points="376,-8 376,-397.67 722,-397.67 722,-8 376,-8"/>
<text text-anchor="middle" x="549" y="-380.37" font-family="sans" font-size="14.00">4</text>
</g>
<!-- 1/pur -->
<g id="node1" class="node">
<title>1/pur</title>
<ellipse fill="none" stroke="black" cx="256" cy="-1215.05" rx="89.8" ry="30.05"/>
<text text-anchor="middle" x="256" y="-1219" font-family="sans" font-size="14.00">buy_ingredients</text>
<text text-anchor="middle" x="256" y="-1201.75" font-family="sans" font-size="14.00">1</text>
</g>
<!-- 1/mak -->
<g id="node2" class="node">
<title>1/mak</title>
<ellipse fill="none" stroke="black" cx="272" cy="-1118.95" rx="73.89" ry="30.05"/>
<text text-anchor="middle" x="272" y="-1122.9" font-family="sans" font-size="14.00">make_dough</text>
<text text-anchor="middle" x="272" y="-1105.65" font-family="sans" font-size="14.00">1</text>
</g>
<!-- 1/pur&#45;&gt;1/mak -->
<g id="edge1" class="edge">
<title>1/pur&#45;&gt;1/mak</title>
<path fill="none" stroke="black" d="M260.97,-1184.79C262.31,-1176.91 263.79,-1168.25 265.21,-1159.9"/>
<polygon fill="black" stroke="black" points="268.8,-1160.63 267.03,-1150.19 261.9,-1159.46 268.8,-1160.63"/>
</g>
<!-- 1/bak -->
<g id="node3" class="node">
<title>1/bak</title>
<ellipse fill="none" stroke="black" cx="202" cy="-1022.84" rx="67.53" ry="30.05"/>
<text text-anchor="middle" x="202" y="-1026.79" font-family="sans" font-size="14.00">bake_bread</text>
<text text-anchor="middle" x="202" y="-1009.54" font-family="sans" font-size="14.00">1</text>
</g>
<!-- 1/mak&#45;&gt;1/bak -->
<g id="edge2" class="edge">
<title>1/mak&#45;&gt;1/bak</title>
<path fill="none" stroke="black" d="M251,-1089.71C244.15,-1080.51 236.45,-1070.16 229.22,-1060.44"/>
<polygon fill="black" stroke="black" points="231.52,-1058.67 222.75,-1052.73 225.91,-1062.85 231.52,-1058.67"/>
</g>
<!-- 1/sel -->
<g id="node4" class="node">
<title>1/sel</title>
<ellipse fill="none" stroke="black" cx="130" cy="-921.49" rx="60.63" ry="30.05"/>
<text text-anchor="middle" x="130" y="-925.44" font-family="sans" font-size="14.00">sell_bread</text>
<text text-anchor="middle" x="130" y="-908.19" font-family="sans" font-size="14.00">1</text>
</g>
<!-- 1/bak&#45;&gt;1/sel -->
<g id="edge3" class="edge">
<title>1/bak&#45;&gt;1/sel</title>
<path fill="none" stroke="black" d="M181.75,-993.9C173.86,-983.02 164.72,-970.4 156.33,-958.82"/>
<polygon fill="black" stroke="black" points="158.8,-957.26 150.1,-951.22 153.13,-961.37 158.8,-957.26"/>
</g>
<!-- 1/cle -->
<g id="node5" class="node">
<title>1/cle</title>
<ellipse fill="none" stroke="black" cx="279" cy="-921.49" rx="65.94" ry="30.05"/>
<text text-anchor="middle" x="279" y="-925.44" font-family="sans" font-size="14.00">clean_oven</text>
<text text-anchor="middle" x="279" y="-908.19" font-family="sans" font-size="14.00">1</text>
</g>
<!-- 1/bak&#45;&gt;1/cle -->
<g id="edge5" class="edge">
<title>1/bak&#45;&gt;1/cle</title>
<path fill="none" stroke="black" d="M223.65,-993.9C232.09,-983.02 241.87,-970.4 250.84,-958.82"/>
<polygon fill="black" stroke="black" points="254.15,-961.27 257.51,-951.22 248.62,-956.98 254.15,-961.27"/>
</g>
<!-- 3/pur -->
<g id="node13" class="node">
<title>3/pur</title>
<ellipse fill="none" stroke="black" cx="127" cy="-627.93" rx="89.8" ry="30.05"/>
<text text-anchor="middle" x="127" y="-631.88" font-family="sans" font-size="14.00">buy_ingredients</text>
<text text-anchor="middle" x="127" y="-614.63" font-family="sans" font-size="14.00">3</text>
</g>
<!-- 1/sel&#45;&gt;3/pur -->
<g id="edge7" class="edge">
<title>1/sel&#45;&gt;3/pur</title>
<path fill="none" stroke="black" d="M129.7,-891.2C129.16,-838.7 128.02,-728.51 127.41,-669.04"/>
<polygon fill="black" stroke="black" points="130.9,-669.16 127.3,-659.2 123.9,-669.23 130.9,-669.16"/>
</g>
<!-- 2/pre -->
<g id="node12" class="node">
<title>2/pre</title>
<ellipse fill="none" stroke="black" cx="466" cy="-825.38" rx="82.38" ry="30.05"/>
<text text-anchor="middle" x="466" y="-829.33" font-family="sans" font-size="14.00">pre_heat_oven</text>
<text text-anchor="middle" x="466" y="-812.08" font-family="sans" font-size="14.00">2</text>
</g>
<!-- 1/cle&#45;&gt;2/pre -->
<g id="edge6" class="edge">
<title>1/cle&#45;&gt;2/pre</title>
<path fill="none" stroke="black" d="M322.37,-898.66C348.14,-885.69 381.12,-869.1 408.98,-855.08"/>
<polygon fill="black" stroke="black" points="410.24,-857.86 417.6,-850.24 407.09,-851.61 410.24,-857.86"/>
</g>
<!-- 1/pre -->
<g id="node6" class="node">
<title>1/pre</title>
<ellipse fill="none" stroke="black" cx="98" cy="-1118.95" rx="82.38" ry="30.05"/>
<text text-anchor="middle" x="98" y="-1122.9" font-family="sans" font-size="14.00">pre_heat_oven</text>
<text text-anchor="middle" x="98" y="-1105.65" font-family="sans" font-size="14.00">1</text>
</g>
<!-- 1/pre&#45;&gt;1/bak -->
<g id="edge4" class="edge">
<title>1/pre&#45;&gt;1/bak</title>
<path fill="none" stroke="black" d="M128.08,-1090.73C139.49,-1080.41 152.61,-1068.53 164.61,-1057.67"/>
<polygon fill="black" stroke="black" points="166.64,-1060.66 171.7,-1051.35 161.94,-1055.47 166.64,-1060.66"/>
</g>
<!-- 2/pur -->
<g id="node7" class="node">
<title>2/pur</title>
<ellipse fill="none" stroke="black" cx="624" cy="-921.49" rx="89.8" ry="30.05"/>
<text text-anchor="middle" x="624" y="-925.44" font-family="sans" font-size="14.00">buy_ingredients</text>
<text text-anchor="middle" x="624" y="-908.19" font-family="sans" font-size="14.00">2</text>
</g>
<!-- 2/mak -->
<g id="node8" class="node">
<title>2/mak</title>
<ellipse fill="none" stroke="black" cx="640" cy="-825.38" rx="73.89" ry="30.05"/>
<text text-anchor="middle" x="640" y="-829.33" font-family="sans" font-size="14.00">make_dough</text>
<text text-anchor="middle" x="640" y="-812.08" font-family="sans" font-size="14.00">2</text>
</g>
<!-- 2/pur&#45;&gt;2/mak -->
<g id="edge8" class="edge">
<title>2/pur&#45;&gt;2/mak</title>
<path fill="none" stroke="black" d="M628.97,-891.23C630.31,-883.35 631.79,-874.69 633.21,-866.34"/>
<polygon fill="black" stroke="black" points="636.8,-867.07 635.03,-856.63 629.9,-865.9 636.8,-867.07"/>
</g>
<!-- 2/bak -->
<g id="node9" class="node">
<title>2/bak</title>
<ellipse fill="none" stroke="black" cx="536" cy="-729.28" rx="67.53" ry="30.05"/>
<text text-anchor="middle" x="536" y="-733.23" font-family="sans" font-size="14.00">bake_bread</text>
<text text-anchor="middle" x="536" y="-715.98" font-family="sans" font-size="14.00">2</text>
</g>
<!-- 2/mak&#45;&gt;2/bak -->
<g id="edge9" class="edge">
<title>2/mak&#45;&gt;2/bak</title>
<path fill="none" stroke="black" d="M610.2,-797.42C598.58,-786.9 585.14,-774.74 572.91,-763.68"/>
<polygon fill="black" stroke="black" points="575.85,-761.72 566.09,-757.6 571.16,-766.91 575.85,-761.72"/>
</g>
<!-- 2/sel -->
<g id="node10" class="node">
<title>2/sel</title>
<ellipse fill="none" stroke="black" cx="606" cy="-627.93" rx="60.63" ry="30.05"/>
<text text-anchor="middle" x="606" y="-631.88" font-family="sans" font-size="14.00">sell_bread</text>
<text text-anchor="middle" x="606" y="-614.63" font-family="sans" font-size="14.00">2</text>
</g>
<!-- 2/bak&#45;&gt;2/sel -->
<g id="edge10" class="edge">
<title>2/bak&#45;&gt;2/sel</title>
<path fill="none" stroke="black" d="M555.87,-700.08C563.46,-689.3 572.23,-676.86 580.29,-665.42"/>
<polygon fill="black" stroke="black" points="583.66,-667.71 586.56,-657.52 577.94,-663.67 583.66,-667.71"/>
</g>
<!-- 2/cle -->
<g id="node11" class="node">
<title>2/cle</title>
<ellipse fill="none" stroke="black" cx="457" cy="-627.93" rx="65.94" ry="30.05"/>
<text text-anchor="middle" x="457" y="-631.88" font-family="sans" font-size="14.00">clean_oven</text>
<text text-anchor="middle" x="457" y="-614.63" font-family="sans" font-size="14.00">2</text>
</g>
<!-- 2/bak&#45;&gt;2/cle -->
<g id="edge12" class="edge">
<title>2/bak&#45;&gt;2/cle</title>
<path fill="none" stroke="black" d="M513.99,-700.6C505.18,-689.52 494.9,-676.59 485.52,-664.8"/>
<polygon fill="black" stroke="black" points="487.85,-663.1 478.89,-657.45 482.37,-667.46 487.85,-663.1"/>
</g>
<!-- 4/pur -->
<g id="node19" class="node">
<title>4/pur</title>
<ellipse fill="none" stroke="black" cx="622" cy="-334.36" rx="89.8" ry="30.05"/>
<text text-anchor="middle" x="622" y="-338.31" font-family="sans" font-size="14.00">buy_ingredients</text>
<text text-anchor="middle" x="622" y="-321.06" font-family="sans" font-size="14.00">4</text>
</g>
<!-- 2/sel&#45;&gt;4/pur -->
<g id="edge14" class="edge">
<title>2/sel&#45;&gt;4/pur</title>
<path fill="none" stroke="black" d="M607.61,-597.64C610.49,-545.13 616.54,-434.95 619.8,-375.47"/>
<polygon fill="black" stroke="black" points="623.34,-375.81 620.39,-365.64 616.35,-375.43 623.34,-375.81"/>
</g>
<!-- 3/pre -->
<g id="node18" class="node">
<title>3/pre</title>
<ellipse fill="none" stroke="black" cx="278" cy="-531.82" rx="82.38" ry="30.05"/>
<text text-anchor="middle" x="278" y="-535.77" font-family="sans" font-size="14.00">pre_heat_oven</text>
<text text-anchor="middle" x="278" y="-518.52" font-family="sans" font-size="14.00">3</text>
</g>
<!-- 2/cle&#45;&gt;3/pre -->
<g id="edge13" class="edge">
<title>2/cle&#45;&gt;3/pre</title>
<path fill="none" stroke="black" d="M414.58,-604.63C390.36,-591.89 359.72,-575.78 333.6,-562.05"/>
<polygon fill="black" stroke="black" points="335.68,-558.66 325.2,-557.11 332.42,-564.86 335.68,-558.66"/>
</g>
<!-- 2/pre&#45;&gt;2/bak -->
<g id="edge11" class="edge">
<title>2/pre&#45;&gt;2/bak</title>
<path fill="none" stroke="black" d="M487.19,-795.89C493.97,-786.78 501.57,-776.57 508.72,-766.96"/>
<polygon fill="black" stroke="black" points="511.96,-769.46 515.12,-759.35 506.34,-765.28 511.96,-769.46"/>
</g>
<!-- 3/mak -->
<g id="node14" class="node">
<title>3/mak</title>
<ellipse fill="none" stroke="black" cx="104" cy="-531.82" rx="73.89" ry="30.05"/>
<text text-anchor="middle" x="104" y="-535.77" font-family="sans" font-size="14.00">make_dough</text>
<text text-anchor="middle" x="104" y="-518.52" font-family="sans" font-size="14.00">3</text>
</g>
<!-- 3/pur&#45;&gt;3/mak -->
<g id="edge15" class="edge">
<title>3/pur&#45;&gt;3/mak</title>
<path fill="none" stroke="black" d="M119.85,-597.67C117.9,-589.7 115.76,-580.94 113.7,-572.5"/>
<polygon fill="black" stroke="black" points="116.92,-571.95 111.15,-563.06 110.12,-573.61 116.92,-571.95"/>
</g>
<!-- 3/bak -->
<g id="node15" class="node">
<title>3/bak</title>
<ellipse fill="none" stroke="black" cx="213" cy="-435.72" rx="67.53" ry="30.05"/>
<text text-anchor="middle" x="213" y="-439.67" font-family="sans" font-size="14.00">bake_bread</text>
<text text-anchor="middle" x="213" y="-422.42" font-family="sans" font-size="14.00">3</text>
</g>
<!-- 3/mak&#45;&gt;3/bak -->
<g id="edge16" class="edge">
<title>3/mak&#45;&gt;3/bak</title>
<path fill="none" stroke="black" d="M134.94,-504.11C147.23,-493.5 161.5,-481.18 174.45,-470"/>
<polygon fill="black" stroke="black" points="176.45,-472.03 181.73,-462.85 171.88,-466.74 176.45,-472.03"/>
</g>
<!-- 3/sel -->
<g id="node16" class="node">
<title>3/sel</title>
<ellipse fill="none" stroke="black" cx="149" cy="-334.36" rx="60.63" ry="30.05"/>
<text text-anchor="middle" x="149" y="-338.31" font-family="sans" font-size="14.00">sell_bread</text>
<text text-anchor="middle" x="149" y="-321.06" font-family="sans" font-size="14.00">3</text>
</g>
<!-- 3/bak&#45;&gt;3/sel -->
<g id="edge17" class="edge">
<title>3/bak&#45;&gt;3/sel</title>
<path fill="none" stroke="black" d="M194.83,-406.51C188.02,-395.94 180.17,-383.75 172.91,-372.49"/>
<polygon fill="black" stroke="black" points="175.35,-370.81 166.99,-364.3 169.47,-374.6 175.35,-370.81"/>
</g>
<!-- 3/cle -->
<g id="node17" class="node">
<title>3/cle</title>
<ellipse fill="none" stroke="black" cx="294" cy="-334.36" rx="65.94" ry="30.05"/>
<text text-anchor="middle" x="294" y="-338.31" font-family="sans" font-size="14.00">clean_oven</text>
<text text-anchor="middle" x="294" y="-321.06" font-family="sans" font-size="14.00">3</text>
</g>
<!-- 3/bak&#45;&gt;3/cle -->
<g id="edge19" class="edge">
<title>3/bak&#45;&gt;3/cle</title>
<path fill="none" stroke="black" d="M235.56,-407.04C244.6,-395.95 255.14,-383.03 264.75,-371.24"/>
<polygon fill="black" stroke="black" points="267.95,-373.85 271.56,-363.89 262.53,-369.43 267.95,-373.85"/>
</g>
<!-- 4/pre -->
<g id="node24" class="node">
<title>4/pre</title>
<ellipse fill="none" stroke="black" cx="466" cy="-238.26" rx="82.38" ry="30.05"/>
<text text-anchor="middle" x="466" y="-242.21" font-family="sans" font-size="14.00">pre_heat_oven</text>
<text text-anchor="middle" x="466" y="-224.96" font-family="sans" font-size="14.00">4</text>
</g>
<!-- 3/cle&#45;&gt;4/pre -->
<g id="edge20" class="edge">
<title>3/cle&#45;&gt;4/pre</title>
<path fill="none" stroke="black" d="M335.64,-310.58C358.46,-298.1 387.02,-282.47 411.58,-269.03"/>
<polygon fill="black" stroke="black" points="413.04,-271.68 420.13,-263.81 409.68,-265.54 413.04,-271.68"/>
</g>
<!-- 3/pre&#45;&gt;3/bak -->
<g id="edge18" class="edge">
<title>3/pre&#45;&gt;3/bak</title>
<path fill="none" stroke="black" d="M258.32,-502.33C252.09,-493.31 245.11,-483.21 238.54,-473.69"/>
<polygon fill="black" stroke="black" points="240.95,-472.03 232.39,-465.79 235.19,-476 240.95,-472.03"/>
</g>
<!-- 4/mak -->
<g id="node20" class="node">
<title>4/mak</title>
<ellipse fill="none" stroke="black" cx="640" cy="-238.26" rx="73.89" ry="30.05"/>
<text text-anchor="middle" x="640" y="-242.21" font-family="sans" font-size="14.00">make_dough</text>
<text text-anchor="middle" x="640" y="-224.96" font-family="sans" font-size="14.00">4</text>
</g>
<!-- 4/pur&#45;&gt;4/mak -->
<g id="edge21" class="edge">
<title>4/pur&#45;&gt;4/mak</title>
<path fill="none" stroke="black" d="M627.6,-304.1C629.1,-296.23 630.76,-287.57 632.36,-279.22"/>
<polygon fill="black" stroke="black" points="635.97,-279.98 634.41,-269.5 629.09,-278.67 635.97,-279.98"/>
</g>
<!-- 4/bak -->
<g id="node21" class="node">
<title>4/bak</title>
<ellipse fill="none" stroke="black" cx="533" cy="-142.16" rx="67.53" ry="30.05"/>
<text text-anchor="middle" x="533" y="-146.11" font-family="sans" font-size="14.00">bake_bread</text>
<text text-anchor="middle" x="533" y="-128.86" font-family="sans" font-size="14.00">4</text>
</g>
<!-- 4/mak&#45;&gt;4/bak -->
<g id="edge22" class="edge">
<title>4/mak&#45;&gt;4/bak</title>
<path fill="none" stroke="black" d="M609.62,-210.55C597.56,-199.94 583.56,-187.62 570.85,-176.44"/>
<polygon fill="black" stroke="black" points="573.53,-173.26 563.71,-169.29 568.91,-178.52 573.53,-173.26"/>
</g>
<!-- 4/sel -->
<g id="node22" class="node">
<title>4/sel</title>
<ellipse fill="none" stroke="black" cx="455" cy="-46.05" rx="60.63" ry="30.05"/>
<text text-anchor="middle" x="455" y="-50" font-family="sans" font-size="14.00">sell_bread</text>
<text text-anchor="middle" x="455" y="-32.75" font-family="sans" font-size="14.00">4</text>
</g>
<!-- 4/bak&#45;&gt;4/sel -->
<g id="edge23" class="edge">
<title>4/bak&#45;&gt;4/sel</title>
<path fill="none" stroke="black" d="M510.02,-113.43C502.01,-103.77 492.92,-92.8 484.46,-82.6"/>
<polygon fill="black" stroke="black" points="486.62,-80.72 477.55,-75.26 481.23,-85.19 486.62,-80.72"/>
</g>
<!-- 4/cle -->
<g id="node23" class="node">
<title>4/cle</title>
<ellipse fill="none" stroke="black" cx="600" cy="-46.05" rx="65.94" ry="30.05"/>
<text text-anchor="middle" x="600" y="-50" font-family="sans" font-size="14.00">clean_oven</text>
<text text-anchor="middle" x="600" y="-32.75" font-family="sans" font-size="14.00">4</text>
</g>
<!-- 4/bak&#45;&gt;4/cle -->
<g id="edge25" class="edge">
<title>4/bak&#45;&gt;4/cle</title>
<path fill="none" stroke="black" d="M552.92,-113.18C559.48,-103.97 566.87,-93.59 573.82,-83.82"/>
<polygon fill="black" stroke="black" points="577.09,-86.26 580.04,-76.09 571.39,-82.2 577.09,-86.26"/>
</g>
<!-- 4/pre&#45;&gt;4/bak -->
<g id="edge24" class="edge">
<title>4/pre&#45;&gt;4/bak</title>
<path fill="none" stroke="black" d="M486.28,-208.77C492.71,-199.75 499.9,-189.65 506.68,-180.13"/>
<polygon fill="black" stroke="black" points="510.07,-182.4 513.02,-172.23 504.36,-178.34 510.07,-182.4"/>
</g>
</g>
</svg>
