<?xml version="1.0" encoding="UTF-8" standalone="no"?>
<!DOCTYPE svg PUBLIC "-//W3C//DTD SVG 1.1//EN"
 "http://www.w3.org/Graphics/SVG/1.1/DTD/svg11.dtd">
<!-- Generated by graphviz version 8.0.4 (20230426.1303)
 -->
<!-- Title: example Pages: 1 -->
<svg width="179pt" height="265pt"
 viewBox="0.00 0.00 179.00 265.25" xmlns="http://www.w3.org/2000/svg" xmlns:xlink="http://www.w3.org/1999/xlink">
<g id="graph0" class="graph" transform="scale(1 1) rotate(0) translate(4 261.25)">
<title>example</title>
<polygon fill="none" stroke="none" points="-4,4 -4,-261.25 175,-261.25 175,4 -4,4"/>
<g id="clust1" class="cluster">
<title>cluster_success</title>
<polygon fill="none" stroke="green" stroke-dasharray="5,2" points="8,-64 8,-141.25 85,-141.25 85,-64 8,-64"/>
<text text-anchor="middle" x="46.5" y="-123.95" font-family="sans" font-size="14.00" fill="green">:succeed</text>
</g>
<g id="clust2" class="cluster">
<title>cluster_failure</title>
<polygon fill="none" stroke="red" stroke-dasharray="5,2" points="93,-64 93,-141.25 163,-141.25 163,-64 93,-64"/>
<text text-anchor="middle" x="128" y="-123.95" font-family="sans" font-size="14.00" fill="red">:fail</text>
</g>
<!-- c -->
<g id="node1" class="node">
<title>c</title>
<ellipse fill="none" stroke="black" cx="50" cy="-90" rx="27" ry="18"/>
<text text-anchor="middle" x="50" y="-85.33" font-family="sans" font-size="14.00">c</text>
</g>
<!-- d -->
<g id="node5" class="node">
<title>d</title>
<ellipse fill="none" stroke="black" cx="89" cy="-18" rx="27" ry="18"/>
<text text-anchor="middle" x="89" y="-13.32" font-family="sans" font-size="14.00">d</text>
</g>
<!-- c&#45;&gt;d -->
<g id="edge3" class="edge">
<title>c&#45;&gt;d</title>
<path fill="none" stroke="black" d="M59.05,-72.76C63.72,-64.37 69.54,-53.93 74.8,-44.5"/>
<polygon fill="black" stroke="black" points="78.19,-46.59 80,-36.15 72.08,-43.18 78.19,-46.59"/>
</g>
<!-- r -->
<g id="node2" class="node">
<title>r</title>
<ellipse fill="none" stroke="black" cx="128" cy="-90" rx="27" ry="18"/>
<text text-anchor="middle" x="128" y="-85.33" font-family="sans" font-size="14.00">r</text>
</g>
<!-- r&#45;&gt;d -->
<g id="edge5" class="edge">
<title>r&#45;&gt;d</title>
<path fill="none" stroke="black" d="M118.95,-72.76C114.28,-64.37 108.46,-53.93 103.2,-44.5"/>
<polygon fill="black" stroke="black" points="105.92,-43.18 98,-36.15 99.81,-46.59 105.92,-43.18"/>
</g>
<!-- a -->
<g id="node3" class="node">
<title>a</title>
<ellipse fill="none" stroke="black" cx="89" cy="-239.25" rx="27" ry="18"/>
<text text-anchor="middle" x="89" y="-234.57" font-family="sans" font-size="14.00">a</text>
</g>
<!-- b -->
<g id="node4" class="node">
<title>b</title>
<ellipse fill="none" stroke="black" cx="89" cy="-167.25" rx="27" ry="18"/>
<text text-anchor="middle" x="89" y="-162.57" font-family="sans" font-size="14.00">b</text>
</g>
<!-- a&#45;&gt;b -->
<g id="edge1" class="edge">
<title>a&#45;&gt;b</title>
<path fill="none" stroke="black" d="M89,-220.95C89,-213.49 89,-204.57 89,-196.22"/>
<polygon fill="black" stroke="black" points="92.5,-196.35 89,-186.35 85.5,-196.35 92.5,-196.35"/>
</g>
<!-- b&#45;&gt;c -->
<g id="edge2" class="edge">
<title>b&#45;&gt;c</title>
<path fill="none" stroke="black" d="M80.54,-149.92C75.56,-140.32 69.16,-127.97 63.5,-117.06"/>
<polygon fill="black" stroke="black" points="66.29,-115.82 58.58,-108.56 60.07,-119.05 66.29,-115.82"/>
</g>
<!-- b&#45;&gt;r -->
<g id="edge4" class="edge">
<title>b&#45;&gt;r</title>
<path fill="none" stroke="black" d="M97.46,-149.92C102.44,-140.32 108.84,-127.97 114.5,-117.06"/>
<polygon fill="black" stroke="black" points="117.93,-119.05 119.42,-108.56 111.71,-115.82 117.93,-119.05"/>
</g>
</g>
</svg>
