<?xml version="1.0" encoding="UTF-8" standalone="no"?>
<!DOCTYPE svg PUBLIC "-//W3C//DTD SVG 1.1//EN"
 "http://www.w3.org/Graphics/SVG/1.1/DTD/svg11.dtd">
<!-- Generated by graphviz version 2.40.1 (20161225.0304)
 -->
<!-- Title: %3 Pages: 1 -->
<svg width="477pt" height="2545pt"
 viewBox="0.00 0.00 477.00 2544.50" xmlns="http://www.w3.org/2000/svg" xmlns:xlink="http://www.w3.org/1999/xlink">
<g id="graph0" class="graph" transform="scale(1 1) rotate(0) translate(4 2540.5)">
<title>%3</title>
<polygon fill="transparent" stroke="transparent" points="-4,4 -4,-2540.5 473,-2540.5 473,4 -4,4"/>
<!-- absolute_outputs -->
<g id="node1" class="node">
<title>absolute_outputs</title>
<polygon fill="none" stroke="#000000" points="34.5,-78.5 34.5,-106.5 178.5,-106.5 178.5,-78.5 34.5,-78.5"/>
<text text-anchor="start" x="39.5" y="-89.7" font-family="Helvetica,sans-Serif" font-weight="bold" font-size="16.00" fill="#000000">absolute_outputs</text>
<polygon fill="none" stroke="#000000" points="34.5,-53.5 34.5,-78.5 178.5,-78.5 178.5,-53.5 34.5,-53.5"/>
<text text-anchor="start" x="39.5" y="-62.3" font-family="Helvetica,sans-Serif" font-size="14.00" fill="#000000">cycle</text>
<polygon fill="none" stroke="#000000" points="34.5,-28.5 34.5,-53.5 178.5,-53.5 178.5,-28.5 34.5,-28.5"/>
<text text-anchor="start" x="39.5" y="-37.3" font-family="Helvetica,sans-Serif" font-size="14.00" fill="#000000">name</text>
<polygon fill="none" stroke="#000000" points="34.5,-3.5 34.5,-28.5 178.5,-28.5 178.5,-3.5 34.5,-3.5"/>
<text text-anchor="start" x="39.5" y="-12.3" font-family="Helvetica,sans-Serif" font-size="14.00" fill="#000000">output</text>
</g>
<!-- broadcast_events -->
<g id="node2" class="node">
<title>broadcast_events</title>
<polygon fill="none" stroke="#000000" points="33.5,-283.5 33.5,-311.5 180.5,-311.5 180.5,-283.5 33.5,-283.5"/>
<text text-anchor="start" x="38.5" y="-294.7" font-family="Helvetica,sans-Serif" font-weight="bold" font-size="16.00" fill="#000000">broadcast_events</text>
<polygon fill="none" stroke="#000000" points="33.5,-258.5 33.5,-283.5 180.5,-283.5 180.5,-258.5 33.5,-258.5"/>
<text text-anchor="start" x="38.5" y="-267.3" font-family="Helvetica,sans-Serif" font-size="14.00" fill="#000000">time</text>
<polygon fill="none" stroke="#000000" points="33.5,-233.5 33.5,-258.5 180.5,-258.5 180.5,-233.5 33.5,-233.5"/>
<text text-anchor="start" x="38.5" y="-242.3" font-family="Helvetica,sans-Serif" font-size="14.00" fill="#000000">change</text>
<polygon fill="none" stroke="#000000" points="33.5,-208.5 33.5,-233.5 180.5,-233.5 180.5,-208.5 33.5,-208.5"/>
<text text-anchor="start" x="38.5" y="-217.3" font-family="Helvetica,sans-Serif" font-size="14.00" fill="#000000">point</text>
<polygon fill="none" stroke="#000000" points="33.5,-183.5 33.5,-208.5 180.5,-208.5 180.5,-183.5 33.5,-183.5"/>
<text text-anchor="start" x="38.5" y="-192.3" font-family="Helvetica,sans-Serif" font-size="14.00" fill="#000000">namespace</text>
<polygon fill="none" stroke="#000000" points="33.5,-158.5 33.5,-183.5 180.5,-183.5 180.5,-158.5 33.5,-158.5"/>
<text text-anchor="start" x="38.5" y="-167.3" font-family="Helvetica,sans-Serif" font-size="14.00" fill="#000000">key</text>
<polygon fill="none" stroke="#000000" points="33.5,-133.5 33.5,-158.5 180.5,-158.5 180.5,-133.5 33.5,-133.5"/>
<text text-anchor="start" x="38.5" y="-142.3" font-family="Helvetica,sans-Serif" font-size="14.00" fill="#000000">value</text>
</g>
<!-- broadcast_states -->
<g id="node3" class="node">
<title>broadcast_states</title>
<polygon fill="none" stroke="#000000" points="35.5,-437.5 35.5,-465.5 178.5,-465.5 178.5,-437.5 35.5,-437.5"/>
<text text-anchor="start" x="40.5" y="-448.7" font-family="Helvetica,sans-Serif" font-weight="bold" font-size="16.00" fill="#000000">broadcast_states</text>
<polygon fill="none" stroke="#000000" points="35.5,-412.5 35.5,-437.5 178.5,-437.5 178.5,-412.5 35.5,-412.5"/>
<text text-anchor="start" x="40.5" y="-422.3" font-family="Helvetica,sans-Serif" text-decoration="underline" font-size="14.00" fill="#000000">point</text>
<polygon fill="none" stroke="#000000" points="35.5,-387.5 35.5,-412.5 178.5,-412.5 178.5,-387.5 35.5,-387.5"/>
<text text-anchor="start" x="40.5" y="-397.3" font-family="Helvetica,sans-Serif" text-decoration="underline" font-size="14.00" fill="#000000">namespace</text>
<polygon fill="none" stroke="#000000" points="35.5,-362.5 35.5,-387.5 178.5,-387.5 178.5,-362.5 35.5,-362.5"/>
<text text-anchor="start" x="40.5" y="-372.3" font-family="Helvetica,sans-Serif" text-decoration="underline" font-size="14.00" fill="#000000">key</text>
<polygon fill="none" stroke="#000000" points="35.5,-337.5 35.5,-362.5 178.5,-362.5 178.5,-337.5 35.5,-337.5"/>
<text text-anchor="start" x="40.5" y="-346.3" font-family="Helvetica,sans-Serif" font-size="14.00" fill="#000000">value</text>
</g>
<!-- inheritance -->
<g id="node4" class="node">
<title>inheritance</title>
<polygon fill="none" stroke="#000000" points="58.5,-541.5 58.5,-569.5 154.5,-569.5 154.5,-541.5 58.5,-541.5"/>
<text text-anchor="start" x="63.5" y="-552.7" font-family="Helvetica,sans-Serif" font-weight="bold" font-size="16.00" fill="#000000">inheritance</text>
<polygon fill="none" stroke="#000000" points="58.5,-516.5 58.5,-541.5 154.5,-541.5 154.5,-516.5 58.5,-516.5"/>
<text text-anchor="start" x="63.5" y="-526.3" font-family="Helvetica,sans-Serif" text-decoration="underline" font-size="14.00" fill="#000000">namespace</text>
<polygon fill="none" stroke="#000000" points="58.5,-491.5 58.5,-516.5 154.5,-516.5 154.5,-491.5 58.5,-491.5"/>
<text text-anchor="start" x="63.5" y="-500.3" font-family="Helvetica,sans-Serif" font-size="14.00" fill="#000000">inheritance</text>
</g>
<!-- task_action_timers -->
<g id="node5" class="node">
<title>task_action_timers</title>
<polygon fill="none" stroke="#000000" points="299.5,-1015.5 299.5,-1043.5 455.5,-1043.5 455.5,-1015.5 299.5,-1015.5"/>
<text text-anchor="start" x="304.5" y="-1026.7" font-family="Helvetica,sans-Serif" font-weight="bold" font-size="16.00" fill="#000000">task_action_timers</text>
<polygon fill="none" stroke="#000000" points="299.5,-990.5 299.5,-1015.5 455.5,-1015.5 455.5,-990.5 299.5,-990.5"/>
<text text-anchor="start" x="304.5" y="-1000.3" font-family="Helvetica,sans-Serif" text-decoration="underline" font-size="14.00" fill="#000000">cycle</text>
<polygon fill="none" stroke="#000000" points="299.5,-965.5 299.5,-990.5 455.5,-990.5 455.5,-965.5 299.5,-965.5"/>
<text text-anchor="start" x="304.5" y="-975.3" font-family="Helvetica,sans-Serif" text-decoration="underline" font-size="14.00" fill="#000000">name</text>
<polygon fill="none" stroke="#000000" points="299.5,-940.5 299.5,-965.5 455.5,-965.5 455.5,-940.5 299.5,-940.5"/>
<text text-anchor="start" x="304.5" y="-950.3" font-family="Helvetica,sans-Serif" text-decoration="underline" font-size="14.00" fill="#000000">ctx_key</text>
<polygon fill="none" stroke="#000000" points="299.5,-915.5 299.5,-940.5 455.5,-940.5 455.5,-915.5 299.5,-915.5"/>
<text text-anchor="start" x="304.5" y="-924.3" font-family="Helvetica,sans-Serif" font-size="14.00" fill="#000000">ctx</text>
<polygon fill="none" stroke="#000000" points="299.5,-890.5 299.5,-915.5 455.5,-915.5 455.5,-890.5 299.5,-890.5"/>
<text text-anchor="start" x="304.5" y="-899.3" font-family="Helvetica,sans-Serif" font-size="14.00" fill="#000000">delays</text>
<polygon fill="none" stroke="#000000" points="299.5,-865.5 299.5,-890.5 455.5,-890.5 455.5,-865.5 299.5,-865.5"/>
<text text-anchor="start" x="304.5" y="-874.3" font-family="Helvetica,sans-Serif" font-size="14.00" fill="#000000">num</text>
<polygon fill="none" stroke="#000000" points="299.5,-840.5 299.5,-865.5 455.5,-865.5 455.5,-840.5 299.5,-840.5"/>
<text text-anchor="start" x="304.5" y="-849.3" font-family="Helvetica,sans-Serif" font-size="14.00" fill="#000000">delay</text>
<polygon fill="none" stroke="#000000" points="299.5,-815.5 299.5,-840.5 455.5,-840.5 455.5,-815.5 299.5,-815.5"/>
<text text-anchor="start" x="304.5" y="-824.3" font-family="Helvetica,sans-Serif" font-size="14.00" fill="#000000">timeout</text>
</g>
<!-- task_events -->
<g id="node6" class="node">
<title>task_events</title>
<polygon fill="none" stroke="#000000" points="326.5,-1649.5 326.5,-1677.5 429.5,-1677.5 429.5,-1649.5 326.5,-1649.5"/>
<text text-anchor="start" x="331.5" y="-1660.7" font-family="Helvetica,sans-Serif" font-weight="bold" font-size="16.00" fill="#000000">task_events</text>
<polygon fill="none" stroke="#000000" points="326.5,-1624.5 326.5,-1649.5 429.5,-1649.5 429.5,-1624.5 326.5,-1624.5"/>
<text text-anchor="start" x="331.5" y="-1633.3" font-family="Helvetica,sans-Serif" font-size="14.00" fill="#000000">name</text>
<polygon fill="none" stroke="#000000" points="326.5,-1599.5 326.5,-1624.5 429.5,-1624.5 429.5,-1599.5 326.5,-1599.5"/>
<text text-anchor="start" x="331.5" y="-1608.3" font-family="Helvetica,sans-Serif" font-size="14.00" fill="#000000">cycle</text>
<polygon fill="none" stroke="#000000" points="326.5,-1574.5 326.5,-1599.5 429.5,-1599.5 429.5,-1574.5 326.5,-1574.5"/>
<text text-anchor="start" x="331.5" y="-1583.3" font-family="Helvetica,sans-Serif" font-size="14.00" fill="#000000">time</text>
<polygon fill="none" stroke="#000000" points="326.5,-1549.5 326.5,-1574.5 429.5,-1574.5 429.5,-1549.5 326.5,-1549.5"/>
<text text-anchor="start" x="331.5" y="-1558.3" font-family="Helvetica,sans-Serif" font-size="14.00" fill="#000000">submit_num</text>
<polygon fill="none" stroke="#000000" points="326.5,-1524.5 326.5,-1549.5 429.5,-1549.5 429.5,-1524.5 326.5,-1524.5"/>
<text text-anchor="start" x="331.5" y="-1533.3" font-family="Helvetica,sans-Serif" font-size="14.00" fill="#000000">event</text>
<polygon fill="none" stroke="#000000" points="326.5,-1499.5 326.5,-1524.5 429.5,-1524.5 429.5,-1499.5 326.5,-1499.5"/>
<text text-anchor="start" x="331.5" y="-1508.3" font-family="Helvetica,sans-Serif" font-size="14.00" fill="#000000">message</text>
</g>
<!-- task_jobs -->
<g id="node7" class="node">
<title>task_jobs</title>
<polygon fill="none" stroke="#000000" points="317.5,-1444.5 317.5,-1472.5 438.5,-1472.5 438.5,-1444.5 317.5,-1444.5"/>
<text text-anchor="start" x="340.5" y="-1455.7" font-family="Helvetica,sans-Serif" font-weight="bold" font-size="16.00" fill="#000000">task_jobs</text>
<polygon fill="none" stroke="#000000" points="317.5,-1419.5 317.5,-1444.5 438.5,-1444.5 438.5,-1419.5 317.5,-1419.5"/>
<text text-anchor="start" x="322.5" y="-1429.3" font-family="Helvetica,sans-Serif" text-decoration="underline" font-size="14.00" fill="#000000">cycle</text>
<polygon fill="none" stroke="#000000" points="317.5,-1394.5 317.5,-1419.5 438.5,-1419.5 438.5,-1394.5 317.5,-1394.5"/>
<text text-anchor="start" x="322.5" y="-1404.3" font-family="Helvetica,sans-Serif" text-decoration="underline" font-size="14.00" fill="#000000">name</text>
<polygon fill="none" stroke="#000000" points="317.5,-1369.5 317.5,-1394.5 438.5,-1394.5 438.5,-1369.5 317.5,-1369.5"/>
<text text-anchor="start" x="322.5" y="-1379.3" font-family="Helvetica,sans-Serif" text-decoration="underline" font-size="14.00" fill="#000000">submit_num</text>
<polygon fill="none" stroke="#000000" points="317.5,-1344.5 317.5,-1369.5 438.5,-1369.5 438.5,-1344.5 317.5,-1344.5"/>
<text text-anchor="start" x="322.5" y="-1353.3" font-family="Helvetica,sans-Serif" font-size="14.00" fill="#000000">is_manual_submit</text>
<polygon fill="none" stroke="#000000" points="317.5,-1319.5 317.5,-1344.5 438.5,-1344.5 438.5,-1319.5 317.5,-1319.5"/>
<text text-anchor="start" x="322.5" y="-1328.3" font-family="Helvetica,sans-Serif" font-size="14.00" fill="#000000">try_num</text>
<polygon fill="none" stroke="#000000" points="317.5,-1294.5 317.5,-1319.5 438.5,-1319.5 438.5,-1294.5 317.5,-1294.5"/>
<text text-anchor="start" x="322.5" y="-1303.3" font-family="Helvetica,sans-Serif" font-size="14.00" fill="#000000">time_submit</text>
<polygon fill="none" stroke="#000000" points="317.5,-1269.5 317.5,-1294.5 438.5,-1294.5 438.5,-1269.5 317.5,-1269.5"/>
<text text-anchor="start" x="322.5" y="-1278.3" font-family="Helvetica,sans-Serif" font-size="14.00" fill="#000000">time_submit_exit</text>
<polygon fill="none" stroke="#000000" points="317.5,-1244.5 317.5,-1269.5 438.5,-1269.5 438.5,-1244.5 317.5,-1244.5"/>
<text text-anchor="start" x="322.5" y="-1253.3" font-family="Helvetica,sans-Serif" font-size="14.00" fill="#000000">submit_status</text>
<polygon fill="none" stroke="#000000" points="317.5,-1219.5 317.5,-1244.5 438.5,-1244.5 438.5,-1219.5 317.5,-1219.5"/>
<text text-anchor="start" x="322.5" y="-1228.3" font-family="Helvetica,sans-Serif" font-size="14.00" fill="#000000">time_run</text>
<polygon fill="none" stroke="#000000" points="317.5,-1194.5 317.5,-1219.5 438.5,-1219.5 438.5,-1194.5 317.5,-1194.5"/>
<text text-anchor="start" x="322.5" y="-1203.3" font-family="Helvetica,sans-Serif" font-size="14.00" fill="#000000">time_run_exit</text>
<polygon fill="none" stroke="#000000" points="317.5,-1169.5 317.5,-1194.5 438.5,-1194.5 438.5,-1169.5 317.5,-1169.5"/>
<text text-anchor="start" x="322.5" y="-1178.3" font-family="Helvetica,sans-Serif" font-size="14.00" fill="#000000">run_signal</text>
<polygon fill="none" stroke="#000000" points="317.5,-1144.5 317.5,-1169.5 438.5,-1169.5 438.5,-1144.5 317.5,-1144.5"/>
<text text-anchor="start" x="322.5" y="-1153.3" font-family="Helvetica,sans-Serif" font-size="14.00" fill="#000000">run_status</text>
<polygon fill="none" stroke="#000000" points="317.5,-1119.5 317.5,-1144.5 438.5,-1144.5 438.5,-1119.5 317.5,-1119.5"/>
<text text-anchor="start" x="322.5" y="-1128.3" font-family="Helvetica,sans-Serif" font-size="14.00" fill="#000000">platform_name</text>
<polygon fill="none" stroke="#000000" points="317.5,-1094.5 317.5,-1119.5 438.5,-1119.5 438.5,-1094.5 317.5,-1094.5"/>
<text text-anchor="start" x="322.5" y="-1103.3" font-family="Helvetica,sans-Serif" font-size="14.00" fill="#000000">job_runner_name</text>
<polygon fill="none" stroke="#000000" points="317.5,-1069.5 317.5,-1094.5 438.5,-1094.5 438.5,-1069.5 317.5,-1069.5"/>
<text text-anchor="start" x="322.5" y="-1078.3" font-family="Helvetica,sans-Serif" font-size="14.00" fill="#000000">job_id</text>
</g>
<!-- task_late_flags -->
<g id="node8" class="node">
<title>task_late_flags</title>
<polygon fill="none" stroke="#000000" points="314.5,-760.5 314.5,-788.5 440.5,-788.5 440.5,-760.5 314.5,-760.5"/>
<text text-anchor="start" x="319.5" y="-771.7" font-family="Helvetica,sans-Serif" font-weight="bold" font-size="16.00" fill="#000000">task_late_flags</text>
<polygon fill="none" stroke="#000000" points="314.5,-735.5 314.5,-760.5 440.5,-760.5 440.5,-735.5 314.5,-735.5"/>
<text text-anchor="start" x="319.5" y="-745.3" font-family="Helvetica,sans-Serif" text-decoration="underline" font-size="14.00" fill="#000000">cycle</text>
<polygon fill="none" stroke="#000000" points="314.5,-710.5 314.5,-735.5 440.5,-735.5 440.5,-710.5 314.5,-710.5"/>
<text text-anchor="start" x="319.5" y="-720.3" font-family="Helvetica,sans-Serif" text-decoration="underline" font-size="14.00" fill="#000000">name</text>
<polygon fill="none" stroke="#000000" points="314.5,-685.5 314.5,-710.5 440.5,-710.5 440.5,-685.5 314.5,-685.5"/>
<text text-anchor="start" x="319.5" y="-694.3" font-family="Helvetica,sans-Serif" font-size="14.00" fill="#000000">value</text>
</g>
<!-- task_outputs -->
<g id="node9" class="node">
<title>task_outputs</title>
<polygon fill="none" stroke="#000000" points="322.5,-631.5 322.5,-659.5 432.5,-659.5 432.5,-631.5 322.5,-631.5"/>
<text text-anchor="start" x="327.5" y="-642.7" font-family="Helvetica,sans-Serif" font-weight="bold" font-size="16.00" fill="#000000">task_outputs</text>
<polygon fill="none" stroke="#000000" points="322.5,-606.5 322.5,-631.5 432.5,-631.5 432.5,-606.5 322.5,-606.5"/>
<text text-anchor="start" x="327.5" y="-616.3" font-family="Helvetica,sans-Serif" text-decoration="underline" font-size="14.00" fill="#000000">cycle</text>
<polygon fill="none" stroke="#000000" points="322.5,-581.5 322.5,-606.5 432.5,-606.5 432.5,-581.5 322.5,-581.5"/>
<text text-anchor="start" x="327.5" y="-591.3" font-family="Helvetica,sans-Serif" text-decoration="underline" font-size="14.00" fill="#000000">name</text>
<polygon fill="none" stroke="#000000" points="322.5,-556.5 322.5,-581.5 432.5,-581.5 432.5,-556.5 322.5,-556.5"/>
<text text-anchor="start" x="327.5" y="-565.3" font-family="Helvetica,sans-Serif" font-size="14.00" fill="#000000">outputs</text>
</g>
<!-- task_pool -->
<g id="node10" class="node">
<title>task_pool</title>
<polygon fill="none" stroke="#000000" points="63.5,-720.5 63.5,-748.5 149.5,-748.5 149.5,-720.5 63.5,-720.5"/>
<text text-anchor="start" x="68.5" y="-731.7" font-family="Helvetica,sans-Serif" font-weight="bold" font-size="16.00" fill="#000000">task_pool</text>
<polygon fill="none" stroke="#000000" points="63.5,-695.5 63.5,-720.5 149.5,-720.5 149.5,-695.5 63.5,-695.5"/>
<text text-anchor="start" x="68.5" y="-705.3" font-family="Helvetica,sans-Serif" text-decoration="underline" font-size="14.00" fill="#000000">cycle</text>
<polygon fill="none" stroke="#000000" points="63.5,-670.5 63.5,-695.5 149.5,-695.5 149.5,-670.5 63.5,-670.5"/>
<text text-anchor="start" x="68.5" y="-680.3" font-family="Helvetica,sans-Serif" text-decoration="underline" font-size="14.00" fill="#000000">name</text>
<polygon fill="none" stroke="#000000" points="63.5,-645.5 63.5,-670.5 149.5,-670.5 149.5,-645.5 63.5,-645.5"/>
<text text-anchor="start" x="68.5" y="-655.3" font-family="Helvetica,sans-Serif" text-decoration="underline" font-size="14.00" fill="#000000">flow_nums</text>
<polygon fill="none" stroke="#000000" points="63.5,-620.5 63.5,-645.5 149.5,-645.5 149.5,-620.5 63.5,-620.5"/>
<text text-anchor="start" x="68.5" y="-629.3" font-family="Helvetica,sans-Serif" font-size="14.00" fill="#000000">status</text>
<polygon fill="none" stroke="#000000" points="63.5,-595.5 63.5,-620.5 149.5,-620.5 149.5,-595.5 63.5,-595.5"/>
<text text-anchor="start" x="68.5" y="-604.3" font-family="Helvetica,sans-Serif" font-size="14.00" fill="#000000">is_held</text>
</g>
<!-- task_pool&#45;&#45;task_action_timers -->
<g id="edge3" class="edge">
<title>task_pool&#45;&#45;task_action_timers</title>
<path fill="none" stroke="#7f7f7f" stroke-dasharray="5,2" d="M157.7916,-721.1419C195.3866,-756.7946 247.3102,-806.0358 291.2411,-847.6973"/>
<text text-anchor="start" x="260.2411" y="-836.4973" font-family="Times,serif" font-size="14.00" fill="#000000">{0,1}</text>
<text text-anchor="start" x="157.7916" y="-709.9419" font-family="Times,serif" font-size="14.00" fill="#000000">0..N</text>
</g>
<!-- task_pool&#45;&#45;task_late_flags -->
<g id="edge4" class="edge">
<title>task_pool&#45;&#45;task_late_flags</title>
<path fill="none" stroke="#7f7f7f" stroke-dasharray="5,2" d="M157.7916,-684.8024C199.8366,-694.887 259.803,-709.2701 306.4681,-720.4628"/>
<text text-anchor="start" x="275.4681" y="-709.2628" font-family="Times,serif" font-size="14.00" fill="#000000">{0,1}</text>
<text text-anchor="start" x="157.7916" y="-673.6024" font-family="Times,serif" font-size="14.00" fill="#000000">{0,1}</text>
</g>
<!-- task_pool&#45;&#45;task_outputs -->
<g id="edge5" class="edge">
<title>task_pool&#45;&#45;task_outputs</title>
<path fill="none" stroke="#7f7f7f" stroke-dasharray="5,2" d="M157.7916,-660.3868C202.1383,-649.9138 266.4224,-634.7323 314.0073,-623.4946"/>
<text text-anchor="start" x="283.0073" y="-612.2946" font-family="Times,serif" font-size="14.00" fill="#000000">{0,1}</text>
<text text-anchor="start" x="157.7916" y="-649.1868" font-family="Times,serif" font-size="14.00" fill="#000000">0..N</text>
</g>
<!-- task_timeout_timers -->
<g id="node13" class="node">
<title>task_timeout_timers</title>
<polygon fill="none" stroke="#000000" points="294.5,-502.5 294.5,-530.5 461.5,-530.5 461.5,-502.5 294.5,-502.5"/>
<text text-anchor="start" x="299.5" y="-513.7" font-family="Helvetica,sans-Serif" font-weight="bold" font-size="16.00" fill="#000000">task_timeout_timers</text>
<polygon fill="none" stroke="#000000" points="294.5,-477.5 294.5,-502.5 461.5,-502.5 461.5,-477.5 294.5,-477.5"/>
<text text-anchor="start" x="299.5" y="-487.3" font-family="Helvetica,sans-Serif" text-decoration="underline" font-size="14.00" fill="#000000">cycle</text>
<polygon fill="none" stroke="#000000" points="294.5,-452.5 294.5,-477.5 461.5,-477.5 461.5,-452.5 294.5,-452.5"/>
<text text-anchor="start" x="299.5" y="-462.3" font-family="Helvetica,sans-Serif" text-decoration="underline" font-size="14.00" fill="#000000">name</text>
<polygon fill="none" stroke="#000000" points="294.5,-427.5 294.5,-452.5 461.5,-452.5 461.5,-427.5 294.5,-427.5"/>
<text text-anchor="start" x="299.5" y="-436.3" font-family="Helvetica,sans-Serif" font-size="14.00" fill="#000000">timeout</text>
</g>
<!-- task_pool&#45;&#45;task_timeout_timers -->
<g id="edge6" class="edge">
<title>task_pool&#45;&#45;task_timeout_timers</title>
<path fill="none" stroke="#7f7f7f" stroke-dasharray="5,2" d="M157.8288,-635.3475C193.6591,-609.478 242.6416,-574.2417 286,-543.5 289.7954,-540.809 293.6833,-538.0601 297.6131,-535.2878"/>
<text text-anchor="start" x="266.6131" y="-539.0878" font-family="Times,serif" font-size="14.00" fill="#000000">{0,1}</text>
<text text-anchor="start" x="157.8288" y="-624.1475" font-family="Times,serif" font-size="14.00" fill="#000000">{0,1}</text>
</g>
<!-- task_prerequisites -->
<g id="node11" class="node">
<title>task_prerequisites</title>
<polygon fill="none" stroke="#000000" points="30.5,-1708.5 30.5,-1736.5 182.5,-1736.5 182.5,-1708.5 30.5,-1708.5"/>
<text text-anchor="start" x="35.5" y="-1719.7" font-family="Helvetica,sans-Serif" font-weight="bold" font-size="16.00" fill="#000000">task_prerequisites</text>
<polygon fill="none" stroke="#000000" points="30.5,-1683.5 30.5,-1708.5 182.5,-1708.5 182.5,-1683.5 30.5,-1683.5"/>
<text text-anchor="start" x="35.5" y="-1693.3" font-family="Helvetica,sans-Serif" text-decoration="underline" font-size="14.00" fill="#000000">cycle</text>
<polygon fill="none" stroke="#000000" points="30.5,-1658.5 30.5,-1683.5 182.5,-1683.5 182.5,-1658.5 30.5,-1658.5"/>
<text text-anchor="start" x="35.5" y="-1668.3" font-family="Helvetica,sans-Serif" text-decoration="underline" font-size="14.00" fill="#000000">name</text>
<polygon fill="none" stroke="#000000" points="30.5,-1633.5 30.5,-1658.5 182.5,-1658.5 182.5,-1633.5 30.5,-1633.5"/>
<text text-anchor="start" x="35.5" y="-1643.3" font-family="Helvetica,sans-Serif" text-decoration="underline" font-size="14.00" fill="#000000">prereq_name</text>
<polygon fill="none" stroke="#000000" points="30.5,-1608.5 30.5,-1633.5 182.5,-1633.5 182.5,-1608.5 30.5,-1608.5"/>
<text text-anchor="start" x="35.5" y="-1618.3" font-family="Helvetica,sans-Serif" text-decoration="underline" font-size="14.00" fill="#000000">prereq_cycle</text>
<polygon fill="none" stroke="#000000" points="30.5,-1583.5 30.5,-1608.5 182.5,-1608.5 182.5,-1583.5 30.5,-1583.5"/>
<text text-anchor="start" x="35.5" y="-1593.3" font-family="Helvetica,sans-Serif" text-decoration="underline" font-size="14.00" fill="#000000">prereq_output</text>
<polygon fill="none" stroke="#000000" points="30.5,-1558.5 30.5,-1583.5 182.5,-1583.5 182.5,-1558.5 30.5,-1558.5"/>
<text text-anchor="start" x="35.5" y="-1567.3" font-family="Helvetica,sans-Serif" font-size="14.00" fill="#000000">satisfied</text>
</g>
<!-- task_states -->
<g id="node12" class="node">
<title>task_states</title>
<polygon fill="none" stroke="#000000" points="57.5,-1503.5 57.5,-1531.5 155.5,-1531.5 155.5,-1503.5 57.5,-1503.5"/>
<text text-anchor="start" x="62.5" y="-1514.7" font-family="Helvetica,sans-Serif" font-weight="bold" font-size="16.00" fill="#000000">task_states</text>
<polygon fill="none" stroke="#000000" points="57.5,-1478.5 57.5,-1503.5 155.5,-1503.5 155.5,-1478.5 57.5,-1478.5"/>
<text text-anchor="start" x="62.5" y="-1488.3" font-family="Helvetica,sans-Serif" text-decoration="underline" font-size="14.00" fill="#000000">name</text>
<polygon fill="none" stroke="#000000" points="57.5,-1453.5 57.5,-1478.5 155.5,-1478.5 155.5,-1453.5 57.5,-1453.5"/>
<text text-anchor="start" x="62.5" y="-1463.3" font-family="Helvetica,sans-Serif" text-decoration="underline" font-size="14.00" fill="#000000">cycle</text>
<polygon fill="none" stroke="#000000" points="57.5,-1428.5 57.5,-1453.5 155.5,-1453.5 155.5,-1428.5 57.5,-1428.5"/>
<text text-anchor="start" x="62.5" y="-1438.3" font-family="Helvetica,sans-Serif" text-decoration="underline" font-size="14.00" fill="#000000">flow_nums</text>
<polygon fill="none" stroke="#000000" points="57.5,-1403.5 57.5,-1428.5 155.5,-1428.5 155.5,-1403.5 57.5,-1403.5"/>
<text text-anchor="start" x="62.5" y="-1412.3" font-family="Helvetica,sans-Serif" font-size="14.00" fill="#000000">time_created</text>
<polygon fill="none" stroke="#000000" points="57.5,-1378.5 57.5,-1403.5 155.5,-1403.5 155.5,-1378.5 57.5,-1378.5"/>
<text text-anchor="start" x="62.5" y="-1387.3" font-family="Helvetica,sans-Serif" font-size="14.00" fill="#000000">time_updated</text>
<polygon fill="none" stroke="#000000" points="57.5,-1353.5 57.5,-1378.5 155.5,-1378.5 155.5,-1353.5 57.5,-1353.5"/>
<text text-anchor="start" x="62.5" y="-1362.3" font-family="Helvetica,sans-Serif" font-size="14.00" fill="#000000">submit_num</text>
<polygon fill="none" stroke="#000000" points="57.5,-1328.5 57.5,-1353.5 155.5,-1353.5 155.5,-1328.5 57.5,-1328.5"/>
<text text-anchor="start" x="62.5" y="-1337.3" font-family="Helvetica,sans-Serif" font-size="14.00" fill="#000000">status</text>
</g>
<!-- task_states&#45;&#45;task_events -->
<g id="edge1" class="edge">
<title>task_states&#45;&#45;task_events</title>
<path fill="none" stroke="#7f7f7f" stroke-dasharray="5,2" d="M163.641,-1463.8147C208.8303,-1490.1612 271.7354,-1526.8365 317.6209,-1553.5889"/>
<text text-anchor="start" x="286.6209" y="-1542.3889" font-family="Times,serif" font-size="14.00" fill="#000000">{0,1}</text>
<text text-anchor="start" x="163.641" y="-1452.6147" font-family="Times,serif" font-size="14.00" fill="#000000">0..N</text>
</g>
<!-- task_states&#45;&#45;task_jobs -->
<g id="edge2" class="edge">
<title>task_states&#45;&#45;task_jobs</title>
<path fill="none" stroke="#7f7f7f" stroke-dasharray="5,2" d="M163.641,-1396.9745C206.0351,-1372.1012 264.0211,-1338.0798 308.9189,-1311.7376"/>
<text text-anchor="start" x="277.9189" y="-1300.5376" font-family="Times,serif" font-size="14.00" fill="#000000">{0,1}</text>
<text text-anchor="start" x="163.641" y="-1385.7745" font-family="Times,serif" font-size="14.00" fill="#000000">0..N</text>
</g>
<!-- tasks_to_hold -->
<g id="node14" class="node">
<title>tasks_to_hold</title>
<polygon fill="none" stroke="#000000" points="47.5,-1812.5 47.5,-1840.5 166.5,-1840.5 166.5,-1812.5 47.5,-1812.5"/>
<text text-anchor="start" x="52.5" y="-1823.7" font-family="Helvetica,sans-Serif" font-weight="bold" font-size="16.00" fill="#000000">tasks_to_hold</text>
<polygon fill="none" stroke="#000000" points="47.5,-1787.5 47.5,-1812.5 166.5,-1812.5 166.5,-1787.5 47.5,-1787.5"/>
<text text-anchor="start" x="52.5" y="-1796.3" font-family="Helvetica,sans-Serif" font-size="14.00" fill="#000000">name</text>
<polygon fill="none" stroke="#000000" points="47.5,-1762.5 47.5,-1787.5 166.5,-1787.5 166.5,-1762.5 47.5,-1762.5"/>
<text text-anchor="start" x="52.5" y="-1771.3" font-family="Helvetica,sans-Serif" font-size="14.00" fill="#000000">cycle</text>
</g>
<!-- workflow_flows -->
<g id="node15" class="node">
<title>workflow_flows</title>
<polygon fill="none" stroke="#000000" points="41.5,-1941.5 41.5,-1969.5 172.5,-1969.5 172.5,-1941.5 41.5,-1941.5"/>
<text text-anchor="start" x="46.5" y="-1952.7" font-family="Helvetica,sans-Serif" font-weight="bold" font-size="16.00" fill="#000000">workflow_flows</text>
<polygon fill="none" stroke="#000000" points="41.5,-1916.5 41.5,-1941.5 172.5,-1941.5 172.5,-1916.5 41.5,-1916.5"/>
<text text-anchor="start" x="46.5" y="-1926.3" font-family="Helvetica,sans-Serif" text-decoration="underline" font-size="14.00" fill="#000000">flow_num</text>
<polygon fill="none" stroke="#000000" points="41.5,-1891.5 41.5,-1916.5 172.5,-1916.5 172.5,-1891.5 41.5,-1891.5"/>
<text text-anchor="start" x="46.5" y="-1900.3" font-family="Helvetica,sans-Serif" font-size="14.00" fill="#000000">start_time</text>
<polygon fill="none" stroke="#000000" points="41.5,-1866.5 41.5,-1891.5 172.5,-1891.5 172.5,-1866.5 41.5,-1866.5"/>
<text text-anchor="start" x="46.5" y="-1875.3" font-family="Helvetica,sans-Serif" font-size="14.00" fill="#000000">description</text>
</g>
<!-- workflow_params -->
<g id="node16" class="node">
<title>workflow_params</title>
<polygon fill="none" stroke="#000000" points="33.5,-2046.5 33.5,-2074.5 179.5,-2074.5 179.5,-2046.5 33.5,-2046.5"/>
<text text-anchor="start" x="38.5" y="-2057.7" font-family="Helvetica,sans-Serif" font-weight="bold" font-size="16.00" fill="#000000">workflow_params</text>
<polygon fill="none" stroke="#000000" points="33.5,-2021.5 33.5,-2046.5 179.5,-2046.5 179.5,-2021.5 33.5,-2021.5"/>
<text text-anchor="start" x="38.5" y="-2031.3" font-family="Helvetica,sans-Serif" text-decoration="underline" font-size="14.00" fill="#000000">key</text>
<polygon fill="none" stroke="#000000" points="33.5,-1996.5 33.5,-2021.5 179.5,-2021.5 179.5,-1996.5 33.5,-1996.5"/>
<text text-anchor="start" x="38.5" y="-2005.3" font-family="Helvetica,sans-Serif" font-size="14.00" fill="#000000">value</text>
</g>
<!-- workflow_template_vars -->
<g id="node17" class="node">
<title>workflow_template_vars</title>
<polygon fill="none" stroke="#000000" points="8.5,-2150.5 8.5,-2178.5 205.5,-2178.5 205.5,-2150.5 8.5,-2150.5"/>
<text text-anchor="start" x="13.5" y="-2161.7" font-family="Helvetica,sans-Serif" font-weight="bold" font-size="16.00" fill="#000000">workflow_template_vars</text>
<polygon fill="none" stroke="#000000" points="8.5,-2125.5 8.5,-2150.5 205.5,-2150.5 205.5,-2125.5 8.5,-2125.5"/>
<text text-anchor="start" x="13.5" y="-2135.3" font-family="Helvetica,sans-Serif" text-decoration="underline" font-size="14.00" fill="#000000">key</text>
<polygon fill="none" stroke="#000000" points="8.5,-2100.5 8.5,-2125.5 205.5,-2125.5 205.5,-2100.5 8.5,-2100.5"/>
<text text-anchor="start" x="13.5" y="-2109.3" font-family="Helvetica,sans-Serif" font-size="14.00" fill="#000000">value</text>
</g>
<!-- xtriggers -->
<g id="node18" class="node">
<title>xtriggers</title>
<polygon fill="none" stroke="#000000" points="28.5,-2504.5 28.5,-2532.5 184.5,-2532.5 184.5,-2504.5 28.5,-2504.5"/>
<text text-anchor="start" x="72" y="-2515.7" font-family="Helvetica,sans-Serif" font-weight="bold" font-size="16.00" fill="#000000">xtriggers</text>
<polygon fill="none" stroke="#000000" points="28.5,-2479.5 28.5,-2504.5 184.5,-2504.5 184.5,-2479.5 28.5,-2479.5"/>
<text text-anchor="start" x="33.5" y="-2489.3" font-family="Helvetica,sans-Serif" text-decoration="underline" font-size="14.00" fill="#000000">signature</text>
<polygon fill="none" stroke="#000000" points="28.5,-2454.5 28.5,-2479.5 184.5,-2479.5 184.5,-2454.5 28.5,-2454.5"/>
<text text-anchor="start" x="33.5" y="-2463.3" font-family="Helvetica,sans-Serif" font-size="14.00" fill="#000000">results</text>
<polygon fill="none" stroke="#000000" points="28.5,-2429.5 28.5,-2454.5 184.5,-2454.5 184.5,-2429.5 28.5,-2429.5"/>
<text text-anchor="start" x="33.5" y="-2438.3" font-family="Helvetica,sans-Serif" font-size="14.00" fill="#000000">absolute_outputs</text>
<polygon fill="none" stroke="#000000" points="28.5,-2404.5 28.5,-2429.5 184.5,-2429.5 184.5,-2404.5 28.5,-2404.5"/>
<text text-anchor="start" x="33.5" y="-2413.3" font-family="Helvetica,sans-Serif" font-size="14.00" fill="#000000">broadcast_events</text>
<polygon fill="none" stroke="#000000" points="28.5,-2379.5 28.5,-2404.5 184.5,-2404.5 184.5,-2379.5 28.5,-2379.5"/>
<text text-anchor="start" x="33.5" y="-2388.3" font-family="Helvetica,sans-Serif" font-size="14.00" fill="#000000">broadcast_states</text>
<polygon fill="none" stroke="#000000" points="28.5,-2354.5 28.5,-2379.5 184.5,-2379.5 184.5,-2354.5 28.5,-2354.5"/>
<text text-anchor="start" x="33.5" y="-2363.3" font-family="Helvetica,sans-Serif" font-size="14.00" fill="#000000">inheritance</text>
<polygon fill="none" stroke="#000000" points="28.5,-2329.5 28.5,-2354.5 184.5,-2354.5 184.5,-2329.5 28.5,-2329.5"/>
<text text-anchor="start" x="33.5" y="-2338.3" font-family="Helvetica,sans-Serif" font-size="14.00" fill="#000000">task_prerequisites</text>
<polygon fill="none" stroke="#000000" points="28.5,-2304.5 28.5,-2329.5 184.5,-2329.5 184.5,-2304.5 28.5,-2304.5"/>
<text text-anchor="start" x="33.5" y="-2313.3" font-family="Helvetica,sans-Serif" font-size="14.00" fill="#000000">tasks_to_hold</text>
<polygon fill="none" stroke="#000000" points="28.5,-2279.5 28.5,-2304.5 184.5,-2304.5 184.5,-2279.5 28.5,-2279.5"/>
<text text-anchor="start" x="33.5" y="-2288.3" font-family="Helvetica,sans-Serif" font-size="14.00" fill="#000000">workflow_flows</text>
<polygon fill="none" stroke="#000000" points="28.5,-2254.5 28.5,-2279.5 184.5,-2279.5 184.5,-2254.5 28.5,-2254.5"/>
<text text-anchor="start" x="33.5" y="-2263.3" font-family="Helvetica,sans-Serif" font-size="14.00" fill="#000000">workflow_params</text>
<polygon fill="none" stroke="#000000" points="28.5,-2229.5 28.5,-2254.5 184.5,-2254.5 184.5,-2229.5 28.5,-2229.5"/>
<text text-anchor="start" x="33.5" y="-2238.3" font-family="Helvetica,sans-Serif" font-size="14.00" fill="#000000">workflow_template_vars</text>
<polygon fill="none" stroke="#000000" points="28.5,-2204.5 28.5,-2229.5 184.5,-2229.5 184.5,-2204.5 28.5,-2204.5"/>
<text text-anchor="start" x="33.5" y="-2213.3" font-family="Helvetica,sans-Serif" font-size="14.00" fill="#000000">xtriggers</text>
</g>
</g>
</svg>
