<?xml version="1.0" encoding="UTF-8" standalone="no"?>
<!DOCTYPE svg PUBLIC "-//W3C//DTD SVG 1.1//EN"
 "http://www.w3.org/Graphics/SVG/1.1/DTD/svg11.dtd">
<!-- Generated by graphviz version 2.40.1 (20161225.0304)
 -->
<!-- Title: Example Pages: 1 -->
<svg width="504pt" height="84pt"
 viewBox="0.00 0.00 504.00 83.79" xmlns="http://www.w3.org/2000/svg" xmlns:xlink="http://www.w3.org/1999/xlink">
<g id="graph0" class="graph" transform="scale(.4058 .4058) rotate(0) translate(4 202.4802)">
<title>Example</title>
<polygon fill="transparent" stroke="transparent" points="-4,4 -4,-202.4802 1238,-202.4802 1238,4 -4,4"/>
<g id="clust1" class="cluster">
<title>cluster_1</title>
<polygon fill="transparent" stroke="#000000" stroke-dasharray="5,2" points="8,-8 8,-190.4802 489,-190.4802 489,-8 8,-8"/>
<text text-anchor="middle" x="248.5" y="-175.2802" font-family="sans" font-size="14.00" fill="#000000">2000&#45;01&#45;01T00:00Z</text>
</g>
<g id="clust2" class="cluster">
<title>cluster_2</title>
<polygon fill="transparent" stroke="#000000" stroke-dasharray="5,2" points="497,-97.7401 497,-190.4802 737,-190.4802 737,-97.7401 497,-97.7401"/>
<text text-anchor="middle" x="617" y="-175.2802" font-family="sans" font-size="14.00" fill="#000000">2000&#45;01&#45;01T12:00Z</text>
</g>
<g id="clust3" class="cluster">
<title>cluster_3</title>
<polygon fill="transparent" stroke="#000000" stroke-dasharray="5,2" points="745,-8 745,-190.4802 1226,-190.4802 1226,-8 745,-8"/>
<text text-anchor="middle" x="985.5" y="-175.2802" font-family="sans" font-size="14.00" fill="#000000">2000&#45;01&#45;02T00:00Z</text>
</g>
<!-- foo.01T00 -->
<g id="node1" class="node">
<title>foo.01T00</title>
<ellipse fill="none" stroke="#000000" cx="369" cy="-132.6102" rx="111.9462" ry="26.7407"/>
<text text-anchor="middle" x="369" y="-136.4102" font-family="sans" font-size="14.00" fill="#000000">foo</text>
<text text-anchor="middle" x="369" y="-121.4102" font-family="sans" font-size="14.00" fill="#000000">2000&#45;01&#45;01T00:00Z</text>
</g>
<!-- bar.01T00 -->
<g id="node2" class="node">
<title>bar.01T00</title>
<ellipse fill="none" stroke="#000000" cx="369" cy="-42.8701" rx="111.9462" ry="26.7407"/>
<text text-anchor="middle" x="369" y="-46.6701" font-family="sans" font-size="14.00" fill="#000000">bar</text>
<text text-anchor="middle" x="369" y="-31.6701" font-family="sans" font-size="14.00" fill="#000000">2000&#45;01&#45;01T00:00Z</text>
</g>
<!-- foo.01T00&#45;&gt;bar.01T00 -->
<g id="edge1" class="edge">
<title>foo.01T00&#45;&gt;bar.01T00</title>
<path fill="none" stroke="#000000" d="M369,-105.6852C369,-97.6102 369,-88.607 369,-79.9961"/>
<polygon fill="#000000" stroke="#000000" points="372.5001,-79.776 369,-69.776 365.5001,-79.7761 372.5001,-79.776"/>
</g>
<!-- baz.01T00 -->
<g id="node3" class="node">
<title>baz.01T00</title>
<ellipse fill="none" stroke="#000000" cx="128" cy="-132.6102" rx="111.9462" ry="26.7407"/>
<text text-anchor="middle" x="128" y="-136.4102" font-family="sans" font-size="14.00" fill="#000000">baz</text>
<text text-anchor="middle" x="128" y="-121.4102" font-family="sans" font-size="14.00" fill="#000000">2000&#45;01&#45;01T00:00Z</text>
</g>
<!-- baz.01T12 -->
<g id="node4" class="node">
<title>baz.01T12</title>
<ellipse fill="none" stroke="#000000" cx="617" cy="-132.6102" rx="111.9462" ry="26.7407"/>
<text text-anchor="middle" x="617" y="-136.4102" font-family="sans" font-size="14.00" fill="#000000">baz</text>
<text text-anchor="middle" x="617" y="-121.4102" font-family="sans" font-size="14.00" fill="#000000">2000&#45;01&#45;01T12:00Z</text>
</g>
<!-- foo.02T00 -->
<g id="node5" class="node">
<title>foo.02T00</title>
<ellipse fill="none" stroke="#000000" cx="1106" cy="-132.6102" rx="111.9462" ry="26.7407"/>
<text text-anchor="middle" x="1106" y="-136.4102" font-family="sans" font-size="14.00" fill="#000000">foo</text>
<text text-anchor="middle" x="1106" y="-121.4102" font-family="sans" font-size="14.00" fill="#000000">2000&#45;01&#45;02T00:00Z</text>
</g>
<!-- bar.02T00 -->
<g id="node6" class="node">
<title>bar.02T00</title>
<ellipse fill="none" stroke="#000000" cx="1106" cy="-42.8701" rx="111.9462" ry="26.7407"/>
<text text-anchor="middle" x="1106" y="-46.6701" font-family="sans" font-size="14.00" fill="#000000">bar</text>
<text text-anchor="middle" x="1106" y="-31.6701" font-family="sans" font-size="14.00" fill="#000000">2000&#45;01&#45;02T00:00Z</text>
</g>
<!-- foo.02T00&#45;&gt;bar.02T00 -->
<g id="edge2" class="edge">
<title>foo.02T00&#45;&gt;bar.02T00</title>
<path fill="none" stroke="#000000" d="M1106,-105.6852C1106,-97.6102 1106,-88.607 1106,-79.9961"/>
<polygon fill="#000000" stroke="#000000" points="1109.5001,-79.776 1106,-69.776 1102.5001,-79.7761 1109.5001,-79.776"/>
</g>
<!-- baz.02T00 -->
<g id="node7" class="node">
<title>baz.02T00</title>
<ellipse fill="none" stroke="#000000" cx="865" cy="-132.6102" rx="111.9462" ry="26.7407"/>
<text text-anchor="middle" x="865" y="-136.4102" font-family="sans" font-size="14.00" fill="#000000">baz</text>
<text text-anchor="middle" x="865" y="-121.4102" font-family="sans" font-size="14.00" fill="#000000">2000&#45;01&#45;02T00:00Z</text>
</g>
</g>
</svg>
