<?xml version="1.0" encoding="UTF-8" standalone="no"?>
<!DOCTYPE svg PUBLIC "-//W3C//DTD SVG 1.1//EN"
 "http://www.w3.org/Graphics/SVG/1.1/DTD/svg11.dtd">
<!-- Generated by graphviz version 2.40.1 (20161225.0304)
 -->
<!-- Title: Example Pages: 1 -->
<svg width="200pt" height="360pt"
 viewBox="0.00 0.00 200.29 360.00" xmlns="http://www.w3.org/2000/svg" xmlns:xlink="http://www.w3.org/1999/xlink">
<g id="graph0" class="graph" transform="scale(.7474 .7474) rotate(0) translate(4 477.7006)">
<title>Example</title>
<polygon fill="transparent" stroke="transparent" points="-4,4 -4,-477.7006 264,-477.7006 264,4 -4,4"/>
<g id="clust1" class="cluster">
<title>cluster_1</title>
<polygon fill="transparent" stroke="#000000" stroke-dasharray="5,2" points="8,-187.4802 8,-465.7006 84,-465.7006 84,-187.4802 8,-187.4802"/>
<text text-anchor="middle" x="46" y="-450.5006" font-family="sans" font-size="14.00" fill="#000000">1</text>
</g>
<g id="clust2" class="cluster">
<title>cluster_2</title>
<polygon fill="transparent" stroke="#000000" stroke-dasharray="5,2" points="92,-97.7401 92,-372.9605 168,-372.9605 168,-97.7401 92,-97.7401"/>
<text text-anchor="middle" x="130" y="-357.7605" font-family="sans" font-size="14.00" fill="#000000">2</text>
</g>
<g id="clust3" class="cluster">
<title>cluster_3</title>
<polygon fill="transparent" stroke="#000000" stroke-dasharray="5,2" points="176,-8 176,-280.2203 252,-280.2203 252,-8 176,-8"/>
<text text-anchor="middle" x="214" y="-265.0203" font-family="sans" font-size="14.00" fill="#000000">3</text>
</g>
<!-- foo.1 -->
<g id="node1" class="node">
<title>foo.1</title>
<ellipse fill="none" stroke="#000000" cx="46" cy="-407.8305" rx="28.0702" ry="26.7407"/>
<text text-anchor="middle" x="46" y="-411.6305" font-family="sans" font-size="14.00" fill="#000000">foo</text>
<text text-anchor="middle" x="46" y="-396.6305" font-family="sans" font-size="14.00" fill="#000000">1</text>
</g>
<!-- bar.1 -->
<g id="node2" class="node">
<title>bar.1</title>
<ellipse fill="none" stroke="#000000" cx="46" cy="-315.0904" rx="28.9828" ry="26.7407"/>
<text text-anchor="middle" x="46" y="-318.8904" font-family="sans" font-size="14.00" fill="#000000">bar</text>
<text text-anchor="middle" x="46" y="-303.8904" font-family="sans" font-size="14.00" fill="#000000">1</text>
</g>
<!-- foo.1&#45;&gt;bar.1 -->
<g id="edge1" class="edge">
<title>foo.1&#45;&gt;bar.1</title>
<path fill="none" stroke="#000000" d="M46,-380.507C46,-371.7337 46,-361.8593 46,-352.4926"/>
<polygon fill="#000000" stroke="#000000" points="49.5001,-352.2186 46,-342.2186 42.5001,-352.2186 49.5001,-352.2186"/>
</g>
<!-- baz.1 -->
<g id="node3" class="node">
<title>baz.1</title>
<ellipse fill="none" stroke="#000000" cx="46" cy="-222.3503" rx="29.8983" ry="26.7407"/>
<text text-anchor="middle" x="46" y="-226.1503" font-family="sans" font-size="14.00" fill="#000000">baz</text>
<text text-anchor="middle" x="46" y="-211.1503" font-family="sans" font-size="14.00" fill="#000000">1</text>
</g>
<!-- bar.1&#45;&gt;baz.1 -->
<g id="edge2" class="edge">
<title>bar.1&#45;&gt;baz.1</title>
<path fill="none" stroke="#000000" d="M46,-287.7669C46,-278.9936 46,-269.1192 46,-259.7525"/>
<polygon fill="#000000" stroke="#000000" points="49.5001,-259.4785 46,-249.4785 42.5001,-259.4785 49.5001,-259.4785"/>
</g>
<!-- bar.2 -->
<g id="node5" class="node">
<title>bar.2</title>
<ellipse fill="none" stroke="#000000" cx="130" cy="-222.3503" rx="28.9828" ry="26.7407"/>
<text text-anchor="middle" x="130" y="-226.1503" font-family="sans" font-size="14.00" fill="#000000">bar</text>
<text text-anchor="middle" x="130" y="-211.1503" font-family="sans" font-size="14.00" fill="#000000">2</text>
</g>
<!-- bar.1&#45;&gt;bar.2 -->
<g id="edge7" class="edge">
<title>bar.1&#45;&gt;bar.2</title>
<path fill="none" stroke="#000000" d="M68.7206,-297.9709C75.2459,-292.6023 82.1682,-286.4447 88,-280.2203 95.5256,-272.1882 102.8763,-262.7781 109.2707,-253.908"/>
<polygon fill="#000000" stroke="#000000" points="112.1999,-255.8268 115.0827,-245.6317 106.4714,-251.8039 112.1999,-255.8268"/>
</g>
<!-- foo.2 -->
<g id="node4" class="node">
<title>foo.2</title>
<ellipse fill="none" stroke="#000000" cx="130" cy="-315.0904" rx="28.0702" ry="26.7407"/>
<text text-anchor="middle" x="130" y="-318.8904" font-family="sans" font-size="14.00" fill="#000000">foo</text>
<text text-anchor="middle" x="130" y="-303.8904" font-family="sans" font-size="14.00" fill="#000000">2</text>
</g>
<!-- foo.2&#45;&gt;bar.2 -->
<g id="edge3" class="edge">
<title>foo.2&#45;&gt;bar.2</title>
<path fill="none" stroke="#000000" d="M130,-287.7669C130,-278.9936 130,-269.1192 130,-259.7525"/>
<polygon fill="#000000" stroke="#000000" points="133.5001,-259.4785 130,-249.4785 126.5001,-259.4785 133.5001,-259.4785"/>
</g>
<!-- baz.2 -->
<g id="node6" class="node">
<title>baz.2</title>
<ellipse fill="none" stroke="#000000" cx="130" cy="-132.6102" rx="29.8983" ry="26.7407"/>
<text text-anchor="middle" x="130" y="-136.4102" font-family="sans" font-size="14.00" fill="#000000">baz</text>
<text text-anchor="middle" x="130" y="-121.4102" font-family="sans" font-size="14.00" fill="#000000">2</text>
</g>
<!-- bar.2&#45;&gt;baz.2 -->
<g id="edge4" class="edge">
<title>bar.2&#45;&gt;baz.2</title>
<path fill="none" stroke="#000000" d="M130,-195.4253C130,-187.3504 130,-178.3471 130,-169.7362"/>
<polygon fill="#000000" stroke="#000000" points="133.5001,-169.5161 130,-159.5162 126.5001,-169.5162 133.5001,-169.5161"/>
</g>
<!-- bar.3 -->
<g id="node8" class="node">
<title>bar.3</title>
<ellipse fill="none" stroke="#000000" cx="213" cy="-132.6102" rx="28.9828" ry="26.7407"/>
<text text-anchor="middle" x="213" y="-136.4102" font-family="sans" font-size="14.00" fill="#000000">bar</text>
<text text-anchor="middle" x="213" y="-121.4102" font-family="sans" font-size="14.00" fill="#000000">3</text>
</g>
<!-- bar.2&#45;&gt;bar.3 -->
<g id="edge8" class="edge">
<title>bar.2&#45;&gt;bar.3</title>
<path fill="none" stroke="#000000" d="M149.2505,-201.5365C160.4595,-189.4173 174.7429,-173.9739 186.9473,-160.7785"/>
<polygon fill="#000000" stroke="#000000" points="189.6334,-163.029 193.8539,-153.311 184.4944,-158.276 189.6334,-163.029"/>
</g>
<!-- foo.3 -->
<g id="node7" class="node">
<title>foo.3</title>
<ellipse fill="none" stroke="#000000" cx="213" cy="-222.3503" rx="28.0702" ry="26.7407"/>
<text text-anchor="middle" x="213" y="-226.1503" font-family="sans" font-size="14.00" fill="#000000">foo</text>
<text text-anchor="middle" x="213" y="-211.1503" font-family="sans" font-size="14.00" fill="#000000">3</text>
</g>
<!-- foo.3&#45;&gt;bar.3 -->
<g id="edge5" class="edge">
<title>foo.3&#45;&gt;bar.3</title>
<path fill="none" stroke="#000000" d="M213,-195.4253C213,-187.3504 213,-178.3471 213,-169.7362"/>
<polygon fill="#000000" stroke="#000000" points="216.5001,-169.5161 213,-159.5162 209.5001,-169.5162 216.5001,-169.5161"/>
</g>
<!-- baz.3 -->
<g id="node9" class="node">
<title>baz.3</title>
<ellipse fill="none" stroke="#000000" cx="214" cy="-42.8701" rx="29.8983" ry="26.7407"/>
<text text-anchor="middle" x="214" y="-46.6701" font-family="sans" font-size="14.00" fill="#000000">baz</text>
<text text-anchor="middle" x="214" y="-31.6701" font-family="sans" font-size="14.00" fill="#000000">3</text>
</g>
<!-- bar.3&#45;&gt;baz.3 -->
<g id="edge6" class="edge">
<title>bar.3&#45;&gt;baz.3</title>
<path fill="none" stroke="#000000" d="M213.3,-105.6852C213.39,-97.6102 213.4903,-88.607 213.5863,-79.9961"/>
<polygon fill="#000000" stroke="#000000" points="217.0884,-79.8145 213.7002,-69.776 210.0889,-79.7364 217.0884,-79.8145"/>
</g>
</g>
</svg>
