<?xml version="1.0" encoding="UTF-8" standalone="no"?>
<!DOCTYPE svg PUBLIC "-//W3C//DTD SVG 1.1//EN"
 "http://www.w3.org/Graphics/SVG/1.1/DTD/svg11.dtd">
<!-- Generated by graphviz version 2.43.0 (0)
 -->
<!-- Title: Mini_Cylc Pages: 1 -->
<svg width="329pt" height="260pt"
 viewBox="0.00 0.00 329.24 260.00" xmlns="http://www.w3.org/2000/svg" xmlns:xlink="http://www.w3.org/1999/xlink">
<g id="graph0" class="graph" transform="scale(1 1) rotate(0) translate(4 256)">
<title>Mini_Cylc</title>
<polygon fill="transparent" stroke="transparent" points="-4,4 -4,-256 325.24,-256 325.24,4 -4,4"/>
<!-- pre_heat_oven -->
<g id="node1" class="node">
<title>pre_heat_oven</title>
<ellipse fill="none" stroke="black" cx="76.04" cy="-162" rx="76.09" ry="18"/>
<text text-anchor="middle" x="76.04" y="-158.3" font-family="sans" font-size="14.00">pre_heat_oven</text>
</g>
<!-- bake_bread -->
<g id="node2" class="node">
<title>bake_bread</title>
<ellipse fill="none" stroke="black" cx="157.04" cy="-90" rx="62.29" ry="18"/>
<text text-anchor="middle" x="157.04" y="-86.3" font-family="sans" font-size="14.00">bake_bread</text>
</g>
<!-- pre_heat_oven&#45;&gt;bake_bread -->
<g id="edge1" class="edge">
<title>pre_heat_oven&#45;&gt;bake_bread</title>
<path fill="none" stroke="black" d="M95.24,-144.41C105.81,-135.28 119.08,-123.81 130.61,-113.84"/>
<polygon fill="black" stroke="black" points="132.99,-116.42 138.26,-107.23 128.41,-111.12 132.99,-116.42"/>
</g>
<!-- sell_bread -->
<g id="node3" class="node">
<title>sell_bread</title>
<ellipse fill="none" stroke="black" cx="90.04" cy="-18" rx="55.79" ry="18"/>
<text text-anchor="middle" x="90.04" y="-14.3" font-family="sans" font-size="14.00">sell_bread</text>
</g>
<!-- bake_bread&#45;&gt;sell_bread -->
<g id="edge2" class="edge">
<title>bake_bread&#45;&gt;sell_bread</title>
<path fill="none" stroke="black" d="M141.17,-72.41C132.74,-63.61 122.23,-52.63 112.94,-42.92"/>
<polygon fill="black" stroke="black" points="115.25,-40.27 105.81,-35.47 110.19,-45.11 115.25,-40.27"/>
</g>
<!-- clean_oven -->
<g id="node5" class="node">
<title>clean_oven</title>
<ellipse fill="none" stroke="black" cx="225.04" cy="-18" rx="61.19" ry="18"/>
<text text-anchor="middle" x="225.04" y="-14.3" font-family="sans" font-size="14.00">clean_oven</text>
</g>
<!-- bake_bread&#45;&gt;clean_oven -->
<g id="edge5" class="edge">
<title>bake_bread&#45;&gt;clean_oven</title>
<path fill="none" stroke="black" d="M173.16,-72.41C181.71,-63.61 192.38,-52.63 201.81,-42.92"/>
<polygon fill="black" stroke="black" points="204.59,-45.08 209.04,-35.47 199.57,-40.2 204.59,-45.08"/>
</g>
<!-- make_dough -->
<g id="node4" class="node">
<title>make_dough</title>
<ellipse fill="none" stroke="black" cx="238.04" cy="-162" rx="68.49" ry="18"/>
<text text-anchor="middle" x="238.04" y="-158.3" font-family="sans" font-size="14.00">make_dough</text>
</g>
<!-- make_dough&#45;&gt;bake_bread -->
<g id="edge3" class="edge">
<title>make_dough&#45;&gt;bake_bread</title>
<path fill="none" stroke="black" d="M218.85,-144.41C208.28,-135.28 195.01,-123.81 183.47,-113.84"/>
<polygon fill="black" stroke="black" points="185.68,-111.12 175.82,-107.23 181.1,-116.42 185.68,-111.12"/>
</g>
<!-- buy_ingredients -->
<g id="node6" class="node">
<title>buy_ingredients</title>
<ellipse fill="none" stroke="black" cx="238.04" cy="-234" rx="83.39" ry="18"/>
<text text-anchor="middle" x="238.04" y="-230.3" font-family="sans" font-size="14.00">buy_ingredients</text>
</g>
<!-- buy_ingredients&#45;&gt;make_dough -->
<g id="edge4" class="edge">
<title>buy_ingredients&#45;&gt;make_dough</title>
<path fill="none" stroke="black" d="M238.04,-215.7C238.04,-207.98 238.04,-198.71 238.04,-190.11"/>
<polygon fill="black" stroke="black" points="241.54,-190.1 238.04,-180.1 234.54,-190.1 241.54,-190.1"/>
</g>
</g>
</svg>
