<?xml version="1.0" encoding="UTF-8" standalone="no"?>
<!DOCTYPE svg PUBLIC "-//W3C//DTD SVG 1.1//EN"
 "http://www.w3.org/Graphics/SVG/1.1/DTD/svg11.dtd">
<!-- Generated by graphviz version 2.40.1 (20161225.0304)
 -->
<!-- Title: example Pages: 1 -->
<svg width="182pt" height="263pt"
 viewBox="0.00 0.00 182.00 263.00" xmlns="http://www.w3.org/2000/svg" xmlns:xlink="http://www.w3.org/1999/xlink">
<g id="graph0" class="graph" transform="scale(1 1) rotate(0) translate(4 259)">
<title>example</title>
<polygon fill="transparent" stroke="transparent" points="-4,4 -4,-259 178,-259 178,4 -4,4"/>
<g id="clust1" class="cluster">
<title>cluster_success</title>
<polygon fill="transparent" stroke="#00ff00" stroke-dasharray="5,2" points="8,-64 8,-139 88,-139 88,-64 8,-64"/>
<text text-anchor="middle" x="48" y="-123.8" font-family="sans" font-size="14.00" fill="#00ff00">:succeed</text>
</g>
<g id="clust2" class="cluster">
<title>cluster_failure</title>
<polygon fill="transparent" stroke="#ff0000" stroke-dasharray="5,2" points="96,-64 96,-139 166,-139 166,-64 96,-64"/>
<text text-anchor="middle" x="131" y="-123.8" font-family="sans" font-size="14.00" fill="#ff0000">:fail</text>
</g>
<!-- c -->
<g id="node1" class="node">
<title>c</title>
<ellipse fill="none" stroke="#000000" cx="53" cy="-90" rx="27" ry="18"/>
<text text-anchor="middle" x="53" y="-86.3" font-family="sans" font-size="14.00" fill="#000000">c</text>
</g>
<!-- d -->
<g id="node5" class="node">
<title>d</title>
<ellipse fill="none" stroke="#000000" cx="92" cy="-18" rx="27" ry="18"/>
<text text-anchor="middle" x="92" y="-14.3" font-family="sans" font-size="14.00" fill="#000000">d</text>
</g>
<!-- c&#45;&gt;d -->
<g id="edge3" class="edge">
<title>c&#45;&gt;d</title>
<path fill="none" stroke="#000000" d="M62.2425,-72.937C66.9537,-64.2393 72.7817,-53.4799 78.0278,-43.7948"/>
<polygon fill="#000000" stroke="#000000" points="81.1385,-45.4005 82.8239,-34.9405 74.9835,-42.0664 81.1385,-45.4005"/>
</g>
<!-- r -->
<g id="node2" class="node">
<title>r</title>
<ellipse fill="none" stroke="#000000" cx="131" cy="-90" rx="27" ry="18"/>
<text text-anchor="middle" x="131" y="-86.3" font-family="sans" font-size="14.00" fill="#000000">r</text>
</g>
<!-- r&#45;&gt;d -->
<g id="edge5" class="edge">
<title>r&#45;&gt;d</title>
<path fill="none" stroke="#000000" d="M121.7575,-72.937C117.0463,-64.2393 111.2183,-53.4799 105.9722,-43.7948"/>
<polygon fill="#000000" stroke="#000000" points="109.0165,-42.0664 101.1761,-34.9405 102.8615,-45.4005 109.0165,-42.0664"/>
</g>
<!-- a -->
<g id="node3" class="node">
<title>a</title>
<ellipse fill="none" stroke="#000000" cx="92" cy="-237" rx="27" ry="18"/>
<text text-anchor="middle" x="92" y="-233.3" font-family="sans" font-size="14.00" fill="#000000">a</text>
</g>
<!-- b -->
<g id="node4" class="node">
<title>b</title>
<ellipse fill="none" stroke="#000000" cx="92" cy="-165" rx="27" ry="18"/>
<text text-anchor="middle" x="92" y="-161.3" font-family="sans" font-size="14.00" fill="#000000">b</text>
</g>
<!-- a&#45;&gt;b -->
<g id="edge1" class="edge">
<title>a&#45;&gt;b</title>
<path fill="none" stroke="#000000" d="M92,-218.8314C92,-211.131 92,-201.9743 92,-193.4166"/>
<polygon fill="#000000" stroke="#000000" points="95.5001,-193.4132 92,-183.4133 88.5001,-193.4133 95.5001,-193.4132"/>
</g>
<!-- b&#45;&gt;c -->
<g id="edge2" class="edge">
<title>b&#45;&gt;c</title>
<path fill="none" stroke="#000000" d="M83.1503,-147.9813C78.298,-138.6501 72.1767,-126.8782 66.7193,-116.3834"/>
<polygon fill="#000000" stroke="#000000" points="69.6685,-114.4684 61.9497,-107.2109 63.458,-117.6979 69.6685,-114.4684"/>
</g>
<!-- b&#45;&gt;r -->
<g id="edge4" class="edge">
<title>b&#45;&gt;r</title>
<path fill="none" stroke="#000000" d="M100.8497,-147.9813C105.702,-138.6501 111.8233,-126.8782 117.2807,-116.3834"/>
<polygon fill="#000000" stroke="#000000" points="120.542,-117.6979 122.0503,-107.2109 114.3315,-114.4684 120.542,-117.6979"/>
</g>
</g>
</svg>
