<?xml version="1.0" encoding="UTF-8" standalone="no"?>
<!DOCTYPE svg PUBLIC "-//W3C//DTD SVG 1.1//EN"
 "http://www.w3.org/Graphics/SVG/1.1/DTD/svg11.dtd">
<!-- Generated by graphviz version 2.40.1 (20161225.0304)
 -->
<!-- Title: %3 Pages: 1 -->
<svg width="471pt" height="2703pt"
 viewBox="0.00 0.00 471.00 2703.00" xmlns="http://www.w3.org/2000/svg" xmlns:xlink="http://www.w3.org/1999/xlink">
<g id="graph0" class="graph" transform="scale(1 1) rotate(0) translate(4 2699)">
<title>%3</title>
<polygon fill="transparent" stroke="transparent" points="-4,4 -4,-2699 467,-2699 467,4 -4,4"/>
<!-- absolute_outputs -->
<g id="node1" class="node">
<title>absolute_outputs</title>
<polygon fill="none" stroke="#000000" points="284.5,-78.5 284.5,-106.5 428.5,-106.5 428.5,-78.5 284.5,-78.5"/>
<text text-anchor="start" x="289.5" y="-89.7" font-family="Helvetica,sans-Serif" font-weight="bold" font-size="16.00" fill="#000000">absolute_outputs</text>
<polygon fill="none" stroke="#000000" points="284.5,-53.5 284.5,-78.5 428.5,-78.5 428.5,-53.5 284.5,-53.5"/>
<text text-anchor="start" x="289.5" y="-62.3" font-family="Helvetica,sans-Serif" font-size="14.00" fill="#000000">cycle</text>
<polygon fill="none" stroke="#000000" points="284.5,-28.5 284.5,-53.5 428.5,-53.5 428.5,-28.5 284.5,-28.5"/>
<text text-anchor="start" x="289.5" y="-37.3" font-family="Helvetica,sans-Serif" font-size="14.00" fill="#000000">name</text>
<polygon fill="none" stroke="#000000" points="284.5,-3.5 284.5,-28.5 428.5,-28.5 428.5,-3.5 284.5,-3.5"/>
<text text-anchor="start" x="289.5" y="-12.3" font-family="Helvetica,sans-Serif" font-size="14.00" fill="#000000">output</text>
</g>
<!-- broadcast_events -->
<g id="node2" class="node">
<title>broadcast_events</title>
<polygon fill="none" stroke="#000000" points="283.5,-283.5 283.5,-311.5 430.5,-311.5 430.5,-283.5 283.5,-283.5"/>
<text text-anchor="start" x="288.5" y="-294.7" font-family="Helvetica,sans-Serif" font-weight="bold" font-size="16.00" fill="#000000">broadcast_events</text>
<polygon fill="none" stroke="#000000" points="283.5,-258.5 283.5,-283.5 430.5,-283.5 430.5,-258.5 283.5,-258.5"/>
<text text-anchor="start" x="288.5" y="-267.3" font-family="Helvetica,sans-Serif" font-size="14.00" fill="#000000">time</text>
<polygon fill="none" stroke="#000000" points="283.5,-233.5 283.5,-258.5 430.5,-258.5 430.5,-233.5 283.5,-233.5"/>
<text text-anchor="start" x="288.5" y="-242.3" font-family="Helvetica,sans-Serif" font-size="14.00" fill="#000000">change</text>
<polygon fill="none" stroke="#000000" points="283.5,-208.5 283.5,-233.5 430.5,-233.5 430.5,-208.5 283.5,-208.5"/>
<text text-anchor="start" x="288.5" y="-217.3" font-family="Helvetica,sans-Serif" font-size="14.00" fill="#000000">point</text>
<polygon fill="none" stroke="#000000" points="283.5,-183.5 283.5,-208.5 430.5,-208.5 430.5,-183.5 283.5,-183.5"/>
<text text-anchor="start" x="288.5" y="-192.3" font-family="Helvetica,sans-Serif" font-size="14.00" fill="#000000">namespace</text>
<polygon fill="none" stroke="#000000" points="283.5,-158.5 283.5,-183.5 430.5,-183.5 430.5,-158.5 283.5,-158.5"/>
<text text-anchor="start" x="288.5" y="-167.3" font-family="Helvetica,sans-Serif" font-size="14.00" fill="#000000">key</text>
<polygon fill="none" stroke="#000000" points="283.5,-133.5 283.5,-158.5 430.5,-158.5 430.5,-133.5 283.5,-133.5"/>
<text text-anchor="start" x="288.5" y="-142.3" font-family="Helvetica,sans-Serif" font-size="14.00" fill="#000000">value</text>
</g>
<!-- broadcast_states -->
<g id="node3" class="node">
<title>broadcast_states</title>
<polygon fill="none" stroke="#000000" points="285.5,-437.5 285.5,-465.5 428.5,-465.5 428.5,-437.5 285.5,-437.5"/>
<text text-anchor="start" x="290.5" y="-448.7" font-family="Helvetica,sans-Serif" font-weight="bold" font-size="16.00" fill="#000000">broadcast_states</text>
<polygon fill="none" stroke="#000000" points="285.5,-412.5 285.5,-437.5 428.5,-437.5 428.5,-412.5 285.5,-412.5"/>
<text text-anchor="start" x="290.5" y="-422.3" font-family="Helvetica,sans-Serif" text-decoration="underline" font-size="14.00" fill="#000000">point</text>
<polygon fill="none" stroke="#000000" points="285.5,-387.5 285.5,-412.5 428.5,-412.5 428.5,-387.5 285.5,-387.5"/>
<text text-anchor="start" x="290.5" y="-397.3" font-family="Helvetica,sans-Serif" text-decoration="underline" font-size="14.00" fill="#000000">namespace</text>
<polygon fill="none" stroke="#000000" points="285.5,-362.5 285.5,-387.5 428.5,-387.5 428.5,-362.5 285.5,-362.5"/>
<text text-anchor="start" x="290.5" y="-372.3" font-family="Helvetica,sans-Serif" text-decoration="underline" font-size="14.00" fill="#000000">key</text>
<polygon fill="none" stroke="#000000" points="285.5,-337.5 285.5,-362.5 428.5,-362.5 428.5,-337.5 285.5,-337.5"/>
<text text-anchor="start" x="290.5" y="-346.3" font-family="Helvetica,sans-Serif" font-size="14.00" fill="#000000">value</text>
</g>
<!-- inheritance -->
<g id="node4" class="node">
<title>inheritance</title>
<polygon fill="none" stroke="#000000" points="308.5,-541.5 308.5,-569.5 404.5,-569.5 404.5,-541.5 308.5,-541.5"/>
<text text-anchor="start" x="313.5" y="-552.7" font-family="Helvetica,sans-Serif" font-weight="bold" font-size="16.00" fill="#000000">inheritance</text>
<polygon fill="none" stroke="#000000" points="308.5,-516.5 308.5,-541.5 404.5,-541.5 404.5,-516.5 308.5,-516.5"/>
<text text-anchor="start" x="313.5" y="-526.3" font-family="Helvetica,sans-Serif" text-decoration="underline" font-size="14.00" fill="#000000">namespace</text>
<polygon fill="none" stroke="#000000" points="308.5,-491.5 308.5,-516.5 404.5,-516.5 404.5,-491.5 308.5,-491.5"/>
<text text-anchor="start" x="313.5" y="-500.3" font-family="Helvetica,sans-Serif" font-size="14.00" fill="#000000">inheritance</text>
</g>
<!-- task_action_timers -->
<g id="node5" class="node">
<title>task_action_timers</title>
<polygon fill="none" stroke="#000000" points="278.5,-1183.5 278.5,-1211.5 434.5,-1211.5 434.5,-1183.5 278.5,-1183.5"/>
<text text-anchor="start" x="283.5" y="-1194.7" font-family="Helvetica,sans-Serif" font-weight="bold" font-size="16.00" fill="#000000">task_action_timers</text>
<polygon fill="none" stroke="#000000" points="278.5,-1158.5 278.5,-1183.5 434.5,-1183.5 434.5,-1158.5 278.5,-1158.5"/>
<text text-anchor="start" x="283.5" y="-1168.3" font-family="Helvetica,sans-Serif" text-decoration="underline" font-size="14.00" fill="#000000">cycle</text>
<polygon fill="none" stroke="#000000" points="278.5,-1133.5 278.5,-1158.5 434.5,-1158.5 434.5,-1133.5 278.5,-1133.5"/>
<text text-anchor="start" x="283.5" y="-1143.3" font-family="Helvetica,sans-Serif" text-decoration="underline" font-size="14.00" fill="#000000">name</text>
<polygon fill="none" stroke="#000000" points="278.5,-1108.5 278.5,-1133.5 434.5,-1133.5 434.5,-1108.5 278.5,-1108.5"/>
<text text-anchor="start" x="283.5" y="-1118.3" font-family="Helvetica,sans-Serif" text-decoration="underline" font-size="14.00" fill="#000000">ctx_key</text>
<polygon fill="none" stroke="#000000" points="278.5,-1083.5 278.5,-1108.5 434.5,-1108.5 434.5,-1083.5 278.5,-1083.5"/>
<text text-anchor="start" x="283.5" y="-1092.3" font-family="Helvetica,sans-Serif" font-size="14.00" fill="#000000">ctx</text>
<polygon fill="none" stroke="#000000" points="278.5,-1058.5 278.5,-1083.5 434.5,-1083.5 434.5,-1058.5 278.5,-1058.5"/>
<text text-anchor="start" x="283.5" y="-1067.3" font-family="Helvetica,sans-Serif" font-size="14.00" fill="#000000">delays</text>
<polygon fill="none" stroke="#000000" points="278.5,-1033.5 278.5,-1058.5 434.5,-1058.5 434.5,-1033.5 278.5,-1033.5"/>
<text text-anchor="start" x="283.5" y="-1042.3" font-family="Helvetica,sans-Serif" font-size="14.00" fill="#000000">num</text>
<polygon fill="none" stroke="#000000" points="278.5,-1008.5 278.5,-1033.5 434.5,-1033.5 434.5,-1008.5 278.5,-1008.5"/>
<text text-anchor="start" x="283.5" y="-1017.3" font-family="Helvetica,sans-Serif" font-size="14.00" fill="#000000">delay</text>
<polygon fill="none" stroke="#000000" points="278.5,-983.5 278.5,-1008.5 434.5,-1008.5 434.5,-983.5 278.5,-983.5"/>
<text text-anchor="start" x="283.5" y="-992.3" font-family="Helvetica,sans-Serif" font-size="14.00" fill="#000000">timeout</text>
</g>
<!-- task_events -->
<g id="node6" class="node">
<title>task_events</title>
<polygon fill="none" stroke="#000000" points="305.5,-1817.5 305.5,-1845.5 408.5,-1845.5 408.5,-1817.5 305.5,-1817.5"/>
<text text-anchor="start" x="310.5" y="-1828.7" font-family="Helvetica,sans-Serif" font-weight="bold" font-size="16.00" fill="#000000">task_events</text>
<polygon fill="none" stroke="#000000" points="305.5,-1792.5 305.5,-1817.5 408.5,-1817.5 408.5,-1792.5 305.5,-1792.5"/>
<text text-anchor="start" x="310.5" y="-1801.3" font-family="Helvetica,sans-Serif" font-size="14.00" fill="#000000">name</text>
<polygon fill="none" stroke="#000000" points="305.5,-1767.5 305.5,-1792.5 408.5,-1792.5 408.5,-1767.5 305.5,-1767.5"/>
<text text-anchor="start" x="310.5" y="-1776.3" font-family="Helvetica,sans-Serif" font-size="14.00" fill="#000000">cycle</text>
<polygon fill="none" stroke="#000000" points="305.5,-1742.5 305.5,-1767.5 408.5,-1767.5 408.5,-1742.5 305.5,-1742.5"/>
<text text-anchor="start" x="310.5" y="-1751.3" font-family="Helvetica,sans-Serif" font-size="14.00" fill="#000000">time</text>
<polygon fill="none" stroke="#000000" points="305.5,-1717.5 305.5,-1742.5 408.5,-1742.5 408.5,-1717.5 305.5,-1717.5"/>
<text text-anchor="start" x="310.5" y="-1726.3" font-family="Helvetica,sans-Serif" font-size="14.00" fill="#000000">submit_num</text>
<polygon fill="none" stroke="#000000" points="305.5,-1692.5 305.5,-1717.5 408.5,-1717.5 408.5,-1692.5 305.5,-1692.5"/>
<text text-anchor="start" x="310.5" y="-1701.3" font-family="Helvetica,sans-Serif" font-size="14.00" fill="#000000">event</text>
<polygon fill="none" stroke="#000000" points="305.5,-1667.5 305.5,-1692.5 408.5,-1692.5 408.5,-1667.5 305.5,-1667.5"/>
<text text-anchor="start" x="310.5" y="-1676.3" font-family="Helvetica,sans-Serif" font-size="14.00" fill="#000000">message</text>
</g>
<!-- task_jobs -->
<g id="node7" class="node">
<title>task_jobs</title>
<polygon fill="none" stroke="#000000" points="296.5,-1612.5 296.5,-1640.5 417.5,-1640.5 417.5,-1612.5 296.5,-1612.5"/>
<text text-anchor="start" x="319.5" y="-1623.7" font-family="Helvetica,sans-Serif" font-weight="bold" font-size="16.00" fill="#000000">task_jobs</text>
<polygon fill="none" stroke="#000000" points="296.5,-1587.5 296.5,-1612.5 417.5,-1612.5 417.5,-1587.5 296.5,-1587.5"/>
<text text-anchor="start" x="301.5" y="-1597.3" font-family="Helvetica,sans-Serif" text-decoration="underline" font-size="14.00" fill="#000000">cycle</text>
<polygon fill="none" stroke="#000000" points="296.5,-1562.5 296.5,-1587.5 417.5,-1587.5 417.5,-1562.5 296.5,-1562.5"/>
<text text-anchor="start" x="301.5" y="-1572.3" font-family="Helvetica,sans-Serif" text-decoration="underline" font-size="14.00" fill="#000000">name</text>
<polygon fill="none" stroke="#000000" points="296.5,-1537.5 296.5,-1562.5 417.5,-1562.5 417.5,-1537.5 296.5,-1537.5"/>
<text text-anchor="start" x="301.5" y="-1547.3" font-family="Helvetica,sans-Serif" text-decoration="underline" font-size="14.00" fill="#000000">submit_num</text>
<polygon fill="none" stroke="#000000" points="296.5,-1512.5 296.5,-1537.5 417.5,-1537.5 417.5,-1512.5 296.5,-1512.5"/>
<text text-anchor="start" x="301.5" y="-1521.3" font-family="Helvetica,sans-Serif" font-size="14.00" fill="#000000">is_manual_submit</text>
<polygon fill="none" stroke="#000000" points="296.5,-1487.5 296.5,-1512.5 417.5,-1512.5 417.5,-1487.5 296.5,-1487.5"/>
<text text-anchor="start" x="301.5" y="-1496.3" font-family="Helvetica,sans-Serif" font-size="14.00" fill="#000000">try_num</text>
<polygon fill="none" stroke="#000000" points="296.5,-1462.5 296.5,-1487.5 417.5,-1487.5 417.5,-1462.5 296.5,-1462.5"/>
<text text-anchor="start" x="301.5" y="-1471.3" font-family="Helvetica,sans-Serif" font-size="14.00" fill="#000000">time_submit</text>
<polygon fill="none" stroke="#000000" points="296.5,-1437.5 296.5,-1462.5 417.5,-1462.5 417.5,-1437.5 296.5,-1437.5"/>
<text text-anchor="start" x="301.5" y="-1446.3" font-family="Helvetica,sans-Serif" font-size="14.00" fill="#000000">time_submit_exit</text>
<polygon fill="none" stroke="#000000" points="296.5,-1412.5 296.5,-1437.5 417.5,-1437.5 417.5,-1412.5 296.5,-1412.5"/>
<text text-anchor="start" x="301.5" y="-1421.3" font-family="Helvetica,sans-Serif" font-size="14.00" fill="#000000">submit_status</text>
<polygon fill="none" stroke="#000000" points="296.5,-1387.5 296.5,-1412.5 417.5,-1412.5 417.5,-1387.5 296.5,-1387.5"/>
<text text-anchor="start" x="301.5" y="-1396.3" font-family="Helvetica,sans-Serif" font-size="14.00" fill="#000000">time_run</text>
<polygon fill="none" stroke="#000000" points="296.5,-1362.5 296.5,-1387.5 417.5,-1387.5 417.5,-1362.5 296.5,-1362.5"/>
<text text-anchor="start" x="301.5" y="-1371.3" font-family="Helvetica,sans-Serif" font-size="14.00" fill="#000000">time_run_exit</text>
<polygon fill="none" stroke="#000000" points="296.5,-1337.5 296.5,-1362.5 417.5,-1362.5 417.5,-1337.5 296.5,-1337.5"/>
<text text-anchor="start" x="301.5" y="-1346.3" font-family="Helvetica,sans-Serif" font-size="14.00" fill="#000000">run_signal</text>
<polygon fill="none" stroke="#000000" points="296.5,-1312.5 296.5,-1337.5 417.5,-1337.5 417.5,-1312.5 296.5,-1312.5"/>
<text text-anchor="start" x="301.5" y="-1321.3" font-family="Helvetica,sans-Serif" font-size="14.00" fill="#000000">run_status</text>
<polygon fill="none" stroke="#000000" points="296.5,-1287.5 296.5,-1312.5 417.5,-1312.5 417.5,-1287.5 296.5,-1287.5"/>
<text text-anchor="start" x="301.5" y="-1296.3" font-family="Helvetica,sans-Serif" font-size="14.00" fill="#000000">platform_name</text>
<polygon fill="none" stroke="#000000" points="296.5,-1262.5 296.5,-1287.5 417.5,-1287.5 417.5,-1262.5 296.5,-1262.5"/>
<text text-anchor="start" x="301.5" y="-1271.3" font-family="Helvetica,sans-Serif" font-size="14.00" fill="#000000">job_runner_name</text>
<polygon fill="none" stroke="#000000" points="296.5,-1237.5 296.5,-1262.5 417.5,-1262.5 417.5,-1237.5 296.5,-1237.5"/>
<text text-anchor="start" x="301.5" y="-1246.3" font-family="Helvetica,sans-Serif" font-size="14.00" fill="#000000">job_id</text>
</g>
<!-- task_late_flags -->
<g id="node8" class="node">
<title>task_late_flags</title>
<polygon fill="none" stroke="#000000" points="293.5,-928.5 293.5,-956.5 419.5,-956.5 419.5,-928.5 293.5,-928.5"/>
<text text-anchor="start" x="298.5" y="-939.7" font-family="Helvetica,sans-Serif" font-weight="bold" font-size="16.00" fill="#000000">task_late_flags</text>
<polygon fill="none" stroke="#000000" points="293.5,-903.5 293.5,-928.5 419.5,-928.5 419.5,-903.5 293.5,-903.5"/>
<text text-anchor="start" x="298.5" y="-913.3" font-family="Helvetica,sans-Serif" text-decoration="underline" font-size="14.00" fill="#000000">cycle</text>
<polygon fill="none" stroke="#000000" points="293.5,-878.5 293.5,-903.5 419.5,-903.5 419.5,-878.5 293.5,-878.5"/>
<text text-anchor="start" x="298.5" y="-888.3" font-family="Helvetica,sans-Serif" text-decoration="underline" font-size="14.00" fill="#000000">name</text>
<polygon fill="none" stroke="#000000" points="293.5,-853.5 293.5,-878.5 419.5,-878.5 419.5,-853.5 293.5,-853.5"/>
<text text-anchor="start" x="298.5" y="-862.3" font-family="Helvetica,sans-Serif" font-size="14.00" fill="#000000">value</text>
</g>
<!-- task_outputs -->
<g id="node9" class="node">
<title>task_outputs</title>
<polygon fill="none" stroke="#000000" points="301.5,-799.5 301.5,-827.5 411.5,-827.5 411.5,-799.5 301.5,-799.5"/>
<text text-anchor="start" x="306.5" y="-810.7" font-family="Helvetica,sans-Serif" font-weight="bold" font-size="16.00" fill="#000000">task_outputs</text>
<polygon fill="none" stroke="#000000" points="301.5,-774.5 301.5,-799.5 411.5,-799.5 411.5,-774.5 301.5,-774.5"/>
<text text-anchor="start" x="306.5" y="-784.3" font-family="Helvetica,sans-Serif" text-decoration="underline" font-size="14.00" fill="#000000">cycle</text>
<polygon fill="none" stroke="#000000" points="301.5,-749.5 301.5,-774.5 411.5,-774.5 411.5,-749.5 301.5,-749.5"/>
<text text-anchor="start" x="306.5" y="-759.3" font-family="Helvetica,sans-Serif" text-decoration="underline" font-size="14.00" fill="#000000">name</text>
<polygon fill="none" stroke="#000000" points="301.5,-724.5 301.5,-749.5 411.5,-749.5 411.5,-724.5 301.5,-724.5"/>
<text text-anchor="start" x="306.5" y="-733.3" font-family="Helvetica,sans-Serif" font-size="14.00" fill="#000000">outputs</text>
</g>
<!-- task_pool -->
<g id="node10" class="node">
<title>task_pool</title>
<polygon fill="none" stroke="#000000" points="45.5,-888.5 45.5,-916.5 131.5,-916.5 131.5,-888.5 45.5,-888.5"/>
<text text-anchor="start" x="50.5" y="-899.7" font-family="Helvetica,sans-Serif" font-weight="bold" font-size="16.00" fill="#000000">task_pool</text>
<polygon fill="none" stroke="#000000" points="45.5,-863.5 45.5,-888.5 131.5,-888.5 131.5,-863.5 45.5,-863.5"/>
<text text-anchor="start" x="50.5" y="-873.3" font-family="Helvetica,sans-Serif" text-decoration="underline" font-size="14.00" fill="#000000">cycle</text>
<polygon fill="none" stroke="#000000" points="45.5,-838.5 45.5,-863.5 131.5,-863.5 131.5,-838.5 45.5,-838.5"/>
<text text-anchor="start" x="50.5" y="-848.3" font-family="Helvetica,sans-Serif" text-decoration="underline" font-size="14.00" fill="#000000">name</text>
<polygon fill="none" stroke="#000000" points="45.5,-813.5 45.5,-838.5 131.5,-838.5 131.5,-813.5 45.5,-813.5"/>
<text text-anchor="start" x="50.5" y="-823.3" font-family="Helvetica,sans-Serif" text-decoration="underline" font-size="14.00" fill="#000000">flow_label</text>
<polygon fill="none" stroke="#000000" points="45.5,-788.5 45.5,-813.5 131.5,-813.5 131.5,-788.5 45.5,-788.5"/>
<text text-anchor="start" x="50.5" y="-797.3" font-family="Helvetica,sans-Serif" font-size="14.00" fill="#000000">status</text>
<polygon fill="none" stroke="#000000" points="45.5,-763.5 45.5,-788.5 131.5,-788.5 131.5,-763.5 45.5,-763.5"/>
<text text-anchor="start" x="50.5" y="-772.3" font-family="Helvetica,sans-Serif" font-size="14.00" fill="#000000">is_held</text>
</g>
<!-- task_pool&#45;&#45;task_action_timers -->
<g id="edge3" class="edge">
<title>task_pool&#45;&#45;task_action_timers</title>
<path fill="none" stroke="#7f7f7f" stroke-dasharray="5,2" d="M139.5396,-889.4447C176.4441,-924.8345 227.1894,-973.4969 270.3246,-1014.8617"/>
<text text-anchor="start" x="239.3246" y="-1003.6617" font-family="Times,serif" font-size="14.00" fill="#000000">{0,1}</text>
<text text-anchor="start" x="139.5396" y="-878.2447" font-family="Times,serif" font-size="14.00" fill="#000000">0..N</text>
</g>
<!-- task_pool&#45;&#45;task_late_flags -->
<g id="edge4" class="edge">
<title>task_pool&#45;&#45;task_late_flags</title>
<path fill="none" stroke="#7f7f7f" stroke-dasharray="5,2" d="M139.5396,-852.879C180.8484,-862.8979 239.4986,-877.1228 285.4065,-888.2572"/>
<text text-anchor="start" x="254.4065" y="-877.0572" font-family="Times,serif" font-size="14.00" fill="#000000">{0,1}</text>
<text text-anchor="start" x="139.5396" y="-841.679" font-family="Times,serif" font-size="14.00" fill="#000000">{0,1}</text>
</g>
<!-- task_pool&#45;&#45;task_outputs -->
<g id="edge5" class="edge">
<title>task_pool&#45;&#45;task_outputs</title>
<path fill="none" stroke="#7f7f7f" stroke-dasharray="5,2" d="M139.5396,-828.3114C183.2783,-817.8664 246.4586,-802.7785 293.3695,-791.5759"/>
<text text-anchor="start" x="262.3695" y="-780.3759" font-family="Times,serif" font-size="14.00" fill="#000000">{0,1}</text>
<text text-anchor="start" x="139.5396" y="-817.1114" font-family="Times,serif" font-size="14.00" fill="#000000">0..N</text>
</g>
<!-- task_timeout_timers -->
<g id="node13" class="node">
<title>task_timeout_timers</title>
<polygon fill="none" stroke="#000000" points="273.5,-670.5 273.5,-698.5 440.5,-698.5 440.5,-670.5 273.5,-670.5"/>
<text text-anchor="start" x="278.5" y="-681.7" font-family="Helvetica,sans-Serif" font-weight="bold" font-size="16.00" fill="#000000">task_timeout_timers</text>
<polygon fill="none" stroke="#000000" points="273.5,-645.5 273.5,-670.5 440.5,-670.5 440.5,-645.5 273.5,-645.5"/>
<text text-anchor="start" x="278.5" y="-655.3" font-family="Helvetica,sans-Serif" text-decoration="underline" font-size="14.00" fill="#000000">cycle</text>
<polygon fill="none" stroke="#000000" points="273.5,-620.5 273.5,-645.5 440.5,-645.5 440.5,-620.5 273.5,-620.5"/>
<text text-anchor="start" x="278.5" y="-630.3" font-family="Helvetica,sans-Serif" text-decoration="underline" font-size="14.00" fill="#000000">name</text>
<polygon fill="none" stroke="#000000" points="273.5,-595.5 273.5,-620.5 440.5,-620.5 440.5,-595.5 273.5,-595.5"/>
<text text-anchor="start" x="278.5" y="-604.3" font-family="Helvetica,sans-Serif" font-size="14.00" fill="#000000">timeout</text>
</g>
<!-- task_pool&#45;&#45;task_timeout_timers -->
<g id="edge6" class="edge">
<title>task_pool&#45;&#45;task_timeout_timers</title>
<path fill="none" stroke="#7f7f7f" stroke-dasharray="5,2" d="M139.5217,-796.8652C170.6498,-770.9801 211.6979,-738.1305 250,-711.5 254.782,-708.1752 259.74,-704.8398 264.7836,-701.533"/>
<text text-anchor="start" x="233.7836" y="-690.333" font-family="Times,serif" font-size="14.00" fill="#000000">{0,1}</text>
<text text-anchor="start" x="139.5217" y="-785.6652" font-family="Times,serif" font-size="14.00" fill="#000000">{0,1}</text>
</g>
<!-- task_prerequisites -->
<g id="node11" class="node">
<title>task_prerequisites</title>
<polygon fill="none" stroke="#000000" points="280.5,-2021.5 280.5,-2049.5 432.5,-2049.5 432.5,-2021.5 280.5,-2021.5"/>
<text text-anchor="start" x="285.5" y="-2032.7" font-family="Helvetica,sans-Serif" font-weight="bold" font-size="16.00" fill="#000000">task_prerequisites</text>
<polygon fill="none" stroke="#000000" points="280.5,-1996.5 280.5,-2021.5 432.5,-2021.5 432.5,-1996.5 280.5,-1996.5"/>
<text text-anchor="start" x="285.5" y="-2006.3" font-family="Helvetica,sans-Serif" text-decoration="underline" font-size="14.00" fill="#000000">cycle</text>
<polygon fill="none" stroke="#000000" points="280.5,-1971.5 280.5,-1996.5 432.5,-1996.5 432.5,-1971.5 280.5,-1971.5"/>
<text text-anchor="start" x="285.5" y="-1981.3" font-family="Helvetica,sans-Serif" text-decoration="underline" font-size="14.00" fill="#000000">name</text>
<polygon fill="none" stroke="#000000" points="280.5,-1946.5 280.5,-1971.5 432.5,-1971.5 432.5,-1946.5 280.5,-1946.5"/>
<text text-anchor="start" x="285.5" y="-1956.3" font-family="Helvetica,sans-Serif" text-decoration="underline" font-size="14.00" fill="#000000">prereq_name</text>
<polygon fill="none" stroke="#000000" points="280.5,-1921.5 280.5,-1946.5 432.5,-1946.5 432.5,-1921.5 280.5,-1921.5"/>
<text text-anchor="start" x="285.5" y="-1931.3" font-family="Helvetica,sans-Serif" text-decoration="underline" font-size="14.00" fill="#000000">prereq_cycle</text>
<polygon fill="none" stroke="#000000" points="280.5,-1896.5 280.5,-1921.5 432.5,-1921.5 432.5,-1896.5 280.5,-1896.5"/>
<text text-anchor="start" x="285.5" y="-1906.3" font-family="Helvetica,sans-Serif" text-decoration="underline" font-size="14.00" fill="#000000">prereq_output</text>
<polygon fill="none" stroke="#000000" points="280.5,-1871.5 280.5,-1896.5 432.5,-1896.5 432.5,-1871.5 280.5,-1871.5"/>
<text text-anchor="start" x="285.5" y="-1880.3" font-family="Helvetica,sans-Serif" font-size="14.00" fill="#000000">satisfied</text>
</g>
<!-- task_states -->
<g id="node12" class="node">
<title>task_states</title>
<polygon fill="none" stroke="#000000" points="39.5,-1671.5 39.5,-1699.5 137.5,-1699.5 137.5,-1671.5 39.5,-1671.5"/>
<text text-anchor="start" x="44.5" y="-1682.7" font-family="Helvetica,sans-Serif" font-weight="bold" font-size="16.00" fill="#000000">task_states</text>
<polygon fill="none" stroke="#000000" points="39.5,-1646.5 39.5,-1671.5 137.5,-1671.5 137.5,-1646.5 39.5,-1646.5"/>
<text text-anchor="start" x="44.5" y="-1656.3" font-family="Helvetica,sans-Serif" text-decoration="underline" font-size="14.00" fill="#000000">name</text>
<polygon fill="none" stroke="#000000" points="39.5,-1621.5 39.5,-1646.5 137.5,-1646.5 137.5,-1621.5 39.5,-1621.5"/>
<text text-anchor="start" x="44.5" y="-1631.3" font-family="Helvetica,sans-Serif" text-decoration="underline" font-size="14.00" fill="#000000">cycle</text>
<polygon fill="none" stroke="#000000" points="39.5,-1596.5 39.5,-1621.5 137.5,-1621.5 137.5,-1596.5 39.5,-1596.5"/>
<text text-anchor="start" x="44.5" y="-1606.3" font-family="Helvetica,sans-Serif" text-decoration="underline" font-size="14.00" fill="#000000">flow_label</text>
<polygon fill="none" stroke="#000000" points="39.5,-1571.5 39.5,-1596.5 137.5,-1596.5 137.5,-1571.5 39.5,-1571.5"/>
<text text-anchor="start" x="44.5" y="-1580.3" font-family="Helvetica,sans-Serif" font-size="14.00" fill="#000000">time_created</text>
<polygon fill="none" stroke="#000000" points="39.5,-1546.5 39.5,-1571.5 137.5,-1571.5 137.5,-1546.5 39.5,-1546.5"/>
<text text-anchor="start" x="44.5" y="-1555.3" font-family="Helvetica,sans-Serif" font-size="14.00" fill="#000000">time_updated</text>
<polygon fill="none" stroke="#000000" points="39.5,-1521.5 39.5,-1546.5 137.5,-1546.5 137.5,-1521.5 39.5,-1521.5"/>
<text text-anchor="start" x="44.5" y="-1530.3" font-family="Helvetica,sans-Serif" font-size="14.00" fill="#000000">submit_num</text>
<polygon fill="none" stroke="#000000" points="39.5,-1496.5 39.5,-1521.5 137.5,-1521.5 137.5,-1496.5 39.5,-1496.5"/>
<text text-anchor="start" x="44.5" y="-1505.3" font-family="Helvetica,sans-Serif" font-size="14.00" fill="#000000">status</text>
</g>
<!-- task_states&#45;&#45;task_events -->
<g id="edge1" class="edge">
<title>task_states&#45;&#45;task_events</title>
<path fill="none" stroke="#7f7f7f" stroke-dasharray="5,2" d="M145.664,-1632.2012C190.0914,-1658.3934 251.5383,-1694.6196 296.6364,-1721.2073"/>
<text text-anchor="start" x="265.6364" y="-1710.0073" font-family="Times,serif" font-size="14.00" fill="#000000">{0,1}</text>
<text text-anchor="start" x="145.664" y="-1621.0012" font-family="Times,serif" font-size="14.00" fill="#000000">0..N</text>
</g>
<!-- task_states&#45;&#45;task_jobs -->
<g id="edge2" class="edge">
<title>task_states&#45;&#45;task_jobs</title>
<path fill="none" stroke="#7f7f7f" stroke-dasharray="5,2" d="M145.664,-1564.5855C187.1705,-1539.9604 243.5323,-1506.5219 287.5391,-1480.4134"/>
<text text-anchor="start" x="256.5391" y="-1469.2134" font-family="Times,serif" font-size="14.00" fill="#000000">{0,1}</text>
<text text-anchor="start" x="145.664" y="-1553.3855" font-family="Times,serif" font-size="14.00" fill="#000000">0..N</text>
</g>
<!-- tasks_to_hold -->
<g id="node14" class="node">
<title>tasks_to_hold</title>
<polygon fill="none" stroke="#000000" points="297.5,-2125.5 297.5,-2153.5 416.5,-2153.5 416.5,-2125.5 297.5,-2125.5"/>
<text text-anchor="start" x="302.5" y="-2136.7" font-family="Helvetica,sans-Serif" font-weight="bold" font-size="16.00" fill="#000000">tasks_to_hold</text>
<polygon fill="none" stroke="#000000" points="297.5,-2100.5 297.5,-2125.5 416.5,-2125.5 416.5,-2100.5 297.5,-2100.5"/>
<text text-anchor="start" x="302.5" y="-2109.3" font-family="Helvetica,sans-Serif" font-size="14.00" fill="#000000">name</text>
<polygon fill="none" stroke="#000000" points="297.5,-2075.5 297.5,-2100.5 416.5,-2100.5 416.5,-2075.5 297.5,-2075.5"/>
<text text-anchor="start" x="302.5" y="-2084.3" font-family="Helvetica,sans-Serif" font-size="14.00" fill="#000000">cycle</text>
</g>
<!-- workflow_params -->
<g id="node15" class="node">
<title>workflow_params</title>
<polygon fill="none" stroke="#000000" points="283.5,-2229.5 283.5,-2257.5 429.5,-2257.5 429.5,-2229.5 283.5,-2229.5"/>
<text text-anchor="start" x="288.5" y="-2240.7" font-family="Helvetica,sans-Serif" font-weight="bold" font-size="16.00" fill="#000000">workflow_params</text>
<polygon fill="none" stroke="#000000" points="283.5,-2204.5 283.5,-2229.5 429.5,-2229.5 429.5,-2204.5 283.5,-2204.5"/>
<text text-anchor="start" x="288.5" y="-2214.3" font-family="Helvetica,sans-Serif" text-decoration="underline" font-size="14.00" fill="#000000">key</text>
<polygon fill="none" stroke="#000000" points="283.5,-2179.5 283.5,-2204.5 429.5,-2204.5 429.5,-2179.5 283.5,-2179.5"/>
<text text-anchor="start" x="288.5" y="-2188.3" font-family="Helvetica,sans-Serif" font-size="14.00" fill="#000000">value</text>
</g>
<!-- workflow_template_vars -->
<g id="node16" class="node">
<title>workflow_template_vars</title>
<polygon fill="none" stroke="#000000" points="258.5,-2333.5 258.5,-2361.5 455.5,-2361.5 455.5,-2333.5 258.5,-2333.5"/>
<text text-anchor="start" x="263.5" y="-2344.7" font-family="Helvetica,sans-Serif" font-weight="bold" font-size="16.00" fill="#000000">workflow_template_vars</text>
<polygon fill="none" stroke="#000000" points="258.5,-2308.5 258.5,-2333.5 455.5,-2333.5 455.5,-2308.5 258.5,-2308.5"/>
<text text-anchor="start" x="263.5" y="-2318.3" font-family="Helvetica,sans-Serif" text-decoration="underline" font-size="14.00" fill="#000000">key</text>
<polygon fill="none" stroke="#000000" points="258.5,-2283.5 258.5,-2308.5 455.5,-2308.5 455.5,-2283.5 258.5,-2283.5"/>
<text text-anchor="start" x="263.5" y="-2292.3" font-family="Helvetica,sans-Serif" font-size="14.00" fill="#000000">value</text>
</g>
<!-- xtriggers -->
<g id="node17" class="node">
<title>xtriggers</title>
<polygon fill="none" stroke="#000000" points="278.5,-2662.5 278.5,-2690.5 434.5,-2690.5 434.5,-2662.5 278.5,-2662.5"/>
<text text-anchor="start" x="322" y="-2673.7" font-family="Helvetica,sans-Serif" font-weight="bold" font-size="16.00" fill="#000000">xtriggers</text>
<polygon fill="none" stroke="#000000" points="278.5,-2637.5 278.5,-2662.5 434.5,-2662.5 434.5,-2637.5 278.5,-2637.5"/>
<text text-anchor="start" x="283.5" y="-2647.3" font-family="Helvetica,sans-Serif" text-decoration="underline" font-size="14.00" fill="#000000">signature</text>
<polygon fill="none" stroke="#000000" points="278.5,-2612.5 278.5,-2637.5 434.5,-2637.5 434.5,-2612.5 278.5,-2612.5"/>
<text text-anchor="start" x="283.5" y="-2621.3" font-family="Helvetica,sans-Serif" font-size="14.00" fill="#000000">results</text>
<polygon fill="none" stroke="#000000" points="278.5,-2587.5 278.5,-2612.5 434.5,-2612.5 434.5,-2587.5 278.5,-2587.5"/>
<text text-anchor="start" x="283.5" y="-2596.3" font-family="Helvetica,sans-Serif" font-size="14.00" fill="#000000">absolute_outputs</text>
<polygon fill="none" stroke="#000000" points="278.5,-2562.5 278.5,-2587.5 434.5,-2587.5 434.5,-2562.5 278.5,-2562.5"/>
<text text-anchor="start" x="283.5" y="-2571.3" font-family="Helvetica,sans-Serif" font-size="14.00" fill="#000000">broadcast_events</text>
<polygon fill="none" stroke="#000000" points="278.5,-2537.5 278.5,-2562.5 434.5,-2562.5 434.5,-2537.5 278.5,-2537.5"/>
<text text-anchor="start" x="283.5" y="-2546.3" font-family="Helvetica,sans-Serif" font-size="14.00" fill="#000000">broadcast_states</text>
<polygon fill="none" stroke="#000000" points="278.5,-2512.5 278.5,-2537.5 434.5,-2537.5 434.5,-2512.5 278.5,-2512.5"/>
<text text-anchor="start" x="283.5" y="-2521.3" font-family="Helvetica,sans-Serif" font-size="14.00" fill="#000000">inheritance</text>
<polygon fill="none" stroke="#000000" points="278.5,-2487.5 278.5,-2512.5 434.5,-2512.5 434.5,-2487.5 278.5,-2487.5"/>
<text text-anchor="start" x="283.5" y="-2496.3" font-family="Helvetica,sans-Serif" font-size="14.00" fill="#000000">task_prerequisites</text>
<polygon fill="none" stroke="#000000" points="278.5,-2462.5 278.5,-2487.5 434.5,-2487.5 434.5,-2462.5 278.5,-2462.5"/>
<text text-anchor="start" x="283.5" y="-2471.3" font-family="Helvetica,sans-Serif" font-size="14.00" fill="#000000">tasks_to_hold</text>
<polygon fill="none" stroke="#000000" points="278.5,-2437.5 278.5,-2462.5 434.5,-2462.5 434.5,-2437.5 278.5,-2437.5"/>
<text text-anchor="start" x="283.5" y="-2446.3" font-family="Helvetica,sans-Serif" font-size="14.00" fill="#000000">workflow_params</text>
<polygon fill="none" stroke="#000000" points="278.5,-2412.5 278.5,-2437.5 434.5,-2437.5 434.5,-2412.5 278.5,-2412.5"/>
<text text-anchor="start" x="283.5" y="-2421.3" font-family="Helvetica,sans-Serif" font-size="14.00" fill="#000000">workflow_template_vars</text>
<polygon fill="none" stroke="#000000" points="278.5,-2387.5 278.5,-2412.5 434.5,-2412.5 434.5,-2387.5 278.5,-2387.5"/>
<text text-anchor="start" x="283.5" y="-2396.3" font-family="Helvetica,sans-Serif" font-size="14.00" fill="#000000">xtriggers</text>
</g>
<!-- task_pool_checkpoints -->
<g id="node18" class="node">
<title>task_pool_checkpoints</title>
<text text-anchor="middle" x="88.5" y="-526.8" font-family="sans" font-size="14.00" fill="#000000">task_pool_checkpoints</text>
</g>
<!-- task_pool_checkpoints&#45;&#45;inheritance -->
</g>
</svg>
