<?xml version="1.0" encoding="UTF-8" standalone="no"?>
<!DOCTYPE svg PUBLIC "-//W3C//DTD SVG 1.1//EN"
 "http://www.w3.org/Graphics/SVG/1.1/DTD/svg11.dtd">
<!-- Generated by graphviz version 2.43.0 (0)
 -->
<!-- Title: example Pages: 1 -->
<svg width="81pt" height="504pt"
 viewBox="0.00 0.00 80.75 504.00" xmlns="http://www.w3.org/2000/svg" xmlns:xlink="http://www.w3.org/1999/xlink">
<g id="graph0" class="graph" transform="scale(2.06 2.06) rotate(0) translate(4 1032.14)">
<title>example</title>
<polygon fill="transparent" stroke="transparent" points="-4,4 -4,-1032.14 162,-1032.14 162,4 -4,4"/>
<g id="clust1" class="cluster">
<title>cluster_1</title>
<polygon fill="transparent" stroke="black" stroke-dasharray="5,2" points="8,-658.18 8,-1020.14 150,-1020.14 150,-658.18 8,-658.18"/>
<text text-anchor="middle" x="79" y="-1004.94" font-family="sans" font-size="14.00">1</text>
</g>
<g id="clust2" class="cluster">
<title>cluster_2</title>
<polygon fill="transparent" stroke="black" stroke-dasharray="5,2" points="8,-377.96 8,-650.18 150,-650.18 150,-377.96 8,-377.96"/>
<text text-anchor="middle" x="79" y="-634.98" font-family="sans" font-size="14.00">2</text>
</g>
<g id="clust3" class="cluster">
<title>cluster_3</title>
<polygon fill="transparent" stroke="black" stroke-dasharray="5,2" points="8,-8 8,-369.96 150,-369.96 150,-8 8,-8"/>
<text text-anchor="middle" x="79" y="-354.76" font-family="sans" font-size="14.00">3</text>
</g>
<!-- a.1 -->
<g id="node1" class="node">
<title>a.1</title>
<ellipse fill="none" stroke="black" cx="115" cy="-962.27" rx="27" ry="26.74"/>
<text text-anchor="middle" x="115" y="-966.07" font-family="sans" font-size="14.00">a</text>
<text text-anchor="middle" x="115" y="-951.07" font-family="sans" font-size="14.00">1</text>
</g>
<!-- b.1 -->
<g id="node2" class="node">
<title>b.1</title>
<ellipse fill="none" stroke="black" cx="79" cy="-872.53" rx="27" ry="26.74"/>
<text text-anchor="middle" x="79" y="-876.33" font-family="sans" font-size="14.00">b</text>
<text text-anchor="middle" x="79" y="-861.33" font-family="sans" font-size="14.00">1</text>
</g>
<!-- a.1&#45;&gt;b.1 -->
<g id="edge1" class="edge">
<title>a.1&#45;&gt;b.1</title>
<path fill="none" stroke="black" d="M104.97,-936.83C101.23,-927.7 96.91,-917.17 92.88,-907.35"/>
<polygon fill="black" stroke="black" points="96.01,-905.76 88.97,-897.84 89.53,-908.42 96.01,-905.76"/>
</g>
<!-- d.1 -->
<g id="node3" class="node">
<title>d.1</title>
<ellipse fill="none" stroke="black" cx="43" cy="-782.79" rx="27" ry="26.74"/>
<text text-anchor="middle" x="43" y="-786.59" font-family="sans" font-size="14.00">d</text>
<text text-anchor="middle" x="43" y="-771.59" font-family="sans" font-size="14.00">1</text>
</g>
<!-- b.1&#45;&gt;d.1 -->
<g id="edge3" class="edge">
<title>b.1&#45;&gt;d.1</title>
<path fill="none" stroke="black" d="M68.97,-847.09C65.23,-837.96 60.91,-827.43 56.88,-817.61"/>
<polygon fill="black" stroke="black" points="60.01,-816.02 52.97,-808.1 53.53,-818.68 60.01,-816.02"/>
</g>
<!-- f.1 -->
<g id="node4" class="node">
<title>f.1</title>
<ellipse fill="none" stroke="black" cx="115" cy="-782.79" rx="27" ry="26.74"/>
<text text-anchor="middle" x="115" y="-786.59" font-family="sans" font-size="14.00">f</text>
<text text-anchor="middle" x="115" y="-771.59" font-family="sans" font-size="14.00">1</text>
</g>
<!-- b.1&#45;&gt;f.1 -->
<g id="edge2" class="edge">
<title>b.1&#45;&gt;f.1</title>
<path fill="none" stroke="black" d="M89.03,-847.09C92.77,-837.96 97.09,-827.43 101.12,-817.61"/>
<polygon fill="black" stroke="black" points="104.47,-818.68 105.03,-808.1 97.99,-816.02 104.47,-818.68"/>
</g>
<!-- e.1 -->
<g id="node6" class="node">
<title>e.1</title>
<ellipse fill="none" stroke="black" cx="43" cy="-693.05" rx="27" ry="26.74"/>
<text text-anchor="middle" x="43" y="-696.85" font-family="sans" font-size="14.00">e</text>
<text text-anchor="middle" x="43" y="-681.85" font-family="sans" font-size="14.00">1</text>
</g>
<!-- d.1&#45;&gt;e.1 -->
<g id="edge13" class="edge">
<title>d.1&#45;&gt;e.1</title>
<path fill="none" stroke="black" d="M43,-755.47C43,-747.5 43,-738.61 43,-730.12"/>
<polygon fill="black" stroke="black" points="46.5,-730.05 43,-720.05 39.5,-730.05 46.5,-730.05"/>
</g>
<!-- c.2 -->
<g id="node11" class="node">
<title>c.2</title>
<ellipse fill="none" stroke="black" cx="115" cy="-592.31" rx="27" ry="26.74"/>
<text text-anchor="middle" x="115" y="-596.11" font-family="sans" font-size="14.00">c</text>
<text text-anchor="middle" x="115" y="-581.11" font-family="sans" font-size="14.00">2</text>
</g>
<!-- f.1&#45;&gt;c.2 -->
<g id="edge17" class="edge">
<title>f.1&#45;&gt;c.2</title>
<path fill="none" stroke="black" d="M115,-755.58C115,-722.81 115,-666.53 115,-629.62"/>
<polygon fill="black" stroke="black" points="118.5,-629.3 115,-619.3 111.5,-629.3 118.5,-629.3"/>
</g>
<!-- c.1 -->
<g id="node5" class="node">
<title>c.1</title>
<ellipse fill="none" stroke="black" cx="43" cy="-962.27" rx="27" ry="26.74"/>
<text text-anchor="middle" x="43" y="-966.07" font-family="sans" font-size="14.00">c</text>
<text text-anchor="middle" x="43" y="-951.07" font-family="sans" font-size="14.00">1</text>
</g>
<!-- c.1&#45;&gt;b.1 -->
<g id="edge4" class="edge">
<title>c.1&#45;&gt;b.1</title>
<path fill="none" stroke="black" d="M53.03,-936.83C56.77,-927.7 61.09,-917.17 65.12,-907.35"/>
<polygon fill="black" stroke="black" points="68.47,-908.42 69.03,-897.84 61.99,-905.76 68.47,-908.42"/>
</g>
<!-- a.2 -->
<g id="node7" class="node">
<title>a.2</title>
<ellipse fill="none" stroke="black" cx="43" cy="-592.31" rx="27" ry="26.74"/>
<text text-anchor="middle" x="43" y="-596.11" font-family="sans" font-size="14.00">a</text>
<text text-anchor="middle" x="43" y="-581.11" font-family="sans" font-size="14.00">2</text>
</g>
<!-- e.1&#45;&gt;a.2 -->
<g id="edge14" class="edge">
<title>e.1&#45;&gt;a.2</title>
<path fill="none" stroke="black" d="M43,-666.11C43,-654.97 43,-641.76 43,-629.68"/>
<polygon fill="black" stroke="black" points="46.5,-629.42 43,-619.42 39.5,-629.42 46.5,-629.42"/>
</g>
<!-- b.2 -->
<g id="node8" class="node">
<title>b.2</title>
<ellipse fill="none" stroke="black" cx="43" cy="-502.57" rx="27" ry="26.74"/>
<text text-anchor="middle" x="43" y="-506.37" font-family="sans" font-size="14.00">b</text>
<text text-anchor="middle" x="43" y="-491.37" font-family="sans" font-size="14.00">2</text>
</g>
<!-- a.2&#45;&gt;b.2 -->
<g id="edge5" class="edge">
<title>a.2&#45;&gt;b.2</title>
<path fill="none" stroke="black" d="M43,-564.99C43,-557.02 43,-548.13 43,-539.64"/>
<polygon fill="black" stroke="black" points="46.5,-539.57 43,-529.57 39.5,-539.57 46.5,-539.57"/>
</g>
<!-- d.2 -->
<g id="node9" class="node">
<title>d.2</title>
<ellipse fill="none" stroke="black" cx="43" cy="-412.83" rx="27" ry="26.74"/>
<text text-anchor="middle" x="43" y="-416.63" font-family="sans" font-size="14.00">d</text>
<text text-anchor="middle" x="43" y="-401.63" font-family="sans" font-size="14.00">2</text>
</g>
<!-- b.2&#45;&gt;d.2 -->
<g id="edge7" class="edge">
<title>b.2&#45;&gt;d.2</title>
<path fill="none" stroke="black" d="M43,-475.25C43,-467.28 43,-458.39 43,-449.9"/>
<polygon fill="black" stroke="black" points="46.5,-449.83 43,-439.83 39.5,-449.83 46.5,-449.83"/>
</g>
<!-- f.2 -->
<g id="node10" class="node">
<title>f.2</title>
<ellipse fill="none" stroke="black" cx="115" cy="-412.83" rx="27" ry="26.74"/>
<text text-anchor="middle" x="115" y="-416.63" font-family="sans" font-size="14.00">f</text>
<text text-anchor="middle" x="115" y="-401.63" font-family="sans" font-size="14.00">2</text>
</g>
<!-- b.2&#45;&gt;f.2 -->
<g id="edge6" class="edge">
<title>b.2&#45;&gt;f.2</title>
<path fill="none" stroke="black" d="M59.7,-481.22C69.24,-469.59 81.35,-454.84 91.8,-442.1"/>
<polygon fill="black" stroke="black" points="94.75,-444.02 98.39,-434.07 89.34,-439.58 94.75,-444.02"/>
</g>
<!-- a.3 -->
<g id="node12" class="node">
<title>a.3</title>
<ellipse fill="none" stroke="black" cx="43" cy="-312.09" rx="27" ry="26.74"/>
<text text-anchor="middle" x="43" y="-315.89" font-family="sans" font-size="14.00">a</text>
<text text-anchor="middle" x="43" y="-300.89" font-family="sans" font-size="14.00">3</text>
</g>
<!-- d.2&#45;&gt;a.3 -->
<g id="edge16" class="edge">
<title>d.2&#45;&gt;a.3</title>
<path fill="none" stroke="black" d="M43,-385.89C43,-374.75 43,-361.54 43,-349.46"/>
<polygon fill="black" stroke="black" points="46.5,-349.2 43,-339.2 39.5,-349.2 46.5,-349.2"/>
</g>
<!-- c.3 -->
<g id="node16" class="node">
<title>c.3</title>
<ellipse fill="none" stroke="black" cx="115" cy="-312.09" rx="27" ry="26.74"/>
<text text-anchor="middle" x="115" y="-315.89" font-family="sans" font-size="14.00">c</text>
<text text-anchor="middle" x="115" y="-300.89" font-family="sans" font-size="14.00">3</text>
</g>
<!-- f.2&#45;&gt;c.3 -->
<g id="edge18" class="edge">
<title>f.2&#45;&gt;c.3</title>
<path fill="none" stroke="black" d="M115,-385.89C115,-374.75 115,-361.54 115,-349.46"/>
<polygon fill="black" stroke="black" points="118.5,-349.2 115,-339.2 111.5,-349.2 118.5,-349.2"/>
</g>
<!-- c.2&#45;&gt;b.2 -->
<g id="edge8" class="edge">
<title>c.2&#45;&gt;b.2</title>
<path fill="none" stroke="black" d="M98.3,-570.96C88.76,-559.33 76.65,-544.58 66.2,-531.84"/>
<polygon fill="black" stroke="black" points="68.66,-529.32 59.61,-523.81 63.25,-533.76 68.66,-529.32"/>
</g>
<!-- b.3 -->
<g id="node13" class="node">
<title>b.3</title>
<ellipse fill="none" stroke="black" cx="79" cy="-222.35" rx="27" ry="26.74"/>
<text text-anchor="middle" x="79" y="-226.15" font-family="sans" font-size="14.00">b</text>
<text text-anchor="middle" x="79" y="-211.15" font-family="sans" font-size="14.00">3</text>
</g>
<!-- a.3&#45;&gt;b.3 -->
<g id="edge9" class="edge">
<title>a.3&#45;&gt;b.3</title>
<path fill="none" stroke="black" d="M53.03,-286.65C56.77,-277.52 61.09,-266.99 65.12,-257.17"/>
<polygon fill="black" stroke="black" points="68.47,-258.24 69.03,-247.66 61.99,-255.58 68.47,-258.24"/>
</g>
<!-- d.3 -->
<g id="node14" class="node">
<title>d.3</title>
<ellipse fill="none" stroke="black" cx="43" cy="-132.61" rx="27" ry="26.74"/>
<text text-anchor="middle" x="43" y="-136.41" font-family="sans" font-size="14.00">d</text>
<text text-anchor="middle" x="43" y="-121.41" font-family="sans" font-size="14.00">3</text>
</g>
<!-- b.3&#45;&gt;d.3 -->
<g id="edge11" class="edge">
<title>b.3&#45;&gt;d.3</title>
<path fill="none" stroke="black" d="M68.97,-196.91C65.23,-187.78 60.91,-177.25 56.88,-167.43"/>
<polygon fill="black" stroke="black" points="60.01,-165.84 52.97,-157.92 53.53,-168.5 60.01,-165.84"/>
</g>
<!-- f.3 -->
<g id="node15" class="node">
<title>f.3</title>
<ellipse fill="none" stroke="black" cx="115" cy="-132.61" rx="27" ry="26.74"/>
<text text-anchor="middle" x="115" y="-136.41" font-family="sans" font-size="14.00">f</text>
<text text-anchor="middle" x="115" y="-121.41" font-family="sans" font-size="14.00">3</text>
</g>
<!-- b.3&#45;&gt;f.3 -->
<g id="edge10" class="edge">
<title>b.3&#45;&gt;f.3</title>
<path fill="none" stroke="black" d="M89.03,-196.91C92.77,-187.78 97.09,-177.25 101.12,-167.43"/>
<polygon fill="black" stroke="black" points="104.47,-168.5 105.03,-157.92 97.99,-165.84 104.47,-168.5"/>
</g>
<!-- e.3 -->
<g id="node17" class="node">
<title>e.3</title>
<ellipse fill="none" stroke="black" cx="43" cy="-42.87" rx="27" ry="26.74"/>
<text text-anchor="middle" x="43" y="-46.67" font-family="sans" font-size="14.00">e</text>
<text text-anchor="middle" x="43" y="-31.67" font-family="sans" font-size="14.00">3</text>
</g>
<!-- d.3&#45;&gt;e.3 -->
<g id="edge15" class="edge">
<title>d.3&#45;&gt;e.3</title>
<path fill="none" stroke="black" d="M43,-105.29C43,-97.32 43,-88.43 43,-79.94"/>
<polygon fill="black" stroke="black" points="46.5,-79.87 43,-69.87 39.5,-79.87 46.5,-79.87"/>
</g>
<!-- c.3&#45;&gt;b.3 -->
<g id="edge12" class="edge">
<title>c.3&#45;&gt;b.3</title>
<path fill="none" stroke="black" d="M104.97,-286.65C101.23,-277.52 96.91,-266.99 92.88,-257.17"/>
<polygon fill="black" stroke="black" points="96.01,-255.58 88.97,-247.66 89.53,-258.24 96.01,-255.58"/>
</g>
</g>
</svg>
