<?xml version="1.0" encoding="UTF-8" standalone="no"?>
<!DOCTYPE svg PUBLIC "-//W3C//DTD SVG 1.1//EN"
 "http://www.w3.org/Graphics/SVG/1.1/DTD/svg11.dtd">
<!-- Generated by graphviz version 2.40.1 (20161225.0304)
 -->
<!-- Title: Example Pages: 1 -->
<svg width="504pt" height="221pt"
 viewBox="0.00 0.00 504.00 220.61" xmlns="http://www.w3.org/2000/svg" xmlns:xlink="http://www.w3.org/1999/xlink">
<g id="graph0" class="graph" transform="scale(.8485 .8485) rotate(0) translate(4 256)">
<title>Example</title>
<polygon fill="transparent" stroke="transparent" points="-4,4 -4,-256 590,-256 590,4 -4,4"/>
<!-- VEHICLE -->
<g id="node1" class="node">
<title>VEHICLE</title>
<polygon fill="#b0e0e6" stroke="#4169e1" points="228,-252 151,-252 151,-216 228,-216 228,-252"/>
<text text-anchor="middle" x="189.5" y="-230.3" font-family="sans" font-size="14.00" fill="#000000">VEHICLE</text>
</g>
<!-- AIR_VEHICLE -->
<g id="node2" class="node">
<title>AIR_VEHICLE</title>
<polygon fill="#b0e0e6" stroke="#4169e1" points="109,-180 0,-180 0,-144 109,-144 109,-180"/>
<text text-anchor="middle" x="54.5" y="-158.3" font-family="sans" font-size="14.00" fill="#000000">AIR_VEHICLE</text>
</g>
<!-- VEHICLE&#45;&gt;AIR_VEHICLE -->
<g id="edge1" class="edge">
<title>VEHICLE&#45;&gt;AIR_VEHICLE</title>
<path fill="none" stroke="#000000" d="M155.4338,-215.8314C137.8467,-206.4516 116.2084,-194.9112 97.4832,-184.9244"/>
<polygon fill="#000000" stroke="#000000" points="99.0259,-181.7805 88.5553,-180.1628 95.7318,-187.957 99.0259,-181.7805"/>
</g>
<!-- LAND_VEHICLE -->
<g id="node3" class="node">
<title>LAND_VEHICLE</title>
<polygon fill="#b0e0e6" stroke="#4169e1" points="252,-180 127,-180 127,-144 252,-144 252,-180"/>
<text text-anchor="middle" x="189.5" y="-158.3" font-family="sans" font-size="14.00" fill="#000000">LAND_VEHICLE</text>
</g>
<!-- VEHICLE&#45;&gt;LAND_VEHICLE -->
<g id="edge3" class="edge">
<title>VEHICLE&#45;&gt;LAND_VEHICLE</title>
<path fill="none" stroke="#000000" d="M189.5,-215.8314C189.5,-208.131 189.5,-198.9743 189.5,-190.4166"/>
<polygon fill="#000000" stroke="#000000" points="193.0001,-190.4132 189.5,-180.4133 186.0001,-190.4133 193.0001,-190.4132"/>
</g>
<!-- WATER_VEHICLE -->
<g id="node4" class="node">
<title>WATER_VEHICLE</title>
<polygon fill="#b0e0e6" stroke="#4169e1" points="405,-180 270,-180 270,-144 405,-144 405,-180"/>
<text text-anchor="middle" x="337.5" y="-158.3" font-family="sans" font-size="14.00" fill="#000000">WATER_VEHICLE</text>
</g>
<!-- VEHICLE&#45;&gt;WATER_VEHICLE -->
<g id="edge5" class="edge">
<title>VEHICLE&#45;&gt;WATER_VEHICLE</title>
<path fill="none" stroke="#000000" d="M226.8466,-215.8314C246.3769,-206.3302 270.4641,-194.6121 291.1731,-184.5374"/>
<polygon fill="#000000" stroke="#000000" points="292.9607,-187.56 300.4219,-180.038 289.8984,-181.2654 292.9607,-187.56"/>
</g>
<!-- HOVERCRAFT -->
<g id="node5" class="node">
<title>HOVERCRAFT</title>
<polygon fill="#b0e0e6" stroke="#4169e1" points="271.5,-108 159.5,-108 159.5,-72 271.5,-72 271.5,-108"/>
<text text-anchor="middle" x="215.5" y="-86.3" font-family="sans" font-size="14.00" fill="#000000">HOVERCRAFT</text>
</g>
<!-- AIR_VEHICLE&#45;&gt;HOVERCRAFT -->
<g id="edge2" class="edge">
<title>AIR_VEHICLE&#45;&gt;HOVERCRAFT</title>
<path fill="none" stroke="#000000" d="M95.1271,-143.8314C116.6599,-134.2018 143.2849,-122.295 166.0152,-112.1299"/>
<polygon fill="#000000" stroke="#000000" points="167.4652,-115.3155 175.165,-108.038 164.6074,-108.9254 167.4652,-115.3155"/>
</g>
<!-- LAND_VEHICLE&#45;&gt;HOVERCRAFT -->
<g id="edge4" class="edge">
<title>LAND_VEHICLE&#45;&gt;HOVERCRAFT</title>
<path fill="none" stroke="#000000" d="M196.0609,-143.8314C198.9027,-135.9617 202.2937,-126.5712 205.4419,-117.8533"/>
<polygon fill="#000000" stroke="#000000" points="208.7462,-119.0076 208.8508,-108.4133 202.1623,-116.63 208.7462,-119.0076"/>
</g>
<!-- WATER_VEHICLE&#45;&gt;HOVERCRAFT -->
<g id="edge6" class="edge">
<title>WATER_VEHICLE&#45;&gt;HOVERCRAFT</title>
<path fill="none" stroke="#000000" d="M306.7142,-143.8314C291.1097,-134.6221 271.976,-123.3301 255.2697,-113.4706"/>
<polygon fill="#000000" stroke="#000000" points="256.6669,-110.2312 246.2759,-108.1628 253.1091,-116.2596 256.6669,-110.2312"/>
</g>
<!-- bht130 -->
<g id="node6" class="node">
<title>bht130</title>
<polygon fill="#b0e0e6" stroke="#4169e1" points="357,-36 290,-36 290,0 357,0 357,-36"/>
<text text-anchor="middle" x="323.5" y="-14.3" font-family="sans" font-size="14.00" fill="#000000">bht130</text>
</g>
<!-- HOVERCRAFT&#45;&gt;bht130 -->
<g id="edge7" class="edge">
<title>HOVERCRAFT&#45;&gt;bht130</title>
<path fill="none" stroke="#000000" d="M242.753,-71.8314C256.4389,-62.7074 273.1915,-51.539 287.8827,-41.7449"/>
<polygon fill="#000000" stroke="#000000" points="289.8767,-44.6221 296.2558,-36.1628 285.9938,-38.7977 289.8767,-44.6221"/>
</g>
<!-- ENGINE -->
<g id="node7" class="node">
<title>ENGINE</title>
<polygon fill="#b0e0e6" stroke="#4169e1" points="494,-180 423,-180 423,-144 494,-144 494,-180"/>
<text text-anchor="middle" x="458.5" y="-158.3" font-family="sans" font-size="14.00" fill="#000000">ENGINE</text>
</g>
<!-- INTERNAL_COMBUSTION_ENGINE -->
<g id="node8" class="node">
<title>INTERNAL_COMBUSTION_ENGINE</title>
<polygon fill="#b0e0e6" stroke="#4169e1" points="586,-108 303,-108 303,-72 586,-72 586,-108"/>
<text text-anchor="middle" x="444.5" y="-86.3" font-family="sans" font-size="14.00" fill="#000000">INTERNAL_COMBUSTION_ENGINE</text>
</g>
<!-- ENGINE&#45;&gt;INTERNAL_COMBUSTION_ENGINE -->
<g id="edge8" class="edge">
<title>ENGINE&#45;&gt;INTERNAL_COMBUSTION_ENGINE</title>
<path fill="none" stroke="#000000" d="M454.9672,-143.8314C453.4699,-136.131 451.6895,-126.9743 450.0255,-118.4166"/>
<polygon fill="#000000" stroke="#000000" points="453.4248,-117.5614 448.0804,-108.4133 446.5535,-118.8975 453.4248,-117.5614"/>
</g>
<!-- INTERNAL_COMBUSTION_ENGINE&#45;&gt;bht130 -->
<g id="edge9" class="edge">
<title>INTERNAL_COMBUSTION_ENGINE&#45;&gt;bht130</title>
<path fill="none" stroke="#000000" d="M413.9666,-71.8314C398.4899,-62.6221 379.5131,-51.3301 362.9437,-41.4706"/>
<polygon fill="#000000" stroke="#000000" points="364.4071,-38.2687 354.0236,-36.1628 360.8276,-44.2843 364.4071,-38.2687"/>
</g>
</g>
</svg>
