<?xml version="1.0" encoding="UTF-8" standalone="no"?>
<!DOCTYPE svg PUBLIC "-//W3C//DTD SVG 1.1//EN"
 "http://www.w3.org/Graphics/SVG/1.1/DTD/svg11.dtd">
<!-- Generated by graphviz version 2.43.0 (0)
 -->
<!-- Title: Example Pages: 1 -->
<svg width="165pt" height="216pt"
 viewBox="0.00 0.00 165.46 216.00" xmlns="http://www.w3.org/2000/svg" xmlns:xlink="http://www.w3.org/1999/xlink">
<g id="graph0" class="graph" transform="scale(1.12 1.12) rotate(0) translate(4 237.22)">
<title>Example</title>
<polygon fill="transparent" stroke="transparent" points="-4,4 -4,-237.22 180.78,-237.22 180.78,4 -4,4"/>
<!-- foo.1 -->
<g id="node1" class="node">
<title>foo.1</title>
<ellipse fill="none" stroke="black" cx="88.39" cy="-206.35" rx="88.28" ry="26.74"/>
<text text-anchor="middle" x="88.39" y="-210.15" font-family="sans" font-size="14.00">foo</text>
<text text-anchor="middle" x="88.39" y="-195.15" font-family="sans" font-size="14.00">2000&#45;01&#45;01T12</text>
</g>
<!-- foo.2 -->
<g id="node2" class="node">
<title>foo.2</title>
<ellipse fill="none" stroke="black" cx="88.39" cy="-116.61" rx="88.28" ry="26.74"/>
<text text-anchor="middle" x="88.39" y="-120.41" font-family="sans" font-size="14.00">foo</text>
<text text-anchor="middle" x="88.39" y="-105.41" font-family="sans" font-size="14.00">2000&#45;01&#45;02T12</text>
</g>
<!-- foo.1&#45;&gt;foo.2 -->
<g id="edge1" class="edge">
<title>foo.1&#45;&gt;foo.2</title>
<path fill="none" stroke="black" d="M88.39,-179.03C88.39,-171.06 88.39,-162.17 88.39,-153.68"/>
<polygon fill="black" stroke="black" points="91.89,-153.61 88.39,-143.61 84.89,-153.61 91.89,-153.61"/>
</g>
<!-- foo.3 -->
<g id="node3" class="node">
<title>foo.3</title>
<ellipse fill="none" stroke="black" cx="88.39" cy="-26.87" rx="88.28" ry="26.74"/>
<text text-anchor="middle" x="88.39" y="-30.67" font-family="sans" font-size="14.00">foo</text>
<text text-anchor="middle" x="88.39" y="-15.67" font-family="sans" font-size="14.00">2000&#45;01&#45;03T12</text>
</g>
<!-- foo.2&#45;&gt;foo.3 -->
<g id="edge2" class="edge">
<title>foo.2&#45;&gt;foo.3</title>
<path fill="none" stroke="black" d="M88.39,-89.29C88.39,-81.32 88.39,-72.43 88.39,-63.94"/>
<polygon fill="black" stroke="black" points="91.89,-63.87 88.39,-53.87 84.89,-63.87 91.89,-63.87"/>
</g>
</g>
</svg>
