<?xml version="1.0" encoding="UTF-8" standalone="no"?>
<!DOCTYPE svg PUBLIC "-//W3C//DTD SVG 1.1//EN"
 "http://www.w3.org/Graphics/SVG/1.1/DTD/svg11.dtd">
<!-- Generated by graphviz version 2.43.0 (0)
 -->
<!-- Title: %3 Pages: 1 -->
<svg width="462pt" height="2574pt"
 viewBox="0.00 0.00 462.00 2573.50" xmlns="http://www.w3.org/2000/svg" xmlns:xlink="http://www.w3.org/1999/xlink">
<g id="graph0" class="graph" transform="scale(1 1) rotate(0) translate(4 2569.5)">
<title>%3</title>
<polygon fill="transparent" stroke="transparent" points="-4,4 -4,-2569.5 458,-2569.5 458,4 -4,4"/>
<!-- absolute_outputs -->
<g id="node1" class="node">
<title>absolute_outputs</title>
<polygon fill="none" stroke="black" points="266.5,-78.5 266.5,-106.5 432.5,-106.5 432.5,-78.5 266.5,-78.5"/>
<text text-anchor="start" x="271.5" y="-89.7" font-family="Helvetica,sans-Serif" font-weight="bold" font-size="16.00">absolute_outputs</text>
<polygon fill="none" stroke="black" points="266.5,-53.5 266.5,-78.5 432.5,-78.5 432.5,-53.5 266.5,-53.5"/>
<text text-anchor="start" x="271.5" y="-62.3" font-family="Helvetica,sans-Serif" font-size="14.00">cycle</text>
<polygon fill="none" stroke="black" points="266.5,-28.5 266.5,-53.5 432.5,-53.5 432.5,-28.5 266.5,-28.5"/>
<text text-anchor="start" x="271.5" y="-37.3" font-family="Helvetica,sans-Serif" font-size="14.00">name</text>
<polygon fill="none" stroke="black" points="266.5,-3.5 266.5,-28.5 432.5,-28.5 432.5,-3.5 266.5,-3.5"/>
<text text-anchor="start" x="271.5" y="-12.3" font-family="Helvetica,sans-Serif" font-size="14.00">output</text>
</g>
<!-- broadcast_events -->
<g id="node2" class="node">
<title>broadcast_events</title>
<polygon fill="none" stroke="black" points="265.5,-283.5 265.5,-311.5 434.5,-311.5 434.5,-283.5 265.5,-283.5"/>
<text text-anchor="start" x="270.5" y="-294.7" font-family="Helvetica,sans-Serif" font-weight="bold" font-size="16.00">broadcast_events</text>
<polygon fill="none" stroke="black" points="265.5,-258.5 265.5,-283.5 434.5,-283.5 434.5,-258.5 265.5,-258.5"/>
<text text-anchor="start" x="270.5" y="-267.3" font-family="Helvetica,sans-Serif" font-size="14.00">time</text>
<polygon fill="none" stroke="black" points="265.5,-233.5 265.5,-258.5 434.5,-258.5 434.5,-233.5 265.5,-233.5"/>
<text text-anchor="start" x="270.5" y="-242.3" font-family="Helvetica,sans-Serif" font-size="14.00">change</text>
<polygon fill="none" stroke="black" points="265.5,-208.5 265.5,-233.5 434.5,-233.5 434.5,-208.5 265.5,-208.5"/>
<text text-anchor="start" x="270.5" y="-217.3" font-family="Helvetica,sans-Serif" font-size="14.00">point</text>
<polygon fill="none" stroke="black" points="265.5,-183.5 265.5,-208.5 434.5,-208.5 434.5,-183.5 265.5,-183.5"/>
<text text-anchor="start" x="270.5" y="-192.3" font-family="Helvetica,sans-Serif" font-size="14.00">namespace</text>
<polygon fill="none" stroke="black" points="265.5,-158.5 265.5,-183.5 434.5,-183.5 434.5,-158.5 265.5,-158.5"/>
<text text-anchor="start" x="270.5" y="-167.3" font-family="Helvetica,sans-Serif" font-size="14.00">key</text>
<polygon fill="none" stroke="black" points="265.5,-133.5 265.5,-158.5 434.5,-158.5 434.5,-133.5 265.5,-133.5"/>
<text text-anchor="start" x="270.5" y="-142.3" font-family="Helvetica,sans-Serif" font-size="14.00">value</text>
</g>
<!-- broadcast_states -->
<g id="node3" class="node">
<title>broadcast_states</title>
<polygon fill="none" stroke="black" points="267.5,-437.5 267.5,-465.5 431.5,-465.5 431.5,-437.5 267.5,-437.5"/>
<text text-anchor="start" x="272.5" y="-448.7" font-family="Helvetica,sans-Serif" font-weight="bold" font-size="16.00">broadcast_states</text>
<polygon fill="none" stroke="black" points="267.5,-412.5 267.5,-437.5 431.5,-437.5 431.5,-412.5 267.5,-412.5"/>
<text text-anchor="start" x="272.5" y="-422.3" font-family="Helvetica,sans-Serif" text-decoration="underline" font-size="14.00">point</text>
<polygon fill="none" stroke="black" points="267.5,-387.5 267.5,-412.5 431.5,-412.5 431.5,-387.5 267.5,-387.5"/>
<text text-anchor="start" x="272.5" y="-397.3" font-family="Helvetica,sans-Serif" text-decoration="underline" font-size="14.00">namespace</text>
<polygon fill="none" stroke="black" points="267.5,-362.5 267.5,-387.5 431.5,-387.5 431.5,-362.5 267.5,-362.5"/>
<text text-anchor="start" x="272.5" y="-372.3" font-family="Helvetica,sans-Serif" text-decoration="underline" font-size="14.00">key</text>
<polygon fill="none" stroke="black" points="267.5,-337.5 267.5,-362.5 431.5,-362.5 431.5,-337.5 267.5,-337.5"/>
<text text-anchor="start" x="272.5" y="-346.3" font-family="Helvetica,sans-Serif" font-size="14.00">value</text>
</g>
<!-- inheritance -->
<g id="node4" class="node">
<title>inheritance</title>
<polygon fill="none" stroke="black" points="293.5,-541.5 293.5,-569.5 405.5,-569.5 405.5,-541.5 293.5,-541.5"/>
<text text-anchor="start" x="298.5" y="-552.7" font-family="Helvetica,sans-Serif" font-weight="bold" font-size="16.00">inheritance</text>
<polygon fill="none" stroke="black" points="293.5,-516.5 293.5,-541.5 405.5,-541.5 405.5,-516.5 293.5,-516.5"/>
<text text-anchor="start" x="298.5" y="-526.3" font-family="Helvetica,sans-Serif" text-decoration="underline" font-size="14.00">namespace</text>
<polygon fill="none" stroke="black" points="293.5,-491.5 293.5,-516.5 405.5,-516.5 405.5,-491.5 293.5,-491.5"/>
<text text-anchor="start" x="298.5" y="-500.3" font-family="Helvetica,sans-Serif" font-size="14.00">inheritance</text>
</g>
<!-- suite_params -->
<g id="node5" class="node">
<title>suite_params</title>
<polygon fill="none" stroke="black" points="284.5,-645.5 284.5,-673.5 414.5,-673.5 414.5,-645.5 284.5,-645.5"/>
<text text-anchor="start" x="289.5" y="-656.7" font-family="Helvetica,sans-Serif" font-weight="bold" font-size="16.00">suite_params</text>
<polygon fill="none" stroke="black" points="284.5,-620.5 284.5,-645.5 414.5,-645.5 414.5,-620.5 284.5,-620.5"/>
<text text-anchor="start" x="289.5" y="-630.3" font-family="Helvetica,sans-Serif" text-decoration="underline" font-size="14.00">key</text>
<polygon fill="none" stroke="black" points="284.5,-595.5 284.5,-620.5 414.5,-620.5 414.5,-595.5 284.5,-595.5"/>
<text text-anchor="start" x="289.5" y="-604.3" font-family="Helvetica,sans-Serif" font-size="14.00">value</text>
</g>
<!-- suite_template_vars -->
<g id="node6" class="node">
<title>suite_template_vars</title>
<polygon fill="none" stroke="black" points="254.5,-749.5 254.5,-777.5 444.5,-777.5 444.5,-749.5 254.5,-749.5"/>
<text text-anchor="start" x="259.5" y="-760.7" font-family="Helvetica,sans-Serif" font-weight="bold" font-size="16.00">suite_template_vars</text>
<polygon fill="none" stroke="black" points="254.5,-724.5 254.5,-749.5 444.5,-749.5 444.5,-724.5 254.5,-724.5"/>
<text text-anchor="start" x="259.5" y="-734.3" font-family="Helvetica,sans-Serif" text-decoration="underline" font-size="14.00">key</text>
<polygon fill="none" stroke="black" points="254.5,-699.5 254.5,-724.5 444.5,-724.5 444.5,-699.5 254.5,-699.5"/>
<text text-anchor="start" x="259.5" y="-708.3" font-family="Helvetica,sans-Serif" font-size="14.00">value</text>
</g>
<!-- task_action_timers -->
<g id="node7" class="node">
<title>task_action_timers</title>
<polygon fill="none" stroke="black" points="260.5,-1391.5 260.5,-1419.5 439.5,-1419.5 439.5,-1391.5 260.5,-1391.5"/>
<text text-anchor="start" x="265.5" y="-1402.7" font-family="Helvetica,sans-Serif" font-weight="bold" font-size="16.00">task_action_timers</text>
<polygon fill="none" stroke="black" points="260.5,-1366.5 260.5,-1391.5 439.5,-1391.5 439.5,-1366.5 260.5,-1366.5"/>
<text text-anchor="start" x="265.5" y="-1376.3" font-family="Helvetica,sans-Serif" text-decoration="underline" font-size="14.00">cycle</text>
<polygon fill="none" stroke="black" points="260.5,-1341.5 260.5,-1366.5 439.5,-1366.5 439.5,-1341.5 260.5,-1341.5"/>
<text text-anchor="start" x="265.5" y="-1351.3" font-family="Helvetica,sans-Serif" text-decoration="underline" font-size="14.00">name</text>
<polygon fill="none" stroke="black" points="260.5,-1316.5 260.5,-1341.5 439.5,-1341.5 439.5,-1316.5 260.5,-1316.5"/>
<text text-anchor="start" x="265.5" y="-1326.3" font-family="Helvetica,sans-Serif" text-decoration="underline" font-size="14.00">ctx_key</text>
<polygon fill="none" stroke="black" points="260.5,-1291.5 260.5,-1316.5 439.5,-1316.5 439.5,-1291.5 260.5,-1291.5"/>
<text text-anchor="start" x="265.5" y="-1300.3" font-family="Helvetica,sans-Serif" font-size="14.00">ctx</text>
<polygon fill="none" stroke="black" points="260.5,-1266.5 260.5,-1291.5 439.5,-1291.5 439.5,-1266.5 260.5,-1266.5"/>
<text text-anchor="start" x="265.5" y="-1275.3" font-family="Helvetica,sans-Serif" font-size="14.00">delays</text>
<polygon fill="none" stroke="black" points="260.5,-1241.5 260.5,-1266.5 439.5,-1266.5 439.5,-1241.5 260.5,-1241.5"/>
<text text-anchor="start" x="265.5" y="-1250.3" font-family="Helvetica,sans-Serif" font-size="14.00">num</text>
<polygon fill="none" stroke="black" points="260.5,-1216.5 260.5,-1241.5 439.5,-1241.5 439.5,-1216.5 260.5,-1216.5"/>
<text text-anchor="start" x="265.5" y="-1225.3" font-family="Helvetica,sans-Serif" font-size="14.00">delay</text>
<polygon fill="none" stroke="black" points="260.5,-1191.5 260.5,-1216.5 439.5,-1216.5 439.5,-1191.5 260.5,-1191.5"/>
<text text-anchor="start" x="265.5" y="-1200.3" font-family="Helvetica,sans-Serif" font-size="14.00">timeout</text>
</g>
<!-- task_events -->
<g id="node8" class="node">
<title>task_events</title>
<polygon fill="none" stroke="black" points="291.5,-2025.5 291.5,-2053.5 408.5,-2053.5 408.5,-2025.5 291.5,-2025.5"/>
<text text-anchor="start" x="296.5" y="-2036.7" font-family="Helvetica,sans-Serif" font-weight="bold" font-size="16.00">task_events</text>
<polygon fill="none" stroke="black" points="291.5,-2000.5 291.5,-2025.5 408.5,-2025.5 408.5,-2000.5 291.5,-2000.5"/>
<text text-anchor="start" x="296.5" y="-2009.3" font-family="Helvetica,sans-Serif" font-size="14.00">name</text>
<polygon fill="none" stroke="black" points="291.5,-1975.5 291.5,-2000.5 408.5,-2000.5 408.5,-1975.5 291.5,-1975.5"/>
<text text-anchor="start" x="296.5" y="-1984.3" font-family="Helvetica,sans-Serif" font-size="14.00">cycle</text>
<polygon fill="none" stroke="black" points="291.5,-1950.5 291.5,-1975.5 408.5,-1975.5 408.5,-1950.5 291.5,-1950.5"/>
<text text-anchor="start" x="296.5" y="-1959.3" font-family="Helvetica,sans-Serif" font-size="14.00">time</text>
<polygon fill="none" stroke="black" points="291.5,-1925.5 291.5,-1950.5 408.5,-1950.5 408.5,-1925.5 291.5,-1925.5"/>
<text text-anchor="start" x="296.5" y="-1934.3" font-family="Helvetica,sans-Serif" font-size="14.00">submit_num</text>
<polygon fill="none" stroke="black" points="291.5,-1900.5 291.5,-1925.5 408.5,-1925.5 408.5,-1900.5 291.5,-1900.5"/>
<text text-anchor="start" x="296.5" y="-1909.3" font-family="Helvetica,sans-Serif" font-size="14.00">event</text>
<polygon fill="none" stroke="black" points="291.5,-1875.5 291.5,-1900.5 408.5,-1900.5 408.5,-1875.5 291.5,-1875.5"/>
<text text-anchor="start" x="296.5" y="-1884.3" font-family="Helvetica,sans-Serif" font-size="14.00">message</text>
</g>
<!-- task_jobs -->
<g id="node9" class="node">
<title>task_jobs</title>
<polygon fill="none" stroke="black" points="282.5,-1820.5 282.5,-1848.5 417.5,-1848.5 417.5,-1820.5 282.5,-1820.5"/>
<text text-anchor="start" x="307.5" y="-1831.7" font-family="Helvetica,sans-Serif" font-weight="bold" font-size="16.00">task_jobs</text>
<polygon fill="none" stroke="black" points="282.5,-1795.5 282.5,-1820.5 417.5,-1820.5 417.5,-1795.5 282.5,-1795.5"/>
<text text-anchor="start" x="287.5" y="-1805.3" font-family="Helvetica,sans-Serif" text-decoration="underline" font-size="14.00">cycle</text>
<polygon fill="none" stroke="black" points="282.5,-1770.5 282.5,-1795.5 417.5,-1795.5 417.5,-1770.5 282.5,-1770.5"/>
<text text-anchor="start" x="287.5" y="-1780.3" font-family="Helvetica,sans-Serif" text-decoration="underline" font-size="14.00">name</text>
<polygon fill="none" stroke="black" points="282.5,-1745.5 282.5,-1770.5 417.5,-1770.5 417.5,-1745.5 282.5,-1745.5"/>
<text text-anchor="start" x="287.5" y="-1755.3" font-family="Helvetica,sans-Serif" text-decoration="underline" font-size="14.00">submit_num</text>
<polygon fill="none" stroke="black" points="282.5,-1720.5 282.5,-1745.5 417.5,-1745.5 417.5,-1720.5 282.5,-1720.5"/>
<text text-anchor="start" x="287.5" y="-1729.3" font-family="Helvetica,sans-Serif" font-size="14.00">is_manual_submit</text>
<polygon fill="none" stroke="black" points="282.5,-1695.5 282.5,-1720.5 417.5,-1720.5 417.5,-1695.5 282.5,-1695.5"/>
<text text-anchor="start" x="287.5" y="-1704.3" font-family="Helvetica,sans-Serif" font-size="14.00">try_num</text>
<polygon fill="none" stroke="black" points="282.5,-1670.5 282.5,-1695.5 417.5,-1695.5 417.5,-1670.5 282.5,-1670.5"/>
<text text-anchor="start" x="287.5" y="-1679.3" font-family="Helvetica,sans-Serif" font-size="14.00">time_submit</text>
<polygon fill="none" stroke="black" points="282.5,-1645.5 282.5,-1670.5 417.5,-1670.5 417.5,-1645.5 282.5,-1645.5"/>
<text text-anchor="start" x="287.5" y="-1654.3" font-family="Helvetica,sans-Serif" font-size="14.00">time_submit_exit</text>
<polygon fill="none" stroke="black" points="282.5,-1620.5 282.5,-1645.5 417.5,-1645.5 417.5,-1620.5 282.5,-1620.5"/>
<text text-anchor="start" x="287.5" y="-1629.3" font-family="Helvetica,sans-Serif" font-size="14.00">submit_status</text>
<polygon fill="none" stroke="black" points="282.5,-1595.5 282.5,-1620.5 417.5,-1620.5 417.5,-1595.5 282.5,-1595.5"/>
<text text-anchor="start" x="287.5" y="-1604.3" font-family="Helvetica,sans-Serif" font-size="14.00">time_run</text>
<polygon fill="none" stroke="black" points="282.5,-1570.5 282.5,-1595.5 417.5,-1595.5 417.5,-1570.5 282.5,-1570.5"/>
<text text-anchor="start" x="287.5" y="-1579.3" font-family="Helvetica,sans-Serif" font-size="14.00">time_run_exit</text>
<polygon fill="none" stroke="black" points="282.5,-1545.5 282.5,-1570.5 417.5,-1570.5 417.5,-1545.5 282.5,-1545.5"/>
<text text-anchor="start" x="287.5" y="-1554.3" font-family="Helvetica,sans-Serif" font-size="14.00">run_signal</text>
<polygon fill="none" stroke="black" points="282.5,-1520.5 282.5,-1545.5 417.5,-1545.5 417.5,-1520.5 282.5,-1520.5"/>
<text text-anchor="start" x="287.5" y="-1529.3" font-family="Helvetica,sans-Serif" font-size="14.00">run_status</text>
<polygon fill="none" stroke="black" points="282.5,-1495.5 282.5,-1520.5 417.5,-1520.5 417.5,-1495.5 282.5,-1495.5"/>
<text text-anchor="start" x="287.5" y="-1504.3" font-family="Helvetica,sans-Serif" font-size="14.00">platform_name</text>
<polygon fill="none" stroke="black" points="282.5,-1470.5 282.5,-1495.5 417.5,-1495.5 417.5,-1470.5 282.5,-1470.5"/>
<text text-anchor="start" x="287.5" y="-1479.3" font-family="Helvetica,sans-Serif" font-size="14.00">job_runner_name</text>
<polygon fill="none" stroke="black" points="282.5,-1445.5 282.5,-1470.5 417.5,-1470.5 417.5,-1445.5 282.5,-1445.5"/>
<text text-anchor="start" x="287.5" y="-1454.3" font-family="Helvetica,sans-Serif" font-size="14.00">job_id</text>
</g>
<!-- task_late_flags -->
<g id="node10" class="node">
<title>task_late_flags</title>
<polygon fill="none" stroke="black" points="278.5,-1136.5 278.5,-1164.5 421.5,-1164.5 421.5,-1136.5 278.5,-1136.5"/>
<text text-anchor="start" x="283.5" y="-1147.7" font-family="Helvetica,sans-Serif" font-weight="bold" font-size="16.00">task_late_flags</text>
<polygon fill="none" stroke="black" points="278.5,-1111.5 278.5,-1136.5 421.5,-1136.5 421.5,-1111.5 278.5,-1111.5"/>
<text text-anchor="start" x="283.5" y="-1121.3" font-family="Helvetica,sans-Serif" text-decoration="underline" font-size="14.00">cycle</text>
<polygon fill="none" stroke="black" points="278.5,-1086.5 278.5,-1111.5 421.5,-1111.5 421.5,-1086.5 278.5,-1086.5"/>
<text text-anchor="start" x="283.5" y="-1096.3" font-family="Helvetica,sans-Serif" text-decoration="underline" font-size="14.00">name</text>
<polygon fill="none" stroke="black" points="278.5,-1061.5 278.5,-1086.5 421.5,-1086.5 421.5,-1061.5 278.5,-1061.5"/>
<text text-anchor="start" x="283.5" y="-1070.3" font-family="Helvetica,sans-Serif" font-size="14.00">value</text>
</g>
<!-- task_outputs -->
<g id="node11" class="node">
<title>task_outputs</title>
<polygon fill="none" stroke="black" points="286.5,-1007.5 286.5,-1035.5 413.5,-1035.5 413.5,-1007.5 286.5,-1007.5"/>
<text text-anchor="start" x="291.5" y="-1018.7" font-family="Helvetica,sans-Serif" font-weight="bold" font-size="16.00">task_outputs</text>
<polygon fill="none" stroke="black" points="286.5,-982.5 286.5,-1007.5 413.5,-1007.5 413.5,-982.5 286.5,-982.5"/>
<text text-anchor="start" x="291.5" y="-992.3" font-family="Helvetica,sans-Serif" text-decoration="underline" font-size="14.00">cycle</text>
<polygon fill="none" stroke="black" points="286.5,-957.5 286.5,-982.5 413.5,-982.5 413.5,-957.5 286.5,-957.5"/>
<text text-anchor="start" x="291.5" y="-967.3" font-family="Helvetica,sans-Serif" text-decoration="underline" font-size="14.00">name</text>
<polygon fill="none" stroke="black" points="286.5,-932.5 286.5,-957.5 413.5,-957.5 413.5,-932.5 286.5,-932.5"/>
<text text-anchor="start" x="291.5" y="-941.3" font-family="Helvetica,sans-Serif" font-size="14.00">outputs</text>
</g>
<!-- task_pool -->
<g id="node12" class="node">
<title>task_pool</title>
<polygon fill="none" stroke="black" points="38,-1096.5 38,-1124.5 134,-1124.5 134,-1096.5 38,-1096.5"/>
<text text-anchor="start" x="43" y="-1107.7" font-family="Helvetica,sans-Serif" font-weight="bold" font-size="16.00">task_pool</text>
<polygon fill="none" stroke="black" points="38,-1071.5 38,-1096.5 134,-1096.5 134,-1071.5 38,-1071.5"/>
<text text-anchor="start" x="43" y="-1081.3" font-family="Helvetica,sans-Serif" text-decoration="underline" font-size="14.00">cycle</text>
<polygon fill="none" stroke="black" points="38,-1046.5 38,-1071.5 134,-1071.5 134,-1046.5 38,-1046.5"/>
<text text-anchor="start" x="43" y="-1056.3" font-family="Helvetica,sans-Serif" text-decoration="underline" font-size="14.00">name</text>
<polygon fill="none" stroke="black" points="38,-1021.5 38,-1046.5 134,-1046.5 134,-1021.5 38,-1021.5"/>
<text text-anchor="start" x="43" y="-1031.3" font-family="Helvetica,sans-Serif" text-decoration="underline" font-size="14.00">flow_label</text>
<polygon fill="none" stroke="black" points="38,-996.5 38,-1021.5 134,-1021.5 134,-996.5 38,-996.5"/>
<text text-anchor="start" x="43" y="-1005.3" font-family="Helvetica,sans-Serif" font-size="14.00">status</text>
<polygon fill="none" stroke="black" points="38,-971.5 38,-996.5 134,-996.5 134,-971.5 38,-971.5"/>
<text text-anchor="start" x="43" y="-980.3" font-family="Helvetica,sans-Serif" font-size="14.00">is_held</text>
</g>
<!-- task_pool&#45;&#45;task_action_timers -->
<g id="edge3" class="edge">
<title>task_pool&#45;&#45;task_action_timers</title>
<path fill="none" stroke="#7f7f7f" stroke-dasharray="5,2" d="M142.14,-1102.69C173.98,-1133.98 214.94,-1174.24 251.96,-1210.62"/>
<text text-anchor="start" x="210.96" y="-1199.42" font-family="Times,serif" font-size="14.00">{0,1}</text>
<text text-anchor="start" x="142.14" y="-1091.49" font-family="Times,serif" font-size="14.00">0..N</text>
</g>
<!-- task_pool&#45;&#45;task_late_flags -->
<g id="edge4" class="edge">
<title>task_pool&#45;&#45;task_late_flags</title>
<path fill="none" stroke="#7f7f7f" stroke-dasharray="5,2" d="M142.14,-1062.21C179.22,-1071.42 228.68,-1083.72 269.87,-1093.96"/>
<text text-anchor="start" x="228.87" y="-1082.76" font-family="Times,serif" font-size="14.00">{0,1}</text>
<text text-anchor="start" x="142.14" y="-1051.01" font-family="Times,serif" font-size="14.00">{0,1}</text>
</g>
<!-- task_pool&#45;&#45;task_outputs -->
<g id="edge5" class="edge">
<title>task_pool&#45;&#45;task_outputs</title>
<path fill="none" stroke="#7f7f7f" stroke-dasharray="5,2" d="M142.14,-1035.01C181.7,-1025.32 235.33,-1012.2 278,-1001.75"/>
<text text-anchor="start" x="237" y="-990.55" font-family="Times,serif" font-size="14.00">{0,1}</text>
<text text-anchor="start" x="142.14" y="-1023.81" font-family="Times,serif" font-size="14.00">0..N</text>
</g>
<!-- task_timeout_timers -->
<g id="node15" class="node">
<title>task_timeout_timers</title>
<polygon fill="none" stroke="black" points="253.5,-878.5 253.5,-906.5 446.5,-906.5 446.5,-878.5 253.5,-878.5"/>
<text text-anchor="start" x="258.5" y="-889.7" font-family="Helvetica,sans-Serif" font-weight="bold" font-size="16.00">task_timeout_timers</text>
<polygon fill="none" stroke="black" points="253.5,-853.5 253.5,-878.5 446.5,-878.5 446.5,-853.5 253.5,-853.5"/>
<text text-anchor="start" x="258.5" y="-863.3" font-family="Helvetica,sans-Serif" text-decoration="underline" font-size="14.00">cycle</text>
<polygon fill="none" stroke="black" points="253.5,-828.5 253.5,-853.5 446.5,-853.5 446.5,-828.5 253.5,-828.5"/>
<text text-anchor="start" x="258.5" y="-838.3" font-family="Helvetica,sans-Serif" text-decoration="underline" font-size="14.00">name</text>
<polygon fill="none" stroke="black" points="253.5,-803.5 253.5,-828.5 446.5,-828.5 446.5,-803.5 253.5,-803.5"/>
<text text-anchor="start" x="258.5" y="-812.3" font-family="Helvetica,sans-Serif" font-size="14.00">timeout</text>
</g>
<!-- task_pool&#45;&#45;task_timeout_timers -->
<g id="edge6" class="edge">
<title>task_pool&#45;&#45;task_timeout_timers</title>
<path fill="none" stroke="#7f7f7f" stroke-dasharray="5,2" d="M142.27,-1000.39C171.98,-975.3 209.68,-944.68 245,-919.5 248.96,-916.68 253.04,-913.85 257.19,-911.03"/>
<text text-anchor="start" x="216.19" y="-914.83" font-family="Times,serif" font-size="14.00">{0,1}</text>
<text text-anchor="start" x="142.27" y="-989.19" font-family="Times,serif" font-size="14.00">{0,1}</text>
</g>
<!-- task_prerequisites -->
<g id="node13" class="node">
<title>task_prerequisites</title>
<polygon fill="none" stroke="black" points="261.5,-2229.5 261.5,-2257.5 437.5,-2257.5 437.5,-2229.5 261.5,-2229.5"/>
<text text-anchor="start" x="266.5" y="-2240.7" font-family="Helvetica,sans-Serif" font-weight="bold" font-size="16.00">task_prerequisites</text>
<polygon fill="none" stroke="black" points="261.5,-2204.5 261.5,-2229.5 437.5,-2229.5 437.5,-2204.5 261.5,-2204.5"/>
<text text-anchor="start" x="266.5" y="-2214.3" font-family="Helvetica,sans-Serif" text-decoration="underline" font-size="14.00">cycle</text>
<polygon fill="none" stroke="black" points="261.5,-2179.5 261.5,-2204.5 437.5,-2204.5 437.5,-2179.5 261.5,-2179.5"/>
<text text-anchor="start" x="266.5" y="-2189.3" font-family="Helvetica,sans-Serif" text-decoration="underline" font-size="14.00">name</text>
<polygon fill="none" stroke="black" points="261.5,-2154.5 261.5,-2179.5 437.5,-2179.5 437.5,-2154.5 261.5,-2154.5"/>
<text text-anchor="start" x="266.5" y="-2164.3" font-family="Helvetica,sans-Serif" text-decoration="underline" font-size="14.00">prereq_name</text>
<polygon fill="none" stroke="black" points="261.5,-2129.5 261.5,-2154.5 437.5,-2154.5 437.5,-2129.5 261.5,-2129.5"/>
<text text-anchor="start" x="266.5" y="-2139.3" font-family="Helvetica,sans-Serif" text-decoration="underline" font-size="14.00">prereq_cycle</text>
<polygon fill="none" stroke="black" points="261.5,-2104.5 261.5,-2129.5 437.5,-2129.5 437.5,-2104.5 261.5,-2104.5"/>
<text text-anchor="start" x="266.5" y="-2114.3" font-family="Helvetica,sans-Serif" text-decoration="underline" font-size="14.00">prereq_output</text>
<polygon fill="none" stroke="black" points="261.5,-2079.5 261.5,-2104.5 437.5,-2104.5 437.5,-2079.5 261.5,-2079.5"/>
<text text-anchor="start" x="266.5" y="-2088.3" font-family="Helvetica,sans-Serif" font-size="14.00">satisfied</text>
</g>
<!-- task_states -->
<g id="node14" class="node">
<title>task_states</title>
<polygon fill="none" stroke="black" points="30,-1879.5 30,-1907.5 143,-1907.5 143,-1879.5 30,-1879.5"/>
<text text-anchor="start" x="35" y="-1890.7" font-family="Helvetica,sans-Serif" font-weight="bold" font-size="16.00">task_states</text>
<polygon fill="none" stroke="black" points="30,-1854.5 30,-1879.5 143,-1879.5 143,-1854.5 30,-1854.5"/>
<text text-anchor="start" x="35" y="-1864.3" font-family="Helvetica,sans-Serif" text-decoration="underline" font-size="14.00">name</text>
<polygon fill="none" stroke="black" points="30,-1829.5 30,-1854.5 143,-1854.5 143,-1829.5 30,-1829.5"/>
<text text-anchor="start" x="35" y="-1839.3" font-family="Helvetica,sans-Serif" text-decoration="underline" font-size="14.00">cycle</text>
<polygon fill="none" stroke="black" points="30,-1804.5 30,-1829.5 143,-1829.5 143,-1804.5 30,-1804.5"/>
<text text-anchor="start" x="35" y="-1814.3" font-family="Helvetica,sans-Serif" text-decoration="underline" font-size="14.00">flow_label</text>
<polygon fill="none" stroke="black" points="30,-1779.5 30,-1804.5 143,-1804.5 143,-1779.5 30,-1779.5"/>
<text text-anchor="start" x="35" y="-1788.3" font-family="Helvetica,sans-Serif" font-size="14.00">time_created</text>
<polygon fill="none" stroke="black" points="30,-1754.5 30,-1779.5 143,-1779.5 143,-1754.5 30,-1754.5"/>
<text text-anchor="start" x="35" y="-1763.3" font-family="Helvetica,sans-Serif" font-size="14.00">time_updated</text>
<polygon fill="none" stroke="black" points="30,-1729.5 30,-1754.5 143,-1754.5 143,-1729.5 30,-1729.5"/>
<text text-anchor="start" x="35" y="-1738.3" font-family="Helvetica,sans-Serif" font-size="14.00">submit_num</text>
<polygon fill="none" stroke="black" points="30,-1704.5 30,-1729.5 143,-1729.5 143,-1704.5 30,-1704.5"/>
<text text-anchor="start" x="35" y="-1713.3" font-family="Helvetica,sans-Serif" font-size="14.00">status</text>
</g>
<!-- task_states&#45;&#45;task_events -->
<g id="edge1" class="edge">
<title>task_states&#45;&#45;task_events</title>
<path fill="none" stroke="#7f7f7f" stroke-dasharray="5,2" d="M150.64,-1844.95C190.7,-1869.16 242.3,-1900.33 282.75,-1924.78"/>
<text text-anchor="start" x="241.75" y="-1913.58" font-family="Times,serif" font-size="14.00">{0,1}</text>
<text text-anchor="start" x="150.64" y="-1833.75" font-family="Times,serif" font-size="14.00">0..N</text>
</g>
<!-- task_states&#45;&#45;task_jobs -->
<g id="edge2" class="edge">
<title>task_states&#45;&#45;task_jobs</title>
<path fill="none" stroke="#7f7f7f" stroke-dasharray="5,2" d="M150.64,-1767.81C187.83,-1745.19 234.96,-1716.54 273.89,-1692.87"/>
<text text-anchor="start" x="232.89" y="-1681.67" font-family="Times,serif" font-size="14.00">{0,1}</text>
<text text-anchor="start" x="150.64" y="-1756.61" font-family="Times,serif" font-size="14.00">0..N</text>
</g>
<!-- xtriggers -->
<g id="node16" class="node">
<title>xtriggers</title>
<polygon fill="none" stroke="black" points="275.5,-2533.5 275.5,-2561.5 424.5,-2561.5 424.5,-2533.5 275.5,-2533.5"/>
<text text-anchor="start" x="308.5" y="-2544.7" font-family="Helvetica,sans-Serif" font-weight="bold" font-size="16.00">xtriggers</text>
<polygon fill="none" stroke="black" points="275.5,-2508.5 275.5,-2533.5 424.5,-2533.5 424.5,-2508.5 275.5,-2508.5"/>
<text text-anchor="start" x="280.5" y="-2518.3" font-family="Helvetica,sans-Serif" text-decoration="underline" font-size="14.00">signature</text>
<polygon fill="none" stroke="black" points="275.5,-2483.5 275.5,-2508.5 424.5,-2508.5 424.5,-2483.5 275.5,-2483.5"/>
<text text-anchor="start" x="280.5" y="-2492.3" font-family="Helvetica,sans-Serif" font-size="14.00">results</text>
<polygon fill="none" stroke="black" points="275.5,-2458.5 275.5,-2483.5 424.5,-2483.5 424.5,-2458.5 275.5,-2458.5"/>
<text text-anchor="start" x="280.5" y="-2467.3" font-family="Helvetica,sans-Serif" font-size="14.00">absolute_outputs</text>
<polygon fill="none" stroke="black" points="275.5,-2433.5 275.5,-2458.5 424.5,-2458.5 424.5,-2433.5 275.5,-2433.5"/>
<text text-anchor="start" x="280.5" y="-2442.3" font-family="Helvetica,sans-Serif" font-size="14.00">broadcast_events</text>
<polygon fill="none" stroke="black" points="275.5,-2408.5 275.5,-2433.5 424.5,-2433.5 424.5,-2408.5 275.5,-2408.5"/>
<text text-anchor="start" x="280.5" y="-2417.3" font-family="Helvetica,sans-Serif" font-size="14.00">broadcast_states</text>
<polygon fill="none" stroke="black" points="275.5,-2383.5 275.5,-2408.5 424.5,-2408.5 424.5,-2383.5 275.5,-2383.5"/>
<text text-anchor="start" x="280.5" y="-2392.3" font-family="Helvetica,sans-Serif" font-size="14.00">inheritance</text>
<polygon fill="none" stroke="black" points="275.5,-2358.5 275.5,-2383.5 424.5,-2383.5 424.5,-2358.5 275.5,-2358.5"/>
<text text-anchor="start" x="280.5" y="-2367.3" font-family="Helvetica,sans-Serif" font-size="14.00">suite_params</text>
<polygon fill="none" stroke="black" points="275.5,-2333.5 275.5,-2358.5 424.5,-2358.5 424.5,-2333.5 275.5,-2333.5"/>
<text text-anchor="start" x="280.5" y="-2342.3" font-family="Helvetica,sans-Serif" font-size="14.00">suite_template_vars</text>
<polygon fill="none" stroke="black" points="275.5,-2308.5 275.5,-2333.5 424.5,-2333.5 424.5,-2308.5 275.5,-2308.5"/>
<text text-anchor="start" x="280.5" y="-2317.3" font-family="Helvetica,sans-Serif" font-size="14.00">task_prerequisites</text>
<polygon fill="none" stroke="black" points="275.5,-2283.5 275.5,-2308.5 424.5,-2308.5 424.5,-2283.5 275.5,-2283.5"/>
<text text-anchor="start" x="280.5" y="-2292.3" font-family="Helvetica,sans-Serif" font-size="14.00">xtriggers</text>
</g>
<!-- task_pool_checkpoints -->
<g id="node17" class="node">
<title>task_pool_checkpoints</title>
<text text-anchor="middle" x="86" y="-526.8" font-family="sans" font-size="14.00">task_pool_checkpoints</text>
</g>
<!-- task_pool_checkpoints&#45;&#45;inheritance -->
</g>
</svg>
