<?xml version="1.0" encoding="UTF-8" standalone="no"?>
<!DOCTYPE svg PUBLIC "-//W3C//DTD SVG 1.1//EN"
 "http://www.w3.org/Graphics/SVG/1.1/DTD/svg11.dtd">
<!-- Generated by graphviz version 2.40.1 (20161225.0304)
 -->
<!-- Title: Mini_Cylc Pages: 1 -->
<svg width="342pt" height="260pt"
 viewBox="0.00 0.00 342.09 260.00" xmlns="http://www.w3.org/2000/svg" xmlns:xlink="http://www.w3.org/1999/xlink">
<g id="graph0" class="graph" transform="scale(1 1) rotate(0) translate(4 256)">
<title>Mini_Cylc</title>
<polygon fill="transparent" stroke="transparent" points="-4,4 -4,-256 338.0854,-256 338.0854,4 -4,4"/>
<!-- bake_bread -->
<g id="node1" class="node">
<title>bake_bread</title>
<ellipse fill="none" stroke="#000000" cx="163.9429" cy="-90" rx="65.7887" ry="18"/>
<text text-anchor="middle" x="163.9429" y="-86.3" font-family="sans" font-size="14.00" fill="#000000">bake_bread</text>
</g>
<!-- sell_bread -->
<g id="node3" class="node">
<title>sell_bread</title>
<ellipse fill="none" stroke="#000000" cx="93.9429" cy="-18" rx="58.4896" ry="18"/>
<text text-anchor="middle" x="93.9429" y="-14.3" font-family="sans" font-size="14.00" fill="#000000">sell_bread</text>
</g>
<!-- bake_bread&#45;&gt;sell_bread -->
<g id="edge5" class="edge">
<title>bake_bread&#45;&gt;sell_bread</title>
<path fill="none" stroke="#000000" d="M146.9979,-72.5708C138.2277,-63.55 127.3747,-52.387 117.7741,-42.5121"/>
<polygon fill="#000000" stroke="#000000" points="120.2122,-39.9989 110.7319,-35.2687 115.1932,-44.8784 120.2122,-39.9989"/>
</g>
<!-- clean_oven -->
<g id="node5" class="node">
<title>clean_oven</title>
<ellipse fill="none" stroke="#000000" cx="233.9429" cy="-18" rx="63.8893" ry="18"/>
<text text-anchor="middle" x="233.9429" y="-14.3" font-family="sans" font-size="14.00" fill="#000000">clean_oven</text>
</g>
<!-- bake_bread&#45;&gt;clean_oven -->
<g id="edge3" class="edge">
<title>bake_bread&#45;&gt;clean_oven</title>
<path fill="none" stroke="#000000" d="M180.888,-72.5708C189.5937,-63.6164 200.3516,-52.551 209.8997,-42.7302"/>
<polygon fill="#000000" stroke="#000000" points="212.45,-45.128 216.9113,-35.5182 207.431,-40.2484 212.45,-45.128"/>
</g>
<!-- pre_heat_oven -->
<g id="node2" class="node">
<title>pre_heat_oven</title>
<ellipse fill="none" stroke="#000000" cx="79.9429" cy="-162" rx="79.8859" ry="18"/>
<text text-anchor="middle" x="79.9429" y="-158.3" font-family="sans" font-size="14.00" fill="#000000">pre_heat_oven</text>
</g>
<!-- pre_heat_oven&#45;&gt;bake_bread -->
<g id="edge1" class="edge">
<title>pre_heat_oven&#45;&gt;bake_bread</title>
<path fill="none" stroke="#000000" d="M100.277,-144.5708C111.0076,-135.3732 124.3365,-123.9484 136.0214,-113.9328"/>
<polygon fill="#000000" stroke="#000000" points="138.4813,-116.434 143.7961,-107.2687 133.9257,-111.1192 138.4813,-116.434"/>
</g>
<!-- make_dough -->
<g id="node4" class="node">
<title>make_dough</title>
<ellipse fill="none" stroke="#000000" cx="248.9429" cy="-162" rx="70.6878" ry="18"/>
<text text-anchor="middle" x="248.9429" y="-158.3" font-family="sans" font-size="14.00" fill="#000000">make_dough</text>
</g>
<!-- make_dough&#45;&gt;bake_bread -->
<g id="edge2" class="edge">
<title>make_dough&#45;&gt;bake_bread</title>
<path fill="none" stroke="#000000" d="M228.3668,-144.5708C217.5084,-135.3732 204.0208,-123.9484 192.1969,-113.9328"/>
<polygon fill="#000000" stroke="#000000" points="194.2222,-111.0615 184.3295,-107.2687 189.6978,-116.4028 194.2222,-111.0615"/>
</g>
<!-- buy_ingredients -->
<g id="node6" class="node">
<title>buy_ingredients</title>
<ellipse fill="none" stroke="#000000" cx="248.9429" cy="-234" rx="85.2851" ry="18"/>
<text text-anchor="middle" x="248.9429" y="-230.3" font-family="sans" font-size="14.00" fill="#000000">buy_ingredients</text>
</g>
<!-- buy_ingredients&#45;&gt;make_dough -->
<g id="edge4" class="edge">
<title>buy_ingredients&#45;&gt;make_dough</title>
<path fill="none" stroke="#000000" d="M248.9429,-215.8314C248.9429,-208.131 248.9429,-198.9743 248.9429,-190.4166"/>
<polygon fill="#000000" stroke="#000000" points="252.443,-190.4132 248.9429,-180.4133 245.443,-190.4133 252.443,-190.4132"/>
</g>
</g>
</svg>
