<?xml version="1.0" encoding="UTF-8" standalone="no"?>
<!DOCTYPE svg PUBLIC "-//W3C//DTD SVG 1.1//EN"
 "http://www.w3.org/Graphics/SVG/1.1/DTD/svg11.dtd">
<!-- Generated by graphviz version 2.40.1 (20161225.0304)
 -->
<!-- Title: Mini_Cylc Pages: 1 -->
<svg width="329pt" height="116pt"
 viewBox="0.00 0.00 328.89 116.00" xmlns="http://www.w3.org/2000/svg" xmlns:xlink="http://www.w3.org/1999/xlink">
<g id="graph0" class="graph" transform="scale(1 1) rotate(0) translate(4 112)">
<title>Mini_Cylc</title>
<polygon fill="transparent" stroke="transparent" points="-4,4 -4,-112 324.8916,-112 324.8916,4 -4,4"/>
<!-- bar_m1 -->
<g id="node1" class="node">
<title>bar_m1</title>
<ellipse fill="none" stroke="#000000" cx="47.4458" cy="-90" rx="46.2923" ry="18"/>
<text text-anchor="middle" x="47.4458" y="-86.3" font-family="sans" font-size="14.00" fill="#000000">bar_m1</text>
</g>
<!-- baz_m1 -->
<g id="node2" class="node">
<title>baz_m1</title>
<ellipse fill="none" stroke="#000000" cx="47.4458" cy="-18" rx="47.3916" ry="18"/>
<text text-anchor="middle" x="47.4458" y="-14.3" font-family="sans" font-size="14.00" fill="#000000">baz_m1</text>
</g>
<!-- bar_m1&#45;&gt;baz_m1 -->
<g id="edge1" class="edge">
<title>bar_m1&#45;&gt;baz_m1</title>
<path fill="none" stroke="#000000" d="M47.4458,-71.8314C47.4458,-64.131 47.4458,-54.9743 47.4458,-46.4166"/>
<polygon fill="#000000" stroke="#000000" points="50.9459,-46.4132 47.4458,-36.4133 43.9459,-46.4133 50.9459,-46.4132"/>
</g>
<!-- bar_m3 -->
<g id="node3" class="node">
<title>bar_m3</title>
<ellipse fill="none" stroke="#000000" cx="160.4458" cy="-90" rx="46.2923" ry="18"/>
<text text-anchor="middle" x="160.4458" y="-86.3" font-family="sans" font-size="14.00" fill="#000000">bar_m3</text>
</g>
<!-- baz_m3 -->
<g id="node4" class="node">
<title>baz_m3</title>
<ellipse fill="none" stroke="#000000" cx="160.4458" cy="-18" rx="47.3916" ry="18"/>
<text text-anchor="middle" x="160.4458" y="-14.3" font-family="sans" font-size="14.00" fill="#000000">baz_m3</text>
</g>
<!-- bar_m3&#45;&gt;baz_m3 -->
<g id="edge2" class="edge">
<title>bar_m3&#45;&gt;baz_m3</title>
<path fill="none" stroke="#000000" d="M160.4458,-71.8314C160.4458,-64.131 160.4458,-54.9743 160.4458,-46.4166"/>
<polygon fill="#000000" stroke="#000000" points="163.9459,-46.4132 160.4458,-36.4133 156.9459,-46.4133 163.9459,-46.4132"/>
</g>
<!-- baz_m2 -->
<g id="node5" class="node">
<title>baz_m2</title>
<ellipse fill="none" stroke="#000000" cx="273.4458" cy="-18" rx="47.3916" ry="18"/>
<text text-anchor="middle" x="273.4458" y="-14.3" font-family="sans" font-size="14.00" fill="#000000">baz_m2</text>
</g>
<!-- bar_m2 -->
<g id="node6" class="node">
<title>bar_m2</title>
<ellipse fill="none" stroke="#000000" cx="273.4458" cy="-90" rx="46.2923" ry="18"/>
<text text-anchor="middle" x="273.4458" y="-86.3" font-family="sans" font-size="14.00" fill="#000000">bar_m2</text>
</g>
<!-- bar_m2&#45;&gt;baz_m2 -->
<g id="edge3" class="edge">
<title>bar_m2&#45;&gt;baz_m2</title>
<path fill="none" stroke="#000000" d="M273.4458,-71.8314C273.4458,-64.131 273.4458,-54.9743 273.4458,-46.4166"/>
<polygon fill="#000000" stroke="#000000" points="276.9459,-46.4132 273.4458,-36.4133 269.9459,-46.4133 276.9459,-46.4132"/>
</g>
</g>
</svg>
