<?xml version="1.0" encoding="UTF-8" standalone="no"?>
<!DOCTYPE svg PUBLIC "-//W3C//DTD SVG 1.1//EN"
 "http://www.w3.org/Graphics/SVG/1.1/DTD/svg11.dtd">
<!-- Generated by graphviz version 2.43.0 (0)
 -->
<!-- Title: Example Pages: 1 -->
<svg width="309pt" height="598pt"
 viewBox="0.00 0.00 309.00 598.44" xmlns="http://www.w3.org/2000/svg" xmlns:xlink="http://www.w3.org/1999/xlink">
<g id="graph0" class="graph" transform="scale(1 1) rotate(0) translate(4 594.44)">
<title>Example</title>
<polygon fill="transparent" stroke="transparent" points="-4,4 -4,-594.44 305,-594.44 305,4 -4,4"/>
<g id="clust1" class="cluster">
<title>cluster_1</title>
<polygon fill="transparent" stroke="black" stroke-dasharray="5,2" points="19,-299.22 19,-582.44 293,-582.44 293,-299.22 19,-299.22"/>
<text text-anchor="middle" x="156" y="-567.24" font-family="sans" font-size="14.00">1</text>
</g>
<g id="clust2" class="cluster">
<title>cluster_a</title>
<polygon fill="transparent" stroke="red" stroke-dasharray="5,2" points="161,-307.22 161,-399.96 285,-399.96 285,-307.22 161,-307.22"/>
<text text-anchor="middle" x="223" y="-384.76" font-family="sans" font-size="14.00" fill="red">:fail</text>
</g>
<g id="clust3" class="cluster">
<title>cluster_b</title>
<polygon fill="transparent" stroke="green" stroke-dasharray="5,2" points="27,-307.22 27,-399.96 153,-399.96 153,-307.22 27,-307.22"/>
<text text-anchor="middle" x="90" y="-384.76" font-family="sans" font-size="14.00" fill="green">:success</text>
</g>
<g id="clust4" class="cluster">
<title>cluster_2</title>
<polygon fill="transparent" stroke="black" stroke-dasharray="5,2" points="8,-8 8,-291.22 282,-291.22 282,-8 8,-8"/>
<text text-anchor="middle" x="145" y="-276.02" font-family="sans" font-size="14.00">2</text>
</g>
<g id="clust5" class="cluster">
<title>cluster_c</title>
<polygon fill="transparent" stroke="red" stroke-dasharray="5,2" points="150,-16 150,-108.74 274,-108.74 274,-16 150,-16"/>
<text text-anchor="middle" x="212" y="-93.54" font-family="sans" font-size="14.00" fill="red">:fail</text>
</g>
<g id="clust6" class="cluster">
<title>cluster_d</title>
<polygon fill="transparent" stroke="green" stroke-dasharray="5,2" points="16,-16 16,-108.74 142,-108.74 142,-16 16,-16"/>
<text text-anchor="middle" x="79" y="-93.54" font-family="sans" font-size="14.00" fill="green">:success</text>
</g>
<!-- make_cake_mixture.1 -->
<g id="node1" class="node">
<title>make_cake_mixture.1</title>
<ellipse fill="none" stroke="black" cx="156" cy="-524.57" rx="107.46" ry="26.74"/>
<text text-anchor="middle" x="156" y="-528.37" font-family="sans" font-size="14.00">make_cake_mixture</text>
<text text-anchor="middle" x="156" y="-513.37" font-family="sans" font-size="14.00">1</text>
</g>
<!-- bake_cake.1 -->
<g id="node2" class="node">
<title>bake_cake.1</title>
<ellipse fill="none" stroke="black" cx="156" cy="-434.83" rx="62.45" ry="26.74"/>
<text text-anchor="middle" x="156" y="-438.63" font-family="sans" font-size="14.00">bake_cake</text>
<text text-anchor="middle" x="156" y="-423.63" font-family="sans" font-size="14.00">1</text>
</g>
<!-- make_cake_mixture.1&#45;&gt;bake_cake.1 -->
<g id="edge1" class="edge">
<title>make_cake_mixture.1&#45;&gt;bake_cake.1</title>
<path fill="none" stroke="black" d="M156,-497.25C156,-489.28 156,-480.39 156,-471.9"/>
<polygon fill="black" stroke="black" points="159.5,-471.83 156,-461.83 152.5,-471.83 159.5,-471.83"/>
</g>
<!-- sell_cake.1 -->
<g id="node3" class="node">
<title>sell_cake.1</title>
<ellipse fill="none" stroke="green" cx="90" cy="-342.09" rx="55.31" ry="26.74"/>
<text text-anchor="middle" x="90" y="-345.89" font-family="sans" font-size="14.00" fill="green">sell_cake</text>
<text text-anchor="middle" x="90" y="-330.89" font-family="sans" font-size="14.00" fill="green">1</text>
</g>
<!-- bake_cake.1&#45;&gt;sell_cake.1 -->
<g id="edge2" class="edge">
<title>bake_cake.1&#45;&gt;sell_cake.1</title>
<path fill="none" stroke="black" stroke-dasharray="5,2" d="M137.97,-409.04C130.12,-398.24 120.84,-385.48 112.54,-374.08"/>
<ellipse fill="black" stroke="black" cx="110.14" cy="-370.78" rx="4" ry="4"/>
</g>
<!-- eat_cake.1 -->
<g id="node4" class="node">
<title>eat_cake.1</title>
<ellipse fill="none" stroke="red" cx="223" cy="-342.09" rx="54.39" ry="26.74"/>
<text text-anchor="middle" x="223" y="-345.89" font-family="sans" font-size="14.00" fill="red">eat_cake</text>
<text text-anchor="middle" x="223" y="-330.89" font-family="sans" font-size="14.00" fill="red">1</text>
</g>
<!-- bake_cake.1&#45;&gt;eat_cake.1 -->
<g id="edge3" class="edge">
<title>bake_cake.1&#45;&gt;eat_cake.1</title>
<path fill="none" stroke="black" stroke-dasharray="5,2" d="M180.01,-409.51C188.53,-398.99 197.87,-386.53 205.74,-375.26"/>
<ellipse fill="black" stroke="black" cx="208.16" cy="-371.72" rx="4" ry="4"/>
</g>
<!-- make_cake_mixture.2 -->
<g id="node5" class="node">
<title>make_cake_mixture.2</title>
<ellipse fill="none" stroke="black" cx="145" cy="-233.35" rx="107.46" ry="26.74"/>
<text text-anchor="middle" x="145" y="-237.15" font-family="sans" font-size="14.00">make_cake_mixture</text>
<text text-anchor="middle" x="145" y="-222.15" font-family="sans" font-size="14.00">2</text>
</g>
<!-- sell_cake.1&#45;&gt;make_cake_mixture.2 -->
<g id="edge10" class="edge">
<title>sell_cake.1&#45;&gt;make_cake_mixture.2</title>
<path fill="none" stroke="black" d="M103.03,-315.79C110.19,-301.91 119.17,-284.48 126.99,-269.31"/>
<polygon fill="none" stroke="black" points="130.21,-270.7 131.68,-260.21 123.99,-267.49 130.21,-270.7"/>
</g>
<!-- eat_cake.1&#45;&gt;bake_cake.1 -->
<g id="edge4" class="edge">
<title>eat_cake.1&#45;&gt;bake_cake.1</title>
<path fill="none" stroke="black" stroke-dasharray="5,2" d="M199.78,-366.43C191.11,-377.08 181.5,-389.87 173.42,-401.43"/>
<ellipse fill="black" stroke="black" cx="171.13" cy="-404.77" rx="4" ry="4"/>
</g>
<!-- eat_cake.1&#45;&gt;make_cake_mixture.2 -->
<g id="edge9" class="edge">
<title>eat_cake.1&#45;&gt;make_cake_mixture.2</title>
<path fill="none" stroke="black" d="M205.11,-316.6C194.63,-302.27 181.25,-283.96 169.77,-268.25"/>
<polygon fill="none" stroke="black" points="172.35,-265.85 163.63,-259.84 166.7,-269.98 172.35,-265.85"/>
</g>
<!-- bake_cake.2 -->
<g id="node6" class="node">
<title>bake_cake.2</title>
<ellipse fill="none" stroke="black" cx="145" cy="-143.61" rx="62.45" ry="26.74"/>
<text text-anchor="middle" x="145" y="-147.41" font-family="sans" font-size="14.00">bake_cake</text>
<text text-anchor="middle" x="145" y="-132.41" font-family="sans" font-size="14.00">2</text>
</g>
<!-- make_cake_mixture.2&#45;&gt;bake_cake.2 -->
<g id="edge5" class="edge">
<title>make_cake_mixture.2&#45;&gt;bake_cake.2</title>
<path fill="none" stroke="black" d="M145,-206.03C145,-198.06 145,-189.17 145,-180.68"/>
<polygon fill="black" stroke="black" points="148.5,-180.61 145,-170.61 141.5,-180.61 148.5,-180.61"/>
</g>
<!-- sell_cake.2 -->
<g id="node7" class="node">
<title>sell_cake.2</title>
<ellipse fill="none" stroke="green" cx="79" cy="-50.87" rx="55.31" ry="26.74"/>
<text text-anchor="middle" x="79" y="-54.67" font-family="sans" font-size="14.00" fill="green">sell_cake</text>
<text text-anchor="middle" x="79" y="-39.67" font-family="sans" font-size="14.00" fill="green">2</text>
</g>
<!-- bake_cake.2&#45;&gt;sell_cake.2 -->
<g id="edge6" class="edge">
<title>bake_cake.2&#45;&gt;sell_cake.2</title>
<path fill="none" stroke="black" stroke-dasharray="5,2" d="M126.97,-117.82C119.12,-107.02 109.84,-94.26 101.54,-82.86"/>
<ellipse fill="black" stroke="black" cx="99.14" cy="-79.56" rx="4" ry="4"/>
</g>
<!-- eat_cake.2 -->
<g id="node8" class="node">
<title>eat_cake.2</title>
<ellipse fill="none" stroke="red" cx="212" cy="-50.87" rx="54.39" ry="26.74"/>
<text text-anchor="middle" x="212" y="-54.67" font-family="sans" font-size="14.00" fill="red">eat_cake</text>
<text text-anchor="middle" x="212" y="-39.67" font-family="sans" font-size="14.00" fill="red">2</text>
</g>
<!-- bake_cake.2&#45;&gt;eat_cake.2 -->
<g id="edge7" class="edge">
<title>bake_cake.2&#45;&gt;eat_cake.2</title>
<path fill="none" stroke="black" stroke-dasharray="5,2" d="M169.01,-118.29C177.53,-107.77 186.87,-95.31 194.74,-84.04"/>
<ellipse fill="black" stroke="black" cx="197.16" cy="-80.5" rx="4" ry="4"/>
</g>
<!-- eat_cake.2&#45;&gt;bake_cake.2 -->
<g id="edge8" class="edge">
<title>eat_cake.2&#45;&gt;bake_cake.2</title>
<path fill="none" stroke="black" stroke-dasharray="5,2" d="M188.78,-75.21C180.11,-85.86 170.5,-98.65 162.42,-110.21"/>
<ellipse fill="black" stroke="black" cx="160.13" cy="-113.55" rx="4" ry="4"/>
</g>
</g>
</svg>
