<?xml version="1.0" encoding="UTF-8" standalone="no"?>
<!DOCTYPE svg PUBLIC "-//W3C//DTD SVG 1.1//EN"
 "http://www.w3.org/Graphics/SVG/1.1/DTD/svg11.dtd">
<!-- Generated by graphviz version 9.0.0 (20231125.0833)
 -->
<!-- Title: example Pages: 1 -->
<svg width="504pt" height="468pt"
 viewBox="0.00 0.00 504.00 467.90" xmlns="http://www.w3.org/2000/svg" xmlns:xlink="http://www.w3.org/1999/xlink">
<g id="graph0" class="graph" transform="scale(0.467532 0.467532) rotate(0) translate(4 996.79)">
<title>example</title>
<polygon fill="none" stroke="none" points="-4,4 -4,-996.79 1074,-996.79 1074,4 -4,4"/>
<g id="clust1" class="cluster">
<title>cluster_1</title>
<polygon fill="none" stroke="black" stroke-dasharray="5,2" points="8,-589.87 8,-984.79 354,-984.79 354,-589.87 8,-589.87"/>
<text text-anchor="middle" x="181" y="-967.49" font-family="sans" font-size="14.00">1</text>
</g>
<g id="clust2" class="cluster">
<title>cluster_2</title>
<polygon fill="none" stroke="black" stroke-dasharray="5,2" points="362,-296.31 362,-691.23 708,-691.23 708,-296.31 362,-296.31"/>
<text text-anchor="middle" x="535" y="-673.93" font-family="sans" font-size="14.00">2</text>
</g>
<g id="clust3" class="cluster">
<title>cluster_3</title>
<polygon fill="none" stroke="black" stroke-dasharray="5,2" points="716,-8 716,-397.67 1062,-397.67 1062,-8 716,-8"/>
<text text-anchor="middle" x="889" y="-380.37" font-family="sans" font-size="14.00">3</text>
</g>
<!-- 1/pur -->
<g id="node1" class="node">
<title>1/pur</title>
<ellipse fill="none" stroke="black" cx="256" cy="-921.49" rx="89.8" ry="30.05"/>
<text text-anchor="middle" x="256" y="-925.44" font-family="sans" font-size="14.00">buy_ingredients</text>
<text text-anchor="middle" x="256" y="-908.19" font-family="sans" font-size="14.00">1</text>
</g>
<!-- 1/mak -->
<g id="node2" class="node">
<title>1/mak</title>
<ellipse fill="none" stroke="black" cx="272" cy="-825.38" rx="73.89" ry="30.05"/>
<text text-anchor="middle" x="272" y="-829.33" font-family="sans" font-size="14.00">make_dough</text>
<text text-anchor="middle" x="272" y="-812.08" font-family="sans" font-size="14.00">1</text>
</g>
<!-- 1/pur&#45;&gt;1/mak -->
<g id="edge1" class="edge">
<title>1/pur&#45;&gt;1/mak</title>
<path fill="none" stroke="black" d="M260.97,-891.23C262.28,-883.53 263.72,-875.08 265.11,-866.9"/>
<polygon fill="black" stroke="black" points="268.55,-867.56 266.77,-857.12 261.65,-866.39 268.55,-867.56"/>
</g>
<!-- 1/bak -->
<g id="node3" class="node">
<title>1/bak</title>
<ellipse fill="none" stroke="black" cx="203" cy="-729.28" rx="67.53" ry="30.05"/>
<text text-anchor="middle" x="203" y="-733.23" font-family="sans" font-size="14.00">bake_bread</text>
<text text-anchor="middle" x="203" y="-715.98" font-family="sans" font-size="14.00">1</text>
</g>
<!-- 1/mak&#45;&gt;1/bak -->
<g id="edge2" class="edge">
<title>1/mak&#45;&gt;1/bak</title>
<path fill="none" stroke="black" d="M251.3,-796.15C244.62,-787.04 237.12,-776.81 230.05,-767.17"/>
<polygon fill="black" stroke="black" points="233.08,-765.39 224.34,-759.39 227.44,-769.53 233.08,-765.39"/>
</g>
<!-- 1/sel -->
<g id="node4" class="node">
<title>1/sel</title>
<ellipse fill="none" stroke="black" cx="135" cy="-627.93" rx="60.63" ry="30.05"/>
<text text-anchor="middle" x="135" y="-631.88" font-family="sans" font-size="14.00">sell_bread</text>
<text text-anchor="middle" x="135" y="-614.63" font-family="sans" font-size="14.00">1</text>
</g>
<!-- 1/bak&#45;&gt;1/sel -->
<g id="edge3" class="edge">
<title>1/bak&#45;&gt;1/sel</title>
<path fill="none" stroke="black" d="M183.7,-700.08C176.46,-689.5 168.12,-677.31 160.41,-666.05"/>
<polygon fill="black" stroke="black" points="163.51,-664.38 154.97,-658.11 157.73,-668.34 163.51,-664.38"/>
</g>
<!-- 1/cle -->
<g id="node5" class="node">
<title>1/cle</title>
<ellipse fill="none" stroke="black" cx="280" cy="-627.93" rx="65.94" ry="30.05"/>
<text text-anchor="middle" x="280" y="-631.88" font-family="sans" font-size="14.00">clean_oven</text>
<text text-anchor="middle" x="280" y="-614.63" font-family="sans" font-size="14.00">1</text>
</g>
<!-- 1/bak&#45;&gt;1/cle -->
<g id="edge5" class="edge">
<title>1/bak&#45;&gt;1/cle</title>
<path fill="none" stroke="black" d="M224.65,-700.34C233.01,-689.56 242.68,-677.08 251.58,-665.6"/>
<polygon fill="black" stroke="black" points="254.22,-667.9 257.58,-657.85 248.69,-663.61 254.22,-667.9"/>
</g>
<!-- 2/pre -->
<g id="node12" class="node">
<title>2/pre</title>
<ellipse fill="none" stroke="black" cx="452" cy="-531.82" rx="82.38" ry="30.05"/>
<text text-anchor="middle" x="452" y="-535.77" font-family="sans" font-size="14.00">pre_heat_oven</text>
<text text-anchor="middle" x="452" y="-518.52" font-family="sans" font-size="14.00">2</text>
</g>
<!-- 1/cle&#45;&gt;2/pre -->
<g id="edge6" class="edge">
<title>1/cle&#45;&gt;2/pre</title>
<path fill="none" stroke="black" d="M321.64,-604.15C344.36,-591.72 372.76,-576.17 397.26,-562.77"/>
<polygon fill="black" stroke="black" points="398.71,-565.97 405.8,-558.1 395.35,-559.83 398.71,-565.97"/>
</g>
<!-- 1/pre -->
<g id="node6" class="node">
<title>1/pre</title>
<ellipse fill="none" stroke="black" cx="98" cy="-825.38" rx="82.38" ry="30.05"/>
<text text-anchor="middle" x="98" y="-829.33" font-family="sans" font-size="14.00">pre_heat_oven</text>
<text text-anchor="middle" x="98" y="-812.08" font-family="sans" font-size="14.00">1</text>
</g>
<!-- 1/pre&#45;&gt;1/bak -->
<g id="edge4" class="edge">
<title>1/pre&#45;&gt;1/bak</title>
<path fill="none" stroke="black" d="M128.37,-797.17C139.77,-786.94 152.89,-775.2 164.9,-764.42"/>
<polygon fill="black" stroke="black" points="167.18,-767.08 172.29,-757.8 162.51,-761.87 167.18,-767.08"/>
</g>
<!-- 2/pur -->
<g id="node7" class="node">
<title>2/pur</title>
<ellipse fill="none" stroke="black" cx="610" cy="-627.93" rx="89.8" ry="30.05"/>
<text text-anchor="middle" x="610" y="-631.88" font-family="sans" font-size="14.00">buy_ingredients</text>
<text text-anchor="middle" x="610" y="-614.63" font-family="sans" font-size="14.00">2</text>
</g>
<!-- 2/mak -->
<g id="node8" class="node">
<title>2/mak</title>
<ellipse fill="none" stroke="black" cx="626" cy="-531.82" rx="73.89" ry="30.05"/>
<text text-anchor="middle" x="626" y="-535.77" font-family="sans" font-size="14.00">make_dough</text>
<text text-anchor="middle" x="626" y="-518.52" font-family="sans" font-size="14.00">2</text>
</g>
<!-- 2/pur&#45;&gt;2/mak -->
<g id="edge7" class="edge">
<title>2/pur&#45;&gt;2/mak</title>
<path fill="none" stroke="black" d="M614.97,-597.67C616.28,-589.97 617.72,-581.52 619.11,-573.34"/>
<polygon fill="black" stroke="black" points="622.55,-574 620.77,-563.56 615.65,-572.83 622.55,-574"/>
</g>
<!-- 2/bak -->
<g id="node9" class="node">
<title>2/bak</title>
<ellipse fill="none" stroke="black" cx="557" cy="-435.72" rx="67.53" ry="30.05"/>
<text text-anchor="middle" x="557" y="-439.67" font-family="sans" font-size="14.00">bake_bread</text>
<text text-anchor="middle" x="557" y="-422.42" font-family="sans" font-size="14.00">2</text>
</g>
<!-- 2/mak&#45;&gt;2/bak -->
<g id="edge8" class="edge">
<title>2/mak&#45;&gt;2/bak</title>
<path fill="none" stroke="black" d="M605.3,-502.59C598.62,-493.48 591.12,-483.25 584.05,-473.61"/>
<polygon fill="black" stroke="black" points="587.08,-471.82 578.34,-465.83 581.44,-475.96 587.08,-471.82"/>
</g>
<!-- 2/sel -->
<g id="node10" class="node">
<title>2/sel</title>
<ellipse fill="none" stroke="black" cx="489" cy="-334.36" rx="60.63" ry="30.05"/>
<text text-anchor="middle" x="489" y="-338.31" font-family="sans" font-size="14.00">sell_bread</text>
<text text-anchor="middle" x="489" y="-321.06" font-family="sans" font-size="14.00">2</text>
</g>
<!-- 2/bak&#45;&gt;2/sel -->
<g id="edge9" class="edge">
<title>2/bak&#45;&gt;2/sel</title>
<path fill="none" stroke="black" d="M537.7,-406.51C530.46,-395.94 522.12,-383.75 514.41,-372.49"/>
<polygon fill="black" stroke="black" points="517.51,-370.82 508.97,-364.55 511.73,-374.77 517.51,-370.82"/>
</g>
<!-- 2/cle -->
<g id="node11" class="node">
<title>2/cle</title>
<ellipse fill="none" stroke="black" cx="634" cy="-334.36" rx="65.94" ry="30.05"/>
<text text-anchor="middle" x="634" y="-338.31" font-family="sans" font-size="14.00">clean_oven</text>
<text text-anchor="middle" x="634" y="-321.06" font-family="sans" font-size="14.00">2</text>
</g>
<!-- 2/bak&#45;&gt;2/cle -->
<g id="edge11" class="edge">
<title>2/bak&#45;&gt;2/cle</title>
<path fill="none" stroke="black" d="M578.65,-406.78C587.01,-396 596.68,-383.52 605.58,-372.04"/>
<polygon fill="black" stroke="black" points="608.22,-374.34 611.58,-364.29 602.69,-370.05 608.22,-374.34"/>
</g>
<!-- 3/pre -->
<g id="node18" class="node">
<title>3/pre</title>
<ellipse fill="none" stroke="black" cx="806" cy="-238.26" rx="82.38" ry="30.05"/>
<text text-anchor="middle" x="806" y="-242.21" font-family="sans" font-size="14.00">pre_heat_oven</text>
<text text-anchor="middle" x="806" y="-224.96" font-family="sans" font-size="14.00">3</text>
</g>
<!-- 2/cle&#45;&gt;3/pre -->
<g id="edge12" class="edge">
<title>2/cle&#45;&gt;3/pre</title>
<path fill="none" stroke="black" d="M675.64,-310.58C698.36,-298.15 726.76,-282.61 751.26,-269.21"/>
<polygon fill="black" stroke="black" points="752.71,-272.41 759.8,-264.53 749.35,-266.26 752.71,-272.41"/>
</g>
<!-- 2/pre&#45;&gt;2/bak -->
<g id="edge10" class="edge">
<title>2/pre&#45;&gt;2/bak</title>
<path fill="none" stroke="black" d="M482.37,-503.6C493.77,-493.38 506.89,-481.63 518.9,-470.86"/>
<polygon fill="black" stroke="black" points="521.18,-473.52 526.29,-464.24 516.51,-468.3 521.18,-473.52"/>
</g>
<!-- 3/pur -->
<g id="node13" class="node">
<title>3/pur</title>
<ellipse fill="none" stroke="black" cx="964" cy="-334.36" rx="89.8" ry="30.05"/>
<text text-anchor="middle" x="964" y="-338.31" font-family="sans" font-size="14.00">buy_ingredients</text>
<text text-anchor="middle" x="964" y="-321.06" font-family="sans" font-size="14.00">3</text>
</g>
<!-- 3/mak -->
<g id="node14" class="node">
<title>3/mak</title>
<ellipse fill="none" stroke="black" cx="980" cy="-238.26" rx="73.89" ry="30.05"/>
<text text-anchor="middle" x="980" y="-242.21" font-family="sans" font-size="14.00">make_dough</text>
<text text-anchor="middle" x="980" y="-224.96" font-family="sans" font-size="14.00">3</text>
</g>
<!-- 3/pur&#45;&gt;3/mak -->
<g id="edge13" class="edge">
<title>3/pur&#45;&gt;3/mak</title>
<path fill="none" stroke="black" d="M968.97,-304.1C970.28,-296.4 971.72,-287.96 973.11,-279.78"/>
<polygon fill="black" stroke="black" points="976.55,-280.44 974.77,-269.99 969.65,-279.27 976.55,-280.44"/>
</g>
<!-- 3/bak -->
<g id="node15" class="node">
<title>3/bak</title>
<ellipse fill="none" stroke="black" cx="873" cy="-142.16" rx="67.53" ry="30.05"/>
<text text-anchor="middle" x="873" y="-146.11" font-family="sans" font-size="14.00">bake_bread</text>
<text text-anchor="middle" x="873" y="-128.86" font-family="sans" font-size="14.00">3</text>
</g>
<!-- 3/mak&#45;&gt;3/bak -->
<g id="edge14" class="edge">
<title>3/mak&#45;&gt;3/bak</title>
<path fill="none" stroke="black" d="M949.62,-210.55C937.68,-200.04 923.82,-187.85 911.21,-176.76"/>
<polygon fill="black" stroke="black" points="913.67,-174.26 903.85,-170.29 909.05,-179.52 913.67,-174.26"/>
</g>
<!-- 3/sel -->
<g id="node16" class="node">
<title>3/sel</title>
<ellipse fill="none" stroke="black" cx="795" cy="-46.05" rx="60.63" ry="30.05"/>
<text text-anchor="middle" x="795" y="-50" font-family="sans" font-size="14.00">sell_bread</text>
<text text-anchor="middle" x="795" y="-32.75" font-family="sans" font-size="14.00">3</text>
</g>
<!-- 3/bak&#45;&gt;3/sel -->
<g id="edge15" class="edge">
<title>3/bak&#45;&gt;3/sel</title>
<path fill="none" stroke="black" d="M850.02,-113.43C842.09,-103.87 833.1,-93.02 824.72,-82.91"/>
<polygon fill="black" stroke="black" points="827.59,-80.89 818.51,-75.42 822.2,-85.35 827.59,-80.89"/>
</g>
<!-- 3/cle -->
<g id="node17" class="node">
<title>3/cle</title>
<ellipse fill="none" stroke="black" cx="940" cy="-46.05" rx="65.94" ry="30.05"/>
<text text-anchor="middle" x="940" y="-50" font-family="sans" font-size="14.00">clean_oven</text>
<text text-anchor="middle" x="940" y="-32.75" font-family="sans" font-size="14.00">3</text>
</g>
<!-- 3/bak&#45;&gt;3/cle -->
<g id="edge17" class="edge">
<title>3/bak&#45;&gt;3/cle</title>
<path fill="none" stroke="black" d="M892.92,-113.18C899.34,-104.16 906.57,-94.01 913.39,-84.42"/>
<polygon fill="black" stroke="black" points="916.21,-86.5 919.16,-76.32 910.51,-82.44 916.21,-86.5"/>
</g>
<!-- 3/pre&#45;&gt;3/bak -->
<g id="edge16" class="edge">
<title>3/pre&#45;&gt;3/bak</title>
<path fill="none" stroke="black" d="M826.28,-208.77C832.64,-199.84 839.75,-189.86 846.47,-180.42"/>
<polygon fill="black" stroke="black" points="849.19,-182.63 852.14,-172.46 843.49,-178.57 849.19,-182.63"/>
</g>
</g>
</svg>
