<?xml version="1.0" encoding="UTF-8" standalone="no"?>
<!DOCTYPE svg PUBLIC "-//W3C//DTD SVG 1.1//EN"
 "http://www.w3.org/Graphics/SVG/1.1/DTD/svg11.dtd">
<!-- Generated by graphviz version 9.0.0 (20231125.0833)
 -->
<!-- Title: example Pages: 1 -->
<svg width="504pt" height="193pt"
 viewBox="0.00 0.00 504.00 193.40" xmlns="http://www.w3.org/2000/svg" xmlns:xlink="http://www.w3.org/1999/xlink">
<g id="graph0" class="graph" transform="scale(0.467532 0.467532) rotate(0) translate(4 409.67)">
<title>example</title>
<polygon fill="none" stroke="none" points="-4,4 -4,-409.67 1074,-409.67 1074,4 -4,4"/>
<g id="clust1" class="cluster">
<title>cluster_1</title>
<polygon fill="none" stroke="black" stroke-dasharray="5,2" points="8,-8 8,-397.67 354,-397.67 354,-8 8,-8"/>
<text text-anchor="middle" x="181" y="-380.37" font-family="sans" font-size="14.00">1</text>
</g>
<g id="clust2" class="cluster">
<title>cluster_2</title>
<polygon fill="none" stroke="black" stroke-dasharray="5,2" points="362,-8 362,-397.67 708,-397.67 708,-8 362,-8"/>
<text text-anchor="middle" x="535" y="-380.37" font-family="sans" font-size="14.00">2</text>
</g>
<g id="clust3" class="cluster">
<title>cluster_3</title>
<polygon fill="none" stroke="black" stroke-dasharray="5,2" points="716,-8 716,-397.67 1062,-397.67 1062,-8 716,-8"/>
<text text-anchor="middle" x="889" y="-380.37" font-family="sans" font-size="14.00">3</text>
</g>
<!-- 1/pur -->
<g id="node1" class="node">
<title>1/pur</title>
<ellipse fill="none" stroke="black" cx="256" cy="-334.36" rx="89.8" ry="30.05"/>
<text text-anchor="middle" x="256" y="-338.31" font-family="sans" font-size="14.00">buy_ingredients</text>
<text text-anchor="middle" x="256" y="-321.06" font-family="sans" font-size="14.00">1</text>
</g>
<!-- 1/mak -->
<g id="node2" class="node">
<title>1/mak</title>
<ellipse fill="none" stroke="black" cx="272" cy="-238.26" rx="73.89" ry="30.05"/>
<text text-anchor="middle" x="272" y="-242.21" font-family="sans" font-size="14.00">make_dough</text>
<text text-anchor="middle" x="272" y="-224.96" font-family="sans" font-size="14.00">1</text>
</g>
<!-- 1/pur&#45;&gt;1/mak -->
<g id="edge1" class="edge">
<title>1/pur&#45;&gt;1/mak</title>
<path fill="none" stroke="black" d="M260.97,-304.1C262.28,-296.4 263.72,-287.96 265.11,-279.78"/>
<polygon fill="black" stroke="black" points="268.55,-280.44 266.77,-269.99 261.65,-279.27 268.55,-280.44"/>
</g>
<!-- 1/bak -->
<g id="node3" class="node">
<title>1/bak</title>
<ellipse fill="none" stroke="black" cx="165" cy="-142.16" rx="67.53" ry="30.05"/>
<text text-anchor="middle" x="165" y="-146.11" font-family="sans" font-size="14.00">bake_bread</text>
<text text-anchor="middle" x="165" y="-128.86" font-family="sans" font-size="14.00">1</text>
</g>
<!-- 1/mak&#45;&gt;1/bak -->
<g id="edge2" class="edge">
<title>1/mak&#45;&gt;1/bak</title>
<path fill="none" stroke="black" d="M241.62,-210.55C229.68,-200.04 215.82,-187.85 203.21,-176.76"/>
<polygon fill="black" stroke="black" points="205.67,-174.26 195.85,-170.29 201.05,-179.52 205.67,-174.26"/>
</g>
<!-- 1/sel -->
<g id="node4" class="node">
<title>1/sel</title>
<ellipse fill="none" stroke="black" cx="87" cy="-46.05" rx="60.63" ry="30.05"/>
<text text-anchor="middle" x="87" y="-50" font-family="sans" font-size="14.00">sell_bread</text>
<text text-anchor="middle" x="87" y="-32.75" font-family="sans" font-size="14.00">1</text>
</g>
<!-- 1/bak&#45;&gt;1/sel -->
<g id="edge3" class="edge">
<title>1/bak&#45;&gt;1/sel</title>
<path fill="none" stroke="black" d="M142.02,-113.43C134.09,-103.87 125.1,-93.02 116.72,-82.91"/>
<polygon fill="black" stroke="black" points="119.59,-80.89 110.51,-75.42 114.2,-85.35 119.59,-80.89"/>
</g>
<!-- 1/cle -->
<g id="node5" class="node">
<title>1/cle</title>
<ellipse fill="none" stroke="black" cx="232" cy="-46.05" rx="65.94" ry="30.05"/>
<text text-anchor="middle" x="232" y="-50" font-family="sans" font-size="14.00">clean_oven</text>
<text text-anchor="middle" x="232" y="-32.75" font-family="sans" font-size="14.00">1</text>
</g>
<!-- 1/bak&#45;&gt;1/cle -->
<g id="edge5" class="edge">
<title>1/bak&#45;&gt;1/cle</title>
<path fill="none" stroke="black" d="M184.92,-113.18C191.34,-104.16 198.57,-94.01 205.39,-84.42"/>
<polygon fill="black" stroke="black" points="208.21,-86.5 211.16,-76.32 202.51,-82.44 208.21,-86.5"/>
</g>
<!-- 1/pre -->
<g id="node6" class="node">
<title>1/pre</title>
<ellipse fill="none" stroke="black" cx="98" cy="-238.26" rx="82.38" ry="30.05"/>
<text text-anchor="middle" x="98" y="-242.21" font-family="sans" font-size="14.00">pre_heat_oven</text>
<text text-anchor="middle" x="98" y="-224.96" font-family="sans" font-size="14.00">1</text>
</g>
<!-- 1/pre&#45;&gt;1/bak -->
<g id="edge4" class="edge">
<title>1/pre&#45;&gt;1/bak</title>
<path fill="none" stroke="black" d="M118.28,-208.77C124.64,-199.84 131.75,-189.86 138.47,-180.42"/>
<polygon fill="black" stroke="black" points="141.19,-182.63 144.14,-172.46 135.49,-178.57 141.19,-182.63"/>
</g>
<!-- 2/pur -->
<g id="node7" class="node">
<title>2/pur</title>
<ellipse fill="none" stroke="black" cx="610" cy="-334.36" rx="89.8" ry="30.05"/>
<text text-anchor="middle" x="610" y="-338.31" font-family="sans" font-size="14.00">buy_ingredients</text>
<text text-anchor="middle" x="610" y="-321.06" font-family="sans" font-size="14.00">2</text>
</g>
<!-- 2/mak -->
<g id="node8" class="node">
<title>2/mak</title>
<ellipse fill="none" stroke="black" cx="626" cy="-238.26" rx="73.89" ry="30.05"/>
<text text-anchor="middle" x="626" y="-242.21" font-family="sans" font-size="14.00">make_dough</text>
<text text-anchor="middle" x="626" y="-224.96" font-family="sans" font-size="14.00">2</text>
</g>
<!-- 2/pur&#45;&gt;2/mak -->
<g id="edge6" class="edge">
<title>2/pur&#45;&gt;2/mak</title>
<path fill="none" stroke="black" d="M614.97,-304.1C616.28,-296.4 617.72,-287.96 619.11,-279.78"/>
<polygon fill="black" stroke="black" points="622.55,-280.44 620.77,-269.99 615.65,-279.27 622.55,-280.44"/>
</g>
<!-- 2/bak -->
<g id="node9" class="node">
<title>2/bak</title>
<ellipse fill="none" stroke="black" cx="519" cy="-142.16" rx="67.53" ry="30.05"/>
<text text-anchor="middle" x="519" y="-146.11" font-family="sans" font-size="14.00">bake_bread</text>
<text text-anchor="middle" x="519" y="-128.86" font-family="sans" font-size="14.00">2</text>
</g>
<!-- 2/mak&#45;&gt;2/bak -->
<g id="edge7" class="edge">
<title>2/mak&#45;&gt;2/bak</title>
<path fill="none" stroke="black" d="M595.62,-210.55C583.68,-200.04 569.82,-187.85 557.21,-176.76"/>
<polygon fill="black" stroke="black" points="559.67,-174.26 549.85,-170.29 555.05,-179.52 559.67,-174.26"/>
</g>
<!-- 2/sel -->
<g id="node10" class="node">
<title>2/sel</title>
<ellipse fill="none" stroke="black" cx="441" cy="-46.05" rx="60.63" ry="30.05"/>
<text text-anchor="middle" x="441" y="-50" font-family="sans" font-size="14.00">sell_bread</text>
<text text-anchor="middle" x="441" y="-32.75" font-family="sans" font-size="14.00">2</text>
</g>
<!-- 2/bak&#45;&gt;2/sel -->
<g id="edge8" class="edge">
<title>2/bak&#45;&gt;2/sel</title>
<path fill="none" stroke="black" d="M496.02,-113.43C488.09,-103.87 479.1,-93.02 470.72,-82.91"/>
<polygon fill="black" stroke="black" points="473.59,-80.89 464.51,-75.42 468.2,-85.35 473.59,-80.89"/>
</g>
<!-- 2/cle -->
<g id="node11" class="node">
<title>2/cle</title>
<ellipse fill="none" stroke="black" cx="586" cy="-46.05" rx="65.94" ry="30.05"/>
<text text-anchor="middle" x="586" y="-50" font-family="sans" font-size="14.00">clean_oven</text>
<text text-anchor="middle" x="586" y="-32.75" font-family="sans" font-size="14.00">2</text>
</g>
<!-- 2/bak&#45;&gt;2/cle -->
<g id="edge10" class="edge">
<title>2/bak&#45;&gt;2/cle</title>
<path fill="none" stroke="black" d="M538.92,-113.18C545.34,-104.16 552.57,-94.01 559.39,-84.42"/>
<polygon fill="black" stroke="black" points="562.21,-86.5 565.16,-76.32 556.51,-82.44 562.21,-86.5"/>
</g>
<!-- 2/pre -->
<g id="node12" class="node">
<title>2/pre</title>
<ellipse fill="none" stroke="black" cx="452" cy="-238.26" rx="82.38" ry="30.05"/>
<text text-anchor="middle" x="452" y="-242.21" font-family="sans" font-size="14.00">pre_heat_oven</text>
<text text-anchor="middle" x="452" y="-224.96" font-family="sans" font-size="14.00">2</text>
</g>
<!-- 2/pre&#45;&gt;2/bak -->
<g id="edge9" class="edge">
<title>2/pre&#45;&gt;2/bak</title>
<path fill="none" stroke="black" d="M472.28,-208.77C478.64,-199.84 485.75,-189.86 492.47,-180.42"/>
<polygon fill="black" stroke="black" points="495.19,-182.63 498.14,-172.46 489.49,-178.57 495.19,-182.63"/>
</g>
<!-- 3/pur -->
<g id="node13" class="node">
<title>3/pur</title>
<ellipse fill="none" stroke="black" cx="964" cy="-334.36" rx="89.8" ry="30.05"/>
<text text-anchor="middle" x="964" y="-338.31" font-family="sans" font-size="14.00">buy_ingredients</text>
<text text-anchor="middle" x="964" y="-321.06" font-family="sans" font-size="14.00">3</text>
</g>
<!-- 3/mak -->
<g id="node14" class="node">
<title>3/mak</title>
<ellipse fill="none" stroke="black" cx="980" cy="-238.26" rx="73.89" ry="30.05"/>
<text text-anchor="middle" x="980" y="-242.21" font-family="sans" font-size="14.00">make_dough</text>
<text text-anchor="middle" x="980" y="-224.96" font-family="sans" font-size="14.00">3</text>
</g>
<!-- 3/pur&#45;&gt;3/mak -->
<g id="edge11" class="edge">
<title>3/pur&#45;&gt;3/mak</title>
<path fill="none" stroke="black" d="M968.97,-304.1C970.28,-296.4 971.72,-287.96 973.11,-279.78"/>
<polygon fill="black" stroke="black" points="976.55,-280.44 974.77,-269.99 969.65,-279.27 976.55,-280.44"/>
</g>
<!-- 3/bak -->
<g id="node15" class="node">
<title>3/bak</title>
<ellipse fill="none" stroke="black" cx="873" cy="-142.16" rx="67.53" ry="30.05"/>
<text text-anchor="middle" x="873" y="-146.11" font-family="sans" font-size="14.00">bake_bread</text>
<text text-anchor="middle" x="873" y="-128.86" font-family="sans" font-size="14.00">3</text>
</g>
<!-- 3/mak&#45;&gt;3/bak -->
<g id="edge12" class="edge">
<title>3/mak&#45;&gt;3/bak</title>
<path fill="none" stroke="black" d="M949.62,-210.55C937.68,-200.04 923.82,-187.85 911.21,-176.76"/>
<polygon fill="black" stroke="black" points="913.67,-174.26 903.85,-170.29 909.05,-179.52 913.67,-174.26"/>
</g>
<!-- 3/sel -->
<g id="node16" class="node">
<title>3/sel</title>
<ellipse fill="none" stroke="black" cx="795" cy="-46.05" rx="60.63" ry="30.05"/>
<text text-anchor="middle" x="795" y="-50" font-family="sans" font-size="14.00">sell_bread</text>
<text text-anchor="middle" x="795" y="-32.75" font-family="sans" font-size="14.00">3</text>
</g>
<!-- 3/bak&#45;&gt;3/sel -->
<g id="edge13" class="edge">
<title>3/bak&#45;&gt;3/sel</title>
<path fill="none" stroke="black" d="M850.02,-113.43C842.09,-103.87 833.1,-93.02 824.72,-82.91"/>
<polygon fill="black" stroke="black" points="827.59,-80.89 818.51,-75.42 822.2,-85.35 827.59,-80.89"/>
</g>
<!-- 3/cle -->
<g id="node17" class="node">
<title>3/cle</title>
<ellipse fill="none" stroke="black" cx="940" cy="-46.05" rx="65.94" ry="30.05"/>
<text text-anchor="middle" x="940" y="-50" font-family="sans" font-size="14.00">clean_oven</text>
<text text-anchor="middle" x="940" y="-32.75" font-family="sans" font-size="14.00">3</text>
</g>
<!-- 3/bak&#45;&gt;3/cle -->
<g id="edge15" class="edge">
<title>3/bak&#45;&gt;3/cle</title>
<path fill="none" stroke="black" d="M892.92,-113.18C899.34,-104.16 906.57,-94.01 913.39,-84.42"/>
<polygon fill="black" stroke="black" points="916.21,-86.5 919.16,-76.32 910.51,-82.44 916.21,-86.5"/>
</g>
<!-- 3/pre -->
<g id="node18" class="node">
<title>3/pre</title>
<ellipse fill="none" stroke="black" cx="806" cy="-238.26" rx="82.38" ry="30.05"/>
<text text-anchor="middle" x="806" y="-242.21" font-family="sans" font-size="14.00">pre_heat_oven</text>
<text text-anchor="middle" x="806" y="-224.96" font-family="sans" font-size="14.00">3</text>
</g>
<!-- 3/pre&#45;&gt;3/bak -->
<g id="edge14" class="edge">
<title>3/pre&#45;&gt;3/bak</title>
<path fill="none" stroke="black" d="M826.28,-208.77C832.64,-199.84 839.75,-189.86 846.47,-180.42"/>
<polygon fill="black" stroke="black" points="849.19,-182.63 852.14,-172.46 843.49,-178.57 849.19,-182.63"/>
</g>
</g>
</svg>
