<?xml version="1.0" encoding="UTF-8" standalone="no"?>
<!DOCTYPE svg PUBLIC "-//W3C//DTD SVG 1.1//EN"
 "http://www.w3.org/Graphics/SVG/1.1/DTD/svg11.dtd">
<!-- Generated by graphviz version 14.0.5 (20251129.0827)
 -->
<!-- Title: Example Pages: 1 -->
<svg width="504pt" height="154pt"
 viewBox="0.00 0.00 504.00 154.00" xmlns="http://www.w3.org/2000/svg" xmlns:xlink="http://www.w3.org/1999/xlink">
<g id="graph0" class="graph" transform="scale(0.463246 0.463246) rotate(0) translate(4 328)">
<title>Example</title>
<polygon fill="none" stroke="none" points="-4,4 -4,-328 1083.97,-328 1083.97,4 -4,4"/>
<!-- root -->
<g id="node1" class="node">
<title>root</title>
<polygon fill="powderblue" stroke="royalblue" points="696.1,-324 642.1,-324 642.1,-288 696.1,-288 696.1,-324"/>
<text xml:space="preserve" text-anchor="middle" x="669.1" y="-301.32" font-family="sans" font-size="14.00">root</text>
</g>
<!-- ENGINE -->
<g id="node2" class="node">
<title>ENGINE</title>
<polygon fill="powderblue" stroke="royalblue" points="583.1,-180 513.1,-180 513.1,-144 583.1,-144 583.1,-180"/>
<text xml:space="preserve" text-anchor="middle" x="548.1" y="-157.32" font-family="sans" font-size="14.00">ENGINE</text>
</g>
<!-- root&#45;&gt;ENGINE -->
<g id="edge1" class="edge">
<title>root&#45;&gt;ENGINE</title>
<path fill="none" stroke="royalblue" d="M654.26,-287.59C633.19,-262.86 594.46,-217.41 570.06,-188.77"/>
<polygon fill="royalblue" stroke="royalblue" points="572.81,-186.6 563.66,-181.26 567.48,-191.14 572.81,-186.6"/>
</g>
<!-- VEHICLE -->
<g id="node3" class="node">
<title>VEHICLE</title>
<polygon fill="powderblue" stroke="royalblue" points="760.1,-252 684.1,-252 684.1,-216 760.1,-216 760.1,-252"/>
<text xml:space="preserve" text-anchor="middle" x="722.1" y="-229.32" font-family="sans" font-size="14.00">VEHICLE</text>
</g>
<!-- root&#45;&gt;VEHICLE -->
<g id="edge2" class="edge">
<title>root&#45;&gt;VEHICLE</title>
<path fill="none" stroke="royalblue" d="M682.2,-287.7C688.23,-279.73 695.52,-270.1 702.21,-261.26"/>
<polygon fill="royalblue" stroke="royalblue" points="704.99,-263.4 708.24,-253.31 699.41,-259.17 704.99,-263.4"/>
</g>
<!-- INTERNAL_COMBUSTION_ENGINE -->
<g id="node4" class="node">
<title>INTERNAL_COMBUSTION_ENGINE</title>
<polygon fill="powderblue" stroke="royalblue" points="686.7,-108 409.5,-108 409.5,-72 686.7,-72 686.7,-108"/>
<text xml:space="preserve" text-anchor="middle" x="548.1" y="-85.33" font-family="sans" font-size="14.00">INTERNAL_COMBUSTION_ENGINE</text>
</g>
<!-- ENGINE&#45;&gt;INTERNAL_COMBUSTION_ENGINE -->
<g id="edge3" class="edge">
<title>ENGINE&#45;&gt;INTERNAL_COMBUSTION_ENGINE</title>
<path fill="none" stroke="royalblue" d="M548.1,-143.7C548.1,-136.41 548.1,-127.73 548.1,-119.54"/>
<polygon fill="royalblue" stroke="royalblue" points="551.6,-119.62 548.1,-109.62 544.6,-119.62 551.6,-119.62"/>
</g>
<!-- TURBINE_ENGINE -->
<g id="node5" class="node">
<title>TURBINE_ENGINE</title>
<polygon fill="powderblue" stroke="royalblue" points="166.2,-108 0,-108 0,-72 166.2,-72 166.2,-108"/>
<text xml:space="preserve" text-anchor="middle" x="83.1" y="-85.33" font-family="sans" font-size="14.00">TURBINE_ENGINE</text>
</g>
<!-- ENGINE&#45;&gt;TURBINE_ENGINE -->
<g id="edge4" class="edge">
<title>ENGINE&#45;&gt;TURBINE_ENGINE</title>
<path fill="none" stroke="royalblue" d="M512.8,-156.48C448.37,-148.13 307.17,-129.33 177.61,-108.37"/>
<polygon fill="royalblue" stroke="royalblue" points="178.24,-104.93 167.81,-106.78 177.12,-111.84 178.24,-104.93"/>
</g>
<!-- HUMAN_ENGINE -->
<g id="node6" class="node">
<title>HUMAN_ENGINE</title>
<polygon fill="powderblue" stroke="royalblue" points="861.7,-108 704.5,-108 704.5,-72 861.7,-72 861.7,-108"/>
<text xml:space="preserve" text-anchor="middle" x="783.1" y="-85.33" font-family="sans" font-size="14.00">HUMAN_ENGINE</text>
</g>
<!-- ENGINE&#45;&gt;HUMAN_ENGINE -->
<g id="edge5" class="edge">
<title>ENGINE&#45;&gt;HUMAN_ENGINE</title>
<path fill="none" stroke="royalblue" d="M583.53,-146.97C586.42,-145.93 589.3,-144.93 592.1,-144 628.21,-132.05 668.75,-120.53 703.16,-111.31"/>
<polygon fill="royalblue" stroke="royalblue" points="703.87,-114.74 712.64,-108.79 702.07,-107.98 703.87,-114.74"/>
</g>
<!-- LAND_VEHICLE -->
<g id="node7" class="node">
<title>LAND_VEHICLE</title>
<polygon fill="powderblue" stroke="royalblue" points="995.98,-180 874.23,-180 874.23,-144 995.98,-144 995.98,-180"/>
<text xml:space="preserve" text-anchor="middle" x="935.1" y="-157.32" font-family="sans" font-size="14.00">LAND_VEHICLE</text>
</g>
<!-- VEHICLE&#45;&gt;LAND_VEHICLE -->
<g id="edge6" class="edge">
<title>VEHICLE&#45;&gt;LAND_VEHICLE</title>
<path fill="none" stroke="royalblue" d="M760.18,-220.49C791.11,-210.32 835.39,-195.77 871.66,-183.85"/>
<polygon fill="royalblue" stroke="royalblue" points="872.3,-187.32 880.71,-180.87 870.12,-180.67 872.3,-187.32"/>
</g>
<!-- WATER_VEHICLE -->
<g id="node8" class="node">
<title>WATER_VEHICLE</title>
<polygon fill="powderblue" stroke="royalblue" points="856.48,-180 725.73,-180 725.73,-144 856.48,-144 856.48,-180"/>
<text xml:space="preserve" text-anchor="middle" x="791.1" y="-157.32" font-family="sans" font-size="14.00">WATER_VEHICLE</text>
</g>
<!-- VEHICLE&#45;&gt;WATER_VEHICLE -->
<g id="edge7" class="edge">
<title>VEHICLE&#45;&gt;WATER_VEHICLE</title>
<path fill="none" stroke="royalblue" d="M739.16,-215.7C747.34,-207.39 757.31,-197.28 766.32,-188.14"/>
<polygon fill="royalblue" stroke="royalblue" points="768.65,-190.76 773.18,-181.18 763.66,-185.85 768.65,-190.76"/>
</g>
<!-- AIR_VEHICLE -->
<g id="node9" class="node">
<title>AIR_VEHICLE</title>
<polygon fill="powderblue" stroke="royalblue" points="707.48,-180 600.73,-180 600.73,-144 707.48,-144 707.48,-180"/>
<text xml:space="preserve" text-anchor="middle" x="654.1" y="-157.32" font-family="sans" font-size="14.00">AIR_VEHICLE</text>
</g>
<!-- VEHICLE&#45;&gt;AIR_VEHICLE -->
<g id="edge8" class="edge">
<title>VEHICLE&#45;&gt;AIR_VEHICLE</title>
<path fill="none" stroke="royalblue" d="M705.29,-215.7C697.22,-207.39 687.4,-197.28 678.52,-188.14"/>
<polygon fill="royalblue" stroke="royalblue" points="681.25,-185.92 671.77,-181.19 676.23,-190.8 681.25,-185.92"/>
</g>
<!-- r44 -->
<g id="node10" class="node">
<title>r44</title>
<polygon fill="powderblue" stroke="royalblue" points="459.1,-36 405.1,-36 405.1,0 459.1,0 459.1,-36"/>
<text xml:space="preserve" text-anchor="middle" x="432.1" y="-13.32" font-family="sans" font-size="14.00">r44</text>
</g>
<!-- INTERNAL_COMBUSTION_ENGINE&#45;&gt;r44 -->
<g id="edge9" class="edge">
<title>INTERNAL_COMBUSTION_ENGINE&#45;&gt;r44</title>
<path fill="none" stroke="royalblue" d="M519.13,-71.52C504.01,-62.4 485.35,-51.13 469.19,-41.38"/>
<polygon fill="royalblue" stroke="royalblue" points="471.17,-38.49 460.8,-36.32 467.56,-44.48 471.17,-38.49"/>
</g>
<!-- bht130 -->
<g id="node11" class="node">
<title>bht130</title>
<polygon fill="powderblue" stroke="royalblue" points="635.23,-36 568.98,-36 568.98,0 635.23,0 635.23,-36"/>
<text xml:space="preserve" text-anchor="middle" x="602.1" y="-13.32" font-family="sans" font-size="14.00">bht130</text>
</g>
<!-- INTERNAL_COMBUSTION_ENGINE&#45;&gt;bht130 -->
<g id="edge10" class="edge">
<title>INTERNAL_COMBUSTION_ENGINE&#45;&gt;bht130</title>
<path fill="none" stroke="royalblue" d="M561.45,-71.7C567.66,-63.64 575.18,-53.89 582.06,-44.98"/>
<polygon fill="royalblue" stroke="royalblue" points="584.64,-47.36 587.98,-37.3 579.1,-43.08 584.64,-47.36"/>
</g>
<!-- v22 -->
<g id="node12" class="node">
<title>v22</title>
<polygon fill="powderblue" stroke="royalblue" points="254.1,-36 200.1,-36 200.1,0 254.1,0 254.1,-36"/>
<text xml:space="preserve" text-anchor="middle" x="227.1" y="-13.32" font-family="sans" font-size="14.00">v22</text>
</g>
<!-- TURBINE_ENGINE&#45;&gt;v22 -->
<g id="edge11" class="edge">
<title>TURBINE_ENGINE&#45;&gt;v22</title>
<path fill="none" stroke="royalblue" d="M119.07,-71.52C140.54,-61.08 167.78,-47.83 189.54,-37.26"/>
<polygon fill="royalblue" stroke="royalblue" points="190.9,-40.49 198.36,-32.97 187.84,-34.19 190.9,-40.49"/>
</g>
<!-- a380 -->
<g id="node13" class="node">
<title>a380</title>
<polygon fill="powderblue" stroke="royalblue" points="146.1,-36 92.1,-36 92.1,0 146.1,0 146.1,-36"/>
<text xml:space="preserve" text-anchor="middle" x="119.1" y="-13.32" font-family="sans" font-size="14.00">a380</text>
</g>
<!-- TURBINE_ENGINE&#45;&gt;a380 -->
<g id="edge12" class="edge">
<title>TURBINE_ENGINE&#45;&gt;a380</title>
<path fill="none" stroke="royalblue" d="M92,-71.7C95.97,-63.98 100.73,-54.71 105.16,-46.11"/>
<polygon fill="royalblue" stroke="royalblue" points="108.15,-47.94 109.61,-37.45 101.93,-44.74 108.15,-47.94"/>
</g>
<!-- penny_farthing -->
<g id="node14" class="node">
<title>penny_farthing</title>
<polygon fill="powderblue" stroke="royalblue" points="987.58,-36 838.62,-36 838.62,0 987.58,0 987.58,-36"/>
<text xml:space="preserve" text-anchor="middle" x="913.1" y="-13.32" font-family="sans" font-size="14.00">penny_farthing</text>
</g>
<!-- HUMAN_ENGINE&#45;&gt;penny_farthing -->
<g id="edge13" class="edge">
<title>HUMAN_ENGINE&#45;&gt;penny_farthing</title>
<path fill="none" stroke="royalblue" d="M815.57,-71.52C832.37,-62.47 853.08,-51.32 871.08,-41.62"/>
<polygon fill="royalblue" stroke="royalblue" points="872.57,-44.8 879.71,-36.98 869.25,-38.64 872.57,-44.8"/>
</g>
<!-- HOVERCRAFT -->
<g id="node17" class="node">
<title>HOVERCRAFT</title>
<polygon fill="powderblue" stroke="royalblue" points="988.6,-108 879.6,-108 879.6,-72 988.6,-72 988.6,-108"/>
<text xml:space="preserve" text-anchor="middle" x="934.1" y="-85.33" font-family="sans" font-size="14.00">HOVERCRAFT</text>
</g>
<!-- LAND_VEHICLE&#45;&gt;HOVERCRAFT -->
<g id="edge19" class="edge">
<title>LAND_VEHICLE&#45;&gt;HOVERCRAFT</title>
<path fill="none" stroke="royalblue" d="M934.85,-143.7C934.75,-136.41 934.62,-127.73 934.51,-119.54"/>
<polygon fill="royalblue" stroke="royalblue" points="938.01,-119.57 934.37,-109.62 931.01,-119.67 938.01,-119.57"/>
</g>
<!-- BICYCLE -->
<g id="node18" class="node">
<title>BICYCLE</title>
<polygon fill="powderblue" stroke="royalblue" points="1079.97,-108 1006.22,-108 1006.22,-72 1079.97,-72 1079.97,-108"/>
<text xml:space="preserve" text-anchor="middle" x="1043.1" y="-85.33" font-family="sans" font-size="14.00">BICYCLE</text>
</g>
<!-- LAND_VEHICLE&#45;&gt;BICYCLE -->
<g id="edge20" class="edge">
<title>LAND_VEHICLE&#45;&gt;BICYCLE</title>
<path fill="none" stroke="royalblue" d="M962.07,-143.52C975.71,-134.68 992.44,-123.84 1007.15,-114.3"/>
<polygon fill="royalblue" stroke="royalblue" points="1008.71,-117.46 1015.2,-109.08 1004.9,-111.59 1008.71,-117.46"/>
</g>
<!-- WATER_VEHICLE&#45;&gt;HOVERCRAFT -->
<g id="edge21" class="edge">
<title>WATER_VEHICLE&#45;&gt;HOVERCRAFT</title>
<path fill="none" stroke="royalblue" d="M826.82,-143.52C845.55,-134.34 868.71,-123.01 888.71,-113.22"/>
<polygon fill="royalblue" stroke="royalblue" points="890.04,-116.47 897.48,-108.93 886.96,-110.18 890.04,-116.47"/>
</g>
<!-- AIRPLANE -->
<g id="node15" class="node">
<title>AIRPLANE</title>
<polygon fill="powderblue" stroke="royalblue" points="269.98,-108 184.23,-108 184.23,-72 269.98,-72 269.98,-108"/>
<text xml:space="preserve" text-anchor="middle" x="227.1" y="-85.33" font-family="sans" font-size="14.00">AIRPLANE</text>
</g>
<!-- AIR_VEHICLE&#45;&gt;AIRPLANE -->
<g id="edge22" class="edge">
<title>AIR_VEHICLE&#45;&gt;AIRPLANE</title>
<path fill="none" stroke="royalblue" d="M600.45,-145.75C597.64,-145.12 594.84,-144.53 592.1,-144 458.11,-118.08 417.93,-136.9 281.22,-108.2"/>
<polygon fill="royalblue" stroke="royalblue" points="282.32,-104.85 271.81,-106.17 280.85,-111.7 282.32,-104.85"/>
</g>
<!-- HELICOPTER -->
<g id="node16" class="node">
<title>HELICOPTER</title>
<polygon fill="powderblue" stroke="royalblue" points="391.98,-108 288.23,-108 288.23,-72 391.98,-72 391.98,-108"/>
<text xml:space="preserve" text-anchor="middle" x="340.1" y="-85.33" font-family="sans" font-size="14.00">HELICOPTER</text>
</g>
<!-- AIR_VEHICLE&#45;&gt;HELICOPTER -->
<g id="edge23" class="edge">
<title>AIR_VEHICLE&#45;&gt;HELICOPTER</title>
<path fill="none" stroke="royalblue" d="M600.4,-145.99C597.6,-145.29 594.82,-144.63 592.1,-144 510.97,-125.3 486.6,-127.62 403.39,-108.67"/>
<polygon fill="royalblue" stroke="royalblue" points="404.39,-105.31 393.86,-106.46 402.81,-112.13 404.39,-105.31"/>
</g>
<!-- AIR_VEHICLE&#45;&gt;HOVERCRAFT -->
<g id="edge24" class="edge">
<title>AIR_VEHICLE&#45;&gt;HOVERCRAFT</title>
<path fill="none" stroke="royalblue" d="M707.68,-146.41C710.87,-145.58 714.02,-144.77 717.1,-144 781.93,-127.68 801.09,-125.36 868.4,-108.64"/>
<polygon fill="royalblue" stroke="royalblue" points="868.83,-112.14 877.69,-106.31 867.13,-105.35 868.83,-112.14"/>
</g>
<!-- AIRPLANE&#45;&gt;v22 -->
<g id="edge14" class="edge">
<title>AIRPLANE&#45;&gt;v22</title>
<path fill="none" stroke="royalblue" d="M227.1,-71.7C227.1,-64.41 227.1,-55.73 227.1,-47.54"/>
<polygon fill="royalblue" stroke="royalblue" points="230.6,-47.62 227.1,-37.62 223.6,-47.62 230.6,-47.62"/>
</g>
<!-- AIRPLANE&#45;&gt;a380 -->
<g id="edge15" class="edge">
<title>AIRPLANE&#45;&gt;a380</title>
<path fill="none" stroke="royalblue" d="M200.13,-71.52C186.49,-62.68 169.76,-51.84 155.05,-42.3"/>
<polygon fill="royalblue" stroke="royalblue" points="157.3,-39.59 147,-37.08 153.49,-45.46 157.3,-39.59"/>
</g>
<!-- HELICOPTER&#45;&gt;r44 -->
<g id="edge17" class="edge">
<title>HELICOPTER&#45;&gt;r44</title>
<path fill="none" stroke="royalblue" d="M362.84,-71.7C374.12,-63.11 387.93,-52.61 400.24,-43.24"/>
<polygon fill="royalblue" stroke="royalblue" points="402.26,-46.1 408.1,-37.26 398.02,-40.53 402.26,-46.1"/>
</g>
<!-- HELICOPTER&#45;&gt;v22 -->
<g id="edge16" class="edge">
<title>HELICOPTER&#45;&gt;v22</title>
<path fill="none" stroke="royalblue" d="M311.88,-71.52C297.37,-62.53 279.51,-51.47 263.93,-41.81"/>
<polygon fill="royalblue" stroke="royalblue" points="266.2,-39.11 255.86,-36.82 262.52,-45.06 266.2,-39.11"/>
</g>
<!-- HOVERCRAFT&#45;&gt;bht130 -->
<g id="edge18" class="edge">
<title>HOVERCRAFT&#45;&gt;bht130</title>
<path fill="none" stroke="royalblue" d="M879.18,-73.94C876.45,-73.27 873.75,-72.62 871.1,-72 792.5,-53.67 700.01,-36.37 646.51,-26.78"/>
<polygon fill="royalblue" stroke="royalblue" points="647.34,-23.37 636.88,-25.06 646.11,-30.26 647.34,-23.37"/>
</g>
<!-- BICYCLE&#45;&gt;penny_farthing -->
<g id="edge25" class="edge">
<title>BICYCLE&#45;&gt;penny_farthing</title>
<path fill="none" stroke="royalblue" d="M1010.63,-71.52C993.83,-62.47 973.12,-51.32 955.12,-41.62"/>
<polygon fill="royalblue" stroke="royalblue" points="956.95,-38.64 946.49,-36.98 953.63,-44.8 956.95,-38.64"/>
</g>
</g>
</svg>
