<?xml version="1.0" encoding="UTF-8" standalone="no"?>
<!DOCTYPE svg PUBLIC "-//W3C//DTD SVG 1.1//EN"
 "http://www.w3.org/Graphics/SVG/1.1/DTD/svg11.dtd">
<!-- Generated by graphviz version 14.1.0 (20251207.0913)
 -->
<!-- Title: Example Pages: 1 -->
<svg width="280pt" height="260pt"
 viewBox="0.00 0.00 280.00 260.00" xmlns="http://www.w3.org/2000/svg" xmlns:xlink="http://www.w3.org/1999/xlink">
<g id="graph0" class="graph" transform="scale(1 1) rotate(0) translate(4 256)">
<title>Example</title>
<polygon fill="none" stroke="none" points="-4,4 -4,-256 276.48,-256 276.48,4 -4,4"/>
<!-- VEHICLE -->
<g id="node1" class="node">
<title>VEHICLE</title>
<polygon fill="powderblue" stroke="royalblue" points="98.88,-252 22.88,-252 22.88,-216 98.88,-216 98.88,-252"/>
<text xml:space="preserve" text-anchor="middle" x="60.88" y="-229.32" font-family="sans" font-size="14.00">VEHICLE</text>
</g>
<!-- LAND_VEHICLE -->
<g id="node2" class="node">
<title>LAND_VEHICLE</title>
<polygon fill="powderblue" stroke="royalblue" points="121.75,-180 0,-180 0,-144 121.75,-144 121.75,-180"/>
<text xml:space="preserve" text-anchor="middle" x="60.88" y="-157.32" font-family="sans" font-size="14.00">LAND_VEHICLE</text>
</g>
<!-- VEHICLE&#45;&gt;LAND_VEHICLE -->
<g id="edge1" class="edge">
<title>VEHICLE&#45;&gt;LAND_VEHICLE</title>
<path fill="none" stroke="black" d="M60.88,-215.7C60.88,-208.41 60.88,-199.73 60.88,-191.54"/>
<polygon fill="black" stroke="black" points="64.38,-191.62 60.88,-181.62 57.38,-191.62 64.38,-191.62"/>
</g>
<!-- BICYCLE -->
<g id="node3" class="node">
<title>BICYCLE</title>
<polygon fill="powderblue" stroke="royalblue" points="97.75,-108 24,-108 24,-72 97.75,-72 97.75,-108"/>
<text xml:space="preserve" text-anchor="middle" x="60.88" y="-85.33" font-family="sans" font-size="14.00">BICYCLE</text>
</g>
<!-- LAND_VEHICLE&#45;&gt;BICYCLE -->
<g id="edge2" class="edge">
<title>LAND_VEHICLE&#45;&gt;BICYCLE</title>
<path fill="none" stroke="black" d="M60.88,-143.7C60.88,-136.41 60.88,-127.73 60.88,-119.54"/>
<polygon fill="black" stroke="black" points="64.38,-119.62 60.88,-109.62 57.38,-119.62 64.38,-119.62"/>
</g>
<!-- penny_farthing -->
<g id="node5" class="node">
<title>penny_farthing</title>
<polygon fill="powderblue" stroke="royalblue" points="201.35,-36 52.4,-36 52.4,0 201.35,0 201.35,-36"/>
<text xml:space="preserve" text-anchor="middle" x="126.88" y="-13.32" font-family="sans" font-size="14.00">penny_farthing</text>
</g>
<!-- BICYCLE&#45;&gt;penny_farthing -->
<g id="edge3" class="edge">
<title>BICYCLE&#45;&gt;penny_farthing</title>
<path fill="none" stroke="black" d="M77.19,-71.7C84.94,-63.47 94.36,-53.48 102.91,-44.42"/>
<polygon fill="black" stroke="black" points="105.4,-46.88 109.71,-37.21 100.3,-42.08 105.4,-46.88"/>
</g>
<!-- HUMAN_ENGINE -->
<g id="node4" class="node">
<title>HUMAN_ENGINE</title>
<polygon fill="powderblue" stroke="royalblue" points="272.48,-108 115.28,-108 115.28,-72 272.48,-72 272.48,-108"/>
<text xml:space="preserve" text-anchor="middle" x="193.88" y="-85.33" font-family="sans" font-size="14.00">HUMAN_ENGINE</text>
</g>
<!-- HUMAN_ENGINE&#45;&gt;penny_farthing -->
<g id="edge4" class="edge">
<title>HUMAN_ENGINE&#45;&gt;penny_farthing</title>
<path fill="none" stroke="black" d="M177.31,-71.7C169.44,-63.47 159.88,-53.48 151.21,-44.42"/>
<polygon fill="black" stroke="black" points="153.74,-42 144.29,-37.2 148.68,-46.84 153.74,-42"/>
</g>
</g>
</svg>
