<?xml version="1.0" encoding="UTF-8" standalone="no"?>
<!DOCTYPE svg PUBLIC "-//W3C//DTD SVG 1.1//EN"
 "http://www.w3.org/Graphics/SVG/1.1/DTD/svg11.dtd">
<!-- Generated by graphviz version 14.0.5 (20251129.0827)
 -->
<!-- Title: graph_tutorial Pages: 1 -->
<svg width="134pt" height="260pt"
 viewBox="0.00 0.00 134.00 260.00" xmlns="http://www.w3.org/2000/svg" xmlns:xlink="http://www.w3.org/1999/xlink">
<g id="graph0" class="graph" transform="scale(1 1) rotate(0) translate(4 256)">
<title>graph_tutorial</title>
<polygon fill="none" stroke="none" points="-4,4 -4,-256 130,-256 130,4 -4,4"/>
<!-- a -->
<g id="node1" class="node">
<title>a</title>
<ellipse fill="none" stroke="black" cx="27" cy="-234" rx="27" ry="18"/>
<text xml:space="preserve" text-anchor="middle" x="27" y="-229.32" font-family="sans" font-size="14.00">a</text>
</g>
<!-- b -->
<g id="node2" class="node">
<title>b</title>
<ellipse fill="none" stroke="black" cx="63" cy="-162" rx="27" ry="18"/>
<text xml:space="preserve" text-anchor="middle" x="63" y="-157.32" font-family="sans" font-size="14.00">b</text>
</g>
<!-- a&#45;&gt;b -->
<g id="edge1" class="edge">
<title>a&#45;&gt;b</title>
<path fill="none" stroke="black" d="M35.35,-216.76C39.58,-208.55 44.81,-198.37 49.58,-189.09"/>
<polygon fill="black" stroke="black" points="52.54,-190.99 54,-180.49 46.32,-187.79 52.54,-190.99"/>
</g>
<!-- d -->
<g id="node3" class="node">
<title>d</title>
<ellipse fill="none" stroke="black" cx="27" cy="-90" rx="27" ry="18"/>
<text xml:space="preserve" text-anchor="middle" x="27" y="-85.33" font-family="sans" font-size="14.00">d</text>
</g>
<!-- b&#45;&gt;d -->
<g id="edge2" class="edge">
<title>b&#45;&gt;d</title>
<path fill="none" stroke="black" d="M54.65,-144.76C50.42,-136.55 45.19,-126.37 40.42,-117.09"/>
<polygon fill="black" stroke="black" points="43.68,-115.79 36,-108.49 37.46,-118.99 43.68,-115.79"/>
</g>
<!-- f -->
<g id="node6" class="node">
<title>f</title>
<ellipse fill="none" stroke="black" cx="99" cy="-90" rx="27" ry="18"/>
<text xml:space="preserve" text-anchor="middle" x="99" y="-85.33" font-family="sans" font-size="14.00">f</text>
</g>
<!-- b&#45;&gt;f -->
<g id="edge5" class="edge">
<title>b&#45;&gt;f</title>
<path fill="none" stroke="black" d="M71.35,-144.76C75.58,-136.55 80.81,-126.37 85.58,-117.09"/>
<polygon fill="black" stroke="black" points="88.54,-118.99 90,-108.49 82.32,-115.79 88.54,-118.99"/>
</g>
<!-- e -->
<g id="node4" class="node">
<title>e</title>
<ellipse fill="none" stroke="black" cx="27" cy="-18" rx="27" ry="18"/>
<text xml:space="preserve" text-anchor="middle" x="27" y="-13.32" font-family="sans" font-size="14.00">e</text>
</g>
<!-- d&#45;&gt;e -->
<g id="edge3" class="edge">
<title>d&#45;&gt;e</title>
<path fill="none" stroke="black" d="M27,-71.7C27,-64.41 27,-55.73 27,-47.54"/>
<polygon fill="black" stroke="black" points="30.5,-47.62 27,-37.62 23.5,-47.62 30.5,-47.62"/>
</g>
<!-- c -->
<g id="node5" class="node">
<title>c</title>
<ellipse fill="none" stroke="black" cx="99" cy="-234" rx="27" ry="18"/>
<text xml:space="preserve" text-anchor="middle" x="99" y="-229.32" font-family="sans" font-size="14.00">c</text>
</g>
<!-- c&#45;&gt;b -->
<g id="edge4" class="edge">
<title>c&#45;&gt;b</title>
<path fill="none" stroke="black" d="M90.65,-216.76C86.42,-208.55 81.19,-198.37 76.42,-189.09"/>
<polygon fill="black" stroke="black" points="79.68,-187.79 72,-180.49 73.46,-190.99 79.68,-187.79"/>
</g>
</g>
</svg>
