<?xml version="1.0" encoding="UTF-8" standalone="no"?>
<!DOCTYPE svg PUBLIC "-//W3C//DTD SVG 1.1//EN"
 "http://www.w3.org/Graphics/SVG/1.1/DTD/svg11.dtd">
<!-- Generated by graphviz version 8.1.0 (20230707.2238)
 -->
<!-- Title: Mini_Cylc Pages: 1 -->
<svg width="206pt" height="260pt"
 viewBox="0.00 0.00 206.00 260.00" xmlns="http://www.w3.org/2000/svg" xmlns:xlink="http://www.w3.org/1999/xlink">
<g id="graph0" class="graph" transform="scale(1 1) rotate(0) translate(4 256)">
<title>Mini_Cylc</title>
<polygon fill="none" stroke="none" points="-4,4 -4,-256 202,-256 202,4 -4,4"/>
<!-- c -->
<g id="node1" class="node">
<title>c</title>
<ellipse fill="none" stroke="black" cx="99" cy="-90" rx="27" ry="18"/>
<text text-anchor="middle" x="99" y="-85.33" font-family="sans" font-size="14.00">c</text>
</g>
<!-- d -->
<g id="node2" class="node">
<title>d</title>
<ellipse fill="none" stroke="black" cx="171" cy="-90" rx="27" ry="18"/>
<text text-anchor="middle" x="171" y="-85.33" font-family="sans" font-size="14.00">d</text>
</g>
<!-- f -->
<g id="node3" class="node">
<title>f</title>
<ellipse fill="none" stroke="black" cx="99" cy="-18" rx="27" ry="18"/>
<text text-anchor="middle" x="99" y="-13.32" font-family="sans" font-size="14.00">f</text>
</g>
<!-- d&#45;&gt;f -->
<g id="edge1" class="edge">
<title>d&#45;&gt;f</title>
<path fill="none" stroke="black" d="M156.08,-74.5C146.14,-64.83 132.88,-51.94 121.65,-41.02"/>
<polygon fill="black" stroke="black" points="124.51,-38.95 114.9,-34.49 119.63,-43.97 124.51,-38.95"/>
</g>
<!-- a -->
<g id="node4" class="node">
<title>a</title>
<ellipse fill="none" stroke="black" cx="135" cy="-234" rx="27" ry="18"/>
<text text-anchor="middle" x="135" y="-229.32" font-family="sans" font-size="14.00">a</text>
</g>
<!-- b -->
<g id="node5" class="node">
<title>b</title>
<ellipse fill="none" stroke="black" cx="135" cy="-162" rx="27" ry="18"/>
<text text-anchor="middle" x="135" y="-157.32" font-family="sans" font-size="14.00">b</text>
</g>
<!-- a&#45;&gt;b -->
<g id="edge2" class="edge">
<title>a&#45;&gt;b</title>
<path fill="none" stroke="black" d="M135,-215.7C135,-208.24 135,-199.32 135,-190.97"/>
<polygon fill="black" stroke="black" points="138.5,-191.1 135,-181.1 131.5,-191.1 138.5,-191.1"/>
</g>
<!-- b&#45;&gt;c -->
<g id="edge4" class="edge">
<title>b&#45;&gt;c</title>
<path fill="none" stroke="black" d="M126.65,-144.76C122.38,-136.46 117.08,-126.15 112.27,-116.79"/>
<polygon fill="black" stroke="black" points="114.99,-115.44 107.3,-108.15 108.77,-118.64 114.99,-115.44"/>
</g>
<!-- b&#45;&gt;d -->
<g id="edge5" class="edge">
<title>b&#45;&gt;d</title>
<path fill="none" stroke="black" d="M143.35,-144.76C147.62,-136.46 152.92,-126.15 157.73,-116.79"/>
<polygon fill="black" stroke="black" points="161.23,-118.64 162.7,-108.15 155.01,-115.44 161.23,-118.64"/>
</g>
<!-- e -->
<g id="node6" class="node">
<title>e</title>
<ellipse fill="none" stroke="black" cx="27" cy="-90" rx="27" ry="18"/>
<text text-anchor="middle" x="27" y="-85.33" font-family="sans" font-size="14.00">e</text>
</g>
<!-- e&#45;&gt;f -->
<g id="edge3" class="edge">
<title>e&#45;&gt;f</title>
<path fill="none" stroke="black" d="M41.92,-74.5C51.86,-64.83 65.12,-51.94 76.35,-41.02"/>
<polygon fill="black" stroke="black" points="78.37,-43.97 83.1,-34.49 73.49,-38.95 78.37,-43.97"/>
</g>
</g>
</svg>
