<?xml version="1.0" encoding="UTF-8" standalone="no"?>
<!DOCTYPE svg PUBLIC "-//W3C//DTD SVG 1.1//EN"
 "http://www.w3.org/Graphics/SVG/1.1/DTD/svg11.dtd">
<!-- Generated by graphviz version 11.0.0 (20240519.1550)
 -->
<!-- Title: Mini_Cylc Pages: 1 -->
<svg width="352pt" height="260pt"
 viewBox="0.00 0.00 351.81 260.00" xmlns="http://www.w3.org/2000/svg" xmlns:xlink="http://www.w3.org/1999/xlink">
<g id="graph0" class="graph" transform="scale(1 1) rotate(0) translate(4 256)">
<title>Mini_Cylc</title>
<polygon fill="none" stroke="none" points="-4,4 -4,-256 347.81,-256 347.81,4 -4,4"/>
<!-- bake_bread -->
<g id="node1" class="node">
<title>bake_bread</title>
<ellipse fill="none" stroke="black" cx="175.09" cy="-90" rx="66.99" ry="18"/>
<text text-anchor="middle" x="175.09" y="-85.33" font-family="sans" font-size="14.00">bake_bread</text>
</g>
<!-- clean_oven -->
<g id="node2" class="node">
<title>clean_oven</title>
<ellipse fill="none" stroke="black" cx="103.09" cy="-18" rx="65.41" ry="18"/>
<text text-anchor="middle" x="103.09" y="-13.32" font-family="sans" font-size="14.00">clean_oven</text>
</g>
<!-- bake_bread&#45;&gt;clean_oven -->
<g id="edge1" class="edge">
<title>bake_bread&#45;&gt;clean_oven</title>
<path fill="none" stroke="black" d="M158.02,-72.41C149.06,-63.69 137.9,-52.85 127.99,-43.21"/>
<polygon fill="black" stroke="black" points="130.72,-40.99 121.11,-36.53 125.84,-46.01 130.72,-40.99"/>
</g>
<!-- sell_bread -->
<g id="node5" class="node">
<title>sell_bread</title>
<ellipse fill="none" stroke="black" cx="247.09" cy="-18" rx="60.15" ry="18"/>
<text text-anchor="middle" x="247.09" y="-13.32" font-family="sans" font-size="14.00">sell_bread</text>
</g>
<!-- bake_bread&#45;&gt;sell_bread -->
<g id="edge3" class="edge">
<title>bake_bread&#45;&gt;sell_bread</title>
<path fill="none" stroke="black" d="M192.15,-72.41C201.12,-63.69 212.28,-52.85 222.19,-43.21"/>
<polygon fill="black" stroke="black" points="224.33,-46.01 229.06,-36.53 219.45,-40.99 224.33,-46.01"/>
</g>
<!-- buy_ingredients -->
<g id="node3" class="node">
<title>buy_ingredients</title>
<ellipse fill="none" stroke="black" cx="89.09" cy="-234" rx="89.09" ry="18"/>
<text text-anchor="middle" x="89.09" y="-229.32" font-family="sans" font-size="14.00">buy_ingredients</text>
</g>
<!-- make_dough -->
<g id="node4" class="node">
<title>make_dough</title>
<ellipse fill="none" stroke="black" cx="89.09" cy="-162" rx="73.3" ry="18"/>
<text text-anchor="middle" x="89.09" y="-157.32" font-family="sans" font-size="14.00">make_dough</text>
</g>
<!-- buy_ingredients&#45;&gt;make_dough -->
<g id="edge2" class="edge">
<title>buy_ingredients&#45;&gt;make_dough</title>
<path fill="none" stroke="black" d="M89.09,-215.7C89.09,-208.41 89.09,-199.73 89.09,-191.54"/>
<polygon fill="black" stroke="black" points="92.59,-191.62 89.09,-181.62 85.59,-191.62 92.59,-191.62"/>
</g>
<!-- make_dough&#45;&gt;bake_bread -->
<g id="edge5" class="edge">
<title>make_dough&#45;&gt;bake_bread</title>
<path fill="none" stroke="black" d="M109.47,-144.41C120.39,-135.52 134.04,-124.41 146.06,-114.63"/>
<polygon fill="black" stroke="black" points="148.13,-117.45 153.68,-108.43 143.71,-112.02 148.13,-117.45"/>
</g>
<!-- pre_heat_oven -->
<g id="node6" class="node">
<title>pre_heat_oven</title>
<ellipse fill="none" stroke="black" cx="262.09" cy="-162" rx="81.72" ry="18"/>
<text text-anchor="middle" x="262.09" y="-157.32" font-family="sans" font-size="14.00">pre_heat_oven</text>
</g>
<!-- pre_heat_oven&#45;&gt;bake_bread -->
<g id="edge4" class="edge">
<title>pre_heat_oven&#45;&gt;bake_bread</title>
<path fill="none" stroke="black" d="M241.47,-144.41C230.42,-135.52 216.61,-124.41 204.46,-114.63"/>
<polygon fill="black" stroke="black" points="206.72,-111.96 196.74,-108.42 202.33,-117.41 206.72,-111.96"/>
</g>
</g>
</svg>
