<?xml version="1.0" encoding="UTF-8" standalone="no"?>
<!DOCTYPE svg PUBLIC "-//W3C//DTD SVG 1.1//EN"
 "http://www.w3.org/Graphics/SVG/1.1/DTD/svg11.dtd">
<!-- Generated by graphviz version 11.0.0 (20240519.1550)
 -->
<!-- Title: example Pages: 1 -->
<svg width="504pt" height="468pt"
 viewBox="0.00 0.00 504.00 467.90" xmlns="http://www.w3.org/2000/svg" xmlns:xlink="http://www.w3.org/1999/xlink">
<g id="graph0" class="graph" transform="scale(0.467532 0.467532) rotate(0) translate(4 996.79)">
<title>example</title>
<polygon fill="none" stroke="none" points="-4,4 -4,-996.79 1074,-996.79 1074,4 -4,4"/>
<g id="clust1" class="cluster">
<title>cluster_1</title>
<polygon fill="none" stroke="black" stroke-dasharray="5,2" points="8,-589.87 8,-984.79 354,-984.79 354,-589.87 8,-589.87"/>
<text text-anchor="middle" x="181" y="-967.49" font-family="sans" font-size="14.00">1</text>
</g>
<g id="clust2" class="cluster">
<title>cluster_2</title>
<polygon fill="none" stroke="black" stroke-dasharray="5,2" points="362,-296.31 362,-691.23 708,-691.23 708,-296.31 362,-296.31"/>
<text text-anchor="middle" x="535" y="-673.93" font-family="sans" font-size="14.00">2</text>
</g>
<g id="clust3" class="cluster">
<title>cluster_3</title>
<polygon fill="none" stroke="black" stroke-dasharray="5,2" points="716,-8 716,-397.67 1062,-397.67 1062,-8 716,-8"/>
<text text-anchor="middle" x="889" y="-380.37" font-family="sans" font-size="14.00">3</text>
</g>
<!-- 1/pur -->
<g id="node1" class="node">
<title>1/pur</title>
<ellipse fill="none" stroke="black" cx="106" cy="-921.49" rx="89.8" ry="30.05"/>
<text text-anchor="middle" x="106" y="-925.44" font-family="sans" font-size="14.00">buy_ingredients</text>
<text text-anchor="middle" x="106" y="-908.19" font-family="sans" font-size="14.00">1</text>
</g>
<!-- 1/mak -->
<g id="node2" class="node">
<title>1/mak</title>
<ellipse fill="none" stroke="black" cx="90" cy="-825.38" rx="73.89" ry="30.05"/>
<text text-anchor="middle" x="90" y="-829.33" font-family="sans" font-size="14.00">make_dough</text>
<text text-anchor="middle" x="90" y="-812.08" font-family="sans" font-size="14.00">1</text>
</g>
<!-- 1/pur&#45;&gt;1/mak -->
<g id="edge1" class="edge">
<title>1/pur&#45;&gt;1/mak</title>
<path fill="none" stroke="black" d="M101.03,-891.23C99.72,-883.53 98.28,-875.08 96.89,-866.9"/>
<polygon fill="black" stroke="black" points="100.35,-866.39 95.23,-857.12 93.45,-867.56 100.35,-866.39"/>
</g>
<!-- 1/bak -->
<g id="node3" class="node">
<title>1/bak</title>
<ellipse fill="none" stroke="black" cx="199" cy="-729.28" rx="67.53" ry="30.05"/>
<text text-anchor="middle" x="199" y="-733.23" font-family="sans" font-size="14.00">bake_bread</text>
<text text-anchor="middle" x="199" y="-715.98" font-family="sans" font-size="14.00">1</text>
</g>
<!-- 1/mak&#45;&gt;1/bak -->
<g id="edge2" class="edge">
<title>1/mak&#45;&gt;1/bak</title>
<path fill="none" stroke="black" d="M120.94,-797.67C133.11,-787.16 147.23,-774.98 160.08,-763.88"/>
<polygon fill="black" stroke="black" points="162.3,-766.59 167.59,-757.4 157.73,-761.29 162.3,-766.59"/>
</g>
<!-- 1/sel -->
<g id="node4" class="node">
<title>1/sel</title>
<ellipse fill="none" stroke="black" cx="135" cy="-627.93" rx="60.63" ry="30.05"/>
<text text-anchor="middle" x="135" y="-631.88" font-family="sans" font-size="14.00">sell_bread</text>
<text text-anchor="middle" x="135" y="-614.63" font-family="sans" font-size="14.00">1</text>
</g>
<!-- 1/bak&#45;&gt;1/sel -->
<g id="edge3" class="edge">
<title>1/bak&#45;&gt;1/sel</title>
<path fill="none" stroke="black" d="M180.83,-700.08C174.09,-689.6 166.32,-677.56 159.13,-666.39"/>
<polygon fill="black" stroke="black" points="162.17,-664.64 153.81,-658.13 156.29,-668.43 162.17,-664.64"/>
</g>
<!-- 1/cle -->
<g id="node5" class="node">
<title>1/cle</title>
<ellipse fill="none" stroke="black" cx="280" cy="-627.93" rx="65.94" ry="30.05"/>
<text text-anchor="middle" x="280" y="-631.88" font-family="sans" font-size="14.00">clean_oven</text>
<text text-anchor="middle" x="280" y="-614.63" font-family="sans" font-size="14.00">1</text>
</g>
<!-- 1/bak&#45;&gt;1/cle -->
<g id="edge5" class="edge">
<title>1/bak&#45;&gt;1/cle</title>
<path fill="none" stroke="black" d="M221.56,-700.6C230.52,-689.62 240.93,-676.85 250.47,-665.14"/>
<polygon fill="black" stroke="black" points="253,-667.59 256.6,-657.63 247.57,-663.17 253,-667.59"/>
</g>
<!-- 2/pre -->
<g id="node12" class="node">
<title>2/pre</title>
<ellipse fill="none" stroke="black" cx="452" cy="-531.82" rx="82.38" ry="30.05"/>
<text text-anchor="middle" x="452" y="-535.77" font-family="sans" font-size="14.00">pre_heat_oven</text>
<text text-anchor="middle" x="452" y="-518.52" font-family="sans" font-size="14.00">2</text>
</g>
<!-- 1/cle&#45;&gt;2/pre -->
<g id="edge6" class="edge">
<title>1/cle&#45;&gt;2/pre</title>
<path fill="none" stroke="black" d="M321.64,-604.15C344.36,-591.72 372.76,-576.17 397.26,-562.77"/>
<polygon fill="black" stroke="black" points="398.71,-565.97 405.8,-558.1 395.35,-559.83 398.71,-565.97"/>
</g>
<!-- 1/pre -->
<g id="node6" class="node">
<title>1/pre</title>
<ellipse fill="none" stroke="black" cx="264" cy="-825.38" rx="82.38" ry="30.05"/>
<text text-anchor="middle" x="264" y="-829.33" font-family="sans" font-size="14.00">pre_heat_oven</text>
<text text-anchor="middle" x="264" y="-812.08" font-family="sans" font-size="14.00">1</text>
</g>
<!-- 1/pre&#45;&gt;1/bak -->
<g id="edge4" class="edge">
<title>1/pre&#45;&gt;1/bak</title>
<path fill="none" stroke="black" d="M244.32,-795.89C238.16,-786.97 231.26,-776.98 224.74,-767.54"/>
<polygon fill="black" stroke="black" points="227.81,-765.83 219.25,-759.59 222.05,-769.81 227.81,-765.83"/>
</g>
<!-- 2/pur -->
<g id="node7" class="node">
<title>2/pur</title>
<ellipse fill="none" stroke="black" cx="610" cy="-627.93" rx="89.8" ry="30.05"/>
<text text-anchor="middle" x="610" y="-631.88" font-family="sans" font-size="14.00">buy_ingredients</text>
<text text-anchor="middle" x="610" y="-614.63" font-family="sans" font-size="14.00">2</text>
</g>
<!-- 2/mak -->
<g id="node8" class="node">
<title>2/mak</title>
<ellipse fill="none" stroke="black" cx="626" cy="-531.82" rx="73.89" ry="30.05"/>
<text text-anchor="middle" x="626" y="-535.77" font-family="sans" font-size="14.00">make_dough</text>
<text text-anchor="middle" x="626" y="-518.52" font-family="sans" font-size="14.00">2</text>
</g>
<!-- 2/pur&#45;&gt;2/mak -->
<g id="edge7" class="edge">
<title>2/pur&#45;&gt;2/mak</title>
<path fill="none" stroke="black" d="M614.97,-597.67C616.28,-589.97 617.72,-581.52 619.11,-573.34"/>
<polygon fill="black" stroke="black" points="622.55,-574 620.77,-563.56 615.65,-572.83 622.55,-574"/>
</g>
<!-- 2/bak -->
<g id="node9" class="node">
<title>2/bak</title>
<ellipse fill="none" stroke="black" cx="557" cy="-435.72" rx="67.53" ry="30.05"/>
<text text-anchor="middle" x="557" y="-439.67" font-family="sans" font-size="14.00">bake_bread</text>
<text text-anchor="middle" x="557" y="-422.42" font-family="sans" font-size="14.00">2</text>
</g>
<!-- 2/mak&#45;&gt;2/bak -->
<g id="edge8" class="edge">
<title>2/mak&#45;&gt;2/bak</title>
<path fill="none" stroke="black" d="M605.3,-502.59C598.62,-493.48 591.12,-483.25 584.05,-473.61"/>
<polygon fill="black" stroke="black" points="587.08,-471.82 578.34,-465.83 581.44,-475.96 587.08,-471.82"/>
</g>
<!-- 2/sel -->
<g id="node10" class="node">
<title>2/sel</title>
<ellipse fill="none" stroke="black" cx="489" cy="-334.36" rx="60.63" ry="30.05"/>
<text text-anchor="middle" x="489" y="-338.31" font-family="sans" font-size="14.00">sell_bread</text>
<text text-anchor="middle" x="489" y="-321.06" font-family="sans" font-size="14.00">2</text>
</g>
<!-- 2/bak&#45;&gt;2/sel -->
<g id="edge9" class="edge">
<title>2/bak&#45;&gt;2/sel</title>
<path fill="none" stroke="black" d="M537.7,-406.51C530.46,-395.94 522.12,-383.75 514.41,-372.49"/>
<polygon fill="black" stroke="black" points="517.51,-370.82 508.97,-364.55 511.73,-374.77 517.51,-370.82"/>
</g>
<!-- 2/cle -->
<g id="node11" class="node">
<title>2/cle</title>
<ellipse fill="none" stroke="black" cx="634" cy="-334.36" rx="65.94" ry="30.05"/>
<text text-anchor="middle" x="634" y="-338.31" font-family="sans" font-size="14.00">clean_oven</text>
<text text-anchor="middle" x="634" y="-321.06" font-family="sans" font-size="14.00">2</text>
</g>
<!-- 2/bak&#45;&gt;2/cle -->
<g id="edge11" class="edge">
<title>2/bak&#45;&gt;2/cle</title>
<path fill="none" stroke="black" d="M578.65,-406.78C587.01,-396 596.68,-383.52 605.58,-372.04"/>
<polygon fill="black" stroke="black" points="608.22,-374.34 611.58,-364.29 602.69,-370.05 608.22,-374.34"/>
</g>
<!-- 3/pre -->
<g id="node18" class="node">
<title>3/pre</title>
<ellipse fill="none" stroke="black" cx="806" cy="-238.26" rx="82.38" ry="30.05"/>
<text text-anchor="middle" x="806" y="-242.21" font-family="sans" font-size="14.00">pre_heat_oven</text>
<text text-anchor="middle" x="806" y="-224.96" font-family="sans" font-size="14.00">3</text>
</g>
<!-- 2/cle&#45;&gt;3/pre -->
<g id="edge12" class="edge">
<title>2/cle&#45;&gt;3/pre</title>
<path fill="none" stroke="black" d="M675.64,-310.58C698.36,-298.15 726.76,-282.61 751.26,-269.21"/>
<polygon fill="black" stroke="black" points="752.71,-272.41 759.8,-264.53 749.35,-266.26 752.71,-272.41"/>
</g>
<!-- 2/pre&#45;&gt;2/bak -->
<g id="edge10" class="edge">
<title>2/pre&#45;&gt;2/bak</title>
<path fill="none" stroke="black" d="M482.37,-503.6C493.77,-493.38 506.89,-481.63 518.9,-470.86"/>
<polygon fill="black" stroke="black" points="521.18,-473.52 526.29,-464.24 516.51,-468.3 521.18,-473.52"/>
</g>
<!-- 3/pur -->
<g id="node13" class="node">
<title>3/pur</title>
<ellipse fill="none" stroke="black" cx="964" cy="-334.36" rx="89.8" ry="30.05"/>
<text text-anchor="middle" x="964" y="-338.31" font-family="sans" font-size="14.00">buy_ingredients</text>
<text text-anchor="middle" x="964" y="-321.06" font-family="sans" font-size="14.00">3</text>
</g>
<!-- 3/mak -->
<g id="node14" class="node">
<title>3/mak</title>
<ellipse fill="none" stroke="black" cx="980" cy="-238.26" rx="73.89" ry="30.05"/>
<text text-anchor="middle" x="980" y="-242.21" font-family="sans" font-size="14.00">make_dough</text>
<text text-anchor="middle" x="980" y="-224.96" font-family="sans" font-size="14.00">3</text>
</g>
<!-- 3/pur&#45;&gt;3/mak -->
<g id="edge13" class="edge">
<title>3/pur&#45;&gt;3/mak</title>
<path fill="none" stroke="black" d="M968.97,-304.1C970.28,-296.4 971.72,-287.96 973.11,-279.78"/>
<polygon fill="black" stroke="black" points="976.55,-280.44 974.77,-269.99 969.65,-279.27 976.55,-280.44"/>
</g>
<!-- 3/bak -->
<g id="node15" class="node">
<title>3/bak</title>
<ellipse fill="none" stroke="black" cx="873" cy="-142.16" rx="67.53" ry="30.05"/>
<text text-anchor="middle" x="873" y="-146.11" font-family="sans" font-size="14.00">bake_bread</text>
<text text-anchor="middle" x="873" y="-128.86" font-family="sans" font-size="14.00">3</text>
</g>
<!-- 3/mak&#45;&gt;3/bak -->
<g id="edge14" class="edge">
<title>3/mak&#45;&gt;3/bak</title>
<path fill="none" stroke="black" d="M949.62,-210.55C937.68,-200.04 923.82,-187.85 911.21,-176.76"/>
<polygon fill="black" stroke="black" points="913.67,-174.26 903.85,-170.29 909.05,-179.52 913.67,-174.26"/>
</g>
<!-- 3/sel -->
<g id="node16" class="node">
<title>3/sel</title>
<ellipse fill="none" stroke="black" cx="795" cy="-46.05" rx="60.63" ry="30.05"/>
<text text-anchor="middle" x="795" y="-50" font-family="sans" font-size="14.00">sell_bread</text>
<text text-anchor="middle" x="795" y="-32.75" font-family="sans" font-size="14.00">3</text>
</g>
<!-- 3/bak&#45;&gt;3/sel -->
<g id="edge15" class="edge">
<title>3/bak&#45;&gt;3/sel</title>
<path fill="none" stroke="black" d="M850.02,-113.43C842.09,-103.87 833.1,-93.02 824.72,-82.91"/>
<polygon fill="black" stroke="black" points="827.59,-80.89 818.51,-75.42 822.2,-85.35 827.59,-80.89"/>
</g>
<!-- 3/cle -->
<g id="node17" class="node">
<title>3/cle</title>
<ellipse fill="none" stroke="black" cx="940" cy="-46.05" rx="65.94" ry="30.05"/>
<text text-anchor="middle" x="940" y="-50" font-family="sans" font-size="14.00">clean_oven</text>
<text text-anchor="middle" x="940" y="-32.75" font-family="sans" font-size="14.00">3</text>
</g>
<!-- 3/bak&#45;&gt;3/cle -->
<g id="edge17" class="edge">
<title>3/bak&#45;&gt;3/cle</title>
<path fill="none" stroke="black" d="M892.92,-113.18C899.34,-104.16 906.57,-94.01 913.39,-84.42"/>
<polygon fill="black" stroke="black" points="916.21,-86.5 919.16,-76.32 910.51,-82.44 916.21,-86.5"/>
</g>
<!-- 3/pre&#45;&gt;3/bak -->
<g id="edge16" class="edge">
<title>3/pre&#45;&gt;3/bak</title>
<path fill="none" stroke="black" d="M826.28,-208.77C832.64,-199.84 839.75,-189.86 846.47,-180.42"/>
<polygon fill="black" stroke="black" points="849.19,-182.63 852.14,-172.46 843.49,-178.57 849.19,-182.63"/>
</g>
</g>
</svg>
