<?xml version="1.0" encoding="UTF-8" standalone="no"?>
<!DOCTYPE svg PUBLIC "-//W3C//DTD SVG 1.1//EN"
 "http://www.w3.org/Graphics/SVG/1.1/DTD/svg11.dtd">
<!-- Generated by graphviz version 11.0.0 (20240519.1550)
 -->
<!-- Title: Example Pages: 1 -->
<svg width="216pt" height="332pt"
 viewBox="0.00 0.00 215.75 332.00" xmlns="http://www.w3.org/2000/svg" xmlns:xlink="http://www.w3.org/1999/xlink">
<g id="graph0" class="graph" transform="scale(1 1) rotate(0) translate(4 328)">
<title>Example</title>
<polygon fill="none" stroke="none" points="-4,4 -4,-328 211.75,-328 211.75,4 -4,4"/>
<!-- AIRPLANE -->
<g id="node1" class="node">
<title>AIRPLANE</title>
<polygon fill="powderblue" stroke="royalblue" points="85.75,-108 0,-108 0,-72 85.75,-72 85.75,-108"/>
<text text-anchor="middle" x="42.88" y="-85.33" font-family="sans" font-size="14.00">AIRPLANE</text>
</g>
<!-- a380 -->
<g id="node2" class="node">
<title>a380</title>
<polygon fill="powderblue" stroke="royalblue" points="69.88,-36 15.88,-36 15.88,0 69.88,0 69.88,-36"/>
<text text-anchor="middle" x="42.88" y="-13.32" font-family="sans" font-size="14.00">a380</text>
</g>
<!-- AIRPLANE&#45;&gt;a380 -->
<g id="edge1" class="edge">
<title>AIRPLANE&#45;&gt;a380</title>
<path fill="none" stroke="royalblue" d="M42.88,-71.7C42.88,-64.41 42.88,-55.73 42.88,-47.54"/>
<polygon fill="royalblue" stroke="royalblue" points="46.38,-47.62 42.88,-37.62 39.38,-47.62 46.38,-47.62"/>
</g>
<!-- HELICOPTER -->
<g id="node3" class="node">
<title>HELICOPTER</title>
<polygon fill="powderblue" stroke="royalblue" points="207.75,-108 104,-108 104,-72 207.75,-72 207.75,-108"/>
<text text-anchor="middle" x="155.88" y="-85.33" font-family="sans" font-size="14.00">HELICOPTER</text>
</g>
<!-- r44 -->
<g id="node4" class="node">
<title>r44</title>
<polygon fill="powderblue" stroke="royalblue" points="182.88,-36 128.88,-36 128.88,0 182.88,0 182.88,-36"/>
<text text-anchor="middle" x="155.88" y="-13.32" font-family="sans" font-size="14.00">r44</text>
</g>
<!-- HELICOPTER&#45;&gt;r44 -->
<g id="edge2" class="edge">
<title>HELICOPTER&#45;&gt;r44</title>
<path fill="none" stroke="royalblue" d="M155.88,-71.7C155.88,-64.41 155.88,-55.73 155.88,-47.54"/>
<polygon fill="royalblue" stroke="royalblue" points="159.38,-47.62 155.88,-37.62 152.38,-47.62 159.38,-47.62"/>
</g>
<!-- root -->
<g id="node5" class="node">
<title>root</title>
<polygon fill="powderblue" stroke="royalblue" points="125.88,-324 71.88,-324 71.88,-288 125.88,-288 125.88,-324"/>
<text text-anchor="middle" x="98.88" y="-301.32" font-family="sans" font-size="14.00">root</text>
</g>
<!-- VEHICLE -->
<g id="node6" class="node">
<title>VEHICLE</title>
<polygon fill="powderblue" stroke="royalblue" points="136.88,-252 60.88,-252 60.88,-216 136.88,-216 136.88,-252"/>
<text text-anchor="middle" x="98.88" y="-229.32" font-family="sans" font-size="14.00">VEHICLE</text>
</g>
<!-- root&#45;&gt;VEHICLE -->
<g id="edge3" class="edge">
<title>root&#45;&gt;VEHICLE</title>
<path fill="none" stroke="royalblue" d="M98.88,-287.7C98.88,-280.41 98.88,-271.73 98.88,-263.54"/>
<polygon fill="royalblue" stroke="royalblue" points="102.38,-263.62 98.88,-253.62 95.38,-263.62 102.38,-263.62"/>
</g>
<!-- AIR_VEHICLE -->
<g id="node7" class="node">
<title>AIR_VEHICLE</title>
<polygon fill="powderblue" stroke="royalblue" points="152.25,-180 45.5,-180 45.5,-144 152.25,-144 152.25,-180"/>
<text text-anchor="middle" x="98.88" y="-157.32" font-family="sans" font-size="14.00">AIR_VEHICLE</text>
</g>
<!-- VEHICLE&#45;&gt;AIR_VEHICLE -->
<g id="edge4" class="edge">
<title>VEHICLE&#45;&gt;AIR_VEHICLE</title>
<path fill="none" stroke="royalblue" d="M98.88,-215.7C98.88,-208.41 98.88,-199.73 98.88,-191.54"/>
<polygon fill="royalblue" stroke="royalblue" points="102.38,-191.62 98.88,-181.62 95.38,-191.62 102.38,-191.62"/>
</g>
<!-- AIR_VEHICLE&#45;&gt;AIRPLANE -->
<g id="edge5" class="edge">
<title>AIR_VEHICLE&#45;&gt;AIRPLANE</title>
<path fill="none" stroke="royalblue" d="M85.03,-143.7C78.59,-135.64 70.79,-125.89 63.66,-116.98"/>
<polygon fill="royalblue" stroke="royalblue" points="66.48,-114.91 57.5,-109.29 61.02,-119.28 66.48,-114.91"/>
</g>
<!-- AIR_VEHICLE&#45;&gt;HELICOPTER -->
<g id="edge6" class="edge">
<title>AIR_VEHICLE&#45;&gt;HELICOPTER</title>
<path fill="none" stroke="royalblue" d="M112.96,-143.7C119.52,-135.64 127.46,-125.89 134.72,-116.98"/>
<polygon fill="royalblue" stroke="royalblue" points="137.39,-119.24 140.99,-109.28 131.96,-114.82 137.39,-119.24"/>
</g>
</g>
</svg>
