<?xml version="1.0" encoding="UTF-8" standalone="no"?>
<!DOCTYPE svg PUBLIC "-//W3C//DTD SVG 1.1//EN"
 "http://www.w3.org/Graphics/SVG/1.1/DTD/svg11.dtd">
<!-- Generated by graphviz version 14.0.5 (20251129.0827)
 -->
<!-- Title: Mini_Cylc Pages: 1 -->
<svg width="186pt" height="260pt"
 viewBox="0.00 0.00 186.00 260.00" xmlns="http://www.w3.org/2000/svg" xmlns:xlink="http://www.w3.org/1999/xlink">
<g id="graph0" class="graph" transform="scale(1 1) rotate(0) translate(4 256)">
<title>Mini_Cylc</title>
<polygon fill="none" stroke="none" points="-4,4 -4,-256 182.18,-256 182.18,4 -4,4"/>
<!-- bake_bread -->
<g id="node1" class="node">
<title>bake_bread</title>
<ellipse fill="none" stroke="black" cx="89.09" cy="-90" rx="66.99" ry="18"/>
<text xml:space="preserve" text-anchor="middle" x="89.09" y="-85.33" font-family="sans" font-size="14.00">bake_bread</text>
</g>
<!-- sell_bread -->
<g id="node2" class="node">
<title>sell_bread</title>
<ellipse fill="none" stroke="black" cx="89.09" cy="-18" rx="60.15" ry="18"/>
<text xml:space="preserve" text-anchor="middle" x="89.09" y="-13.32" font-family="sans" font-size="14.00">sell_bread</text>
</g>
<!-- bake_bread&#45;&gt;sell_bread -->
<g id="edge1" class="edge">
<title>bake_bread&#45;&gt;sell_bread</title>
<path fill="none" stroke="black" d="M89.09,-71.7C89.09,-64.41 89.09,-55.73 89.09,-47.54"/>
<polygon fill="black" stroke="black" points="92.59,-47.62 89.09,-37.62 85.59,-47.62 92.59,-47.62"/>
</g>
<!-- make_dough -->
<g id="node3" class="node">
<title>make_dough</title>
<ellipse fill="none" stroke="black" cx="89.09" cy="-162" rx="73.3" ry="18"/>
<text xml:space="preserve" text-anchor="middle" x="89.09" y="-157.32" font-family="sans" font-size="14.00">make_dough</text>
</g>
<!-- make_dough&#45;&gt;bake_bread -->
<g id="edge2" class="edge">
<title>make_dough&#45;&gt;bake_bread</title>
<path fill="none" stroke="black" d="M89.09,-143.7C89.09,-136.41 89.09,-127.73 89.09,-119.54"/>
<polygon fill="black" stroke="black" points="92.59,-119.62 89.09,-109.62 85.59,-119.62 92.59,-119.62"/>
</g>
<!-- buy_ingredients -->
<g id="node4" class="node">
<title>buy_ingredients</title>
<ellipse fill="none" stroke="black" cx="89.09" cy="-234" rx="89.09" ry="18"/>
<text xml:space="preserve" text-anchor="middle" x="89.09" y="-229.32" font-family="sans" font-size="14.00">buy_ingredients</text>
</g>
<!-- buy_ingredients&#45;&gt;make_dough -->
<g id="edge3" class="edge">
<title>buy_ingredients&#45;&gt;make_dough</title>
<path fill="none" stroke="black" d="M89.09,-215.7C89.09,-208.41 89.09,-199.73 89.09,-191.54"/>
<polygon fill="black" stroke="black" points="92.59,-191.62 89.09,-181.62 85.59,-191.62 92.59,-191.62"/>
</g>
</g>
</svg>
