<?xml version="1.0" encoding="UTF-8" standalone="no"?>
<!DOCTYPE svg PUBLIC "-//W3C//DTD SVG 1.1//EN"
 "http://www.w3.org/Graphics/SVG/1.1/DTD/svg11.dtd">
<!-- Generated by graphviz version 14.0.5 (20251129.0827)
 -->
<!-- Title: example Pages: 1 -->
<svg width="504pt" height="90pt"
 viewBox="0.00 0.00 504.00 90.00" xmlns="http://www.w3.org/2000/svg" xmlns:xlink="http://www.w3.org/1999/xlink">
<g id="graph0" class="graph" transform="scale(0.480542 0.480542) rotate(0) translate(4 184)">
<title>example</title>
<polygon fill="none" stroke="none" points="-4,4 -4,-184 1044.82,-184 1044.82,4 -4,4"/>
<!-- get_observations_aldergrove -->
<g id="node1" class="node">
<title>get_observations_aldergrove</title>
<ellipse fill="none" stroke="black" cx="150.64" cy="-162" rx="150.64" ry="18"/>
<text xml:space="preserve" text-anchor="middle" x="150.64" y="-157.32" font-family="sans" font-size="14.00">get_observations_aldergrove</text>
</g>
<!-- consolidate_observations -->
<g id="node2" class="node">
<title>consolidate_observations</title>
<ellipse fill="none" stroke="black" cx="423.64" cy="-18" rx="133.81" ry="18"/>
<text xml:space="preserve" text-anchor="middle" x="423.64" y="-13.32" font-family="sans" font-size="14.00">consolidate_observations</text>
</g>
<!-- get_observations_aldergrove&#45;&gt;consolidate_observations -->
<g id="edge1" class="edge">
<title>get_observations_aldergrove&#45;&gt;consolidate_observations</title>
<path fill="none" stroke="black" d="M176.07,-143.86C204.68,-124.97 252.87,-94.31 296.64,-72 319.89,-60.15 346.41,-48.77 369.19,-39.61"/>
<polygon fill="black" stroke="black" points="370.29,-42.93 378.29,-35.99 367.71,-36.43 370.29,-42.93"/>
</g>
<!-- hidden -->
<!-- get_observations_aldergrove&#45;&gt;hidden -->
<!-- get_observations_camborne -->
<g id="node3" class="node">
<title>get_observations_camborne</title>
<ellipse fill="none" stroke="black" cx="466.64" cy="-162" rx="147.49" ry="18"/>
<text xml:space="preserve" text-anchor="middle" x="466.64" y="-157.32" font-family="sans" font-size="14.00">get_observations_camborne</text>
</g>
<!-- get_observations_camborne&#45;&gt;consolidate_observations -->
<g id="edge2" class="edge">
<title>get_observations_camborne&#45;&gt;consolidate_observations</title>
<path fill="none" stroke="black" d="M457.67,-143.71C452.68,-133.53 446.68,-120.28 442.64,-108 436.15,-88.24 431.31,-65.28 428.14,-47.62"/>
<polygon fill="black" stroke="black" points="431.6,-47.11 426.47,-37.84 424.7,-48.29 431.6,-47.11"/>
</g>
<!-- get_observations_camborne&#45;&gt;hidden -->
<!-- get_observations_heathrow -->
<g id="node4" class="node">
<title>get_observations_heathrow</title>
<ellipse fill="none" stroke="black" cx="595.64" cy="-90" rx="144.33" ry="18"/>
<text xml:space="preserve" text-anchor="middle" x="595.64" y="-85.33" font-family="sans" font-size="14.00">get_observations_heathrow</text>
</g>
<!-- get_observations_heathrow&#45;&gt;consolidate_observations -->
<g id="edge3" class="edge">
<title>get_observations_heathrow&#45;&gt;consolidate_observations</title>
<path fill="none" stroke="black" d="M554.88,-72.41C530.98,-62.68 500.55,-50.3 475.02,-39.91"/>
<polygon fill="black" stroke="black" points="476.39,-36.69 465.81,-36.16 473.75,-43.17 476.39,-36.69"/>
</g>
<!-- get_observations_shetland -->
<g id="node5" class="node">
<title>get_observations_shetland</title>
<ellipse fill="none" stroke="black" cx="899.64" cy="-90" rx="141.17" ry="18"/>
<text xml:space="preserve" text-anchor="middle" x="899.64" y="-85.33" font-family="sans" font-size="14.00">get_observations_shetland</text>
</g>
<!-- get_observations_shetland&#45;&gt;consolidate_observations -->
<g id="edge4" class="edge">
<title>get_observations_shetland&#45;&gt;consolidate_observations</title>
<path fill="none" stroke="black" d="M809.55,-75.75C727.78,-63.73 607.42,-46.03 522.92,-33.6"/>
<polygon fill="black" stroke="black" points="523.66,-30.17 513.25,-32.18 522.64,-37.1 523.66,-30.17"/>
</g>
<!-- hidden&#45;&gt;consolidate_observations -->
</g>
</svg>
