<?xml version="1.0" encoding="UTF-8" standalone="no"?>
<!DOCTYPE svg PUBLIC "-//W3C//DTD SVG 1.1//EN"
 "http://www.w3.org/Graphics/SVG/1.1/DTD/svg11.dtd">
<!-- Generated by graphviz version 14.0.4 (20251117.0720)
 -->
<!-- Title: Example Pages: 1 -->
<svg width="127pt" height="260pt"
 viewBox="0.00 0.00 127.00 260.00" xmlns="http://www.w3.org/2000/svg" xmlns:xlink="http://www.w3.org/1999/xlink">
<g id="graph0" class="graph" transform="scale(1 1) rotate(0) translate(4 256)">
<title>Example</title>
<polygon fill="none" stroke="none" points="-4,4 -4,-256 123,-256 123,4 -4,4"/>
<!-- a -->
<g id="node1" class="node">
<title>a</title>
<ellipse fill="none" stroke="black" cx="92" cy="-234" rx="27" ry="18"/>
<text xml:space="preserve" text-anchor="middle" x="92" y="-229.32" font-family="sans" font-size="14.00">a</text>
</g>
<!-- b -->
<g id="node2" class="node">
<title>b</title>
<ellipse fill="none" stroke="black" cx="65" cy="-162" rx="27" ry="18"/>
<text xml:space="preserve" text-anchor="middle" x="65" y="-157.32" font-family="sans" font-size="14.00">b</text>
</g>
<!-- a&#45;&gt;b -->
<g id="edge1" class="edge">
<title>a&#45;&gt;b</title>
<path fill="none" stroke="black" d="M85.46,-216.05C82.48,-208.32 78.87,-198.96 75.52,-190.27"/>
<polygon fill="black" stroke="black" points="78.88,-189.27 72.02,-181.2 72.35,-191.79 78.88,-189.27"/>
</g>
<!-- end -->
<g id="node4" class="node">
<title>end</title>
<ellipse fill="none" stroke="black" cx="82" cy="-18" rx="29.64" ry="18"/>
<text xml:space="preserve" text-anchor="middle" x="82" y="-13.32" font-family="sans" font-size="14.00">end</text>
</g>
<!-- a&#45;&gt;end -->
<g id="edge3" class="edge">
<title>a&#45;&gt;end</title>
<path fill="none" stroke="black" stroke-dasharray="5,2" d="M95.65,-215.91C97.68,-205.57 99.98,-192.09 101,-180 104.94,-133.25 95.69,-79.11 88.76,-47.04"/>
<polygon fill="none" stroke="black" points="92.19,-46.35 86.58,-37.36 85.36,-47.88 92.19,-46.35"/>
</g>
<!-- c -->
<g id="node3" class="node">
<title>c</title>
<ellipse fill="none" stroke="black" cx="27" cy="-90" rx="27" ry="18"/>
<text xml:space="preserve" text-anchor="middle" x="27" y="-85.33" font-family="sans" font-size="14.00">c</text>
</g>
<!-- b&#45;&gt;c -->
<g id="edge2" class="edge">
<title>b&#45;&gt;c</title>
<path fill="none" stroke="black" d="M56.19,-144.76C51.73,-136.55 46.2,-126.37 41.16,-117.09"/>
<polygon fill="black" stroke="black" points="44.33,-115.6 36.49,-108.48 38.18,-118.94 44.33,-115.6"/>
</g>
<!-- b&#45;&gt;end -->
<g id="edge4" class="edge">
<title>b&#45;&gt;end</title>
<path fill="none" stroke="black" stroke-dasharray="5,2" d="M67.08,-143.59C69.95,-119.61 75.16,-76.14 78.6,-47.42"/>
<polygon fill="none" stroke="black" points="82.06,-47.96 79.77,-37.61 75.11,-47.13 82.06,-47.96"/>
</g>
<!-- c&#45;&gt;end -->
<g id="edge5" class="edge">
<title>c&#45;&gt;end</title>
<path fill="none" stroke="black" stroke-dasharray="5,2" d="M39.21,-73.46C46.11,-64.67 54.91,-53.48 62.73,-43.53"/>
<polygon fill="none" stroke="black" points="65.47,-45.71 68.89,-35.68 59.96,-41.38 65.47,-45.71"/>
</g>
</g>
</svg>
