<?xml version="1.0" encoding="UTF-8" standalone="no"?>
<!DOCTYPE svg PUBLIC "-//W3C//DTD SVG 1.1//EN"
 "http://www.w3.org/Graphics/SVG/1.1/DTD/svg11.dtd">
<!-- Generated by graphviz version 14.0.5 (20251129.0827)
 -->
<!-- Title: Example Pages: 1 -->
<svg width="360pt" height="65pt"
 viewBox="0.00 0.00 360.00 65.00" xmlns="http://www.w3.org/2000/svg" xmlns:xlink="http://www.w3.org/1999/xlink">
<g id="graph0" class="graph" transform="scale(0.558399 0.558399) rotate(0) translate(4 112)">
<title>Example</title>
<polygon fill="none" stroke="none" points="-4,4 -4,-112 640.7,-112 640.7,4 -4,4"/>
<!-- ENGINE -->
<g id="node1" class="node">
<title>ENGINE</title>
<polygon fill="powderblue" stroke="royalblue" points="371.7,-108 274.5,-108 274.5,-72 371.7,-72 371.7,-108"/>
<text xml:space="preserve" text-anchor="middle" x="323.1" y="-85.33" font-family="sans" font-size="14.00">ENGINE</text>
</g>
<!-- TURBINE_ENGINE -->
<g id="node2" class="node">
<title>TURBINE_ENGINE</title>
<polygon fill="powderblue" stroke="royalblue" points="166.2,-36 0,-36 0,0 166.2,0 166.2,-36"/>
<text xml:space="preserve" text-anchor="middle" x="83.1" y="-13.32" font-family="sans" font-size="14.00">TURBINE_ENGINE</text>
</g>
<!-- ENGINE&#45;&gt;TURBINE_ENGINE -->
<g id="edge1" class="edge">
<title>ENGINE&#45;&gt;TURBINE_ENGINE</title>
<path fill="none" stroke="black" d="M274.24,-74.75C239.54,-64.63 192.42,-50.88 153.64,-39.57"/>
<polygon fill="black" stroke="black" points="154.98,-36.32 144.4,-36.88 153.02,-43.04 154.98,-36.32"/>
</g>
<!-- INTERNAL_COMBUSTION_ENGINE -->
<g id="node3" class="node">
<title>INTERNAL_COMBUSTION_ENGINE</title>
<polygon fill="powderblue" stroke="royalblue" points="461.7,-36 184.5,-36 184.5,0 461.7,0 461.7,-36"/>
<text xml:space="preserve" text-anchor="middle" x="323.1" y="-13.32" font-family="sans" font-size="14.00">INTERNAL_COMBUSTION_ENGINE</text>
</g>
<!-- ENGINE&#45;&gt;INTERNAL_COMBUSTION_ENGINE -->
<g id="edge2" class="edge">
<title>ENGINE&#45;&gt;INTERNAL_COMBUSTION_ENGINE</title>
<path fill="none" stroke="black" d="M323.1,-71.7C323.1,-64.41 323.1,-55.73 323.1,-47.54"/>
<polygon fill="black" stroke="black" points="326.6,-47.62 323.1,-37.62 319.6,-47.62 326.6,-47.62"/>
</g>
<!-- HUMAN_ENGINE -->
<g id="node4" class="node">
<title>HUMAN_ENGINE</title>
<polygon fill="powderblue" stroke="royalblue" points="636.7,-36 479.5,-36 479.5,0 636.7,0 636.7,-36"/>
<text xml:space="preserve" text-anchor="middle" x="558.1" y="-13.32" font-family="sans" font-size="14.00">HUMAN_ENGINE</text>
</g>
<!-- ENGINE&#45;&gt;HUMAN_ENGINE -->
<g id="edge3" class="edge">
<title>ENGINE&#45;&gt;HUMAN_ENGINE</title>
<path fill="none" stroke="black" d="M372.08,-74.41C405.87,-64.35 451.28,-50.82 488.78,-39.65"/>
<polygon fill="black" stroke="black" points="489.6,-43.06 498.18,-36.85 487.6,-36.35 489.6,-43.06"/>
</g>
</g>
</svg>
