<?xml version="1.0" encoding="UTF-8" standalone="no"?>
<!DOCTYPE svg PUBLIC "-//W3C//DTD SVG 1.1//EN"
 "http://www.w3.org/Graphics/SVG/1.1/DTD/svg11.dtd">
<!-- Generated by graphviz version 14.0.5 (20251129.0827)
 -->
<!-- Title: Example Pages: 1 -->
<svg width="334pt" height="203pt"
 viewBox="0.00 0.00 334.00 203.00" xmlns="http://www.w3.org/2000/svg" xmlns:xlink="http://www.w3.org/1999/xlink">
<g id="graph0" class="graph" transform="scale(1 1) rotate(0) translate(4 199)">
<title>Example</title>
<polygon fill="none" stroke="none" points="-4,4 -4,-199 330.38,-199 330.38,4 -4,4"/>
<g id="clust1" class="cluster">
<title>cluster_1</title>
<polygon fill="none" stroke="red" stroke-dasharray="5,2" points="129.72,-110 129.72,-187 321.22,-187 321.22,-110 129.72,-110"/>
<text xml:space="preserve" text-anchor="middle" x="225.47" y="-169.7" font-family="sans" font-size="14.00" fill="red">one:failed AND two:failed</text>
</g>
<g id="clust2" class="cluster">
<title>cluster_2</title>
<polygon fill="none" stroke="orange" stroke-dasharray="5,2" points="151.1,-8 151.1,-85 299.85,-85 299.85,-8 151.1,-8"/>
<text xml:space="preserve" text-anchor="middle" x="225.47" y="-67.7" font-family="sans" font-size="14.00" fill="orange">both tasks finished</text>
</g>
<!-- one -->
<g id="node1" class="node">
<title>one</title>
<ellipse fill="none" stroke="black" cx="29.11" cy="-118" rx="29.11" ry="18"/>
<text xml:space="preserve" text-anchor="middle" x="29.11" y="-113.33" font-family="sans" font-size="14.00">one</text>
</g>
<!-- run_if_both_fail -->
<g id="node2" class="node">
<title>run_if_both_fail</title>
<ellipse fill="none" stroke="black" cx="224.97" cy="-136" rx="85.41" ry="18"/>
<text xml:space="preserve" text-anchor="middle" x="224.97" y="-131.32" font-family="sans" font-size="14.00">run_if_both_fail</text>
</g>
<!-- one&#45;&gt;run_if_both_fail -->
<g id="edge1" class="edge">
<title>one&#45;&gt;run_if_both_fail</title>
<path fill="none" stroke="red" d="M57.9,-121.11C63.94,-121.75 70.29,-122.42 76.22,-123 94.77,-124.82 114.65,-126.65 133.61,-128.34"/>
<polygon fill="red" stroke="red" points="133.19,-131.82 143.46,-129.21 133.81,-124.85 133.19,-131.82"/>
<text xml:space="preserve" text-anchor="middle" x="97.97" y="-130.78" font-family="Times,serif" font-size="14.00" fill="red">:fail?</text>
</g>
<!-- always_run -->
<g id="node4" class="node">
<title>always_run</title>
<ellipse fill="none" stroke="black" cx="224.97" cy="-34" rx="65.94" ry="18"/>
<text xml:space="preserve" text-anchor="middle" x="224.97" y="-29.32" font-family="sans" font-size="14.00">always_run</text>
</g>
<!-- one&#45;&gt;always_run -->
<g id="edge3" class="edge">
<title>one&#45;&gt;always_run</title>
<path fill="none" stroke="orange" d="M54.63,-108.93C72.74,-102.11 97.93,-92.36 119.72,-83 140.25,-74.18 162.71,-63.73 181.51,-54.75"/>
<polygon fill="orange" stroke="orange" points="182.96,-57.93 190.46,-50.45 179.93,-51.62 182.96,-57.93"/>
<text xml:space="preserve" text-anchor="middle" x="97.97" y="-103.84" font-family="Times,serif" font-size="14.00" fill="orange">:finish</text>
</g>
<!-- two -->
<g id="node3" class="node">
<title>two</title>
<ellipse fill="none" stroke="black" cx="29.11" cy="-51" rx="28.59" ry="18"/>
<text xml:space="preserve" text-anchor="middle" x="29.11" y="-46.33" font-family="sans" font-size="14.00">two</text>
</g>
<!-- two&#45;&gt;run_if_both_fail -->
<g id="edge2" class="edge">
<title>two&#45;&gt;run_if_both_fail</title>
<path fill="none" stroke="red" d="M57.21,-47.28C76.61,-46.15 102.27,-47.95 119.72,-61.75 129.84,-69.75 121.12,-79.39 129.72,-89 139.73,-100.18 153.01,-109.03 166.43,-115.88"/>
<polygon fill="red" stroke="red" points="164.77,-118.97 175.31,-120.09 167.77,-112.64 164.77,-118.97"/>
<text xml:space="preserve" text-anchor="middle" x="97.97" y="-65.7" font-family="Times,serif" font-size="14.00" fill="red">:fail?</text>
</g>
<!-- two&#45;&gt;always_run -->
<g id="edge4" class="edge">
<title>two&#45;&gt;always_run</title>
<path fill="none" stroke="orange" d="M48.95,-37.89C56.97,-33.07 66.67,-28.19 76.22,-25.75 103,-18.9 133.36,-19.26 159.57,-21.99"/>
<polygon fill="orange" stroke="orange" points="159.06,-25.45 169.4,-23.16 159.89,-18.5 159.06,-25.45"/>
<text xml:space="preserve" text-anchor="middle" x="97.97" y="-29.7" font-family="Times,serif" font-size="14.00" fill="orange">:finish</text>
</g>
</g>
</svg>
