<?xml version="1.0" encoding="UTF-8" standalone="no"?>
<!DOCTYPE svg PUBLIC "-//W3C//DTD SVG 1.1//EN"
 "http://www.w3.org/Graphics/SVG/1.1/DTD/svg11.dtd">
<!-- Generated by graphviz version 14.0.4 (20251117.0720)
 -->
<!-- Title: example Pages: 1 -->
<svg width="324pt" height="568pt"
 viewBox="0.00 0.00 324.00 568.00" xmlns="http://www.w3.org/2000/svg" xmlns:xlink="http://www.w3.org/1999/xlink">
<g id="graph0" class="graph" transform="scale(0.439024 0.439024) rotate(0) translate(4 1290.35)">
<title>example</title>
<polygon fill="none" stroke="none" points="-4,4 -4,-1290.35 734,-1290.35 734,4 -4,4"/>
<g id="clust1" class="cluster">
<title>cluster_1</title>
<polygon fill="none" stroke="black" stroke-dasharray="5,2" points="8,-883.44 8,-1278.35 354,-1278.35 354,-883.44 8,-883.44"/>
<text xml:space="preserve" text-anchor="middle" x="181" y="-1261.05" font-family="sans" font-size="14.00">1</text>
</g>
<g id="clust2" class="cluster">
<title>cluster_2</title>
<polygon fill="none" stroke="black" stroke-dasharray="5,2" points="376,-589.87 376,-984.79 722,-984.79 722,-589.87 376,-589.87"/>
<text xml:space="preserve" text-anchor="middle" x="549" y="-967.49" font-family="sans" font-size="14.00">2</text>
</g>
<g id="clust3" class="cluster">
<title>cluster_3</title>
<polygon fill="none" stroke="black" stroke-dasharray="5,2" points="22,-296.31 22,-691.23 368,-691.23 368,-296.31 22,-296.31"/>
<text xml:space="preserve" text-anchor="middle" x="195" y="-673.93" font-family="sans" font-size="14.00">3</text>
</g>
<g id="clust4" class="cluster">
<title>cluster_4</title>
<polygon fill="none" stroke="black" stroke-dasharray="5,2" points="376,-8 376,-397.67 722,-397.67 722,-8 376,-8"/>
<text xml:space="preserve" text-anchor="middle" x="549" y="-380.37" font-family="sans" font-size="14.00">4</text>
</g>
<!-- 1/pur -->
<g id="node1" class="node">
<title>1/pur</title>
<ellipse fill="none" stroke="black" cx="106" cy="-1215.05" rx="89.8" ry="30.05"/>
<text xml:space="preserve" text-anchor="middle" x="106" y="-1219" font-family="sans" font-size="14.00">buy_ingredients</text>
<text xml:space="preserve" text-anchor="middle" x="106" y="-1201.75" font-family="sans" font-size="14.00">1</text>
</g>
<!-- 1/mak -->
<g id="node2" class="node">
<title>1/mak</title>
<ellipse fill="none" stroke="black" cx="90" cy="-1118.95" rx="73.89" ry="30.05"/>
<text xml:space="preserve" text-anchor="middle" x="90" y="-1122.9" font-family="sans" font-size="14.00">make_dough</text>
<text xml:space="preserve" text-anchor="middle" x="90" y="-1105.65" font-family="sans" font-size="14.00">1</text>
</g>
<!-- 1/pur&#45;&gt;1/mak -->
<g id="edge1" class="edge">
<title>1/pur&#45;&gt;1/mak</title>
<path fill="none" stroke="black" d="M101.03,-1184.79C99.72,-1177.09 98.28,-1168.64 96.89,-1160.47"/>
<polygon fill="black" stroke="black" points="100.35,-1159.95 95.23,-1150.68 93.45,-1161.13 100.35,-1159.95"/>
</g>
<!-- 1/bak -->
<g id="node3" class="node">
<title>1/bak</title>
<ellipse fill="none" stroke="black" cx="198" cy="-1022.84" rx="67.53" ry="30.05"/>
<text xml:space="preserve" text-anchor="middle" x="198" y="-1026.79" font-family="sans" font-size="14.00">bake_bread</text>
<text xml:space="preserve" text-anchor="middle" x="198" y="-1009.54" font-family="sans" font-size="14.00">1</text>
</g>
<!-- 1/mak&#45;&gt;1/bak -->
<g id="edge2" class="edge">
<title>1/mak&#45;&gt;1/bak</title>
<path fill="none" stroke="black" d="M120.66,-1091.23C132.72,-1080.72 146.7,-1068.54 159.43,-1057.45"/>
<polygon fill="black" stroke="black" points="161.63,-1060.18 166.87,-1050.97 157.03,-1054.9 161.63,-1060.18"/>
</g>
<!-- 1/sel -->
<g id="node4" class="node">
<title>1/sel</title>
<ellipse fill="none" stroke="black" cx="130" cy="-921.49" rx="60.63" ry="30.05"/>
<text xml:space="preserve" text-anchor="middle" x="130" y="-925.44" font-family="sans" font-size="14.00">sell_bread</text>
<text xml:space="preserve" text-anchor="middle" x="130" y="-908.19" font-family="sans" font-size="14.00">1</text>
</g>
<!-- 1/bak&#45;&gt;1/sel -->
<g id="edge3" class="edge">
<title>1/bak&#45;&gt;1/sel</title>
<path fill="none" stroke="black" d="M178.7,-993.64C171.46,-983.06 163.12,-970.87 155.41,-959.61"/>
<polygon fill="black" stroke="black" points="158.51,-957.94 149.97,-951.67 152.73,-961.9 158.51,-957.94"/>
</g>
<!-- 1/cle -->
<g id="node5" class="node">
<title>1/cle</title>
<ellipse fill="none" stroke="black" cx="279" cy="-921.49" rx="65.94" ry="30.05"/>
<text xml:space="preserve" text-anchor="middle" x="279" y="-925.44" font-family="sans" font-size="14.00">clean_oven</text>
<text xml:space="preserve" text-anchor="middle" x="279" y="-908.19" font-family="sans" font-size="14.00">1</text>
</g>
<!-- 1/bak&#45;&gt;1/cle -->
<g id="edge5" class="edge">
<title>1/bak&#45;&gt;1/cle</title>
<path fill="none" stroke="black" d="M220.56,-994.17C229.52,-983.19 239.93,-970.41 249.47,-958.71"/>
<polygon fill="black" stroke="black" points="252,-961.15 255.6,-951.19 246.57,-956.73 252,-961.15"/>
</g>
<!-- 3/pur -->
<g id="node13" class="node">
<title>3/pur</title>
<ellipse fill="none" stroke="black" cx="127" cy="-627.93" rx="89.8" ry="30.05"/>
<text xml:space="preserve" text-anchor="middle" x="127" y="-631.88" font-family="sans" font-size="14.00">buy_ingredients</text>
<text xml:space="preserve" text-anchor="middle" x="127" y="-614.63" font-family="sans" font-size="14.00">3</text>
</g>
<!-- 1/sel&#45;&gt;3/pur -->
<g id="edge7" class="edge">
<title>1/sel&#45;&gt;3/pur</title>
<path fill="none" stroke="black" d="M129.7,-891.2C129.16,-838.81 128.03,-728.97 127.42,-669.41"/>
<polygon fill="black" stroke="black" points="130.92,-669.67 127.32,-659.71 123.92,-669.75 130.92,-669.67"/>
</g>
<!-- 2/pre -->
<g id="node12" class="node">
<title>2/pre</title>
<ellipse fill="none" stroke="black" cx="466" cy="-825.38" rx="82.38" ry="30.05"/>
<text xml:space="preserve" text-anchor="middle" x="466" y="-829.33" font-family="sans" font-size="14.00">pre_heat_oven</text>
<text xml:space="preserve" text-anchor="middle" x="466" y="-812.08" font-family="sans" font-size="14.00">2</text>
</g>
<!-- 1/cle&#45;&gt;2/pre -->
<g id="edge6" class="edge">
<title>1/cle&#45;&gt;2/pre</title>
<path fill="none" stroke="black" d="M322.37,-898.66C348.03,-885.75 380.84,-869.24 408.62,-855.26"/>
<polygon fill="black" stroke="black" points="409.89,-858.54 417.25,-850.92 406.74,-852.29 409.89,-858.54"/>
</g>
<!-- 1/pre -->
<g id="node6" class="node">
<title>1/pre</title>
<ellipse fill="none" stroke="black" cx="264" cy="-1118.95" rx="82.38" ry="30.05"/>
<text xml:space="preserve" text-anchor="middle" x="264" y="-1122.9" font-family="sans" font-size="14.00">pre_heat_oven</text>
<text xml:space="preserve" text-anchor="middle" x="264" y="-1105.65" font-family="sans" font-size="14.00">1</text>
</g>
<!-- 1/pre&#45;&gt;1/bak -->
<g id="edge4" class="edge">
<title>1/pre&#45;&gt;1/bak</title>
<path fill="none" stroke="black" d="M244.02,-1089.46C237.76,-1080.53 230.75,-1070.54 224.13,-1061.11"/>
<polygon fill="black" stroke="black" points="227.16,-1059.33 218.56,-1053.15 221.43,-1063.35 227.16,-1059.33"/>
</g>
<!-- 2/pur -->
<g id="node7" class="node">
<title>2/pur</title>
<ellipse fill="none" stroke="black" cx="624" cy="-921.49" rx="89.8" ry="30.05"/>
<text xml:space="preserve" text-anchor="middle" x="624" y="-925.44" font-family="sans" font-size="14.00">buy_ingredients</text>
<text xml:space="preserve" text-anchor="middle" x="624" y="-908.19" font-family="sans" font-size="14.00">2</text>
</g>
<!-- 2/mak -->
<g id="node8" class="node">
<title>2/mak</title>
<ellipse fill="none" stroke="black" cx="640" cy="-825.38" rx="73.89" ry="30.05"/>
<text xml:space="preserve" text-anchor="middle" x="640" y="-829.33" font-family="sans" font-size="14.00">make_dough</text>
<text xml:space="preserve" text-anchor="middle" x="640" y="-812.08" font-family="sans" font-size="14.00">2</text>
</g>
<!-- 2/pur&#45;&gt;2/mak -->
<g id="edge8" class="edge">
<title>2/pur&#45;&gt;2/mak</title>
<path fill="none" stroke="black" d="M628.97,-891.23C630.28,-883.53 631.72,-875.08 633.11,-866.9"/>
<polygon fill="black" stroke="black" points="636.55,-867.56 634.77,-857.12 629.65,-866.39 636.55,-867.56"/>
</g>
<!-- 2/bak -->
<g id="node9" class="node">
<title>2/bak</title>
<ellipse fill="none" stroke="black" cx="536" cy="-729.28" rx="67.53" ry="30.05"/>
<text xml:space="preserve" text-anchor="middle" x="536" y="-733.23" font-family="sans" font-size="14.00">bake_bread</text>
<text xml:space="preserve" text-anchor="middle" x="536" y="-715.98" font-family="sans" font-size="14.00">2</text>
</g>
<!-- 2/mak&#45;&gt;2/bak -->
<g id="edge9" class="edge">
<title>2/mak&#45;&gt;2/bak</title>
<path fill="none" stroke="black" d="M610.2,-797.42C598.8,-787.1 585.65,-775.2 573.61,-764.32"/>
<polygon fill="black" stroke="black" points="575.97,-761.73 566.21,-757.62 571.28,-766.92 575.97,-761.73"/>
</g>
<!-- 2/sel -->
<g id="node10" class="node">
<title>2/sel</title>
<ellipse fill="none" stroke="black" cx="606" cy="-627.93" rx="60.63" ry="30.05"/>
<text xml:space="preserve" text-anchor="middle" x="606" y="-631.88" font-family="sans" font-size="14.00">sell_bread</text>
<text xml:space="preserve" text-anchor="middle" x="606" y="-614.63" font-family="sans" font-size="14.00">2</text>
</g>
<!-- 2/bak&#45;&gt;2/sel -->
<g id="edge10" class="edge">
<title>2/bak&#45;&gt;2/sel</title>
<path fill="none" stroke="black" d="M555.87,-700.08C563.39,-689.41 572.06,-677.11 580.05,-665.76"/>
<polygon fill="black" stroke="black" points="582.79,-667.94 585.69,-657.75 577.07,-663.91 582.79,-667.94"/>
</g>
<!-- 2/cle -->
<g id="node11" class="node">
<title>2/cle</title>
<ellipse fill="none" stroke="black" cx="457" cy="-627.93" rx="65.94" ry="30.05"/>
<text xml:space="preserve" text-anchor="middle" x="457" y="-631.88" font-family="sans" font-size="14.00">clean_oven</text>
<text xml:space="preserve" text-anchor="middle" x="457" y="-614.63" font-family="sans" font-size="14.00">2</text>
</g>
<!-- 2/bak&#45;&gt;2/cle -->
<g id="edge12" class="edge">
<title>2/bak&#45;&gt;2/cle</title>
<path fill="none" stroke="black" d="M513.99,-700.6C505.26,-689.62 495.1,-676.85 485.8,-665.14"/>
<polygon fill="black" stroke="black" points="488.79,-663.29 479.83,-657.64 483.31,-667.64 488.79,-663.29"/>
</g>
<!-- 4/pur -->
<g id="node19" class="node">
<title>4/pur</title>
<ellipse fill="none" stroke="black" cx="622" cy="-334.36" rx="89.8" ry="30.05"/>
<text xml:space="preserve" text-anchor="middle" x="622" y="-338.31" font-family="sans" font-size="14.00">buy_ingredients</text>
<text xml:space="preserve" text-anchor="middle" x="622" y="-321.06" font-family="sans" font-size="14.00">4</text>
</g>
<!-- 2/sel&#45;&gt;4/pur -->
<g id="edge14" class="edge">
<title>2/sel&#45;&gt;4/pur</title>
<path fill="none" stroke="black" d="M607.61,-597.64C610.48,-545.24 616.51,-435.41 619.78,-375.85"/>
<polygon fill="black" stroke="black" points="623.26,-376.32 620.31,-366.15 616.27,-375.94 623.26,-376.32"/>
</g>
<!-- 3/pre -->
<g id="node18" class="node">
<title>3/pre</title>
<ellipse fill="none" stroke="black" cx="278" cy="-531.82" rx="82.38" ry="30.05"/>
<text xml:space="preserve" text-anchor="middle" x="278" y="-535.77" font-family="sans" font-size="14.00">pre_heat_oven</text>
<text xml:space="preserve" text-anchor="middle" x="278" y="-518.52" font-family="sans" font-size="14.00">3</text>
</g>
<!-- 2/cle&#45;&gt;3/pre -->
<g id="edge13" class="edge">
<title>2/cle&#45;&gt;3/pre</title>
<path fill="none" stroke="black" d="M414.58,-604.63C390.58,-592.01 360.26,-576.07 334.28,-562.41"/>
<polygon fill="black" stroke="black" points="336.02,-559.37 325.54,-557.81 332.76,-565.56 336.02,-559.37"/>
</g>
<!-- 2/pre&#45;&gt;2/bak -->
<g id="edge11" class="edge">
<title>2/pre&#45;&gt;2/bak</title>
<path fill="none" stroke="black" d="M487.19,-795.89C493.83,-786.97 501.26,-776.98 508.28,-767.54"/>
<polygon fill="black" stroke="black" points="511.06,-769.68 514.22,-759.56 505.44,-765.5 511.06,-769.68"/>
</g>
<!-- 3/mak -->
<g id="node14" class="node">
<title>3/mak</title>
<ellipse fill="none" stroke="black" cx="104" cy="-531.82" rx="73.89" ry="30.05"/>
<text xml:space="preserve" text-anchor="middle" x="104" y="-535.77" font-family="sans" font-size="14.00">make_dough</text>
<text xml:space="preserve" text-anchor="middle" x="104" y="-518.52" font-family="sans" font-size="14.00">3</text>
</g>
<!-- 3/pur&#45;&gt;3/mak -->
<g id="edge15" class="edge">
<title>3/pur&#45;&gt;3/mak</title>
<path fill="none" stroke="black" d="M119.85,-597.67C117.94,-589.88 115.85,-581.32 113.83,-573.06"/>
<polygon fill="black" stroke="black" points="117.28,-572.42 111.51,-563.53 110.48,-574.08 117.28,-572.42"/>
</g>
<!-- 3/bak -->
<g id="node15" class="node">
<title>3/bak</title>
<ellipse fill="none" stroke="black" cx="213" cy="-435.72" rx="67.53" ry="30.05"/>
<text xml:space="preserve" text-anchor="middle" x="213" y="-439.67" font-family="sans" font-size="14.00">bake_bread</text>
<text xml:space="preserve" text-anchor="middle" x="213" y="-422.42" font-family="sans" font-size="14.00">3</text>
</g>
<!-- 3/mak&#45;&gt;3/bak -->
<g id="edge16" class="edge">
<title>3/mak&#45;&gt;3/bak</title>
<path fill="none" stroke="black" d="M134.94,-504.11C147.11,-493.6 161.23,-481.42 174.08,-470.32"/>
<polygon fill="black" stroke="black" points="176.3,-473.02 181.59,-463.84 171.73,-467.72 176.3,-473.02"/>
</g>
<!-- 3/sel -->
<g id="node16" class="node">
<title>3/sel</title>
<ellipse fill="none" stroke="black" cx="149" cy="-334.36" rx="60.63" ry="30.05"/>
<text xml:space="preserve" text-anchor="middle" x="149" y="-338.31" font-family="sans" font-size="14.00">sell_bread</text>
<text xml:space="preserve" text-anchor="middle" x="149" y="-321.06" font-family="sans" font-size="14.00">3</text>
</g>
<!-- 3/bak&#45;&gt;3/sel -->
<g id="edge17" class="edge">
<title>3/bak&#45;&gt;3/sel</title>
<path fill="none" stroke="black" d="M194.83,-406.51C188.09,-396.04 180.32,-383.99 173.13,-372.82"/>
<polygon fill="black" stroke="black" points="176.17,-371.08 167.81,-364.57 170.29,-374.87 176.17,-371.08"/>
</g>
<!-- 3/cle -->
<g id="node17" class="node">
<title>3/cle</title>
<ellipse fill="none" stroke="black" cx="294" cy="-334.36" rx="65.94" ry="30.05"/>
<text xml:space="preserve" text-anchor="middle" x="294" y="-338.31" font-family="sans" font-size="14.00">clean_oven</text>
<text xml:space="preserve" text-anchor="middle" x="294" y="-321.06" font-family="sans" font-size="14.00">3</text>
</g>
<!-- 3/bak&#45;&gt;3/cle -->
<g id="edge19" class="edge">
<title>3/bak&#45;&gt;3/cle</title>
<path fill="none" stroke="black" d="M235.56,-407.04C244.52,-396.06 254.93,-383.28 264.47,-371.58"/>
<polygon fill="black" stroke="black" points="267,-374.03 270.6,-364.06 261.57,-369.6 267,-374.03"/>
</g>
<!-- 4/pre -->
<g id="node24" class="node">
<title>4/pre</title>
<ellipse fill="none" stroke="black" cx="466" cy="-238.26" rx="82.38" ry="30.05"/>
<text xml:space="preserve" text-anchor="middle" x="466" y="-242.21" font-family="sans" font-size="14.00">pre_heat_oven</text>
<text xml:space="preserve" text-anchor="middle" x="466" y="-224.96" font-family="sans" font-size="14.00">4</text>
</g>
<!-- 3/cle&#45;&gt;4/pre -->
<g id="edge20" class="edge">
<title>3/cle&#45;&gt;4/pre</title>
<path fill="none" stroke="black" d="M335.64,-310.58C358.36,-298.15 386.76,-282.61 411.26,-269.21"/>
<polygon fill="black" stroke="black" points="412.71,-272.41 419.8,-264.53 409.35,-266.26 412.71,-272.41"/>
</g>
<!-- 3/pre&#45;&gt;3/bak -->
<g id="edge18" class="edge">
<title>3/pre&#45;&gt;3/bak</title>
<path fill="none" stroke="black" d="M258.32,-502.33C252.16,-493.41 245.26,-483.42 238.74,-473.98"/>
<polygon fill="black" stroke="black" points="241.81,-472.27 233.25,-466.03 236.05,-476.25 241.81,-472.27"/>
</g>
<!-- 4/mak -->
<g id="node20" class="node">
<title>4/mak</title>
<ellipse fill="none" stroke="black" cx="640" cy="-238.26" rx="73.89" ry="30.05"/>
<text xml:space="preserve" text-anchor="middle" x="640" y="-242.21" font-family="sans" font-size="14.00">make_dough</text>
<text xml:space="preserve" text-anchor="middle" x="640" y="-224.96" font-family="sans" font-size="14.00">4</text>
</g>
<!-- 4/pur&#45;&gt;4/mak -->
<g id="edge21" class="edge">
<title>4/pur&#45;&gt;4/mak</title>
<path fill="none" stroke="black" d="M627.6,-304.1C629.07,-296.4 630.69,-287.96 632.25,-279.78"/>
<polygon fill="black" stroke="black" points="635.68,-280.47 634.12,-269.99 628.81,-279.15 635.68,-280.47"/>
</g>
<!-- 4/bak -->
<g id="node21" class="node">
<title>4/bak</title>
<ellipse fill="none" stroke="black" cx="533" cy="-142.16" rx="67.53" ry="30.05"/>
<text xml:space="preserve" text-anchor="middle" x="533" y="-146.11" font-family="sans" font-size="14.00">bake_bread</text>
<text xml:space="preserve" text-anchor="middle" x="533" y="-128.86" font-family="sans" font-size="14.00">4</text>
</g>
<!-- 4/mak&#45;&gt;4/bak -->
<g id="edge22" class="edge">
<title>4/mak&#45;&gt;4/bak</title>
<path fill="none" stroke="black" d="M609.62,-210.55C597.68,-200.04 583.82,-187.85 571.21,-176.76"/>
<polygon fill="black" stroke="black" points="573.67,-174.26 563.85,-170.29 569.05,-179.52 573.67,-174.26"/>
</g>
<!-- 4/sel -->
<g id="node22" class="node">
<title>4/sel</title>
<ellipse fill="none" stroke="black" cx="455" cy="-46.05" rx="60.63" ry="30.05"/>
<text xml:space="preserve" text-anchor="middle" x="455" y="-50" font-family="sans" font-size="14.00">sell_bread</text>
<text xml:space="preserve" text-anchor="middle" x="455" y="-32.75" font-family="sans" font-size="14.00">4</text>
</g>
<!-- 4/bak&#45;&gt;4/sel -->
<g id="edge23" class="edge">
<title>4/bak&#45;&gt;4/sel</title>
<path fill="none" stroke="black" d="M510.02,-113.43C502.09,-103.87 493.1,-93.02 484.72,-82.91"/>
<polygon fill="black" stroke="black" points="487.59,-80.89 478.51,-75.42 482.2,-85.35 487.59,-80.89"/>
</g>
<!-- 4/cle -->
<g id="node23" class="node">
<title>4/cle</title>
<ellipse fill="none" stroke="black" cx="600" cy="-46.05" rx="65.94" ry="30.05"/>
<text xml:space="preserve" text-anchor="middle" x="600" y="-50" font-family="sans" font-size="14.00">clean_oven</text>
<text xml:space="preserve" text-anchor="middle" x="600" y="-32.75" font-family="sans" font-size="14.00">4</text>
</g>
<!-- 4/bak&#45;&gt;4/cle -->
<g id="edge25" class="edge">
<title>4/bak&#45;&gt;4/cle</title>
<path fill="none" stroke="black" d="M552.92,-113.18C559.34,-104.16 566.57,-94.01 573.39,-84.42"/>
<polygon fill="black" stroke="black" points="576.21,-86.5 579.16,-76.32 570.51,-82.44 576.21,-86.5"/>
</g>
<!-- 4/pre&#45;&gt;4/bak -->
<g id="edge24" class="edge">
<title>4/pre&#45;&gt;4/bak</title>
<path fill="none" stroke="black" d="M486.28,-208.77C492.64,-199.84 499.75,-189.86 506.47,-180.42"/>
<polygon fill="black" stroke="black" points="509.19,-182.63 512.14,-172.46 503.49,-178.57 509.19,-182.63"/>
</g>
</g>
</svg>
