<?xml version="1.0" encoding="UTF-8" standalone="no"?>
<!DOCTYPE svg PUBLIC "-//W3C//DTD SVG 1.1//EN"
 "http://www.w3.org/Graphics/SVG/1.1/DTD/svg11.dtd">
<!-- Generated by graphviz version 2.40.1 (20161225.0304)
 -->
<!-- Title: Example Pages: 1 -->
<svg width="276pt" height="191pt"
 viewBox="0.00 0.00 276.00 191.00" xmlns="http://www.w3.org/2000/svg" xmlns:xlink="http://www.w3.org/1999/xlink">
<g id="graph0" class="graph" transform="scale(1 1) rotate(0) translate(4 187)">
<title>Example</title>
<polygon fill="transparent" stroke="transparent" points="-4,4 -4,-187 272,-187 272,4 -4,4"/>
<g id="clust1" class="cluster">
<title>cluster_1</title>
<polygon fill="transparent" stroke="#00ff00" stroke-dasharray="5,2" points="8,-64 8,-139 92,-139 92,-64 8,-64"/>
<text text-anchor="middle" x="50" y="-123.8" font-family="sans" font-size="14.00" fill="#00ff00">:good</text>
</g>
<g id="clust2" class="cluster">
<title>cluster_2</title>
<polygon fill="transparent" stroke="#ff0000" stroke-dasharray="5,2" points="100,-64 100,-139 174,-139 174,-64 100,-64"/>
<text text-anchor="middle" x="137" y="-123.8" font-family="sans" font-size="14.00" fill="#ff0000">:bad</text>
</g>
<g id="clust3" class="cluster">
<title>cluster_3</title>
<polygon fill="transparent" stroke="#a020f0" stroke-dasharray="5,2" points="182,-64 182,-139 260,-139 260,-64 182,-64"/>
<text text-anchor="middle" x="221" y="-123.8" font-family="sans" font-size="14.00" fill="#a020f0">:ugly</text>
</g>
<!-- good -->
<g id="node1" class="node">
<title>good</title>
<ellipse fill="none" stroke="#000000" cx="50" cy="-90" rx="34.394" ry="18"/>
<text text-anchor="middle" x="50" y="-86.3" font-family="sans" font-size="14.00" fill="#000000">good</text>
</g>
<!-- fin -->
<g id="node5" class="node">
<title>fin</title>
<ellipse fill="none" stroke="#000000" cx="137" cy="-18" rx="27" ry="18"/>
<text text-anchor="middle" x="137" y="-14.3" font-family="sans" font-size="14.00" fill="#000000">fin</text>
</g>
<!-- good&#45;&gt;fin -->
<g id="edge4" class="edge">
<title>good&#45;&gt;fin</title>
<path fill="none" stroke="#000000" d="M68.4505,-74.7307C81.2094,-64.1716 98.3297,-50.003 112.2688,-38.4672"/>
<polygon fill="none" stroke="#000000" points="114.5789,-41.0986 120.0513,-32.0265 110.1159,-35.7058 114.5789,-41.0986"/>
</g>
<!-- bad -->
<g id="node2" class="node">
<title>bad</title>
<ellipse fill="none" stroke="#000000" cx="137" cy="-90" rx="28.6953" ry="18"/>
<text text-anchor="middle" x="137" y="-86.3" font-family="sans" font-size="14.00" fill="#000000">bad</text>
</g>
<!-- bad&#45;&gt;fin -->
<g id="edge5" class="edge">
<title>bad&#45;&gt;fin</title>
<path fill="none" stroke="#000000" d="M137,-71.8314C137,-64.131 137,-54.9743 137,-46.4166"/>
<polygon fill="none" stroke="#000000" points="140.5001,-46.4132 137,-36.4133 133.5001,-46.4133 140.5001,-46.4132"/>
</g>
<!-- ugly -->
<g id="node3" class="node">
<title>ugly</title>
<ellipse fill="none" stroke="#000000" cx="221" cy="-90" rx="30.5947" ry="18"/>
<text text-anchor="middle" x="221" y="-86.3" font-family="sans" font-size="14.00" fill="#000000">ugly</text>
</g>
<!-- ugly&#45;&gt;fin -->
<g id="edge6" class="edge">
<title>ugly&#45;&gt;fin</title>
<path fill="none" stroke="#000000" d="M203.5951,-75.0816C191.4973,-64.712 175.1959,-50.7393 161.7496,-39.2139"/>
<polygon fill="none" stroke="#000000" points="163.6797,-36.2586 153.8094,-32.408 159.1242,-41.5734 163.6797,-36.2586"/>
</g>
<!-- showdown -->
<g id="node4" class="node">
<title>showdown</title>
<ellipse fill="none" stroke="#000000" cx="137" cy="-165" rx="60.3893" ry="18"/>
<text text-anchor="middle" x="137" y="-161.3" font-family="sans" font-size="14.00" fill="#000000">showdown</text>
</g>
<!-- showdown&#45;&gt;good -->
<g id="edge1" class="edge">
<title>showdown&#45;&gt;good</title>
<path fill="none" stroke="#000000" d="M109.4207,-148.8643C104.7976,-145.7821 100.1567,-142.4381 96,-139 87.1423,-131.6737 78.2897,-122.7296 70.7501,-114.4978"/>
<polygon fill="#000000" stroke="#000000" points="73.2373,-112.0283 63.9664,-106.8998 68.0157,-116.6904 73.2373,-112.0283"/>
</g>
<!-- showdown&#45;&gt;bad -->
<g id="edge2" class="edge">
<title>showdown&#45;&gt;bad</title>
<path fill="none" stroke="#000000" d="M137,-146.8446C137,-138.3401 137,-128.0076 137,-118.4964"/>
<polygon fill="#000000" stroke="#000000" points="140.5001,-118.2481 137,-108.2482 133.5001,-118.2482 140.5001,-118.2481"/>
</g>
<!-- showdown&#45;&gt;ugly -->
<g id="edge3" class="edge">
<title>showdown&#45;&gt;ugly</title>
<path fill="none" stroke="#000000" d="M164.6776,-148.9811C169.2898,-145.886 173.9015,-142.5073 178,-139 186.5131,-131.7147 194.8726,-122.7361 201.9241,-114.4634"/>
<polygon fill="#000000" stroke="#000000" points="204.8215,-116.4518 208.4969,-106.5148 199.4269,-111.9909 204.8215,-116.4518"/>
</g>
</g>
</svg>
